# vtk DataFile Version 2.0
sampleSurface
ASCII
DATASET POLYDATA
POINTS 324 float
0 0 0 -4 0 0 4 0 0 0 0
5 -4 0 5 4 0 5 -8 0 0
8 0 0 -8 -1.97215e-31 5 8 0 5 0
0 10 -4 0 10 4 0 10 -12 2.96059e-16
0 12 0 0 -8 -1.97215e-31 10 8 0 10
-12 0 5 12 0 5 0 0 15 -4
0 15 4 0 15 -12 0 10 12 0
10 -16 2.96059e-16 0 16 0 0 -16 0 5
16 0 5 -8 -1.97215e-31 15 8 0 15 -16
0 10 16 0 10 -12 0 15 12 0
15 -20 0 0 20 0 0 0 0 20
-4 0 20 4 0 20 -20 -1.97215e-31 5 20
-1.97215e-31 5 -8 0 20 8 0 20 -16 0
15 16 0 15 -20 0 10 20 0 10
-12 -1.97215e-31 20 12 0 20 -24 0 0 24
0 0 -24 -1.97215e-31 5 24 -1.97215e-31 5 -20 0
15 20 0 15 0 0 25 -4 0 25
4 0 25 -16 -1.97215e-31 20 16 0 20 -24
0 10 24 0 10 -8 0 25 8 0
25 -12 -1.97215e-31 25 12 0 25 -28 0 0
28 0 0 -20 0 20 20 0 20 -24
0 15 24 0 15 -28 0 5 28 0
5 -16 -1.97215e-31 25 16 0 25 -28 0 10
28 0 10 -24 0 20 24 0 20 -28
0 15 28 0 15 -32 0 0 32 0
0 -20 0 25 20 0 25 -32 0 5
32 0 5 -32 0 10 32 0 10 -28
0 20 28 0 20 -24 0 25 24 0
25 -32 0 15 32 0 15 -36 0 0
36 0 0 -36 0 5 36 0 5 -36
0 10 36 0 10 -28 0 25 28 0
25 -32 0 20 32 0 20 38 0 0
38 0 5 -36 0 15 36 0 15 38
0 10 -40 0 0 40 -2.96059e-16 0 -40 0
5 40 0 5 -32 0 25 32 0 25
38 0 15 -36 0 20 36 0 20 -40
0 10 40 0 10 -40 0 15 40 0
15 38 0 20 -36 0 25 36 0 25
-44 0 0 44 -2.96059e-16 0 -44 0 5 44
0 5 -40 0 20 40 0 20 -44 0
10 44 0 10 38 0 25 -44 0 15
44 0 15 -40 0 25 40 0 25 -48
0 0 48 0 0 -48 0 5 48 0
5 -44 0 20 44 0 20 -48 0 10
48 0 10 -48 0 15 48 0 15 -44
0 25 44 0 25 -52 0 0 -48 0
20 48 0 20 52 0 0 -52 0 5
52 0 5 -52 0 10 52 0 10 -52
0 15 -48 0 25 52 0 15 48 0
25 -52 0 20 52 0 20 -56 0 0
56 0 0 -56 0 5 56 0 5 -56
0 10 56 0 10 -52 0 25 52 0
25 -56 0 15 56 0 15 -56 0 20
56 0 20 -60 0 0 60 0 0 -60
0 5 60 0 5 -60 0 10 60 0
10 -56 0 25 56 0 25 -60 0 15
60 0 15 62 0 0 62 0 5 62
0 10 -60 0 20 60 0 20 62 0
15 -64 0 0 64 -2.96059e-16 0 -64 0 5
64 0 5 -64 0 10 64 0 10 -60
0 25 60 0 25 62 0 20 -64 0
15 64 0 15 62 0 25 -64 0 20
64 0 20 -68 0 0 68 -2.96059e-16 0 -68
0 5 68 0 5 -64 0 25 64 0
25 -68 0 10 68 0 10 -68 0 15
68 0 15 -68 0 20 68 0 20 -72
0 0 72 2.96059e-16 0 72 -4.93038e-32 5 -72 0
5 -68 0 25 68 0 25 72 -4.93038e-32 10
-72 0 10 72 -4.93038e-32 15 -72 0 15 72
-4.93038e-32 20 -72 0 20 -76 0 0 76 0
0 -76 0 5 76 0 5 72 -4.93038e-32 25
-72 0 25 -76 0 10 76 0 10 -76
0 15 76 0 15 -76 0 20 76 0
20 80 4.93038e-32 0 -80 0 0 -76 0 25
76 0 25 80 4.93038e-32 5 -80 0 5 80
4.93038e-32 10 -80 0 10 80 4.93038e-32 15 -80 0
15 80 4.93038e-32 20 -80 0 20 80 4.93038e-32 25
-80 0 25 -84 0 0 84 0 0 -84
0 5 84 0 5 -84 0 10 84 0
10 -84 0 15 84 0 15 85.6 4.93038e-32 0
85.6 -4.93038e-32 5 85.6 -4.93038e-32 10 -84 0 20 84
0 20 85.6 -4.93038e-32 15 -84 0 25 84 0
25 85.6 -4.93038e-32 20 -88 0 0 88 -1.25429e-28 0
-88 0 5 88 0 5 -88 0 10 88
0 10 85.6 4.93038e-32 25 -88 0 15 88 0
15 -88 0 20 88 0 20 -88 0 25
88 -1.25429e-28 25 -92 0 0 92 -2.96059e-16 0 -92
0 5 92 0 5 -92 0 10 92 0
10 -92 0 15 92 0 15 -92 0 20
92 0 20 -92 0 25 92 0 25 -96
0 0 96 2.96059e-16 0 96 -4.93038e-32 5 -96 0
5 96 -4.93038e-32 10 -96 0 10 96 -4.93038e-32 15
-96 0 15 96 -4.93038e-32 20 -96 0 20 96
-4.93038e-32 25 -96 0 25 -100 0 0 100 0
0 -100 0 5 100 0 5 -100 0 10
100 0 10 -100 0 15 100 0 15 -100
0 20 100 0 20 -100 0 25 100 0
25 
POLYGONS 280 1400
4 300 312 314 303 4 288 300 303 290 4
275 288 290 277 4 258 275 277 260 4
245 258 260 249 4 232 245 249 234 4
220 232 234 223 4 208 220 223 210 4
194 208 210 196 4 178 194 196 180 4
166 178 180 168 4 152 166 168 156 4
140 152 156 142 4 127 140 142 129 4
111 127 129 113 4 96 111 113 98 4
86 82 96 98 4 303 314 316 305 4
290 303 305 292 4 277 290 292 279 4
260 277 279 262 4 249 260 262 251 4
234 249 251 238 4 223 234 238 227 4
210 223 227 214 4 196 210 214 198 4
180 196 198 182 4 168 180 182 170 4
156 168 170 158 4 142 156 158 146 4
129 142 146 133 4 113 129 133 120 4
98 113 120 100 4 88 86 98 100 4
305 316 318 307 4 292 305 307 294 4
279 292 294 282 4 262 279 282 264 4
251 262 264 253 4 238 251 253 240 4
227 238 240 229 4 214 227 229 216 4
198 214 216 203 4 182 198 203 186 4
170 182 186 174 4 158 170 174 160 4
146 158 160 148 4 133 146 148 136 4
120 133 136 122 4 100 120 122 108 4
94 88 100 108 4 307 318 320 309 4
294 307 309 296 4 282 294 296 284 4
264 282 284 269 4 253 264 269 255 4
240 253 255 242 4 229 240 242 231 4
216 229 231 218 4 203 216 218 206 4
186 203 206 191 4 174 186 191 176 4
160 174 176 164 4 148 160 164 153 4
136 148 153 144 4 122 136 144 131 4
108 122 131 118 4 104 94 108 118 4
309 320 322 311 4 296 309 311 298 4
284 296 298 286 4 269 284 286 272 4
255 269 272 257 4 242 255 257 246 4
231 242 246 237 4 218 231 237 224 4
206 218 224 212 4 191 206 212 200 4
176 191 200 184 4 164 176 184 172 4
153 164 172 161 4 144 153 161 150 4
131 144 150 138 4 118 131 138 125 4
115 104 118 125 4 66 82 86 72 4
49 66 72 51 4 34 49 51 39 4
24 34 39 26 4 13 24 26 17 4
6 13 17 8 4 1 6 8 4 4
0 1 4 3 4 2 0 3 5 4
7 2 5 9 4 14 7 9 18 4
25 14 18 27 4 35 25 27 40 4
50 35 40 52 4 73 67 50 52 4
72 86 88 76 4 51 72 76 60 4
39 51 60 45 4 26 39 45 30 4
17 26 30 22 4 8 17 22 15 4
4 8 15 11 4 3 4 11 10 4
5 3 10 12 4 9 5 12 16 4
18 9 16 23 4 27 18 23 31 4
40 27 31 46 4 52 40 46 61 4
73 52 61 77 4 89 87 73 77 4
76 88 94 80 4 60 76 80 70 4
45 60 70 53 4 30 45 53 43 4
22 30 43 32 4 15 22 32 28 4
11 15 28 20 4 10 11 20 19 4
12 10 19 21 4 16 12 21 29 4
23 16 29 33 4 31 23 33 44 4
46 31 44 54 4 61 46 54 71 4
77 61 71 81 4 95 89 77 81 4
80 94 104 90 4 70 80 90 78 4
53 70 78 68 4 43 53 68 58 4
32 43 58 47 4 28 32 47 41 4
20 28 41 37 4 19 20 37 36 4
21 19 36 38 4 29 21 38 42 4
33 29 42 48 4 44 33 48 59 4
54 44 59 69 4 71 54 69 79 4
81 71 79 91 4 105 95 81 91 4
90 104 115 102 4 78 90 102 92 4
68 78 92 84 4 58 68 84 74 4
47 58 74 64 4 41 47 64 62 4
37 41 62 56 4 36 37 56 55 4
38 36 55 57 4 42 38 57 63 4
48 42 63 65 4 59 48 65 75 4
69 59 75 85 4 79 69 85 93 4
91 79 93 103 4 116 105 91 103 4
87 87 83 83 4 112 106 107 114 4
128 112 114 130 4 143 141 128 130 4
89 89 87 87 4 114 107 110 121 4
130 114 121 134 4 143 130 134 147 4
157 143 147 159 4 159 159 157 157 4
95 95 89 89 4 121 110 117 123 4
134 121 123 137 4 147 134 137 149 4
159 147 149 162 4 162 162 159 159 4
199 190 193 204 4 217 215 199 204 4
105 105 95 95 4 123 117 124 132 4
137 123 132 145 4 149 137 145 154 4
162 149 154 165 4 165 165 162 162 4
204 193 202 207 4 217 204 207 219 4
228 217 219 230 4 243 241 228 230 4
116 116 105 105 4 132 124 135 139 4
145 132 139 151 4 154 145 151 163 4
165 154 163 173 4 173 173 165 165 4
207 202 205 213 4 219 207 213 225 4
230 219 225 236 4 243 230 236 247 4
247 247 243 243 4 287 285 274 281 4
67 73 87 83 4 155 141 143 157 4
157 155 155 157 4 195 188 189 197 4
209 195 197 211 4 221 209 211 222 4
233 221 222 235 4 235 233 233 235 4
276 266 267 278 4 289 276 278 291 4
301 289 291 302 4 315 313 301 302 4
97 83 87 99 4 107 106 97 99 4
167 155 157 169 4 179 167 169 181 4
189 188 179 181 4 244 233 235 248 4
259 244 248 261 4 267 266 259 261 4
197 189 190 199 4 211 197 199 215 4
222 211 215 226 4 235 222 226 239 4
239 235 235 239 4 278 267 268 280 4
291 278 280 293 4 302 291 293 304 4
317 315 302 304 4 99 87 89 101 4
110 107 99 101 4 169 157 159 171 4
181 169 171 183 4 190 189 181 183 4
248 235 239 250 4 261 248 250 263 4
268 267 261 263 4 226 215 217 228 4
239 226 228 241 4 241 239 239 241 4
280 268 271 283 4 293 280 283 295 4
304 293 295 306 4 319 317 304 306 4
101 89 95 109 4 117 110 101 109 4
171 159 162 175 4 183 171 175 187 4
193 190 183 187 4 250 239 241 252 4
263 250 252 265 4 271 268 263 265 4
243 241 241 243 4 283 271 274 285 4
295 283 285 297 4 306 295 297 308 4
321 319 306 308 4 109 95 105 119 4
124 117 109 119 4 175 162 165 177 4
187 175 177 192 4 202 193 187 192 4
252 241 243 254 4 265 252 254 270 4
274 271 265 270 4 297 285 287 299 4
308 297 299 310 4 321 308 310 323 4
119 105 116 126 4 135 124 119 126 4
177 165 173 185 4 192 177 185 201 4
205 202 192 201 4 254 243 247 256 4
270 254 256 273 4 281 274 270 273 
POINT_DATA 324
FIELD attributes 2
p 1 324 float
3.60487e-05 3.55115e-05 3.65477e-05 3.65123e-05 3.59795e-05 3.70182e-05 3.4937e-05 3.703e-05 3.54152e-05 3.75189e-05 3.76415e-05
3.71155e-05 3.81663e-05 3.4331e-05 3.75453e-05 3.65717e-05 3.87134e-05 3.48237e-05 3.80575e-05 3.88875e-05 3.83535e-05
3.94417e-05 3.60025e-05 3.93161e-05 3.36988e-05 3.81696e-05 3.42051e-05 3.87029e-05 3.78148e-05 4.0043e-05 3.54015e-05
4.00253e-05 3.72514e-05 4.0722e-05 3.30443e-05 3.9007e-05 3.97946e-05 3.92383e-05 4.03822e-05 3.35566e-05 3.9545e-05
3.86856e-05 4.10306e-05 3.66504e-05 4.15122e-05 3.47607e-05 4.09007e-05 3.81126e-05 4.17664e-05 3.23648e-05 4.00765e-05
3.28756e-05 4.05982e-05 3.60061e-05 4.24475e-05 4.01213e-05 3.95533e-05 4.07251e-05 3.75022e-05 4.26131e-05 3.40783e-05
4.19358e-05 3.89916e-05 4.13942e-05 3.84112e-05 4.21512e-05 3.16531e-05 4.13431e-05 3.68473e-05 4.35916e-05 3.53179e-05
4.34922e-05 3.21594e-05 4.1837e-05 3.77951e-05 4.30163e-05 3.33528e-05 4.31076e-05 3.61461e-05 4.46482e-05 3.45768e-05
4.46006e-05 3.09141e-05 4.28342e-05 3.71348e-05 4.40067e-05 3.14106e-05 4.32874e-05 3.25758e-05 4.44446e-05 3.53864e-05
4.57197e-05 3.64267e-05 4.50636e-05 3.37611e-05 4.58025e-05 3.01465e-05 4.45774e-05 3.06213e-05 4.49631e-05 3.17272e-05
4.59581e-05 3.5659e-05 4.61225e-05 3.45376e-05 4.68324e-05 4.55636e-05 4.59044e-05 3.28426e-05 4.71381e-05 4.68013e-05
2.9315e-05 4.65498e-05 2.97557e-05 4.68458e-05 3.47976e-05 4.72083e-05 4.78833e-05 3.35674e-05 4.80424e-05 3.07759e-05
4.76445e-05 3.17961e-05 4.86286e-05 4.87181e-05 3.38079e-05 4.8376e-05 2.83729e-05 4.87353e-05 2.87709e-05 4.89263e-05
3.24556e-05 4.93937e-05 2.9691e-05 4.94996e-05 4.90268e-05 3.06071e-05 5.0271e-05 3.26744e-05 4.96776e-05 2.72823e-05
5.10896e-05 2.7634e-05 5.11722e-05 3.11931e-05 5.08937e-05 2.84505e-05 5.15051e-05 2.9266e-05 5.20482e-05 3.13851e-05
5.11273e-05 2.60087e-05 2.97823e-05 5.25232e-05 5.34971e-05 2.63179e-05 5.35067e-05 2.70379e-05 5.36283e-05 2.77628e-05
2.99479e-05 5.39318e-05 5.27054e-05 2.82268e-05 5.42558e-05 2.45308e-05 5.58792e-05 2.48031e-05 5.585e-05 2.54405e-05
5.58095e-05 2.83765e-05 5.43883e-05 2.60948e-05 5.589e-05 2.65315e-05 5.60665e-05 2.28313e-05 5.8189e-05 2.30734e-05
5.81319e-05 2.36519e-05 5.79858e-05 2.66789e-05 5.61511e-05 2.42703e-05 5.78985e-05 5.92891e-05 5.92253e-05 5.90553e-05
2.47105e-05 5.79336e-05 5.89117e-05 2.0883e-05 6.03891e-05 2.11082e-05 6.03187e-05 2.16656e-05 6.01249e-05 2.48688e-05
5.79671e-05 5.88822e-05 2.22976e-05 5.99249e-05 5.88902e-05 2.27774e-05 5.98308e-05 1.86686e-05 6.24661e-05 1.88969e-05
6.23959e-05 2.29575e-05 5.98132e-05 1.94814e-05 6.21953e-05 2.01839e-05 6.19328e-05 2.07438e-05 6.17359e-05 1.62027e-05
6.44044e-05 6.43411e-05 1.64578e-05 2.09573e-05 6.16713e-05 6.41546e-05 1.71238e-05 6.38797e-05 1.79497e-05 6.36211e-05
1.86196e-05 1.35494e-05 6.61783e-05 1.38475e-05 6.61267e-05 6.35141e-05 1.88742e-05 1.46382e-05 6.59662e-05 1.56236e-05
6.57142e-05 1.64138e-05 6.54345e-05 6.77565e-05 1.08039e-05 1.67111e-05 6.52979e-05 6.77174e-05 1.11515e-05 6.75891e-05
1.20776e-05 6.73732e-05 1.32246e-05 6.71161e-05 1.41315e-05 6.69857e-05 1.447e-05 8.05261e-06 6.90947e-05 8.44905e-06
6.90667e-05 9.49139e-06 6.89678e-05 1.07641e-05 6.8794e-05 6.95104e-05 6.94853e-05 6.93959e-05 1.17625e-05 6.85971e-05
6.92402e-05 1.21342e-05 6.8503e-05 6.90685e-05 5.43488e-06 7.01339e-05 5.85123e-06 7.01132e-05 6.93417e-06 7.00381e-05
6.89881e-05 8.24265e-06 6.99096e-05 9.26831e-06 6.97757e-05 9.65206e-06 6.97159e-05 3.12527e-06 7.08011e-05 3.49627e-06
7.07826e-05 4.46075e-06 7.07213e-05 5.63236e-06 7.06243e-05 6.56342e-06 7.0528e-05 6.91636e-06 7.04861e-05 1.28512e-06
7.09821e-05 7.0961e-05 1.52018e-06 7.08983e-05 2.13415e-06 7.08043e-05 2.8899e-06 7.0715e-05 3.50186e-06 7.06781e-05
3.73699e-06 2.67812e-07 7.09323e-05 0 7.0909e-05 0 7.08411e-05 0 7.074e-05 0
7.0648e-05 1.06525e-06 7.06126e-05 
U 3 324 float
-10 0 0 -10 0 0 -10 0 0 -10 2.58979e-06
5.72667e-08 -10 2.53619e-06 8.81981e-08 -10 2.64348e-06 4.82482e-08 -10 0 0
-10 0 0 -10 2.48729e-06 1.20294e-07 -10 2.70247e-06 6.82686e-08 -10
2.64117e-06 8.43966e-08 -10 2.58649e-06 1.2309e-07 -10 2.69453e-06 7.1707e-08 -10 0
0 -10 0 0 -10 2.53614e-06 1.69058e-07 -10 2.74828e-06 8.73071e-08
-10 2.44426e-06 1.50829e-07 -10 2.76247e-06 1.06416e-07 -10 2.65757e-06 8.71467e-08 -10
2.60791e-06 1.03752e-07 -10 2.70547e-06 7.86761e-08 -10 2.4917e-06 1.98775e-07 -10 2.80088e-06
1.32887e-07 -10 0 0 -10 0 0 -10 2.41304e-06 1.745e-07
-10 2.81684e-06 1.65763e-07 -10 2.55692e-06 1.25418e-07 -10 2.75205e-06 8.45818e-08 -10
2.45641e-06 2.04979e-07 -10 2.84539e-06 2.04624e-07 -10 2.51137e-06 1.3786e-07 -10 2.79949e-06
1.14971e-07 -10 0 0 -10 0 0 -10 2.81371e-06 6.66609e-08
-10 2.75897e-06 6.37052e-08 -10 2.86759e-06 7.38636e-08 -10 2.39386e-06 1.74907e-07 -10
2.19039e-06 2.00423e-07 -10 2.70371e-06 6.34593e-08 -10 2.92368e-06 8.57752e-08 -10 2.47444e-06
1.33915e-07 -10 2.84748e-06 1.61644e-07 -10 2.43578e-06 1.92936e-07 -10 2.20918e-06 2.67198e-07
-10 2.65471e-06 6.39473e-08 -10 2.97777e-06 1.00189e-07 -10 0 0 -10
0 0 -10 2.37709e-06 1.57284e-07 -10 1.35112e-06 1.93029e-07 -10 2.44929e-06
1.20873e-07 -10 2.21952e-06 2.16639e-07 -10 2.96652e-06 0 -10 2.9058e-06 0
-10 3.02955e-06 0 -10 2.61514e-06 6.05289e-08 -10 3.03523e-06 1.15735e-07 -10
2.4222e-06 1.76117e-07 -10 1.36591e-06 2.90258e-07 -10 2.84822e-06 0 -10 3.09486e-06
0 -10 2.79775e-06 0 -10 3.15736e-06 0 -10 0 0
-10 0 0 -10 2.58454e-06 5.33996e-08 -10 2.4306e-06 1.36097e-07 -10
2.43344e-06 1.09393e-07 -10 1.38551e-06 2.62108e-07 -10 2.3178e-06 1.46351e-07 -10 1.10052e-06
1.91406e-07 -10 2.75256e-06 0 -10 3.22191e-06 0 -10 2.353e-06 1.69217e-07
-10 1.11052e-06 2.83933e-07 -10 2.56047e-06 4.54378e-08 -10 1.62236e-06 1.59381e-07 -10
2.36999e-06 1.05351e-07 -10 1.12322e-06 2.70828e-07 -10 0 0 -10 0
0 -10 2.71538e-06 0 -10 2.63316e-06 0 -10 2.24533e-06 1.34979e-07
-10 9.74763e-07 1.91436e-07 -10 2.27335e-06 1.58245e-07 -10 9.78008e-07 2.45621e-07 -10
2.49059e-06 3.93226e-08 -10 1.38849e-06 1.69845e-07 -10 2.68196e-06 0 -10 1.85041e-06
0 -10 2.29853e-06 9.32045e-08 -10 1.00212e-06 2.31273e-07 -10 0 0
-10 0 0 -10 2.21558e-06 1.07342e-07 -10 9.03839e-07 1.64655e-07 -10
2.25302e-06 1.1709e-07 -10 9.12281e-07 2.04715e-07 -10 2.60995e-06 0 -10 1.64776e-06
0 -10 2.41568e-06 2.92517e-08 -10 1.2842e-06 1.65562e-07 -10 0 0
-10 8.69398e-07 1.48875e-07 -10 2.27939e-06 5.6068e-08 -10 9.33274e-07 1.90223e-07 -10
8.83192e-07 1.97652e-07 -10 0 0 -10 0 0 -10 2.20889e-06
7.63789e-08 -10 8.34957e-07 1.33094e-07 -10 2.52814e-06 0 -10 1.55141e-06 0
-10 8.90604e-07 1.82625e-07 -10 2.38868e-06 7.56323e-09 -10 1.21428e-06 1.529e-07 -10
2.24422e-06 6.45125e-08 -10 8.54103e-07 1.90589e-07 -10 2.26982e-06 1.03522e-08 -10 8.47935e-07
1.75027e-07 -10 1.17233e-06 1.46687e-07 -10 2.48725e-06 0 -10 1.48642e-06 0
-10 0 0 -10 0 0 -10 2.22271e-06 4.46235e-08 -10
7.47129e-07 7.33411e-08 -10 2.38109e-06 -1.39227e-08 -10 1.13038e-06 1.40474e-07 -10 2.2556e-06
2.21985e-08 -10 7.38568e-07 1.4951e-07 -10 1.45381e-06 0 -10 2.28085e-06 -2.69064e-08
-10 7.20107e-07 1.54448e-07 -10 2.48125e-06 0 -10 1.42121e-06 0 -10
0 0 -10 0 0 -10 2.25465e-06 2.31368e-08 -10 6.01701e-07
-1.30594e-08 -10 2.38604e-06 -3.43667e-08 -10 1.00461e-06 1.2872e-07 -10 2.29353e-06 -1.47526e-09
-10 5.77391e-07 7.24977e-08 -10 2.32154e-06 -4.62638e-08 -10 5.47382e-07 1.18243e-07 -10
2.47914e-06 0 -10 1.29959e-06 0 -10 0 0 -10 2.40819e-06
-5.05485e-08 -10 8.37456e-07 1.09345e-07 -10 0 0 -10 2.29124e-06 1.70595e-08
-10 3.48528e-07 -6.02504e-08 -10 2.33333e-06 -7.83937e-09 -10 3.51567e-07 -2.20443e-08 -10
2.37318e-06 -4.86113e-08 -10 2.48116e-06 0 -10 3.17433e-07 6.15449e-08 -10 1.13838e-06
0 -10 2.45842e-06 -5.29262e-08 -10 6.14972e-07 8.7823e-08 -10 0 0
-10 0 0 -10 2.31462e-06 1.46803e-08 -10 3.23465e-08 -8.78997e-08 -10
2.37053e-06 -9.13335e-09 -10 5.41046e-08 -1.10692e-07 -10 2.51927e-06 0 -10 9.225e-07
0 -10 2.42159e-06 -4.32917e-08 -10 2.78961e-08 9.29896e-10 -10 2.50812e-06 -4.34727e-08
-10 3.29879e-07 7.14292e-08 -10 0 0 -10 0 0 -10
2.33605e-06 1.59541e-08 -10 -3.54538e-07 -1.02136e-07 -10 2.40683e-06 -6.62387e-09 -10 -3.2717e-07
-1.34116e-07 -10 2.56801e-06 0 -10 6.44404e-07 0 -10 2.46472e-06 -3.4554e-08
-10 -3.38067e-07 -3.06795e-08 -10 0 0 -10 -5.75024e-07 -9.27639e-08 -10
-5.42689e-07 -1.26559e-07 -10 2.54914e-06 -2.80232e-08 -10 -2.78834e-08 5.58075e-08 -10 -5.51986e-07
-4.20816e-08 -10 0 0 -10 0 0 -10 2.3651e-06 1.79385e-08
-10 -7.95509e-07 -8.33915e-08 -10 2.4439e-06 2.40184e-09 -10 -7.58209e-07 -1.19001e-07 -10
2.6089e-06 0 -10 2.94752e-07 0 -10 -2.41925e-07 4.61641e-08 -10 2.51224e-06
-1.90142e-08 -10 -7.65905e-07 -5.34838e-08 -10 8.20492e-08 0 -10 2.58949e-06 -1.44804e-08
-10 -4.55967e-07 3.65207e-08 -10 0 0 -10 0 0 -10
2.408e-06 1.93938e-08 -10 -1.30078e-06 -6.24553e-08 -10 2.6435e-06 0 -10 -1.30654e-07
0 -10 2.48043e-06 1.79807e-08 -10 -1.26564e-06 -9.62259e-08 -10 2.55562e-06 1.40307e-08
-10 -1.27404e-06 -6.70765e-08 -10 2.6272e-06 7.48623e-09 -10 -9.59618e-07 1.83947e-08 -10
0 0 -10 0 0 -10 -1.8954e-06 -4.98856e-08 -10 2.462e-06
2.60513e-08 -10 2.67159e-06 0 -10 -6.39778e-07 0 -10 -1.87524e-06 -6.1157e-08
-10 2.51764e-06 4.35379e-08 -10 -1.875e-06 -5.44066e-08 -10 2.58771e-06 5.44184e-08 -10
-1.54536e-06 7.18049e-10 -10 2.65754e-06 3.12013e-08 -10 0 0 -10 0
0 -10 2.49775e-06 4.84362e-08 -10 -2.58296e-06 -3.21005e-08 -10 -1.22827e-06 0
-10 2.69015e-06 0 -10 2.54201e-06 9.84193e-08 -10 -2.56464e-06 -3.41578e-08 -10
2.61079e-06 1.03614e-07 -10 -2.5636e-06 -3.99809e-08 -10 2.67172e-06 5.34577e-08 -10 -2.23463e-06
-2.96335e-08 -10 0 0 -10 0 0 -10 2.69316e-06 0
-10 -1.90642e-06 0 -10 -3.35758e-06 -1.60866e-08 -10 2.48694e-06 9.43983e-08 -10
-3.34564e-06 -1.83488e-08 -10 2.53052e-06 1.8661e-07 -10 -3.35241e-06 -2.6901e-08 -10 2.60567e-06
1.82454e-07 -10 -3.04231e-06 -2.76286e-08 -10 2.65324e-06 9.34533e-08 -10 -2.72118e-06 0
-10 2.66595e-06 0 -10 0 0 -10 0 0 -10
2.39771e-06 1.87164e-07 -10 -4.22767e-06 -2.82644e-09 -10 2.46113e-06 3.25522e-07 -10 -4.22659e-06
-3.66563e-09 -10 2.5433e-06 3.10518e-07 -10 -4.23311e-06 1.55966e-09 -10 0 0
-10 -4.61711e-06 1.77284e-09 -10 -4.61887e-06 4.0442e-09 -10 2.5823e-06 1.66944e-07 -10
-3.91269e-06 1.11443e-08 -10 -4.62227e-06 1.3757e-08 -10 2.5904e-06 0 -10 -3.58326e-06
0 -10 -4.29936e-06 2.08317e-08 -10 0 0 -10 0 0
-10 2.2144e-06 3.38283e-07 -10 -5.20126e-06 8.67177e-09 -10 2.30199e-06 5.45712e-07 -10
-5.20727e-06 1.56089e-08 -10 -3.97065e-06 0 -10 2.40785e-06 5.15946e-07 -10 -5.20601e-06
3.20531e-08 -10 2.45507e-06 2.9112e-07 -10 -4.87938e-06 3.53629e-08 -10 2.45948e-06 0
-10 -4.55174e-06 0 -10 0 0 -10 0 0 -10
1.92541e-06 5.00615e-07 -10 -6.28999e-06 1.46975e-08 -10 2.03058e-06 8.2141e-07 -10 -6.30219e-06
3.19949e-08 -10 2.17996e-06 8.11037e-07 -10 -6.29685e-06 4.49871e-08 -10 2.26666e-06 4.8572e-07
-10 -6.00049e-06 3.99751e-08 -10 2.28233e-06 0 -10 -5.70902e-06 0 -10
0 0 -10 0 0 -10 -3.20296e-06 4.0025e-09 -10 1.58266e-06
5.46441e-07 -10 -3.20882e-06 1.2522e-08 -10 1.71829e-06 9.18958e-07 -10 -3.20811e-06 1.83373e-08
-10 1.90656e-06 9.39742e-07 -10 -3.05443e-06 1.67635e-08 -10 2.03185e-06 5.80024e-07 -10
-2.90144e-06 0 -10 2.06368e-06 0 -10 6.36462e-07 1.32729e-07 -10 0
0 -10 1.4133e-06 5.17972e-07 -10 0 0 -10 1.57142e-06 8.72013e-07
-10 0 0 -10 1.77336e-06 8.98284e-07 -10 0 0 -10
1.90857e-06 5.56362e-07 -10 0 0 -10 1.94356e-06 1.44097e-07 -10 2.70317e-07
0 
