# vtk DataFile Version 2.0
sampleSurface
ASCII
DATASET POLYDATA
POINTS 324 float
0 0 0 -4 0 0 4 0 0 0 0
5 -4 0 5 4 0 5 -8 0 0
8 0 0 -8 -1.97215e-31 5 8 0 5 0
0 10 -4 0 10 4 0 10 -12 2.96059e-16
0 12 0 0 -8 -1.97215e-31 10 8 0 10
-12 0 5 12 0 5 0 0 15 -4
0 15 4 0 15 -12 0 10 12 0
10 -16 2.96059e-16 0 16 0 0 -16 0 5
16 0 5 -8 -1.97215e-31 15 8 0 15 -16
0 10 16 0 10 -12 0 15 12 0
15 -20 0 0 20 0 0 0 0 20
-4 0 20 4 0 20 -20 -1.97215e-31 5 20
-1.97215e-31 5 -8 0 20 8 0 20 -16 0
15 16 0 15 -20 0 10 20 0 10
-12 -1.97215e-31 20 12 0 20 -24 0 0 24
0 0 -24 -1.97215e-31 5 24 -1.97215e-31 5 -20 0
15 20 0 15 0 0 25 -4 0 25
4 0 25 -16 -1.97215e-31 20 16 0 20 -24
0 10 24 0 10 -8 0 25 8 0
25 -12 -1.97215e-31 25 12 0 25 -28 0 0
28 0 0 -20 0 20 20 0 20 -24
0 15 24 0 15 -28 0 5 28 0
5 -16 -1.97215e-31 25 16 0 25 -28 0 10
28 0 10 -24 0 20 24 0 20 -28
0 15 28 0 15 -32 0 0 32 0
0 -20 0 25 20 0 25 -32 0 5
32 0 5 -32 0 10 32 0 10 -28
0 20 28 0 20 -24 0 25 24 0
25 -32 0 15 32 0 15 -36 0 0
36 0 0 -36 0 5 36 0 5 -36
0 10 36 0 10 -28 0 25 28 0
25 -32 0 20 32 0 20 38 0 0
38 0 5 -36 0 15 36 0 15 38
0 10 -40 0 0 40 -2.96059e-16 0 -40 0
5 40 0 5 -32 0 25 32 0 25
38 0 15 -36 0 20 36 0 20 -40
0 10 40 0 10 -40 0 15 40 0
15 38 0 20 -36 0 25 36 0 25
-44 0 0 44 -2.96059e-16 0 -44 0 5 44
0 5 -40 0 20 40 0 20 -44 0
10 44 0 10 38 0 25 -44 0 15
44 0 15 -40 0 25 40 0 25 -48
0 0 48 0 0 -48 0 5 48 0
5 -44 0 20 44 0 20 -48 0 10
48 0 10 -48 0 15 48 0 15 -44
0 25 44 0 25 -52 0 0 -48 0
20 48 0 20 52 0 0 -52 0 5
52 0 5 -52 0 10 52 0 10 -52
0 15 -48 0 25 52 0 15 48 0
25 -52 0 20 52 0 20 -56 0 0
56 0 0 -56 0 5 56 0 5 -56
0 10 56 0 10 -52 0 25 52 0
25 -56 0 15 56 0 15 -56 0 20
56 0 20 -60 0 0 60 0 0 -60
0 5 60 0 5 -60 0 10 60 0
10 -56 0 25 56 0 25 -60 0 15
60 0 15 62 0 0 62 0 5 62
0 10 -60 0 20 60 0 20 62 0
15 -64 0 0 64 -2.96059e-16 0 -64 0 5
64 0 5 -64 0 10 64 0 10 -60
0 25 60 0 25 62 0 20 -64 0
15 64 0 15 62 0 25 -64 0 20
64 0 20 -68 0 0 68 -2.96059e-16 0 -68
0 5 68 0 5 -64 0 25 64 0
25 -68 0 10 68 0 10 -68 0 15
68 0 15 -68 0 20 68 0 20 -72
0 0 72 2.96059e-16 0 72 -4.93038e-32 5 -72 0
5 -68 0 25 68 0 25 72 -4.93038e-32 10
-72 0 10 72 -4.93038e-32 15 -72 0 15 72
-4.93038e-32 20 -72 0 20 -76 0 0 76 0
0 -76 0 5 76 0 5 72 -4.93038e-32 25
-72 0 25 -76 0 10 76 0 10 -76
0 15 76 0 15 -76 0 20 76 0
20 80 4.93038e-32 0 -80 0 0 -76 0 25
76 0 25 80 4.93038e-32 5 -80 0 5 80
4.93038e-32 10 -80 0 10 80 4.93038e-32 15 -80 0
15 80 4.93038e-32 20 -80 0 20 80 4.93038e-32 25
-80 0 25 -84 0 0 84 0 0 -84
0 5 84 0 5 -84 0 10 84 0
10 -84 0 15 84 0 15 85.6 4.93038e-32 0
85.6 -4.93038e-32 5 85.6 -4.93038e-32 10 -84 0 20 84
0 20 85.6 -4.93038e-32 15 -84 0 25 84 0
25 85.6 -4.93038e-32 20 -88 0 0 88 -1.25429e-28 0
-88 0 5 88 0 5 -88 0 10 88
0 10 85.6 4.93038e-32 25 -88 0 15 88 0
15 -88 0 20 88 0 20 -88 0 25
88 -1.25429e-28 25 -92 0 0 92 -2.96059e-16 0 -92
0 5 92 0 5 -92 0 10 92 0
10 -92 0 15 92 0 15 -92 0 20
92 0 20 -92 0 25 92 0 25 -96
0 0 96 2.96059e-16 0 96 -4.93038e-32 5 -96 0
5 96 -4.93038e-32 10 -96 0 10 96 -4.93038e-32 15
-96 0 15 96 -4.93038e-32 20 -96 0 20 96
-4.93038e-32 25 -96 0 25 -100 0 0 100 0
0 -100 0 5 100 0 5 -100 0 10
100 0 10 -100 0 15 100 0 15 -100
0 20 100 0 20 -100 0 25 100 0
25 
POLYGONS 280 1400
4 300 312 314 303 4 288 300 303 290 4
275 288 290 277 4 258 275 277 260 4
245 258 260 249 4 232 245 249 234 4
220 232 234 223 4 208 220 223 210 4
194 208 210 196 4 178 194 196 180 4
166 178 180 168 4 152 166 168 156 4
140 152 156 142 4 127 140 142 129 4
111 127 129 113 4 96 111 113 98 4
86 82 96 98 4 303 314 316 305 4
290 303 305 292 4 277 290 292 279 4
260 277 279 262 4 249 260 262 251 4
234 249 251 238 4 223 234 238 227 4
210 223 227 214 4 196 210 214 198 4
180 196 198 182 4 168 180 182 170 4
156 168 170 158 4 142 156 158 146 4
129 142 146 133 4 113 129 133 120 4
98 113 120 100 4 88 86 98 100 4
305 316 318 307 4 292 305 307 294 4
279 292 294 282 4 262 279 282 264 4
251 262 264 253 4 238 251 253 240 4
227 238 240 229 4 214 227 229 216 4
198 214 216 203 4 182 198 203 186 4
170 182 186 174 4 158 170 174 160 4
146 158 160 148 4 133 146 148 136 4
120 133 136 122 4 100 120 122 108 4
94 88 100 108 4 307 318 320 309 4
294 307 309 296 4 282 294 296 284 4
264 282 284 269 4 253 264 269 255 4
240 253 255 242 4 229 240 242 231 4
216 229 231 218 4 203 216 218 206 4
186 203 206 191 4 174 186 191 176 4
160 174 176 164 4 148 160 164 153 4
136 148 153 144 4 122 136 144 131 4
108 122 131 118 4 104 94 108 118 4
309 320 322 311 4 296 309 311 298 4
284 296 298 286 4 269 284 286 272 4
255 269 272 257 4 242 255 257 246 4
231 242 246 237 4 218 231 237 224 4
206 218 224 212 4 191 206 212 200 4
176 191 200 184 4 164 176 184 172 4
153 164 172 161 4 144 153 161 150 4
131 144 150 138 4 118 131 138 125 4
115 104 118 125 4 66 82 86 72 4
49 66 72 51 4 34 49 51 39 4
24 34 39 26 4 13 24 26 17 4
6 13 17 8 4 1 6 8 4 4
0 1 4 3 4 2 0 3 5 4
7 2 5 9 4 14 7 9 18 4
25 14 18 27 4 35 25 27 40 4
50 35 40 52 4 73 67 50 52 4
72 86 88 76 4 51 72 76 60 4
39 51 60 45 4 26 39 45 30 4
17 26 30 22 4 8 17 22 15 4
4 8 15 11 4 3 4 11 10 4
5 3 10 12 4 9 5 12 16 4
18 9 16 23 4 27 18 23 31 4
40 27 31 46 4 52 40 46 61 4
73 52 61 77 4 89 87 73 77 4
76 88 94 80 4 60 76 80 70 4
45 60 70 53 4 30 45 53 43 4
22 30 43 32 4 15 22 32 28 4
11 15 28 20 4 10 11 20 19 4
12 10 19 21 4 16 12 21 29 4
23 16 29 33 4 31 23 33 44 4
46 31 44 54 4 61 46 54 71 4
77 61 71 81 4 95 89 77 81 4
80 94 104 90 4 70 80 90 78 4
53 70 78 68 4 43 53 68 58 4
32 43 58 47 4 28 32 47 41 4
20 28 41 37 4 19 20 37 36 4
21 19 36 38 4 29 21 38 42 4
33 29 42 48 4 44 33 48 59 4
54 44 59 69 4 71 54 69 79 4
81 71 79 91 4 105 95 81 91 4
90 104 115 102 4 78 90 102 92 4
68 78 92 84 4 58 68 84 74 4
47 58 74 64 4 41 47 64 62 4
37 41 62 56 4 36 37 56 55 4
38 36 55 57 4 42 38 57 63 4
48 42 63 65 4 59 48 65 75 4
69 59 75 85 4 79 69 85 93 4
91 79 93 103 4 116 105 91 103 4
87 87 83 83 4 112 106 107 114 4
128 112 114 130 4 143 141 128 130 4
89 89 87 87 4 114 107 110 121 4
130 114 121 134 4 143 130 134 147 4
157 143 147 159 4 159 159 157 157 4
95 95 89 89 4 121 110 117 123 4
134 121 123 137 4 147 134 137 149 4
159 147 149 162 4 162 162 159 159 4
199 190 193 204 4 217 215 199 204 4
105 105 95 95 4 123 117 124 132 4
137 123 132 145 4 149 137 145 154 4
162 149 154 165 4 165 165 162 162 4
204 193 202 207 4 217 204 207 219 4
228 217 219 230 4 243 241 228 230 4
116 116 105 105 4 132 124 135 139 4
145 132 139 151 4 154 145 151 163 4
165 154 163 173 4 173 173 165 165 4
207 202 205 213 4 219 207 213 225 4
230 219 225 236 4 243 230 236 247 4
247 247 243 243 4 287 285 274 281 4
67 73 87 83 4 155 141 143 157 4
157 155 155 157 4 195 188 189 197 4
209 195 197 211 4 221 209 211 222 4
233 221 222 235 4 235 233 233 235 4
276 266 267 278 4 289 276 278 291 4
301 289 291 302 4 315 313 301 302 4
97 83 87 99 4 107 106 97 99 4
167 155 157 169 4 179 167 169 181 4
189 188 179 181 4 244 233 235 248 4
259 244 248 261 4 267 266 259 261 4
197 189 190 199 4 211 197 199 215 4
222 211 215 226 4 235 222 226 239 4
239 235 235 239 4 278 267 268 280 4
291 278 280 293 4 302 291 293 304 4
317 315 302 304 4 99 87 89 101 4
110 107 99 101 4 169 157 159 171 4
181 169 171 183 4 190 189 181 183 4
248 235 239 250 4 261 248 250 263 4
268 267 261 263 4 226 215 217 228 4
239 226 228 241 4 241 239 239 241 4
280 268 271 283 4 293 280 283 295 4
304 293 295 306 4 319 317 304 306 4
101 89 95 109 4 117 110 101 109 4
171 159 162 175 4 183 171 175 187 4
193 190 183 187 4 250 239 241 252 4
263 250 252 265 4 271 268 263 265 4
243 241 241 243 4 283 271 274 285 4
295 283 285 297 4 306 295 297 308 4
321 319 306 308 4 109 95 105 119 4
124 117 109 119 4 175 162 165 177 4
187 175 177 192 4 202 193 187 192 4
252 241 243 254 4 265 252 254 270 4
274 271 265 270 4 297 285 287 299 4
308 297 299 310 4 321 308 310 323 4
119 105 116 126 4 135 124 119 126 4
177 165 173 185 4 192 177 185 201 4
205 202 192 201 4 254 243 247 256 4
270 254 256 273 4 281 274 270 273 
POINT_DATA 324
FIELD attributes 2
p 1 324 float
0 0 0 0 0 0 0 0 0 0 0
0 0 0 0 0 0 0 0 0 0
0 0 0 0 0 0 0 0 0 0
0 0 0 0 0 0 0 0 0 0
0 0 0 0 0 0 0 0 0 0
0 0 0 0 0 0 0 0 0 0
0 0 0 0 0 0 0 0 0 0
0 0 0 0 0 0 0 0 0 0
0 0 0 0 0 0 0 0 0 0
0 0 0 0 0 0 0 0 0 0
0 0 0 0 0 0 0 0 0 0
0 0 0 0 0 0 0 0 0 0
0 0 0 0 0 0 0 0 0 0
0 0 0 0 0 0 0 0 0 0
0 0 0 0 0 0 0 0 0 0
0 0 0 0 0 0 0 0 0 0
0 0 0 0 0 0 0 0 0 0
0 0 0 0 0 0 0 0 0 0
0 0 0 0 0 0 0 0 0 0
0 0 0 0 0 0 0 0 0 0
0 0 0 0 0 0 0 0 0 0
0 0 0 0 0 0 0 0 0 0
0 0 0 0 0 0 0 0 0 0
0 0 0 0 0 0 0 0 0 0
0 0 0 0 0 0 0 0 0 0
0 0 0 0 0 0 0 0 0 0
0 0 0 0 0 0 0 0 0 0
0 0 0 0 0 0 0 0 0 0
0 0 0 0 0 0 0 0 0 0
0 0 0 0 0 0 0 0 0 0
0 0 0 0 0 0 0 0 0 0
0 0 0 0 0 0 0 0 0 0
0 0 0 
U 3 324 float
-10 0 0 -10 0 0 -10 0 0 -10 6.27329e-06
3.63823e-07 -10 5.93819e-06 4.34127e-07 -10 6.62952e-06 3.03748e-07 -10 0 0
-10 0 0 -10 5.64095e-06 4.87375e-07 -10 7.00559e-06 2.8706e-07 -10
6.61739e-06 4.59909e-07 -10 6.29914e-06 5.53518e-07 -10 6.94843e-06 3.83845e-07 -10 0
0 -10 0 0 -10 5.99672e-06 6.30655e-07 -10 7.28586e-06 3.70568e-07
-10 5.37069e-06 5.20427e-07 -10 7.38525e-06 3.44962e-07 -10 6.9671e-06 3.08653e-07 -10
6.66131e-06 3.8276e-07 -10 7.27309e-06 2.54369e-07 -10 5.70386e-06 6.81577e-07 -10 7.61803e-06
4.64015e-07 -10 0 0 -10 0 0 -10 5.10969e-06 5.36931e-07
-10 7.7433e-06 4.98242e-07 -10 6.35389e-06 4.50135e-07 -10 7.57343e-06 2.57518e-07 -10
5.40302e-06 7.12341e-07 -10 7.92219e-06 6.90896e-07 -10 6.03869e-06 4.98856e-07 -10 7.85825e-06
3.53499e-07 -10 0 0 -10 0 0 -10 7.23036e-06 1.1752e-07
-10 6.93012e-06 1.55913e-07 -10 7.51962e-06 9.35037e-08 -10 4.81818e-06 5.50169e-07 -10
8.01691e-06 7.59707e-07 -10 6.61901e-06 1.93131e-07 -10 7.79575e-06 1.03651e-07 -10 5.70134e-06
5.31578e-07 -10 8.11228e-06 5.65263e-07 -10 5.06576e-06 7.37054e-07 -10 8.16432e-06 1.05949e-06
-10 6.28962e-06 2.2203e-07 -10 8.04955e-06 1.66855e-07 -10 0 0 -10
0 0 -10 4.46275e-06 5.70304e-07 -10 8.22735e-06 1.05899e-06 -10 5.32351e-06
5.55939e-07 -10 8.326e-06 8.97032e-07 -10 7.33685e-06 0 -10 7.0402e-06 0
-10 7.62287e-06 0 -10 5.93245e-06 2.41187e-07 -10 8.2797e-06 2.97261e-07 -10
4.66798e-06 7.6616e-07 -10 8.33225e-06 1.50157e-06 -10 6.72574e-06 0 -10 7.88839e-06
0 -10 6.3934e-06 0 -10 8.13433e-06 0 -10 0 0
-10 0 0 -10 5.53496e-06 2.53237e-07 -10 8.49677e-06 4.98663e-07 -10
4.89213e-06 5.78034e-07 -10 8.50651e-06 1.29656e-06 -10 4.01524e-06 5.96855e-07 -10 8.36706e-06
1.30474e-06 -10 6.02981e-06 0 -10 8.3596e-06 0 -10 4.195e-06 7.96773e-07
-10 8.46601e-06 1.92715e-06 -10 5.09078e-06 2.61263e-07 -10 8.68306e-06 7.28799e-07 -10
4.4029e-06 5.97018e-07 -10 8.63049e-06 1.68629e-06 -10 0 0 -10 0
0 -10 5.62942e-06 0 -10 8.5869e-06 0 -10 3.64769e-06 5.67352e-07
-10 8.40298e-06 1.56787e-06 -10 3.80426e-06 7.55983e-07 -10 8.53521e-06 2.28165e-06 -10
4.60224e-06 2.68552e-07 -10 8.81405e-06 9.36411e-07 -10 5.18385e-06 0 -10 8.76591e-06
0 -10 4.00281e-06 5.66155e-07 -10 8.72191e-06 1.9776e-06 -10 0 0
-10 0 0 -10 3.39779e-06 4.82254e-07 -10 8.5786e-06 1.70413e-06 -10
3.54476e-06 6.44035e-07 -10 8.72188e-06 2.40068e-06 -10 4.70385e-06 0 -10 8.89803e-06
0 -10 4.2062e-06 2.53119e-07 -10 8.92134e-06 1.09624e-06 -10 0 0
-10 8.77144e-06 1.68935e-06 -10 3.74277e-06 4.85297e-07 -10 8.93572e-06 2.05906e-06 -10
8.92286e-06 2.37047e-06 -10 0 0 -10 0 0 -10 3.13799e-06
3.93744e-07 -10 8.96428e-06 1.67458e-06 -10 4.31006e-06 0 -10 9.01526e-06 0
-10 9.11502e-06 2.03161e-06 -10 3.94949e-06 2.18027e-07 -10 9.12833e-06 1.15396e-06 -10
3.3018e-06 5.27243e-07 -10 9.12384e-06 2.34025e-06 -10 3.51727e-06 4.0441e-07 -10 9.29432e-06
2.00415e-06 -10 9.29299e-06 1.14443e-06 -10 4.04832e-06 0 -10 9.20895e-06 0
-10 0 0 -10 0 0 -10 2.88069e-06 3.06905e-07 -10
9.54122e-06 1.58322e-06 -10 3.74402e-06 1.93491e-07 -10 9.45766e-06 1.13489e-06 -10 3.08521e-06
4.2704e-07 -10 9.61622e-06 2.22783e-06 -10 9.37389e-06 0 -10 3.33665e-06 3.4116e-07
-10 9.72537e-06 1.9237e-06 -10 3.85617e-06 0 -10 9.53882e-06 0 -10
0 0 -10 0 0 -10 2.61828e-06 2.3619e-07 -10 1.02922e-05
1.31054e-06 -10 3.56233e-06 1.62359e-07 -10 9.85112e-06 1.10043e-06 -10 2.86777e-06 3.5881e-07
-10 1.02055e-05 2.01004e-06 -10 3.17297e-06 3.27058e-07 -10 1.02178e-05 1.81688e-06 -10
3.65894e-06 0 -10 9.92394e-06 0 -10 0 0 -10 3.40518e-06
1.77296e-07 -10 1.0298e-05 1.04536e-06 -10 0 0 -10 2.34013e-06 1.89607e-07
-10 1.10154e-05 9.42905e-07 -10 2.63032e-06 3.30034e-07 -10 1.0851e-05 1.65461e-06 -10
2.98405e-06 3.68569e-07 -10 3.48032e-06 0 -10 1.07407e-05 1.62114e-06 -10 1.03572e-05
0 -10 3.25334e-06 2.48393e-07 -10 1.07746e-05 9.59318e-07 -10 0 0
-10 0 0 -10 2.04924e-06 1.86221e-07 -10 1.16433e-05 6.0708e-07 -10
2.37214e-06 3.6756e-07 -10 1.14734e-05 1.17131e-06 -10 3.34018e-06 0 -10 1.08208e-05
0 -10 2.74874e-06 4.58299e-07 -10 1.12848e-05 1.30646e-06 -10 3.0434e-06 3.38344e-07
-10 1.12616e-05 8.47903e-07 -10 0 0 -10 0 0 -10
1.74196e-06 2.42465e-07 -10 1.21738e-05 3.04644e-07 -10 2.0821e-06 5.02801e-07 -10 1.1992e-05
6.69303e-07 -10 3.15711e-06 0 -10 1.12919e-05 0 -10 2.47243e-06 6.3137e-07
-10 1.17925e-05 9.5197e-07 -10 0 0 -10 1.23947e-05 1.71004e-07 -10
1.22328e-05 4.58225e-07 -10 2.78207e-06 4.54598e-07 -10 1.17385e-05 7.20634e-07 -10 1.20439e-05
7.76425e-07 -10 0 0 -10 0 0 -10 1.40272e-06 3.6629e-07
-10 1.26155e-05 3.73638e-08 -10 1.76118e-06 7.44223e-07 -10 1.24735e-05 2.47148e-07 -10
2.91145e-06 0 -10 1.17569e-05 0 -10 1.1967e-05 6.42243e-07 -10 2.17154e-06
8.91835e-07 -10 1.22953e-05 6.00881e-07 -10 1.19769e-05 0 -10 2.48606e-06 5.98104e-07
-10 1.21954e-05 5.63852e-07 -10 0 0 -10 0 0 -10
1.04663e-06 5.5599e-07 -10 1.3024e-05 -1.37144e-07 -10 2.61259e-06 0 -10 1.21969e-05
0 -10 1.40949e-06 1.0653e-06 -10 1.29434e-05 -7.07048e-08 -10 1.83053e-06 1.21179e-06
-10 1.27749e-05 2.32853e-07 -10 2.16127e-06 7.72875e-07 -10 1.26193e-05 3.79938e-07 -10
0 0 -10 0 0 -10 1.33785e-05 -2.17775e-07 -10 6.71614e-07
7.9783e-07 -10 2.28123e-06 0 -10 1.25987e-05 0 -10 1.33089e-05 -2.93156e-07
-10 1.0454e-06 1.44933e-06 -10 1.3177e-05 -9.04841e-08 -10 1.47657e-06 1.552e-06 -10
1.30197e-05 1.77203e-07 -10 1.81572e-06 9.44492e-07 -10 0 0 -10 0
0 -10 2.8925e-07 1.0426e-06 -10 1.36436e-05 -2.54589e-07 -10 1.2942e-05 0
-10 1.92857e-06 0 -10 6.72575e-07 1.83121e-06 -10 1.35905e-05 -3.99969e-07 -10
1.12609e-06 1.86482e-06 -10 1.35018e-05 -2.92515e-07 -10 1.44941e-06 1.10235e-06 -10 1.33654e-05
-5.91981e-08 -10 0 0 -10 0 0 -10 1.55855e-06 0
-10 1.32738e-05 0 -10 1.38296e-05 -2.48824e-07 -10 -7.76881e-08 1.26678e-06 -10
1.38e-05 -4.15164e-07 -10 3.00526e-07 2.13156e-06 -10 1.37164e-05 -4.18071e-07 -10 7.5513e-07
2.11938e-06 -10 1.35865e-05 -2.73572e-07 -10 1.06577e-06 1.25337e-06 -10 1.35172e-05 0
-10 1.1752e-06 0 -10 0 0 -10 0 0 -10
-4.12572e-07 1.42099e-06 -10 1.39497e-05 -2.12596e-07 -10 -5.5222e-08 2.30879e-06 -10 1.39295e-05
-3.85855e-07 -10 3.71389e-07 2.28183e-06 -10 1.38525e-05 -4.62073e-07 -10 0 0
-10 1.39782e-05 -1.94522e-07 -10 1.39616e-05 -3.61801e-07 -10 6.78887e-07 1.3729e-06 -10
1.37807e-05 -3.51707e-07 -10 1.38961e-05 -4.34088e-07 -10 7.91889e-07 0 -10 1.37703e-05
0 -10 1.38558e-05 -3.18176e-07 -10 0 0 -10 0 0
-10 -6.36625e-07 1.35078e-06 -10 1.40208e-05 -1.67411e-07 -10 -3.34175e-07 2.21231e-06 -10
1.40097e-05 -3.25721e-07 -10 1.38685e-05 0 -10 3.27765e-08 2.24463e-06 -10 1.39614e-05
-3.9211e-07 -10 3.27122e-07 1.39416e-06 -10 1.39686e-05 -2.67879e-07 -10 4.40637e-07 0
-10 1.40159e-05 0 -10 0 0 -10 0 0 -10
-6.56793e-07 1.02342e-06 -10 1.40691e-05 -1.20146e-07 -10 -4.52669e-07 1.76082e-06 -10 1.40637e-05
-2.44554e-07 -10 -1.807e-07 1.88665e-06 -10 1.40528e-05 -2.85742e-07 -10 6.9227e-08 1.2211e-06
-10 1.40718e-05 -1.74112e-07 -10 1.70621e-07 0 -10 1.40989e-05 0 -10
0 0 -10 0 0 -10 1.4106e-05 -9.8567e-08 -10 -4.37882e-07
5.53173e-07 -10 1.41056e-05 -1.90943e-07 -10 -3.43431e-07 1.00713e-06 -10 1.41076e-05 -2.09784e-07
-10 -1.91036e-07 1.13598e-06 -10 1.41246e-05 -1.14914e-07 -10 -3.77926e-08 7.61256e-07 -10
1.41407e-05 0 -10 2.6766e-08 0 -10 -1.29668e-07 6.86146e-08 -10 0
0 -10 -2.64453e-07 2.94814e-07 -10 0 0 -10 -2.20302e-07 5.5599e-07
-10 0 0 -10 -1.36858e-07 6.51981e-07 -10 0 0 -10
-4.76002e-08 4.49548e-07 -10 0 0 -10 -9.62734e-09 1.23722e-07 -10 7.51354e-06
0 
