solid building_024
facet normal 0.000000 0.000000 1.000000
outer loop
vertex -675.000000 -674.999512 3150.000000
vertex 675.000000 -674.999512 3150.000000
vertex 675.000000 675.000488 3150.000000
endloop
endfacet
facet normal 0.000000 0.000000 1.000000
outer loop
vertex -675.000000 -674.999512 3150.000000
vertex 675.000000 675.000488 3150.000000
vertex -675.000000 675.000488 3150.000000
endloop
endfacet
facet normal 0.000000 -1.000000 0.000000
outer loop
vertex -675.000000 -675.000000 0.000110
vertex 675.000000 -675.000000 0.000110
vertex 675.000000 -674.999939 450.000122
endloop
endfacet
facet normal 0.000000 -1.000000 0.000000
outer loop
vertex -675.000000 -675.000000 0.000110
vertex 675.000000 -674.999939 450.000122
vertex -675.000000 -674.999939 450.000122
endloop
endfacet
facet normal 1.000000 0.000000 0.000000
outer loop
vertex 675.000000 -675.000000 0.000110
vertex 675.000000 675.000000 -0.000110
vertex 675.000000 675.000061 449.999878
endloop
endfacet
facet normal 1.000000 -0.000000 0.000000
outer loop
vertex 675.000000 -675.000000 0.000110
vertex 675.000000 675.000061 449.999878
vertex 675.000000 -674.999939 450.000122
endloop
endfacet
facet normal -1.000000 0.000000 0.000000
outer loop
vertex -675.000000 675.000000 -0.000110
vertex -675.000000 -675.000000 0.000110
vertex -675.000000 -674.999939 450.000122
endloop
endfacet
facet normal -1.000000 -0.000000 0.000000
outer loop
vertex -675.000000 675.000000 -0.000110
vertex -675.000000 -674.999939 450.000122
vertex -675.000000 675.000061 449.999878
endloop
endfacet
facet normal 0.000000 1.000000 0.000000
outer loop
vertex 675.000000 675.000000 -0.000110
vertex -675.000000 675.000000 -0.000110
vertex -675.000000 675.000061 449.999878
endloop
endfacet
facet normal 0.000000 1.000000 -0.000000
outer loop
vertex 675.000000 675.000000 -0.000110
vertex -675.000000 675.000061 449.999878
vertex 675.000000 675.000061 449.999878
endloop
endfacet
facet normal 0.000000 1.000000 -0.000000
outer loop
vertex 675.000000 675.000061 449.999878
vertex -675.000000 675.000061 449.999878
vertex -675.000000 675.000122 899.999878
endloop
endfacet
facet normal 0.000000 1.000000 0.000000
outer loop
vertex 675.000000 675.000061 449.999878
vertex -675.000000 675.000122 899.999878
vertex 675.000000 675.000122 899.999878
endloop
endfacet
facet normal 0.000000 -1.000000 0.000000
outer loop
vertex -675.000000 -674.999939 450.000122
vertex 675.000000 -674.999939 450.000122
vertex 675.000000 -674.999878 900.000122
endloop
endfacet
facet normal 0.000000 -1.000000 0.000000
outer loop
vertex -675.000000 -674.999939 450.000122
vertex 675.000000 -674.999878 900.000122
vertex -675.000000 -674.999878 900.000122
endloop
endfacet
facet normal -1.000000 0.000000 0.000000
outer loop
vertex -675.000000 675.000061 449.999878
vertex -675.000000 -674.999939 450.000122
vertex -675.000000 -674.999878 900.000122
endloop
endfacet
facet normal -1.000000 -0.000000 0.000000
outer loop
vertex -675.000000 675.000061 449.999878
vertex -675.000000 -674.999878 900.000122
vertex -675.000000 675.000122 899.999878
endloop
endfacet
facet normal 1.000000 0.000000 0.000000
outer loop
vertex 675.000000 -674.999939 450.000122
vertex 675.000000 675.000061 449.999878
vertex 675.000000 675.000122 899.999878
endloop
endfacet
facet normal 1.000000 -0.000000 0.000000
outer loop
vertex 675.000000 -674.999939 450.000122
vertex 675.000000 675.000122 899.999878
vertex 675.000000 -674.999878 900.000122
endloop
endfacet
facet normal 0.000000 -1.000000 0.000000
outer loop
vertex -675.000000 -674.999878 900.000122
vertex 675.000000 -674.999878 900.000122
vertex 675.000000 -674.999756 1350.000122
endloop
endfacet
facet normal 0.000000 -1.000000 0.000000
outer loop
vertex -675.000000 -674.999878 900.000122
vertex 675.000000 -674.999756 1350.000122
vertex -675.000000 -674.999756 1350.000122
endloop
endfacet
facet normal -1.000000 0.000000 0.000000
outer loop
vertex -675.000000 675.000122 899.999878
vertex -675.000000 -674.999878 900.000122
vertex -675.000000 -674.999756 1350.000122
endloop
endfacet
facet normal -1.000000 -0.000000 0.000000
outer loop
vertex -675.000000 675.000122 899.999878
vertex -675.000000 -674.999756 1350.000122
vertex -675.000000 675.000244 1349.999878
endloop
endfacet
facet normal 1.000000 0.000000 0.000000
outer loop
vertex 675.000000 -674.999878 900.000122
vertex 675.000000 675.000122 899.999878
vertex 675.000000 675.000244 1349.999878
endloop
endfacet
facet normal 1.000000 -0.000000 0.000000
outer loop
vertex 675.000000 -674.999878 900.000122
vertex 675.000000 675.000244 1349.999878
vertex 675.000000 -674.999756 1350.000122
endloop
endfacet
facet normal 0.000000 1.000000 -0.000000
outer loop
vertex 675.000000 675.000122 899.999878
vertex -675.000000 675.000122 899.999878
vertex -675.000000 675.000244 1349.999878
endloop
endfacet
facet normal 0.000000 1.000000 -0.000000
outer loop
vertex 675.000000 675.000122 899.999878
vertex -675.000000 675.000244 1349.999878
vertex 675.000000 675.000244 1349.999878
endloop
endfacet
facet normal -1.000000 0.000000 0.000000
outer loop
vertex -675.000000 675.000244 1349.999878
vertex -675.000000 -674.999756 1350.000122
vertex -675.000000 -674.999695 1800.000122
endloop
endfacet
facet normal -1.000000 -0.000000 0.000000
outer loop
vertex -675.000000 675.000244 1349.999878
vertex -675.000000 -674.999695 1800.000122
vertex -675.000000 675.000305 1799.999878
endloop
endfacet
facet normal 1.000000 0.000000 0.000000
outer loop
vertex 675.000000 -674.999756 1350.000122
vertex 675.000000 675.000244 1349.999878
vertex 675.000000 675.000305 1799.999878
endloop
endfacet
facet normal 1.000000 -0.000000 0.000000
outer loop
vertex 675.000000 -674.999756 1350.000122
vertex 675.000000 675.000305 1799.999878
vertex 675.000000 -674.999695 1800.000122
endloop
endfacet
facet normal 0.000000 1.000000 0.000000
outer loop
vertex 675.000000 675.000244 1349.999878
vertex -675.000000 675.000244 1349.999878
vertex -675.000000 675.000305 1799.999878
endloop
endfacet
facet normal 0.000000 1.000000 -0.000000
outer loop
vertex 675.000000 675.000244 1349.999878
vertex -675.000000 675.000305 1799.999878
vertex 675.000000 675.000305 1799.999878
endloop
endfacet
facet normal 0.000000 -1.000000 0.000000
outer loop
vertex -675.000000 -674.999756 1350.000122
vertex 675.000000 -674.999756 1350.000122
vertex 675.000000 -674.999695 1800.000122
endloop
endfacet
facet normal 0.000000 -1.000000 0.000000
outer loop
vertex -675.000000 -674.999756 1350.000122
vertex 675.000000 -674.999695 1800.000122
vertex -675.000000 -674.999695 1800.000122
endloop
endfacet
facet normal 0.000000 1.000000 -0.000000
outer loop
vertex 675.000000 675.000305 1799.999878
vertex -675.000000 675.000305 1799.999878
vertex -675.000000 675.000366 2250.000000
endloop
endfacet
facet normal 0.000000 1.000000 0.000000
outer loop
vertex 675.000000 675.000305 1799.999878
vertex -675.000000 675.000366 2250.000000
vertex 675.000000 675.000366 2250.000000
endloop
endfacet
facet normal 0.000000 -1.000000 0.000000
outer loop
vertex -675.000000 -674.999695 1800.000122
vertex 675.000000 -674.999695 1800.000122
vertex 675.000000 -674.999634 2250.000000
endloop
endfacet
facet normal 0.000000 -1.000000 0.000000
outer loop
vertex -675.000000 -674.999695 1800.000122
vertex 675.000000 -674.999634 2250.000000
vertex -675.000000 -674.999634 2250.000000
endloop
endfacet
facet normal -1.000000 -0.000000 0.000000
outer loop
vertex -675.000000 675.000305 1799.999878
vertex -675.000000 -674.999695 1800.000122
vertex -675.000000 -674.999634 2250.000000
endloop
endfacet
facet normal -1.000000 0.000000 0.000000
outer loop
vertex -675.000000 675.000305 1799.999878
vertex -675.000000 -674.999634 2250.000000
vertex -675.000000 675.000366 2250.000000
endloop
endfacet
facet normal 1.000000 -0.000000 0.000000
outer loop
vertex 675.000000 -674.999695 1800.000122
vertex 675.000000 675.000305 1799.999878
vertex 675.000000 675.000366 2250.000000
endloop
endfacet
facet normal 1.000000 0.000000 0.000000
outer loop
vertex 675.000000 -674.999695 1800.000122
vertex 675.000000 675.000366 2250.000000
vertex 675.000000 -674.999634 2250.000000
endloop
endfacet
facet normal -1.000000 0.000000 0.000000
outer loop
vertex -675.000000 675.000366 2250.000000
vertex -675.000000 -674.999634 2250.000000
vertex -675.000000 -674.999573 2700.000000
endloop
endfacet
facet normal -1.000000 0.000000 0.000000
outer loop
vertex -675.000000 675.000366 2250.000000
vertex -675.000000 -674.999573 2700.000000
vertex -675.000000 675.000427 2700.000000
endloop
endfacet
facet normal 1.000000 0.000000 0.000000
outer loop
vertex 675.000000 -674.999634 2250.000000
vertex 675.000000 675.000366 2250.000000
vertex 675.000000 675.000427 2700.000000
endloop
endfacet
facet normal 1.000000 0.000000 0.000000
outer loop
vertex 675.000000 -674.999634 2250.000000
vertex 675.000000 675.000427 2700.000000
vertex 675.000000 -674.999573 2700.000000
endloop
endfacet
facet normal 0.000000 1.000000 0.000000
outer loop
vertex 675.000000 675.000366 2250.000000
vertex -675.000000 675.000366 2250.000000
vertex -675.000000 675.000427 2700.000000
endloop
endfacet
facet normal 0.000000 1.000000 -0.000000
outer loop
vertex 675.000000 675.000366 2250.000000
vertex -675.000000 675.000427 2700.000000
vertex 675.000000 675.000427 2700.000000
endloop
endfacet
facet normal 0.000000 -1.000000 0.000000
outer loop
vertex -675.000000 -674.999634 2250.000000
vertex 675.000000 -674.999634 2250.000000
vertex 675.000000 -674.999573 2700.000000
endloop
endfacet
facet normal 0.000000 -1.000000 0.000000
outer loop
vertex -675.000000 -674.999634 2250.000000
vertex 675.000000 -674.999573 2700.000000
vertex -675.000000 -674.999573 2700.000000
endloop
endfacet
facet normal 1.000000 0.000000 0.000000
outer loop
vertex 675.000000 -674.999573 2700.000000
vertex 675.000000 675.000427 2700.000000
vertex 675.000000 675.000488 3150.000000
endloop
endfacet
facet normal 1.000000 0.000000 0.000000
outer loop
vertex 675.000000 -674.999573 2700.000000
vertex 675.000000 675.000488 3150.000000
vertex 675.000000 -674.999512 3150.000000
endloop
endfacet
facet normal 0.000000 1.000000 -0.000000
outer loop
vertex 675.000000 675.000427 2700.000000
vertex -675.000000 675.000427 2700.000000
vertex -675.000000 675.000488 3150.000000
endloop
endfacet
facet normal 0.000000 1.000000 0.000000
outer loop
vertex 675.000000 675.000427 2700.000000
vertex -675.000000 675.000488 3150.000000
vertex 675.000000 675.000488 3150.000000
endloop
endfacet
facet normal 0.000000 -1.000000 0.000000
outer loop
vertex -675.000000 -674.999573 2700.000000
vertex 675.000000 -674.999573 2700.000000
vertex 675.000000 -674.999512 3150.000000
endloop
endfacet
facet normal 0.000000 -1.000000 0.000000
outer loop
vertex -675.000000 -674.999573 2700.000000
vertex 675.000000 -674.999512 3150.000000
vertex -675.000000 -674.999512 3150.000000
endloop
endfacet
facet normal -1.000000 0.000000 0.000000
outer loop
vertex -675.000000 675.000427 2700.000000
vertex -675.000000 -674.999573 2700.000000
vertex -675.000000 -674.999512 3150.000000
endloop
endfacet
facet normal -1.000000 0.000000 0.000000
outer loop
vertex -675.000000 675.000427 2700.000000
vertex -675.000000 -674.999512 3150.000000
vertex -675.000000 675.000488 3150.000000
endloop
endfacet
endsolid building_024
