solid building_007
facet normal 0.000000 -1.000000 0.000000
outer loop
vertex -675.000000 -301.500000 0.000049
vertex 675.000000 -301.500000 0.000049
vertex 675.000000 -301.499847 900.000061
endloop
endfacet
facet normal 0.000000 -1.000000 0.000000
outer loop
vertex -675.000000 -301.500000 0.000049
vertex 675.000000 -301.499847 900.000061
vertex -675.000000 -301.499847 900.000061
endloop
endfacet
facet normal -1.000000 0.000000 0.000000
outer loop
vertex -855.000000 451.500000 -0.000074
vertex -855.000000 -451.500000 0.000074
vertex -855.000000 -451.499847 900.000061
endloop
endfacet
facet normal -1.000000 0.000000 0.000000
outer loop
vertex -855.000000 451.500000 -0.000074
vertex -855.000000 -451.499847 900.000061
vertex -855.000000 451.500153 899.999939
endloop
endfacet
facet normal 0.000000 1.000000 -0.000000
outer loop
vertex -675.000000 451.500000 -0.000074
vertex -855.000000 451.500000 -0.000074
vertex -855.000000 451.500153 899.999939
endloop
endfacet
facet normal 0.000000 1.000000 -0.000000
outer loop
vertex -675.000000 451.500000 -0.000074
vertex -855.000000 451.500153 899.999939
vertex -675.000000 451.500153 899.999939
endloop
endfacet
facet normal 0.000000 1.000000 -0.000000
outer loop
vertex 855.000000 451.500153 899.999939
vertex 675.000000 451.500153 899.999939
vertex 675.000000 451.500305 1799.999878
endloop
endfacet
facet normal 0.000000 1.000000 -0.000000
outer loop
vertex 855.000000 451.500153 899.999939
vertex 675.000000 451.500305 1799.999878
vertex 855.000000 451.500305 1799.999878
endloop
endfacet
facet normal 0.000000 0.000000 1.000000
outer loop
vertex 675.000000 -301.498962 6300.000000
vertex 675.000000 -451.498962 6300.000000
vertex 855.000000 -451.498962 6300.000000
endloop
endfacet
facet normal 0.000000 0.000000 1.000000
outer loop
vertex 855.000000 -451.498962 6300.000000
vertex 855.000000 451.501038 6300.000000
vertex 675.000000 451.501038 6300.000000
endloop
endfacet
facet normal 0.000000 0.000000 1.000000
outer loop
vertex 855.000000 -451.498962 6300.000000
vertex 675.000000 451.501038 6300.000000
vertex 675.000000 301.501038 6300.000000
endloop
endfacet
facet normal 0.000000 0.000000 1.000000
outer loop
vertex 675.000000 -301.498962 6300.000000
vertex 855.000000 -451.498962 6300.000000
vertex 675.000000 301.501038 6300.000000
endloop
endfacet
facet normal 0.000000 0.000000 1.000000
outer loop
vertex -675.000000 301.501038 6300.000000
vertex -675.000000 451.501038 6300.000000
vertex -855.000000 451.501038 6300.000000
endloop
endfacet
facet normal 0.000000 0.000000 1.000000
outer loop
vertex 675.000000 -301.498962 6300.000000
vertex 675.000000 301.501038 6300.000000
vertex -675.000000 301.501038 6300.000000
endloop
endfacet
facet normal 0.000000 0.000000 1.000000
outer loop
vertex -855.000000 -451.498962 6300.000000
vertex -675.000000 -451.498962 6300.000000
vertex -675.000000 -301.498962 6300.000000
endloop
endfacet
facet normal 0.000000 0.000000 1.000000
outer loop
vertex -675.000000 -301.498962 6300.000000
vertex 675.000000 -301.498962 6300.000000
vertex -675.000000 301.501038 6300.000000
endloop
endfacet
facet normal 0.000000 0.000000 1.000000
outer loop
vertex -675.000000 301.501038 6300.000000
vertex -855.000000 451.501038 6300.000000
vertex -855.000000 -451.498962 6300.000000
endloop
endfacet
facet normal 0.000000 0.000000 1.000000
outer loop
vertex -675.000000 -301.498962 6300.000000
vertex -675.000000 301.501038 6300.000000
vertex -855.000000 -451.498962 6300.000000
endloop
endfacet
facet normal 1.000000 0.000000 0.000000
outer loop
vertex -675.000000 301.500153 899.999939
vertex -675.000000 451.500153 899.999939
vertex -675.000000 451.500305 1799.999878
endloop
endfacet
facet normal 1.000000 -0.000001 0.000000
outer loop
vertex -675.000000 301.500153 899.999939
vertex -675.000000 451.500305 1799.999878
vertex -675.000000 301.500305 1800.000000
endloop
endfacet
facet normal 1.000000 0.000000 0.000000
outer loop
vertex -675.000000 -451.500000 0.000074
vertex -675.000000 -301.500000 0.000049
vertex -675.000000 -301.499847 900.000061
endloop
endfacet
facet normal 1.000000 0.000000 0.000000
outer loop
vertex -675.000000 -451.500000 0.000074
vertex -675.000000 -301.499847 900.000061
vertex -675.000000 -451.499847 900.000061
endloop
endfacet
facet normal 0.000000 -1.000000 0.000000
outer loop
vertex 675.000000 -451.499847 900.000061
vertex 855.000000 -451.499847 900.000061
vertex 855.000000 -451.499695 1800.000122
endloop
endfacet
facet normal 0.000000 -1.000000 0.000000
outer loop
vertex 675.000000 -451.499847 900.000061
vertex 855.000000 -451.499695 1800.000122
vertex 675.000000 -451.499695 1800.000122
endloop
endfacet
facet normal 1.000000 0.000000 0.000000
outer loop
vertex 855.000000 451.500000 -0.000074
vertex 855.000000 451.500153 899.999939
vertex 855.000000 -451.499847 900.000061
endloop
endfacet
facet normal 1.000000 0.000000 0.000000
outer loop
vertex 855.000000 451.500000 -0.000074
vertex 855.000000 -451.499847 900.000061
vertex 855.000000 -451.500000 0.000074
endloop
endfacet
facet normal 0.000000 -1.000000 0.000000
outer loop
vertex 675.000000 -451.500000 0.000074
vertex 855.000000 -451.500000 0.000074
vertex 855.000000 -451.499847 900.000061
endloop
endfacet
facet normal 0.000000 -1.000000 0.000000
outer loop
vertex 675.000000 -451.500000 0.000074
vertex 855.000000 -451.499847 900.000061
vertex 675.000000 -451.499847 900.000061
endloop
endfacet
facet normal 0.000000 1.000000 -0.000000
outer loop
vertex 675.000000 301.500000 -0.000049
vertex -675.000000 301.500000 -0.000049
vertex -675.000000 301.500153 899.999939
endloop
endfacet
facet normal 0.000000 1.000000 -0.000000
outer loop
vertex 675.000000 301.500000 -0.000049
vertex -675.000000 301.500153 899.999939
vertex 675.000000 301.500153 899.999939
endloop
endfacet
facet normal 1.000000 0.000000 0.000000
outer loop
vertex -675.000000 301.500000 -0.000049
vertex -675.000000 451.500000 -0.000074
vertex -675.000000 451.500153 899.999939
endloop
endfacet
facet normal 1.000000 0.000000 0.000000
outer loop
vertex -675.000000 301.500000 -0.000049
vertex -675.000000 451.500153 899.999939
vertex -675.000000 301.500153 899.999939
endloop
endfacet
facet normal 0.000000 -1.000000 0.000000
outer loop
vertex -675.000000 -301.499847 900.000061
vertex 675.000000 -301.499847 900.000061
vertex 675.000000 -301.499695 1800.000000
endloop
endfacet
facet normal 0.000000 -1.000000 0.000000
outer loop
vertex -675.000000 -301.499847 900.000061
vertex 675.000000 -301.499695 1800.000000
vertex -675.000000 -301.499695 1800.000000
endloop
endfacet
facet normal 0.000000 1.000000 -0.000000
outer loop
vertex 855.000000 451.500000 -0.000074
vertex 675.000000 451.500000 -0.000074
vertex 675.000000 451.500153 899.999939
endloop
endfacet
facet normal 0.000000 1.000000 -0.000000
outer loop
vertex 855.000000 451.500000 -0.000074
vertex 675.000000 451.500153 899.999939
vertex 855.000000 451.500153 899.999939
endloop
endfacet
facet normal -1.000000 0.000000 0.000000
outer loop
vertex 675.000000 -301.500000 0.000049
vertex 675.000000 -451.500000 0.000074
vertex 675.000000 -451.499847 900.000061
endloop
endfacet
facet normal -1.000000 0.000000 0.000000
outer loop
vertex 675.000000 -301.500000 0.000049
vertex 675.000000 -451.499847 900.000061
vertex 675.000000 -301.499847 900.000061
endloop
endfacet
facet normal -1.000000 0.000000 0.000000
outer loop
vertex 675.000000 451.500000 -0.000074
vertex 675.000000 301.500000 -0.000049
vertex 675.000000 301.500153 899.999939
endloop
endfacet
facet normal -1.000000 0.000000 0.000000
outer loop
vertex 675.000000 451.500000 -0.000074
vertex 675.000000 301.500153 899.999939
vertex 675.000000 451.500153 899.999939
endloop
endfacet
facet normal 0.000000 -1.000000 0.000000
outer loop
vertex -855.000000 -451.500000 0.000074
vertex -675.000000 -451.500000 0.000074
vertex -675.000000 -451.499847 900.000061
endloop
endfacet
facet normal 0.000000 -1.000000 0.000000
outer loop
vertex -855.000000 -451.500000 0.000074
vertex -675.000000 -451.499847 900.000061
vertex -855.000000 -451.499847 900.000061
endloop
endfacet
facet normal -1.000000 0.000000 0.000000
outer loop
vertex -855.000000 451.500153 899.999939
vertex -855.000000 -451.499847 900.000061
vertex -855.000000 -451.499695 1800.000122
endloop
endfacet
facet normal -1.000000 0.000000 0.000000
outer loop
vertex -855.000000 451.500153 899.999939
vertex -855.000000 -451.499695 1800.000122
vertex -855.000000 451.500305 1799.999878
endloop
endfacet
facet normal 1.000000 0.000000 0.000000
outer loop
vertex 855.000000 -451.499847 900.000061
vertex 855.000000 451.500153 899.999939
vertex 855.000000 451.500305 1799.999878
endloop
endfacet
facet normal 1.000000 0.000000 0.000000
outer loop
vertex 855.000000 -451.499847 900.000061
vertex 855.000000 451.500305 1799.999878
vertex 855.000000 -451.499695 1800.000122
endloop
endfacet
facet normal 0.000000 1.000000 -0.000000
outer loop
vertex -675.000000 451.500153 899.999939
vertex -855.000000 451.500153 899.999939
vertex -855.000000 451.500305 1799.999878
endloop
endfacet
facet normal 0.000000 1.000000 -0.000000
outer loop
vertex -675.000000 451.500153 899.999939
vertex -855.000000 451.500305 1799.999878
vertex -675.000000 451.500305 1799.999878
endloop
endfacet
facet normal -1.000000 0.000000 0.000000
outer loop
vertex 675.000000 -301.499847 900.000061
vertex 675.000000 -451.499847 900.000061
vertex 675.000000 -451.499695 1800.000122
endloop
endfacet
facet normal -1.000000 -0.000001 0.000000
outer loop
vertex 675.000000 -301.499847 900.000061
vertex 675.000000 -451.499695 1800.000122
vertex 675.000000 -301.499695 1800.000000
endloop
endfacet
facet normal -1.000000 0.000000 0.000000
outer loop
vertex 675.000000 451.500153 899.999939
vertex 675.000000 301.500153 899.999939
vertex 675.000000 301.500305 1800.000000
endloop
endfacet
facet normal -1.000000 -0.000001 0.000000
outer loop
vertex 675.000000 451.500153 899.999939
vertex 675.000000 301.500305 1800.000000
vertex 675.000000 451.500305 1799.999878
endloop
endfacet
facet normal 0.000000 -1.000000 0.000000
outer loop
vertex -855.000000 -451.499847 900.000061
vertex -675.000000 -451.499847 900.000061
vertex -675.000000 -451.499695 1800.000122
endloop
endfacet
facet normal 0.000000 -1.000000 0.000000
outer loop
vertex -855.000000 -451.499847 900.000061
vertex -675.000000 -451.499695 1800.000122
vertex -855.000000 -451.499695 1800.000122
endloop
endfacet
facet normal 0.000000 1.000000 -0.000000
outer loop
vertex 675.000000 301.500153 899.999939
vertex -675.000000 301.500153 899.999939
vertex -675.000000 301.500305 1800.000000
endloop
endfacet
facet normal 0.000000 1.000000 -0.000000
outer loop
vertex 675.000000 301.500153 899.999939
vertex -675.000000 301.500305 1800.000000
vertex 675.000000 301.500305 1800.000000
endloop
endfacet
facet normal 1.000000 0.000000 0.000000
outer loop
vertex -675.000000 -451.499847 900.000061
vertex -675.000000 -301.499847 900.000061
vertex -675.000000 -301.499695 1800.000000
endloop
endfacet
facet normal 1.000000 -0.000001 0.000000
outer loop
vertex -675.000000 -451.499847 900.000061
vertex -675.000000 -301.499695 1800.000000
vertex -675.000000 -451.499695 1800.000122
endloop
endfacet
facet normal -1.000000 -0.000000 0.000000
outer loop
vertex -855.000000 451.500305 1799.999878
vertex -855.000000 -451.499695 1800.000122
vertex -855.000000 -451.499573 2700.000000
endloop
endfacet
facet normal -1.000000 0.000000 0.000000
outer loop
vertex -855.000000 451.500305 1799.999878
vertex -855.000000 -451.499573 2700.000000
vertex -855.000000 451.500427 2700.000000
endloop
endfacet
facet normal 1.000000 0.000000 0.000000
outer loop
vertex -675.000000 301.500305 1800.000000
vertex -675.000000 451.500305 1799.999878
vertex -675.000000 451.500427 2700.000000
endloop
endfacet
facet normal 1.000000 0.000000 0.000000
outer loop
vertex -675.000000 301.500305 1800.000000
vertex -675.000000 451.500427 2700.000000
vertex -675.000000 301.500427 2700.000000
endloop
endfacet
facet normal 0.000000 1.000000 -0.000000
outer loop
vertex 855.000000 451.500305 1799.999878
vertex 675.000000 451.500305 1799.999878
vertex 675.000000 451.500427 2700.000000
endloop
endfacet
facet normal 0.000000 1.000000 -0.000000
outer loop
vertex 855.000000 451.500305 1799.999878
vertex 675.000000 451.500427 2700.000000
vertex 855.000000 451.500427 2700.000000
endloop
endfacet
facet normal 0.000000 -1.000000 0.000000
outer loop
vertex -675.000000 -301.499695 1800.000000
vertex 675.000000 -301.499695 1800.000000
vertex 675.000000 -301.499573 2700.000000
endloop
endfacet
facet normal 0.000000 -1.000000 0.000000
outer loop
vertex -675.000000 -301.499695 1800.000000
vertex 675.000000 -301.499573 2700.000000
vertex -675.000000 -301.499573 2700.000000
endloop
endfacet
facet normal 0.000000 1.000000 -0.000000
outer loop
vertex -675.000000 451.500305 1799.999878
vertex -855.000000 451.500305 1799.999878
vertex -855.000000 451.500427 2700.000000
endloop
endfacet
facet normal 0.000000 1.000000 -0.000000
outer loop
vertex -675.000000 451.500305 1799.999878
vertex -855.000000 451.500427 2700.000000
vertex -675.000000 451.500427 2700.000000
endloop
endfacet
facet normal 0.000000 -1.000000 0.000000
outer loop
vertex -855.000000 -451.499695 1800.000122
vertex -675.000000 -451.499695 1800.000122
vertex -675.000000 -451.499573 2700.000000
endloop
endfacet
facet normal 0.000000 -1.000000 0.000000
outer loop
vertex -855.000000 -451.499695 1800.000122
vertex -675.000000 -451.499573 2700.000000
vertex -855.000000 -451.499573 2700.000000
endloop
endfacet
facet normal 1.000000 -0.000000 0.000000
outer loop
vertex 855.000000 -451.499695 1800.000122
vertex 855.000000 451.500305 1799.999878
vertex 855.000000 451.500427 2700.000000
endloop
endfacet
facet normal 1.000000 0.000000 0.000000
outer loop
vertex 855.000000 -451.499695 1800.000122
vertex 855.000000 451.500427 2700.000000
vertex 855.000000 -451.499573 2700.000000
endloop
endfacet
facet normal 1.000000 0.000000 0.000000
outer loop
vertex -675.000000 -451.499695 1800.000122
vertex -675.000000 -301.499695 1800.000000
vertex -675.000000 -301.499573 2700.000000
endloop
endfacet
facet normal 1.000000 0.000000 0.000000
outer loop
vertex -675.000000 -451.499695 1800.000122
vertex -675.000000 -301.499573 2700.000000
vertex -675.000000 -451.499573 2700.000000
endloop
endfacet
facet normal -1.000000 0.000000 0.000000
outer loop
vertex 675.000000 -301.499695 1800.000000
vertex 675.000000 -451.499695 1800.000122
vertex 675.000000 -451.499573 2700.000000
endloop
endfacet
facet normal -1.000000 0.000000 0.000000
outer loop
vertex 675.000000 -301.499695 1800.000000
vertex 675.000000 -451.499573 2700.000000
vertex 675.000000 -301.499573 2700.000000
endloop
endfacet
facet normal 0.000000 1.000000 -0.000000
outer loop
vertex 675.000000 301.500305 1800.000000
vertex -675.000000 301.500305 1800.000000
vertex -675.000000 301.500427 2700.000000
endloop
endfacet
facet normal 0.000000 1.000000 -0.000000
outer loop
vertex 675.000000 301.500305 1800.000000
vertex -675.000000 301.500427 2700.000000
vertex 675.000000 301.500427 2700.000000
endloop
endfacet
facet normal 0.000000 -1.000000 0.000000
outer loop
vertex 675.000000 -451.499695 1800.000122
vertex 855.000000 -451.499695 1800.000122
vertex 855.000000 -451.499573 2700.000000
endloop
endfacet
facet normal 0.000000 -1.000000 0.000000
outer loop
vertex 675.000000 -451.499695 1800.000122
vertex 855.000000 -451.499573 2700.000000
vertex 675.000000 -451.499573 2700.000000
endloop
endfacet
facet normal -1.000000 0.000000 0.000000
outer loop
vertex 675.000000 451.500305 1799.999878
vertex 675.000000 301.500305 1800.000000
vertex 675.000000 301.500427 2700.000000
endloop
endfacet
facet normal -1.000000 0.000000 0.000000
outer loop
vertex 675.000000 451.500305 1799.999878
vertex 675.000000 301.500427 2700.000000
vertex 675.000000 451.500427 2700.000000
endloop
endfacet
facet normal 0.000000 -1.000000 0.000000
outer loop
vertex 675.000000 -451.499573 2700.000000
vertex 855.000000 -451.499573 2700.000000
vertex 855.000000 -451.499420 3600.000000
endloop
endfacet
facet normal 0.000000 -1.000000 0.000000
outer loop
vertex 675.000000 -451.499573 2700.000000
vertex 855.000000 -451.499420 3600.000000
vertex 675.000000 -451.499420 3600.000000
endloop
endfacet
facet normal -1.000000 0.000000 0.000000
outer loop
vertex -855.000000 451.500427 2700.000000
vertex -855.000000 -451.499573 2700.000000
vertex -855.000000 -451.499420 3600.000000
endloop
endfacet
facet normal -1.000000 0.000000 0.000000
outer loop
vertex -855.000000 451.500427 2700.000000
vertex -855.000000 -451.499420 3600.000000
vertex -855.000000 451.500580 3600.000000
endloop
endfacet
facet normal 0.000000 1.000000 -0.000000
outer loop
vertex 675.000000 301.500427 2700.000000
vertex -675.000000 301.500427 2700.000000
vertex -675.000000 301.500580 3600.000000
endloop
endfacet
facet normal 0.000000 1.000000 -0.000000
outer loop
vertex 675.000000 301.500427 2700.000000
vertex -675.000000 301.500580 3600.000000
vertex 675.000000 301.500580 3600.000000
endloop
endfacet
facet normal 1.000000 0.000000 0.000000
outer loop
vertex 855.000000 -451.499573 2700.000000
vertex 855.000000 451.500427 2700.000000
vertex 855.000000 451.500580 3600.000000
endloop
endfacet
facet normal 1.000000 0.000000 0.000000
outer loop
vertex 855.000000 -451.499573 2700.000000
vertex 855.000000 451.500580 3600.000000
vertex 855.000000 -451.499420 3600.000000
endloop
endfacet
facet normal 0.000000 -1.000000 0.000000
outer loop
vertex -855.000000 -451.499573 2700.000000
vertex -675.000000 -451.499573 2700.000000
vertex -675.000000 -451.499420 3600.000000
endloop
endfacet
facet normal 0.000000 -1.000000 0.000000
outer loop
vertex -855.000000 -451.499573 2700.000000
vertex -675.000000 -451.499420 3600.000000
vertex -855.000000 -451.499420 3600.000000
endloop
endfacet
facet normal 0.000000 -1.000000 0.000000
outer loop
vertex -675.000000 -301.499573 2700.000000
vertex 675.000000 -301.499573 2700.000000
vertex 675.000000 -301.499420 3600.000000
endloop
endfacet
facet normal 0.000000 -1.000000 0.000000
outer loop
vertex -675.000000 -301.499573 2700.000000
vertex 675.000000 -301.499420 3600.000000
vertex -675.000000 -301.499420 3600.000000
endloop
endfacet
facet normal 1.000000 0.000000 0.000000
outer loop
vertex -675.000000 301.500427 2700.000000
vertex -675.000000 451.500427 2700.000000
vertex -675.000000 451.500580 3600.000000
endloop
endfacet
facet normal 1.000000 0.000000 0.000000
outer loop
vertex -675.000000 301.500427 2700.000000
vertex -675.000000 451.500580 3600.000000
vertex -675.000000 301.500580 3600.000000
endloop
endfacet
facet normal 0.000000 1.000000 -0.000000
outer loop
vertex 855.000000 451.500427 2700.000000
vertex 675.000000 451.500427 2700.000000
vertex 675.000000 451.500580 3600.000000
endloop
endfacet
facet normal 0.000000 1.000000 -0.000000
outer loop
vertex 855.000000 451.500427 2700.000000
vertex 675.000000 451.500580 3600.000000
vertex 855.000000 451.500580 3600.000000
endloop
endfacet
facet normal 1.000000 0.000000 0.000000
outer loop
vertex -675.000000 -451.499573 2700.000000
vertex -675.000000 -301.499573 2700.000000
vertex -675.000000 -301.499420 3600.000000
endloop
endfacet
facet normal 1.000000 0.000000 0.000000
outer loop
vertex -675.000000 -451.499573 2700.000000
vertex -675.000000 -301.499420 3600.000000
vertex -675.000000 -451.499420 3600.000000
endloop
endfacet
facet normal -1.000000 0.000000 0.000000
outer loop
vertex 675.000000 -301.499573 2700.000000
vertex 675.000000 -451.499573 2700.000000
vertex 675.000000 -451.499420 3600.000000
endloop
endfacet
facet normal -1.000000 0.000000 0.000000
outer loop
vertex 675.000000 -301.499573 2700.000000
vertex 675.000000 -451.499420 3600.000000
vertex 675.000000 -301.499420 3600.000000
endloop
endfacet
facet normal 0.000000 1.000000 -0.000000
outer loop
vertex -675.000000 451.500427 2700.000000
vertex -855.000000 451.500427 2700.000000
vertex -855.000000 451.500580 3600.000000
endloop
endfacet
facet normal 0.000000 1.000000 -0.000000
outer loop
vertex -675.000000 451.500427 2700.000000
vertex -855.000000 451.500580 3600.000000
vertex -675.000000 451.500580 3600.000000
endloop
endfacet
facet normal -1.000000 0.000000 0.000000
outer loop
vertex 675.000000 451.500427 2700.000000
vertex 675.000000 301.500427 2700.000000
vertex 675.000000 301.500580 3600.000000
endloop
endfacet
facet normal -1.000000 0.000000 0.000000
outer loop
vertex 675.000000 451.500427 2700.000000
vertex 675.000000 301.500580 3600.000000
vertex 675.000000 451.500580 3600.000000
endloop
endfacet
facet normal -1.000000 0.000000 0.000000
outer loop
vertex 675.000000 451.500580 3600.000000
vertex 675.000000 301.500580 3600.000000
vertex 675.000000 301.500732 4500.000000
endloop
endfacet
facet normal -1.000000 0.000000 0.000000
outer loop
vertex 675.000000 451.500580 3600.000000
vertex 675.000000 301.500732 4500.000000
vertex 675.000000 451.500732 4500.000000
endloop
endfacet
facet normal 0.000000 -1.000000 0.000000
outer loop
vertex 675.000000 -451.499420 3600.000000
vertex 855.000000 -451.499420 3600.000000
vertex 855.000000 -451.499268 4500.000000
endloop
endfacet
facet normal 0.000000 -1.000000 0.000000
outer loop
vertex 675.000000 -451.499420 3600.000000
vertex 855.000000 -451.499268 4500.000000
vertex 675.000000 -451.499268 4500.000000
endloop
endfacet
facet normal -1.000000 0.000000 0.000000
outer loop
vertex -855.000000 451.500580 3600.000000
vertex -855.000000 -451.499420 3600.000000
vertex -855.000000 -451.499268 4500.000000
endloop
endfacet
facet normal -1.000000 0.000000 0.000000
outer loop
vertex -855.000000 451.500580 3600.000000
vertex -855.000000 -451.499268 4500.000000
vertex -855.000000 451.500732 4500.000000
endloop
endfacet
facet normal 0.000000 1.000000 -0.000000
outer loop
vertex 675.000000 301.500580 3600.000000
vertex -675.000000 301.500580 3600.000000
vertex -675.000000 301.500732 4500.000000
endloop
endfacet
facet normal 0.000000 1.000000 -0.000000
outer loop
vertex 675.000000 301.500580 3600.000000
vertex -675.000000 301.500732 4500.000000
vertex 675.000000 301.500732 4500.000000
endloop
endfacet
facet normal 1.000000 0.000000 0.000000
outer loop
vertex 855.000000 -451.499420 3600.000000
vertex 855.000000 451.500580 3600.000000
vertex 855.000000 451.500732 4500.000000
endloop
endfacet
facet normal 1.000000 0.000000 0.000000
outer loop
vertex 855.000000 -451.499420 3600.000000
vertex 855.000000 451.500732 4500.000000
vertex 855.000000 -451.499268 4500.000000
endloop
endfacet
facet normal 0.000000 -1.000000 0.000000
outer loop
vertex -855.000000 -451.499420 3600.000000
vertex -675.000000 -451.499420 3600.000000
vertex -675.000000 -451.499268 4500.000000
endloop
endfacet
facet normal 0.000000 -1.000000 0.000000
outer loop
vertex -855.000000 -451.499420 3600.000000
vertex -675.000000 -451.499268 4500.000000
vertex -855.000000 -451.499268 4500.000000
endloop
endfacet
facet normal 0.000000 -1.000000 0.000000
outer loop
vertex -675.000000 -301.499420 3600.000000
vertex 675.000000 -301.499420 3600.000000
vertex 675.000000 -301.499268 4500.000000
endloop
endfacet
facet normal 0.000000 -1.000000 0.000000
outer loop
vertex -675.000000 -301.499420 3600.000000
vertex 675.000000 -301.499268 4500.000000
vertex -675.000000 -301.499268 4500.000000
endloop
endfacet
facet normal 1.000000 0.000000 0.000000
outer loop
vertex -675.000000 301.500580 3600.000000
vertex -675.000000 451.500580 3600.000000
vertex -675.000000 451.500732 4500.000000
endloop
endfacet
facet normal 1.000000 0.000000 0.000000
outer loop
vertex -675.000000 301.500580 3600.000000
vertex -675.000000 451.500732 4500.000000
vertex -675.000000 301.500732 4500.000000
endloop
endfacet
facet normal 0.000000 1.000000 -0.000000
outer loop
vertex 855.000000 451.500580 3600.000000
vertex 675.000000 451.500580 3600.000000
vertex 675.000000 451.500732 4500.000000
endloop
endfacet
facet normal 0.000000 1.000000 -0.000000
outer loop
vertex 855.000000 451.500580 3600.000000
vertex 675.000000 451.500732 4500.000000
vertex 855.000000 451.500732 4500.000000
endloop
endfacet
facet normal 1.000000 0.000000 0.000000
outer loop
vertex -675.000000 -451.499420 3600.000000
vertex -675.000000 -301.499420 3600.000000
vertex -675.000000 -301.499268 4500.000000
endloop
endfacet
facet normal 1.000000 0.000000 0.000000
outer loop
vertex -675.000000 -451.499420 3600.000000
vertex -675.000000 -301.499268 4500.000000
vertex -675.000000 -451.499268 4500.000000
endloop
endfacet
facet normal -1.000000 0.000000 0.000000
outer loop
vertex 675.000000 -301.499420 3600.000000
vertex 675.000000 -451.499420 3600.000000
vertex 675.000000 -451.499268 4500.000000
endloop
endfacet
facet normal -1.000000 0.000000 0.000000
outer loop
vertex 675.000000 -301.499420 3600.000000
vertex 675.000000 -451.499268 4500.000000
vertex 675.000000 -301.499268 4500.000000
endloop
endfacet
facet normal 0.000000 1.000000 -0.000000
outer loop
vertex -675.000000 451.500580 3600.000000
vertex -855.000000 451.500580 3600.000000
vertex -855.000000 451.500732 4500.000000
endloop
endfacet
facet normal 0.000000 1.000000 -0.000000
outer loop
vertex -675.000000 451.500580 3600.000000
vertex -855.000000 451.500732 4500.000000
vertex -675.000000 451.500732 4500.000000
endloop
endfacet
facet normal -1.000000 0.000000 0.000000
outer loop
vertex 675.000000 451.500732 4500.000000
vertex 675.000000 301.500732 4500.000000
vertex 675.000000 301.500885 5400.000000
endloop
endfacet
facet normal -1.000000 0.000000 0.000000
outer loop
vertex 675.000000 451.500732 4500.000000
vertex 675.000000 301.500885 5400.000000
vertex 675.000000 451.500885 5400.000000
endloop
endfacet
facet normal 0.000000 -1.000000 0.000000
outer loop
vertex 675.000000 -451.499268 4500.000000
vertex 855.000000 -451.499268 4500.000000
vertex 855.000000 -451.499115 5400.000000
endloop
endfacet
facet normal 0.000000 -1.000000 0.000000
outer loop
vertex 675.000000 -451.499268 4500.000000
vertex 855.000000 -451.499115 5400.000000
vertex 675.000000 -451.499115 5400.000000
endloop
endfacet
facet normal -1.000000 0.000000 0.000000
outer loop
vertex -855.000000 451.500732 4500.000000
vertex -855.000000 -451.499268 4500.000000
vertex -855.000000 -451.499115 5400.000000
endloop
endfacet
facet normal -1.000000 0.000000 0.000000
outer loop
vertex -855.000000 451.500732 4500.000000
vertex -855.000000 -451.499115 5400.000000
vertex -855.000000 451.500885 5400.000000
endloop
endfacet
facet normal 0.000000 1.000000 -0.000000
outer loop
vertex 675.000000 301.500732 4500.000000
vertex -675.000000 301.500732 4500.000000
vertex -675.000000 301.500885 5400.000000
endloop
endfacet
facet normal 0.000000 1.000000 -0.000000
outer loop
vertex 675.000000 301.500732 4500.000000
vertex -675.000000 301.500885 5400.000000
vertex 675.000000 301.500885 5400.000000
endloop
endfacet
facet normal 1.000000 0.000000 0.000000
outer loop
vertex 855.000000 -451.499268 4500.000000
vertex 855.000000 451.500732 4500.000000
vertex 855.000000 451.500885 5400.000000
endloop
endfacet
facet normal 1.000000 0.000000 0.000000
outer loop
vertex 855.000000 -451.499268 4500.000000
vertex 855.000000 451.500885 5400.000000
vertex 855.000000 -451.499115 5400.000000
endloop
endfacet
facet normal 0.000000 -1.000000 0.000000
outer loop
vertex -855.000000 -451.499268 4500.000000
vertex -675.000000 -451.499268 4500.000000
vertex -675.000000 -451.499115 5400.000000
endloop
endfacet
facet normal 0.000000 -1.000000 0.000000
outer loop
vertex -855.000000 -451.499268 4500.000000
vertex -675.000000 -451.499115 5400.000000
vertex -855.000000 -451.499115 5400.000000
endloop
endfacet
facet normal 0.000000 -1.000000 0.000000
outer loop
vertex -675.000000 -301.499268 4500.000000
vertex 675.000000 -301.499268 4500.000000
vertex 675.000000 -301.499115 5400.000000
endloop
endfacet
facet normal 0.000000 -1.000000 0.000000
outer loop
vertex -675.000000 -301.499268 4500.000000
vertex 675.000000 -301.499115 5400.000000
vertex -675.000000 -301.499115 5400.000000
endloop
endfacet
facet normal 1.000000 0.000000 0.000000
outer loop
vertex -675.000000 301.500732 4500.000000
vertex -675.000000 451.500732 4500.000000
vertex -675.000000 451.500885 5400.000000
endloop
endfacet
facet normal 1.000000 0.000000 0.000000
outer loop
vertex -675.000000 301.500732 4500.000000
vertex -675.000000 451.500885 5400.000000
vertex -675.000000 301.500885 5400.000000
endloop
endfacet
facet normal 0.000000 1.000000 -0.000000
outer loop
vertex 855.000000 451.500732 4500.000000
vertex 675.000000 451.500732 4500.000000
vertex 675.000000 451.500885 5400.000000
endloop
endfacet
facet normal 0.000000 1.000000 -0.000000
outer loop
vertex 855.000000 451.500732 4500.000000
vertex 675.000000 451.500885 5400.000000
vertex 855.000000 451.500885 5400.000000
endloop
endfacet
facet normal 1.000000 0.000000 0.000000
outer loop
vertex -675.000000 -451.499268 4500.000000
vertex -675.000000 -301.499268 4500.000000
vertex -675.000000 -301.499115 5400.000000
endloop
endfacet
facet normal 1.000000 0.000000 0.000000
outer loop
vertex -675.000000 -451.499268 4500.000000
vertex -675.000000 -301.499115 5400.000000
vertex -675.000000 -451.499115 5400.000000
endloop
endfacet
facet normal -1.000000 0.000000 0.000000
outer loop
vertex 675.000000 -301.499268 4500.000000
vertex 675.000000 -451.499268 4500.000000
vertex 675.000000 -451.499115 5400.000000
endloop
endfacet
facet normal -1.000000 0.000000 0.000000
outer loop
vertex 675.000000 -301.499268 4500.000000
vertex 675.000000 -451.499115 5400.000000
vertex 675.000000 -301.499115 5400.000000
endloop
endfacet
facet normal 0.000000 1.000000 -0.000000
outer loop
vertex -675.000000 451.500732 4500.000000
vertex -855.000000 451.500732 4500.000000
vertex -855.000000 451.500885 5400.000000
endloop
endfacet
facet normal 0.000000 1.000000 -0.000000
outer loop
vertex -675.000000 451.500732 4500.000000
vertex -855.000000 451.500885 5400.000000
vertex -675.000000 451.500885 5400.000000
endloop
endfacet
facet normal 0.000000 1.000000 -0.000000
outer loop
vertex -675.000000 451.500885 5400.000000
vertex -855.000000 451.500885 5400.000000
vertex -855.000000 451.501038 6300.000000
endloop
endfacet
facet normal 0.000000 1.000000 -0.000000
outer loop
vertex -675.000000 451.500885 5400.000000
vertex -855.000000 451.501038 6300.000000
vertex -675.000000 451.501038 6300.000000
endloop
endfacet
facet normal -1.000000 0.000000 0.000000
outer loop
vertex 675.000000 451.500885 5400.000000
vertex 675.000000 301.500885 5400.000000
vertex 675.000000 301.501038 6300.000000
endloop
endfacet
facet normal -1.000000 0.000000 0.000000
outer loop
vertex 675.000000 451.500885 5400.000000
vertex 675.000000 301.501038 6300.000000
vertex 675.000000 451.501038 6300.000000
endloop
endfacet
facet normal 0.000000 -1.000000 0.000000
outer loop
vertex 675.000000 -451.499115 5400.000000
vertex 855.000000 -451.499115 5400.000000
vertex 855.000000 -451.498962 6300.000000
endloop
endfacet
facet normal 0.000000 -1.000000 0.000000
outer loop
vertex 675.000000 -451.499115 5400.000000
vertex 855.000000 -451.498962 6300.000000
vertex 675.000000 -451.498962 6300.000000
endloop
endfacet
facet normal -1.000000 0.000000 0.000000
outer loop
vertex -855.000000 451.500885 5400.000000
vertex -855.000000 -451.499115 5400.000000
vertex -855.000000 -451.498962 6300.000000
endloop
endfacet
facet normal -1.000000 0.000000 0.000000
outer loop
vertex -855.000000 451.500885 5400.000000
vertex -855.000000 -451.498962 6300.000000
vertex -855.000000 451.501038 6300.000000
endloop
endfacet
facet normal 0.000000 1.000000 -0.000000
outer loop
vertex 675.000000 301.500885 5400.000000
vertex -675.000000 301.500885 5400.000000
vertex -675.000000 301.501038 6300.000000
endloop
endfacet
facet normal 0.000000 1.000000 -0.000000
outer loop
vertex 675.000000 301.500885 5400.000000
vertex -675.000000 301.501038 6300.000000
vertex 675.000000 301.501038 6300.000000
endloop
endfacet
facet normal 1.000000 0.000000 0.000000
outer loop
vertex 855.000000 -451.499115 5400.000000
vertex 855.000000 451.500885 5400.000000
vertex 855.000000 451.501038 6300.000000
endloop
endfacet
facet normal 1.000000 0.000000 0.000000
outer loop
vertex 855.000000 -451.499115 5400.000000
vertex 855.000000 451.501038 6300.000000
vertex 855.000000 -451.498962 6300.000000
endloop
endfacet
facet normal 0.000000 -1.000000 0.000000
outer loop
vertex -855.000000 -451.499115 5400.000000
vertex -675.000000 -451.499115 5400.000000
vertex -675.000000 -451.498962 6300.000000
endloop
endfacet
facet normal 0.000000 -1.000000 0.000000
outer loop
vertex -855.000000 -451.499115 5400.000000
vertex -675.000000 -451.498962 6300.000000
vertex -855.000000 -451.498962 6300.000000
endloop
endfacet
facet normal 0.000000 -1.000000 0.000000
outer loop
vertex -675.000000 -301.499115 5400.000000
vertex 675.000000 -301.499115 5400.000000
vertex 675.000000 -301.498962 6300.000000
endloop
endfacet
facet normal 0.000000 -1.000000 0.000000
outer loop
vertex -675.000000 -301.499115 5400.000000
vertex 675.000000 -301.498962 6300.000000
vertex -675.000000 -301.498962 6300.000000
endloop
endfacet
facet normal 1.000000 0.000000 0.000000
outer loop
vertex -675.000000 301.500885 5400.000000
vertex -675.000000 451.500885 5400.000000
vertex -675.000000 451.501038 6300.000000
endloop
endfacet
facet normal 1.000000 0.000000 0.000000
outer loop
vertex -675.000000 301.500885 5400.000000
vertex -675.000000 451.501038 6300.000000
vertex -675.000000 301.501038 6300.000000
endloop
endfacet
facet normal 0.000000 1.000000 -0.000000
outer loop
vertex 855.000000 451.500885 5400.000000
vertex 675.000000 451.500885 5400.000000
vertex 675.000000 451.501038 6300.000000
endloop
endfacet
facet normal 0.000000 1.000000 -0.000000
outer loop
vertex 855.000000 451.500885 5400.000000
vertex 675.000000 451.501038 6300.000000
vertex 855.000000 451.501038 6300.000000
endloop
endfacet
facet normal 1.000000 0.000000 0.000000
outer loop
vertex -675.000000 -451.499115 5400.000000
vertex -675.000000 -301.499115 5400.000000
vertex -675.000000 -301.498962 6300.000000
endloop
endfacet
facet normal 1.000000 0.000000 0.000000
outer loop
vertex -675.000000 -451.499115 5400.000000
vertex -675.000000 -301.498962 6300.000000
vertex -675.000000 -451.498962 6300.000000
endloop
endfacet
facet normal -1.000000 0.000000 0.000000
outer loop
vertex 675.000000 -301.499115 5400.000000
vertex 675.000000 -451.499115 5400.000000
vertex 675.000000 -451.498962 6300.000000
endloop
endfacet
facet normal -1.000000 0.000000 0.000000
outer loop
vertex 675.000000 -301.499115 5400.000000
vertex 675.000000 -451.498962 6300.000000
vertex 675.000000 -301.498962 6300.000000
endloop
endfacet
endsolid building_007
