solid building_017
facet normal 0.000000 0.000000 1.000000
outer loop
vertex -500.000000 -143.866028 2700.000000
vertex -500.000000 -499.999573 2700.000000
vertex 500.000000 -499.999573 2700.000000
endloop
endfacet
facet normal 0.000000 0.000000 1.000000
outer loop
vertex 500.000000 -499.999573 2700.000000
vertex 500.000000 500.000427 2700.000000
vertex -500.000000 500.000427 2700.000000
endloop
endfacet
facet normal 0.000000 0.000000 1.000000
outer loop
vertex -500.000000 500.000427 2700.000000
vertex -500.000000 659.786438 2700.000000
vertex -1133.763672 659.786438 2700.000000
endloop
endfacet
facet normal 0.000000 0.000000 1.000000
outer loop
vertex -1133.763672 659.786438 2700.000000
vertex -1133.763672 -143.866028 2700.000000
vertex -500.000000 -143.866028 2700.000000
endloop
endfacet
facet normal 0.000000 0.000000 1.000000
outer loop
vertex -500.000000 -143.866028 2700.000000
vertex 500.000000 -499.999573 2700.000000
vertex -500.000000 500.000427 2700.000000
endloop
endfacet
facet normal 0.000001 0.000000 1.000000
outer loop
vertex -500.000000 500.000427 2700.000000
vertex -1133.763672 659.786438 2700.000000
vertex -500.000000 -143.866028 2700.000000
endloop
endfacet
facet normal 0.000000 -1.000000 0.000000
outer loop
vertex -1133.763672 -143.866470 0.000023
vertex -500.000000 -143.866470 0.000023
vertex -500.000000 -143.866425 300.000031
endloop
endfacet
facet normal 0.000000 -1.000000 0.000000
outer loop
vertex -1133.763672 -143.866470 0.000023
vertex -500.000000 -143.866425 300.000031
vertex -1133.763672 -143.866425 300.000031
endloop
endfacet
facet normal 0.000000 1.000000 -0.000000
outer loop
vertex 500.000000 500.000000 -0.000081
vertex -500.000000 500.000000 -0.000081
vertex -500.000000 500.000061 299.999908
endloop
endfacet
facet normal 0.000000 1.000000 -0.000000
outer loop
vertex 500.000000 500.000000 -0.000081
vertex -500.000000 500.000061 299.999908
vertex 500.000000 500.000061 299.999908
endloop
endfacet
facet normal 0.000000 -1.000000 0.000000
outer loop
vertex -500.000000 -500.000000 0.000081
vertex 500.000000 -500.000000 0.000081
vertex 500.000000 -499.999939 300.000092
endloop
endfacet
facet normal 0.000000 -1.000000 0.000000
outer loop
vertex -500.000000 -500.000000 0.000081
vertex 500.000000 -499.999939 300.000092
vertex -500.000000 -499.999939 300.000092
endloop
endfacet
facet normal 0.000000 1.000000 0.000000
outer loop
vertex -500.000000 659.786011 -0.000107
vertex -1133.763672 659.786011 -0.000107
vertex -1133.763672 659.786072 299.999878
endloop
endfacet
facet normal 0.000000 1.000000 -0.000000
outer loop
vertex -500.000000 659.786011 -0.000107
vertex -1133.763672 659.786072 299.999878
vertex -500.000000 659.786072 299.999878
endloop
endfacet
facet normal -1.000000 -0.000000 0.000000
outer loop
vertex -1133.763672 659.786011 -0.000107
vertex -1133.763672 -143.866470 0.000023
vertex -1133.763672 -143.866425 300.000031
endloop
endfacet
facet normal -1.000000 0.000000 0.000000
outer loop
vertex -1133.763672 659.786011 -0.000107
vertex -1133.763672 -143.866425 300.000031
vertex -1133.763672 659.786072 299.999878
endloop
endfacet
facet normal 1.000000 0.000000 0.000000
outer loop
vertex -500.000000 500.000000 -0.000081
vertex -500.000000 659.786011 -0.000107
vertex -500.000000 659.786072 299.999878
endloop
endfacet
facet normal 1.000000 -0.000000 0.000000
outer loop
vertex -500.000000 500.000000 -0.000081
vertex -500.000000 659.786072 299.999878
vertex -500.000000 500.000061 299.999908
endloop
endfacet
facet normal 1.000000 -0.000000 0.000000
outer loop
vertex 500.000000 -500.000000 0.000081
vertex 500.000000 500.000000 -0.000081
vertex 500.000000 500.000061 299.999908
endloop
endfacet
facet normal 1.000000 0.000000 0.000000
outer loop
vertex 500.000000 -500.000000 0.000081
vertex 500.000000 500.000061 299.999908
vertex 500.000000 -499.999939 300.000092
endloop
endfacet
facet normal -1.000000 0.000000 0.000000
outer loop
vertex -500.000000 -143.866470 0.000023
vertex -500.000000 -500.000000 0.000081
vertex -500.000000 -499.999939 300.000092
endloop
endfacet
facet normal -1.000000 0.000000 0.000000
outer loop
vertex -500.000000 -143.866470 0.000023
vertex -500.000000 -499.999939 300.000092
vertex -500.000000 -143.866425 300.000031
endloop
endfacet
facet normal 0.000000 -1.000000 0.000000
outer loop
vertex -500.000000 -499.999939 300.000092
vertex 500.000000 -499.999939 300.000092
vertex 500.000000 -499.999908 600.000061
endloop
endfacet
facet normal 0.000000 -1.000000 0.000000
outer loop
vertex -500.000000 -499.999939 300.000092
vertex 500.000000 -499.999908 600.000061
vertex -500.000000 -499.999908 600.000061
endloop
endfacet
facet normal 0.000000 -1.000000 0.000000
outer loop
vertex -1133.763672 -143.866425 300.000031
vertex -500.000000 -143.866425 300.000031
vertex -500.000000 -143.866379 600.000000
endloop
endfacet
facet normal 0.000000 -1.000000 0.000000
outer loop
vertex -1133.763672 -143.866425 300.000031
vertex -500.000000 -143.866379 600.000000
vertex -1133.763672 -143.866379 600.000000
endloop
endfacet
facet normal 0.000000 1.000000 -0.000000
outer loop
vertex -500.000000 659.786072 299.999878
vertex -1133.763672 659.786072 299.999878
vertex -1133.763672 659.786133 599.999878
endloop
endfacet
facet normal 0.000000 1.000000 0.000000
outer loop
vertex -500.000000 659.786072 299.999878
vertex -1133.763672 659.786133 599.999878
vertex -500.000000 659.786133 599.999878
endloop
endfacet
facet normal 0.000000 1.000000 0.000000
outer loop
vertex 500.000000 500.000061 299.999908
vertex -500.000000 500.000061 299.999908
vertex -500.000000 500.000092 599.999939
endloop
endfacet
facet normal 0.000000 1.000000 -0.000000
outer loop
vertex 500.000000 500.000061 299.999908
vertex -500.000000 500.000092 599.999939
vertex 500.000000 500.000092 599.999939
endloop
endfacet
facet normal -1.000000 0.000000 0.000000
outer loop
vertex -500.000000 -143.866425 300.000031
vertex -500.000000 -499.999939 300.000092
vertex -500.000000 -499.999908 600.000061
endloop
endfacet
facet normal -1.000000 0.000000 0.000000
outer loop
vertex -500.000000 -143.866425 300.000031
vertex -500.000000 -499.999908 600.000061
vertex -500.000000 -143.866379 600.000000
endloop
endfacet
facet normal -1.000000 0.000000 0.000000
outer loop
vertex -1133.763672 659.786072 299.999878
vertex -1133.763672 -143.866425 300.000031
vertex -1133.763672 -143.866379 600.000000
endloop
endfacet
facet normal -1.000000 0.000000 0.000000
outer loop
vertex -1133.763672 659.786072 299.999878
vertex -1133.763672 -143.866379 600.000000
vertex -1133.763672 659.786133 599.999878
endloop
endfacet
facet normal 1.000000 0.000000 0.000000
outer loop
vertex -500.000000 500.000061 299.999908
vertex -500.000000 659.786072 299.999878
vertex -500.000000 659.786133 599.999878
endloop
endfacet
facet normal 1.000000 -0.000000 0.000000
outer loop
vertex -500.000000 500.000061 299.999908
vertex -500.000000 659.786133 599.999878
vertex -500.000000 500.000092 599.999939
endloop
endfacet
facet normal 1.000000 0.000000 0.000000
outer loop
vertex 500.000000 -499.999939 300.000092
vertex 500.000000 500.000061 299.999908
vertex 500.000000 500.000092 599.999939
endloop
endfacet
facet normal 1.000000 0.000000 0.000000
outer loop
vertex 500.000000 -499.999939 300.000092
vertex 500.000000 500.000092 599.999939
vertex 500.000000 -499.999908 600.000061
endloop
endfacet
facet normal -1.000000 -0.000000 0.000000
outer loop
vertex -1133.763672 659.786133 599.999878
vertex -1133.763672 -143.866379 600.000000
vertex -1133.763672 -143.866318 900.000000
endloop
endfacet
facet normal -1.000000 0.000000 0.000000
outer loop
vertex -1133.763672 659.786133 599.999878
vertex -1133.763672 -143.866318 900.000000
vertex -1133.763672 659.786133 899.999878
endloop
endfacet
facet normal 1.000000 0.000000 0.000000
outer loop
vertex -500.000000 500.000092 599.999939
vertex -500.000000 659.786133 599.999878
vertex -500.000000 659.786133 899.999878
endloop
endfacet
facet normal 1.000000 -0.000000 0.000000
outer loop
vertex -500.000000 500.000092 599.999939
vertex -500.000000 659.786133 899.999878
vertex -500.000000 500.000153 899.999939
endloop
endfacet
facet normal 1.000000 0.000000 0.000000
outer loop
vertex 500.000000 -499.999908 600.000061
vertex 500.000000 500.000092 599.999939
vertex 500.000000 500.000153 899.999939
endloop
endfacet
facet normal 1.000000 0.000000 0.000000
outer loop
vertex 500.000000 -499.999908 600.000061
vertex 500.000000 500.000153 899.999939
vertex 500.000000 -499.999847 900.000061
endloop
endfacet
facet normal 0.000000 -1.000000 0.000000
outer loop
vertex -1133.763672 -143.866379 600.000000
vertex -500.000000 -143.866379 600.000000
vertex -500.000000 -143.866318 900.000000
endloop
endfacet
facet normal 0.000000 -1.000000 0.000000
outer loop
vertex -1133.763672 -143.866379 600.000000
vertex -500.000000 -143.866318 900.000000
vertex -1133.763672 -143.866318 900.000000
endloop
endfacet
facet normal 0.000000 1.000000 0.000000
outer loop
vertex -500.000000 659.786133 599.999878
vertex -1133.763672 659.786133 599.999878
vertex -1133.763672 659.786133 899.999878
endloop
endfacet
facet normal 0.000000 1.000000 0.000000
outer loop
vertex -500.000000 659.786133 599.999878
vertex -1133.763672 659.786133 899.999878
vertex -500.000000 659.786133 899.999878
endloop
endfacet
facet normal 0.000000 1.000000 -0.000000
outer loop
vertex 500.000000 500.000092 599.999939
vertex -500.000000 500.000092 599.999939
vertex -500.000000 500.000153 899.999939
endloop
endfacet
facet normal 0.000000 1.000000 -0.000000
outer loop
vertex 500.000000 500.000092 599.999939
vertex -500.000000 500.000153 899.999939
vertex 500.000000 500.000153 899.999939
endloop
endfacet
facet normal 0.000000 -1.000000 0.000000
outer loop
vertex -500.000000 -499.999908 600.000061
vertex 500.000000 -499.999908 600.000061
vertex 500.000000 -499.999847 900.000061
endloop
endfacet
facet normal 0.000000 -1.000000 0.000000
outer loop
vertex -500.000000 -499.999908 600.000061
vertex 500.000000 -499.999847 900.000061
vertex -500.000000 -499.999847 900.000061
endloop
endfacet
facet normal -1.000000 0.000000 0.000000
outer loop
vertex -500.000000 -143.866379 600.000000
vertex -500.000000 -499.999908 600.000061
vertex -500.000000 -499.999847 900.000061
endloop
endfacet
facet normal -1.000000 0.000000 0.000000
outer loop
vertex -500.000000 -143.866379 600.000000
vertex -500.000000 -499.999847 900.000061
vertex -500.000000 -143.866318 900.000000
endloop
endfacet
facet normal 0.000000 -1.000000 0.000000
outer loop
vertex -500.000000 -499.999847 900.000061
vertex 500.000000 -499.999847 900.000061
vertex 500.000000 -499.999817 1200.000122
endloop
endfacet
facet normal 0.000000 -1.000000 0.000000
outer loop
vertex -500.000000 -499.999847 900.000061
vertex 500.000000 -499.999817 1200.000122
vertex -500.000000 -499.999817 1200.000122
endloop
endfacet
facet normal -1.000000 0.000000 0.000000
outer loop
vertex -500.000000 -143.866318 900.000000
vertex -500.000000 -499.999847 900.000061
vertex -500.000000 -499.999817 1200.000122
endloop
endfacet
facet normal -1.000000 0.000000 0.000000
outer loop
vertex -500.000000 -143.866318 900.000000
vertex -500.000000 -499.999817 1200.000122
vertex -500.000000 -143.866272 1200.000000
endloop
endfacet
facet normal -1.000000 -0.000000 0.000000
outer loop
vertex -1133.763672 659.786133 899.999878
vertex -1133.763672 -143.866318 900.000000
vertex -1133.763672 -143.866272 1200.000000
endloop
endfacet
facet normal -1.000000 0.000000 0.000000
outer loop
vertex -1133.763672 659.786133 899.999878
vertex -1133.763672 -143.866272 1200.000000
vertex -1133.763672 659.786194 1199.999878
endloop
endfacet
facet normal 1.000000 0.000000 0.000000
outer loop
vertex -500.000000 500.000153 899.999939
vertex -500.000000 659.786133 899.999878
vertex -500.000000 659.786194 1199.999878
endloop
endfacet
facet normal 1.000000 0.000000 0.000000
outer loop
vertex -500.000000 500.000153 899.999939
vertex -500.000000 659.786194 1199.999878
vertex -500.000000 500.000183 1199.999878
endloop
endfacet
facet normal 1.000000 0.000000 0.000000
outer loop
vertex 500.000000 -499.999847 900.000061
vertex 500.000000 500.000153 899.999939
vertex 500.000000 500.000183 1199.999878
endloop
endfacet
facet normal 1.000000 0.000000 0.000000
outer loop
vertex 500.000000 -499.999847 900.000061
vertex 500.000000 500.000183 1199.999878
vertex 500.000000 -499.999817 1200.000122
endloop
endfacet
facet normal 0.000000 -1.000000 0.000000
outer loop
vertex -1133.763672 -143.866318 900.000000
vertex -500.000000 -143.866318 900.000000
vertex -500.000000 -143.866272 1200.000000
endloop
endfacet
facet normal 0.000000 -1.000000 0.000000
outer loop
vertex -1133.763672 -143.866318 900.000000
vertex -500.000000 -143.866272 1200.000000
vertex -1133.763672 -143.866272 1200.000000
endloop
endfacet
facet normal 0.000000 1.000000 0.000000
outer loop
vertex -500.000000 659.786133 899.999878
vertex -1133.763672 659.786133 899.999878
vertex -1133.763672 659.786194 1199.999878
endloop
endfacet
facet normal 0.000000 1.000000 -0.000001
outer loop
vertex -500.000000 659.786133 899.999878
vertex -1133.763672 659.786194 1199.999878
vertex -500.000000 659.786194 1199.999878
endloop
endfacet
facet normal 0.000000 1.000000 -0.000000
outer loop
vertex 500.000000 500.000153 899.999939
vertex -500.000000 500.000153 899.999939
vertex -500.000000 500.000183 1199.999878
endloop
endfacet
facet normal 0.000000 1.000000 0.000000
outer loop
vertex 500.000000 500.000153 899.999939
vertex -500.000000 500.000183 1199.999878
vertex 500.000000 500.000183 1199.999878
endloop
endfacet
facet normal 0.000000 -1.000000 0.000000
outer loop
vertex -1133.763672 -143.866272 1200.000000
vertex -500.000000 -143.866272 1200.000000
vertex -500.000000 -143.866226 1500.000000
endloop
endfacet
facet normal 0.000000 -1.000000 0.000000
outer loop
vertex -1133.763672 -143.866272 1200.000000
vertex -500.000000 -143.866226 1500.000000
vertex -1133.763672 -143.866226 1500.000000
endloop
endfacet
facet normal 0.000000 1.000000 -0.000000
outer loop
vertex -500.000000 659.786194 1199.999878
vertex -1133.763672 659.786194 1199.999878
vertex -1133.763672 659.786255 1499.999878
endloop
endfacet
facet normal 0.000000 1.000000 0.000000
outer loop
vertex -500.000000 659.786194 1199.999878
vertex -1133.763672 659.786255 1499.999878
vertex -500.000000 659.786255 1499.999878
endloop
endfacet
facet normal 0.000000 1.000000 -0.000000
outer loop
vertex 500.000000 500.000183 1199.999878
vertex -500.000000 500.000183 1199.999878
vertex -500.000000 500.000244 1499.999878
endloop
endfacet
facet normal 0.000000 1.000000 -0.000000
outer loop
vertex 500.000000 500.000183 1199.999878
vertex -500.000000 500.000244 1499.999878
vertex 500.000000 500.000244 1499.999878
endloop
endfacet
facet normal 0.000000 -1.000000 0.000000
outer loop
vertex -500.000000 -499.999817 1200.000122
vertex 500.000000 -499.999817 1200.000122
vertex 500.000000 -499.999756 1500.000122
endloop
endfacet
facet normal 0.000000 -1.000000 0.000000
outer loop
vertex -500.000000 -499.999817 1200.000122
vertex 500.000000 -499.999756 1500.000122
vertex -500.000000 -499.999756 1500.000122
endloop
endfacet
facet normal -1.000000 0.000000 0.000000
outer loop
vertex -500.000000 -143.866272 1200.000000
vertex -500.000000 -499.999817 1200.000122
vertex -500.000000 -499.999756 1500.000122
endloop
endfacet
facet normal -1.000000 0.000000 0.000000
outer loop
vertex -500.000000 -143.866272 1200.000000
vertex -500.000000 -499.999756 1500.000122
vertex -500.000000 -143.866226 1500.000000
endloop
endfacet
facet normal -1.000000 -0.000000 0.000000
outer loop
vertex -1133.763672 659.786194 1199.999878
vertex -1133.763672 -143.866272 1200.000000
vertex -1133.763672 -143.866226 1500.000000
endloop
endfacet
facet normal -1.000000 0.000000 0.000000
outer loop
vertex -1133.763672 659.786194 1199.999878
vertex -1133.763672 -143.866226 1500.000000
vertex -1133.763672 659.786255 1499.999878
endloop
endfacet
facet normal 1.000000 0.000000 0.000000
outer loop
vertex -500.000000 500.000183 1199.999878
vertex -500.000000 659.786194 1199.999878
vertex -500.000000 659.786255 1499.999878
endloop
endfacet
facet normal 1.000000 0.000000 0.000000
outer loop
vertex -500.000000 500.000183 1199.999878
vertex -500.000000 659.786255 1499.999878
vertex -500.000000 500.000244 1499.999878
endloop
endfacet
facet normal 1.000000 0.000000 0.000000
outer loop
vertex 500.000000 -499.999817 1200.000122
vertex 500.000000 500.000183 1199.999878
vertex 500.000000 500.000244 1499.999878
endloop
endfacet
facet normal 1.000000 0.000000 0.000000
outer loop
vertex 500.000000 -499.999817 1200.000122
vertex 500.000000 500.000244 1499.999878
vertex 500.000000 -499.999756 1500.000122
endloop
endfacet
facet normal 1.000000 0.000000 0.000000
outer loop
vertex 500.000000 -499.999756 1500.000122
vertex 500.000000 500.000244 1499.999878
vertex 500.000000 500.000305 1799.999878
endloop
endfacet
facet normal 1.000000 0.000000 0.000000
outer loop
vertex 500.000000 -499.999756 1500.000122
vertex 500.000000 500.000305 1799.999878
vertex 500.000000 -499.999695 1800.000122
endloop
endfacet
facet normal 0.000000 -1.000000 0.000000
outer loop
vertex -1133.763672 -143.866226 1500.000000
vertex -500.000000 -143.866226 1500.000000
vertex -500.000000 -143.866180 1800.000000
endloop
endfacet
facet normal 0.000000 -1.000000 0.000000
outer loop
vertex -1133.763672 -143.866226 1500.000000
vertex -500.000000 -143.866180 1800.000000
vertex -1133.763672 -143.866180 1800.000000
endloop
endfacet
facet normal 0.000000 1.000000 0.000000
outer loop
vertex -500.000000 659.786255 1499.999878
vertex -1133.763672 659.786255 1499.999878
vertex -1133.763672 659.786316 1799.999878
endloop
endfacet
facet normal 0.000000 1.000000 -0.000000
outer loop
vertex -500.000000 659.786255 1499.999878
vertex -1133.763672 659.786316 1799.999878
vertex -500.000000 659.786316 1799.999878
endloop
endfacet
facet normal 0.000000 1.000000 -0.000000
outer loop
vertex 500.000000 500.000244 1499.999878
vertex -500.000000 500.000244 1499.999878
vertex -500.000000 500.000305 1799.999878
endloop
endfacet
facet normal 0.000000 1.000000 -0.000000
outer loop
vertex 500.000000 500.000244 1499.999878
vertex -500.000000 500.000305 1799.999878
vertex 500.000000 500.000305 1799.999878
endloop
endfacet
facet normal 0.000000 -1.000000 0.000000
outer loop
vertex -500.000000 -499.999756 1500.000122
vertex 500.000000 -499.999756 1500.000122
vertex 500.000000 -499.999695 1800.000122
endloop
endfacet
facet normal 0.000000 -1.000000 0.000000
outer loop
vertex -500.000000 -499.999756 1500.000122
vertex 500.000000 -499.999695 1800.000122
vertex -500.000000 -499.999695 1800.000122
endloop
endfacet
facet normal -1.000000 0.000000 0.000000
outer loop
vertex -500.000000 -143.866226 1500.000000
vertex -500.000000 -499.999756 1500.000122
vertex -500.000000 -499.999695 1800.000122
endloop
endfacet
facet normal -1.000000 0.000000 0.000000
outer loop
vertex -500.000000 -143.866226 1500.000000
vertex -500.000000 -499.999695 1800.000122
vertex -500.000000 -143.866180 1800.000000
endloop
endfacet
facet normal -1.000000 -0.000000 0.000000
outer loop
vertex -1133.763672 659.786255 1499.999878
vertex -1133.763672 -143.866226 1500.000000
vertex -1133.763672 -143.866180 1800.000000
endloop
endfacet
facet normal -1.000000 0.000000 0.000000
outer loop
vertex -1133.763672 659.786255 1499.999878
vertex -1133.763672 -143.866180 1800.000000
vertex -1133.763672 659.786316 1799.999878
endloop
endfacet
facet normal 1.000000 0.000000 0.000000
outer loop
vertex -500.000000 500.000244 1499.999878
vertex -500.000000 659.786255 1499.999878
vertex -500.000000 659.786316 1799.999878
endloop
endfacet
facet normal 1.000000 0.000000 0.000000
outer loop
vertex -500.000000 500.000244 1499.999878
vertex -500.000000 659.786316 1799.999878
vertex -500.000000 500.000305 1799.999878
endloop
endfacet
facet normal -1.000000 0.000000 0.000000
outer loop
vertex -500.000000 -143.866180 1800.000000
vertex -500.000000 -499.999695 1800.000122
vertex -500.000000 -499.999664 2100.000000
endloop
endfacet
facet normal -1.000000 0.000000 0.000000
outer loop
vertex -500.000000 -143.866180 1800.000000
vertex -500.000000 -499.999664 2100.000000
vertex -500.000000 -143.866135 2100.000000
endloop
endfacet
facet normal -1.000000 -0.000000 0.000000
outer loop
vertex -1133.763672 659.786316 1799.999878
vertex -1133.763672 -143.866180 1800.000000
vertex -1133.763672 -143.866135 2100.000000
endloop
endfacet
facet normal -1.000000 0.000000 0.000000
outer loop
vertex -1133.763672 659.786316 1799.999878
vertex -1133.763672 -143.866135 2100.000000
vertex -1133.763672 659.786377 2100.000000
endloop
endfacet
facet normal 1.000000 0.000000 0.000000
outer loop
vertex -500.000000 500.000305 1799.999878
vertex -500.000000 659.786316 1799.999878
vertex -500.000000 659.786377 2100.000000
endloop
endfacet
facet normal 1.000000 0.000000 0.000000
outer loop
vertex -500.000000 500.000305 1799.999878
vertex -500.000000 659.786377 2100.000000
vertex -500.000000 500.000336 2100.000000
endloop
endfacet
facet normal 1.000000 0.000000 0.000000
outer loop
vertex 500.000000 -499.999695 1800.000122
vertex 500.000000 500.000305 1799.999878
vertex 500.000000 500.000336 2100.000000
endloop
endfacet
facet normal 1.000000 0.000000 0.000000
outer loop
vertex 500.000000 -499.999695 1800.000122
vertex 500.000000 500.000336 2100.000000
vertex 500.000000 -499.999664 2100.000000
endloop
endfacet
facet normal 0.000000 -1.000000 0.000000
outer loop
vertex -1133.763672 -143.866180 1800.000000
vertex -500.000000 -143.866180 1800.000000
vertex -500.000000 -143.866135 2100.000000
endloop
endfacet
facet normal 0.000000 -1.000000 0.000000
outer loop
vertex -1133.763672 -143.866180 1800.000000
vertex -500.000000 -143.866135 2100.000000
vertex -1133.763672 -143.866135 2100.000000
endloop
endfacet
facet normal 0.000000 1.000000 -0.000000
outer loop
vertex -500.000000 659.786316 1799.999878
vertex -1133.763672 659.786316 1799.999878
vertex -1133.763672 659.786377 2100.000000
endloop
endfacet
facet normal 0.000000 1.000000 0.000000
outer loop
vertex -500.000000 659.786316 1799.999878
vertex -1133.763672 659.786377 2100.000000
vertex -500.000000 659.786377 2100.000000
endloop
endfacet
facet normal 0.000000 1.000000 0.000000
outer loop
vertex 500.000000 500.000305 1799.999878
vertex -500.000000 500.000305 1799.999878
vertex -500.000000 500.000336 2100.000000
endloop
endfacet
facet normal 0.000000 1.000000 -0.000000
outer loop
vertex 500.000000 500.000305 1799.999878
vertex -500.000000 500.000336 2100.000000
vertex 500.000000 500.000336 2100.000000
endloop
endfacet
facet normal 0.000000 -1.000000 0.000000
outer loop
vertex -500.000000 -499.999695 1800.000122
vertex 500.000000 -499.999695 1800.000122
vertex 500.000000 -499.999664 2100.000000
endloop
endfacet
facet normal 0.000000 -1.000000 0.000000
outer loop
vertex -500.000000 -499.999695 1800.000122
vertex 500.000000 -499.999664 2100.000000
vertex -500.000000 -499.999664 2100.000000
endloop
endfacet
facet normal 0.000000 1.000000 -0.000000
outer loop
vertex 500.000000 500.000336 2100.000000
vertex -500.000000 500.000336 2100.000000
vertex -500.000000 500.000397 2400.000000
endloop
endfacet
facet normal 0.000000 1.000000 -0.000000
outer loop
vertex 500.000000 500.000336 2100.000000
vertex -500.000000 500.000397 2400.000000
vertex 500.000000 500.000397 2400.000000
endloop
endfacet
facet normal 0.000000 -1.000000 0.000000
outer loop
vertex -500.000000 -499.999664 2100.000000
vertex 500.000000 -499.999664 2100.000000
vertex 500.000000 -499.999603 2400.000000
endloop
endfacet
facet normal 0.000000 -1.000000 0.000000
outer loop
vertex -500.000000 -499.999664 2100.000000
vertex 500.000000 -499.999603 2400.000000
vertex -500.000000 -499.999603 2400.000000
endloop
endfacet
facet normal -1.000000 0.000000 0.000000
outer loop
vertex -500.000000 -143.866135 2100.000000
vertex -500.000000 -499.999664 2100.000000
vertex -500.000000 -499.999603 2400.000000
endloop
endfacet
facet normal -1.000000 0.000000 0.000000
outer loop
vertex -500.000000 -143.866135 2100.000000
vertex -500.000000 -499.999603 2400.000000
vertex -500.000000 -143.866074 2400.000000
endloop
endfacet
facet normal -1.000000 0.000000 0.000000
outer loop
vertex -1133.763672 659.786377 2100.000000
vertex -1133.763672 -143.866135 2100.000000
vertex -1133.763672 -143.866074 2400.000000
endloop
endfacet
facet normal -1.000000 0.000000 0.000000
outer loop
vertex -1133.763672 659.786377 2100.000000
vertex -1133.763672 -143.866074 2400.000000
vertex -1133.763672 659.786377 2400.000000
endloop
endfacet
facet normal 1.000000 0.000000 0.000000
outer loop
vertex -500.000000 500.000336 2100.000000
vertex -500.000000 659.786377 2100.000000
vertex -500.000000 659.786377 2400.000000
endloop
endfacet
facet normal 1.000000 0.000000 0.000000
outer loop
vertex -500.000000 500.000336 2100.000000
vertex -500.000000 659.786377 2400.000000
vertex -500.000000 500.000397 2400.000000
endloop
endfacet
facet normal 1.000000 0.000000 0.000000
outer loop
vertex 500.000000 -499.999664 2100.000000
vertex 500.000000 500.000336 2100.000000
vertex 500.000000 500.000397 2400.000000
endloop
endfacet
facet normal 1.000000 0.000000 0.000000
outer loop
vertex 500.000000 -499.999664 2100.000000
vertex 500.000000 500.000397 2400.000000
vertex 500.000000 -499.999603 2400.000000
endloop
endfacet
facet normal 0.000000 -1.000000 0.000000
outer loop
vertex -1133.763672 -143.866135 2100.000000
vertex -500.000000 -143.866135 2100.000000
vertex -500.000000 -143.866074 2400.000000
endloop
endfacet
facet normal 0.000000 -1.000000 0.000000
outer loop
vertex -1133.763672 -143.866135 2100.000000
vertex -500.000000 -143.866074 2400.000000
vertex -1133.763672 -143.866074 2400.000000
endloop
endfacet
facet normal 0.000000 1.000000 0.000000
outer loop
vertex -500.000000 659.786377 2100.000000
vertex -1133.763672 659.786377 2100.000000
vertex -1133.763672 659.786377 2400.000000
endloop
endfacet
facet normal 0.000000 1.000000 0.000000
outer loop
vertex -500.000000 659.786377 2100.000000
vertex -1133.763672 659.786377 2400.000000
vertex -500.000000 659.786377 2400.000000
endloop
endfacet
facet normal 0.000000 -1.000000 0.000000
outer loop
vertex -1133.763672 -143.866074 2400.000000
vertex -500.000000 -143.866074 2400.000000
vertex -500.000000 -143.866028 2700.000000
endloop
endfacet
facet normal 0.000000 -1.000000 0.000000
outer loop
vertex -1133.763672 -143.866074 2400.000000
vertex -500.000000 -143.866028 2700.000000
vertex -1133.763672 -143.866028 2700.000000
endloop
endfacet
facet normal 0.000000 1.000000 0.000000
outer loop
vertex -500.000000 659.786377 2400.000000
vertex -1133.763672 659.786377 2400.000000
vertex -1133.763672 659.786438 2700.000000
endloop
endfacet
facet normal 0.000000 1.000000 -0.000001
outer loop
vertex -500.000000 659.786377 2400.000000
vertex -1133.763672 659.786438 2700.000000
vertex -500.000000 659.786438 2700.000000
endloop
endfacet
facet normal 0.000000 1.000000 -0.000000
outer loop
vertex 500.000000 500.000397 2400.000000
vertex -500.000000 500.000397 2400.000000
vertex -500.000000 500.000427 2700.000000
endloop
endfacet
facet normal 0.000000 1.000000 0.000000
outer loop
vertex 500.000000 500.000397 2400.000000
vertex -500.000000 500.000427 2700.000000
vertex 500.000000 500.000427 2700.000000
endloop
endfacet
facet normal 0.000000 -1.000000 0.000000
outer loop
vertex -500.000000 -499.999603 2400.000000
vertex 500.000000 -499.999603 2400.000000
vertex 500.000000 -499.999573 2700.000000
endloop
endfacet
facet normal 0.000000 -1.000000 0.000000
outer loop
vertex -500.000000 -499.999603 2400.000000
vertex 500.000000 -499.999573 2700.000000
vertex -500.000000 -499.999573 2700.000000
endloop
endfacet
facet normal -1.000000 0.000000 0.000000
outer loop
vertex -500.000000 -143.866074 2400.000000
vertex -500.000000 -499.999603 2400.000000
vertex -500.000000 -499.999573 2700.000000
endloop
endfacet
facet normal -1.000000 0.000000 0.000000
outer loop
vertex -500.000000 -143.866074 2400.000000
vertex -500.000000 -499.999573 2700.000000
vertex -500.000000 -143.866028 2700.000000
endloop
endfacet
facet normal -1.000000 0.000000 0.000000
outer loop
vertex -1133.763672 659.786377 2400.000000
vertex -1133.763672 -143.866074 2400.000000
vertex -1133.763672 -143.866028 2700.000000
endloop
endfacet
facet normal -1.000000 0.000000 0.000000
outer loop
vertex -1133.763672 659.786377 2400.000000
vertex -1133.763672 -143.866028 2700.000000
vertex -1133.763672 659.786438 2700.000000
endloop
endfacet
facet normal 1.000000 0.000000 0.000000
outer loop
vertex -500.000000 500.000397 2400.000000
vertex -500.000000 659.786377 2400.000000
vertex -500.000000 659.786438 2700.000000
endloop
endfacet
facet normal 1.000000 0.000000 0.000000
outer loop
vertex -500.000000 500.000397 2400.000000
vertex -500.000000 659.786438 2700.000000
vertex -500.000000 500.000427 2700.000000
endloop
endfacet
facet normal 1.000000 0.000000 0.000000
outer loop
vertex 500.000000 -499.999603 2400.000000
vertex 500.000000 500.000397 2400.000000
vertex 500.000000 500.000427 2700.000000
endloop
endfacet
facet normal 1.000000 0.000000 0.000000
outer loop
vertex 500.000000 -499.999603 2400.000000
vertex 500.000000 500.000427 2700.000000
vertex 500.000000 -499.999573 2700.000000
endloop
endfacet
endsolid building_017
