solid building_029
facet normal 0.000000 -1.000000 0.000000
outer loop
vertex 500.000000 -840.000000 0.000137
vertex 700.000000 -840.000000 0.000137
vertex 700.000000 -839.999939 200.000137
endloop
endfacet
facet normal 0.000000 -1.000000 0.000001
outer loop
vertex 500.000000 -840.000000 0.000137
vertex 700.000000 -839.999939 200.000137
vertex 500.000000 -839.999939 200.000137
endloop
endfacet
facet normal -1.000000 0.000000 0.000000
outer loop
vertex 500.000000 840.000061 199.999863
vertex 500.000000 700.000061 199.999893
vertex 500.000000 700.000061 399.999878
endloop
endfacet
facet normal -1.000000 0.000000 0.000000
outer loop
vertex 500.000000 840.000061 199.999863
vertex 500.000000 700.000061 399.999878
vertex 500.000000 840.000061 399.999878
endloop
endfacet
facet normal 0.000000 1.000000 0.000000
outer loop
vertex 500.000000 700.000000 -0.000114
vertex -500.000000 700.000000 -0.000114
vertex -500.000000 700.000061 199.999893
endloop
endfacet
facet normal 0.000000 1.000000 -0.000001
outer loop
vertex 500.000000 700.000000 -0.000114
vertex -500.000000 700.000061 199.999893
vertex 500.000000 700.000061 199.999893
endloop
endfacet
facet normal 0.000000 1.000000 0.000000
outer loop
vertex -500.000000 840.000000 -0.000137
vertex -700.000000 840.000000 -0.000137
vertex -700.000000 840.000061 199.999863
endloop
endfacet
facet normal 0.000000 1.000000 -0.000001
outer loop
vertex -500.000000 840.000000 -0.000137
vertex -700.000000 840.000061 199.999863
vertex -500.000000 840.000061 199.999863
endloop
endfacet
facet normal 0.000000 0.000000 1.000000
outer loop
vertex 500.000000 -699.999756 1400.000122
vertex 500.000000 -839.999756 1400.000122
vertex 700.000000 -839.999756 1400.000122
endloop
endfacet
facet normal 0.000000 0.000000 1.000000
outer loop
vertex 700.000000 -839.999756 1400.000122
vertex 700.000000 840.000244 1399.999878
vertex 500.000000 840.000244 1399.999878
endloop
endfacet
facet normal -0.000001 0.000000 1.000000
outer loop
vertex 700.000000 -839.999756 1400.000122
vertex 500.000000 840.000244 1399.999878
vertex 500.000000 700.000244 1399.999878
endloop
endfacet
facet normal 0.000000 0.000000 1.000000
outer loop
vertex 500.000000 -699.999756 1400.000122
vertex 700.000000 -839.999756 1400.000122
vertex 500.000000 700.000244 1399.999878
endloop
endfacet
facet normal 0.000000 0.000000 1.000000
outer loop
vertex -500.000000 700.000244 1399.999878
vertex -500.000000 840.000244 1399.999878
vertex -700.000000 840.000244 1399.999878
endloop
endfacet
facet normal 0.000000 0.000000 1.000000
outer loop
vertex 500.000000 -699.999756 1400.000122
vertex 500.000000 700.000244 1399.999878
vertex -500.000000 700.000244 1399.999878
endloop
endfacet
facet normal 0.000000 0.000000 1.000000
outer loop
vertex -700.000000 -839.999756 1400.000122
vertex -500.000000 -839.999756 1400.000122
vertex -500.000000 -699.999756 1400.000122
endloop
endfacet
facet normal 0.000000 0.000000 1.000000
outer loop
vertex -500.000000 -699.999756 1400.000122
vertex 500.000000 -699.999756 1400.000122
vertex -500.000000 700.000244 1399.999878
endloop
endfacet
facet normal 0.000000 0.000000 1.000000
outer loop
vertex -500.000000 700.000244 1399.999878
vertex -700.000000 840.000244 1399.999878
vertex -700.000000 -839.999756 1400.000122
endloop
endfacet
facet normal 0.000000 0.000000 1.000000
outer loop
vertex -500.000000 -699.999756 1400.000122
vertex -500.000000 700.000244 1399.999878
vertex -700.000000 -839.999756 1400.000122
endloop
endfacet
facet normal -1.000000 0.000000 0.000000
outer loop
vertex -700.000000 840.000000 -0.000137
vertex -700.000000 -840.000000 0.000137
vertex -700.000000 -839.999939 200.000137
endloop
endfacet
facet normal -1.000000 -0.000000 0.000000
outer loop
vertex -700.000000 840.000000 -0.000137
vertex -700.000000 -839.999939 200.000137
vertex -700.000000 840.000061 199.999863
endloop
endfacet
facet normal 0.000000 -1.000000 0.000000
outer loop
vertex -500.000000 -700.000000 0.000114
vertex 500.000000 -700.000000 0.000114
vertex 500.000000 -699.999939 200.000107
endloop
endfacet
facet normal 0.000000 -1.000000 0.000001
outer loop
vertex -500.000000 -700.000000 0.000114
vertex 500.000000 -699.999939 200.000107
vertex -500.000000 -699.999939 200.000107
endloop
endfacet
facet normal 0.000000 -1.000000 0.000000
outer loop
vertex -700.000000 -839.999939 200.000137
vertex -500.000000 -839.999939 200.000137
vertex -500.000000 -839.999939 400.000122
endloop
endfacet
facet normal 0.000000 -1.000000 0.000000
outer loop
vertex -700.000000 -839.999939 200.000137
vertex -500.000000 -839.999939 400.000122
vertex -700.000000 -839.999939 400.000122
endloop
endfacet
facet normal 1.000000 0.000001 0.000000
outer loop
vertex -500.000000 700.000000 -0.000114
vertex -500.000000 840.000000 -0.000137
vertex -500.000000 840.000061 199.999863
endloop
endfacet
facet normal 1.000000 -0.000000 0.000000
outer loop
vertex -500.000000 700.000000 -0.000114
vertex -500.000000 840.000061 199.999863
vertex -500.000000 700.000061 199.999893
endloop
endfacet
facet normal 1.000000 -0.000000 0.000000
outer loop
vertex 700.000000 840.000000 -0.000137
vertex 700.000000 840.000061 199.999863
vertex 700.000000 -839.999939 200.000137
endloop
endfacet
facet normal 1.000000 0.000000 0.000000
outer loop
vertex 700.000000 840.000000 -0.000137
vertex 700.000000 -839.999939 200.000137
vertex 700.000000 -840.000000 0.000137
endloop
endfacet
facet normal 0.000000 1.000000 0.000000
outer loop
vertex 500.000000 700.000061 199.999893
vertex -500.000000 700.000061 199.999893
vertex -500.000000 700.000061 399.999878
endloop
endfacet
facet normal 0.000000 1.000000 0.000000
outer loop
vertex 500.000000 700.000061 199.999893
vertex -500.000000 700.000061 399.999878
vertex 500.000000 700.000061 399.999878
endloop
endfacet
facet normal 0.000000 1.000000 0.000000
outer loop
vertex 700.000000 840.000000 -0.000137
vertex 500.000000 840.000000 -0.000137
vertex 500.000000 840.000061 199.999863
endloop
endfacet
facet normal 0.000000 1.000000 -0.000001
outer loop
vertex 700.000000 840.000000 -0.000137
vertex 500.000000 840.000061 199.999863
vertex 700.000000 840.000061 199.999863
endloop
endfacet
facet normal -1.000000 0.000001 0.000000
outer loop
vertex 500.000000 -700.000000 0.000114
vertex 500.000000 -840.000000 0.000137
vertex 500.000000 -839.999939 200.000137
endloop
endfacet
facet normal -1.000000 -0.000000 0.000000
outer loop
vertex 500.000000 -700.000000 0.000114
vertex 500.000000 -839.999939 200.000137
vertex 500.000000 -699.999939 200.000107
endloop
endfacet
facet normal -1.000000 0.000001 0.000000
outer loop
vertex 500.000000 840.000000 -0.000137
vertex 500.000000 700.000000 -0.000114
vertex 500.000000 700.000061 199.999893
endloop
endfacet
facet normal -1.000000 -0.000000 0.000000
outer loop
vertex 500.000000 840.000000 -0.000137
vertex 500.000000 700.000061 199.999893
vertex 500.000000 840.000061 199.999863
endloop
endfacet
facet normal 0.000000 -1.000000 0.000000
outer loop
vertex -700.000000 -840.000000 0.000137
vertex -500.000000 -840.000000 0.000137
vertex -500.000000 -839.999939 200.000137
endloop
endfacet
facet normal 0.000000 -1.000000 0.000001
outer loop
vertex -700.000000 -840.000000 0.000137
vertex -500.000000 -839.999939 200.000137
vertex -700.000000 -839.999939 200.000137
endloop
endfacet
facet normal 1.000000 0.000001 0.000000
outer loop
vertex -500.000000 -840.000000 0.000137
vertex -500.000000 -700.000000 0.000114
vertex -500.000000 -699.999939 200.000107
endloop
endfacet
facet normal 1.000000 -0.000000 0.000000
outer loop
vertex -500.000000 -840.000000 0.000137
vertex -500.000000 -699.999939 200.000107
vertex -500.000000 -839.999939 200.000137
endloop
endfacet
facet normal -1.000000 0.000000 0.000000
outer loop
vertex 500.000000 -699.999939 200.000107
vertex 500.000000 -839.999939 200.000137
vertex 500.000000 -839.999939 400.000122
endloop
endfacet
facet normal -1.000000 0.000000 0.000000
outer loop
vertex 500.000000 -699.999939 200.000107
vertex 500.000000 -839.999939 400.000122
vertex 500.000000 -699.999939 400.000122
endloop
endfacet
facet normal 1.000000 0.000000 0.000000
outer loop
vertex -500.000000 -839.999939 200.000137
vertex -500.000000 -699.999939 200.000107
vertex -500.000000 -699.999939 400.000122
endloop
endfacet
facet normal 1.000000 0.000000 0.000000
outer loop
vertex -500.000000 -839.999939 200.000137
vertex -500.000000 -699.999939 400.000122
vertex -500.000000 -839.999939 400.000122
endloop
endfacet
facet normal 0.000000 -1.000000 0.000000
outer loop
vertex 500.000000 -839.999939 200.000137
vertex 700.000000 -839.999939 200.000137
vertex 700.000000 -839.999939 400.000122
endloop
endfacet
facet normal 0.000000 -1.000000 0.000000
outer loop
vertex 500.000000 -839.999939 200.000137
vertex 700.000000 -839.999939 400.000122
vertex 500.000000 -839.999939 400.000122
endloop
endfacet
facet normal 1.000000 0.000000 0.000000
outer loop
vertex -500.000000 700.000061 199.999893
vertex -500.000000 840.000061 199.999863
vertex -500.000000 840.000061 399.999878
endloop
endfacet
facet normal 1.000000 0.000000 0.000000
outer loop
vertex -500.000000 700.000061 199.999893
vertex -500.000000 840.000061 399.999878
vertex -500.000000 700.000061 399.999878
endloop
endfacet
facet normal 0.000000 -1.000000 0.000000
outer loop
vertex -500.000000 -699.999939 200.000107
vertex 500.000000 -699.999939 200.000107
vertex 500.000000 -699.999939 400.000122
endloop
endfacet
facet normal 0.000000 -1.000000 0.000000
outer loop
vertex -500.000000 -699.999939 200.000107
vertex 500.000000 -699.999939 400.000122
vertex -500.000000 -699.999939 400.000122
endloop
endfacet
facet normal 0.000000 1.000000 0.000000
outer loop
vertex 700.000000 840.000061 199.999863
vertex 500.000000 840.000061 199.999863
vertex 500.000000 840.000061 399.999878
endloop
endfacet
facet normal 0.000000 1.000000 0.000000
outer loop
vertex 700.000000 840.000061 199.999863
vertex 500.000000 840.000061 399.999878
vertex 700.000000 840.000061 399.999878
endloop
endfacet
facet normal -1.000000 -0.000000 0.000000
outer loop
vertex -700.000000 840.000061 199.999863
vertex -700.000000 -839.999939 200.000137
vertex -700.000000 -839.999939 400.000122
endloop
endfacet
facet normal -1.000000 0.000000 0.000000
outer loop
vertex -700.000000 840.000061 199.999863
vertex -700.000000 -839.999939 400.000122
vertex -700.000000 840.000061 399.999878
endloop
endfacet
facet normal 1.000000 -0.000000 0.000000
outer loop
vertex 700.000000 -839.999939 200.000137
vertex 700.000000 840.000061 199.999863
vertex 700.000000 840.000061 399.999878
endloop
endfacet
facet normal 1.000000 0.000000 0.000000
outer loop
vertex 700.000000 -839.999939 200.000137
vertex 700.000000 840.000061 399.999878
vertex 700.000000 -839.999939 400.000122
endloop
endfacet
facet normal 0.000000 1.000000 0.000000
outer loop
vertex -500.000000 840.000061 199.999863
vertex -700.000000 840.000061 199.999863
vertex -700.000000 840.000061 399.999878
endloop
endfacet
facet normal 0.000000 1.000000 0.000000
outer loop
vertex -500.000000 840.000061 199.999863
vertex -700.000000 840.000061 399.999878
vertex -500.000000 840.000061 399.999878
endloop
endfacet
facet normal 1.000000 0.000000 0.000000
outer loop
vertex -500.000000 -839.999939 400.000122
vertex -500.000000 -699.999939 400.000122
vertex -500.000000 -699.999878 600.000122
endloop
endfacet
facet normal 1.000000 0.000000 0.000000
outer loop
vertex -500.000000 -839.999939 400.000122
vertex -500.000000 -699.999878 600.000122
vertex -500.000000 -839.999878 600.000122
endloop
endfacet
facet normal 0.000000 1.000000 -0.000001
outer loop
vertex -500.000000 840.000061 399.999878
vertex -700.000000 840.000061 399.999878
vertex -700.000000 840.000122 599.999878
endloop
endfacet
facet normal 0.000000 1.000000 0.000000
outer loop
vertex -500.000000 840.000061 399.999878
vertex -700.000000 840.000122 599.999878
vertex -500.000000 840.000122 599.999878
endloop
endfacet
facet normal -1.000000 0.000000 0.000000
outer loop
vertex 500.000000 -699.999939 400.000122
vertex 500.000000 -839.999939 400.000122
vertex 500.000000 -839.999878 600.000122
endloop
endfacet
facet normal -1.000000 0.000000 0.000000
outer loop
vertex 500.000000 -699.999939 400.000122
vertex 500.000000 -839.999878 600.000122
vertex 500.000000 -699.999878 600.000122
endloop
endfacet
facet normal 0.000000 -1.000000 0.000001
outer loop
vertex 500.000000 -839.999939 400.000122
vertex 700.000000 -839.999939 400.000122
vertex 700.000000 -839.999878 600.000122
endloop
endfacet
facet normal 0.000000 -1.000000 0.000000
outer loop
vertex 500.000000 -839.999939 400.000122
vertex 700.000000 -839.999878 600.000122
vertex 500.000000 -839.999878 600.000122
endloop
endfacet
facet normal 0.000000 1.000000 -0.000001
outer loop
vertex 500.000000 700.000061 399.999878
vertex -500.000000 700.000061 399.999878
vertex -500.000000 700.000122 599.999878
endloop
endfacet
facet normal 0.000000 1.000000 0.000000
outer loop
vertex 500.000000 700.000061 399.999878
vertex -500.000000 700.000122 599.999878
vertex 500.000000 700.000122 599.999878
endloop
endfacet
facet normal -1.000000 0.000000 0.000000
outer loop
vertex 500.000000 840.000061 399.999878
vertex 500.000000 700.000061 399.999878
vertex 500.000000 700.000122 599.999878
endloop
endfacet
facet normal -1.000000 0.000000 0.000000
outer loop
vertex 500.000000 840.000061 399.999878
vertex 500.000000 700.000122 599.999878
vertex 500.000000 840.000122 599.999878
endloop
endfacet
facet normal 0.000000 -1.000000 0.000001
outer loop
vertex -700.000000 -839.999939 400.000122
vertex -500.000000 -839.999939 400.000122
vertex -500.000000 -839.999878 600.000122
endloop
endfacet
facet normal 0.000000 -1.000000 0.000000
outer loop
vertex -700.000000 -839.999939 400.000122
vertex -500.000000 -839.999878 600.000122
vertex -700.000000 -839.999878 600.000122
endloop
endfacet
facet normal 0.000000 1.000000 -0.000001
outer loop
vertex 700.000000 840.000061 399.999878
vertex 500.000000 840.000061 399.999878
vertex 500.000000 840.000122 599.999878
endloop
endfacet
facet normal 0.000000 1.000000 0.000000
outer loop
vertex 700.000000 840.000061 399.999878
vertex 500.000000 840.000122 599.999878
vertex 700.000000 840.000122 599.999878
endloop
endfacet
facet normal 1.000000 0.000000 0.000000
outer loop
vertex -500.000000 700.000061 399.999878
vertex -500.000000 840.000061 399.999878
vertex -500.000000 840.000122 599.999878
endloop
endfacet
facet normal 1.000000 0.000000 0.000000
outer loop
vertex -500.000000 700.000061 399.999878
vertex -500.000000 840.000122 599.999878
vertex -500.000000 700.000122 599.999878
endloop
endfacet
facet normal 0.000000 -1.000000 0.000001
outer loop
vertex -500.000000 -699.999939 400.000122
vertex 500.000000 -699.999939 400.000122
vertex 500.000000 -699.999878 600.000122
endloop
endfacet
facet normal 0.000000 -1.000000 0.000000
outer loop
vertex -500.000000 -699.999939 400.000122
vertex 500.000000 -699.999878 600.000122
vertex -500.000000 -699.999878 600.000122
endloop
endfacet
facet normal -1.000000 0.000000 0.000000
outer loop
vertex -700.000000 840.000061 399.999878
vertex -700.000000 -839.999939 400.000122
vertex -700.000000 -839.999878 600.000122
endloop
endfacet
facet normal -1.000000 0.000000 0.000000
outer loop
vertex -700.000000 840.000061 399.999878
vertex -700.000000 -839.999878 600.000122
vertex -700.000000 840.000122 599.999878
endloop
endfacet
facet normal 1.000000 0.000000 0.000000
outer loop
vertex 700.000000 -839.999939 400.000122
vertex 700.000000 840.000061 399.999878
vertex 700.000000 840.000122 599.999878
endloop
endfacet
facet normal 1.000000 0.000000 0.000000
outer loop
vertex 700.000000 -839.999939 400.000122
vertex 700.000000 840.000122 599.999878
vertex 700.000000 -839.999878 600.000122
endloop
endfacet
facet normal 1.000000 0.000000 0.000000
outer loop
vertex -500.000000 700.000122 599.999878
vertex -500.000000 840.000122 599.999878
vertex -500.000000 840.000122 799.999878
endloop
endfacet
facet normal 1.000000 0.000000 0.000000
outer loop
vertex -500.000000 700.000122 599.999878
vertex -500.000000 840.000122 799.999878
vertex -500.000000 700.000122 799.999878
endloop
endfacet
facet normal 0.000000 1.000000 0.000000
outer loop
vertex 700.000000 840.000122 599.999878
vertex 500.000000 840.000122 599.999878
vertex 500.000000 840.000122 799.999878
endloop
endfacet
facet normal 0.000000 1.000000 0.000000
outer loop
vertex 700.000000 840.000122 599.999878
vertex 500.000000 840.000122 799.999878
vertex 700.000000 840.000122 799.999878
endloop
endfacet
facet normal 1.000000 0.000000 0.000000
outer loop
vertex -500.000000 -839.999878 600.000122
vertex -500.000000 -699.999878 600.000122
vertex -500.000000 -699.999878 800.000122
endloop
endfacet
facet normal 1.000000 0.000000 0.000000
outer loop
vertex -500.000000 -839.999878 600.000122
vertex -500.000000 -699.999878 800.000122
vertex -500.000000 -839.999878 800.000122
endloop
endfacet
facet normal -1.000000 0.000000 0.000000
outer loop
vertex 500.000000 -699.999878 600.000122
vertex 500.000000 -839.999878 600.000122
vertex 500.000000 -839.999878 800.000122
endloop
endfacet
facet normal -1.000000 0.000000 0.000000
outer loop
vertex 500.000000 -699.999878 600.000122
vertex 500.000000 -839.999878 800.000122
vertex 500.000000 -699.999878 800.000122
endloop
endfacet
facet normal 0.000000 1.000000 0.000000
outer loop
vertex -500.000000 840.000122 599.999878
vertex -700.000000 840.000122 599.999878
vertex -700.000000 840.000122 799.999878
endloop
endfacet
facet normal 0.000000 1.000000 0.000000
outer loop
vertex -500.000000 840.000122 599.999878
vertex -700.000000 840.000122 799.999878
vertex -500.000000 840.000122 799.999878
endloop
endfacet
facet normal -1.000000 0.000000 0.000000
outer loop
vertex 500.000000 840.000122 599.999878
vertex 500.000000 700.000122 599.999878
vertex 500.000000 700.000122 799.999878
endloop
endfacet
facet normal -1.000000 0.000000 0.000000
outer loop
vertex 500.000000 840.000122 599.999878
vertex 500.000000 700.000122 799.999878
vertex 500.000000 840.000122 799.999878
endloop
endfacet
facet normal 0.000000 -1.000000 0.000000
outer loop
vertex 500.000000 -839.999878 600.000122
vertex 700.000000 -839.999878 600.000122
vertex 700.000000 -839.999878 800.000122
endloop
endfacet
facet normal 0.000000 -1.000000 0.000000
outer loop
vertex 500.000000 -839.999878 600.000122
vertex 700.000000 -839.999878 800.000122
vertex 500.000000 -839.999878 800.000122
endloop
endfacet
facet normal -1.000000 0.000000 0.000000
outer loop
vertex -700.000000 840.000122 599.999878
vertex -700.000000 -839.999878 600.000122
vertex -700.000000 -839.999878 800.000122
endloop
endfacet
facet normal -1.000000 0.000000 0.000000
outer loop
vertex -700.000000 840.000122 599.999878
vertex -700.000000 -839.999878 800.000122
vertex -700.000000 840.000122 799.999878
endloop
endfacet
facet normal 0.000000 1.000000 0.000000
outer loop
vertex 500.000000 700.000122 599.999878
vertex -500.000000 700.000122 599.999878
vertex -500.000000 700.000122 799.999878
endloop
endfacet
facet normal 0.000000 1.000000 0.000000
outer loop
vertex 500.000000 700.000122 599.999878
vertex -500.000000 700.000122 799.999878
vertex 500.000000 700.000122 799.999878
endloop
endfacet
facet normal 1.000000 0.000000 0.000000
outer loop
vertex 700.000000 -839.999878 600.000122
vertex 700.000000 840.000122 599.999878
vertex 700.000000 840.000122 799.999878
endloop
endfacet
facet normal 1.000000 0.000000 0.000000
outer loop
vertex 700.000000 -839.999878 600.000122
vertex 700.000000 840.000122 799.999878
vertex 700.000000 -839.999878 800.000122
endloop
endfacet
facet normal 0.000000 -1.000000 0.000000
outer loop
vertex -700.000000 -839.999878 600.000122
vertex -500.000000 -839.999878 600.000122
vertex -500.000000 -839.999878 800.000122
endloop
endfacet
facet normal 0.000000 -1.000000 0.000000
outer loop
vertex -700.000000 -839.999878 600.000122
vertex -500.000000 -839.999878 800.000122
vertex -700.000000 -839.999878 800.000122
endloop
endfacet
facet normal 0.000000 -1.000000 0.000000
outer loop
vertex -500.000000 -699.999878 600.000122
vertex 500.000000 -699.999878 600.000122
vertex 500.000000 -699.999878 800.000122
endloop
endfacet
facet normal 0.000000 -1.000000 0.000000
outer loop
vertex -500.000000 -699.999878 600.000122
vertex 500.000000 -699.999878 800.000122
vertex -500.000000 -699.999878 800.000122
endloop
endfacet
facet normal 0.000000 -1.000000 0.000000
outer loop
vertex -500.000000 -699.999878 800.000122
vertex 500.000000 -699.999878 800.000122
vertex 500.000000 -699.999817 1000.000122
endloop
endfacet
facet normal 0.000000 -1.000000 0.000001
outer loop
vertex -500.000000 -699.999878 800.000122
vertex 500.000000 -699.999817 1000.000122
vertex -500.000000 -699.999817 1000.000122
endloop
endfacet
facet normal 1.000000 0.000000 0.000000
outer loop
vertex -500.000000 700.000122 799.999878
vertex -500.000000 840.000122 799.999878
vertex -500.000000 840.000183 999.999878
endloop
endfacet
facet normal 1.000000 0.000000 0.000000
outer loop
vertex -500.000000 700.000122 799.999878
vertex -500.000000 840.000183 999.999878
vertex -500.000000 700.000183 999.999878
endloop
endfacet
facet normal 0.000000 1.000000 0.000000
outer loop
vertex 700.000000 840.000122 799.999878
vertex 500.000000 840.000122 799.999878
vertex 500.000000 840.000183 999.999878
endloop
endfacet
facet normal 0.000000 1.000000 0.000000
outer loop
vertex 700.000000 840.000122 799.999878
vertex 500.000000 840.000183 999.999878
vertex 700.000000 840.000183 999.999878
endloop
endfacet
facet normal 1.000000 0.000000 0.000000
outer loop
vertex -500.000000 -839.999878 800.000122
vertex -500.000000 -699.999878 800.000122
vertex -500.000000 -699.999817 1000.000122
endloop
endfacet
facet normal 1.000000 0.000000 0.000000
outer loop
vertex -500.000000 -839.999878 800.000122
vertex -500.000000 -699.999817 1000.000122
vertex -500.000000 -839.999817 1000.000122
endloop
endfacet
facet normal -1.000000 0.000000 0.000000
outer loop
vertex 500.000000 -699.999878 800.000122
vertex 500.000000 -839.999878 800.000122
vertex 500.000000 -839.999817 1000.000122
endloop
endfacet
facet normal -1.000000 0.000000 0.000000
outer loop
vertex 500.000000 -699.999878 800.000122
vertex 500.000000 -839.999817 1000.000122
vertex 500.000000 -699.999817 1000.000122
endloop
endfacet
facet normal 0.000000 1.000000 0.000000
outer loop
vertex -500.000000 840.000122 799.999878
vertex -700.000000 840.000122 799.999878
vertex -700.000000 840.000183 999.999878
endloop
endfacet
facet normal 0.000000 1.000000 0.000000
outer loop
vertex -500.000000 840.000122 799.999878
vertex -700.000000 840.000183 999.999878
vertex -500.000000 840.000183 999.999878
endloop
endfacet
facet normal -1.000000 0.000000 0.000000
outer loop
vertex 500.000000 840.000122 799.999878
vertex 500.000000 700.000122 799.999878
vertex 500.000000 700.000183 999.999878
endloop
endfacet
facet normal -1.000000 0.000000 0.000000
outer loop
vertex 500.000000 840.000122 799.999878
vertex 500.000000 700.000183 999.999878
vertex 500.000000 840.000183 999.999878
endloop
endfacet
facet normal 0.000000 -1.000000 0.000000
outer loop
vertex 500.000000 -839.999878 800.000122
vertex 700.000000 -839.999878 800.000122
vertex 700.000000 -839.999817 1000.000122
endloop
endfacet
facet normal 0.000000 -1.000000 0.000000
outer loop
vertex 500.000000 -839.999878 800.000122
vertex 700.000000 -839.999817 1000.000122
vertex 500.000000 -839.999817 1000.000122
endloop
endfacet
facet normal -1.000000 0.000000 0.000000
outer loop
vertex -700.000000 840.000122 799.999878
vertex -700.000000 -839.999878 800.000122
vertex -700.000000 -839.999817 1000.000122
endloop
endfacet
facet normal -1.000000 0.000000 0.000000
outer loop
vertex -700.000000 840.000122 799.999878
vertex -700.000000 -839.999817 1000.000122
vertex -700.000000 840.000183 999.999878
endloop
endfacet
facet normal 0.000000 1.000000 0.000000
outer loop
vertex 500.000000 700.000122 799.999878
vertex -500.000000 700.000122 799.999878
vertex -500.000000 700.000183 999.999878
endloop
endfacet
facet normal 0.000000 1.000000 -0.000001
outer loop
vertex 500.000000 700.000122 799.999878
vertex -500.000000 700.000183 999.999878
vertex 500.000000 700.000183 999.999878
endloop
endfacet
facet normal 1.000000 0.000000 0.000000
outer loop
vertex 700.000000 -839.999878 800.000122
vertex 700.000000 840.000122 799.999878
vertex 700.000000 840.000183 999.999878
endloop
endfacet
facet normal 1.000000 0.000000 0.000000
outer loop
vertex 700.000000 -839.999878 800.000122
vertex 700.000000 840.000183 999.999878
vertex 700.000000 -839.999817 1000.000122
endloop
endfacet
facet normal 0.000000 -1.000000 0.000000
outer loop
vertex -700.000000 -839.999878 800.000122
vertex -500.000000 -839.999878 800.000122
vertex -500.000000 -839.999817 1000.000122
endloop
endfacet
facet normal 0.000000 -1.000000 0.000000
outer loop
vertex -700.000000 -839.999878 800.000122
vertex -500.000000 -839.999817 1000.000122
vertex -700.000000 -839.999817 1000.000122
endloop
endfacet
facet normal 0.000000 -1.000000 0.000000
outer loop
vertex -700.000000 -839.999817 1000.000122
vertex -500.000000 -839.999817 1000.000122
vertex -500.000000 -839.999817 1200.000122
endloop
endfacet
facet normal 0.000000 -1.000000 0.000000
outer loop
vertex -700.000000 -839.999817 1000.000122
vertex -500.000000 -839.999817 1200.000122
vertex -700.000000 -839.999817 1200.000122
endloop
endfacet
facet normal 0.000000 -1.000000 0.000000
outer loop
vertex -500.000000 -699.999817 1000.000122
vertex 500.000000 -699.999817 1000.000122
vertex 500.000000 -699.999817 1200.000122
endloop
endfacet
facet normal 0.000000 -1.000000 0.000000
outer loop
vertex -500.000000 -699.999817 1000.000122
vertex 500.000000 -699.999817 1200.000122
vertex -500.000000 -699.999817 1200.000122
endloop
endfacet
facet normal 1.000000 0.000000 0.000000
outer loop
vertex -500.000000 700.000183 999.999878
vertex -500.000000 840.000183 999.999878
vertex -500.000000 840.000183 1199.999878
endloop
endfacet
facet normal 1.000000 0.000000 0.000000
outer loop
vertex -500.000000 700.000183 999.999878
vertex -500.000000 840.000183 1199.999878
vertex -500.000000 700.000183 1199.999878
endloop
endfacet
facet normal 0.000000 1.000000 0.000000
outer loop
vertex 700.000000 840.000183 999.999878
vertex 500.000000 840.000183 999.999878
vertex 500.000000 840.000183 1199.999878
endloop
endfacet
facet normal 0.000000 1.000000 0.000000
outer loop
vertex 700.000000 840.000183 999.999878
vertex 500.000000 840.000183 1199.999878
vertex 700.000000 840.000183 1199.999878
endloop
endfacet
facet normal 1.000000 0.000000 0.000000
outer loop
vertex -500.000000 -839.999817 1000.000122
vertex -500.000000 -699.999817 1000.000122
vertex -500.000000 -699.999817 1200.000122
endloop
endfacet
facet normal 1.000000 0.000000 0.000000
outer loop
vertex -500.000000 -839.999817 1000.000122
vertex -500.000000 -699.999817 1200.000122
vertex -500.000000 -839.999817 1200.000122
endloop
endfacet
facet normal -1.000000 0.000000 0.000000
outer loop
vertex 500.000000 -699.999817 1000.000122
vertex 500.000000 -839.999817 1000.000122
vertex 500.000000 -839.999817 1200.000122
endloop
endfacet
facet normal -1.000000 0.000000 0.000000
outer loop
vertex 500.000000 -699.999817 1000.000122
vertex 500.000000 -839.999817 1200.000122
vertex 500.000000 -699.999817 1200.000122
endloop
endfacet
facet normal 0.000000 1.000000 0.000000
outer loop
vertex -500.000000 840.000183 999.999878
vertex -700.000000 840.000183 999.999878
vertex -700.000000 840.000183 1199.999878
endloop
endfacet
facet normal 0.000000 1.000000 0.000000
outer loop
vertex -500.000000 840.000183 999.999878
vertex -700.000000 840.000183 1199.999878
vertex -500.000000 840.000183 1199.999878
endloop
endfacet
facet normal -1.000000 0.000000 0.000000
outer loop
vertex 500.000000 840.000183 999.999878
vertex 500.000000 700.000183 999.999878
vertex 500.000000 700.000183 1199.999878
endloop
endfacet
facet normal -1.000000 0.000000 0.000000
outer loop
vertex 500.000000 840.000183 999.999878
vertex 500.000000 700.000183 1199.999878
vertex 500.000000 840.000183 1199.999878
endloop
endfacet
facet normal 0.000000 -1.000000 0.000000
outer loop
vertex 500.000000 -839.999817 1000.000122
vertex 700.000000 -839.999817 1000.000122
vertex 700.000000 -839.999817 1200.000122
endloop
endfacet
facet normal 0.000000 -1.000000 0.000000
outer loop
vertex 500.000000 -839.999817 1000.000122
vertex 700.000000 -839.999817 1200.000122
vertex 500.000000 -839.999817 1200.000122
endloop
endfacet
facet normal -1.000000 0.000000 0.000000
outer loop
vertex -700.000000 840.000183 999.999878
vertex -700.000000 -839.999817 1000.000122
vertex -700.000000 -839.999817 1200.000122
endloop
endfacet
facet normal -1.000000 0.000000 0.000000
outer loop
vertex -700.000000 840.000183 999.999878
vertex -700.000000 -839.999817 1200.000122
vertex -700.000000 840.000183 1199.999878
endloop
endfacet
facet normal 0.000000 1.000000 0.000000
outer loop
vertex 500.000000 700.000183 999.999878
vertex -500.000000 700.000183 999.999878
vertex -500.000000 700.000183 1199.999878
endloop
endfacet
facet normal 0.000000 1.000000 0.000000
outer loop
vertex 500.000000 700.000183 999.999878
vertex -500.000000 700.000183 1199.999878
vertex 500.000000 700.000183 1199.999878
endloop
endfacet
facet normal 1.000000 0.000000 0.000000
outer loop
vertex 700.000000 -839.999817 1000.000122
vertex 700.000000 840.000183 999.999878
vertex 700.000000 840.000183 1199.999878
endloop
endfacet
facet normal 1.000000 0.000000 0.000000
outer loop
vertex 700.000000 -839.999817 1000.000122
vertex 700.000000 840.000183 1199.999878
vertex 700.000000 -839.999817 1200.000122
endloop
endfacet
facet normal 1.000000 0.000000 0.000000
outer loop
vertex 700.000000 -839.999817 1200.000122
vertex 700.000000 840.000183 1199.999878
vertex 700.000000 840.000244 1399.999878
endloop
endfacet
facet normal 1.000000 0.000000 0.000000
outer loop
vertex 700.000000 -839.999817 1200.000122
vertex 700.000000 840.000244 1399.999878
vertex 700.000000 -839.999756 1400.000122
endloop
endfacet
facet normal 0.000000 -1.000000 0.000001
outer loop
vertex -700.000000 -839.999817 1200.000122
vertex -500.000000 -839.999817 1200.000122
vertex -500.000000 -839.999756 1400.000122
endloop
endfacet
facet normal 0.000000 -1.000000 0.000000
outer loop
vertex -700.000000 -839.999817 1200.000122
vertex -500.000000 -839.999756 1400.000122
vertex -700.000000 -839.999756 1400.000122
endloop
endfacet
facet normal 0.000000 -1.000000 0.000001
outer loop
vertex -500.000000 -699.999817 1200.000122
vertex 500.000000 -699.999817 1200.000122
vertex 500.000000 -699.999756 1400.000122
endloop
endfacet
facet normal 0.000000 -1.000000 0.000000
outer loop
vertex -500.000000 -699.999817 1200.000122
vertex 500.000000 -699.999756 1400.000122
vertex -500.000000 -699.999756 1400.000122
endloop
endfacet
facet normal 1.000000 0.000000 0.000000
outer loop
vertex -500.000000 700.000183 1199.999878
vertex -500.000000 840.000183 1199.999878
vertex -500.000000 840.000244 1399.999878
endloop
endfacet
facet normal 1.000000 0.000000 0.000000
outer loop
vertex -500.000000 700.000183 1199.999878
vertex -500.000000 840.000244 1399.999878
vertex -500.000000 700.000244 1399.999878
endloop
endfacet
facet normal 0.000000 1.000000 -0.000001
outer loop
vertex 700.000000 840.000183 1199.999878
vertex 500.000000 840.000183 1199.999878
vertex 500.000000 840.000244 1399.999878
endloop
endfacet
facet normal 0.000000 1.000000 0.000000
outer loop
vertex 700.000000 840.000183 1199.999878
vertex 500.000000 840.000244 1399.999878
vertex 700.000000 840.000244 1399.999878
endloop
endfacet
facet normal 1.000000 0.000000 0.000000
outer loop
vertex -500.000000 -839.999817 1200.000122
vertex -500.000000 -699.999817 1200.000122
vertex -500.000000 -699.999756 1400.000122
endloop
endfacet
facet normal 1.000000 0.000000 0.000000
outer loop
vertex -500.000000 -839.999817 1200.000122
vertex -500.000000 -699.999756 1400.000122
vertex -500.000000 -839.999756 1400.000122
endloop
endfacet
facet normal -1.000000 0.000000 0.000000
outer loop
vertex 500.000000 -699.999817 1200.000122
vertex 500.000000 -839.999817 1200.000122
vertex 500.000000 -839.999756 1400.000122
endloop
endfacet
facet normal -1.000000 0.000000 0.000000
outer loop
vertex 500.000000 -699.999817 1200.000122
vertex 500.000000 -839.999756 1400.000122
vertex 500.000000 -699.999756 1400.000122
endloop
endfacet
facet normal 0.000000 1.000000 -0.000001
outer loop
vertex -500.000000 840.000183 1199.999878
vertex -700.000000 840.000183 1199.999878
vertex -700.000000 840.000244 1399.999878
endloop
endfacet
facet normal 0.000000 1.000000 0.000000
outer loop
vertex -500.000000 840.000183 1199.999878
vertex -700.000000 840.000244 1399.999878
vertex -500.000000 840.000244 1399.999878
endloop
endfacet
facet normal -1.000000 0.000000 0.000000
outer loop
vertex 500.000000 840.000183 1199.999878
vertex 500.000000 700.000183 1199.999878
vertex 500.000000 700.000244 1399.999878
endloop
endfacet
facet normal -1.000000 0.000000 0.000000
outer loop
vertex 500.000000 840.000183 1199.999878
vertex 500.000000 700.000244 1399.999878
vertex 500.000000 840.000244 1399.999878
endloop
endfacet
facet normal 0.000000 -1.000000 0.000001
outer loop
vertex 500.000000 -839.999817 1200.000122
vertex 700.000000 -839.999817 1200.000122
vertex 700.000000 -839.999756 1400.000122
endloop
endfacet
facet normal 0.000000 -1.000000 0.000000
outer loop
vertex 500.000000 -839.999817 1200.000122
vertex 700.000000 -839.999756 1400.000122
vertex 500.000000 -839.999756 1400.000122
endloop
endfacet
facet normal -1.000000 0.000000 0.000000
outer loop
vertex -700.000000 840.000183 1199.999878
vertex -700.000000 -839.999817 1200.000122
vertex -700.000000 -839.999756 1400.000122
endloop
endfacet
facet normal -1.000000 0.000000 0.000000
outer loop
vertex -700.000000 840.000183 1199.999878
vertex -700.000000 -839.999756 1400.000122
vertex -700.000000 840.000244 1399.999878
endloop
endfacet
facet normal 0.000000 1.000000 -0.000001
outer loop
vertex 500.000000 700.000183 1199.999878
vertex -500.000000 700.000183 1199.999878
vertex -500.000000 700.000244 1399.999878
endloop
endfacet
facet normal 0.000000 1.000000 0.000000
outer loop
vertex 500.000000 700.000183 1199.999878
vertex -500.000000 700.000244 1399.999878
vertex 500.000000 700.000244 1399.999878
endloop
endfacet
endsolid building_029
