solid building_007.001
facet normal 1.000000 0.000000 0.000000
outer loop
vertex 355.747711 -1035.498169 0.000169
vertex 355.747711 -500.000000 0.000081
vertex 355.747711 -499.999939 400.000092
endloop
endfacet
facet normal 1.000000 -0.000000 0.000000
outer loop
vertex 355.747711 -1035.498169 0.000169
vertex 355.747711 -499.999939 400.000092
vertex 355.747711 -1035.498047 400.000183
endloop
endfacet
facet normal 0.000000 0.000000 1.000000
outer loop
vertex -500.000000 500.000641 4000.000000
vertex -500.000000 -499.999359 4000.000000
vertex -355.747711 -499.999359 4000.000000
endloop
endfacet
facet normal 0.000000 0.000000 1.000000
outer loop
vertex -355.747711 -499.999359 4000.000000
vertex -355.747711 -1035.497559 4000.000244
vertex 355.747711 -1035.497559 4000.000244
endloop
endfacet
facet normal 0.000000 0.000000 1.000000
outer loop
vertex 355.747711 -499.999359 4000.000000
vertex 500.000000 -499.999359 4000.000000
vertex 500.000000 500.000641 4000.000000
endloop
endfacet
facet normal 0.000000 0.000000 1.000000
outer loop
vertex -355.747711 -499.999359 4000.000000
vertex 355.747711 -1035.497559 4000.000244
vertex 355.747711 -499.999359 4000.000000
endloop
endfacet
facet normal 0.000000 0.000000 1.000000
outer loop
vertex 500.000000 500.000641 4000.000000
vertex -500.000000 500.000641 4000.000000
vertex -355.747711 -499.999359 4000.000000
endloop
endfacet
facet normal 0.000000 0.000000 1.000000
outer loop
vertex -355.747711 -499.999359 4000.000000
vertex 355.747711 -499.999359 4000.000000
vertex 500.000000 500.000641 4000.000000
endloop
endfacet
facet normal 0.000000 1.000000 -0.000000
outer loop
vertex 500.000000 500.000000 -0.000081
vertex -500.000000 500.000000 -0.000081
vertex -500.000000 500.000061 399.999908
endloop
endfacet
facet normal 0.000000 1.000000 -0.000000
outer loop
vertex 500.000000 500.000000 -0.000081
vertex -500.000000 500.000061 399.999908
vertex 500.000000 500.000061 399.999908
endloop
endfacet
facet normal 0.000000 -1.000000 0.000000
outer loop
vertex 355.747711 -500.000000 0.000081
vertex 500.000000 -500.000000 0.000081
vertex 500.000000 -499.999939 400.000092
endloop
endfacet
facet normal 0.000000 -1.000000 0.000000
outer loop
vertex 355.747711 -500.000000 0.000081
vertex 500.000000 -499.999939 400.000092
vertex 355.747711 -499.999939 400.000092
endloop
endfacet
facet normal -1.000000 0.000000 0.000000
outer loop
vertex -355.747711 -500.000000 0.000081
vertex -355.747711 -1035.498169 0.000169
vertex -355.747711 -1035.498047 400.000183
endloop
endfacet
facet normal -1.000000 -0.000000 0.000000
outer loop
vertex -355.747711 -500.000000 0.000081
vertex -355.747711 -1035.498047 400.000183
vertex -355.747711 -499.999939 400.000092
endloop
endfacet
facet normal 0.000000 -1.000000 0.000000
outer loop
vertex -355.747711 -1035.498169 0.000169
vertex 355.747711 -1035.498169 0.000169
vertex 355.747711 -1035.498047 400.000183
endloop
endfacet
facet normal 0.000000 -1.000000 0.000000
outer loop
vertex -355.747711 -1035.498169 0.000169
vertex 355.747711 -1035.498047 400.000183
vertex -355.747711 -1035.498047 400.000183
endloop
endfacet
facet normal 0.000000 -1.000000 0.000000
outer loop
vertex -500.000000 -500.000000 0.000081
vertex -355.747711 -500.000000 0.000081
vertex -355.747711 -499.999939 400.000092
endloop
endfacet
facet normal 0.000000 -1.000000 0.000000
outer loop
vertex -500.000000 -500.000000 0.000081
vertex -355.747711 -499.999939 400.000092
vertex -500.000000 -499.999939 400.000092
endloop
endfacet
facet normal 1.000000 -0.000000 0.000000
outer loop
vertex 500.000000 -500.000000 0.000081
vertex 500.000000 500.000000 -0.000081
vertex 500.000000 500.000061 399.999908
endloop
endfacet
facet normal 1.000000 0.000000 0.000000
outer loop
vertex 500.000000 -500.000000 0.000081
vertex 500.000000 500.000061 399.999908
vertex 500.000000 -499.999939 400.000092
endloop
endfacet
facet normal -1.000000 -0.000000 0.000000
outer loop
vertex -500.000000 500.000000 -0.000081
vertex -500.000000 -500.000000 0.000081
vertex -500.000000 -499.999939 400.000092
endloop
endfacet
facet normal -1.000000 0.000000 0.000000
outer loop
vertex -500.000000 500.000000 -0.000081
vertex -500.000000 -499.999939 400.000092
vertex -500.000000 500.000061 399.999908
endloop
endfacet
facet normal 0.000000 -1.000000 0.000000
outer loop
vertex -500.000000 -499.999939 400.000092
vertex -355.747711 -499.999939 400.000092
vertex -355.747711 -499.999878 800.000061
endloop
endfacet
facet normal 0.000000 -1.000000 0.000000
outer loop
vertex -500.000000 -499.999939 400.000092
vertex -355.747711 -499.999878 800.000061
vertex -500.000000 -499.999878 800.000061
endloop
endfacet
facet normal 0.000000 1.000000 -0.000000
outer loop
vertex 500.000000 500.000061 399.999908
vertex -500.000000 500.000061 399.999908
vertex -500.000000 500.000122 799.999939
endloop
endfacet
facet normal 0.000000 1.000000 -0.000000
outer loop
vertex 500.000000 500.000061 399.999908
vertex -500.000000 500.000122 799.999939
vertex 500.000000 500.000122 799.999939
endloop
endfacet
facet normal 0.000000 -1.000000 0.000000
outer loop
vertex 355.747711 -499.999939 400.000092
vertex 500.000000 -499.999939 400.000092
vertex 500.000000 -499.999878 800.000061
endloop
endfacet
facet normal 0.000000 -1.000000 0.000000
outer loop
vertex 355.747711 -499.999939 400.000092
vertex 500.000000 -499.999878 800.000061
vertex 355.747711 -499.999878 800.000061
endloop
endfacet
facet normal 0.000000 -1.000000 0.000000
outer loop
vertex -355.747711 -1035.498047 400.000183
vertex 355.747711 -1035.498047 400.000183
vertex 355.747711 -1035.498047 800.000183
endloop
endfacet
facet normal 0.000000 -1.000000 0.000000
outer loop
vertex -355.747711 -1035.498047 400.000183
vertex 355.747711 -1035.498047 800.000183
vertex -355.747711 -1035.498047 800.000183
endloop
endfacet
facet normal -1.000000 0.000000 0.000000
outer loop
vertex -500.000000 500.000061 399.999908
vertex -500.000000 -499.999939 400.000092
vertex -500.000000 -499.999878 800.000061
endloop
endfacet
facet normal -1.000000 0.000000 0.000000
outer loop
vertex -500.000000 500.000061 399.999908
vertex -500.000000 -499.999878 800.000061
vertex -500.000000 500.000122 799.999939
endloop
endfacet
facet normal 1.000000 0.000000 0.000000
outer loop
vertex 500.000000 -499.999939 400.000092
vertex 500.000000 500.000061 399.999908
vertex 500.000000 500.000122 799.999939
endloop
endfacet
facet normal 1.000000 0.000000 0.000000
outer loop
vertex 500.000000 -499.999939 400.000092
vertex 500.000000 500.000122 799.999939
vertex 500.000000 -499.999878 800.000061
endloop
endfacet
facet normal 1.000000 0.000000 0.000000
outer loop
vertex 355.747711 -1035.498047 400.000183
vertex 355.747711 -499.999939 400.000092
vertex 355.747711 -499.999878 800.000061
endloop
endfacet
facet normal 1.000000 -0.000000 0.000000
outer loop
vertex 355.747711 -1035.498047 400.000183
vertex 355.747711 -499.999878 800.000061
vertex 355.747711 -1035.498047 800.000183
endloop
endfacet
facet normal -1.000000 0.000000 0.000000
outer loop
vertex -355.747711 -499.999939 400.000092
vertex -355.747711 -1035.498047 400.000183
vertex -355.747711 -1035.498047 800.000183
endloop
endfacet
facet normal -1.000000 -0.000000 0.000000
outer loop
vertex -355.747711 -499.999939 400.000092
vertex -355.747711 -1035.498047 800.000183
vertex -355.747711 -499.999878 800.000061
endloop
endfacet
facet normal 1.000000 0.000000 0.000000
outer loop
vertex 500.000000 -499.999878 800.000061
vertex 500.000000 500.000122 799.999939
vertex 500.000000 500.000183 1199.999878
endloop
endfacet
facet normal 1.000000 0.000000 0.000000
outer loop
vertex 500.000000 -499.999878 800.000061
vertex 500.000000 500.000183 1199.999878
vertex 500.000000 -499.999817 1200.000122
endloop
endfacet
facet normal 1.000000 0.000000 0.000000
outer loop
vertex 355.747711 -1035.498047 800.000183
vertex 355.747711 -499.999878 800.000061
vertex 355.747711 -499.999817 1200.000122
endloop
endfacet
facet normal 1.000000 0.000000 0.000000
outer loop
vertex 355.747711 -1035.498047 800.000183
vertex 355.747711 -499.999817 1200.000122
vertex 355.747711 -1035.497925 1200.000122
endloop
endfacet
facet normal -1.000000 0.000000 0.000000
outer loop
vertex -355.747711 -499.999878 800.000061
vertex -355.747711 -1035.498047 800.000183
vertex -355.747711 -1035.497925 1200.000122
endloop
endfacet
facet normal -1.000000 0.000000 0.000000
outer loop
vertex -355.747711 -499.999878 800.000061
vertex -355.747711 -1035.497925 1200.000122
vertex -355.747711 -499.999817 1200.000122
endloop
endfacet
facet normal 0.000000 1.000000 -0.000000
outer loop
vertex 500.000000 500.000122 799.999939
vertex -500.000000 500.000122 799.999939
vertex -500.000000 500.000183 1199.999878
endloop
endfacet
facet normal 0.000000 1.000000 -0.000000
outer loop
vertex 500.000000 500.000122 799.999939
vertex -500.000000 500.000183 1199.999878
vertex 500.000000 500.000183 1199.999878
endloop
endfacet
facet normal 0.000000 -1.000000 0.000000
outer loop
vertex 355.747711 -499.999878 800.000061
vertex 500.000000 -499.999878 800.000061
vertex 500.000000 -499.999817 1200.000122
endloop
endfacet
facet normal 0.000000 -1.000000 0.000000
outer loop
vertex 355.747711 -499.999878 800.000061
vertex 500.000000 -499.999817 1200.000122
vertex 355.747711 -499.999817 1200.000122
endloop
endfacet
facet normal 0.000000 -1.000000 0.000000
outer loop
vertex -355.747711 -1035.498047 800.000183
vertex 355.747711 -1035.498047 800.000183
vertex 355.747711 -1035.497925 1200.000122
endloop
endfacet
facet normal 0.000000 -1.000000 0.000000
outer loop
vertex -355.747711 -1035.498047 800.000183
vertex 355.747711 -1035.497925 1200.000122
vertex -355.747711 -1035.497925 1200.000122
endloop
endfacet
facet normal 0.000000 -1.000000 0.000000
outer loop
vertex -500.000000 -499.999878 800.000061
vertex -355.747711 -499.999878 800.000061
vertex -355.747711 -499.999817 1200.000122
endloop
endfacet
facet normal 0.000000 -1.000000 0.000000
outer loop
vertex -500.000000 -499.999878 800.000061
vertex -355.747711 -499.999817 1200.000122
vertex -500.000000 -499.999817 1200.000122
endloop
endfacet
facet normal -1.000000 0.000000 0.000000
outer loop
vertex -500.000000 500.000122 799.999939
vertex -500.000000 -499.999878 800.000061
vertex -500.000000 -499.999817 1200.000122
endloop
endfacet
facet normal -1.000000 0.000000 0.000000
outer loop
vertex -500.000000 500.000122 799.999939
vertex -500.000000 -499.999817 1200.000122
vertex -500.000000 500.000183 1199.999878
endloop
endfacet
facet normal 0.000000 -1.000000 0.000000
outer loop
vertex -500.000000 -499.999817 1200.000122
vertex -355.747711 -499.999817 1200.000122
vertex -355.747711 -499.999725 1600.000122
endloop
endfacet
facet normal 0.000000 -1.000000 0.000000
outer loop
vertex -500.000000 -499.999817 1200.000122
vertex -355.747711 -499.999725 1600.000122
vertex -500.000000 -499.999725 1600.000122
endloop
endfacet
facet normal -1.000000 0.000000 0.000000
outer loop
vertex -500.000000 500.000183 1199.999878
vertex -500.000000 -499.999817 1200.000122
vertex -500.000000 -499.999725 1600.000122
endloop
endfacet
facet normal -1.000000 0.000000 0.000000
outer loop
vertex -500.000000 500.000183 1199.999878
vertex -500.000000 -499.999725 1600.000122
vertex -500.000000 500.000275 1599.999878
endloop
endfacet
facet normal 1.000000 0.000000 0.000000
outer loop
vertex 500.000000 -499.999817 1200.000122
vertex 500.000000 500.000183 1199.999878
vertex 500.000000 500.000275 1599.999878
endloop
endfacet
facet normal 1.000000 0.000000 0.000000
outer loop
vertex 500.000000 -499.999817 1200.000122
vertex 500.000000 500.000275 1599.999878
vertex 500.000000 -499.999725 1600.000122
endloop
endfacet
facet normal 1.000000 0.000000 0.000000
outer loop
vertex 355.747711 -1035.497925 1200.000122
vertex 355.747711 -499.999817 1200.000122
vertex 355.747711 -499.999725 1600.000122
endloop
endfacet
facet normal 1.000000 0.000000 0.000000
outer loop
vertex 355.747711 -1035.497925 1200.000122
vertex 355.747711 -499.999725 1600.000122
vertex 355.747711 -1035.497925 1600.000122
endloop
endfacet
facet normal -1.000000 0.000000 0.000000
outer loop
vertex -355.747711 -499.999817 1200.000122
vertex -355.747711 -1035.497925 1200.000122
vertex -355.747711 -1035.497925 1600.000122
endloop
endfacet
facet normal -1.000000 0.000000 0.000000
outer loop
vertex -355.747711 -499.999817 1200.000122
vertex -355.747711 -1035.497925 1600.000122
vertex -355.747711 -499.999725 1600.000122
endloop
endfacet
facet normal 0.000000 1.000000 -0.000000
outer loop
vertex 500.000000 500.000183 1199.999878
vertex -500.000000 500.000183 1199.999878
vertex -500.000000 500.000275 1599.999878
endloop
endfacet
facet normal 0.000000 1.000000 -0.000000
outer loop
vertex 500.000000 500.000183 1199.999878
vertex -500.000000 500.000275 1599.999878
vertex 500.000000 500.000275 1599.999878
endloop
endfacet
facet normal 0.000000 -1.000000 0.000000
outer loop
vertex 355.747711 -499.999817 1200.000122
vertex 500.000000 -499.999817 1200.000122
vertex 500.000000 -499.999725 1600.000122
endloop
endfacet
facet normal 0.000000 -1.000000 0.000000
outer loop
vertex 355.747711 -499.999817 1200.000122
vertex 500.000000 -499.999725 1600.000122
vertex 355.747711 -499.999725 1600.000122
endloop
endfacet
facet normal 0.000000 -1.000000 0.000000
outer loop
vertex -355.747711 -1035.497925 1200.000122
vertex 355.747711 -1035.497925 1200.000122
vertex 355.747711 -1035.497925 1600.000122
endloop
endfacet
facet normal 0.000000 -1.000000 0.000000
outer loop
vertex -355.747711 -1035.497925 1200.000122
vertex 355.747711 -1035.497925 1600.000122
vertex -355.747711 -1035.497925 1600.000122
endloop
endfacet
facet normal 0.000000 1.000000 -0.000000
outer loop
vertex 500.000000 500.000275 1599.999878
vertex -500.000000 500.000275 1599.999878
vertex -500.000000 500.000336 1999.999878
endloop
endfacet
facet normal 0.000000 1.000000 -0.000000
outer loop
vertex 500.000000 500.000275 1599.999878
vertex -500.000000 500.000336 1999.999878
vertex 500.000000 500.000336 1999.999878
endloop
endfacet
facet normal 0.000000 -1.000000 0.000000
outer loop
vertex 355.747711 -499.999725 1600.000122
vertex 500.000000 -499.999725 1600.000122
vertex 500.000000 -499.999664 2000.000122
endloop
endfacet
facet normal 0.000000 -1.000000 0.000000
outer loop
vertex 355.747711 -499.999725 1600.000122
vertex 500.000000 -499.999664 2000.000122
vertex 355.747711 -499.999664 2000.000122
endloop
endfacet
facet normal 0.000000 -1.000000 0.000001
outer loop
vertex -355.747711 -1035.497925 1600.000122
vertex 355.747711 -1035.497925 1600.000122
vertex 355.747711 -1035.497803 2000.000122
endloop
endfacet
facet normal 0.000000 -1.000000 0.000000
outer loop
vertex -355.747711 -1035.497925 1600.000122
vertex 355.747711 -1035.497803 2000.000122
vertex -355.747711 -1035.497803 2000.000122
endloop
endfacet
facet normal 0.000000 -1.000000 0.000000
outer loop
vertex -500.000000 -499.999725 1600.000122
vertex -355.747711 -499.999725 1600.000122
vertex -355.747711 -499.999664 2000.000122
endloop
endfacet
facet normal 0.000000 -1.000000 0.000000
outer loop
vertex -500.000000 -499.999725 1600.000122
vertex -355.747711 -499.999664 2000.000122
vertex -500.000000 -499.999664 2000.000122
endloop
endfacet
facet normal -1.000000 0.000000 0.000000
outer loop
vertex -500.000000 500.000275 1599.999878
vertex -500.000000 -499.999725 1600.000122
vertex -500.000000 -499.999664 2000.000122
endloop
endfacet
facet normal -1.000000 0.000000 0.000000
outer loop
vertex -500.000000 500.000275 1599.999878
vertex -500.000000 -499.999664 2000.000122
vertex -500.000000 500.000336 1999.999878
endloop
endfacet
facet normal 1.000000 0.000000 0.000000
outer loop
vertex 500.000000 -499.999725 1600.000122
vertex 500.000000 500.000275 1599.999878
vertex 500.000000 500.000336 1999.999878
endloop
endfacet
facet normal 1.000000 0.000000 0.000000
outer loop
vertex 500.000000 -499.999725 1600.000122
vertex 500.000000 500.000336 1999.999878
vertex 500.000000 -499.999664 2000.000122
endloop
endfacet
facet normal 1.000000 0.000000 0.000000
outer loop
vertex 355.747711 -1035.497925 1600.000122
vertex 355.747711 -499.999725 1600.000122
vertex 355.747711 -499.999664 2000.000122
endloop
endfacet
facet normal 1.000000 0.000000 0.000000
outer loop
vertex 355.747711 -1035.497925 1600.000122
vertex 355.747711 -499.999664 2000.000122
vertex 355.747711 -1035.497803 2000.000122
endloop
endfacet
facet normal -1.000000 0.000000 0.000000
outer loop
vertex -355.747711 -499.999725 1600.000122
vertex -355.747711 -1035.497925 1600.000122
vertex -355.747711 -1035.497803 2000.000122
endloop
endfacet
facet normal -1.000000 0.000000 0.000000
outer loop
vertex -355.747711 -499.999725 1600.000122
vertex -355.747711 -1035.497803 2000.000122
vertex -355.747711 -499.999664 2000.000122
endloop
endfacet
facet normal -1.000000 0.000000 0.000000
outer loop
vertex -355.747711 -499.999664 2000.000122
vertex -355.747711 -1035.497803 2000.000122
vertex -355.747711 -1035.497803 2400.000244
endloop
endfacet
facet normal -1.000000 -0.000000 0.000000
outer loop
vertex -355.747711 -499.999664 2000.000122
vertex -355.747711 -1035.497803 2400.000244
vertex -355.747711 -499.999603 2400.000000
endloop
endfacet
facet normal 0.000000 1.000000 -0.000000
outer loop
vertex 500.000000 500.000336 1999.999878
vertex -500.000000 500.000336 1999.999878
vertex -500.000000 500.000397 2400.000000
endloop
endfacet
facet normal 0.000000 1.000000 -0.000000
outer loop
vertex 500.000000 500.000336 1999.999878
vertex -500.000000 500.000397 2400.000000
vertex 500.000000 500.000397 2400.000000
endloop
endfacet
facet normal 0.000000 -1.000000 0.000000
outer loop
vertex 355.747711 -499.999664 2000.000122
vertex 500.000000 -499.999664 2000.000122
vertex 500.000000 -499.999603 2400.000000
endloop
endfacet
facet normal 0.000000 -1.000000 0.000000
outer loop
vertex 355.747711 -499.999664 2000.000122
vertex 500.000000 -499.999603 2400.000000
vertex 355.747711 -499.999603 2400.000000
endloop
endfacet
facet normal 0.000000 -1.000000 0.000000
outer loop
vertex -355.747711 -1035.497803 2000.000122
vertex 355.747711 -1035.497803 2000.000122
vertex 355.747711 -1035.497803 2400.000244
endloop
endfacet
facet normal 0.000000 -1.000000 0.000000
outer loop
vertex -355.747711 -1035.497803 2000.000122
vertex 355.747711 -1035.497803 2400.000244
vertex -355.747711 -1035.497803 2400.000244
endloop
endfacet
facet normal 0.000000 -1.000000 0.000000
outer loop
vertex -500.000000 -499.999664 2000.000122
vertex -355.747711 -499.999664 2000.000122
vertex -355.747711 -499.999603 2400.000000
endloop
endfacet
facet normal 0.000000 -1.000000 0.000000
outer loop
vertex -500.000000 -499.999664 2000.000122
vertex -355.747711 -499.999603 2400.000000
vertex -500.000000 -499.999603 2400.000000
endloop
endfacet
facet normal -1.000000 0.000000 0.000000
outer loop
vertex -500.000000 500.000336 1999.999878
vertex -500.000000 -499.999664 2000.000122
vertex -500.000000 -499.999603 2400.000000
endloop
endfacet
facet normal -1.000000 0.000000 0.000000
outer loop
vertex -500.000000 500.000336 1999.999878
vertex -500.000000 -499.999603 2400.000000
vertex -500.000000 500.000397 2400.000000
endloop
endfacet
facet normal 1.000000 0.000000 0.000000
outer loop
vertex 500.000000 -499.999664 2000.000122
vertex 500.000000 500.000336 1999.999878
vertex 500.000000 500.000397 2400.000000
endloop
endfacet
facet normal 1.000000 0.000000 0.000000
outer loop
vertex 500.000000 -499.999664 2000.000122
vertex 500.000000 500.000397 2400.000000
vertex 500.000000 -499.999603 2400.000000
endloop
endfacet
facet normal 1.000000 0.000000 0.000000
outer loop
vertex 355.747711 -1035.497803 2000.000122
vertex 355.747711 -499.999664 2000.000122
vertex 355.747711 -499.999603 2400.000000
endloop
endfacet
facet normal 1.000000 -0.000000 0.000000
outer loop
vertex 355.747711 -1035.497803 2000.000122
vertex 355.747711 -499.999603 2400.000000
vertex 355.747711 -1035.497803 2400.000244
endloop
endfacet
facet normal -1.000000 0.000000 0.000000
outer loop
vertex -500.000000 500.000397 2400.000000
vertex -500.000000 -499.999603 2400.000000
vertex -500.000000 -499.999542 2800.000000
endloop
endfacet
facet normal -1.000000 0.000000 0.000000
outer loop
vertex -500.000000 500.000397 2400.000000
vertex -500.000000 -499.999542 2800.000000
vertex -500.000000 500.000458 2800.000000
endloop
endfacet
facet normal 1.000000 0.000000 0.000000
outer loop
vertex 500.000000 -499.999603 2400.000000
vertex 500.000000 500.000397 2400.000000
vertex 500.000000 500.000458 2800.000000
endloop
endfacet
facet normal 1.000000 0.000000 0.000000
outer loop
vertex 500.000000 -499.999603 2400.000000
vertex 500.000000 500.000458 2800.000000
vertex 500.000000 -499.999542 2800.000000
endloop
endfacet
facet normal 1.000000 0.000000 0.000000
outer loop
vertex 355.747711 -1035.497803 2400.000244
vertex 355.747711 -499.999603 2400.000000
vertex 355.747711 -499.999542 2800.000000
endloop
endfacet
facet normal 1.000000 -0.000000 0.000000
outer loop
vertex 355.747711 -1035.497803 2400.000244
vertex 355.747711 -499.999542 2800.000000
vertex 355.747711 -1035.497681 2800.000244
endloop
endfacet
facet normal -1.000000 0.000000 0.000000
outer loop
vertex -355.747711 -499.999603 2400.000000
vertex -355.747711 -1035.497803 2400.000244
vertex -355.747711 -1035.497681 2800.000244
endloop
endfacet
facet normal -1.000000 0.000000 0.000000
outer loop
vertex -355.747711 -499.999603 2400.000000
vertex -355.747711 -1035.497681 2800.000244
vertex -355.747711 -499.999542 2800.000000
endloop
endfacet
facet normal 0.000000 1.000000 -0.000000
outer loop
vertex 500.000000 500.000397 2400.000000
vertex -500.000000 500.000397 2400.000000
vertex -500.000000 500.000458 2800.000000
endloop
endfacet
facet normal 0.000000 1.000000 -0.000000
outer loop
vertex 500.000000 500.000397 2400.000000
vertex -500.000000 500.000458 2800.000000
vertex 500.000000 500.000458 2800.000000
endloop
endfacet
facet normal 0.000000 -1.000000 0.000000
outer loop
vertex 355.747711 -499.999603 2400.000000
vertex 500.000000 -499.999603 2400.000000
vertex 500.000000 -499.999542 2800.000000
endloop
endfacet
facet normal 0.000000 -1.000000 0.000000
outer loop
vertex 355.747711 -499.999603 2400.000000
vertex 500.000000 -499.999542 2800.000000
vertex 355.747711 -499.999542 2800.000000
endloop
endfacet
facet normal 0.000000 -1.000000 0.000000
outer loop
vertex -355.747711 -1035.497803 2400.000244
vertex 355.747711 -1035.497803 2400.000244
vertex 355.747711 -1035.497681 2800.000244
endloop
endfacet
facet normal 0.000000 -1.000000 0.000000
outer loop
vertex -355.747711 -1035.497803 2400.000244
vertex 355.747711 -1035.497681 2800.000244
vertex -355.747711 -1035.497681 2800.000244
endloop
endfacet
facet normal 0.000000 -1.000000 0.000000
outer loop
vertex -500.000000 -499.999603 2400.000000
vertex -355.747711 -499.999603 2400.000000
vertex -355.747711 -499.999542 2800.000000
endloop
endfacet
facet normal 0.000000 -1.000000 0.000000
outer loop
vertex -500.000000 -499.999603 2400.000000
vertex -355.747711 -499.999542 2800.000000
vertex -500.000000 -499.999542 2800.000000
endloop
endfacet
facet normal 0.000000 -1.000000 0.000000
outer loop
vertex -355.747711 -1035.497681 2800.000244
vertex 355.747711 -1035.497681 2800.000244
vertex 355.747711 -1035.497681 3200.000244
endloop
endfacet
facet normal 0.000000 -1.000000 0.000000
outer loop
vertex -355.747711 -1035.497681 2800.000244
vertex 355.747711 -1035.497681 3200.000244
vertex -355.747711 -1035.497681 3200.000244
endloop
endfacet
facet normal 0.000000 -1.000000 0.000000
outer loop
vertex -500.000000 -499.999542 2800.000000
vertex -355.747711 -499.999542 2800.000000
vertex -355.747711 -499.999481 3200.000000
endloop
endfacet
facet normal 0.000000 -1.000000 0.000000
outer loop
vertex -500.000000 -499.999542 2800.000000
vertex -355.747711 -499.999481 3200.000000
vertex -500.000000 -499.999481 3200.000000
endloop
endfacet
facet normal -1.000000 0.000000 0.000000
outer loop
vertex -500.000000 500.000458 2800.000000
vertex -500.000000 -499.999542 2800.000000
vertex -500.000000 -499.999481 3200.000000
endloop
endfacet
facet normal -1.000000 0.000000 0.000000
outer loop
vertex -500.000000 500.000458 2800.000000
vertex -500.000000 -499.999481 3200.000000
vertex -500.000000 500.000519 3200.000000
endloop
endfacet
facet normal 1.000000 0.000000 0.000000
outer loop
vertex 500.000000 -499.999542 2800.000000
vertex 500.000000 500.000458 2800.000000
vertex 500.000000 500.000519 3200.000000
endloop
endfacet
facet normal 1.000000 0.000000 0.000000
outer loop
vertex 500.000000 -499.999542 2800.000000
vertex 500.000000 500.000519 3200.000000
vertex 500.000000 -499.999481 3200.000000
endloop
endfacet
facet normal 1.000000 0.000000 0.000000
outer loop
vertex 355.747711 -1035.497681 2800.000244
vertex 355.747711 -499.999542 2800.000000
vertex 355.747711 -499.999481 3200.000000
endloop
endfacet
facet normal 1.000000 -0.000000 0.000000
outer loop
vertex 355.747711 -1035.497681 2800.000244
vertex 355.747711 -499.999481 3200.000000
vertex 355.747711 -1035.497681 3200.000244
endloop
endfacet
facet normal -1.000000 0.000000 0.000000
outer loop
vertex -355.747711 -499.999542 2800.000000
vertex -355.747711 -1035.497681 2800.000244
vertex -355.747711 -1035.497681 3200.000244
endloop
endfacet
facet normal -1.000000 0.000000 0.000000
outer loop
vertex -355.747711 -499.999542 2800.000000
vertex -355.747711 -1035.497681 3200.000244
vertex -355.747711 -499.999481 3200.000000
endloop
endfacet
facet normal 0.000000 1.000000 -0.000000
outer loop
vertex 500.000000 500.000458 2800.000000
vertex -500.000000 500.000458 2800.000000
vertex -500.000000 500.000519 3200.000000
endloop
endfacet
facet normal 0.000000 1.000000 -0.000000
outer loop
vertex 500.000000 500.000458 2800.000000
vertex -500.000000 500.000519 3200.000000
vertex 500.000000 500.000519 3200.000000
endloop
endfacet
facet normal 0.000000 -1.000000 0.000000
outer loop
vertex 355.747711 -499.999542 2800.000000
vertex 500.000000 -499.999542 2800.000000
vertex 500.000000 -499.999481 3200.000000
endloop
endfacet
facet normal 0.000000 -1.000000 0.000000
outer loop
vertex 355.747711 -499.999542 2800.000000
vertex 500.000000 -499.999481 3200.000000
vertex 355.747711 -499.999481 3200.000000
endloop
endfacet
facet normal 0.000000 1.000000 -0.000000
outer loop
vertex 500.000000 500.000519 3200.000000
vertex -500.000000 500.000519 3200.000000
vertex -500.000000 500.000580 3600.000000
endloop
endfacet
facet normal 0.000000 1.000000 -0.000000
outer loop
vertex 500.000000 500.000519 3200.000000
vertex -500.000000 500.000580 3600.000000
vertex 500.000000 500.000580 3600.000000
endloop
endfacet
facet normal 0.000000 -1.000000 0.000000
outer loop
vertex 355.747711 -499.999481 3200.000000
vertex 500.000000 -499.999481 3200.000000
vertex 500.000000 -499.999420 3600.000000
endloop
endfacet
facet normal 0.000000 -1.000000 0.000000
outer loop
vertex 355.747711 -499.999481 3200.000000
vertex 500.000000 -499.999420 3600.000000
vertex 355.747711 -499.999420 3600.000000
endloop
endfacet
facet normal 0.000000 -1.000000 0.000001
outer loop
vertex -355.747711 -1035.497681 3200.000244
vertex 355.747711 -1035.497681 3200.000244
vertex 355.747711 -1035.497559 3600.000244
endloop
endfacet
facet normal 0.000000 -1.000000 0.000000
outer loop
vertex -355.747711 -1035.497681 3200.000244
vertex 355.747711 -1035.497559 3600.000244
vertex -355.747711 -1035.497559 3600.000244
endloop
endfacet
facet normal 0.000000 -1.000000 0.000000
outer loop
vertex -500.000000 -499.999481 3200.000000
vertex -355.747711 -499.999481 3200.000000
vertex -355.747711 -499.999420 3600.000000
endloop
endfacet
facet normal 0.000000 -1.000000 0.000000
outer loop
vertex -500.000000 -499.999481 3200.000000
vertex -355.747711 -499.999420 3600.000000
vertex -500.000000 -499.999420 3600.000000
endloop
endfacet
facet normal -1.000000 0.000000 0.000000
outer loop
vertex -500.000000 500.000519 3200.000000
vertex -500.000000 -499.999481 3200.000000
vertex -500.000000 -499.999420 3600.000000
endloop
endfacet
facet normal -1.000000 0.000000 0.000000
outer loop
vertex -500.000000 500.000519 3200.000000
vertex -500.000000 -499.999420 3600.000000
vertex -500.000000 500.000580 3600.000000
endloop
endfacet
facet normal 1.000000 0.000000 0.000000
outer loop
vertex 500.000000 -499.999481 3200.000000
vertex 500.000000 500.000519 3200.000000
vertex 500.000000 500.000580 3600.000000
endloop
endfacet
facet normal 1.000000 0.000000 0.000000
outer loop
vertex 500.000000 -499.999481 3200.000000
vertex 500.000000 500.000580 3600.000000
vertex 500.000000 -499.999420 3600.000000
endloop
endfacet
facet normal 1.000000 0.000000 0.000000
outer loop
vertex 355.747711 -1035.497681 3200.000244
vertex 355.747711 -499.999481 3200.000000
vertex 355.747711 -499.999420 3600.000000
endloop
endfacet
facet normal 1.000000 -0.000000 0.000000
outer loop
vertex 355.747711 -1035.497681 3200.000244
vertex 355.747711 -499.999420 3600.000000
vertex 355.747711 -1035.497559 3600.000244
endloop
endfacet
facet normal -1.000000 0.000000 0.000000
outer loop
vertex -355.747711 -499.999481 3200.000000
vertex -355.747711 -1035.497681 3200.000244
vertex -355.747711 -1035.497559 3600.000244
endloop
endfacet
facet normal -1.000000 0.000000 0.000000
outer loop
vertex -355.747711 -499.999481 3200.000000
vertex -355.747711 -1035.497559 3600.000244
vertex -355.747711 -499.999420 3600.000000
endloop
endfacet
facet normal 1.000000 0.000000 0.000000
outer loop
vertex 355.747711 -1035.497559 3600.000244
vertex 355.747711 -499.999420 3600.000000
vertex 355.747711 -499.999359 4000.000000
endloop
endfacet
facet normal 1.000000 -0.000000 0.000000
outer loop
vertex 355.747711 -1035.497559 3600.000244
vertex 355.747711 -499.999359 4000.000000
vertex 355.747711 -1035.497559 4000.000244
endloop
endfacet
facet normal -1.000000 0.000000 0.000000
outer loop
vertex -355.747711 -499.999420 3600.000000
vertex -355.747711 -1035.497559 3600.000244
vertex -355.747711 -1035.497559 4000.000244
endloop
endfacet
facet normal -1.000000 0.000000 0.000000
outer loop
vertex -355.747711 -499.999420 3600.000000
vertex -355.747711 -1035.497559 4000.000244
vertex -355.747711 -499.999359 4000.000000
endloop
endfacet
facet normal 0.000000 1.000000 -0.000000
outer loop
vertex 500.000000 500.000580 3600.000000
vertex -500.000000 500.000580 3600.000000
vertex -500.000000 500.000641 4000.000000
endloop
endfacet
facet normal 0.000000 1.000000 -0.000000
outer loop
vertex 500.000000 500.000580 3600.000000
vertex -500.000000 500.000641 4000.000000
vertex 500.000000 500.000641 4000.000000
endloop
endfacet
facet normal 0.000000 -1.000000 0.000000
outer loop
vertex 355.747711 -499.999420 3600.000000
vertex 500.000000 -499.999420 3600.000000
vertex 500.000000 -499.999359 4000.000000
endloop
endfacet
facet normal 0.000000 -1.000000 0.000000
outer loop
vertex 355.747711 -499.999420 3600.000000
vertex 500.000000 -499.999359 4000.000000
vertex 355.747711 -499.999359 4000.000000
endloop
endfacet
facet normal 0.000000 -1.000000 0.000000
outer loop
vertex -355.747711 -1035.497559 3600.000244
vertex 355.747711 -1035.497559 3600.000244
vertex 355.747711 -1035.497559 4000.000244
endloop
endfacet
facet normal 0.000000 -1.000000 0.000000
outer loop
vertex -355.747711 -1035.497559 3600.000244
vertex 355.747711 -1035.497559 4000.000244
vertex -355.747711 -1035.497559 4000.000244
endloop
endfacet
facet normal 0.000000 -1.000000 0.000000
outer loop
vertex -500.000000 -499.999420 3600.000000
vertex -355.747711 -499.999420 3600.000000
vertex -355.747711 -499.999359 4000.000000
endloop
endfacet
facet normal 0.000000 -1.000000 0.000000
outer loop
vertex -500.000000 -499.999420 3600.000000
vertex -355.747711 -499.999359 4000.000000
vertex -500.000000 -499.999359 4000.000000
endloop
endfacet
facet normal -1.000000 0.000000 0.000000
outer loop
vertex -500.000000 500.000580 3600.000000
vertex -500.000000 -499.999420 3600.000000
vertex -500.000000 -499.999359 4000.000000
endloop
endfacet
facet normal -1.000000 0.000000 0.000000
outer loop
vertex -500.000000 500.000580 3600.000000
vertex -500.000000 -499.999359 4000.000000
vertex -500.000000 500.000641 4000.000000
endloop
endfacet
facet normal 1.000000 0.000000 0.000000
outer loop
vertex 500.000000 -499.999420 3600.000000
vertex 500.000000 500.000580 3600.000000
vertex 500.000000 500.000641 4000.000000
endloop
endfacet
facet normal 1.000000 0.000000 0.000000
outer loop
vertex 500.000000 -499.999420 3600.000000
vertex 500.000000 500.000641 4000.000000
vertex 500.000000 -499.999359 4000.000000
endloop
endfacet
endsolid building_007.001
