solid building_014
facet normal -1.000000 0.000000 0.000000
outer loop
vertex -500.000000 -149.307220 0.000024
vertex -500.000000 -500.000000 0.000081
vertex -500.000000 -499.999939 400.000092
endloop
endfacet
facet normal -1.000000 0.000000 0.000000
outer loop
vertex -500.000000 -149.307220 0.000024
vertex -500.000000 -499.999939 400.000092
vertex -500.000000 -149.307159 400.000031
endloop
endfacet
facet normal 1.000000 0.000001 0.000000
outer loop
vertex 473.663574 -601.802979 0.000098
vertex 473.663574 -500.000000 0.000081
vertex 473.663574 -499.999939 400.000092
endloop
endfacet
facet normal 1.000000 0.000000 0.000000
outer loop
vertex 473.663574 -601.802979 0.000098
vertex 473.663574 -499.999939 400.000092
vertex 473.663574 -601.802917 400.000092
endloop
endfacet
facet normal 0.000000 0.000000 1.000000
outer loop
vertex -500.000000 -149.306824 2400.000000
vertex -500.000000 -499.999603 2400.000000
vertex -473.663483 -499.999603 2400.000000
endloop
endfacet
facet normal 0.000000 0.000000 1.000000
outer loop
vertex -473.663483 -499.999603 2400.000000
vertex -473.663483 -601.802612 2400.000000
vertex 473.663574 -601.802612 2400.000000
endloop
endfacet
facet normal 0.000000 0.000000 1.000000
outer loop
vertex 473.663574 -499.999603 2400.000000
vertex 500.000000 -499.999603 2400.000000
vertex 500.000000 500.000397 2400.000000
endloop
endfacet
facet normal 0.000000 0.000000 1.000000
outer loop
vertex -473.663483 -499.999603 2400.000000
vertex 473.663574 -601.802612 2400.000000
vertex 473.663574 -499.999603 2400.000000
endloop
endfacet
facet normal 0.000000 0.000000 1.000000
outer loop
vertex -998.719299 434.335968 2400.000000
vertex -998.719299 -149.306824 2400.000000
vertex -500.000000 -149.306824 2400.000000
endloop
endfacet
facet normal 0.000000 0.000000 1.000000
outer loop
vertex -500.000000 -149.306824 2400.000000
vertex -473.663483 -499.999603 2400.000000
vertex 473.663574 -499.999603 2400.000000
endloop
endfacet
facet normal 0.000000 0.000000 1.000000
outer loop
vertex 473.663574 -499.999603 2400.000000
vertex 500.000000 500.000397 2400.000000
vertex -500.000000 500.000397 2400.000000
endloop
endfacet
facet normal 0.000000 0.000000 1.000000
outer loop
vertex -500.000000 434.335968 2400.000000
vertex -998.719299 434.335968 2400.000000
vertex -500.000000 -149.306824 2400.000000
endloop
endfacet
facet normal -0.000004 0.000000 1.000000
outer loop
vertex 473.663574 -499.999603 2400.000000
vertex -500.000000 500.000397 2400.000000
vertex -500.000000 434.335968 2400.000000
endloop
endfacet
facet normal 0.000001 0.000000 1.000000
outer loop
vertex 473.663574 -499.999603 2400.000000
vertex -500.000000 434.335968 2400.000000
vertex -500.000000 -149.306824 2400.000000
endloop
endfacet
facet normal 0.000000 -1.000000 0.000000
outer loop
vertex -500.000000 -500.000000 0.000081
vertex -473.663483 -500.000000 0.000081
vertex -473.663483 -499.999939 400.000092
endloop
endfacet
facet normal 0.000000 -1.000000 0.000000
outer loop
vertex -500.000000 -500.000000 0.000081
vertex -473.663483 -499.999939 400.000092
vertex -500.000000 -499.999939 400.000092
endloop
endfacet
facet normal -1.000000 0.000000 0.000000
outer loop
vertex -998.719299 434.335571 -0.000071
vertex -998.719299 -149.307220 0.000024
vertex -998.719299 -149.307159 400.000031
endloop
endfacet
facet normal -1.000000 0.000000 0.000000
outer loop
vertex -998.719299 434.335571 -0.000071
vertex -998.719299 -149.307159 400.000031
vertex -998.719299 434.335632 399.999939
endloop
endfacet
facet normal 0.000000 -1.000000 0.000000
outer loop
vertex 473.663574 -500.000000 0.000081
vertex 500.000000 -500.000000 0.000081
vertex 500.000000 -499.999939 400.000092
endloop
endfacet
facet normal 0.000000 -1.000000 0.000000
outer loop
vertex 473.663574 -500.000000 0.000081
vertex 500.000000 -499.999939 400.000092
vertex 473.663574 -499.999939 400.000092
endloop
endfacet
facet normal -1.000000 0.000001 0.000000
outer loop
vertex -473.663483 -500.000000 0.000081
vertex -473.663483 -601.802979 0.000098
vertex -473.663483 -601.802917 400.000092
endloop
endfacet
facet normal -1.000000 0.000000 0.000000
outer loop
vertex -473.663483 -500.000000 0.000081
vertex -473.663483 -601.802917 400.000092
vertex -473.663483 -499.999939 400.000092
endloop
endfacet
facet normal 0.000000 -1.000000 0.000000
outer loop
vertex -998.719299 -149.307220 0.000024
vertex -500.000000 -149.307220 0.000024
vertex -500.000000 -149.307159 400.000031
endloop
endfacet
facet normal 0.000000 -1.000000 0.000000
outer loop
vertex -998.719299 -149.307220 0.000024
vertex -500.000000 -149.307159 400.000031
vertex -998.719299 -149.307159 400.000031
endloop
endfacet
facet normal 1.000000 -0.000000 0.000000
outer loop
vertex 500.000000 -500.000000 0.000081
vertex 500.000000 500.000000 -0.000081
vertex 500.000000 500.000061 399.999908
endloop
endfacet
facet normal 1.000000 0.000000 0.000000
outer loop
vertex 500.000000 -500.000000 0.000081
vertex 500.000000 500.000061 399.999908
vertex 500.000000 -499.999939 400.000092
endloop
endfacet
facet normal -1.000000 -0.000001 0.000000
outer loop
vertex -500.000000 500.000000 -0.000081
vertex -500.000000 434.335571 -0.000071
vertex -500.000000 434.335632 399.999939
endloop
endfacet
facet normal -1.000000 0.000000 0.000000
outer loop
vertex -500.000000 500.000000 -0.000081
vertex -500.000000 434.335632 399.999939
vertex -500.000000 500.000061 399.999908
endloop
endfacet
facet normal 0.000000 -1.000000 0.000000
outer loop
vertex -473.663483 -601.802979 0.000098
vertex 473.663574 -601.802979 0.000098
vertex 473.663574 -601.802917 400.000092
endloop
endfacet
facet normal 0.000000 -1.000000 0.000000
outer loop
vertex -473.663483 -601.802979 0.000098
vertex 473.663574 -601.802917 400.000092
vertex -473.663483 -601.802917 400.000092
endloop
endfacet
facet normal 0.000000 1.000000 -0.000000
outer loop
vertex -500.000000 434.335571 -0.000071
vertex -998.719299 434.335571 -0.000071
vertex -998.719299 434.335632 399.999939
endloop
endfacet
facet normal 0.000000 1.000000 -0.000000
outer loop
vertex -500.000000 434.335571 -0.000071
vertex -998.719299 434.335632 399.999939
vertex -500.000000 434.335632 399.999939
endloop
endfacet
facet normal 0.000000 1.000000 -0.000000
outer loop
vertex 500.000000 500.000000 -0.000081
vertex -500.000000 500.000000 -0.000081
vertex -500.000000 500.000061 399.999908
endloop
endfacet
facet normal 0.000000 1.000000 -0.000000
outer loop
vertex 500.000000 500.000000 -0.000081
vertex -500.000000 500.000061 399.999908
vertex 500.000000 500.000061 399.999908
endloop
endfacet
facet normal 0.000000 -1.000000 0.000000
outer loop
vertex -500.000000 -499.999939 400.000092
vertex -473.663483 -499.999939 400.000092
vertex -473.663483 -499.999878 800.000061
endloop
endfacet
facet normal 0.000000 -1.000000 0.000000
outer loop
vertex -500.000000 -499.999939 400.000092
vertex -473.663483 -499.999878 800.000061
vertex -500.000000 -499.999878 800.000061
endloop
endfacet
facet normal 1.000000 0.000000 0.000000
outer loop
vertex 500.000000 -499.999939 400.000092
vertex 500.000000 500.000061 399.999908
vertex 500.000000 500.000122 799.999939
endloop
endfacet
facet normal 1.000000 0.000000 0.000000
outer loop
vertex 500.000000 -499.999939 400.000092
vertex 500.000000 500.000122 799.999939
vertex 500.000000 -499.999878 800.000061
endloop
endfacet
facet normal 0.000000 -1.000000 0.000000
outer loop
vertex -473.663483 -601.802917 400.000092
vertex 473.663574 -601.802917 400.000092
vertex 473.663574 -601.802856 800.000122
endloop
endfacet
facet normal 0.000000 -1.000000 0.000000
outer loop
vertex -473.663483 -601.802917 400.000092
vertex 473.663574 -601.802856 800.000122
vertex -473.663483 -601.802856 800.000122
endloop
endfacet
facet normal -1.000000 0.000000 0.000000
outer loop
vertex -998.719299 434.335632 399.999939
vertex -998.719299 -149.307159 400.000031
vertex -998.719299 -149.307083 800.000000
endloop
endfacet
facet normal -1.000000 0.000000 0.000000
outer loop
vertex -998.719299 434.335632 399.999939
vertex -998.719299 -149.307083 800.000000
vertex -998.719299 434.335693 799.999939
endloop
endfacet
facet normal 0.000000 1.000000 -0.000000
outer loop
vertex 500.000000 500.000061 399.999908
vertex -500.000000 500.000061 399.999908
vertex -500.000000 500.000122 799.999939
endloop
endfacet
facet normal 0.000000 1.000000 -0.000000
outer loop
vertex 500.000000 500.000061 399.999908
vertex -500.000000 500.000122 799.999939
vertex 500.000000 500.000122 799.999939
endloop
endfacet
facet normal 1.000000 0.000000 0.000000
outer loop
vertex 473.663574 -601.802917 400.000092
vertex 473.663574 -499.999939 400.000092
vertex 473.663574 -499.999878 800.000061
endloop
endfacet
facet normal 1.000000 -0.000001 0.000000
outer loop
vertex 473.663574 -601.802917 400.000092
vertex 473.663574 -499.999878 800.000061
vertex 473.663574 -601.802856 800.000122
endloop
endfacet
facet normal 0.000000 -1.000000 0.000000
outer loop
vertex -998.719299 -149.307159 400.000031
vertex -500.000000 -149.307159 400.000031
vertex -500.000000 -149.307083 800.000000
endloop
endfacet
facet normal 0.000000 -1.000000 0.000000
outer loop
vertex -998.719299 -149.307159 400.000031
vertex -500.000000 -149.307083 800.000000
vertex -998.719299 -149.307083 800.000000
endloop
endfacet
facet normal -1.000000 0.000000 0.000000
outer loop
vertex -473.663483 -499.999939 400.000092
vertex -473.663483 -601.802917 400.000092
vertex -473.663483 -601.802856 800.000122
endloop
endfacet
facet normal -1.000000 0.000000 0.000000
outer loop
vertex -473.663483 -499.999939 400.000092
vertex -473.663483 -601.802856 800.000122
vertex -473.663483 -499.999878 800.000061
endloop
endfacet
facet normal -1.000000 0.000000 0.000000
outer loop
vertex -500.000000 500.000061 399.999908
vertex -500.000000 434.335632 399.999939
vertex -500.000000 434.335693 799.999939
endloop
endfacet
facet normal -1.000000 0.000000 0.000000
outer loop
vertex -500.000000 500.000061 399.999908
vertex -500.000000 434.335693 799.999939
vertex -500.000000 500.000122 799.999939
endloop
endfacet
facet normal 0.000000 -1.000000 0.000000
outer loop
vertex 473.663574 -499.999939 400.000092
vertex 500.000000 -499.999939 400.000092
vertex 500.000000 -499.999878 800.000061
endloop
endfacet
facet normal 0.000000 -1.000000 0.000000
outer loop
vertex 473.663574 -499.999939 400.000092
vertex 500.000000 -499.999878 800.000061
vertex 473.663574 -499.999878 800.000061
endloop
endfacet
facet normal -1.000000 0.000000 0.000000
outer loop
vertex -500.000000 -149.307159 400.000031
vertex -500.000000 -499.999939 400.000092
vertex -500.000000 -499.999878 800.000061
endloop
endfacet
facet normal -1.000000 0.000000 0.000000
outer loop
vertex -500.000000 -149.307159 400.000031
vertex -500.000000 -499.999878 800.000061
vertex -500.000000 -149.307083 800.000000
endloop
endfacet
facet normal 0.000000 1.000000 -0.000000
outer loop
vertex -500.000000 434.335632 399.999939
vertex -998.719299 434.335632 399.999939
vertex -998.719299 434.335693 799.999939
endloop
endfacet
facet normal 0.000000 1.000000 -0.000000
outer loop
vertex -500.000000 434.335632 399.999939
vertex -998.719299 434.335693 799.999939
vertex -500.000000 434.335693 799.999939
endloop
endfacet
facet normal 0.000000 1.000000 -0.000000
outer loop
vertex -500.000000 434.335693 799.999939
vertex -998.719299 434.335693 799.999939
vertex -998.719299 434.335754 1199.999878
endloop
endfacet
facet normal 0.000000 1.000000 -0.000000
outer loop
vertex -500.000000 434.335693 799.999939
vertex -998.719299 434.335754 1199.999878
vertex -500.000000 434.335754 1199.999878
endloop
endfacet
facet normal 1.000000 0.000000 0.000000
outer loop
vertex 500.000000 -499.999878 800.000061
vertex 500.000000 500.000122 799.999939
vertex 500.000000 500.000183 1199.999878
endloop
endfacet
facet normal 1.000000 0.000000 0.000000
outer loop
vertex 500.000000 -499.999878 800.000061
vertex 500.000000 500.000183 1199.999878
vertex 500.000000 -499.999817 1200.000122
endloop
endfacet
facet normal 0.000000 -1.000000 0.000000
outer loop
vertex -473.663483 -601.802856 800.000122
vertex 473.663574 -601.802856 800.000122
vertex 473.663574 -601.802795 1200.000122
endloop
endfacet
facet normal 0.000000 -1.000000 0.000000
outer loop
vertex -473.663483 -601.802856 800.000122
vertex 473.663574 -601.802795 1200.000122
vertex -473.663483 -601.802795 1200.000122
endloop
endfacet
facet normal -1.000000 0.000000 0.000000
outer loop
vertex -998.719299 434.335693 799.999939
vertex -998.719299 -149.307083 800.000000
vertex -998.719299 -149.307022 1200.000000
endloop
endfacet
facet normal -1.000000 0.000000 0.000000
outer loop
vertex -998.719299 434.335693 799.999939
vertex -998.719299 -149.307022 1200.000000
vertex -998.719299 434.335754 1199.999878
endloop
endfacet
facet normal 0.000000 1.000000 -0.000000
outer loop
vertex 500.000000 500.000122 799.999939
vertex -500.000000 500.000122 799.999939
vertex -500.000000 500.000183 1199.999878
endloop
endfacet
facet normal 0.000000 1.000000 -0.000000
outer loop
vertex 500.000000 500.000122 799.999939
vertex -500.000000 500.000183 1199.999878
vertex 500.000000 500.000183 1199.999878
endloop
endfacet
facet normal 1.000000 0.000001 0.000000
outer loop
vertex 473.663574 -601.802856 800.000122
vertex 473.663574 -499.999878 800.000061
vertex 473.663574 -499.999817 1200.000122
endloop
endfacet
facet normal 1.000000 0.000000 0.000000
outer loop
vertex 473.663574 -601.802856 800.000122
vertex 473.663574 -499.999817 1200.000122
vertex 473.663574 -601.802795 1200.000122
endloop
endfacet
facet normal 0.000000 -1.000000 0.000000
outer loop
vertex -998.719299 -149.307083 800.000000
vertex -500.000000 -149.307083 800.000000
vertex -500.000000 -149.307022 1200.000000
endloop
endfacet
facet normal 0.000000 -1.000000 0.000000
outer loop
vertex -998.719299 -149.307083 800.000000
vertex -500.000000 -149.307022 1200.000000
vertex -998.719299 -149.307022 1200.000000
endloop
endfacet
facet normal 0.000000 -1.000000 0.000000
outer loop
vertex -500.000000 -499.999878 800.000061
vertex -473.663483 -499.999878 800.000061
vertex -473.663483 -499.999817 1200.000122
endloop
endfacet
facet normal 0.000000 -1.000000 0.000000
outer loop
vertex -500.000000 -499.999878 800.000061
vertex -473.663483 -499.999817 1200.000122
vertex -500.000000 -499.999817 1200.000122
endloop
endfacet
facet normal -1.000000 0.000000 0.000000
outer loop
vertex -500.000000 500.000122 799.999939
vertex -500.000000 434.335693 799.999939
vertex -500.000000 434.335754 1199.999878
endloop
endfacet
facet normal -1.000000 0.000000 0.000000
outer loop
vertex -500.000000 500.000122 799.999939
vertex -500.000000 434.335754 1199.999878
vertex -500.000000 500.000183 1199.999878
endloop
endfacet
facet normal 0.000000 -1.000000 0.000000
outer loop
vertex 473.663574 -499.999878 800.000061
vertex 500.000000 -499.999878 800.000061
vertex 500.000000 -499.999817 1200.000122
endloop
endfacet
facet normal 0.000000 -1.000000 0.000000
outer loop
vertex 473.663574 -499.999878 800.000061
vertex 500.000000 -499.999817 1200.000122
vertex 473.663574 -499.999817 1200.000122
endloop
endfacet
facet normal -1.000000 0.000000 0.000000
outer loop
vertex -500.000000 -149.307083 800.000000
vertex -500.000000 -499.999878 800.000061
vertex -500.000000 -499.999817 1200.000122
endloop
endfacet
facet normal -1.000000 0.000000 0.000000
outer loop
vertex -500.000000 -149.307083 800.000000
vertex -500.000000 -499.999817 1200.000122
vertex -500.000000 -149.307022 1200.000000
endloop
endfacet
facet normal -1.000000 0.000000 0.000000
outer loop
vertex -473.663483 -499.999878 800.000061
vertex -473.663483 -601.802856 800.000122
vertex -473.663483 -601.802795 1200.000122
endloop
endfacet
facet normal -1.000000 0.000000 0.000000
outer loop
vertex -473.663483 -499.999878 800.000061
vertex -473.663483 -601.802795 1200.000122
vertex -473.663483 -499.999817 1200.000122
endloop
endfacet
facet normal -1.000000 0.000000 0.000000
outer loop
vertex -473.663483 -499.999817 1200.000122
vertex -473.663483 -601.802795 1200.000122
vertex -473.663483 -601.802734 1600.000122
endloop
endfacet
facet normal -1.000000 0.000000 0.000000
outer loop
vertex -473.663483 -499.999817 1200.000122
vertex -473.663483 -601.802734 1600.000122
vertex -473.663483 -499.999725 1600.000122
endloop
endfacet
facet normal 0.000000 1.000000 -0.000000
outer loop
vertex -500.000000 434.335754 1199.999878
vertex -998.719299 434.335754 1199.999878
vertex -998.719299 434.335846 1599.999878
endloop
endfacet
facet normal 0.000000 1.000000 -0.000000
outer loop
vertex -500.000000 434.335754 1199.999878
vertex -998.719299 434.335846 1599.999878
vertex -500.000000 434.335846 1599.999878
endloop
endfacet
facet normal 1.000000 0.000000 0.000000
outer loop
vertex 500.000000 -499.999817 1200.000122
vertex 500.000000 500.000183 1199.999878
vertex 500.000000 500.000275 1599.999878
endloop
endfacet
facet normal 1.000000 0.000000 0.000000
outer loop
vertex 500.000000 -499.999817 1200.000122
vertex 500.000000 500.000275 1599.999878
vertex 500.000000 -499.999725 1600.000122
endloop
endfacet
facet normal 0.000000 -1.000000 0.000000
outer loop
vertex -473.663483 -601.802795 1200.000122
vertex 473.663574 -601.802795 1200.000122
vertex 473.663574 -601.802734 1600.000122
endloop
endfacet
facet normal 0.000000 -1.000000 0.000000
outer loop
vertex -473.663483 -601.802795 1200.000122
vertex 473.663574 -601.802734 1600.000122
vertex -473.663483 -601.802734 1600.000122
endloop
endfacet
facet normal -1.000000 0.000000 0.000000
outer loop
vertex -998.719299 434.335754 1199.999878
vertex -998.719299 -149.307022 1200.000000
vertex -998.719299 -149.306961 1600.000000
endloop
endfacet
facet normal -1.000000 0.000000 0.000000
outer loop
vertex -998.719299 434.335754 1199.999878
vertex -998.719299 -149.306961 1600.000000
vertex -998.719299 434.335846 1599.999878
endloop
endfacet
facet normal 0.000000 1.000000 -0.000000
outer loop
vertex 500.000000 500.000183 1199.999878
vertex -500.000000 500.000183 1199.999878
vertex -500.000000 500.000275 1599.999878
endloop
endfacet
facet normal 0.000000 1.000000 -0.000000
outer loop
vertex 500.000000 500.000183 1199.999878
vertex -500.000000 500.000275 1599.999878
vertex 500.000000 500.000275 1599.999878
endloop
endfacet
facet normal 1.000000 0.000000 0.000000
outer loop
vertex 473.663574 -601.802795 1200.000122
vertex 473.663574 -499.999817 1200.000122
vertex 473.663574 -499.999725 1600.000122
endloop
endfacet
facet normal 1.000000 0.000000 0.000000
outer loop
vertex 473.663574 -601.802795 1200.000122
vertex 473.663574 -499.999725 1600.000122
vertex 473.663574 -601.802734 1600.000122
endloop
endfacet
facet normal 0.000000 -1.000000 0.000000
outer loop
vertex -998.719299 -149.307022 1200.000000
vertex -500.000000 -149.307022 1200.000000
vertex -500.000000 -149.306961 1600.000000
endloop
endfacet
facet normal 0.000000 -1.000000 0.000000
outer loop
vertex -998.719299 -149.307022 1200.000000
vertex -500.000000 -149.306961 1600.000000
vertex -998.719299 -149.306961 1600.000000
endloop
endfacet
facet normal 0.000000 -1.000000 0.000000
outer loop
vertex -500.000000 -499.999817 1200.000122
vertex -473.663483 -499.999817 1200.000122
vertex -473.663483 -499.999725 1600.000122
endloop
endfacet
facet normal 0.000000 -1.000000 0.000000
outer loop
vertex -500.000000 -499.999817 1200.000122
vertex -473.663483 -499.999725 1600.000122
vertex -500.000000 -499.999725 1600.000122
endloop
endfacet
facet normal -1.000000 0.000000 0.000000
outer loop
vertex -500.000000 500.000183 1199.999878
vertex -500.000000 434.335754 1199.999878
vertex -500.000000 434.335846 1599.999878
endloop
endfacet
facet normal -1.000000 0.000000 0.000000
outer loop
vertex -500.000000 500.000183 1199.999878
vertex -500.000000 434.335846 1599.999878
vertex -500.000000 500.000275 1599.999878
endloop
endfacet
facet normal 0.000000 -1.000000 0.000000
outer loop
vertex 473.663574 -499.999817 1200.000122
vertex 500.000000 -499.999817 1200.000122
vertex 500.000000 -499.999725 1600.000122
endloop
endfacet
facet normal 0.000000 -1.000000 0.000000
outer loop
vertex 473.663574 -499.999817 1200.000122
vertex 500.000000 -499.999725 1600.000122
vertex 473.663574 -499.999725 1600.000122
endloop
endfacet
facet normal -1.000000 0.000000 0.000000
outer loop
vertex -500.000000 -149.307022 1200.000000
vertex -500.000000 -499.999817 1200.000122
vertex -500.000000 -499.999725 1600.000122
endloop
endfacet
facet normal -1.000000 0.000000 0.000000
outer loop
vertex -500.000000 -149.307022 1200.000000
vertex -500.000000 -499.999725 1600.000122
vertex -500.000000 -149.306961 1600.000000
endloop
endfacet
facet normal -1.000000 0.000000 0.000000
outer loop
vertex -500.000000 -149.306961 1600.000000
vertex -500.000000 -499.999725 1600.000122
vertex -500.000000 -499.999664 2000.000122
endloop
endfacet
facet normal -1.000000 0.000000 0.000000
outer loop
vertex -500.000000 -149.306961 1600.000000
vertex -500.000000 -499.999664 2000.000122
vertex -500.000000 -149.306900 2000.000000
endloop
endfacet
facet normal -1.000000 0.000000 0.000000
outer loop
vertex -473.663483 -499.999725 1600.000122
vertex -473.663483 -601.802734 1600.000122
vertex -473.663483 -601.802673 2000.000122
endloop
endfacet
facet normal -1.000000 0.000000 0.000000
outer loop
vertex -473.663483 -499.999725 1600.000122
vertex -473.663483 -601.802673 2000.000122
vertex -473.663483 -499.999664 2000.000122
endloop
endfacet
facet normal 0.000000 1.000000 -0.000000
outer loop
vertex -500.000000 434.335846 1599.999878
vertex -998.719299 434.335846 1599.999878
vertex -998.719299 434.335907 1999.999878
endloop
endfacet
facet normal 0.000000 1.000000 -0.000000
outer loop
vertex -500.000000 434.335846 1599.999878
vertex -998.719299 434.335907 1999.999878
vertex -500.000000 434.335907 1999.999878
endloop
endfacet
facet normal 1.000000 0.000000 0.000000
outer loop
vertex 500.000000 -499.999725 1600.000122
vertex 500.000000 500.000275 1599.999878
vertex 500.000000 500.000336 1999.999878
endloop
endfacet
facet normal 1.000000 0.000000 0.000000
outer loop
vertex 500.000000 -499.999725 1600.000122
vertex 500.000000 500.000336 1999.999878
vertex 500.000000 -499.999664 2000.000122
endloop
endfacet
facet normal 0.000000 -1.000000 0.000000
outer loop
vertex -473.663483 -601.802734 1600.000122
vertex 473.663574 -601.802734 1600.000122
vertex 473.663574 -601.802673 2000.000122
endloop
endfacet
facet normal 0.000000 -1.000000 0.000000
outer loop
vertex -473.663483 -601.802734 1600.000122
vertex 473.663574 -601.802673 2000.000122
vertex -473.663483 -601.802673 2000.000122
endloop
endfacet
facet normal -1.000000 0.000000 0.000000
outer loop
vertex -998.719299 434.335846 1599.999878
vertex -998.719299 -149.306961 1600.000000
vertex -998.719299 -149.306900 2000.000000
endloop
endfacet
facet normal -1.000000 0.000000 0.000000
outer loop
vertex -998.719299 434.335846 1599.999878
vertex -998.719299 -149.306900 2000.000000
vertex -998.719299 434.335907 1999.999878
endloop
endfacet
facet normal 0.000000 1.000000 -0.000000
outer loop
vertex 500.000000 500.000275 1599.999878
vertex -500.000000 500.000275 1599.999878
vertex -500.000000 500.000336 1999.999878
endloop
endfacet
facet normal 0.000000 1.000000 -0.000000
outer loop
vertex 500.000000 500.000275 1599.999878
vertex -500.000000 500.000336 1999.999878
vertex 500.000000 500.000336 1999.999878
endloop
endfacet
facet normal 1.000000 0.000000 0.000000
outer loop
vertex 473.663574 -601.802734 1600.000122
vertex 473.663574 -499.999725 1600.000122
vertex 473.663574 -499.999664 2000.000122
endloop
endfacet
facet normal 1.000000 0.000000 0.000000
outer loop
vertex 473.663574 -601.802734 1600.000122
vertex 473.663574 -499.999664 2000.000122
vertex 473.663574 -601.802673 2000.000122
endloop
endfacet
facet normal 0.000000 -1.000000 0.000000
outer loop
vertex -998.719299 -149.306961 1600.000000
vertex -500.000000 -149.306961 1600.000000
vertex -500.000000 -149.306900 2000.000000
endloop
endfacet
facet normal 0.000000 -1.000000 0.000000
outer loop
vertex -998.719299 -149.306961 1600.000000
vertex -500.000000 -149.306900 2000.000000
vertex -998.719299 -149.306900 2000.000000
endloop
endfacet
facet normal 0.000000 -1.000000 0.000000
outer loop
vertex -500.000000 -499.999725 1600.000122
vertex -473.663483 -499.999725 1600.000122
vertex -473.663483 -499.999664 2000.000122
endloop
endfacet
facet normal 0.000000 -1.000000 0.000000
outer loop
vertex -500.000000 -499.999725 1600.000122
vertex -473.663483 -499.999664 2000.000122
vertex -500.000000 -499.999664 2000.000122
endloop
endfacet
facet normal -1.000000 0.000000 0.000000
outer loop
vertex -500.000000 500.000275 1599.999878
vertex -500.000000 434.335846 1599.999878
vertex -500.000000 434.335907 1999.999878
endloop
endfacet
facet normal -1.000000 0.000000 0.000000
outer loop
vertex -500.000000 500.000275 1599.999878
vertex -500.000000 434.335907 1999.999878
vertex -500.000000 500.000336 1999.999878
endloop
endfacet
facet normal 0.000000 -1.000000 0.000000
outer loop
vertex 473.663574 -499.999725 1600.000122
vertex 500.000000 -499.999725 1600.000122
vertex 500.000000 -499.999664 2000.000122
endloop
endfacet
facet normal 0.000000 -1.000000 0.000000
outer loop
vertex 473.663574 -499.999725 1600.000122
vertex 500.000000 -499.999664 2000.000122
vertex 473.663574 -499.999664 2000.000122
endloop
endfacet
facet normal 0.000000 -1.000000 0.000000
outer loop
vertex 473.663574 -499.999664 2000.000122
vertex 500.000000 -499.999664 2000.000122
vertex 500.000000 -499.999603 2400.000000
endloop
endfacet
facet normal 0.000000 -1.000000 0.000000
outer loop
vertex 473.663574 -499.999664 2000.000122
vertex 500.000000 -499.999603 2400.000000
vertex 473.663574 -499.999603 2400.000000
endloop
endfacet
facet normal -1.000000 0.000000 0.000000
outer loop
vertex -500.000000 -149.306900 2000.000000
vertex -500.000000 -499.999664 2000.000122
vertex -500.000000 -499.999603 2400.000000
endloop
endfacet
facet normal -1.000000 0.000000 0.000000
outer loop
vertex -500.000000 -149.306900 2000.000000
vertex -500.000000 -499.999603 2400.000000
vertex -500.000000 -149.306824 2400.000000
endloop
endfacet
facet normal -1.000000 0.000000 0.000000
outer loop
vertex -473.663483 -499.999664 2000.000122
vertex -473.663483 -601.802673 2000.000122
vertex -473.663483 -601.802612 2400.000000
endloop
endfacet
facet normal -1.000000 0.000000 0.000000
outer loop
vertex -473.663483 -499.999664 2000.000122
vertex -473.663483 -601.802612 2400.000000
vertex -473.663483 -499.999603 2400.000000
endloop
endfacet
facet normal 0.000000 1.000000 -0.000000
outer loop
vertex -500.000000 434.335907 1999.999878
vertex -998.719299 434.335907 1999.999878
vertex -998.719299 434.335968 2400.000000
endloop
endfacet
facet normal 0.000000 1.000000 -0.000000
outer loop
vertex -500.000000 434.335907 1999.999878
vertex -998.719299 434.335968 2400.000000
vertex -500.000000 434.335968 2400.000000
endloop
endfacet
facet normal 1.000000 0.000000 0.000000
outer loop
vertex 500.000000 -499.999664 2000.000122
vertex 500.000000 500.000336 1999.999878
vertex 500.000000 500.000397 2400.000000
endloop
endfacet
facet normal 1.000000 0.000000 0.000000
outer loop
vertex 500.000000 -499.999664 2000.000122
vertex 500.000000 500.000397 2400.000000
vertex 500.000000 -499.999603 2400.000000
endloop
endfacet
facet normal 0.000000 -1.000000 0.000000
outer loop
vertex -473.663483 -601.802673 2000.000122
vertex 473.663574 -601.802673 2000.000122
vertex 473.663574 -601.802612 2400.000000
endloop
endfacet
facet normal 0.000000 -1.000000 0.000000
outer loop
vertex -473.663483 -601.802673 2000.000122
vertex 473.663574 -601.802612 2400.000000
vertex -473.663483 -601.802612 2400.000000
endloop
endfacet
facet normal -1.000000 0.000000 0.000000
outer loop
vertex -998.719299 434.335907 1999.999878
vertex -998.719299 -149.306900 2000.000000
vertex -998.719299 -149.306824 2400.000000
endloop
endfacet
facet normal -1.000000 0.000000 0.000000
outer loop
vertex -998.719299 434.335907 1999.999878
vertex -998.719299 -149.306824 2400.000000
vertex -998.719299 434.335968 2400.000000
endloop
endfacet
facet normal 0.000000 1.000000 -0.000000
outer loop
vertex 500.000000 500.000336 1999.999878
vertex -500.000000 500.000336 1999.999878
vertex -500.000000 500.000397 2400.000000
endloop
endfacet
facet normal 0.000000 1.000000 -0.000000
outer loop
vertex 500.000000 500.000336 1999.999878
vertex -500.000000 500.000397 2400.000000
vertex 500.000000 500.000397 2400.000000
endloop
endfacet
facet normal 1.000000 0.000000 0.000000
outer loop
vertex 473.663574 -601.802673 2000.000122
vertex 473.663574 -499.999664 2000.000122
vertex 473.663574 -499.999603 2400.000000
endloop
endfacet
facet normal 1.000000 0.000000 0.000000
outer loop
vertex 473.663574 -601.802673 2000.000122
vertex 473.663574 -499.999603 2400.000000
vertex 473.663574 -601.802612 2400.000000
endloop
endfacet
facet normal 0.000000 -1.000000 0.000000
outer loop
vertex -998.719299 -149.306900 2000.000000
vertex -500.000000 -149.306900 2000.000000
vertex -500.000000 -149.306824 2400.000000
endloop
endfacet
facet normal 0.000000 -1.000000 0.000000
outer loop
vertex -998.719299 -149.306900 2000.000000
vertex -500.000000 -149.306824 2400.000000
vertex -998.719299 -149.306824 2400.000000
endloop
endfacet
facet normal 0.000000 -1.000000 0.000000
outer loop
vertex -500.000000 -499.999664 2000.000122
vertex -473.663483 -499.999664 2000.000122
vertex -473.663483 -499.999603 2400.000000
endloop
endfacet
facet normal 0.000000 -1.000000 0.000000
outer loop
vertex -500.000000 -499.999664 2000.000122
vertex -473.663483 -499.999603 2400.000000
vertex -500.000000 -499.999603 2400.000000
endloop
endfacet
facet normal -1.000000 0.000000 0.000000
outer loop
vertex -500.000000 500.000336 1999.999878
vertex -500.000000 434.335907 1999.999878
vertex -500.000000 434.335968 2400.000000
endloop
endfacet
facet normal -1.000000 0.000000 0.000000
outer loop
vertex -500.000000 500.000336 1999.999878
vertex -500.000000 434.335968 2400.000000
vertex -500.000000 500.000397 2400.000000
endloop
endfacet
endsolid building_014
