solid building_011
facet normal -1.000000 0.000001 0.000000
outer loop
vertex -425.000000 -471.830780 0.000077
vertex -425.000000 -600.000000 0.000098
vertex -425.000000 -599.999939 400.000092
endloop
endfacet
facet normal -1.000000 0.000000 0.000000
outer loop
vertex -425.000000 -471.830780 0.000077
vertex -425.000000 -599.999939 400.000092
vertex -425.000000 -471.830719 400.000092
endloop
endfacet
facet normal 0.000000 -1.000000 0.000000
outer loop
vertex -959.971558 -471.830780 0.000077
vertex -425.000000 -471.830780 0.000077
vertex -425.000000 -471.830719 400.000092
endloop
endfacet
facet normal 0.000000 -1.000000 0.000000
outer loop
vertex -959.971558 -471.830780 0.000077
vertex -425.000000 -471.830719 400.000092
vertex -959.971558 -471.830719 400.000092
endloop
endfacet
facet normal 0.000000 0.000000 1.000000
outer loop
vertex -425.000000 -471.830505 1600.000122
vertex -425.000000 -599.999756 1600.000122
vertex 425.000000 -599.999756 1600.000122
endloop
endfacet
facet normal 0.000000 0.000000 1.000000
outer loop
vertex 425.000000 -376.652069 1600.000122
vertex 792.671753 -376.652069 1600.000122
vertex 792.671753 376.652679 1599.999878
endloop
endfacet
facet normal 0.000000 0.000000 1.000000
outer loop
vertex -425.000000 -471.830505 1600.000122
vertex 425.000000 -599.999756 1600.000122
vertex 425.000000 -376.652069 1600.000122
endloop
endfacet
facet normal 0.000000 0.000000 1.000000
outer loop
vertex -959.971558 471.831055 1599.999878
vertex -959.971558 -471.830505 1600.000122
vertex -425.000000 -471.830505 1600.000122
endloop
endfacet
facet normal 0.000000 0.000000 1.000000
outer loop
vertex 425.000000 600.000244 1599.999878
vertex -425.000000 600.000244 1599.999878
vertex -425.000000 471.831055 1599.999878
endloop
endfacet
facet normal 0.000000 0.000000 1.000000
outer loop
vertex -425.000000 471.831055 1599.999878
vertex -959.971558 471.831055 1599.999878
vertex -425.000000 -471.830505 1600.000122
endloop
endfacet
facet normal -0.000000 0.000000 1.000000
outer loop
vertex -425.000000 -471.830505 1600.000122
vertex 425.000000 -376.652069 1600.000122
vertex 792.671753 376.652679 1599.999878
endloop
endfacet
facet normal 0.000000 0.000000 1.000000
outer loop
vertex 425.000000 376.652679 1599.999878
vertex 425.000000 600.000244 1599.999878
vertex -425.000000 471.831055 1599.999878
endloop
endfacet
facet normal 0.000000 0.000000 1.000000
outer loop
vertex -425.000000 -471.830505 1600.000122
vertex 792.671753 376.652679 1599.999878
vertex 425.000000 376.652679 1599.999878
endloop
endfacet
facet normal 0.000000 0.000000 1.000000
outer loop
vertex 425.000000 376.652679 1599.999878
vertex -425.000000 471.831055 1599.999878
vertex -425.000000 -471.830505 1600.000122
endloop
endfacet
facet normal -1.000000 0.000001 0.000000
outer loop
vertex -425.000000 600.000000 -0.000098
vertex -425.000000 471.830780 -0.000077
vertex -425.000000 471.830841 399.999908
endloop
endfacet
facet normal -1.000000 0.000000 0.000000
outer loop
vertex -425.000000 600.000000 -0.000098
vertex -425.000000 471.830841 399.999908
vertex -425.000000 600.000061 399.999908
endloop
endfacet
facet normal 1.000000 0.000000 0.000000
outer loop
vertex 792.671753 -376.652344 0.000061
vertex 792.671753 376.652405 -0.000061
vertex 792.671753 376.652466 399.999939
endloop
endfacet
facet normal 1.000000 -0.000000 0.000000
outer loop
vertex 792.671753 -376.652344 0.000061
vertex 792.671753 376.652466 399.999939
vertex 792.671753 -376.652283 400.000061
endloop
endfacet
facet normal 0.000000 -1.000000 0.000000
outer loop
vertex -425.000000 -600.000000 0.000098
vertex 425.000000 -600.000000 0.000098
vertex 425.000000 -599.999939 400.000092
endloop
endfacet
facet normal 0.000000 -1.000000 0.000000
outer loop
vertex -425.000000 -600.000000 0.000098
vertex 425.000000 -599.999939 400.000092
vertex -425.000000 -599.999939 400.000092
endloop
endfacet
facet normal 0.000000 1.000000 -0.000000
outer loop
vertex -425.000000 471.830780 -0.000077
vertex -959.971558 471.830780 -0.000077
vertex -959.971558 471.830841 399.999908
endloop
endfacet
facet normal 0.000000 1.000000 -0.000000
outer loop
vertex -425.000000 471.830780 -0.000077
vertex -959.971558 471.830841 399.999908
vertex -425.000000 471.830841 399.999908
endloop
endfacet
facet normal 0.000000 1.000000 -0.000000
outer loop
vertex 792.671753 376.652405 -0.000061
vertex 425.000000 376.652405 -0.000061
vertex 425.000000 376.652466 399.999939
endloop
endfacet
facet normal 0.000000 1.000000 0.000000
outer loop
vertex 792.671753 376.652405 -0.000061
vertex 425.000000 376.652466 399.999939
vertex 792.671753 376.652466 399.999939
endloop
endfacet
facet normal 1.000000 0.000000 0.000000
outer loop
vertex 425.000000 376.652405 -0.000061
vertex 425.000000 600.000000 -0.000098
vertex 425.000000 600.000061 399.999908
endloop
endfacet
facet normal 1.000000 0.000000 0.000000
outer loop
vertex 425.000000 376.652405 -0.000061
vertex 425.000000 600.000061 399.999908
vertex 425.000000 376.652466 399.999939
endloop
endfacet
facet normal 1.000000 0.000000 0.000000
outer loop
vertex 425.000000 -600.000000 0.000098
vertex 425.000000 -376.652344 0.000061
vertex 425.000000 -376.652283 400.000061
endloop
endfacet
facet normal 1.000000 0.000000 0.000000
outer loop
vertex 425.000000 -600.000000 0.000098
vertex 425.000000 -376.652283 400.000061
vertex 425.000000 -599.999939 400.000092
endloop
endfacet
facet normal -1.000000 -0.000000 0.000000
outer loop
vertex -959.971558 471.830780 -0.000077
vertex -959.971558 -471.830780 0.000077
vertex -959.971558 -471.830719 400.000092
endloop
endfacet
facet normal -1.000000 0.000000 0.000000
outer loop
vertex -959.971558 471.830780 -0.000077
vertex -959.971558 -471.830719 400.000092
vertex -959.971558 471.830841 399.999908
endloop
endfacet
facet normal 0.000000 -1.000000 0.000000
outer loop
vertex 425.000000 -376.652344 0.000061
vertex 792.671753 -376.652344 0.000061
vertex 792.671753 -376.652283 400.000061
endloop
endfacet
facet normal 0.000000 -1.000000 0.000000
outer loop
vertex 425.000000 -376.652344 0.000061
vertex 792.671753 -376.652283 400.000061
vertex 425.000000 -376.652283 400.000061
endloop
endfacet
facet normal 0.000000 1.000000 0.000000
outer loop
vertex 425.000000 600.000000 -0.000098
vertex -425.000000 600.000000 -0.000098
vertex -425.000000 600.000061 399.999908
endloop
endfacet
facet normal 0.000000 1.000000 -0.000000
outer loop
vertex 425.000000 600.000000 -0.000098
vertex -425.000000 600.000061 399.999908
vertex 425.000000 600.000061 399.999908
endloop
endfacet
facet normal 1.000000 0.000000 0.000000
outer loop
vertex 425.000000 -599.999939 400.000092
vertex 425.000000 -376.652283 400.000061
vertex 425.000000 -376.652222 800.000061
endloop
endfacet
facet normal 1.000000 0.000000 0.000000
outer loop
vertex 425.000000 -599.999939 400.000092
vertex 425.000000 -376.652222 800.000061
vertex 425.000000 -599.999878 800.000122
endloop
endfacet
facet normal 1.000000 0.000000 0.000000
outer loop
vertex 425.000000 376.652466 399.999939
vertex 425.000000 600.000061 399.999908
vertex 425.000000 600.000122 799.999878
endloop
endfacet
facet normal 1.000000 0.000000 0.000000
outer loop
vertex 425.000000 376.652466 399.999939
vertex 425.000000 600.000122 799.999878
vertex 425.000000 376.652527 799.999939
endloop
endfacet
facet normal 0.000000 -1.000000 0.000000
outer loop
vertex 425.000000 -376.652283 400.000061
vertex 792.671753 -376.652283 400.000061
vertex 792.671753 -376.652222 800.000061
endloop
endfacet
facet normal 0.000000 -1.000000 0.000000
outer loop
vertex 425.000000 -376.652283 400.000061
vertex 792.671753 -376.652222 800.000061
vertex 425.000000 -376.652222 800.000061
endloop
endfacet
facet normal -1.000000 0.000000 0.000000
outer loop
vertex -959.971558 471.830841 399.999908
vertex -959.971558 -471.830719 400.000092
vertex -959.971558 -471.830658 800.000061
endloop
endfacet
facet normal -1.000000 0.000000 0.000000
outer loop
vertex -959.971558 471.830841 399.999908
vertex -959.971558 -471.830658 800.000061
vertex -959.971558 471.830902 799.999939
endloop
endfacet
facet normal 0.000000 1.000000 -0.000000
outer loop
vertex 425.000000 600.000061 399.999908
vertex -425.000000 600.000061 399.999908
vertex -425.000000 600.000122 799.999878
endloop
endfacet
facet normal 0.000000 1.000000 0.000000
outer loop
vertex 425.000000 600.000061 399.999908
vertex -425.000000 600.000122 799.999878
vertex 425.000000 600.000122 799.999878
endloop
endfacet
facet normal 1.000000 0.000000 0.000000
outer loop
vertex 792.671753 -376.652283 400.000061
vertex 792.671753 376.652466 399.999939
vertex 792.671753 376.652527 799.999939
endloop
endfacet
facet normal 1.000000 -0.000000 0.000000
outer loop
vertex 792.671753 -376.652283 400.000061
vertex 792.671753 376.652527 799.999939
vertex 792.671753 -376.652222 800.000061
endloop
endfacet
facet normal 0.000000 -1.000000 0.000000
outer loop
vertex -959.971558 -471.830719 400.000092
vertex -425.000000 -471.830719 400.000092
vertex -425.000000 -471.830658 800.000061
endloop
endfacet
facet normal 0.000000 -1.000000 0.000000
outer loop
vertex -959.971558 -471.830719 400.000092
vertex -425.000000 -471.830658 800.000061
vertex -959.971558 -471.830658 800.000061
endloop
endfacet
facet normal 0.000000 -1.000000 0.000000
outer loop
vertex -425.000000 -599.999939 400.000092
vertex 425.000000 -599.999939 400.000092
vertex 425.000000 -599.999878 800.000122
endloop
endfacet
facet normal 0.000000 -1.000000 0.000000
outer loop
vertex -425.000000 -599.999939 400.000092
vertex 425.000000 -599.999878 800.000122
vertex -425.000000 -599.999878 800.000122
endloop
endfacet
facet normal -1.000000 0.000000 0.000000
outer loop
vertex -425.000000 600.000061 399.999908
vertex -425.000000 471.830841 399.999908
vertex -425.000000 471.830902 799.999939
endloop
endfacet
facet normal -1.000000 0.000000 0.000000
outer loop
vertex -425.000000 600.000061 399.999908
vertex -425.000000 471.830902 799.999939
vertex -425.000000 600.000122 799.999878
endloop
endfacet
facet normal 0.000000 1.000000 -0.000000
outer loop
vertex 792.671753 376.652466 399.999939
vertex 425.000000 376.652466 399.999939
vertex 425.000000 376.652527 799.999939
endloop
endfacet
facet normal 0.000000 1.000000 -0.000000
outer loop
vertex 792.671753 376.652466 399.999939
vertex 425.000000 376.652527 799.999939
vertex 792.671753 376.652527 799.999939
endloop
endfacet
facet normal -1.000000 0.000000 0.000000
outer loop
vertex -425.000000 -471.830719 400.000092
vertex -425.000000 -599.999939 400.000092
vertex -425.000000 -599.999878 800.000122
endloop
endfacet
facet normal -1.000000 0.000000 0.000000
outer loop
vertex -425.000000 -471.830719 400.000092
vertex -425.000000 -599.999878 800.000122
vertex -425.000000 -471.830658 800.000061
endloop
endfacet
facet normal 0.000000 1.000000 -0.000000
outer loop
vertex -425.000000 471.830841 399.999908
vertex -959.971558 471.830841 399.999908
vertex -959.971558 471.830902 799.999939
endloop
endfacet
facet normal 0.000000 1.000000 -0.000000
outer loop
vertex -425.000000 471.830841 399.999908
vertex -959.971558 471.830902 799.999939
vertex -425.000000 471.830902 799.999939
endloop
endfacet
facet normal 0.000000 1.000000 -0.000000
outer loop
vertex -425.000000 471.830902 799.999939
vertex -959.971558 471.830902 799.999939
vertex -959.971558 471.830963 1199.999878
endloop
endfacet
facet normal 0.000000 1.000000 -0.000000
outer loop
vertex -425.000000 471.830902 799.999939
vertex -959.971558 471.830963 1199.999878
vertex -425.000000 471.830963 1199.999878
endloop
endfacet
facet normal 1.000000 0.000000 0.000000
outer loop
vertex 425.000000 376.652527 799.999939
vertex 425.000000 600.000122 799.999878
vertex 425.000000 600.000183 1199.999878
endloop
endfacet
facet normal 1.000000 0.000000 0.000000
outer loop
vertex 425.000000 376.652527 799.999939
vertex 425.000000 600.000183 1199.999878
vertex 425.000000 376.652588 1199.999878
endloop
endfacet
facet normal 0.000000 -1.000000 0.000000
outer loop
vertex 425.000000 -376.652222 800.000061
vertex 792.671753 -376.652222 800.000061
vertex 792.671753 -376.652161 1200.000122
endloop
endfacet
facet normal 0.000000 -1.000000 0.000000
outer loop
vertex 425.000000 -376.652222 800.000061
vertex 792.671753 -376.652161 1200.000122
vertex 425.000000 -376.652161 1200.000122
endloop
endfacet
facet normal -1.000000 0.000000 0.000000
outer loop
vertex -959.971558 471.830902 799.999939
vertex -959.971558 -471.830658 800.000061
vertex -959.971558 -471.830597 1200.000122
endloop
endfacet
facet normal -1.000000 0.000000 0.000000
outer loop
vertex -959.971558 471.830902 799.999939
vertex -959.971558 -471.830597 1200.000122
vertex -959.971558 471.830963 1199.999878
endloop
endfacet
facet normal 0.000000 1.000000 0.000000
outer loop
vertex 425.000000 600.000122 799.999878
vertex -425.000000 600.000122 799.999878
vertex -425.000000 600.000183 1199.999878
endloop
endfacet
facet normal 0.000000 1.000000 -0.000000
outer loop
vertex 425.000000 600.000122 799.999878
vertex -425.000000 600.000183 1199.999878
vertex 425.000000 600.000183 1199.999878
endloop
endfacet
facet normal 1.000000 0.000000 0.000000
outer loop
vertex 792.671753 -376.652222 800.000061
vertex 792.671753 376.652527 799.999939
vertex 792.671753 376.652588 1199.999878
endloop
endfacet
facet normal 1.000000 -0.000000 0.000000
outer loop
vertex 792.671753 -376.652222 800.000061
vertex 792.671753 376.652588 1199.999878
vertex 792.671753 -376.652161 1200.000122
endloop
endfacet
facet normal 0.000000 -1.000000 0.000000
outer loop
vertex -959.971558 -471.830658 800.000061
vertex -425.000000 -471.830658 800.000061
vertex -425.000000 -471.830597 1200.000122
endloop
endfacet
facet normal 0.000000 -1.000000 0.000000
outer loop
vertex -959.971558 -471.830658 800.000061
vertex -425.000000 -471.830597 1200.000122
vertex -959.971558 -471.830597 1200.000122
endloop
endfacet
facet normal 0.000000 -1.000000 0.000000
outer loop
vertex -425.000000 -599.999878 800.000122
vertex 425.000000 -599.999878 800.000122
vertex 425.000000 -599.999817 1200.000122
endloop
endfacet
facet normal 0.000000 -1.000000 0.000000
outer loop
vertex -425.000000 -599.999878 800.000122
vertex 425.000000 -599.999817 1200.000122
vertex -425.000000 -599.999817 1200.000122
endloop
endfacet
facet normal -1.000000 0.000000 0.000000
outer loop
vertex -425.000000 600.000122 799.999878
vertex -425.000000 471.830902 799.999939
vertex -425.000000 471.830963 1199.999878
endloop
endfacet
facet normal -1.000000 0.000000 0.000000
outer loop
vertex -425.000000 600.000122 799.999878
vertex -425.000000 471.830963 1199.999878
vertex -425.000000 600.000183 1199.999878
endloop
endfacet
facet normal 0.000000 1.000000 0.000000
outer loop
vertex 792.671753 376.652527 799.999939
vertex 425.000000 376.652527 799.999939
vertex 425.000000 376.652588 1199.999878
endloop
endfacet
facet normal 0.000000 1.000000 -0.000000
outer loop
vertex 792.671753 376.652527 799.999939
vertex 425.000000 376.652588 1199.999878
vertex 792.671753 376.652588 1199.999878
endloop
endfacet
facet normal -1.000000 0.000000 0.000000
outer loop
vertex -425.000000 -471.830658 800.000061
vertex -425.000000 -599.999878 800.000122
vertex -425.000000 -599.999817 1200.000122
endloop
endfacet
facet normal -1.000000 0.000000 0.000000
outer loop
vertex -425.000000 -471.830658 800.000061
vertex -425.000000 -599.999817 1200.000122
vertex -425.000000 -471.830597 1200.000122
endloop
endfacet
facet normal 1.000000 0.000000 0.000000
outer loop
vertex 425.000000 -599.999878 800.000122
vertex 425.000000 -376.652222 800.000061
vertex 425.000000 -376.652161 1200.000122
endloop
endfacet
facet normal 1.000000 0.000000 0.000000
outer loop
vertex 425.000000 -599.999878 800.000122
vertex 425.000000 -376.652161 1200.000122
vertex 425.000000 -599.999817 1200.000122
endloop
endfacet
facet normal 1.000000 0.000000 0.000000
outer loop
vertex 425.000000 -599.999817 1200.000122
vertex 425.000000 -376.652161 1200.000122
vertex 425.000000 -376.652069 1600.000122
endloop
endfacet
facet normal 1.000000 0.000000 0.000000
outer loop
vertex 425.000000 -599.999817 1200.000122
vertex 425.000000 -376.652069 1600.000122
vertex 425.000000 -599.999756 1600.000122
endloop
endfacet
facet normal 0.000000 1.000000 -0.000000
outer loop
vertex -425.000000 471.830963 1199.999878
vertex -959.971558 471.830963 1199.999878
vertex -959.971558 471.831055 1599.999878
endloop
endfacet
facet normal 0.000000 1.000000 -0.000000
outer loop
vertex -425.000000 471.830963 1199.999878
vertex -959.971558 471.831055 1599.999878
vertex -425.000000 471.831055 1599.999878
endloop
endfacet
facet normal 1.000000 0.000000 0.000000
outer loop
vertex 425.000000 376.652588 1199.999878
vertex 425.000000 600.000183 1199.999878
vertex 425.000000 600.000244 1599.999878
endloop
endfacet
facet normal 1.000000 0.000000 0.000000
outer loop
vertex 425.000000 376.652588 1199.999878
vertex 425.000000 600.000244 1599.999878
vertex 425.000000 376.652679 1599.999878
endloop
endfacet
facet normal 0.000000 -1.000000 0.000000
outer loop
vertex 425.000000 -376.652161 1200.000122
vertex 792.671753 -376.652161 1200.000122
vertex 792.671753 -376.652069 1600.000122
endloop
endfacet
facet normal 0.000000 -1.000000 0.000000
outer loop
vertex 425.000000 -376.652161 1200.000122
vertex 792.671753 -376.652069 1600.000122
vertex 425.000000 -376.652069 1600.000122
endloop
endfacet
facet normal -1.000000 0.000000 0.000000
outer loop
vertex -959.971558 471.830963 1199.999878
vertex -959.971558 -471.830597 1200.000122
vertex -959.971558 -471.830505 1600.000122
endloop
endfacet
facet normal -1.000000 -0.000000 0.000000
outer loop
vertex -959.971558 471.830963 1199.999878
vertex -959.971558 -471.830505 1600.000122
vertex -959.971558 471.831055 1599.999878
endloop
endfacet
facet normal 0.000000 1.000000 -0.000000
outer loop
vertex 425.000000 600.000183 1199.999878
vertex -425.000000 600.000183 1199.999878
vertex -425.000000 600.000244 1599.999878
endloop
endfacet
facet normal 0.000000 1.000000 0.000000
outer loop
vertex 425.000000 600.000183 1199.999878
vertex -425.000000 600.000244 1599.999878
vertex 425.000000 600.000244 1599.999878
endloop
endfacet
facet normal 1.000000 0.000000 0.000000
outer loop
vertex 792.671753 -376.652161 1200.000122
vertex 792.671753 376.652588 1199.999878
vertex 792.671753 376.652679 1599.999878
endloop
endfacet
facet normal 1.000000 -0.000000 0.000000
outer loop
vertex 792.671753 -376.652161 1200.000122
vertex 792.671753 376.652679 1599.999878
vertex 792.671753 -376.652069 1600.000122
endloop
endfacet
facet normal 0.000000 -1.000000 0.000000
outer loop
vertex -959.971558 -471.830597 1200.000122
vertex -425.000000 -471.830597 1200.000122
vertex -425.000000 -471.830505 1600.000122
endloop
endfacet
facet normal 0.000000 -1.000000 0.000000
outer loop
vertex -959.971558 -471.830597 1200.000122
vertex -425.000000 -471.830505 1600.000122
vertex -959.971558 -471.830505 1600.000122
endloop
endfacet
facet normal 0.000000 -1.000000 0.000000
outer loop
vertex -425.000000 -599.999817 1200.000122
vertex 425.000000 -599.999817 1200.000122
vertex 425.000000 -599.999756 1600.000122
endloop
endfacet
facet normal 0.000000 -1.000000 0.000000
outer loop
vertex -425.000000 -599.999817 1200.000122
vertex 425.000000 -599.999756 1600.000122
vertex -425.000000 -599.999756 1600.000122
endloop
endfacet
facet normal -1.000000 0.000000 0.000000
outer loop
vertex -425.000000 600.000183 1199.999878
vertex -425.000000 471.830963 1199.999878
vertex -425.000000 471.831055 1599.999878
endloop
endfacet
facet normal -1.000000 0.000000 0.000000
outer loop
vertex -425.000000 600.000183 1199.999878
vertex -425.000000 471.831055 1599.999878
vertex -425.000000 600.000244 1599.999878
endloop
endfacet
facet normal 0.000000 1.000000 -0.000000
outer loop
vertex 792.671753 376.652588 1199.999878
vertex 425.000000 376.652588 1199.999878
vertex 425.000000 376.652679 1599.999878
endloop
endfacet
facet normal 0.000000 1.000000 0.000000
outer loop
vertex 792.671753 376.652588 1199.999878
vertex 425.000000 376.652679 1599.999878
vertex 792.671753 376.652679 1599.999878
endloop
endfacet
facet normal -1.000000 0.000000 0.000000
outer loop
vertex -425.000000 -471.830597 1200.000122
vertex -425.000000 -599.999817 1200.000122
vertex -425.000000 -599.999756 1600.000122
endloop
endfacet
facet normal -1.000000 0.000000 0.000000
outer loop
vertex -425.000000 -471.830597 1200.000122
vertex -425.000000 -599.999756 1600.000122
vertex -425.000000 -471.830505 1600.000122
endloop
endfacet
endsolid building_011
