solid building_008.002
facet normal 0.000000 0.000000 1.000000
outer loop
vertex -500.000000 -322.960266 3150.000000
vertex -500.000000 -499.999481 3150.000000
vertex 500.000000 -499.999481 3150.000000
endloop
endfacet
facet normal 0.000000 0.000000 1.000000
outer loop
vertex 500.000000 -499.999481 3150.000000
vertex 500.000000 500.000519 3150.000000
vertex -500.000000 500.000519 3150.000000
endloop
endfacet
facet normal 0.000000 0.000000 1.000000
outer loop
vertex -500.000000 322.961243 3150.000000
vertex -957.207275 322.961243 3150.000000
vertex -957.207275 -322.960266 3150.000000
endloop
endfacet
facet normal 0.000000 0.000000 1.000000
outer loop
vertex 500.000000 -499.999481 3150.000000
vertex -500.000000 500.000519 3150.000000
vertex -500.000000 322.961243 3150.000000
endloop
endfacet
facet normal 0.000000 0.000000 1.000000
outer loop
vertex -500.000000 322.961243 3150.000000
vertex -957.207275 -322.960266 3150.000000
vertex -500.000000 -322.960266 3150.000000
endloop
endfacet
facet normal 0.000000 0.000000 1.000000
outer loop
vertex 500.000000 -499.999481 3150.000000
vertex -500.000000 322.961243 3150.000000
vertex -500.000000 -322.960266 3150.000000
endloop
endfacet
facet normal -1.000000 0.000000 0.000000
outer loop
vertex -500.000000 500.000000 -0.000081
vertex -500.000000 322.960724 -0.000053
vertex -500.000000 322.960785 449.999939
endloop
endfacet
facet normal -1.000000 0.000000 0.000000
outer loop
vertex -500.000000 500.000000 -0.000081
vertex -500.000000 322.960785 449.999939
vertex -500.000000 500.000061 449.999908
endloop
endfacet
facet normal 1.000000 -0.000000 0.000000
outer loop
vertex 500.000000 -500.000000 0.000081
vertex 500.000000 500.000000 -0.000081
vertex 500.000000 500.000061 449.999908
endloop
endfacet
facet normal 1.000000 0.000000 0.000000
outer loop
vertex 500.000000 -500.000000 0.000081
vertex 500.000000 500.000061 449.999908
vertex 500.000000 -499.999939 450.000092
endloop
endfacet
facet normal -1.000000 0.000000 0.000000
outer loop
vertex -500.000000 -322.960785 0.000053
vertex -500.000000 -500.000000 0.000081
vertex -500.000000 -499.999939 450.000092
endloop
endfacet
facet normal -1.000000 0.000000 0.000000
outer loop
vertex -500.000000 -322.960785 0.000053
vertex -500.000000 -499.999939 450.000092
vertex -500.000000 -322.960724 450.000061
endloop
endfacet
facet normal 0.000000 -1.000000 0.000000
outer loop
vertex -957.207275 -322.960785 0.000053
vertex -500.000000 -322.960785 0.000053
vertex -500.000000 -322.960724 450.000061
endloop
endfacet
facet normal 0.000000 -1.000000 0.000000
outer loop
vertex -957.207275 -322.960785 0.000053
vertex -500.000000 -322.960724 450.000061
vertex -957.207275 -322.960724 450.000061
endloop
endfacet
facet normal 0.000000 1.000000 -0.000000
outer loop
vertex 500.000000 500.000000 -0.000081
vertex -500.000000 500.000000 -0.000081
vertex -500.000000 500.000061 449.999908
endloop
endfacet
facet normal 0.000000 1.000000 -0.000000
outer loop
vertex 500.000000 500.000000 -0.000081
vertex -500.000000 500.000061 449.999908
vertex 500.000000 500.000061 449.999908
endloop
endfacet
facet normal 0.000000 -1.000000 0.000000
outer loop
vertex -500.000000 -500.000000 0.000081
vertex 500.000000 -500.000000 0.000081
vertex 500.000000 -499.999939 450.000092
endloop
endfacet
facet normal 0.000000 -1.000000 0.000000
outer loop
vertex -500.000000 -500.000000 0.000081
vertex 500.000000 -499.999939 450.000092
vertex -500.000000 -499.999939 450.000092
endloop
endfacet
facet normal 0.000000 1.000000 0.000000
outer loop
vertex -500.000000 322.960724 -0.000053
vertex -957.207275 322.960724 -0.000053
vertex -957.207275 322.960785 449.999939
endloop
endfacet
facet normal 0.000000 1.000000 -0.000000
outer loop
vertex -500.000000 322.960724 -0.000053
vertex -957.207275 322.960785 449.999939
vertex -500.000000 322.960785 449.999939
endloop
endfacet
facet normal -1.000000 -0.000000 0.000000
outer loop
vertex -957.207275 322.960724 -0.000053
vertex -957.207275 -322.960785 0.000053
vertex -957.207275 -322.960724 450.000061
endloop
endfacet
facet normal -1.000000 0.000000 0.000000
outer loop
vertex -957.207275 322.960724 -0.000053
vertex -957.207275 -322.960724 450.000061
vertex -957.207275 322.960785 449.999939
endloop
endfacet
facet normal -1.000000 0.000000 0.000000
outer loop
vertex -500.000000 -322.960724 450.000061
vertex -500.000000 -499.999939 450.000092
vertex -500.000000 -499.999847 900.000061
endloop
endfacet
facet normal -1.000000 0.000000 0.000000
outer loop
vertex -500.000000 -322.960724 450.000061
vertex -500.000000 -499.999847 900.000061
vertex -500.000000 -322.960632 900.000061
endloop
endfacet
facet normal -1.000000 0.000000 0.000000
outer loop
vertex -957.207275 322.960785 449.999939
vertex -957.207275 -322.960724 450.000061
vertex -957.207275 -322.960632 900.000061
endloop
endfacet
facet normal -1.000000 0.000000 0.000000
outer loop
vertex -957.207275 322.960785 449.999939
vertex -957.207275 -322.960632 900.000061
vertex -957.207275 322.960876 899.999939
endloop
endfacet
facet normal -1.000000 0.000000 0.000000
outer loop
vertex -500.000000 500.000061 449.999908
vertex -500.000000 322.960785 449.999939
vertex -500.000000 322.960876 899.999939
endloop
endfacet
facet normal -1.000000 0.000000 0.000000
outer loop
vertex -500.000000 500.000061 449.999908
vertex -500.000000 322.960876 899.999939
vertex -500.000000 500.000153 899.999939
endloop
endfacet
facet normal 1.000000 0.000000 0.000000
outer loop
vertex 500.000000 -499.999939 450.000092
vertex 500.000000 500.000061 449.999908
vertex 500.000000 500.000153 899.999939
endloop
endfacet
facet normal 1.000000 0.000000 0.000000
outer loop
vertex 500.000000 -499.999939 450.000092
vertex 500.000000 500.000153 899.999939
vertex 500.000000 -499.999847 900.000061
endloop
endfacet
facet normal 0.000000 -1.000000 0.000000
outer loop
vertex -500.000000 -499.999939 450.000092
vertex 500.000000 -499.999939 450.000092
vertex 500.000000 -499.999847 900.000061
endloop
endfacet
facet normal 0.000000 -1.000000 0.000000
outer loop
vertex -500.000000 -499.999939 450.000092
vertex 500.000000 -499.999847 900.000061
vertex -500.000000 -499.999847 900.000061
endloop
endfacet
facet normal 0.000000 -1.000000 0.000000
outer loop
vertex -957.207275 -322.960724 450.000061
vertex -500.000000 -322.960724 450.000061
vertex -500.000000 -322.960632 900.000061
endloop
endfacet
facet normal 0.000000 -1.000000 0.000000
outer loop
vertex -957.207275 -322.960724 450.000061
vertex -500.000000 -322.960632 900.000061
vertex -957.207275 -322.960632 900.000061
endloop
endfacet
facet normal 0.000000 1.000000 -0.000000
outer loop
vertex -500.000000 322.960785 449.999939
vertex -957.207275 322.960785 449.999939
vertex -957.207275 322.960876 899.999939
endloop
endfacet
facet normal 0.000000 1.000000 -0.000000
outer loop
vertex -500.000000 322.960785 449.999939
vertex -957.207275 322.960876 899.999939
vertex -500.000000 322.960876 899.999939
endloop
endfacet
facet normal 0.000000 1.000000 -0.000000
outer loop
vertex 500.000000 500.000061 449.999908
vertex -500.000000 500.000061 449.999908
vertex -500.000000 500.000153 899.999939
endloop
endfacet
facet normal 0.000000 1.000000 -0.000000
outer loop
vertex 500.000000 500.000061 449.999908
vertex -500.000000 500.000153 899.999939
vertex 500.000000 500.000153 899.999939
endloop
endfacet
facet normal 0.000000 1.000000 -0.000000
outer loop
vertex 500.000000 500.000153 899.999939
vertex -500.000000 500.000153 899.999939
vertex -500.000000 500.000214 1349.999878
endloop
endfacet
facet normal 0.000000 1.000000 -0.000000
outer loop
vertex 500.000000 500.000153 899.999939
vertex -500.000000 500.000214 1349.999878
vertex 500.000000 500.000214 1349.999878
endloop
endfacet
facet normal 0.000000 -1.000000 0.000000
outer loop
vertex -500.000000 -499.999847 900.000061
vertex 500.000000 -499.999847 900.000061
vertex 500.000000 -499.999786 1350.000122
endloop
endfacet
facet normal 0.000000 -1.000000 0.000000
outer loop
vertex -500.000000 -499.999847 900.000061
vertex 500.000000 -499.999786 1350.000122
vertex -500.000000 -499.999786 1350.000122
endloop
endfacet
facet normal -1.000000 0.000000 0.000000
outer loop
vertex -500.000000 -322.960632 900.000061
vertex -500.000000 -499.999847 900.000061
vertex -500.000000 -499.999786 1350.000122
endloop
endfacet
facet normal -1.000000 0.000000 0.000000
outer loop
vertex -500.000000 -322.960632 900.000061
vertex -500.000000 -499.999786 1350.000122
vertex -500.000000 -322.960571 1350.000000
endloop
endfacet
facet normal -1.000000 0.000000 0.000000
outer loop
vertex -957.207275 322.960876 899.999939
vertex -957.207275 -322.960632 900.000061
vertex -957.207275 -322.960571 1350.000000
endloop
endfacet
facet normal -1.000000 0.000000 0.000000
outer loop
vertex -957.207275 322.960876 899.999939
vertex -957.207275 -322.960571 1350.000000
vertex -957.207275 322.960938 1350.000000
endloop
endfacet
facet normal -1.000000 0.000000 0.000000
outer loop
vertex -500.000000 500.000153 899.999939
vertex -500.000000 322.960876 899.999939
vertex -500.000000 322.960938 1350.000000
endloop
endfacet
facet normal -1.000000 0.000000 0.000000
outer loop
vertex -500.000000 500.000153 899.999939
vertex -500.000000 322.960938 1350.000000
vertex -500.000000 500.000214 1349.999878
endloop
endfacet
facet normal 1.000000 0.000000 0.000000
outer loop
vertex 500.000000 -499.999847 900.000061
vertex 500.000000 500.000153 899.999939
vertex 500.000000 500.000214 1349.999878
endloop
endfacet
facet normal 1.000000 0.000000 0.000000
outer loop
vertex 500.000000 -499.999847 900.000061
vertex 500.000000 500.000214 1349.999878
vertex 500.000000 -499.999786 1350.000122
endloop
endfacet
facet normal 0.000000 -1.000000 0.000000
outer loop
vertex -957.207275 -322.960632 900.000061
vertex -500.000000 -322.960632 900.000061
vertex -500.000000 -322.960571 1350.000000
endloop
endfacet
facet normal 0.000000 -1.000000 0.000000
outer loop
vertex -957.207275 -322.960632 900.000061
vertex -500.000000 -322.960571 1350.000000
vertex -957.207275 -322.960571 1350.000000
endloop
endfacet
facet normal 0.000000 1.000000 -0.000000
outer loop
vertex -500.000000 322.960876 899.999939
vertex -957.207275 322.960876 899.999939
vertex -957.207275 322.960938 1350.000000
endloop
endfacet
facet normal 0.000000 1.000000 -0.000000
outer loop
vertex -500.000000 322.960876 899.999939
vertex -957.207275 322.960938 1350.000000
vertex -500.000000 322.960938 1350.000000
endloop
endfacet
facet normal 0.000000 -1.000000 0.000000
outer loop
vertex -957.207275 -322.960571 1350.000000
vertex -500.000000 -322.960571 1350.000000
vertex -500.000000 -322.960480 1800.000000
endloop
endfacet
facet normal 0.000000 -1.000000 0.000000
outer loop
vertex -957.207275 -322.960571 1350.000000
vertex -500.000000 -322.960480 1800.000000
vertex -957.207275 -322.960480 1800.000000
endloop
endfacet
facet normal 0.000000 1.000000 -0.000000
outer loop
vertex -500.000000 322.960938 1350.000000
vertex -957.207275 322.960938 1350.000000
vertex -957.207275 322.961029 1800.000000
endloop
endfacet
facet normal 0.000000 1.000000 0.000000
outer loop
vertex -500.000000 322.960938 1350.000000
vertex -957.207275 322.961029 1800.000000
vertex -500.000000 322.961029 1800.000000
endloop
endfacet
facet normal 0.000000 1.000000 -0.000000
outer loop
vertex 500.000000 500.000214 1349.999878
vertex -500.000000 500.000214 1349.999878
vertex -500.000000 500.000305 1799.999878
endloop
endfacet
facet normal 0.000000 1.000000 -0.000000
outer loop
vertex 500.000000 500.000214 1349.999878
vertex -500.000000 500.000305 1799.999878
vertex 500.000000 500.000305 1799.999878
endloop
endfacet
facet normal 0.000000 -1.000000 0.000000
outer loop
vertex -500.000000 -499.999786 1350.000122
vertex 500.000000 -499.999786 1350.000122
vertex 500.000000 -499.999695 1800.000122
endloop
endfacet
facet normal 0.000000 -1.000000 0.000000
outer loop
vertex -500.000000 -499.999786 1350.000122
vertex 500.000000 -499.999695 1800.000122
vertex -500.000000 -499.999695 1800.000122
endloop
endfacet
facet normal -1.000000 0.000000 0.000000
outer loop
vertex -500.000000 -322.960571 1350.000000
vertex -500.000000 -499.999786 1350.000122
vertex -500.000000 -499.999695 1800.000122
endloop
endfacet
facet normal -1.000000 0.000000 0.000000
outer loop
vertex -500.000000 -322.960571 1350.000000
vertex -500.000000 -499.999695 1800.000122
vertex -500.000000 -322.960480 1800.000000
endloop
endfacet
facet normal -1.000000 0.000000 0.000000
outer loop
vertex -957.207275 322.960938 1350.000000
vertex -957.207275 -322.960571 1350.000000
vertex -957.207275 -322.960480 1800.000000
endloop
endfacet
facet normal -1.000000 0.000000 0.000000
outer loop
vertex -957.207275 322.960938 1350.000000
vertex -957.207275 -322.960480 1800.000000
vertex -957.207275 322.961029 1800.000000
endloop
endfacet
facet normal -1.000000 0.000000 0.000000
outer loop
vertex -500.000000 500.000214 1349.999878
vertex -500.000000 322.960938 1350.000000
vertex -500.000000 322.961029 1800.000000
endloop
endfacet
facet normal -1.000000 0.000000 0.000000
outer loop
vertex -500.000000 500.000214 1349.999878
vertex -500.000000 322.961029 1800.000000
vertex -500.000000 500.000305 1799.999878
endloop
endfacet
facet normal 1.000000 0.000000 0.000000
outer loop
vertex 500.000000 -499.999786 1350.000122
vertex 500.000000 500.000214 1349.999878
vertex 500.000000 500.000305 1799.999878
endloop
endfacet
facet normal 1.000000 0.000000 0.000000
outer loop
vertex 500.000000 -499.999786 1350.000122
vertex 500.000000 500.000305 1799.999878
vertex 500.000000 -499.999695 1800.000122
endloop
endfacet
facet normal -1.000000 0.000000 0.000000
outer loop
vertex -500.000000 500.000305 1799.999878
vertex -500.000000 322.961029 1800.000000
vertex -500.000000 322.961090 2250.000000
endloop
endfacet
facet normal -1.000000 0.000000 0.000000
outer loop
vertex -500.000000 500.000305 1799.999878
vertex -500.000000 322.961090 2250.000000
vertex -500.000000 500.000366 2250.000000
endloop
endfacet
facet normal 1.000000 0.000000 0.000000
outer loop
vertex 500.000000 -499.999695 1800.000122
vertex 500.000000 500.000305 1799.999878
vertex 500.000000 500.000366 2250.000000
endloop
endfacet
facet normal 1.000000 0.000000 0.000000
outer loop
vertex 500.000000 -499.999695 1800.000122
vertex 500.000000 500.000366 2250.000000
vertex 500.000000 -499.999634 2250.000000
endloop
endfacet
facet normal 0.000000 -1.000000 0.000000
outer loop
vertex -957.207275 -322.960480 1800.000000
vertex -500.000000 -322.960480 1800.000000
vertex -500.000000 -322.960419 2250.000000
endloop
endfacet
facet normal 0.000000 -1.000000 0.000000
outer loop
vertex -957.207275 -322.960480 1800.000000
vertex -500.000000 -322.960419 2250.000000
vertex -957.207275 -322.960419 2250.000000
endloop
endfacet
facet normal 0.000000 1.000000 -0.000000
outer loop
vertex -500.000000 322.961029 1800.000000
vertex -957.207275 322.961029 1800.000000
vertex -957.207275 322.961090 2250.000000
endloop
endfacet
facet normal 0.000000 1.000000 -0.000000
outer loop
vertex -500.000000 322.961029 1800.000000
vertex -957.207275 322.961090 2250.000000
vertex -500.000000 322.961090 2250.000000
endloop
endfacet
facet normal 0.000000 1.000000 -0.000000
outer loop
vertex 500.000000 500.000305 1799.999878
vertex -500.000000 500.000305 1799.999878
vertex -500.000000 500.000366 2250.000000
endloop
endfacet
facet normal 0.000000 1.000000 -0.000000
outer loop
vertex 500.000000 500.000305 1799.999878
vertex -500.000000 500.000366 2250.000000
vertex 500.000000 500.000366 2250.000000
endloop
endfacet
facet normal 0.000000 -1.000000 0.000000
outer loop
vertex -500.000000 -499.999695 1800.000122
vertex 500.000000 -499.999695 1800.000122
vertex 500.000000 -499.999634 2250.000000
endloop
endfacet
facet normal 0.000000 -1.000000 0.000000
outer loop
vertex -500.000000 -499.999695 1800.000122
vertex 500.000000 -499.999634 2250.000000
vertex -500.000000 -499.999634 2250.000000
endloop
endfacet
facet normal -1.000000 0.000000 0.000000
outer loop
vertex -500.000000 -322.960480 1800.000000
vertex -500.000000 -499.999695 1800.000122
vertex -500.000000 -499.999634 2250.000000
endloop
endfacet
facet normal -1.000000 0.000000 0.000000
outer loop
vertex -500.000000 -322.960480 1800.000000
vertex -500.000000 -499.999634 2250.000000
vertex -500.000000 -322.960419 2250.000000
endloop
endfacet
facet normal -1.000000 0.000000 0.000000
outer loop
vertex -957.207275 322.961029 1800.000000
vertex -957.207275 -322.960480 1800.000000
vertex -957.207275 -322.960419 2250.000000
endloop
endfacet
facet normal -1.000000 0.000000 0.000000
outer loop
vertex -957.207275 322.961029 1800.000000
vertex -957.207275 -322.960419 2250.000000
vertex -957.207275 322.961090 2250.000000
endloop
endfacet
facet normal -1.000000 0.000000 0.000000
outer loop
vertex -500.000000 -322.960419 2250.000000
vertex -500.000000 -499.999634 2250.000000
vertex -500.000000 -499.999573 2700.000000
endloop
endfacet
facet normal -1.000000 0.000000 0.000000
outer loop
vertex -500.000000 -322.960419 2250.000000
vertex -500.000000 -499.999573 2700.000000
vertex -500.000000 -322.960358 2700.000000
endloop
endfacet
facet normal -1.000000 0.000000 0.000000
outer loop
vertex -957.207275 322.961090 2250.000000
vertex -957.207275 -322.960419 2250.000000
vertex -957.207275 -322.960358 2700.000000
endloop
endfacet
facet normal -1.000000 0.000000 0.000000
outer loop
vertex -957.207275 322.961090 2250.000000
vertex -957.207275 -322.960358 2700.000000
vertex -957.207275 322.961151 2700.000000
endloop
endfacet
facet normal -1.000000 0.000000 0.000000
outer loop
vertex -500.000000 500.000366 2250.000000
vertex -500.000000 322.961090 2250.000000
vertex -500.000000 322.961151 2700.000000
endloop
endfacet
facet normal -1.000000 0.000000 0.000000
outer loop
vertex -500.000000 500.000366 2250.000000
vertex -500.000000 322.961151 2700.000000
vertex -500.000000 500.000427 2700.000000
endloop
endfacet
facet normal 1.000000 0.000000 0.000000
outer loop
vertex 500.000000 -499.999634 2250.000000
vertex 500.000000 500.000366 2250.000000
vertex 500.000000 500.000427 2700.000000
endloop
endfacet
facet normal 1.000000 0.000000 0.000000
outer loop
vertex 500.000000 -499.999634 2250.000000
vertex 500.000000 500.000427 2700.000000
vertex 500.000000 -499.999573 2700.000000
endloop
endfacet
facet normal 0.000000 -1.000000 0.000000
outer loop
vertex -957.207275 -322.960419 2250.000000
vertex -500.000000 -322.960419 2250.000000
vertex -500.000000 -322.960358 2700.000000
endloop
endfacet
facet normal 0.000000 -1.000000 0.000000
outer loop
vertex -957.207275 -322.960419 2250.000000
vertex -500.000000 -322.960358 2700.000000
vertex -957.207275 -322.960358 2700.000000
endloop
endfacet
facet normal 0.000000 1.000000 -0.000000
outer loop
vertex -500.000000 322.961090 2250.000000
vertex -957.207275 322.961090 2250.000000
vertex -957.207275 322.961151 2700.000000
endloop
endfacet
facet normal 0.000000 1.000000 -0.000000
outer loop
vertex -500.000000 322.961090 2250.000000
vertex -957.207275 322.961151 2700.000000
vertex -500.000000 322.961151 2700.000000
endloop
endfacet
facet normal 0.000000 1.000000 -0.000000
outer loop
vertex 500.000000 500.000366 2250.000000
vertex -500.000000 500.000366 2250.000000
vertex -500.000000 500.000427 2700.000000
endloop
endfacet
facet normal 0.000000 1.000000 -0.000000
outer loop
vertex 500.000000 500.000366 2250.000000
vertex -500.000000 500.000427 2700.000000
vertex 500.000000 500.000427 2700.000000
endloop
endfacet
facet normal 0.000000 -1.000000 0.000000
outer loop
vertex -500.000000 -499.999634 2250.000000
vertex 500.000000 -499.999634 2250.000000
vertex 500.000000 -499.999573 2700.000000
endloop
endfacet
facet normal 0.000000 -1.000000 0.000000
outer loop
vertex -500.000000 -499.999634 2250.000000
vertex 500.000000 -499.999573 2700.000000
vertex -500.000000 -499.999573 2700.000000
endloop
endfacet
facet normal 0.000000 1.000000 -0.000000
outer loop
vertex -500.000000 322.961151 2700.000000
vertex -957.207275 322.961151 2700.000000
vertex -957.207275 322.961243 3150.000000
endloop
endfacet
facet normal 0.000000 1.000000 -0.000000
outer loop
vertex -500.000000 322.961151 2700.000000
vertex -957.207275 322.961243 3150.000000
vertex -500.000000 322.961243 3150.000000
endloop
endfacet
facet normal 0.000000 1.000000 -0.000000
outer loop
vertex 500.000000 500.000427 2700.000000
vertex -500.000000 500.000427 2700.000000
vertex -500.000000 500.000519 3150.000000
endloop
endfacet
facet normal 0.000000 1.000000 -0.000000
outer loop
vertex 500.000000 500.000427 2700.000000
vertex -500.000000 500.000519 3150.000000
vertex 500.000000 500.000519 3150.000000
endloop
endfacet
facet normal 0.000000 -1.000000 0.000000
outer loop
vertex -500.000000 -499.999573 2700.000000
vertex 500.000000 -499.999573 2700.000000
vertex 500.000000 -499.999481 3150.000000
endloop
endfacet
facet normal 0.000000 -1.000000 0.000000
outer loop
vertex -500.000000 -499.999573 2700.000000
vertex 500.000000 -499.999481 3150.000000
vertex -500.000000 -499.999481 3150.000000
endloop
endfacet
facet normal -1.000000 0.000000 0.000000
outer loop
vertex -500.000000 -322.960358 2700.000000
vertex -500.000000 -499.999573 2700.000000
vertex -500.000000 -499.999481 3150.000000
endloop
endfacet
facet normal -1.000000 0.000000 0.000000
outer loop
vertex -500.000000 -322.960358 2700.000000
vertex -500.000000 -499.999481 3150.000000
vertex -500.000000 -322.960266 3150.000000
endloop
endfacet
facet normal -1.000000 0.000000 0.000000
outer loop
vertex -957.207275 322.961151 2700.000000
vertex -957.207275 -322.960358 2700.000000
vertex -957.207275 -322.960266 3150.000000
endloop
endfacet
facet normal -1.000000 0.000000 0.000000
outer loop
vertex -957.207275 322.961151 2700.000000
vertex -957.207275 -322.960266 3150.000000
vertex -957.207275 322.961243 3150.000000
endloop
endfacet
facet normal -1.000000 0.000000 0.000000
outer loop
vertex -500.000000 500.000427 2700.000000
vertex -500.000000 322.961151 2700.000000
vertex -500.000000 322.961243 3150.000000
endloop
endfacet
facet normal -1.000000 0.000000 0.000000
outer loop
vertex -500.000000 500.000427 2700.000000
vertex -500.000000 322.961243 3150.000000
vertex -500.000000 500.000519 3150.000000
endloop
endfacet
facet normal 1.000000 0.000000 0.000000
outer loop
vertex 500.000000 -499.999573 2700.000000
vertex 500.000000 500.000427 2700.000000
vertex 500.000000 500.000519 3150.000000
endloop
endfacet
facet normal 1.000000 0.000000 0.000000
outer loop
vertex 500.000000 -499.999573 2700.000000
vertex 500.000000 500.000519 3150.000000
vertex 500.000000 -499.999481 3150.000000
endloop
endfacet
facet normal 0.000000 -1.000000 0.000000
outer loop
vertex -957.207275 -322.960358 2700.000000
vertex -500.000000 -322.960358 2700.000000
vertex -500.000000 -322.960266 3150.000000
endloop
endfacet
facet normal 0.000000 -1.000000 0.000000
outer loop
vertex -957.207275 -322.960358 2700.000000
vertex -500.000000 -322.960266 3150.000000
vertex -957.207275 -322.960266 3150.000000
endloop
endfacet
endsolid building_008.002
