solid building_018
facet normal -1.000000 0.000000 0.000000
outer loop
vertex -675.000000 600.000000 -0.000098
vertex -675.000000 450.000000 -0.000073
vertex -675.000000 450.000061 299.999939
endloop
endfacet
facet normal -1.000000 -0.000000 0.000000
outer loop
vertex -675.000000 600.000000 -0.000098
vertex -675.000000 450.000061 299.999939
vertex -675.000000 600.000061 299.999908
endloop
endfacet
facet normal 0.000000 -1.000000 0.000000
outer loop
vertex -675.000000 -600.000000 0.000098
vertex 675.000000 -600.000000 0.000098
vertex 675.000000 -599.999939 300.000092
endloop
endfacet
facet normal 0.000000 -1.000000 0.000000
outer loop
vertex -675.000000 -600.000000 0.000098
vertex 675.000000 -599.999939 300.000092
vertex -675.000000 -599.999939 300.000092
endloop
endfacet
facet normal 1.000000 0.000000 0.000000
outer loop
vertex 825.000000 -450.000000 0.000073
vertex 825.000000 450.000000 -0.000073
vertex 825.000000 450.000061 299.999939
endloop
endfacet
facet normal 1.000000 -0.000000 0.000000
outer loop
vertex 825.000000 -450.000000 0.000073
vertex 825.000000 450.000061 299.999939
vertex 825.000000 -449.999939 300.000061
endloop
endfacet
facet normal -1.000000 0.000000 0.000000
outer loop
vertex -825.000000 450.000000 -0.000073
vertex -825.000000 -450.000000 0.000073
vertex -825.000000 -449.999939 300.000061
endloop
endfacet
facet normal -1.000000 -0.000000 0.000000
outer loop
vertex -825.000000 450.000000 -0.000073
vertex -825.000000 -449.999939 300.000061
vertex -825.000000 450.000061 299.999939
endloop
endfacet
facet normal 0.000000 0.000000 1.000000
outer loop
vertex -675.000000 -449.999695 1800.000122
vertex -675.000000 -599.999695 1800.000122
vertex 675.000000 -599.999695 1800.000122
endloop
endfacet
facet normal 0.000000 0.000000 1.000000
outer loop
vertex 675.000000 -449.999695 1800.000122
vertex 825.000000 -449.999695 1800.000122
vertex 825.000000 450.000305 1799.999878
endloop
endfacet
facet normal 0.000000 0.000000 1.000000
outer loop
vertex -675.000000 -449.999695 1800.000122
vertex 675.000000 -599.999695 1800.000122
vertex 675.000000 -449.999695 1800.000122
endloop
endfacet
facet normal 0.000000 0.000000 1.000000
outer loop
vertex -825.000000 450.000305 1799.999878
vertex -825.000000 -449.999695 1800.000122
vertex -675.000000 -449.999695 1800.000122
endloop
endfacet
facet normal 0.000000 0.000000 1.000000
outer loop
vertex 675.000000 600.000305 1799.999878
vertex -675.000000 600.000305 1799.999878
vertex -675.000000 450.000305 1799.999878
endloop
endfacet
facet normal 0.000000 0.000000 1.000000
outer loop
vertex -675.000000 450.000305 1799.999878
vertex -825.000000 450.000305 1799.999878
vertex -675.000000 -449.999695 1800.000122
endloop
endfacet
facet normal 0.000000 0.000000 1.000000
outer loop
vertex -675.000000 -449.999695 1800.000122
vertex 675.000000 -449.999695 1800.000122
vertex 825.000000 450.000305 1799.999878
endloop
endfacet
facet normal 0.000000 0.000000 1.000000
outer loop
vertex 675.000000 450.000305 1799.999878
vertex 675.000000 600.000305 1799.999878
vertex -675.000000 450.000305 1799.999878
endloop
endfacet
facet normal 0.000000 0.000000 1.000000
outer loop
vertex -675.000000 -449.999695 1800.000122
vertex 825.000000 450.000305 1799.999878
vertex 675.000000 450.000305 1799.999878
endloop
endfacet
facet normal 0.000000 0.000000 1.000000
outer loop
vertex -675.000000 -449.999695 1800.000122
vertex 675.000000 450.000305 1799.999878
vertex -675.000000 450.000305 1799.999878
endloop
endfacet
facet normal 0.000000 -1.000000 0.000000
outer loop
vertex -825.000000 -450.000000 0.000073
vertex -675.000000 -450.000000 0.000073
vertex -675.000000 -449.999939 300.000061
endloop
endfacet
facet normal 0.000000 -1.000000 0.000000
outer loop
vertex -825.000000 -450.000000 0.000073
vertex -675.000000 -449.999939 300.000061
vertex -825.000000 -449.999939 300.000061
endloop
endfacet
facet normal 1.000000 0.000000 0.000000
outer loop
vertex 675.000000 -600.000000 0.000098
vertex 675.000000 -450.000000 0.000073
vertex 675.000000 -449.999939 300.000061
endloop
endfacet
facet normal 1.000000 -0.000000 0.000000
outer loop
vertex 675.000000 -600.000000 0.000098
vertex 675.000000 -449.999939 300.000061
vertex 675.000000 -599.999939 300.000092
endloop
endfacet
facet normal 1.000000 0.000000 0.000000
outer loop
vertex 675.000000 450.000000 -0.000073
vertex 675.000000 600.000000 -0.000098
vertex 675.000000 600.000061 299.999908
endloop
endfacet
facet normal 1.000000 -0.000000 0.000000
outer loop
vertex 675.000000 450.000000 -0.000073
vertex 675.000000 600.000061 299.999908
vertex 675.000000 450.000061 299.999939
endloop
endfacet
facet normal 0.000000 1.000000 -0.000000
outer loop
vertex 825.000000 450.000000 -0.000073
vertex 675.000000 450.000000 -0.000073
vertex 675.000000 450.000061 299.999939
endloop
endfacet
facet normal 0.000000 1.000000 0.000000
outer loop
vertex 825.000000 450.000000 -0.000073
vertex 675.000000 450.000061 299.999939
vertex 825.000000 450.000061 299.999939
endloop
endfacet
facet normal 0.000000 1.000000 -0.000000
outer loop
vertex -675.000000 450.000000 -0.000073
vertex -825.000000 450.000000 -0.000073
vertex -825.000000 450.000061 299.999939
endloop
endfacet
facet normal 0.000000 1.000000 0.000000
outer loop
vertex -675.000000 450.000000 -0.000073
vertex -825.000000 450.000061 299.999939
vertex -675.000000 450.000061 299.999939
endloop
endfacet
facet normal -1.000000 0.000000 0.000000
outer loop
vertex -675.000000 -450.000000 0.000073
vertex -675.000000 -600.000000 0.000098
vertex -675.000000 -599.999939 300.000092
endloop
endfacet
facet normal -1.000000 -0.000000 0.000000
outer loop
vertex -675.000000 -450.000000 0.000073
vertex -675.000000 -599.999939 300.000092
vertex -675.000000 -449.999939 300.000061
endloop
endfacet
facet normal 0.000000 -1.000000 0.000000
outer loop
vertex 675.000000 -450.000000 0.000073
vertex 825.000000 -450.000000 0.000073
vertex 825.000000 -449.999939 300.000061
endloop
endfacet
facet normal 0.000000 -1.000000 0.000000
outer loop
vertex 675.000000 -450.000000 0.000073
vertex 825.000000 -449.999939 300.000061
vertex 675.000000 -449.999939 300.000061
endloop
endfacet
facet normal 0.000000 1.000000 0.000000
outer loop
vertex 675.000000 600.000000 -0.000098
vertex -675.000000 600.000000 -0.000098
vertex -675.000000 600.000061 299.999908
endloop
endfacet
facet normal 0.000000 1.000000 -0.000000
outer loop
vertex 675.000000 600.000000 -0.000098
vertex -675.000000 600.000061 299.999908
vertex 675.000000 600.000061 299.999908
endloop
endfacet
facet normal 0.000000 -1.000000 0.000001
outer loop
vertex -675.000000 -599.999939 300.000092
vertex 675.000000 -599.999939 300.000092
vertex 675.000000 -599.999878 600.000122
endloop
endfacet
facet normal 0.000000 -1.000000 0.000000
outer loop
vertex -675.000000 -599.999939 300.000092
vertex 675.000000 -599.999878 600.000122
vertex -675.000000 -599.999878 600.000122
endloop
endfacet
facet normal -1.000000 0.000000 0.000000
outer loop
vertex -675.000000 600.000061 299.999908
vertex -675.000000 450.000061 299.999939
vertex -675.000000 450.000092 599.999939
endloop
endfacet
facet normal -1.000000 -0.000000 0.000000
outer loop
vertex -675.000000 600.000061 299.999908
vertex -675.000000 450.000092 599.999939
vertex -675.000000 600.000122 599.999878
endloop
endfacet
facet normal -1.000000 -0.000001 0.000000
outer loop
vertex -675.000000 -449.999939 300.000061
vertex -675.000000 -599.999939 300.000092
vertex -675.000000 -599.999878 600.000122
endloop
endfacet
facet normal -1.000000 0.000000 0.000000
outer loop
vertex -675.000000 -449.999939 300.000061
vertex -675.000000 -599.999878 600.000122
vertex -675.000000 -449.999908 600.000061
endloop
endfacet
facet normal 0.000000 1.000000 0.000000
outer loop
vertex 825.000000 450.000061 299.999939
vertex 675.000000 450.000061 299.999939
vertex 675.000000 450.000092 599.999939
endloop
endfacet
facet normal 0.000000 1.000000 -0.000000
outer loop
vertex 825.000000 450.000061 299.999939
vertex 675.000000 450.000092 599.999939
vertex 825.000000 450.000092 599.999939
endloop
endfacet
facet normal 0.000000 1.000000 0.000000
outer loop
vertex -675.000000 450.000061 299.999939
vertex -825.000000 450.000061 299.999939
vertex -825.000000 450.000092 599.999939
endloop
endfacet
facet normal 0.000000 1.000000 -0.000000
outer loop
vertex -675.000000 450.000061 299.999939
vertex -825.000000 450.000092 599.999939
vertex -675.000000 450.000092 599.999939
endloop
endfacet
facet normal 1.000000 -0.000001 0.000000
outer loop
vertex 675.000000 450.000061 299.999939
vertex 675.000000 600.000061 299.999908
vertex 675.000000 600.000122 599.999878
endloop
endfacet
facet normal 1.000000 0.000000 0.000000
outer loop
vertex 675.000000 450.000061 299.999939
vertex 675.000000 600.000122 599.999878
vertex 675.000000 450.000092 599.999939
endloop
endfacet
facet normal 0.000000 -1.000000 0.000000
outer loop
vertex 675.000000 -449.999939 300.000061
vertex 825.000000 -449.999939 300.000061
vertex 825.000000 -449.999908 600.000061
endloop
endfacet
facet normal 0.000000 -1.000000 0.000000
outer loop
vertex 675.000000 -449.999939 300.000061
vertex 825.000000 -449.999908 600.000061
vertex 675.000000 -449.999908 600.000061
endloop
endfacet
facet normal -1.000000 0.000000 0.000000
outer loop
vertex -825.000000 450.000061 299.999939
vertex -825.000000 -449.999939 300.000061
vertex -825.000000 -449.999908 600.000061
endloop
endfacet
facet normal -1.000000 -0.000000 0.000000
outer loop
vertex -825.000000 450.000061 299.999939
vertex -825.000000 -449.999908 600.000061
vertex -825.000000 450.000092 599.999939
endloop
endfacet
facet normal 1.000000 0.000000 0.000000
outer loop
vertex 675.000000 -599.999939 300.000092
vertex 675.000000 -449.999939 300.000061
vertex 675.000000 -449.999908 600.000061
endloop
endfacet
facet normal 1.000000 -0.000000 0.000000
outer loop
vertex 675.000000 -599.999939 300.000092
vertex 675.000000 -449.999908 600.000061
vertex 675.000000 -599.999878 600.000122
endloop
endfacet
facet normal 0.000000 1.000000 -0.000001
outer loop
vertex 675.000000 600.000061 299.999908
vertex -675.000000 600.000061 299.999908
vertex -675.000000 600.000122 599.999878
endloop
endfacet
facet normal 0.000000 1.000000 0.000000
outer loop
vertex 675.000000 600.000061 299.999908
vertex -675.000000 600.000122 599.999878
vertex 675.000000 600.000122 599.999878
endloop
endfacet
facet normal 1.000000 0.000000 0.000000
outer loop
vertex 825.000000 -449.999939 300.000061
vertex 825.000000 450.000061 299.999939
vertex 825.000000 450.000092 599.999939
endloop
endfacet
facet normal 1.000000 -0.000000 0.000000
outer loop
vertex 825.000000 -449.999939 300.000061
vertex 825.000000 450.000092 599.999939
vertex 825.000000 -449.999908 600.000061
endloop
endfacet
facet normal 0.000000 -1.000000 0.000000
outer loop
vertex -825.000000 -449.999939 300.000061
vertex -675.000000 -449.999939 300.000061
vertex -675.000000 -449.999908 600.000061
endloop
endfacet
facet normal 0.000000 -1.000000 0.000000
outer loop
vertex -825.000000 -449.999939 300.000061
vertex -675.000000 -449.999908 600.000061
vertex -825.000000 -449.999908 600.000061
endloop
endfacet
facet normal 0.000000 -1.000000 0.000000
outer loop
vertex -675.000000 -599.999878 600.000122
vertex 675.000000 -599.999878 600.000122
vertex 675.000000 -599.999878 900.000122
endloop
endfacet
facet normal 0.000000 -1.000000 0.000000
outer loop
vertex -675.000000 -599.999878 600.000122
vertex 675.000000 -599.999878 900.000122
vertex -675.000000 -599.999878 900.000122
endloop
endfacet
facet normal -1.000000 0.000000 0.000000
outer loop
vertex -675.000000 600.000122 599.999878
vertex -675.000000 450.000092 599.999939
vertex -675.000000 450.000153 899.999939
endloop
endfacet
facet normal -1.000000 0.000000 0.000000
outer loop
vertex -675.000000 600.000122 599.999878
vertex -675.000000 450.000153 899.999939
vertex -675.000000 600.000122 899.999878
endloop
endfacet
facet normal 0.000000 1.000000 0.000000
outer loop
vertex 825.000000 450.000092 599.999939
vertex 675.000000 450.000092 599.999939
vertex 675.000000 450.000153 899.999939
endloop
endfacet
facet normal 0.000000 1.000000 -0.000000
outer loop
vertex 825.000000 450.000092 599.999939
vertex 675.000000 450.000153 899.999939
vertex 825.000000 450.000153 899.999939
endloop
endfacet
facet normal 1.000000 0.000000 0.000000
outer loop
vertex 675.000000 -599.999878 600.000122
vertex 675.000000 -449.999908 600.000061
vertex 675.000000 -449.999847 900.000061
endloop
endfacet
facet normal 1.000000 0.000000 0.000000
outer loop
vertex 675.000000 -599.999878 600.000122
vertex 675.000000 -449.999847 900.000061
vertex 675.000000 -599.999878 900.000122
endloop
endfacet
facet normal 0.000000 1.000000 0.000000
outer loop
vertex -675.000000 450.000092 599.999939
vertex -825.000000 450.000092 599.999939
vertex -825.000000 450.000153 899.999939
endloop
endfacet
facet normal 0.000000 1.000000 -0.000000
outer loop
vertex -675.000000 450.000092 599.999939
vertex -825.000000 450.000153 899.999939
vertex -675.000000 450.000153 899.999939
endloop
endfacet
facet normal 1.000000 0.000000 0.000000
outer loop
vertex 675.000000 450.000092 599.999939
vertex 675.000000 600.000122 599.999878
vertex 675.000000 600.000122 899.999878
endloop
endfacet
facet normal 1.000000 0.000000 0.000000
outer loop
vertex 675.000000 450.000092 599.999939
vertex 675.000000 600.000122 899.999878
vertex 675.000000 450.000153 899.999939
endloop
endfacet
facet normal 0.000000 -1.000000 0.000000
outer loop
vertex 675.000000 -449.999908 600.000061
vertex 825.000000 -449.999908 600.000061
vertex 825.000000 -449.999847 900.000061
endloop
endfacet
facet normal 0.000000 -1.000000 0.000000
outer loop
vertex 675.000000 -449.999908 600.000061
vertex 825.000000 -449.999847 900.000061
vertex 675.000000 -449.999847 900.000061
endloop
endfacet
facet normal -1.000000 0.000000 0.000000
outer loop
vertex -825.000000 450.000092 599.999939
vertex -825.000000 -449.999908 600.000061
vertex -825.000000 -449.999847 900.000061
endloop
endfacet
facet normal -1.000000 -0.000000 0.000000
outer loop
vertex -825.000000 450.000092 599.999939
vertex -825.000000 -449.999847 900.000061
vertex -825.000000 450.000153 899.999939
endloop
endfacet
facet normal -1.000000 0.000000 0.000000
outer loop
vertex -675.000000 -449.999908 600.000061
vertex -675.000000 -599.999878 600.000122
vertex -675.000000 -599.999878 900.000122
endloop
endfacet
facet normal -1.000000 0.000000 0.000000
outer loop
vertex -675.000000 -449.999908 600.000061
vertex -675.000000 -599.999878 900.000122
vertex -675.000000 -449.999847 900.000061
endloop
endfacet
facet normal 0.000000 1.000000 0.000000
outer loop
vertex 675.000000 600.000122 599.999878
vertex -675.000000 600.000122 599.999878
vertex -675.000000 600.000122 899.999878
endloop
endfacet
facet normal 0.000000 1.000000 0.000000
outer loop
vertex 675.000000 600.000122 599.999878
vertex -675.000000 600.000122 899.999878
vertex 675.000000 600.000122 899.999878
endloop
endfacet
facet normal 1.000000 0.000000 0.000000
outer loop
vertex 825.000000 -449.999908 600.000061
vertex 825.000000 450.000092 599.999939
vertex 825.000000 450.000153 899.999939
endloop
endfacet
facet normal 1.000000 -0.000000 0.000000
outer loop
vertex 825.000000 -449.999908 600.000061
vertex 825.000000 450.000153 899.999939
vertex 825.000000 -449.999847 900.000061
endloop
endfacet
facet normal 0.000000 -1.000000 0.000000
outer loop
vertex -825.000000 -449.999908 600.000061
vertex -675.000000 -449.999908 600.000061
vertex -675.000000 -449.999847 900.000061
endloop
endfacet
facet normal 0.000000 -1.000000 0.000000
outer loop
vertex -825.000000 -449.999908 600.000061
vertex -675.000000 -449.999847 900.000061
vertex -825.000000 -449.999847 900.000061
endloop
endfacet
facet normal 0.000000 -1.000000 0.000000
outer loop
vertex -825.000000 -449.999847 900.000061
vertex -675.000000 -449.999847 900.000061
vertex -675.000000 -449.999817 1200.000122
endloop
endfacet
facet normal 0.000000 -1.000000 0.000000
outer loop
vertex -825.000000 -449.999847 900.000061
vertex -675.000000 -449.999817 1200.000122
vertex -825.000000 -449.999817 1200.000122
endloop
endfacet
facet normal 0.000000 -1.000000 0.000000
outer loop
vertex -675.000000 -599.999878 900.000122
vertex 675.000000 -599.999878 900.000122
vertex 675.000000 -599.999817 1200.000122
endloop
endfacet
facet normal 0.000000 -1.000000 0.000000
outer loop
vertex -675.000000 -599.999878 900.000122
vertex 675.000000 -599.999817 1200.000122
vertex -675.000000 -599.999817 1200.000122
endloop
endfacet
facet normal -1.000000 0.000000 0.000000
outer loop
vertex -675.000000 600.000122 899.999878
vertex -675.000000 450.000153 899.999939
vertex -675.000000 450.000183 1199.999878
endloop
endfacet
facet normal -1.000000 0.000000 0.000000
outer loop
vertex -675.000000 600.000122 899.999878
vertex -675.000000 450.000183 1199.999878
vertex -675.000000 600.000183 1199.999878
endloop
endfacet
facet normal 0.000000 1.000000 -0.000000
outer loop
vertex 825.000000 450.000153 899.999939
vertex 675.000000 450.000153 899.999939
vertex 675.000000 450.000183 1199.999878
endloop
endfacet
facet normal 0.000000 1.000000 0.000000
outer loop
vertex 825.000000 450.000153 899.999939
vertex 675.000000 450.000183 1199.999878
vertex 825.000000 450.000183 1199.999878
endloop
endfacet
facet normal 1.000000 0.000000 0.000000
outer loop
vertex 675.000000 -599.999878 900.000122
vertex 675.000000 -449.999847 900.000061
vertex 675.000000 -449.999817 1200.000122
endloop
endfacet
facet normal 1.000000 0.000000 0.000000
outer loop
vertex 675.000000 -599.999878 900.000122
vertex 675.000000 -449.999817 1200.000122
vertex 675.000000 -599.999817 1200.000122
endloop
endfacet
facet normal 0.000000 1.000000 -0.000000
outer loop
vertex -675.000000 450.000153 899.999939
vertex -825.000000 450.000153 899.999939
vertex -825.000000 450.000183 1199.999878
endloop
endfacet
facet normal 0.000000 1.000000 0.000000
outer loop
vertex -675.000000 450.000153 899.999939
vertex -825.000000 450.000183 1199.999878
vertex -675.000000 450.000183 1199.999878
endloop
endfacet
facet normal 1.000000 0.000000 0.000000
outer loop
vertex 675.000000 450.000153 899.999939
vertex 675.000000 600.000122 899.999878
vertex 675.000000 600.000183 1199.999878
endloop
endfacet
facet normal 1.000000 0.000000 0.000000
outer loop
vertex 675.000000 450.000153 899.999939
vertex 675.000000 600.000183 1199.999878
vertex 675.000000 450.000183 1199.999878
endloop
endfacet
facet normal 0.000000 -1.000000 0.000000
outer loop
vertex 675.000000 -449.999847 900.000061
vertex 825.000000 -449.999847 900.000061
vertex 825.000000 -449.999817 1200.000122
endloop
endfacet
facet normal 0.000000 -1.000000 0.000000
outer loop
vertex 675.000000 -449.999847 900.000061
vertex 825.000000 -449.999817 1200.000122
vertex 675.000000 -449.999817 1200.000122
endloop
endfacet
facet normal -1.000000 -0.000000 0.000000
outer loop
vertex -825.000000 450.000153 899.999939
vertex -825.000000 -449.999847 900.000061
vertex -825.000000 -449.999817 1200.000122
endloop
endfacet
facet normal -1.000000 0.000000 0.000000
outer loop
vertex -825.000000 450.000153 899.999939
vertex -825.000000 -449.999817 1200.000122
vertex -825.000000 450.000183 1199.999878
endloop
endfacet
facet normal -1.000000 0.000000 0.000000
outer loop
vertex -675.000000 -449.999847 900.000061
vertex -675.000000 -599.999878 900.000122
vertex -675.000000 -599.999817 1200.000122
endloop
endfacet
facet normal -1.000000 0.000000 0.000000
outer loop
vertex -675.000000 -449.999847 900.000061
vertex -675.000000 -599.999817 1200.000122
vertex -675.000000 -449.999817 1200.000122
endloop
endfacet
facet normal 0.000000 1.000000 0.000000
outer loop
vertex 675.000000 600.000122 899.999878
vertex -675.000000 600.000122 899.999878
vertex -675.000000 600.000183 1199.999878
endloop
endfacet
facet normal 0.000000 1.000000 -0.000000
outer loop
vertex 675.000000 600.000122 899.999878
vertex -675.000000 600.000183 1199.999878
vertex 675.000000 600.000183 1199.999878
endloop
endfacet
facet normal 1.000000 -0.000000 0.000000
outer loop
vertex 825.000000 -449.999847 900.000061
vertex 825.000000 450.000153 899.999939
vertex 825.000000 450.000183 1199.999878
endloop
endfacet
facet normal 1.000000 0.000000 0.000000
outer loop
vertex 825.000000 -449.999847 900.000061
vertex 825.000000 450.000183 1199.999878
vertex 825.000000 -449.999817 1200.000122
endloop
endfacet
facet normal 1.000000 0.000000 0.000000
outer loop
vertex 825.000000 -449.999817 1200.000122
vertex 825.000000 450.000183 1199.999878
vertex 825.000000 450.000244 1499.999878
endloop
endfacet
facet normal 1.000000 0.000000 0.000000
outer loop
vertex 825.000000 -449.999817 1200.000122
vertex 825.000000 450.000244 1499.999878
vertex 825.000000 -449.999756 1500.000122
endloop
endfacet
facet normal 0.000000 -1.000000 0.000000
outer loop
vertex -825.000000 -449.999817 1200.000122
vertex -675.000000 -449.999817 1200.000122
vertex -675.000000 -449.999756 1500.000122
endloop
endfacet
facet normal 0.000000 -1.000000 0.000000
outer loop
vertex -825.000000 -449.999817 1200.000122
vertex -675.000000 -449.999756 1500.000122
vertex -825.000000 -449.999756 1500.000122
endloop
endfacet
facet normal 0.000000 -1.000000 0.000000
outer loop
vertex -675.000000 -599.999817 1200.000122
vertex 675.000000 -599.999817 1200.000122
vertex 675.000000 -599.999756 1500.000122
endloop
endfacet
facet normal 0.000000 -1.000000 0.000000
outer loop
vertex -675.000000 -599.999817 1200.000122
vertex 675.000000 -599.999756 1500.000122
vertex -675.000000 -599.999756 1500.000122
endloop
endfacet
facet normal -1.000000 0.000000 0.000000
outer loop
vertex -675.000000 600.000183 1199.999878
vertex -675.000000 450.000183 1199.999878
vertex -675.000000 450.000244 1499.999878
endloop
endfacet
facet normal -1.000000 0.000000 0.000000
outer loop
vertex -675.000000 600.000183 1199.999878
vertex -675.000000 450.000244 1499.999878
vertex -675.000000 600.000244 1499.999878
endloop
endfacet
facet normal 0.000000 1.000000 0.000000
outer loop
vertex 825.000000 450.000183 1199.999878
vertex 675.000000 450.000183 1199.999878
vertex 675.000000 450.000244 1499.999878
endloop
endfacet
facet normal 0.000000 1.000000 -0.000000
outer loop
vertex 825.000000 450.000183 1199.999878
vertex 675.000000 450.000244 1499.999878
vertex 825.000000 450.000244 1499.999878
endloop
endfacet
facet normal 1.000000 0.000000 0.000000
outer loop
vertex 675.000000 -599.999817 1200.000122
vertex 675.000000 -449.999817 1200.000122
vertex 675.000000 -449.999756 1500.000122
endloop
endfacet
facet normal 1.000000 0.000000 0.000000
outer loop
vertex 675.000000 -599.999817 1200.000122
vertex 675.000000 -449.999756 1500.000122
vertex 675.000000 -599.999756 1500.000122
endloop
endfacet
facet normal 0.000000 1.000000 0.000000
outer loop
vertex -675.000000 450.000183 1199.999878
vertex -825.000000 450.000183 1199.999878
vertex -825.000000 450.000244 1499.999878
endloop
endfacet
facet normal 0.000000 1.000000 -0.000000
outer loop
vertex -675.000000 450.000183 1199.999878
vertex -825.000000 450.000244 1499.999878
vertex -675.000000 450.000244 1499.999878
endloop
endfacet
facet normal 1.000000 0.000000 0.000000
outer loop
vertex 675.000000 450.000183 1199.999878
vertex 675.000000 600.000183 1199.999878
vertex 675.000000 600.000244 1499.999878
endloop
endfacet
facet normal 1.000000 0.000000 0.000000
outer loop
vertex 675.000000 450.000183 1199.999878
vertex 675.000000 600.000244 1499.999878
vertex 675.000000 450.000244 1499.999878
endloop
endfacet
facet normal 0.000000 -1.000000 0.000000
outer loop
vertex 675.000000 -449.999817 1200.000122
vertex 825.000000 -449.999817 1200.000122
vertex 825.000000 -449.999756 1500.000122
endloop
endfacet
facet normal 0.000000 -1.000000 0.000000
outer loop
vertex 675.000000 -449.999817 1200.000122
vertex 825.000000 -449.999756 1500.000122
vertex 675.000000 -449.999756 1500.000122
endloop
endfacet
facet normal -1.000000 0.000000 0.000000
outer loop
vertex -825.000000 450.000183 1199.999878
vertex -825.000000 -449.999817 1200.000122
vertex -825.000000 -449.999756 1500.000122
endloop
endfacet
facet normal -1.000000 0.000000 0.000000
outer loop
vertex -825.000000 450.000183 1199.999878
vertex -825.000000 -449.999756 1500.000122
vertex -825.000000 450.000244 1499.999878
endloop
endfacet
facet normal -1.000000 0.000000 0.000000
outer loop
vertex -675.000000 -449.999817 1200.000122
vertex -675.000000 -599.999817 1200.000122
vertex -675.000000 -599.999756 1500.000122
endloop
endfacet
facet normal -1.000000 0.000000 0.000000
outer loop
vertex -675.000000 -449.999817 1200.000122
vertex -675.000000 -599.999756 1500.000122
vertex -675.000000 -449.999756 1500.000122
endloop
endfacet
facet normal 0.000000 1.000000 -0.000000
outer loop
vertex 675.000000 600.000183 1199.999878
vertex -675.000000 600.000183 1199.999878
vertex -675.000000 600.000244 1499.999878
endloop
endfacet
facet normal 0.000000 1.000000 0.000000
outer loop
vertex 675.000000 600.000183 1199.999878
vertex -675.000000 600.000244 1499.999878
vertex 675.000000 600.000244 1499.999878
endloop
endfacet
facet normal 1.000000 0.000000 0.000000
outer loop
vertex 825.000000 -449.999756 1500.000122
vertex 825.000000 450.000244 1499.999878
vertex 825.000000 450.000305 1799.999878
endloop
endfacet
facet normal 1.000000 0.000000 0.000000
outer loop
vertex 825.000000 -449.999756 1500.000122
vertex 825.000000 450.000305 1799.999878
vertex 825.000000 -449.999695 1800.000122
endloop
endfacet
facet normal 0.000000 -1.000000 0.000000
outer loop
vertex -825.000000 -449.999756 1500.000122
vertex -675.000000 -449.999756 1500.000122
vertex -675.000000 -449.999695 1800.000122
endloop
endfacet
facet normal 0.000000 -1.000000 0.000000
outer loop
vertex -825.000000 -449.999756 1500.000122
vertex -675.000000 -449.999695 1800.000122
vertex -825.000000 -449.999695 1800.000122
endloop
endfacet
facet normal 0.000000 -1.000000 0.000000
outer loop
vertex -675.000000 -599.999756 1500.000122
vertex 675.000000 -599.999756 1500.000122
vertex 675.000000 -599.999695 1800.000122
endloop
endfacet
facet normal 0.000000 -1.000000 0.000001
outer loop
vertex -675.000000 -599.999756 1500.000122
vertex 675.000000 -599.999695 1800.000122
vertex -675.000000 -599.999695 1800.000122
endloop
endfacet
facet normal -1.000000 0.000000 0.000000
outer loop
vertex -675.000000 600.000244 1499.999878
vertex -675.000000 450.000244 1499.999878
vertex -675.000000 450.000305 1799.999878
endloop
endfacet
facet normal -1.000000 0.000000 0.000000
outer loop
vertex -675.000000 600.000244 1499.999878
vertex -675.000000 450.000305 1799.999878
vertex -675.000000 600.000305 1799.999878
endloop
endfacet
facet normal 0.000000 1.000000 0.000000
outer loop
vertex 825.000000 450.000244 1499.999878
vertex 675.000000 450.000244 1499.999878
vertex 675.000000 450.000305 1799.999878
endloop
endfacet
facet normal 0.000000 1.000000 -0.000000
outer loop
vertex 825.000000 450.000244 1499.999878
vertex 675.000000 450.000305 1799.999878
vertex 825.000000 450.000305 1799.999878
endloop
endfacet
facet normal 1.000000 0.000000 0.000000
outer loop
vertex 675.000000 -599.999756 1500.000122
vertex 675.000000 -449.999756 1500.000122
vertex 675.000000 -449.999695 1800.000122
endloop
endfacet
facet normal 1.000000 0.000000 0.000000
outer loop
vertex 675.000000 -599.999756 1500.000122
vertex 675.000000 -449.999695 1800.000122
vertex 675.000000 -599.999695 1800.000122
endloop
endfacet
facet normal 0.000000 1.000000 0.000000
outer loop
vertex -675.000000 450.000244 1499.999878
vertex -825.000000 450.000244 1499.999878
vertex -825.000000 450.000305 1799.999878
endloop
endfacet
facet normal 0.000000 1.000000 -0.000000
outer loop
vertex -675.000000 450.000244 1499.999878
vertex -825.000000 450.000305 1799.999878
vertex -675.000000 450.000305 1799.999878
endloop
endfacet
facet normal 1.000000 0.000000 0.000000
outer loop
vertex 675.000000 450.000244 1499.999878
vertex 675.000000 600.000244 1499.999878
vertex 675.000000 600.000305 1799.999878
endloop
endfacet
facet normal 1.000000 0.000000 0.000000
outer loop
vertex 675.000000 450.000244 1499.999878
vertex 675.000000 600.000305 1799.999878
vertex 675.000000 450.000305 1799.999878
endloop
endfacet
facet normal 0.000000 -1.000000 0.000000
outer loop
vertex 675.000000 -449.999756 1500.000122
vertex 825.000000 -449.999756 1500.000122
vertex 825.000000 -449.999695 1800.000122
endloop
endfacet
facet normal 0.000000 -1.000000 0.000000
outer loop
vertex 675.000000 -449.999756 1500.000122
vertex 825.000000 -449.999695 1800.000122
vertex 675.000000 -449.999695 1800.000122
endloop
endfacet
facet normal -1.000000 0.000000 0.000000
outer loop
vertex -825.000000 450.000244 1499.999878
vertex -825.000000 -449.999756 1500.000122
vertex -825.000000 -449.999695 1800.000122
endloop
endfacet
facet normal -1.000000 0.000000 0.000000
outer loop
vertex -825.000000 450.000244 1499.999878
vertex -825.000000 -449.999695 1800.000122
vertex -825.000000 450.000305 1799.999878
endloop
endfacet
facet normal -1.000000 0.000000 0.000000
outer loop
vertex -675.000000 -449.999756 1500.000122
vertex -675.000000 -599.999756 1500.000122
vertex -675.000000 -599.999695 1800.000122
endloop
endfacet
facet normal -1.000000 0.000000 0.000000
outer loop
vertex -675.000000 -449.999756 1500.000122
vertex -675.000000 -599.999695 1800.000122
vertex -675.000000 -449.999695 1800.000122
endloop
endfacet
facet normal 0.000000 1.000000 0.000000
outer loop
vertex 675.000000 600.000244 1499.999878
vertex -675.000000 600.000244 1499.999878
vertex -675.000000 600.000305 1799.999878
endloop
endfacet
facet normal 0.000000 1.000000 -0.000001
outer loop
vertex 675.000000 600.000244 1499.999878
vertex -675.000000 600.000305 1799.999878
vertex 675.000000 600.000305 1799.999878
endloop
endfacet
endsolid building_018
