solid building_004
facet normal 0.000000 0.000000 1.000000
outer loop
vertex -700.000000 -599.999207 4800.000000
vertex 700.000000 -599.999207 4800.000000
vertex 700.000000 600.000793 4800.000000
endloop
endfacet
facet normal 0.000000 0.000000 1.000000
outer loop
vertex -700.000000 -599.999207 4800.000000
vertex 700.000000 600.000793 4800.000000
vertex -700.000000 600.000793 4800.000000
endloop
endfacet
facet normal 1.000000 -0.000000 0.000000
outer loop
vertex 700.000000 -600.000000 0.000098
vertex 700.000000 600.000000 -0.000098
vertex 700.000000 600.000122 599.999878
endloop
endfacet
facet normal 1.000000 -0.000000 0.000000
outer loop
vertex 700.000000 -600.000000 0.000098
vertex 700.000000 600.000122 599.999878
vertex 700.000000 -599.999878 600.000122
endloop
endfacet
facet normal -1.000000 -0.000000 0.000000
outer loop
vertex -700.000000 600.000000 -0.000098
vertex -700.000000 -600.000000 0.000098
vertex -700.000000 -599.999878 600.000122
endloop
endfacet
facet normal -1.000000 -0.000000 0.000000
outer loop
vertex -700.000000 600.000000 -0.000098
vertex -700.000000 -599.999878 600.000122
vertex -700.000000 600.000122 599.999878
endloop
endfacet
facet normal 0.000000 1.000000 -0.000000
outer loop
vertex 700.000000 600.000000 -0.000098
vertex -700.000000 600.000000 -0.000098
vertex -700.000000 600.000122 599.999878
endloop
endfacet
facet normal 0.000000 1.000000 -0.000000
outer loop
vertex 700.000000 600.000000 -0.000098
vertex -700.000000 600.000122 599.999878
vertex 700.000000 600.000122 599.999878
endloop
endfacet
facet normal 0.000000 -1.000000 0.000000
outer loop
vertex -700.000000 -600.000000 0.000098
vertex 700.000000 -600.000000 0.000098
vertex 700.000000 -599.999878 600.000122
endloop
endfacet
facet normal 0.000000 -1.000000 0.000000
outer loop
vertex -700.000000 -600.000000 0.000098
vertex 700.000000 -599.999878 600.000122
vertex -700.000000 -599.999878 600.000122
endloop
endfacet
facet normal 0.000000 -1.000000 0.000000
outer loop
vertex -700.000000 -599.999878 600.000122
vertex 700.000000 -599.999878 600.000122
vertex 700.000000 -599.999817 1200.000122
endloop
endfacet
facet normal 0.000000 -1.000000 0.000000
outer loop
vertex -700.000000 -599.999878 600.000122
vertex 700.000000 -599.999817 1200.000122
vertex -700.000000 -599.999817 1200.000122
endloop
endfacet
facet normal -1.000000 0.000000 0.000000
outer loop
vertex -700.000000 600.000122 599.999878
vertex -700.000000 -599.999878 600.000122
vertex -700.000000 -599.999817 1200.000122
endloop
endfacet
facet normal -1.000000 -0.000000 0.000000
outer loop
vertex -700.000000 600.000122 599.999878
vertex -700.000000 -599.999817 1200.000122
vertex -700.000000 600.000183 1199.999878
endloop
endfacet
facet normal 1.000000 0.000000 0.000000
outer loop
vertex 700.000000 -599.999878 600.000122
vertex 700.000000 600.000122 599.999878
vertex 700.000000 600.000183 1199.999878
endloop
endfacet
facet normal 1.000000 -0.000000 0.000000
outer loop
vertex 700.000000 -599.999878 600.000122
vertex 700.000000 600.000183 1199.999878
vertex 700.000000 -599.999817 1200.000122
endloop
endfacet
facet normal 0.000000 1.000000 0.000000
outer loop
vertex 700.000000 600.000122 599.999878
vertex -700.000000 600.000122 599.999878
vertex -700.000000 600.000183 1199.999878
endloop
endfacet
facet normal 0.000000 1.000000 -0.000000
outer loop
vertex 700.000000 600.000122 599.999878
vertex -700.000000 600.000183 1199.999878
vertex 700.000000 600.000183 1199.999878
endloop
endfacet
facet normal -1.000000 0.000000 0.000000
outer loop
vertex -700.000000 600.000183 1199.999878
vertex -700.000000 -599.999817 1200.000122
vertex -700.000000 -599.999695 1800.000122
endloop
endfacet
facet normal -1.000000 -0.000000 0.000000
outer loop
vertex -700.000000 600.000183 1199.999878
vertex -700.000000 -599.999695 1800.000122
vertex -700.000000 600.000305 1799.999878
endloop
endfacet
facet normal 1.000000 0.000000 0.000000
outer loop
vertex 700.000000 -599.999817 1200.000122
vertex 700.000000 600.000183 1199.999878
vertex 700.000000 600.000305 1799.999878
endloop
endfacet
facet normal 1.000000 -0.000000 0.000000
outer loop
vertex 700.000000 -599.999817 1200.000122
vertex 700.000000 600.000305 1799.999878
vertex 700.000000 -599.999695 1800.000122
endloop
endfacet
facet normal 0.000000 1.000000 -0.000000
outer loop
vertex 700.000000 600.000183 1199.999878
vertex -700.000000 600.000183 1199.999878
vertex -700.000000 600.000305 1799.999878
endloop
endfacet
facet normal 0.000000 1.000000 -0.000000
outer loop
vertex 700.000000 600.000183 1199.999878
vertex -700.000000 600.000305 1799.999878
vertex 700.000000 600.000305 1799.999878
endloop
endfacet
facet normal 0.000000 -1.000000 0.000000
outer loop
vertex -700.000000 -599.999817 1200.000122
vertex 700.000000 -599.999817 1200.000122
vertex 700.000000 -599.999695 1800.000122
endloop
endfacet
facet normal 0.000000 -1.000000 0.000000
outer loop
vertex -700.000000 -599.999817 1200.000122
vertex 700.000000 -599.999695 1800.000122
vertex -700.000000 -599.999695 1800.000122
endloop
endfacet
facet normal 0.000000 1.000000 -0.000000
outer loop
vertex 700.000000 600.000305 1799.999878
vertex -700.000000 600.000305 1799.999878
vertex -700.000000 600.000366 2400.000000
endloop
endfacet
facet normal 0.000000 1.000000 0.000000
outer loop
vertex 700.000000 600.000305 1799.999878
vertex -700.000000 600.000366 2400.000000
vertex 700.000000 600.000366 2400.000000
endloop
endfacet
facet normal 0.000000 -1.000000 0.000000
outer loop
vertex -700.000000 -599.999695 1800.000122
vertex 700.000000 -599.999695 1800.000122
vertex 700.000000 -599.999634 2400.000000
endloop
endfacet
facet normal 0.000000 -1.000000 0.000000
outer loop
vertex -700.000000 -599.999695 1800.000122
vertex 700.000000 -599.999634 2400.000000
vertex -700.000000 -599.999634 2400.000000
endloop
endfacet
facet normal -1.000000 -0.000000 0.000000
outer loop
vertex -700.000000 600.000305 1799.999878
vertex -700.000000 -599.999695 1800.000122
vertex -700.000000 -599.999634 2400.000000
endloop
endfacet
facet normal -1.000000 0.000000 0.000000
outer loop
vertex -700.000000 600.000305 1799.999878
vertex -700.000000 -599.999634 2400.000000
vertex -700.000000 600.000366 2400.000000
endloop
endfacet
facet normal 1.000000 -0.000000 0.000000
outer loop
vertex 700.000000 -599.999695 1800.000122
vertex 700.000000 600.000305 1799.999878
vertex 700.000000 600.000366 2400.000000
endloop
endfacet
facet normal 1.000000 0.000000 0.000000
outer loop
vertex 700.000000 -599.999695 1800.000122
vertex 700.000000 600.000366 2400.000000
vertex 700.000000 -599.999634 2400.000000
endloop
endfacet
facet normal -1.000000 0.000000 0.000000
outer loop
vertex -700.000000 600.000366 2400.000000
vertex -700.000000 -599.999634 2400.000000
vertex -700.000000 -599.999512 3000.000000
endloop
endfacet
facet normal -1.000000 0.000000 0.000000
outer loop
vertex -700.000000 600.000366 2400.000000
vertex -700.000000 -599.999512 3000.000000
vertex -700.000000 600.000488 3000.000000
endloop
endfacet
facet normal 1.000000 0.000000 0.000000
outer loop
vertex 700.000000 -599.999634 2400.000000
vertex 700.000000 600.000366 2400.000000
vertex 700.000000 600.000488 3000.000000
endloop
endfacet
facet normal 1.000000 0.000000 0.000000
outer loop
vertex 700.000000 -599.999634 2400.000000
vertex 700.000000 600.000488 3000.000000
vertex 700.000000 -599.999512 3000.000000
endloop
endfacet
facet normal 0.000000 1.000000 -0.000000
outer loop
vertex 700.000000 600.000366 2400.000000
vertex -700.000000 600.000366 2400.000000
vertex -700.000000 600.000488 3000.000000
endloop
endfacet
facet normal 0.000000 1.000000 -0.000000
outer loop
vertex 700.000000 600.000366 2400.000000
vertex -700.000000 600.000488 3000.000000
vertex 700.000000 600.000488 3000.000000
endloop
endfacet
facet normal 0.000000 -1.000000 0.000000
outer loop
vertex -700.000000 -599.999634 2400.000000
vertex 700.000000 -599.999634 2400.000000
vertex 700.000000 -599.999512 3000.000000
endloop
endfacet
facet normal 0.000000 -1.000000 0.000000
outer loop
vertex -700.000000 -599.999634 2400.000000
vertex 700.000000 -599.999512 3000.000000
vertex -700.000000 -599.999512 3000.000000
endloop
endfacet
facet normal 1.000000 0.000000 0.000000
outer loop
vertex 700.000000 -599.999512 3000.000000
vertex 700.000000 600.000488 3000.000000
vertex 700.000000 600.000610 3600.000000
endloop
endfacet
facet normal 1.000000 0.000000 0.000000
outer loop
vertex 700.000000 -599.999512 3000.000000
vertex 700.000000 600.000610 3600.000000
vertex 700.000000 -599.999390 3600.000000
endloop
endfacet
facet normal 0.000000 1.000000 -0.000000
outer loop
vertex 700.000000 600.000488 3000.000000
vertex -700.000000 600.000488 3000.000000
vertex -700.000000 600.000610 3600.000000
endloop
endfacet
facet normal 0.000000 1.000000 -0.000000
outer loop
vertex 700.000000 600.000488 3000.000000
vertex -700.000000 600.000610 3600.000000
vertex 700.000000 600.000610 3600.000000
endloop
endfacet
facet normal 0.000000 -1.000000 0.000000
outer loop
vertex -700.000000 -599.999512 3000.000000
vertex 700.000000 -599.999512 3000.000000
vertex 700.000000 -599.999390 3600.000000
endloop
endfacet
facet normal 0.000000 -1.000000 0.000000
outer loop
vertex -700.000000 -599.999512 3000.000000
vertex 700.000000 -599.999390 3600.000000
vertex -700.000000 -599.999390 3600.000000
endloop
endfacet
facet normal -1.000000 0.000000 0.000000
outer loop
vertex -700.000000 600.000488 3000.000000
vertex -700.000000 -599.999512 3000.000000
vertex -700.000000 -599.999390 3600.000000
endloop
endfacet
facet normal -1.000000 0.000000 0.000000
outer loop
vertex -700.000000 600.000488 3000.000000
vertex -700.000000 -599.999390 3600.000000
vertex -700.000000 600.000610 3600.000000
endloop
endfacet
facet normal 0.000000 1.000000 0.000000
outer loop
vertex 700.000000 600.000610 3600.000000
vertex -700.000000 600.000610 3600.000000
vertex -700.000000 600.000671 4200.000000
endloop
endfacet
facet normal 0.000000 1.000000 -0.000000
outer loop
vertex 700.000000 600.000610 3600.000000
vertex -700.000000 600.000671 4200.000000
vertex 700.000000 600.000671 4200.000000
endloop
endfacet
facet normal 0.000000 -1.000000 0.000000
outer loop
vertex -700.000000 -599.999390 3600.000000
vertex 700.000000 -599.999390 3600.000000
vertex 700.000000 -599.999329 4200.000000
endloop
endfacet
facet normal 0.000000 -1.000000 0.000000
outer loop
vertex -700.000000 -599.999390 3600.000000
vertex 700.000000 -599.999329 4200.000000
vertex -700.000000 -599.999329 4200.000000
endloop
endfacet
facet normal -1.000000 0.000000 0.000000
outer loop
vertex -700.000000 600.000610 3600.000000
vertex -700.000000 -599.999390 3600.000000
vertex -700.000000 -599.999329 4200.000000
endloop
endfacet
facet normal -1.000000 0.000000 0.000000
outer loop
vertex -700.000000 600.000610 3600.000000
vertex -700.000000 -599.999329 4200.000000
vertex -700.000000 600.000671 4200.000000
endloop
endfacet
facet normal 1.000000 0.000000 0.000000
outer loop
vertex 700.000000 -599.999390 3600.000000
vertex 700.000000 600.000610 3600.000000
vertex 700.000000 600.000671 4200.000000
endloop
endfacet
facet normal 1.000000 0.000000 0.000000
outer loop
vertex 700.000000 -599.999390 3600.000000
vertex 700.000000 600.000671 4200.000000
vertex 700.000000 -599.999329 4200.000000
endloop
endfacet
facet normal -1.000000 0.000000 0.000000
outer loop
vertex -700.000000 600.000671 4200.000000
vertex -700.000000 -599.999329 4200.000000
vertex -700.000000 -599.999207 4800.000000
endloop
endfacet
facet normal -1.000000 0.000000 0.000000
outer loop
vertex -700.000000 600.000671 4200.000000
vertex -700.000000 -599.999207 4800.000000
vertex -700.000000 600.000793 4800.000000
endloop
endfacet
facet normal 1.000000 0.000000 0.000000
outer loop
vertex 700.000000 -599.999329 4200.000000
vertex 700.000000 600.000671 4200.000000
vertex 700.000000 600.000793 4800.000000
endloop
endfacet
facet normal 1.000000 0.000000 0.000000
outer loop
vertex 700.000000 -599.999329 4200.000000
vertex 700.000000 600.000793 4800.000000
vertex 700.000000 -599.999207 4800.000000
endloop
endfacet
facet normal 0.000000 1.000000 -0.000000
outer loop
vertex 700.000000 600.000671 4200.000000
vertex -700.000000 600.000671 4200.000000
vertex -700.000000 600.000793 4800.000000
endloop
endfacet
facet normal 0.000000 1.000000 -0.000000
outer loop
vertex 700.000000 600.000671 4200.000000
vertex -700.000000 600.000793 4800.000000
vertex 700.000000 600.000793 4800.000000
endloop
endfacet
facet normal 0.000000 -1.000000 0.000000
outer loop
vertex -700.000000 -599.999329 4200.000000
vertex 700.000000 -599.999329 4200.000000
vertex 700.000000 -599.999207 4800.000000
endloop
endfacet
facet normal 0.000000 -1.000000 0.000000
outer loop
vertex -700.000000 -599.999329 4200.000000
vertex 700.000000 -599.999207 4800.000000
vertex -700.000000 -599.999207 4800.000000
endloop
endfacet
endsolid building_004
