solid building_006
facet normal 0.000000 0.000000 1.000000
outer loop
vertex -450.000000 450.000946 5850.000000
vertex -450.000000 -449.999054 5850.000000
vertex 450.000000 -449.999054 5850.000000
endloop
endfacet
facet normal 0.000000 0.000000 1.000000
outer loop
vertex 450.000000 -429.187134 5850.000000
vertex 1370.771729 -429.187134 5850.000000
vertex 1370.771729 429.189117 5850.000000
endloop
endfacet
facet normal -0.000025 0.000000 1.000000
outer loop
vertex -450.000000 450.000946 5850.000000
vertex 450.000000 -449.999054 5850.000000
vertex 450.000000 -429.187134 5850.000000
endloop
endfacet
facet normal 0.000000 0.000000 1.000000
outer loop
vertex 450.000000 429.189117 5850.000000
vertex 450.000000 450.000946 5850.000000
vertex -450.000000 450.000946 5850.000000
endloop
endfacet
facet normal 0.000000 0.000000 1.000000
outer loop
vertex 450.000000 -429.187134 5850.000000
vertex 1370.771729 429.189117 5850.000000
vertex 450.000000 429.189117 5850.000000
endloop
endfacet
facet normal 0.000001 0.000000 1.000000
outer loop
vertex 450.000000 -429.187134 5850.000000
vertex 450.000000 429.189117 5850.000000
vertex -450.000000 450.000946 5850.000000
endloop
endfacet
facet normal 1.000000 0.000000 0.000000
outer loop
vertex 450.000000 -450.000000 0.000073
vertex 450.000000 -429.188080 0.000070
vertex 450.000000 -429.188019 450.000061
endloop
endfacet
facet normal 1.000000 0.000000 0.000000
outer loop
vertex 450.000000 -450.000000 0.000073
vertex 450.000000 -429.188019 450.000061
vertex 450.000000 -449.999939 450.000061
endloop
endfacet
facet normal 1.000000 0.000000 0.000000
outer loop
vertex 450.000000 429.188171 -0.000070
vertex 450.000000 450.000000 -0.000073
vertex 450.000000 450.000061 449.999939
endloop
endfacet
facet normal 1.000000 0.000000 0.000000
outer loop
vertex 450.000000 429.188171 -0.000070
vertex 450.000000 450.000061 449.999939
vertex 450.000000 429.188232 449.999939
endloop
endfacet
facet normal -1.000000 0.000000 0.000000
outer loop
vertex -450.000000 450.000000 -0.000073
vertex -450.000000 -450.000000 0.000073
vertex -450.000000 -449.999939 450.000061
endloop
endfacet
facet normal -1.000000 0.000000 0.000000
outer loop
vertex -450.000000 450.000000 -0.000073
vertex -450.000000 -449.999939 450.000061
vertex -450.000000 450.000061 449.999939
endloop
endfacet
facet normal 0.000000 1.000000 -0.000000
outer loop
vertex 1370.771729 429.188171 -0.000070
vertex 450.000000 429.188171 -0.000070
vertex 450.000000 429.188232 449.999939
endloop
endfacet
facet normal 0.000000 1.000000 -0.000000
outer loop
vertex 1370.771729 429.188171 -0.000070
vertex 450.000000 429.188232 449.999939
vertex 1370.771729 429.188232 449.999939
endloop
endfacet
facet normal 0.000000 1.000000 -0.000000
outer loop
vertex 450.000000 450.000000 -0.000073
vertex -450.000000 450.000000 -0.000073
vertex -450.000000 450.000061 449.999939
endloop
endfacet
facet normal 0.000000 1.000000 -0.000000
outer loop
vertex 450.000000 450.000000 -0.000073
vertex -450.000000 450.000061 449.999939
vertex 450.000000 450.000061 449.999939
endloop
endfacet
facet normal 0.000000 -1.000000 0.000000
outer loop
vertex -450.000000 -450.000000 0.000073
vertex 450.000000 -450.000000 0.000073
vertex 450.000000 -449.999939 450.000061
endloop
endfacet
facet normal 0.000000 -1.000000 0.000000
outer loop
vertex -450.000000 -450.000000 0.000073
vertex 450.000000 -449.999939 450.000061
vertex -450.000000 -449.999939 450.000061
endloop
endfacet
facet normal 0.000000 -1.000000 0.000000
outer loop
vertex 450.000000 -429.188080 0.000070
vertex 1370.771729 -429.188080 0.000070
vertex 1370.771729 -429.188019 450.000061
endloop
endfacet
facet normal 0.000000 -1.000000 0.000000
outer loop
vertex 450.000000 -429.188080 0.000070
vertex 1370.771729 -429.188019 450.000061
vertex 450.000000 -429.188019 450.000061
endloop
endfacet
facet normal 1.000000 0.000000 0.000000
outer loop
vertex 1370.771729 -429.188080 0.000070
vertex 1370.771729 429.188171 -0.000070
vertex 1370.771729 429.188232 449.999939
endloop
endfacet
facet normal 1.000000 -0.000000 0.000000
outer loop
vertex 1370.771729 -429.188080 0.000070
vertex 1370.771729 429.188232 449.999939
vertex 1370.771729 -429.188019 450.000061
endloop
endfacet
facet normal -1.000000 0.000000 0.000000
outer loop
vertex -450.000000 450.000061 449.999939
vertex -450.000000 -449.999939 450.000061
vertex -450.000000 -449.999847 900.000061
endloop
endfacet
facet normal -1.000000 0.000000 0.000000
outer loop
vertex -450.000000 450.000061 449.999939
vertex -450.000000 -449.999847 900.000061
vertex -450.000000 450.000153 899.999939
endloop
endfacet
facet normal 1.000000 0.000000 0.000000
outer loop
vertex 450.000000 429.188232 449.999939
vertex 450.000000 450.000061 449.999939
vertex 450.000000 450.000153 899.999939
endloop
endfacet
facet normal 1.000000 0.000000 0.000000
outer loop
vertex 450.000000 429.188232 449.999939
vertex 450.000000 450.000153 899.999939
vertex 450.000000 429.188324 899.999939
endloop
endfacet
facet normal 1.000000 0.000000 0.000000
outer loop
vertex 1370.771729 -429.188019 450.000061
vertex 1370.771729 429.188232 449.999939
vertex 1370.771729 429.188324 899.999939
endloop
endfacet
facet normal 1.000000 -0.000000 0.000000
outer loop
vertex 1370.771729 -429.188019 450.000061
vertex 1370.771729 429.188324 899.999939
vertex 1370.771729 -429.187927 900.000061
endloop
endfacet
facet normal 1.000000 0.000000 0.000000
outer loop
vertex 450.000000 -449.999939 450.000061
vertex 450.000000 -429.188019 450.000061
vertex 450.000000 -429.187927 900.000061
endloop
endfacet
facet normal 1.000000 0.000000 0.000000
outer loop
vertex 450.000000 -449.999939 450.000061
vertex 450.000000 -429.187927 900.000061
vertex 450.000000 -449.999847 900.000061
endloop
endfacet
facet normal 0.000000 -1.000000 0.000000
outer loop
vertex -450.000000 -449.999939 450.000061
vertex 450.000000 -449.999939 450.000061
vertex 450.000000 -449.999847 900.000061
endloop
endfacet
facet normal 0.000000 -1.000000 0.000000
outer loop
vertex -450.000000 -449.999939 450.000061
vertex 450.000000 -449.999847 900.000061
vertex -450.000000 -449.999847 900.000061
endloop
endfacet
facet normal 0.000000 1.000000 -0.000000
outer loop
vertex 450.000000 450.000061 449.999939
vertex -450.000000 450.000061 449.999939
vertex -450.000000 450.000153 899.999939
endloop
endfacet
facet normal 0.000000 1.000000 0.000000
outer loop
vertex 450.000000 450.000061 449.999939
vertex -450.000000 450.000153 899.999939
vertex 450.000000 450.000153 899.999939
endloop
endfacet
facet normal 0.000000 1.000000 -0.000000
outer loop
vertex 1370.771729 429.188232 449.999939
vertex 450.000000 429.188232 449.999939
vertex 450.000000 429.188324 899.999939
endloop
endfacet
facet normal 0.000000 1.000000 -0.000000
outer loop
vertex 1370.771729 429.188232 449.999939
vertex 450.000000 429.188324 899.999939
vertex 1370.771729 429.188324 899.999939
endloop
endfacet
facet normal 0.000000 -1.000000 0.000000
outer loop
vertex 450.000000 -429.188019 450.000061
vertex 1370.771729 -429.188019 450.000061
vertex 1370.771729 -429.187927 900.000061
endloop
endfacet
facet normal 0.000000 -1.000000 0.000000
outer loop
vertex 450.000000 -429.188019 450.000061
vertex 1370.771729 -429.187927 900.000061
vertex 450.000000 -429.187927 900.000061
endloop
endfacet
facet normal 0.000000 -1.000000 0.000000
outer loop
vertex 450.000000 -429.187927 900.000061
vertex 1370.771729 -429.187927 900.000061
vertex 1370.771729 -429.187866 1350.000122
endloop
endfacet
facet normal 0.000000 -1.000000 0.000000
outer loop
vertex 450.000000 -429.187927 900.000061
vertex 1370.771729 -429.187866 1350.000122
vertex 450.000000 -429.187866 1350.000122
endloop
endfacet
facet normal 0.000000 -1.000000 0.000000
outer loop
vertex -450.000000 -449.999847 900.000061
vertex 450.000000 -449.999847 900.000061
vertex 450.000000 -449.999786 1350.000122
endloop
endfacet
facet normal 0.000000 -1.000000 0.000000
outer loop
vertex -450.000000 -449.999847 900.000061
vertex 450.000000 -449.999786 1350.000122
vertex -450.000000 -449.999786 1350.000122
endloop
endfacet
facet normal -1.000000 0.000000 0.000000
outer loop
vertex -450.000000 450.000153 899.999939
vertex -450.000000 -449.999847 900.000061
vertex -450.000000 -449.999786 1350.000122
endloop
endfacet
facet normal -1.000000 -0.000000 0.000000
outer loop
vertex -450.000000 450.000153 899.999939
vertex -450.000000 -449.999786 1350.000122
vertex -450.000000 450.000214 1349.999878
endloop
endfacet
facet normal 1.000000 0.000000 0.000000
outer loop
vertex 450.000000 429.188324 899.999939
vertex 450.000000 450.000153 899.999939
vertex 450.000000 450.000214 1349.999878
endloop
endfacet
facet normal 1.000000 0.000000 0.000000
outer loop
vertex 450.000000 429.188324 899.999939
vertex 450.000000 450.000214 1349.999878
vertex 450.000000 429.188385 1349.999878
endloop
endfacet
facet normal 1.000000 0.000000 0.000000
outer loop
vertex 1370.771729 -429.187927 900.000061
vertex 1370.771729 429.188324 899.999939
vertex 1370.771729 429.188385 1349.999878
endloop
endfacet
facet normal 1.000000 0.000000 0.000000
outer loop
vertex 1370.771729 -429.187927 900.000061
vertex 1370.771729 429.188385 1349.999878
vertex 1370.771729 -429.187866 1350.000122
endloop
endfacet
facet normal 1.000000 0.000000 0.000000
outer loop
vertex 450.000000 -449.999847 900.000061
vertex 450.000000 -429.187927 900.000061
vertex 450.000000 -429.187866 1350.000122
endloop
endfacet
facet normal 1.000000 0.000000 0.000000
outer loop
vertex 450.000000 -449.999847 900.000061
vertex 450.000000 -429.187866 1350.000122
vertex 450.000000 -449.999786 1350.000122
endloop
endfacet
facet normal 0.000000 1.000000 -0.000000
outer loop
vertex 450.000000 450.000153 899.999939
vertex -450.000000 450.000153 899.999939
vertex -450.000000 450.000214 1349.999878
endloop
endfacet
facet normal 0.000000 1.000000 -0.000000
outer loop
vertex 450.000000 450.000153 899.999939
vertex -450.000000 450.000214 1349.999878
vertex 450.000000 450.000214 1349.999878
endloop
endfacet
facet normal 0.000000 1.000000 -0.000000
outer loop
vertex 1370.771729 429.188324 899.999939
vertex 450.000000 429.188324 899.999939
vertex 450.000000 429.188385 1349.999878
endloop
endfacet
facet normal 0.000000 1.000000 -0.000000
outer loop
vertex 1370.771729 429.188324 899.999939
vertex 450.000000 429.188385 1349.999878
vertex 1370.771729 429.188385 1349.999878
endloop
endfacet
facet normal 0.000000 1.000000 -0.000000
outer loop
vertex 450.000000 450.000214 1349.999878
vertex -450.000000 450.000214 1349.999878
vertex -450.000000 450.000305 1799.999878
endloop
endfacet
facet normal 0.000000 1.000000 -0.000000
outer loop
vertex 450.000000 450.000214 1349.999878
vertex -450.000000 450.000305 1799.999878
vertex 450.000000 450.000305 1799.999878
endloop
endfacet
facet normal 0.000000 1.000000 -0.000000
outer loop
vertex 1370.771729 429.188385 1349.999878
vertex 450.000000 429.188385 1349.999878
vertex 450.000000 429.188477 1799.999878
endloop
endfacet
facet normal 0.000000 1.000000 -0.000000
outer loop
vertex 1370.771729 429.188385 1349.999878
vertex 450.000000 429.188477 1799.999878
vertex 1370.771729 429.188477 1799.999878
endloop
endfacet
facet normal 0.000000 -1.000000 0.000000
outer loop
vertex 450.000000 -429.187866 1350.000122
vertex 1370.771729 -429.187866 1350.000122
vertex 1370.771729 -429.187775 1800.000122
endloop
endfacet
facet normal 0.000000 -1.000000 0.000000
outer loop
vertex 450.000000 -429.187866 1350.000122
vertex 1370.771729 -429.187775 1800.000122
vertex 450.000000 -429.187775 1800.000122
endloop
endfacet
facet normal 0.000000 -1.000000 0.000000
outer loop
vertex -450.000000 -449.999786 1350.000122
vertex 450.000000 -449.999786 1350.000122
vertex 450.000000 -449.999695 1800.000122
endloop
endfacet
facet normal 0.000000 -1.000000 0.000000
outer loop
vertex -450.000000 -449.999786 1350.000122
vertex 450.000000 -449.999695 1800.000122
vertex -450.000000 -449.999695 1800.000122
endloop
endfacet
facet normal -1.000000 0.000000 0.000000
outer loop
vertex -450.000000 450.000214 1349.999878
vertex -450.000000 -449.999786 1350.000122
vertex -450.000000 -449.999695 1800.000122
endloop
endfacet
facet normal -1.000000 -0.000000 0.000000
outer loop
vertex -450.000000 450.000214 1349.999878
vertex -450.000000 -449.999695 1800.000122
vertex -450.000000 450.000305 1799.999878
endloop
endfacet
facet normal 1.000000 0.000000 0.000000
outer loop
vertex 450.000000 429.188385 1349.999878
vertex 450.000000 450.000214 1349.999878
vertex 450.000000 450.000305 1799.999878
endloop
endfacet
facet normal 1.000000 0.000000 0.000000
outer loop
vertex 450.000000 429.188385 1349.999878
vertex 450.000000 450.000305 1799.999878
vertex 450.000000 429.188477 1799.999878
endloop
endfacet
facet normal 1.000000 0.000000 0.000000
outer loop
vertex 1370.771729 -429.187866 1350.000122
vertex 1370.771729 429.188385 1349.999878
vertex 1370.771729 429.188477 1799.999878
endloop
endfacet
facet normal 1.000000 -0.000000 0.000000
outer loop
vertex 1370.771729 -429.187866 1350.000122
vertex 1370.771729 429.188477 1799.999878
vertex 1370.771729 -429.187775 1800.000122
endloop
endfacet
facet normal 1.000000 0.000000 0.000000
outer loop
vertex 450.000000 -449.999786 1350.000122
vertex 450.000000 -429.187866 1350.000122
vertex 450.000000 -429.187775 1800.000122
endloop
endfacet
facet normal 1.000000 0.000000 0.000000
outer loop
vertex 450.000000 -449.999786 1350.000122
vertex 450.000000 -429.187775 1800.000122
vertex 450.000000 -449.999695 1800.000122
endloop
endfacet
facet normal 1.000000 0.000000 0.000000
outer loop
vertex 1370.771729 -429.187775 1800.000122
vertex 1370.771729 429.188477 1799.999878
vertex 1370.771729 429.188538 2250.000000
endloop
endfacet
facet normal 1.000000 0.000000 0.000000
outer loop
vertex 1370.771729 -429.187775 1800.000122
vertex 1370.771729 429.188538 2250.000000
vertex 1370.771729 -429.187714 2250.000000
endloop
endfacet
facet normal 1.000000 0.000000 0.000000
outer loop
vertex 450.000000 -449.999695 1800.000122
vertex 450.000000 -429.187775 1800.000122
vertex 450.000000 -429.187714 2250.000000
endloop
endfacet
facet normal 1.000000 0.000000 0.000000
outer loop
vertex 450.000000 -449.999695 1800.000122
vertex 450.000000 -429.187714 2250.000000
vertex 450.000000 -449.999634 2250.000000
endloop
endfacet
facet normal 0.000000 1.000000 -0.000000
outer loop
vertex 450.000000 450.000305 1799.999878
vertex -450.000000 450.000305 1799.999878
vertex -450.000000 450.000366 2250.000000
endloop
endfacet
facet normal 0.000000 1.000000 -0.000000
outer loop
vertex 450.000000 450.000305 1799.999878
vertex -450.000000 450.000366 2250.000000
vertex 450.000000 450.000366 2250.000000
endloop
endfacet
facet normal 0.000000 1.000000 -0.000000
outer loop
vertex 1370.771729 429.188477 1799.999878
vertex 450.000000 429.188477 1799.999878
vertex 450.000000 429.188538 2250.000000
endloop
endfacet
facet normal 0.000000 1.000000 0.000000
outer loop
vertex 1370.771729 429.188477 1799.999878
vertex 450.000000 429.188538 2250.000000
vertex 1370.771729 429.188538 2250.000000
endloop
endfacet
facet normal 0.000000 -1.000000 0.000000
outer loop
vertex 450.000000 -429.187775 1800.000122
vertex 1370.771729 -429.187775 1800.000122
vertex 1370.771729 -429.187714 2250.000000
endloop
endfacet
facet normal 0.000000 -1.000000 0.000000
outer loop
vertex 450.000000 -429.187775 1800.000122
vertex 1370.771729 -429.187714 2250.000000
vertex 450.000000 -429.187714 2250.000000
endloop
endfacet
facet normal 0.000000 -1.000000 0.000000
outer loop
vertex -450.000000 -449.999695 1800.000122
vertex 450.000000 -449.999695 1800.000122
vertex 450.000000 -449.999634 2250.000000
endloop
endfacet
facet normal 0.000000 -1.000000 0.000000
outer loop
vertex -450.000000 -449.999695 1800.000122
vertex 450.000000 -449.999634 2250.000000
vertex -450.000000 -449.999634 2250.000000
endloop
endfacet
facet normal -1.000000 -0.000000 0.000000
outer loop
vertex -450.000000 450.000305 1799.999878
vertex -450.000000 -449.999695 1800.000122
vertex -450.000000 -449.999634 2250.000000
endloop
endfacet
facet normal -1.000000 0.000000 0.000000
outer loop
vertex -450.000000 450.000305 1799.999878
vertex -450.000000 -449.999634 2250.000000
vertex -450.000000 450.000366 2250.000000
endloop
endfacet
facet normal 1.000000 0.000000 0.000000
outer loop
vertex 450.000000 429.188477 1799.999878
vertex 450.000000 450.000305 1799.999878
vertex 450.000000 450.000366 2250.000000
endloop
endfacet
facet normal 1.000000 0.000000 0.000000
outer loop
vertex 450.000000 429.188477 1799.999878
vertex 450.000000 450.000366 2250.000000
vertex 450.000000 429.188538 2250.000000
endloop
endfacet
facet normal -1.000000 0.000000 0.000000
outer loop
vertex -450.000000 450.000366 2250.000000
vertex -450.000000 -449.999634 2250.000000
vertex -450.000000 -449.999573 2700.000000
endloop
endfacet
facet normal -1.000000 0.000000 0.000000
outer loop
vertex -450.000000 450.000366 2250.000000
vertex -450.000000 -449.999573 2700.000000
vertex -450.000000 450.000427 2700.000000
endloop
endfacet
facet normal 1.000000 0.000000 0.000000
outer loop
vertex 450.000000 429.188538 2250.000000
vertex 450.000000 450.000366 2250.000000
vertex 450.000000 450.000427 2700.000000
endloop
endfacet
facet normal 1.000000 0.000000 0.000000
outer loop
vertex 450.000000 429.188538 2250.000000
vertex 450.000000 450.000427 2700.000000
vertex 450.000000 429.188599 2700.000000
endloop
endfacet
facet normal 1.000000 0.000000 0.000000
outer loop
vertex 1370.771729 -429.187714 2250.000000
vertex 1370.771729 429.188538 2250.000000
vertex 1370.771729 429.188599 2700.000000
endloop
endfacet
facet normal 1.000000 0.000000 0.000000
outer loop
vertex 1370.771729 -429.187714 2250.000000
vertex 1370.771729 429.188599 2700.000000
vertex 1370.771729 -429.187653 2700.000000
endloop
endfacet
facet normal 1.000000 0.000000 0.000000
outer loop
vertex 450.000000 -449.999634 2250.000000
vertex 450.000000 -429.187714 2250.000000
vertex 450.000000 -429.187653 2700.000000
endloop
endfacet
facet normal 1.000000 0.000000 0.000000
outer loop
vertex 450.000000 -449.999634 2250.000000
vertex 450.000000 -429.187653 2700.000000
vertex 450.000000 -449.999573 2700.000000
endloop
endfacet
facet normal 0.000000 1.000000 0.000000
outer loop
vertex 450.000000 450.000366 2250.000000
vertex -450.000000 450.000366 2250.000000
vertex -450.000000 450.000427 2700.000000
endloop
endfacet
facet normal 0.000000 1.000000 -0.000000
outer loop
vertex 450.000000 450.000366 2250.000000
vertex -450.000000 450.000427 2700.000000
vertex 450.000000 450.000427 2700.000000
endloop
endfacet
facet normal 0.000000 1.000000 -0.000000
outer loop
vertex 1370.771729 429.188538 2250.000000
vertex 450.000000 429.188538 2250.000000
vertex 450.000000 429.188599 2700.000000
endloop
endfacet
facet normal 0.000000 1.000000 -0.000000
outer loop
vertex 1370.771729 429.188538 2250.000000
vertex 450.000000 429.188599 2700.000000
vertex 1370.771729 429.188599 2700.000000
endloop
endfacet
facet normal 0.000000 -1.000000 0.000000
outer loop
vertex 450.000000 -429.187714 2250.000000
vertex 1370.771729 -429.187714 2250.000000
vertex 1370.771729 -429.187653 2700.000000
endloop
endfacet
facet normal 0.000000 -1.000000 0.000000
outer loop
vertex 450.000000 -429.187714 2250.000000
vertex 1370.771729 -429.187653 2700.000000
vertex 450.000000 -429.187653 2700.000000
endloop
endfacet
facet normal 0.000000 -1.000000 0.000000
outer loop
vertex -450.000000 -449.999634 2250.000000
vertex 450.000000 -449.999634 2250.000000
vertex 450.000000 -449.999573 2700.000000
endloop
endfacet
facet normal 0.000000 -1.000000 0.000000
outer loop
vertex -450.000000 -449.999634 2250.000000
vertex 450.000000 -449.999573 2700.000000
vertex -450.000000 -449.999573 2700.000000
endloop
endfacet
facet normal 0.000000 1.000000 -0.000000
outer loop
vertex 1370.771729 429.188599 2700.000000
vertex 450.000000 429.188599 2700.000000
vertex 450.000000 429.188690 3150.000000
endloop
endfacet
facet normal 0.000000 1.000000 -0.000000
outer loop
vertex 1370.771729 429.188599 2700.000000
vertex 450.000000 429.188690 3150.000000
vertex 1370.771729 429.188690 3150.000000
endloop
endfacet
facet normal 0.000000 -1.000000 0.000000
outer loop
vertex 450.000000 -429.187653 2700.000000
vertex 1370.771729 -429.187653 2700.000000
vertex 1370.771729 -429.187561 3150.000000
endloop
endfacet
facet normal 0.000000 -1.000000 0.000000
outer loop
vertex 450.000000 -429.187653 2700.000000
vertex 1370.771729 -429.187561 3150.000000
vertex 450.000000 -429.187561 3150.000000
endloop
endfacet
facet normal 0.000000 -1.000000 0.000000
outer loop
vertex -450.000000 -449.999573 2700.000000
vertex 450.000000 -449.999573 2700.000000
vertex 450.000000 -449.999481 3150.000000
endloop
endfacet
facet normal 0.000000 -1.000000 0.000000
outer loop
vertex -450.000000 -449.999573 2700.000000
vertex 450.000000 -449.999481 3150.000000
vertex -450.000000 -449.999481 3150.000000
endloop
endfacet
facet normal -1.000000 0.000000 0.000000
outer loop
vertex -450.000000 450.000427 2700.000000
vertex -450.000000 -449.999573 2700.000000
vertex -450.000000 -449.999481 3150.000000
endloop
endfacet
facet normal -1.000000 0.000000 0.000000
outer loop
vertex -450.000000 450.000427 2700.000000
vertex -450.000000 -449.999481 3150.000000
vertex -450.000000 450.000519 3150.000000
endloop
endfacet
facet normal 1.000000 0.000000 0.000000
outer loop
vertex 450.000000 429.188599 2700.000000
vertex 450.000000 450.000427 2700.000000
vertex 450.000000 450.000519 3150.000000
endloop
endfacet
facet normal 1.000000 0.000000 0.000000
outer loop
vertex 450.000000 429.188599 2700.000000
vertex 450.000000 450.000519 3150.000000
vertex 450.000000 429.188690 3150.000000
endloop
endfacet
facet normal 1.000000 0.000000 0.000000
outer loop
vertex 1370.771729 -429.187653 2700.000000
vertex 1370.771729 429.188599 2700.000000
vertex 1370.771729 429.188690 3150.000000
endloop
endfacet
facet normal 1.000000 0.000000 0.000000
outer loop
vertex 1370.771729 -429.187653 2700.000000
vertex 1370.771729 429.188690 3150.000000
vertex 1370.771729 -429.187561 3150.000000
endloop
endfacet
facet normal 1.000000 0.000000 0.000000
outer loop
vertex 450.000000 -449.999573 2700.000000
vertex 450.000000 -429.187653 2700.000000
vertex 450.000000 -429.187561 3150.000000
endloop
endfacet
facet normal 1.000000 0.000000 0.000000
outer loop
vertex 450.000000 -449.999573 2700.000000
vertex 450.000000 -429.187561 3150.000000
vertex 450.000000 -449.999481 3150.000000
endloop
endfacet
facet normal 0.000000 1.000000 -0.000000
outer loop
vertex 450.000000 450.000427 2700.000000
vertex -450.000000 450.000427 2700.000000
vertex -450.000000 450.000519 3150.000000
endloop
endfacet
facet normal 0.000000 1.000000 -0.000000
outer loop
vertex 450.000000 450.000427 2700.000000
vertex -450.000000 450.000519 3150.000000
vertex 450.000000 450.000519 3150.000000
endloop
endfacet
facet normal 0.000000 1.000000 -0.000000
outer loop
vertex 450.000000 450.000519 3150.000000
vertex -450.000000 450.000519 3150.000000
vertex -450.000000 450.000580 3600.000000
endloop
endfacet
facet normal 0.000000 1.000000 -0.000000
outer loop
vertex 450.000000 450.000519 3150.000000
vertex -450.000000 450.000580 3600.000000
vertex 450.000000 450.000580 3600.000000
endloop
endfacet
facet normal 0.000000 1.000000 -0.000000
outer loop
vertex 1370.771729 429.188690 3150.000000
vertex 450.000000 429.188690 3150.000000
vertex 450.000000 429.188751 3600.000000
endloop
endfacet
facet normal 0.000000 1.000000 -0.000000
outer loop
vertex 1370.771729 429.188690 3150.000000
vertex 450.000000 429.188751 3600.000000
vertex 1370.771729 429.188751 3600.000000
endloop
endfacet
facet normal 0.000000 -1.000000 0.000000
outer loop
vertex 450.000000 -429.187561 3150.000000
vertex 1370.771729 -429.187561 3150.000000
vertex 1370.771729 -429.187500 3600.000000
endloop
endfacet
facet normal 0.000000 -1.000000 0.000000
outer loop
vertex 450.000000 -429.187561 3150.000000
vertex 1370.771729 -429.187500 3600.000000
vertex 450.000000 -429.187500 3600.000000
endloop
endfacet
facet normal 0.000000 -1.000000 0.000000
outer loop
vertex -450.000000 -449.999481 3150.000000
vertex 450.000000 -449.999481 3150.000000
vertex 450.000000 -449.999420 3600.000000
endloop
endfacet
facet normal 0.000000 -1.000000 0.000000
outer loop
vertex -450.000000 -449.999481 3150.000000
vertex 450.000000 -449.999420 3600.000000
vertex -450.000000 -449.999420 3600.000000
endloop
endfacet
facet normal -1.000000 0.000000 0.000000
outer loop
vertex -450.000000 450.000519 3150.000000
vertex -450.000000 -449.999481 3150.000000
vertex -450.000000 -449.999420 3600.000000
endloop
endfacet
facet normal -1.000000 0.000000 0.000000
outer loop
vertex -450.000000 450.000519 3150.000000
vertex -450.000000 -449.999420 3600.000000
vertex -450.000000 450.000580 3600.000000
endloop
endfacet
facet normal 1.000000 0.000000 0.000000
outer loop
vertex 450.000000 429.188690 3150.000000
vertex 450.000000 450.000519 3150.000000
vertex 450.000000 450.000580 3600.000000
endloop
endfacet
facet normal 1.000000 0.000000 0.000000
outer loop
vertex 450.000000 429.188690 3150.000000
vertex 450.000000 450.000580 3600.000000
vertex 450.000000 429.188751 3600.000000
endloop
endfacet
facet normal 1.000000 0.000000 0.000000
outer loop
vertex 1370.771729 -429.187561 3150.000000
vertex 1370.771729 429.188690 3150.000000
vertex 1370.771729 429.188751 3600.000000
endloop
endfacet
facet normal 1.000000 0.000000 0.000000
outer loop
vertex 1370.771729 -429.187561 3150.000000
vertex 1370.771729 429.188751 3600.000000
vertex 1370.771729 -429.187500 3600.000000
endloop
endfacet
facet normal 1.000000 0.000000 0.000000
outer loop
vertex 450.000000 -449.999481 3150.000000
vertex 450.000000 -429.187561 3150.000000
vertex 450.000000 -429.187500 3600.000000
endloop
endfacet
facet normal 1.000000 0.000000 0.000000
outer loop
vertex 450.000000 -449.999481 3150.000000
vertex 450.000000 -429.187500 3600.000000
vertex 450.000000 -449.999420 3600.000000
endloop
endfacet
facet normal 1.000000 0.000000 0.000000
outer loop
vertex 450.000000 429.188751 3600.000000
vertex 450.000000 450.000580 3600.000000
vertex 450.000000 450.000671 4050.000000
endloop
endfacet
facet normal 1.000000 0.000000 0.000000
outer loop
vertex 450.000000 429.188751 3600.000000
vertex 450.000000 450.000671 4050.000000
vertex 450.000000 429.188843 4050.000000
endloop
endfacet
facet normal 1.000000 0.000000 0.000000
outer loop
vertex 1370.771729 -429.187500 3600.000000
vertex 1370.771729 429.188751 3600.000000
vertex 1370.771729 429.188843 4050.000000
endloop
endfacet
facet normal 1.000000 0.000000 0.000000
outer loop
vertex 1370.771729 -429.187500 3600.000000
vertex 1370.771729 429.188843 4050.000000
vertex 1370.771729 -429.187408 4050.000000
endloop
endfacet
facet normal 1.000000 0.000000 0.000000
outer loop
vertex 450.000000 -449.999420 3600.000000
vertex 450.000000 -429.187500 3600.000000
vertex 450.000000 -429.187408 4050.000000
endloop
endfacet
facet normal 1.000000 0.000000 0.000000
outer loop
vertex 450.000000 -449.999420 3600.000000
vertex 450.000000 -429.187408 4050.000000
vertex 450.000000 -449.999329 4050.000000
endloop
endfacet
facet normal 0.000000 1.000000 -0.000000
outer loop
vertex 450.000000 450.000580 3600.000000
vertex -450.000000 450.000580 3600.000000
vertex -450.000000 450.000671 4050.000000
endloop
endfacet
facet normal 0.000000 1.000000 -0.000000
outer loop
vertex 450.000000 450.000580 3600.000000
vertex -450.000000 450.000671 4050.000000
vertex 450.000000 450.000671 4050.000000
endloop
endfacet
facet normal 0.000000 1.000000 -0.000000
outer loop
vertex 1370.771729 429.188751 3600.000000
vertex 450.000000 429.188751 3600.000000
vertex 450.000000 429.188843 4050.000000
endloop
endfacet
facet normal 0.000000 1.000000 -0.000000
outer loop
vertex 1370.771729 429.188751 3600.000000
vertex 450.000000 429.188843 4050.000000
vertex 1370.771729 429.188843 4050.000000
endloop
endfacet
facet normal 0.000000 -1.000000 0.000000
outer loop
vertex 450.000000 -429.187500 3600.000000
vertex 1370.771729 -429.187500 3600.000000
vertex 1370.771729 -429.187408 4050.000000
endloop
endfacet
facet normal 0.000000 -1.000000 0.000000
outer loop
vertex 450.000000 -429.187500 3600.000000
vertex 1370.771729 -429.187408 4050.000000
vertex 450.000000 -429.187408 4050.000000
endloop
endfacet
facet normal 0.000000 -1.000000 0.000000
outer loop
vertex -450.000000 -449.999420 3600.000000
vertex 450.000000 -449.999420 3600.000000
vertex 450.000000 -449.999329 4050.000000
endloop
endfacet
facet normal 0.000000 -1.000000 0.000000
outer loop
vertex -450.000000 -449.999420 3600.000000
vertex 450.000000 -449.999329 4050.000000
vertex -450.000000 -449.999329 4050.000000
endloop
endfacet
facet normal -1.000000 0.000000 0.000000
outer loop
vertex -450.000000 450.000580 3600.000000
vertex -450.000000 -449.999420 3600.000000
vertex -450.000000 -449.999329 4050.000000
endloop
endfacet
facet normal -1.000000 0.000000 0.000000
outer loop
vertex -450.000000 450.000580 3600.000000
vertex -450.000000 -449.999329 4050.000000
vertex -450.000000 450.000671 4050.000000
endloop
endfacet
facet normal 0.000000 -1.000000 0.000000
outer loop
vertex -450.000000 -449.999329 4050.000000
vertex 450.000000 -449.999329 4050.000000
vertex 450.000000 -449.999268 4500.000000
endloop
endfacet
facet normal 0.000000 -1.000000 0.000000
outer loop
vertex -450.000000 -449.999329 4050.000000
vertex 450.000000 -449.999268 4500.000000
vertex -450.000000 -449.999268 4500.000000
endloop
endfacet
facet normal -1.000000 0.000000 0.000000
outer loop
vertex -450.000000 450.000671 4050.000000
vertex -450.000000 -449.999329 4050.000000
vertex -450.000000 -449.999268 4500.000000
endloop
endfacet
facet normal -1.000000 0.000000 0.000000
outer loop
vertex -450.000000 450.000671 4050.000000
vertex -450.000000 -449.999268 4500.000000
vertex -450.000000 450.000732 4500.000000
endloop
endfacet
facet normal 1.000000 0.000000 0.000000
outer loop
vertex 450.000000 429.188843 4050.000000
vertex 450.000000 450.000671 4050.000000
vertex 450.000000 450.000732 4500.000000
endloop
endfacet
facet normal 1.000000 0.000000 0.000000
outer loop
vertex 450.000000 429.188843 4050.000000
vertex 450.000000 450.000732 4500.000000
vertex 450.000000 429.188904 4500.000000
endloop
endfacet
facet normal 1.000000 0.000000 0.000000
outer loop
vertex 1370.771729 -429.187408 4050.000000
vertex 1370.771729 429.188843 4050.000000
vertex 1370.771729 429.188904 4500.000000
endloop
endfacet
facet normal 1.000000 0.000000 0.000000
outer loop
vertex 1370.771729 -429.187408 4050.000000
vertex 1370.771729 429.188904 4500.000000
vertex 1370.771729 -429.187347 4500.000000
endloop
endfacet
facet normal 1.000000 0.000000 0.000000
outer loop
vertex 450.000000 -449.999329 4050.000000
vertex 450.000000 -429.187408 4050.000000
vertex 450.000000 -429.187347 4500.000000
endloop
endfacet
facet normal 1.000000 0.000000 0.000000
outer loop
vertex 450.000000 -449.999329 4050.000000
vertex 450.000000 -429.187347 4500.000000
vertex 450.000000 -449.999268 4500.000000
endloop
endfacet
facet normal 0.000000 1.000000 -0.000000
outer loop
vertex 450.000000 450.000671 4050.000000
vertex -450.000000 450.000671 4050.000000
vertex -450.000000 450.000732 4500.000000
endloop
endfacet
facet normal 0.000000 1.000000 -0.000000
outer loop
vertex 450.000000 450.000671 4050.000000
vertex -450.000000 450.000732 4500.000000
vertex 450.000000 450.000732 4500.000000
endloop
endfacet
facet normal 0.000000 1.000000 -0.000000
outer loop
vertex 1370.771729 429.188843 4050.000000
vertex 450.000000 429.188843 4050.000000
vertex 450.000000 429.188904 4500.000000
endloop
endfacet
facet normal 0.000000 1.000000 -0.000000
outer loop
vertex 1370.771729 429.188843 4050.000000
vertex 450.000000 429.188904 4500.000000
vertex 1370.771729 429.188904 4500.000000
endloop
endfacet
facet normal 0.000000 -1.000000 0.000000
outer loop
vertex 450.000000 -429.187408 4050.000000
vertex 1370.771729 -429.187408 4050.000000
vertex 1370.771729 -429.187347 4500.000000
endloop
endfacet
facet normal 0.000000 -1.000000 0.000000
outer loop
vertex 450.000000 -429.187408 4050.000000
vertex 1370.771729 -429.187347 4500.000000
vertex 450.000000 -429.187347 4500.000000
endloop
endfacet
facet normal 0.000000 1.000000 -0.000000
outer loop
vertex 450.000000 450.000732 4500.000000
vertex -450.000000 450.000732 4500.000000
vertex -450.000000 450.000793 4950.000000
endloop
endfacet
facet normal 0.000000 1.000000 -0.000000
outer loop
vertex 450.000000 450.000732 4500.000000
vertex -450.000000 450.000793 4950.000000
vertex 450.000000 450.000793 4950.000000
endloop
endfacet
facet normal 0.000000 1.000000 -0.000000
outer loop
vertex 1370.771729 429.188904 4500.000000
vertex 450.000000 429.188904 4500.000000
vertex 450.000000 429.188965 4950.000000
endloop
endfacet
facet normal 0.000000 1.000000 -0.000000
outer loop
vertex 1370.771729 429.188904 4500.000000
vertex 450.000000 429.188965 4950.000000
vertex 1370.771729 429.188965 4950.000000
endloop
endfacet
facet normal 0.000000 -1.000000 0.000000
outer loop
vertex 450.000000 -429.187347 4500.000000
vertex 1370.771729 -429.187347 4500.000000
vertex 1370.771729 -429.187286 4950.000000
endloop
endfacet
facet normal 0.000000 -1.000000 0.000000
outer loop
vertex 450.000000 -429.187347 4500.000000
vertex 1370.771729 -429.187286 4950.000000
vertex 450.000000 -429.187286 4950.000000
endloop
endfacet
facet normal 0.000000 -1.000000 0.000000
outer loop
vertex -450.000000 -449.999268 4500.000000
vertex 450.000000 -449.999268 4500.000000
vertex 450.000000 -449.999207 4950.000000
endloop
endfacet
facet normal 0.000000 -1.000000 0.000000
outer loop
vertex -450.000000 -449.999268 4500.000000
vertex 450.000000 -449.999207 4950.000000
vertex -450.000000 -449.999207 4950.000000
endloop
endfacet
facet normal -1.000000 0.000000 0.000000
outer loop
vertex -450.000000 450.000732 4500.000000
vertex -450.000000 -449.999268 4500.000000
vertex -450.000000 -449.999207 4950.000000
endloop
endfacet
facet normal -1.000000 0.000000 0.000000
outer loop
vertex -450.000000 450.000732 4500.000000
vertex -450.000000 -449.999207 4950.000000
vertex -450.000000 450.000793 4950.000000
endloop
endfacet
facet normal 1.000000 0.000000 0.000000
outer loop
vertex 450.000000 429.188904 4500.000000
vertex 450.000000 450.000732 4500.000000
vertex 450.000000 450.000793 4950.000000
endloop
endfacet
facet normal 1.000000 0.000000 0.000000
outer loop
vertex 450.000000 429.188904 4500.000000
vertex 450.000000 450.000793 4950.000000
vertex 450.000000 429.188965 4950.000000
endloop
endfacet
facet normal 1.000000 0.000000 0.000000
outer loop
vertex 1370.771729 -429.187347 4500.000000
vertex 1370.771729 429.188904 4500.000000
vertex 1370.771729 429.188965 4950.000000
endloop
endfacet
facet normal 1.000000 0.000000 0.000000
outer loop
vertex 1370.771729 -429.187347 4500.000000
vertex 1370.771729 429.188965 4950.000000
vertex 1370.771729 -429.187286 4950.000000
endloop
endfacet
facet normal 1.000000 0.000000 0.000000
outer loop
vertex 450.000000 -449.999268 4500.000000
vertex 450.000000 -429.187347 4500.000000
vertex 450.000000 -429.187286 4950.000000
endloop
endfacet
facet normal 1.000000 0.000000 0.000000
outer loop
vertex 450.000000 -449.999268 4500.000000
vertex 450.000000 -429.187286 4950.000000
vertex 450.000000 -449.999207 4950.000000
endloop
endfacet
facet normal 1.000000 0.000000 0.000000
outer loop
vertex 450.000000 -449.999207 4950.000000
vertex 450.000000 -429.187286 4950.000000
vertex 450.000000 -429.187195 5400.000000
endloop
endfacet
facet normal 1.000000 0.000000 0.000000
outer loop
vertex 450.000000 -449.999207 4950.000000
vertex 450.000000 -429.187195 5400.000000
vertex 450.000000 -449.999115 5400.000000
endloop
endfacet
facet normal 0.000000 1.000000 -0.000000
outer loop
vertex 450.000000 450.000793 4950.000000
vertex -450.000000 450.000793 4950.000000
vertex -450.000000 450.000885 5400.000000
endloop
endfacet
facet normal 0.000000 1.000000 0.000000
outer loop
vertex 450.000000 450.000793 4950.000000
vertex -450.000000 450.000885 5400.000000
vertex 450.000000 450.000885 5400.000000
endloop
endfacet
facet normal 0.000000 1.000000 -0.000000
outer loop
vertex 1370.771729 429.188965 4950.000000
vertex 450.000000 429.188965 4950.000000
vertex 450.000000 429.189056 5400.000000
endloop
endfacet
facet normal 0.000000 1.000000 -0.000000
outer loop
vertex 1370.771729 429.188965 4950.000000
vertex 450.000000 429.189056 5400.000000
vertex 1370.771729 429.189056 5400.000000
endloop
endfacet
facet normal 0.000000 -1.000000 0.000000
outer loop
vertex 450.000000 -429.187286 4950.000000
vertex 1370.771729 -429.187286 4950.000000
vertex 1370.771729 -429.187195 5400.000000
endloop
endfacet
facet normal 0.000000 -1.000000 0.000000
outer loop
vertex 450.000000 -429.187286 4950.000000
vertex 1370.771729 -429.187195 5400.000000
vertex 450.000000 -429.187195 5400.000000
endloop
endfacet
facet normal 0.000000 -1.000000 0.000000
outer loop
vertex -450.000000 -449.999207 4950.000000
vertex 450.000000 -449.999207 4950.000000
vertex 450.000000 -449.999115 5400.000000
endloop
endfacet
facet normal 0.000000 -1.000000 0.000000
outer loop
vertex -450.000000 -449.999207 4950.000000
vertex 450.000000 -449.999115 5400.000000
vertex -450.000000 -449.999115 5400.000000
endloop
endfacet
facet normal -1.000000 0.000000 0.000000
outer loop
vertex -450.000000 450.000793 4950.000000
vertex -450.000000 -449.999207 4950.000000
vertex -450.000000 -449.999115 5400.000000
endloop
endfacet
facet normal -1.000000 0.000000 0.000000
outer loop
vertex -450.000000 450.000793 4950.000000
vertex -450.000000 -449.999115 5400.000000
vertex -450.000000 450.000885 5400.000000
endloop
endfacet
facet normal 1.000000 0.000000 0.000000
outer loop
vertex 450.000000 429.188965 4950.000000
vertex 450.000000 450.000793 4950.000000
vertex 450.000000 450.000885 5400.000000
endloop
endfacet
facet normal 1.000000 0.000000 0.000000
outer loop
vertex 450.000000 429.188965 4950.000000
vertex 450.000000 450.000885 5400.000000
vertex 450.000000 429.189056 5400.000000
endloop
endfacet
facet normal 1.000000 0.000000 0.000000
outer loop
vertex 1370.771729 -429.187286 4950.000000
vertex 1370.771729 429.188965 4950.000000
vertex 1370.771729 429.189056 5400.000000
endloop
endfacet
facet normal 1.000000 0.000000 0.000000
outer loop
vertex 1370.771729 -429.187286 4950.000000
vertex 1370.771729 429.189056 5400.000000
vertex 1370.771729 -429.187195 5400.000000
endloop
endfacet
facet normal -1.000000 0.000000 0.000000
outer loop
vertex -450.000000 450.000885 5400.000000
vertex -450.000000 -449.999115 5400.000000
vertex -450.000000 -449.999054 5850.000000
endloop
endfacet
facet normal -1.000000 0.000000 0.000000
outer loop
vertex -450.000000 450.000885 5400.000000
vertex -450.000000 -449.999054 5850.000000
vertex -450.000000 450.000946 5850.000000
endloop
endfacet
facet normal 1.000000 0.000000 0.000000
outer loop
vertex 450.000000 429.189056 5400.000000
vertex 450.000000 450.000885 5400.000000
vertex 450.000000 450.000946 5850.000000
endloop
endfacet
facet normal 1.000000 0.000000 0.000000
outer loop
vertex 450.000000 429.189056 5400.000000
vertex 450.000000 450.000946 5850.000000
vertex 450.000000 429.189117 5850.000000
endloop
endfacet
facet normal 1.000000 0.000000 0.000000
outer loop
vertex 1370.771729 -429.187195 5400.000000
vertex 1370.771729 429.189056 5400.000000
vertex 1370.771729 429.189117 5850.000000
endloop
endfacet
facet normal 1.000000 0.000000 0.000000
outer loop
vertex 1370.771729 -429.187195 5400.000000
vertex 1370.771729 429.189117 5850.000000
vertex 1370.771729 -429.187134 5850.000000
endloop
endfacet
facet normal 1.000000 0.000000 0.000000
outer loop
vertex 450.000000 -449.999115 5400.000000
vertex 450.000000 -429.187195 5400.000000
vertex 450.000000 -429.187134 5850.000000
endloop
endfacet
facet normal 1.000000 0.000000 0.000000
outer loop
vertex 450.000000 -449.999115 5400.000000
vertex 450.000000 -429.187134 5850.000000
vertex 450.000000 -449.999054 5850.000000
endloop
endfacet
facet normal 0.000000 1.000000 -0.000000
outer loop
vertex 450.000000 450.000885 5400.000000
vertex -450.000000 450.000885 5400.000000
vertex -450.000000 450.000946 5850.000000
endloop
endfacet
facet normal 0.000000 1.000000 -0.000000
outer loop
vertex 450.000000 450.000885 5400.000000
vertex -450.000000 450.000946 5850.000000
vertex 450.000000 450.000946 5850.000000
endloop
endfacet
facet normal 0.000000 1.000000 -0.000000
outer loop
vertex 1370.771729 429.189056 5400.000000
vertex 450.000000 429.189056 5400.000000
vertex 450.000000 429.189117 5850.000000
endloop
endfacet
facet normal 0.000000 1.000000 -0.000000
outer loop
vertex 1370.771729 429.189056 5400.000000
vertex 450.000000 429.189117 5850.000000
vertex 1370.771729 429.189117 5850.000000
endloop
endfacet
facet normal 0.000000 -1.000000 0.000000
outer loop
vertex 450.000000 -429.187195 5400.000000
vertex 1370.771729 -429.187195 5400.000000
vertex 1370.771729 -429.187134 5850.000000
endloop
endfacet
facet normal 0.000000 -1.000000 0.000000
outer loop
vertex 450.000000 -429.187195 5400.000000
vertex 1370.771729 -429.187134 5850.000000
vertex 450.000000 -429.187134 5850.000000
endloop
endfacet
facet normal 0.000000 -1.000000 0.000000
outer loop
vertex -450.000000 -449.999115 5400.000000
vertex 450.000000 -449.999115 5400.000000
vertex 450.000000 -449.999054 5850.000000
endloop
endfacet
facet normal 0.000000 -1.000000 0.000000
outer loop
vertex -450.000000 -449.999115 5400.000000
vertex 450.000000 -449.999054 5850.000000
vertex -450.000000 -449.999054 5850.000000
endloop
endfacet
endsolid building_006
