solid building_030
facet normal 0.000000 0.000000 1.000000
outer loop
vertex -750.000000 -374.999359 3900.000000
vertex 750.000000 -374.999359 3900.000000
vertex 750.000000 375.000641 3900.000000
endloop
endfacet
facet normal 0.000000 0.000000 1.000000
outer loop
vertex -750.000000 -374.999359 3900.000000
vertex 750.000000 375.000641 3900.000000
vertex -750.000000 375.000641 3900.000000
endloop
endfacet
facet normal 1.000000 0.000000 0.000000
outer loop
vertex 750.000000 -375.000000 0.000061
vertex 750.000000 375.000000 -0.000061
vertex 750.000000 375.000061 299.999939
endloop
endfacet
facet normal 1.000000 0.000000 0.000000
outer loop
vertex 750.000000 -375.000000 0.000061
vertex 750.000000 375.000061 299.999939
vertex 750.000000 -374.999939 300.000061
endloop
endfacet
facet normal -1.000000 0.000000 0.000000
outer loop
vertex -750.000000 375.000000 -0.000061
vertex -750.000000 -375.000000 0.000061
vertex -750.000000 -374.999939 300.000061
endloop
endfacet
facet normal -1.000000 0.000000 0.000000
outer loop
vertex -750.000000 375.000000 -0.000061
vertex -750.000000 -374.999939 300.000061
vertex -750.000000 375.000061 299.999939
endloop
endfacet
facet normal 0.000000 1.000000 -0.000000
outer loop
vertex 750.000000 375.000000 -0.000061
vertex -750.000000 375.000000 -0.000061
vertex -750.000000 375.000061 299.999939
endloop
endfacet
facet normal 0.000000 1.000000 0.000000
outer loop
vertex 750.000000 375.000000 -0.000061
vertex -750.000000 375.000061 299.999939
vertex 750.000000 375.000061 299.999939
endloop
endfacet
facet normal 0.000000 -1.000000 0.000000
outer loop
vertex -750.000000 -375.000000 0.000061
vertex 750.000000 -375.000000 0.000061
vertex 750.000000 -374.999939 300.000061
endloop
endfacet
facet normal 0.000000 -1.000000 0.000000
outer loop
vertex -750.000000 -375.000000 0.000061
vertex 750.000000 -374.999939 300.000061
vertex -750.000000 -374.999939 300.000061
endloop
endfacet
facet normal 0.000000 1.000000 0.000000
outer loop
vertex 750.000000 375.000061 299.999939
vertex -750.000000 375.000061 299.999939
vertex -750.000000 375.000092 599.999939
endloop
endfacet
facet normal 0.000000 1.000000 -0.000000
outer loop
vertex 750.000000 375.000061 299.999939
vertex -750.000000 375.000092 599.999939
vertex 750.000000 375.000092 599.999939
endloop
endfacet
facet normal 0.000000 -1.000000 0.000000
outer loop
vertex -750.000000 -374.999939 300.000061
vertex 750.000000 -374.999939 300.000061
vertex 750.000000 -374.999908 600.000061
endloop
endfacet
facet normal 0.000000 -1.000000 0.000000
outer loop
vertex -750.000000 -374.999939 300.000061
vertex 750.000000 -374.999908 600.000061
vertex -750.000000 -374.999908 600.000061
endloop
endfacet
facet normal -1.000000 0.000000 0.000000
outer loop
vertex -750.000000 375.000061 299.999939
vertex -750.000000 -374.999939 300.000061
vertex -750.000000 -374.999908 600.000061
endloop
endfacet
facet normal -1.000000 0.000000 0.000000
outer loop
vertex -750.000000 375.000061 299.999939
vertex -750.000000 -374.999908 600.000061
vertex -750.000000 375.000092 599.999939
endloop
endfacet
facet normal 1.000000 0.000000 0.000000
outer loop
vertex 750.000000 -374.999939 300.000061
vertex 750.000000 375.000061 299.999939
vertex 750.000000 375.000092 599.999939
endloop
endfacet
facet normal 1.000000 0.000000 0.000000
outer loop
vertex 750.000000 -374.999939 300.000061
vertex 750.000000 375.000092 599.999939
vertex 750.000000 -374.999908 600.000061
endloop
endfacet
facet normal -1.000000 0.000000 0.000000
outer loop
vertex -750.000000 375.000092 599.999939
vertex -750.000000 -374.999908 600.000061
vertex -750.000000 -374.999847 900.000061
endloop
endfacet
facet normal -1.000000 0.000000 0.000000
outer loop
vertex -750.000000 375.000092 599.999939
vertex -750.000000 -374.999847 900.000061
vertex -750.000000 375.000153 899.999939
endloop
endfacet
facet normal 1.000000 0.000000 0.000000
outer loop
vertex 750.000000 -374.999908 600.000061
vertex 750.000000 375.000092 599.999939
vertex 750.000000 375.000153 899.999939
endloop
endfacet
facet normal 1.000000 0.000000 0.000000
outer loop
vertex 750.000000 -374.999908 600.000061
vertex 750.000000 375.000153 899.999939
vertex 750.000000 -374.999847 900.000061
endloop
endfacet
facet normal 0.000000 1.000000 -0.000000
outer loop
vertex 750.000000 375.000092 599.999939
vertex -750.000000 375.000092 599.999939
vertex -750.000000 375.000153 899.999939
endloop
endfacet
facet normal 0.000000 1.000000 -0.000000
outer loop
vertex 750.000000 375.000092 599.999939
vertex -750.000000 375.000153 899.999939
vertex 750.000000 375.000153 899.999939
endloop
endfacet
facet normal 0.000000 -1.000000 0.000000
outer loop
vertex -750.000000 -374.999908 600.000061
vertex 750.000000 -374.999908 600.000061
vertex 750.000000 -374.999847 900.000061
endloop
endfacet
facet normal 0.000000 -1.000000 0.000000
outer loop
vertex -750.000000 -374.999908 600.000061
vertex 750.000000 -374.999847 900.000061
vertex -750.000000 -374.999847 900.000061
endloop
endfacet
facet normal 0.000000 1.000000 0.000000
outer loop
vertex 750.000000 375.000153 899.999939
vertex -750.000000 375.000153 899.999939
vertex -750.000000 375.000183 1199.999878
endloop
endfacet
facet normal 0.000000 1.000000 0.000000
outer loop
vertex 750.000000 375.000153 899.999939
vertex -750.000000 375.000183 1199.999878
vertex 750.000000 375.000183 1199.999878
endloop
endfacet
facet normal 0.000000 -1.000000 0.000000
outer loop
vertex -750.000000 -374.999847 900.000061
vertex 750.000000 -374.999847 900.000061
vertex 750.000000 -374.999817 1200.000122
endloop
endfacet
facet normal 0.000000 -1.000000 0.000000
outer loop
vertex -750.000000 -374.999847 900.000061
vertex 750.000000 -374.999817 1200.000122
vertex -750.000000 -374.999817 1200.000122
endloop
endfacet
facet normal -1.000000 0.000000 0.000000
outer loop
vertex -750.000000 375.000153 899.999939
vertex -750.000000 -374.999847 900.000061
vertex -750.000000 -374.999817 1200.000122
endloop
endfacet
facet normal -1.000000 0.000000 0.000000
outer loop
vertex -750.000000 375.000153 899.999939
vertex -750.000000 -374.999817 1200.000122
vertex -750.000000 375.000183 1199.999878
endloop
endfacet
facet normal 1.000000 0.000000 0.000000
outer loop
vertex 750.000000 -374.999847 900.000061
vertex 750.000000 375.000153 899.999939
vertex 750.000000 375.000183 1199.999878
endloop
endfacet
facet normal 1.000000 0.000000 0.000000
outer loop
vertex 750.000000 -374.999847 900.000061
vertex 750.000000 375.000183 1199.999878
vertex 750.000000 -374.999817 1200.000122
endloop
endfacet
facet normal 0.000000 -1.000000 0.000000
outer loop
vertex -750.000000 -374.999817 1200.000122
vertex 750.000000 -374.999817 1200.000122
vertex 750.000000 -374.999756 1500.000122
endloop
endfacet
facet normal 0.000000 -1.000000 0.000000
outer loop
vertex -750.000000 -374.999817 1200.000122
vertex 750.000000 -374.999756 1500.000122
vertex -750.000000 -374.999756 1500.000122
endloop
endfacet
facet normal -1.000000 0.000000 0.000000
outer loop
vertex -750.000000 375.000183 1199.999878
vertex -750.000000 -374.999817 1200.000122
vertex -750.000000 -374.999756 1500.000122
endloop
endfacet
facet normal -1.000000 0.000000 0.000000
outer loop
vertex -750.000000 375.000183 1199.999878
vertex -750.000000 -374.999756 1500.000122
vertex -750.000000 375.000244 1499.999878
endloop
endfacet
facet normal 1.000000 0.000000 0.000000
outer loop
vertex 750.000000 -374.999817 1200.000122
vertex 750.000000 375.000183 1199.999878
vertex 750.000000 375.000244 1499.999878
endloop
endfacet
facet normal 1.000000 0.000000 0.000000
outer loop
vertex 750.000000 -374.999817 1200.000122
vertex 750.000000 375.000244 1499.999878
vertex 750.000000 -374.999756 1500.000122
endloop
endfacet
facet normal 0.000000 1.000000 -0.000000
outer loop
vertex 750.000000 375.000183 1199.999878
vertex -750.000000 375.000183 1199.999878
vertex -750.000000 375.000244 1499.999878
endloop
endfacet
facet normal 0.000000 1.000000 -0.000000
outer loop
vertex 750.000000 375.000183 1199.999878
vertex -750.000000 375.000244 1499.999878
vertex 750.000000 375.000244 1499.999878
endloop
endfacet
facet normal -1.000000 0.000000 0.000000
outer loop
vertex -750.000000 375.000244 1499.999878
vertex -750.000000 -374.999756 1500.000122
vertex -750.000000 -374.999695 1800.000122
endloop
endfacet
facet normal -1.000000 0.000000 0.000000
outer loop
vertex -750.000000 375.000244 1499.999878
vertex -750.000000 -374.999695 1800.000122
vertex -750.000000 375.000305 1799.999878
endloop
endfacet
facet normal 1.000000 0.000000 0.000000
outer loop
vertex 750.000000 -374.999756 1500.000122
vertex 750.000000 375.000244 1499.999878
vertex 750.000000 375.000305 1799.999878
endloop
endfacet
facet normal 1.000000 0.000000 0.000000
outer loop
vertex 750.000000 -374.999756 1500.000122
vertex 750.000000 375.000305 1799.999878
vertex 750.000000 -374.999695 1800.000122
endloop
endfacet
facet normal 0.000000 1.000000 -0.000000
outer loop
vertex 750.000000 375.000244 1499.999878
vertex -750.000000 375.000244 1499.999878
vertex -750.000000 375.000305 1799.999878
endloop
endfacet
facet normal 0.000000 1.000000 0.000000
outer loop
vertex 750.000000 375.000244 1499.999878
vertex -750.000000 375.000305 1799.999878
vertex 750.000000 375.000305 1799.999878
endloop
endfacet
facet normal 0.000000 -1.000000 0.000000
outer loop
vertex -750.000000 -374.999756 1500.000122
vertex 750.000000 -374.999756 1500.000122
vertex 750.000000 -374.999695 1800.000122
endloop
endfacet
facet normal 0.000000 -1.000000 0.000000
outer loop
vertex -750.000000 -374.999756 1500.000122
vertex 750.000000 -374.999695 1800.000122
vertex -750.000000 -374.999695 1800.000122
endloop
endfacet
facet normal 0.000000 1.000000 0.000000
outer loop
vertex 750.000000 375.000305 1799.999878
vertex -750.000000 375.000305 1799.999878
vertex -750.000000 375.000336 2100.000000
endloop
endfacet
facet normal 0.000000 1.000000 -0.000000
outer loop
vertex 750.000000 375.000305 1799.999878
vertex -750.000000 375.000336 2100.000000
vertex 750.000000 375.000336 2100.000000
endloop
endfacet
facet normal 0.000000 -1.000000 0.000000
outer loop
vertex -750.000000 -374.999695 1800.000122
vertex 750.000000 -374.999695 1800.000122
vertex 750.000000 -374.999664 2100.000000
endloop
endfacet
facet normal 0.000000 -1.000000 0.000000
outer loop
vertex -750.000000 -374.999695 1800.000122
vertex 750.000000 -374.999664 2100.000000
vertex -750.000000 -374.999664 2100.000000
endloop
endfacet
facet normal -1.000000 0.000000 0.000000
outer loop
vertex -750.000000 375.000305 1799.999878
vertex -750.000000 -374.999695 1800.000122
vertex -750.000000 -374.999664 2100.000000
endloop
endfacet
facet normal -1.000000 0.000000 0.000000
outer loop
vertex -750.000000 375.000305 1799.999878
vertex -750.000000 -374.999664 2100.000000
vertex -750.000000 375.000336 2100.000000
endloop
endfacet
facet normal 1.000000 0.000000 0.000000
outer loop
vertex 750.000000 -374.999695 1800.000122
vertex 750.000000 375.000305 1799.999878
vertex 750.000000 375.000336 2100.000000
endloop
endfacet
facet normal 1.000000 0.000000 0.000000
outer loop
vertex 750.000000 -374.999695 1800.000122
vertex 750.000000 375.000336 2100.000000
vertex 750.000000 -374.999664 2100.000000
endloop
endfacet
facet normal -1.000000 0.000000 0.000000
outer loop
vertex -750.000000 375.000336 2100.000000
vertex -750.000000 -374.999664 2100.000000
vertex -750.000000 -374.999603 2400.000000
endloop
endfacet
facet normal -1.000000 0.000000 0.000000
outer loop
vertex -750.000000 375.000336 2100.000000
vertex -750.000000 -374.999603 2400.000000
vertex -750.000000 375.000397 2400.000000
endloop
endfacet
facet normal 1.000000 0.000000 0.000000
outer loop
vertex 750.000000 -374.999664 2100.000000
vertex 750.000000 375.000336 2100.000000
vertex 750.000000 375.000397 2400.000000
endloop
endfacet
facet normal 1.000000 0.000000 0.000000
outer loop
vertex 750.000000 -374.999664 2100.000000
vertex 750.000000 375.000397 2400.000000
vertex 750.000000 -374.999603 2400.000000
endloop
endfacet
facet normal 0.000000 1.000000 -0.000000
outer loop
vertex 750.000000 375.000336 2100.000000
vertex -750.000000 375.000336 2100.000000
vertex -750.000000 375.000397 2400.000000
endloop
endfacet
facet normal 0.000000 1.000000 -0.000000
outer loop
vertex 750.000000 375.000336 2100.000000
vertex -750.000000 375.000397 2400.000000
vertex 750.000000 375.000397 2400.000000
endloop
endfacet
facet normal 0.000000 -1.000000 0.000000
outer loop
vertex -750.000000 -374.999664 2100.000000
vertex 750.000000 -374.999664 2100.000000
vertex 750.000000 -374.999603 2400.000000
endloop
endfacet
facet normal 0.000000 -1.000000 0.000000
outer loop
vertex -750.000000 -374.999664 2100.000000
vertex 750.000000 -374.999603 2400.000000
vertex -750.000000 -374.999603 2400.000000
endloop
endfacet
facet normal 1.000000 0.000000 0.000000
outer loop
vertex 750.000000 -374.999603 2400.000000
vertex 750.000000 375.000397 2400.000000
vertex 750.000000 375.000427 2700.000000
endloop
endfacet
facet normal 1.000000 0.000000 0.000000
outer loop
vertex 750.000000 -374.999603 2400.000000
vertex 750.000000 375.000427 2700.000000
vertex 750.000000 -374.999573 2700.000000
endloop
endfacet
facet normal 0.000000 1.000000 0.000000
outer loop
vertex 750.000000 375.000397 2400.000000
vertex -750.000000 375.000397 2400.000000
vertex -750.000000 375.000427 2700.000000
endloop
endfacet
facet normal 0.000000 1.000000 0.000000
outer loop
vertex 750.000000 375.000397 2400.000000
vertex -750.000000 375.000427 2700.000000
vertex 750.000000 375.000427 2700.000000
endloop
endfacet
facet normal 0.000000 -1.000000 0.000000
outer loop
vertex -750.000000 -374.999603 2400.000000
vertex 750.000000 -374.999603 2400.000000
vertex 750.000000 -374.999573 2700.000000
endloop
endfacet
facet normal 0.000000 -1.000000 0.000000
outer loop
vertex -750.000000 -374.999603 2400.000000
vertex 750.000000 -374.999573 2700.000000
vertex -750.000000 -374.999573 2700.000000
endloop
endfacet
facet normal -1.000000 0.000000 0.000000
outer loop
vertex -750.000000 375.000397 2400.000000
vertex -750.000000 -374.999603 2400.000000
vertex -750.000000 -374.999573 2700.000000
endloop
endfacet
facet normal -1.000000 0.000000 0.000000
outer loop
vertex -750.000000 375.000397 2400.000000
vertex -750.000000 -374.999573 2700.000000
vertex -750.000000 375.000427 2700.000000
endloop
endfacet
facet normal 0.000000 1.000000 -0.000000
outer loop
vertex 750.000000 375.000427 2700.000000
vertex -750.000000 375.000427 2700.000000
vertex -750.000000 375.000488 3000.000000
endloop
endfacet
facet normal 0.000000 1.000000 -0.000000
outer loop
vertex 750.000000 375.000427 2700.000000
vertex -750.000000 375.000488 3000.000000
vertex 750.000000 375.000488 3000.000000
endloop
endfacet
facet normal 0.000000 -1.000000 0.000000
outer loop
vertex -750.000000 -374.999573 2700.000000
vertex 750.000000 -374.999573 2700.000000
vertex 750.000000 -374.999512 3000.000000
endloop
endfacet
facet normal 0.000000 -1.000000 0.000000
outer loop
vertex -750.000000 -374.999573 2700.000000
vertex 750.000000 -374.999512 3000.000000
vertex -750.000000 -374.999512 3000.000000
endloop
endfacet
facet normal -1.000000 0.000000 0.000000
outer loop
vertex -750.000000 375.000427 2700.000000
vertex -750.000000 -374.999573 2700.000000
vertex -750.000000 -374.999512 3000.000000
endloop
endfacet
facet normal -1.000000 0.000000 0.000000
outer loop
vertex -750.000000 375.000427 2700.000000
vertex -750.000000 -374.999512 3000.000000
vertex -750.000000 375.000488 3000.000000
endloop
endfacet
facet normal 1.000000 0.000000 0.000000
outer loop
vertex 750.000000 -374.999573 2700.000000
vertex 750.000000 375.000427 2700.000000
vertex 750.000000 375.000488 3000.000000
endloop
endfacet
facet normal 1.000000 0.000000 0.000000
outer loop
vertex 750.000000 -374.999573 2700.000000
vertex 750.000000 375.000488 3000.000000
vertex 750.000000 -374.999512 3000.000000
endloop
endfacet
facet normal -1.000000 0.000000 0.000000
outer loop
vertex -750.000000 375.000488 3000.000000
vertex -750.000000 -374.999512 3000.000000
vertex -750.000000 -374.999451 3300.000000
endloop
endfacet
facet normal -1.000000 0.000000 0.000000
outer loop
vertex -750.000000 375.000488 3000.000000
vertex -750.000000 -374.999451 3300.000000
vertex -750.000000 375.000549 3300.000000
endloop
endfacet
facet normal 1.000000 0.000000 0.000000
outer loop
vertex 750.000000 -374.999512 3000.000000
vertex 750.000000 375.000488 3000.000000
vertex 750.000000 375.000549 3300.000000
endloop
endfacet
facet normal 1.000000 0.000000 0.000000
outer loop
vertex 750.000000 -374.999512 3000.000000
vertex 750.000000 375.000549 3300.000000
vertex 750.000000 -374.999451 3300.000000
endloop
endfacet
facet normal 0.000000 1.000000 0.000000
outer loop
vertex 750.000000 375.000488 3000.000000
vertex -750.000000 375.000488 3000.000000
vertex -750.000000 375.000549 3300.000000
endloop
endfacet
facet normal 0.000000 1.000000 -0.000000
outer loop
vertex 750.000000 375.000488 3000.000000
vertex -750.000000 375.000549 3300.000000
vertex 750.000000 375.000549 3300.000000
endloop
endfacet
facet normal 0.000000 -1.000000 0.000000
outer loop
vertex -750.000000 -374.999512 3000.000000
vertex 750.000000 -374.999512 3000.000000
vertex 750.000000 -374.999451 3300.000000
endloop
endfacet
facet normal 0.000000 -1.000000 0.000000
outer loop
vertex -750.000000 -374.999512 3000.000000
vertex 750.000000 -374.999451 3300.000000
vertex -750.000000 -374.999451 3300.000000
endloop
endfacet
facet normal 0.000000 1.000000 0.000000
outer loop
vertex 750.000000 375.000549 3300.000000
vertex -750.000000 375.000549 3300.000000
vertex -750.000000 375.000580 3600.000000
endloop
endfacet
facet normal 0.000000 1.000000 -0.000000
outer loop
vertex 750.000000 375.000549 3300.000000
vertex -750.000000 375.000580 3600.000000
vertex 750.000000 375.000580 3600.000000
endloop
endfacet
facet normal 0.000000 -1.000000 0.000000
outer loop
vertex -750.000000 -374.999451 3300.000000
vertex 750.000000 -374.999451 3300.000000
vertex 750.000000 -374.999420 3600.000000
endloop
endfacet
facet normal 0.000000 -1.000000 0.000000
outer loop
vertex -750.000000 -374.999451 3300.000000
vertex 750.000000 -374.999420 3600.000000
vertex -750.000000 -374.999420 3600.000000
endloop
endfacet
facet normal -1.000000 0.000000 0.000000
outer loop
vertex -750.000000 375.000549 3300.000000
vertex -750.000000 -374.999451 3300.000000
vertex -750.000000 -374.999420 3600.000000
endloop
endfacet
facet normal -1.000000 0.000000 0.000000
outer loop
vertex -750.000000 375.000549 3300.000000
vertex -750.000000 -374.999420 3600.000000
vertex -750.000000 375.000580 3600.000000
endloop
endfacet
facet normal 1.000000 0.000000 0.000000
outer loop
vertex 750.000000 -374.999451 3300.000000
vertex 750.000000 375.000549 3300.000000
vertex 750.000000 375.000580 3600.000000
endloop
endfacet
facet normal 1.000000 0.000000 0.000000
outer loop
vertex 750.000000 -374.999451 3300.000000
vertex 750.000000 375.000580 3600.000000
vertex 750.000000 -374.999420 3600.000000
endloop
endfacet
facet normal 0.000000 1.000000 -0.000000
outer loop
vertex 750.000000 375.000580 3600.000000
vertex -750.000000 375.000580 3600.000000
vertex -750.000000 375.000641 3900.000000
endloop
endfacet
facet normal 0.000000 1.000000 0.000000
outer loop
vertex 750.000000 375.000580 3600.000000
vertex -750.000000 375.000641 3900.000000
vertex 750.000000 375.000641 3900.000000
endloop
endfacet
facet normal 0.000000 -1.000000 0.000000
outer loop
vertex -750.000000 -374.999420 3600.000000
vertex 750.000000 -374.999420 3600.000000
vertex 750.000000 -374.999359 3900.000000
endloop
endfacet
facet normal 0.000000 -1.000000 0.000000
outer loop
vertex -750.000000 -374.999420 3600.000000
vertex 750.000000 -374.999359 3900.000000
vertex -750.000000 -374.999359 3900.000000
endloop
endfacet
facet normal -1.000000 0.000000 0.000000
outer loop
vertex -750.000000 375.000580 3600.000000
vertex -750.000000 -374.999420 3600.000000
vertex -750.000000 -374.999359 3900.000000
endloop
endfacet
facet normal -1.000000 0.000000 0.000000
outer loop
vertex -750.000000 375.000580 3600.000000
vertex -750.000000 -374.999359 3900.000000
vertex -750.000000 375.000641 3900.000000
endloop
endfacet
facet normal 1.000000 0.000000 0.000000
outer loop
vertex 750.000000 -374.999420 3600.000000
vertex 750.000000 375.000580 3600.000000
vertex 750.000000 375.000641 3900.000000
endloop
endfacet
facet normal 1.000000 0.000000 0.000000
outer loop
vertex 750.000000 -374.999420 3600.000000
vertex 750.000000 375.000641 3900.000000
vertex 750.000000 -374.999359 3900.000000
endloop
endfacet
endsolid building_030
