solid building_008
facet normal 0.000000 0.000000 1.000000
outer loop
vertex -750.000000 -599.999817 1200.000122
vertex 750.000000 -599.999817 1200.000122
vertex 750.000000 600.000183 1199.999878
endloop
endfacet
facet normal 0.000000 0.000000 1.000000
outer loop
vertex -750.000000 -599.999817 1200.000122
vertex 750.000000 600.000183 1199.999878
vertex -750.000000 600.000183 1199.999878
endloop
endfacet
facet normal 1.000000 0.000000 0.000000
outer loop
vertex 750.000000 -600.000000 0.000098
vertex 750.000000 600.000000 -0.000098
vertex 750.000000 600.000061 299.999908
endloop
endfacet
facet normal 1.000000 0.000000 0.000000
outer loop
vertex 750.000000 -600.000000 0.000098
vertex 750.000000 600.000061 299.999908
vertex 750.000000 -599.999939 300.000092
endloop
endfacet
facet normal -1.000000 0.000000 0.000000
outer loop
vertex -750.000000 600.000000 -0.000098
vertex -750.000000 -600.000000 0.000098
vertex -750.000000 -599.999939 300.000092
endloop
endfacet
facet normal -1.000000 0.000000 0.000000
outer loop
vertex -750.000000 600.000000 -0.000098
vertex -750.000000 -599.999939 300.000092
vertex -750.000000 600.000061 299.999908
endloop
endfacet
facet normal 0.000000 1.000000 0.000000
outer loop
vertex 750.000000 600.000000 -0.000098
vertex -750.000000 600.000000 -0.000098
vertex -750.000000 600.000061 299.999908
endloop
endfacet
facet normal 0.000000 1.000000 -0.000000
outer loop
vertex 750.000000 600.000000 -0.000098
vertex -750.000000 600.000061 299.999908
vertex 750.000000 600.000061 299.999908
endloop
endfacet
facet normal 0.000000 -1.000000 0.000000
outer loop
vertex -750.000000 -600.000000 0.000098
vertex 750.000000 -600.000000 0.000098
vertex 750.000000 -599.999939 300.000092
endloop
endfacet
facet normal 0.000000 -1.000000 0.000000
outer loop
vertex -750.000000 -600.000000 0.000098
vertex 750.000000 -599.999939 300.000092
vertex -750.000000 -599.999939 300.000092
endloop
endfacet
facet normal -1.000000 0.000000 0.000000
outer loop
vertex -750.000000 600.000061 299.999908
vertex -750.000000 -599.999939 300.000092
vertex -750.000000 -599.999878 600.000122
endloop
endfacet
facet normal -1.000000 -0.000000 0.000000
outer loop
vertex -750.000000 600.000061 299.999908
vertex -750.000000 -599.999878 600.000122
vertex -750.000000 600.000122 599.999878
endloop
endfacet
facet normal 1.000000 0.000000 0.000000
outer loop
vertex 750.000000 -599.999939 300.000092
vertex 750.000000 600.000061 299.999908
vertex 750.000000 600.000122 599.999878
endloop
endfacet
facet normal 1.000000 -0.000000 0.000000
outer loop
vertex 750.000000 -599.999939 300.000092
vertex 750.000000 600.000122 599.999878
vertex 750.000000 -599.999878 600.000122
endloop
endfacet
facet normal 0.000000 1.000000 -0.000001
outer loop
vertex 750.000000 600.000061 299.999908
vertex -750.000000 600.000061 299.999908
vertex -750.000000 600.000122 599.999878
endloop
endfacet
facet normal 0.000000 1.000000 0.000000
outer loop
vertex 750.000000 600.000061 299.999908
vertex -750.000000 600.000122 599.999878
vertex 750.000000 600.000122 599.999878
endloop
endfacet
facet normal 0.000000 -1.000000 0.000001
outer loop
vertex -750.000000 -599.999939 300.000092
vertex 750.000000 -599.999939 300.000092
vertex 750.000000 -599.999878 600.000122
endloop
endfacet
facet normal 0.000000 -1.000000 0.000000
outer loop
vertex -750.000000 -599.999939 300.000092
vertex 750.000000 -599.999878 600.000122
vertex -750.000000 -599.999878 600.000122
endloop
endfacet
facet normal 1.000000 0.000000 0.000000
outer loop
vertex 750.000000 -599.999878 600.000122
vertex 750.000000 600.000122 599.999878
vertex 750.000000 600.000122 899.999878
endloop
endfacet
facet normal 1.000000 0.000000 0.000000
outer loop
vertex 750.000000 -599.999878 600.000122
vertex 750.000000 600.000122 899.999878
vertex 750.000000 -599.999878 900.000122
endloop
endfacet
facet normal 0.000000 1.000000 0.000000
outer loop
vertex 750.000000 600.000122 599.999878
vertex -750.000000 600.000122 599.999878
vertex -750.000000 600.000122 899.999878
endloop
endfacet
facet normal 0.000000 1.000000 0.000000
outer loop
vertex 750.000000 600.000122 599.999878
vertex -750.000000 600.000122 899.999878
vertex 750.000000 600.000122 899.999878
endloop
endfacet
facet normal 0.000000 -1.000000 0.000000
outer loop
vertex -750.000000 -599.999878 600.000122
vertex 750.000000 -599.999878 600.000122
vertex 750.000000 -599.999878 900.000122
endloop
endfacet
facet normal 0.000000 -1.000000 0.000000
outer loop
vertex -750.000000 -599.999878 600.000122
vertex 750.000000 -599.999878 900.000122
vertex -750.000000 -599.999878 900.000122
endloop
endfacet
facet normal -1.000000 0.000000 0.000000
outer loop
vertex -750.000000 600.000122 599.999878
vertex -750.000000 -599.999878 600.000122
vertex -750.000000 -599.999878 900.000122
endloop
endfacet
facet normal -1.000000 0.000000 0.000000
outer loop
vertex -750.000000 600.000122 599.999878
vertex -750.000000 -599.999878 900.000122
vertex -750.000000 600.000122 899.999878
endloop
endfacet
facet normal 0.000000 1.000000 0.000000
outer loop
vertex 750.000000 600.000122 899.999878
vertex -750.000000 600.000122 899.999878
vertex -750.000000 600.000183 1199.999878
endloop
endfacet
facet normal 0.000000 1.000000 -0.000000
outer loop
vertex 750.000000 600.000122 899.999878
vertex -750.000000 600.000183 1199.999878
vertex 750.000000 600.000183 1199.999878
endloop
endfacet
facet normal 0.000000 -1.000000 0.000000
outer loop
vertex -750.000000 -599.999878 900.000122
vertex 750.000000 -599.999878 900.000122
vertex 750.000000 -599.999817 1200.000122
endloop
endfacet
facet normal 0.000000 -1.000000 0.000000
outer loop
vertex -750.000000 -599.999878 900.000122
vertex 750.000000 -599.999817 1200.000122
vertex -750.000000 -599.999817 1200.000122
endloop
endfacet
facet normal -1.000000 0.000000 0.000000
outer loop
vertex -750.000000 600.000122 899.999878
vertex -750.000000 -599.999878 900.000122
vertex -750.000000 -599.999817 1200.000122
endloop
endfacet
facet normal -1.000000 0.000000 0.000000
outer loop
vertex -750.000000 600.000122 899.999878
vertex -750.000000 -599.999817 1200.000122
vertex -750.000000 600.000183 1199.999878
endloop
endfacet
facet normal 1.000000 0.000000 0.000000
outer loop
vertex 750.000000 -599.999878 900.000122
vertex 750.000000 600.000122 899.999878
vertex 750.000000 600.000183 1199.999878
endloop
endfacet
facet normal 1.000000 0.000000 0.000000
outer loop
vertex 750.000000 -599.999878 900.000122
vertex 750.000000 600.000183 1199.999878
vertex 750.000000 -599.999817 1200.000122
endloop
endfacet
endsolid building_008
