solid building_036
facet normal 0.000000 0.000000 1.000000
outer loop
vertex 299.999786 -500.000000 1500.000000
vertex 299.999725 500.000000 1500.000000
vertex -300.000275 500.000000 1500.000000
endloop
endfacet
facet normal 0.000000 0.000000 1.000000
outer loop
vertex 299.999786 -500.000000 1500.000000
vertex -300.000275 500.000000 1500.000000
vertex -300.000214 -500.000000 1500.000000
endloop
endfacet
facet normal -1.000000 -0.000000 -0.000000
outer loop
vertex -300.000031 500.000000 -0.000049
vertex -299.999969 -500.000000 -0.000049
vertex -300.000031 -500.000000 299.999939
endloop
endfacet
facet normal -1.000000 -0.000000 -0.000000
outer loop
vertex -300.000031 500.000000 -0.000049
vertex -300.000031 -500.000000 299.999939
vertex -300.000092 500.000000 299.999939
endloop
endfacet
facet normal 1.000000 0.000000 0.000000
outer loop
vertex 300.000031 -500.000000 0.000049
vertex 299.999969 500.000000 0.000049
vertex 299.999908 500.000000 300.000061
endloop
endfacet
facet normal 1.000000 0.000000 0.000000
outer loop
vertex 300.000031 -500.000000 0.000049
vertex 299.999908 500.000000 300.000061
vertex 299.999969 -500.000000 300.000061
endloop
endfacet
facet normal 0.000000 1.000000 -0.000000
outer loop
vertex 299.999969 500.000000 0.000049
vertex -300.000031 500.000000 -0.000049
vertex -300.000092 500.000000 299.999939
endloop
endfacet
facet normal 0.000000 1.000000 0.000000
outer loop
vertex 299.999969 500.000000 0.000049
vertex -300.000092 500.000000 299.999939
vertex 299.999908 500.000000 300.000061
endloop
endfacet
facet normal 0.000000 -1.000000 0.000000
outer loop
vertex -299.999969 -500.000000 -0.000049
vertex 300.000031 -500.000000 0.000049
vertex 299.999969 -500.000000 300.000061
endloop
endfacet
facet normal 0.000000 -1.000000 0.000000
outer loop
vertex -299.999969 -500.000000 -0.000049
vertex 299.999969 -500.000000 300.000061
vertex -300.000031 -500.000000 299.999939
endloop
endfacet
facet normal 0.000000 1.000000 0.000000
outer loop
vertex 299.999908 500.000000 300.000061
vertex -300.000092 500.000000 299.999939
vertex -300.000122 500.000000 599.999939
endloop
endfacet
facet normal 0.000000 1.000000 0.000000
outer loop
vertex 299.999908 500.000000 300.000061
vertex -300.000122 500.000000 599.999939
vertex 299.999878 500.000000 600.000061
endloop
endfacet
facet normal -1.000000 0.000000 -0.000000
outer loop
vertex -300.000092 500.000000 299.999939
vertex -300.000031 -500.000000 299.999939
vertex -300.000061 -500.000000 599.999939
endloop
endfacet
facet normal -1.000000 -0.000000 -0.000000
outer loop
vertex -300.000092 500.000000 299.999939
vertex -300.000061 -500.000000 599.999939
vertex -300.000122 500.000000 599.999939
endloop
endfacet
facet normal 1.000000 0.000000 0.000000
outer loop
vertex 299.999969 -500.000000 300.000061
vertex 299.999908 500.000000 300.000061
vertex 299.999878 500.000000 600.000061
endloop
endfacet
facet normal 1.000000 0.000000 0.000000
outer loop
vertex 299.999969 -500.000000 300.000061
vertex 299.999878 500.000000 600.000061
vertex 299.999939 -500.000000 600.000061
endloop
endfacet
facet normal 0.000000 -1.000000 -0.000000
outer loop
vertex -300.000031 -500.000000 299.999939
vertex 299.999969 -500.000000 300.000061
vertex 299.999939 -500.000000 600.000061
endloop
endfacet
facet normal 0.000000 -1.000000 0.000000
outer loop
vertex -300.000031 -500.000000 299.999939
vertex 299.999939 -500.000000 600.000061
vertex -300.000061 -500.000000 599.999939
endloop
endfacet
facet normal -1.000000 -0.000000 -0.000000
outer loop
vertex -300.000122 500.000000 599.999939
vertex -300.000061 -500.000000 599.999939
vertex -300.000122 -500.000000 899.999939
endloop
endfacet
facet normal -1.000000 -0.000000 -0.000000
outer loop
vertex -300.000122 500.000000 599.999939
vertex -300.000122 -500.000000 899.999939
vertex -300.000183 500.000000 899.999939
endloop
endfacet
facet normal 1.000000 0.000000 0.000000
outer loop
vertex 299.999939 -500.000000 600.000061
vertex 299.999878 500.000000 600.000061
vertex 299.999817 500.000000 900.000061
endloop
endfacet
facet normal 1.000000 0.000000 0.000000
outer loop
vertex 299.999939 -500.000000 600.000061
vertex 299.999817 500.000000 900.000061
vertex 299.999878 -500.000000 900.000061
endloop
endfacet
facet normal 0.000000 -1.000000 0.000000
outer loop
vertex -300.000061 -500.000000 599.999939
vertex 299.999939 -500.000000 600.000061
vertex 299.999878 -500.000000 900.000061
endloop
endfacet
facet normal 0.000000 -1.000000 0.000000
outer loop
vertex -300.000061 -500.000000 599.999939
vertex 299.999878 -500.000000 900.000061
vertex -300.000122 -500.000000 899.999939
endloop
endfacet
facet normal 0.000000 1.000000 -0.000000
outer loop
vertex 299.999878 500.000000 600.000061
vertex -300.000122 500.000000 599.999939
vertex -300.000183 500.000000 899.999939
endloop
endfacet
facet normal 0.000000 1.000000 0.000000
outer loop
vertex 299.999878 500.000000 600.000061
vertex -300.000183 500.000000 899.999939
vertex 299.999817 500.000000 900.000061
endloop
endfacet
facet normal 0.000000 -1.000000 -0.000000
outer loop
vertex -300.000122 -500.000000 899.999939
vertex 299.999878 -500.000000 900.000061
vertex 299.999847 -500.000000 1200.000000
endloop
endfacet
facet normal 0.000000 -1.000000 0.000000
outer loop
vertex -300.000122 -500.000000 899.999939
vertex 299.999847 -500.000000 1200.000000
vertex -300.000153 -500.000000 1200.000000
endloop
endfacet
facet normal 0.000000 1.000000 0.000000
outer loop
vertex 299.999817 500.000000 900.000061
vertex -300.000183 500.000000 899.999939
vertex -300.000214 500.000000 1200.000000
endloop
endfacet
facet normal 0.000000 1.000000 0.000000
outer loop
vertex 299.999817 500.000000 900.000061
vertex -300.000214 500.000000 1200.000000
vertex 299.999786 500.000000 1200.000000
endloop
endfacet
facet normal -1.000000 -0.000000 -0.000000
outer loop
vertex -300.000183 500.000000 899.999939
vertex -300.000122 -500.000000 899.999939
vertex -300.000153 -500.000000 1200.000000
endloop
endfacet
facet normal -1.000000 0.000000 -0.000000
outer loop
vertex -300.000183 500.000000 899.999939
vertex -300.000153 -500.000000 1200.000000
vertex -300.000214 500.000000 1200.000000
endloop
endfacet
facet normal 1.000000 0.000000 0.000000
outer loop
vertex 299.999878 -500.000000 900.000061
vertex 299.999817 500.000000 900.000061
vertex 299.999786 500.000000 1200.000000
endloop
endfacet
facet normal 1.000000 0.000000 0.000000
outer loop
vertex 299.999878 -500.000000 900.000061
vertex 299.999786 500.000000 1200.000000
vertex 299.999847 -500.000000 1200.000000
endloop
endfacet
facet normal -1.000000 -0.000000 -0.000000
outer loop
vertex -300.000214 500.000000 1200.000000
vertex -300.000153 -500.000000 1200.000000
vertex -300.000214 -500.000000 1500.000000
endloop
endfacet
facet normal -1.000000 -0.000000 -0.000000
outer loop
vertex -300.000214 500.000000 1200.000000
vertex -300.000214 -500.000000 1500.000000
vertex -300.000275 500.000000 1500.000000
endloop
endfacet
facet normal 1.000000 0.000000 0.000000
outer loop
vertex 299.999847 -500.000000 1200.000000
vertex 299.999786 500.000000 1200.000000
vertex 299.999725 500.000000 1500.000000
endloop
endfacet
facet normal 1.000000 0.000000 0.000000
outer loop
vertex 299.999847 -500.000000 1200.000000
vertex 299.999725 500.000000 1500.000000
vertex 299.999786 -500.000000 1500.000000
endloop
endfacet
facet normal 0.000000 -1.000000 0.000000
outer loop
vertex -300.000153 -500.000000 1200.000000
vertex 299.999847 -500.000000 1200.000000
vertex 299.999786 -500.000000 1500.000000
endloop
endfacet
facet normal 0.000000 -1.000000 0.000000
outer loop
vertex -300.000153 -500.000000 1200.000000
vertex 299.999786 -500.000000 1500.000000
vertex -300.000214 -500.000000 1500.000000
endloop
endfacet
facet normal 0.000000 1.000000 -0.000000
outer loop
vertex 299.999786 500.000000 1200.000000
vertex -300.000214 500.000000 1200.000000
vertex -300.000275 500.000000 1500.000000
endloop
endfacet
facet normal 0.000000 1.000000 0.000000
outer loop
vertex 299.999786 500.000000 1200.000000
vertex -300.000275 500.000000 1500.000000
vertex 299.999725 500.000000 1500.000000
endloop
endfacet
endsolid building_036
