solid building_006.001
facet normal 0.000000 0.000000 1.000000
outer loop
vertex -500.000000 500.000336 2100.000000
vertex -500.000000 -499.999664 2100.000000
vertex 500.000000 -499.999664 2100.000000
endloop
endfacet
facet normal 0.000000 0.000000 1.000000
outer loop
vertex 500.000000 -327.740326 2100.000000
vertex 826.036255 -327.740326 2100.000000
vertex 826.036255 327.741058 2100.000000
endloop
endfacet
facet normal 0.000000 0.000000 1.000000
outer loop
vertex -500.000000 500.000336 2100.000000
vertex 500.000000 -499.999664 2100.000000
vertex 500.000000 -327.740326 2100.000000
endloop
endfacet
facet normal 0.000000 0.000000 1.000000
outer loop
vertex 500.000000 327.741058 2100.000000
vertex 500.000000 500.000336 2100.000000
vertex -500.000000 500.000336 2100.000000
endloop
endfacet
facet normal 0.000000 0.000000 1.000000
outer loop
vertex 500.000000 -327.740326 2100.000000
vertex 826.036255 327.741058 2100.000000
vertex 500.000000 327.741058 2100.000000
endloop
endfacet
facet normal 0.000000 0.000000 1.000000
outer loop
vertex 500.000000 -327.740326 2100.000000
vertex 500.000000 327.741058 2100.000000
vertex -500.000000 500.000336 2100.000000
endloop
endfacet
facet normal 0.000000 1.000000 -0.000000
outer loop
vertex 826.036255 327.740723 -0.000053
vertex 500.000000 327.740723 -0.000053
vertex 500.000000 327.740784 299.999939
endloop
endfacet
facet normal 0.000000 1.000000 -0.000000
outer loop
vertex 826.036255 327.740723 -0.000053
vertex 500.000000 327.740784 299.999939
vertex 826.036255 327.740784 299.999939
endloop
endfacet
facet normal 0.000000 1.000000 -0.000000
outer loop
vertex 500.000000 500.000000 -0.000081
vertex -500.000000 500.000000 -0.000081
vertex -500.000000 500.000061 299.999908
endloop
endfacet
facet normal 0.000000 1.000000 -0.000000
outer loop
vertex 500.000000 500.000000 -0.000081
vertex -500.000000 500.000061 299.999908
vertex 500.000000 500.000061 299.999908
endloop
endfacet
facet normal 0.000000 -1.000000 0.000000
outer loop
vertex -500.000000 -500.000000 0.000081
vertex 500.000000 -500.000000 0.000081
vertex 500.000000 -499.999939 300.000092
endloop
endfacet
facet normal 0.000000 -1.000000 0.000000
outer loop
vertex -500.000000 -500.000000 0.000081
vertex 500.000000 -499.999939 300.000092
vertex -500.000000 -499.999939 300.000092
endloop
endfacet
facet normal 0.000000 -1.000000 0.000000
outer loop
vertex 500.000000 -327.740662 0.000053
vertex 826.036255 -327.740662 0.000053
vertex 826.036255 -327.740601 300.000061
endloop
endfacet
facet normal 0.000000 -1.000000 0.000000
outer loop
vertex 500.000000 -327.740662 0.000053
vertex 826.036255 -327.740601 300.000061
vertex 500.000000 -327.740601 300.000061
endloop
endfacet
facet normal 1.000000 0.000000 0.000000
outer loop
vertex 826.036255 -327.740662 0.000053
vertex 826.036255 327.740723 -0.000053
vertex 826.036255 327.740784 299.999939
endloop
endfacet
facet normal 1.000000 -0.000000 0.000000
outer loop
vertex 826.036255 -327.740662 0.000053
vertex 826.036255 327.740784 299.999939
vertex 826.036255 -327.740601 300.000061
endloop
endfacet
facet normal 1.000000 0.000000 0.000000
outer loop
vertex 500.000000 -500.000000 0.000081
vertex 500.000000 -327.740662 0.000053
vertex 500.000000 -327.740601 300.000061
endloop
endfacet
facet normal 1.000000 0.000000 0.000000
outer loop
vertex 500.000000 -500.000000 0.000081
vertex 500.000000 -327.740601 300.000061
vertex 500.000000 -499.999939 300.000092
endloop
endfacet
facet normal 1.000000 0.000000 0.000000
outer loop
vertex 500.000000 327.740723 -0.000053
vertex 500.000000 500.000000 -0.000081
vertex 500.000000 500.000061 299.999908
endloop
endfacet
facet normal 1.000000 0.000000 0.000000
outer loop
vertex 500.000000 327.740723 -0.000053
vertex 500.000000 500.000061 299.999908
vertex 500.000000 327.740784 299.999939
endloop
endfacet
facet normal -1.000000 -0.000000 0.000000
outer loop
vertex -500.000000 500.000000 -0.000081
vertex -500.000000 -500.000000 0.000081
vertex -500.000000 -499.999939 300.000092
endloop
endfacet
facet normal -1.000000 0.000000 0.000000
outer loop
vertex -500.000000 500.000000 -0.000081
vertex -500.000000 -499.999939 300.000092
vertex -500.000000 500.000061 299.999908
endloop
endfacet
facet normal 0.000000 -1.000000 0.000000
outer loop
vertex -500.000000 -499.999939 300.000092
vertex 500.000000 -499.999939 300.000092
vertex 500.000000 -499.999908 600.000061
endloop
endfacet
facet normal 0.000000 -1.000000 0.000000
outer loop
vertex -500.000000 -499.999939 300.000092
vertex 500.000000 -499.999908 600.000061
vertex -500.000000 -499.999908 600.000061
endloop
endfacet
facet normal 0.000000 1.000000 0.000000
outer loop
vertex 500.000000 500.000061 299.999908
vertex -500.000000 500.000061 299.999908
vertex -500.000000 500.000092 599.999939
endloop
endfacet
facet normal 0.000000 1.000000 -0.000000
outer loop
vertex 500.000000 500.000061 299.999908
vertex -500.000000 500.000092 599.999939
vertex 500.000000 500.000092 599.999939
endloop
endfacet
facet normal 0.000000 1.000000 0.000000
outer loop
vertex 826.036255 327.740784 299.999939
vertex 500.000000 327.740784 299.999939
vertex 500.000000 327.740814 599.999939
endloop
endfacet
facet normal 0.000000 1.000000 -0.000000
outer loop
vertex 826.036255 327.740784 299.999939
vertex 500.000000 327.740814 599.999939
vertex 826.036255 327.740814 599.999939
endloop
endfacet
facet normal 0.000000 -1.000000 0.000000
outer loop
vertex 500.000000 -327.740601 300.000061
vertex 826.036255 -327.740601 300.000061
vertex 826.036255 -327.740570 600.000061
endloop
endfacet
facet normal 0.000000 -1.000000 0.000000
outer loop
vertex 500.000000 -327.740601 300.000061
vertex 826.036255 -327.740570 600.000061
vertex 500.000000 -327.740570 600.000061
endloop
endfacet
facet normal -1.000000 0.000000 0.000000
outer loop
vertex -500.000000 500.000061 299.999908
vertex -500.000000 -499.999939 300.000092
vertex -500.000000 -499.999908 600.000061
endloop
endfacet
facet normal -1.000000 0.000000 0.000000
outer loop
vertex -500.000000 500.000061 299.999908
vertex -500.000000 -499.999908 600.000061
vertex -500.000000 500.000092 599.999939
endloop
endfacet
facet normal 1.000000 0.000000 0.000000
outer loop
vertex 500.000000 327.740784 299.999939
vertex 500.000000 500.000061 299.999908
vertex 500.000000 500.000092 599.999939
endloop
endfacet
facet normal 1.000000 0.000000 0.000000
outer loop
vertex 500.000000 327.740784 299.999939
vertex 500.000000 500.000092 599.999939
vertex 500.000000 327.740814 599.999939
endloop
endfacet
facet normal 1.000000 0.000000 0.000000
outer loop
vertex 826.036255 -327.740601 300.000061
vertex 826.036255 327.740784 299.999939
vertex 826.036255 327.740814 599.999939
endloop
endfacet
facet normal 1.000000 -0.000000 0.000000
outer loop
vertex 826.036255 -327.740601 300.000061
vertex 826.036255 327.740814 599.999939
vertex 826.036255 -327.740570 600.000061
endloop
endfacet
facet normal 1.000000 0.000000 0.000000
outer loop
vertex 500.000000 -499.999939 300.000092
vertex 500.000000 -327.740601 300.000061
vertex 500.000000 -327.740570 600.000061
endloop
endfacet
facet normal 1.000000 0.000000 0.000000
outer loop
vertex 500.000000 -499.999939 300.000092
vertex 500.000000 -327.740570 600.000061
vertex 500.000000 -499.999908 600.000061
endloop
endfacet
facet normal 1.000000 0.000000 0.000000
outer loop
vertex 500.000000 327.740814 599.999939
vertex 500.000000 500.000092 599.999939
vertex 500.000000 500.000153 899.999939
endloop
endfacet
facet normal 1.000000 0.000000 0.000000
outer loop
vertex 500.000000 327.740814 599.999939
vertex 500.000000 500.000153 899.999939
vertex 500.000000 327.740875 899.999939
endloop
endfacet
facet normal 1.000000 0.000000 0.000000
outer loop
vertex 826.036255 -327.740570 600.000061
vertex 826.036255 327.740814 599.999939
vertex 826.036255 327.740875 899.999939
endloop
endfacet
facet normal 1.000000 -0.000000 0.000000
outer loop
vertex 826.036255 -327.740570 600.000061
vertex 826.036255 327.740875 899.999939
vertex 826.036255 -327.740509 900.000061
endloop
endfacet
facet normal 1.000000 0.000000 0.000000
outer loop
vertex 500.000000 -499.999908 600.000061
vertex 500.000000 -327.740570 600.000061
vertex 500.000000 -327.740509 900.000061
endloop
endfacet
facet normal 1.000000 0.000000 0.000000
outer loop
vertex 500.000000 -499.999908 600.000061
vertex 500.000000 -327.740509 900.000061
vertex 500.000000 -499.999847 900.000061
endloop
endfacet
facet normal 0.000000 1.000000 -0.000000
outer loop
vertex 500.000000 500.000092 599.999939
vertex -500.000000 500.000092 599.999939
vertex -500.000000 500.000153 899.999939
endloop
endfacet
facet normal 0.000000 1.000000 -0.000000
outer loop
vertex 500.000000 500.000092 599.999939
vertex -500.000000 500.000153 899.999939
vertex 500.000000 500.000153 899.999939
endloop
endfacet
facet normal 0.000000 1.000000 -0.000000
outer loop
vertex 826.036255 327.740814 599.999939
vertex 500.000000 327.740814 599.999939
vertex 500.000000 327.740875 899.999939
endloop
endfacet
facet normal 0.000000 1.000000 -0.000000
outer loop
vertex 826.036255 327.740814 599.999939
vertex 500.000000 327.740875 899.999939
vertex 826.036255 327.740875 899.999939
endloop
endfacet
facet normal 0.000000 -1.000000 0.000000
outer loop
vertex 500.000000 -327.740570 600.000061
vertex 826.036255 -327.740570 600.000061
vertex 826.036255 -327.740509 900.000061
endloop
endfacet
facet normal 0.000000 -1.000000 0.000000
outer loop
vertex 500.000000 -327.740570 600.000061
vertex 826.036255 -327.740509 900.000061
vertex 500.000000 -327.740509 900.000061
endloop
endfacet
facet normal 0.000000 -1.000000 0.000000
outer loop
vertex -500.000000 -499.999908 600.000061
vertex 500.000000 -499.999908 600.000061
vertex 500.000000 -499.999847 900.000061
endloop
endfacet
facet normal 0.000000 -1.000000 0.000000
outer loop
vertex -500.000000 -499.999908 600.000061
vertex 500.000000 -499.999847 900.000061
vertex -500.000000 -499.999847 900.000061
endloop
endfacet
facet normal -1.000000 0.000000 0.000000
outer loop
vertex -500.000000 500.000092 599.999939
vertex -500.000000 -499.999908 600.000061
vertex -500.000000 -499.999847 900.000061
endloop
endfacet
facet normal -1.000000 0.000000 0.000000
outer loop
vertex -500.000000 500.000092 599.999939
vertex -500.000000 -499.999847 900.000061
vertex -500.000000 500.000153 899.999939
endloop
endfacet
facet normal 0.000000 -1.000000 0.000000
outer loop
vertex -500.000000 -499.999847 900.000061
vertex 500.000000 -499.999847 900.000061
vertex 500.000000 -499.999817 1200.000122
endloop
endfacet
facet normal 0.000000 -1.000000 0.000000
outer loop
vertex -500.000000 -499.999847 900.000061
vertex 500.000000 -499.999817 1200.000122
vertex -500.000000 -499.999817 1200.000122
endloop
endfacet
facet normal -1.000000 0.000000 0.000000
outer loop
vertex -500.000000 500.000153 899.999939
vertex -500.000000 -499.999847 900.000061
vertex -500.000000 -499.999817 1200.000122
endloop
endfacet
facet normal -1.000000 0.000000 0.000000
outer loop
vertex -500.000000 500.000153 899.999939
vertex -500.000000 -499.999817 1200.000122
vertex -500.000000 500.000183 1199.999878
endloop
endfacet
facet normal 1.000000 0.000000 0.000000
outer loop
vertex 500.000000 327.740875 899.999939
vertex 500.000000 500.000153 899.999939
vertex 500.000000 500.000183 1199.999878
endloop
endfacet
facet normal 1.000000 0.000000 0.000000
outer loop
vertex 500.000000 327.740875 899.999939
vertex 500.000000 500.000183 1199.999878
vertex 500.000000 327.740906 1200.000000
endloop
endfacet
facet normal 1.000000 0.000000 0.000000
outer loop
vertex 826.036255 -327.740509 900.000061
vertex 826.036255 327.740875 899.999939
vertex 826.036255 327.740906 1200.000000
endloop
endfacet
facet normal 1.000000 0.000000 0.000000
outer loop
vertex 826.036255 -327.740509 900.000061
vertex 826.036255 327.740906 1200.000000
vertex 826.036255 -327.740479 1200.000000
endloop
endfacet
facet normal 1.000000 0.000000 0.000000
outer loop
vertex 500.000000 -499.999847 900.000061
vertex 500.000000 -327.740509 900.000061
vertex 500.000000 -327.740479 1200.000000
endloop
endfacet
facet normal 1.000000 0.000000 0.000000
outer loop
vertex 500.000000 -499.999847 900.000061
vertex 500.000000 -327.740479 1200.000000
vertex 500.000000 -499.999817 1200.000122
endloop
endfacet
facet normal 0.000000 1.000000 -0.000000
outer loop
vertex 500.000000 500.000153 899.999939
vertex -500.000000 500.000153 899.999939
vertex -500.000000 500.000183 1199.999878
endloop
endfacet
facet normal 0.000000 1.000000 0.000000
outer loop
vertex 500.000000 500.000153 899.999939
vertex -500.000000 500.000183 1199.999878
vertex 500.000000 500.000183 1199.999878
endloop
endfacet
facet normal 0.000000 1.000000 -0.000000
outer loop
vertex 826.036255 327.740875 899.999939
vertex 500.000000 327.740875 899.999939
vertex 500.000000 327.740906 1200.000000
endloop
endfacet
facet normal 0.000000 1.000000 0.000000
outer loop
vertex 826.036255 327.740875 899.999939
vertex 500.000000 327.740906 1200.000000
vertex 826.036255 327.740906 1200.000000
endloop
endfacet
facet normal 0.000000 -1.000000 0.000000
outer loop
vertex 500.000000 -327.740509 900.000061
vertex 826.036255 -327.740509 900.000061
vertex 826.036255 -327.740479 1200.000000
endloop
endfacet
facet normal 0.000000 -1.000000 0.000000
outer loop
vertex 500.000000 -327.740509 900.000061
vertex 826.036255 -327.740479 1200.000000
vertex 500.000000 -327.740479 1200.000000
endloop
endfacet
facet normal 0.000000 1.000000 -0.000000
outer loop
vertex 500.000000 500.000183 1199.999878
vertex -500.000000 500.000183 1199.999878
vertex -500.000000 500.000244 1499.999878
endloop
endfacet
facet normal 0.000000 1.000000 -0.000000
outer loop
vertex 500.000000 500.000183 1199.999878
vertex -500.000000 500.000244 1499.999878
vertex 500.000000 500.000244 1499.999878
endloop
endfacet
facet normal 0.000000 1.000000 -0.000000
outer loop
vertex 826.036255 327.740906 1200.000000
vertex 500.000000 327.740906 1200.000000
vertex 500.000000 327.740967 1500.000000
endloop
endfacet
facet normal 0.000000 1.000000 -0.000000
outer loop
vertex 826.036255 327.740906 1200.000000
vertex 500.000000 327.740967 1500.000000
vertex 826.036255 327.740967 1500.000000
endloop
endfacet
facet normal 0.000000 -1.000000 0.000000
outer loop
vertex 500.000000 -327.740479 1200.000000
vertex 826.036255 -327.740479 1200.000000
vertex 826.036255 -327.740417 1500.000000
endloop
endfacet
facet normal 0.000000 -1.000000 0.000000
outer loop
vertex 500.000000 -327.740479 1200.000000
vertex 826.036255 -327.740417 1500.000000
vertex 500.000000 -327.740417 1500.000000
endloop
endfacet
facet normal 0.000000 -1.000000 0.000000
outer loop
vertex -500.000000 -499.999817 1200.000122
vertex 500.000000 -499.999817 1200.000122
vertex 500.000000 -499.999756 1500.000122
endloop
endfacet
facet normal 0.000000 -1.000000 0.000000
outer loop
vertex -500.000000 -499.999817 1200.000122
vertex 500.000000 -499.999756 1500.000122
vertex -500.000000 -499.999756 1500.000122
endloop
endfacet
facet normal -1.000000 0.000000 0.000000
outer loop
vertex -500.000000 500.000183 1199.999878
vertex -500.000000 -499.999817 1200.000122
vertex -500.000000 -499.999756 1500.000122
endloop
endfacet
facet normal -1.000000 0.000000 0.000000
outer loop
vertex -500.000000 500.000183 1199.999878
vertex -500.000000 -499.999756 1500.000122
vertex -500.000000 500.000244 1499.999878
endloop
endfacet
facet normal 1.000000 0.000000 0.000000
outer loop
vertex 500.000000 327.740906 1200.000000
vertex 500.000000 500.000183 1199.999878
vertex 500.000000 500.000244 1499.999878
endloop
endfacet
facet normal 1.000000 0.000000 0.000000
outer loop
vertex 500.000000 327.740906 1200.000000
vertex 500.000000 500.000244 1499.999878
vertex 500.000000 327.740967 1500.000000
endloop
endfacet
facet normal 1.000000 0.000000 0.000000
outer loop
vertex 826.036255 -327.740479 1200.000000
vertex 826.036255 327.740906 1200.000000
vertex 826.036255 327.740967 1500.000000
endloop
endfacet
facet normal 1.000000 0.000000 0.000000
outer loop
vertex 826.036255 -327.740479 1200.000000
vertex 826.036255 327.740967 1500.000000
vertex 826.036255 -327.740417 1500.000000
endloop
endfacet
facet normal 1.000000 0.000000 0.000000
outer loop
vertex 500.000000 -499.999817 1200.000122
vertex 500.000000 -327.740479 1200.000000
vertex 500.000000 -327.740417 1500.000000
endloop
endfacet
facet normal 1.000000 0.000000 0.000000
outer loop
vertex 500.000000 -499.999817 1200.000122
vertex 500.000000 -327.740417 1500.000000
vertex 500.000000 -499.999756 1500.000122
endloop
endfacet
facet normal 1.000000 0.000000 0.000000
outer loop
vertex 500.000000 -499.999756 1500.000122
vertex 500.000000 -327.740417 1500.000000
vertex 500.000000 -327.740356 1800.000000
endloop
endfacet
facet normal 1.000000 0.000000 0.000000
outer loop
vertex 500.000000 -499.999756 1500.000122
vertex 500.000000 -327.740356 1800.000000
vertex 500.000000 -499.999695 1800.000122
endloop
endfacet
facet normal 0.000000 1.000000 -0.000000
outer loop
vertex 500.000000 500.000244 1499.999878
vertex -500.000000 500.000244 1499.999878
vertex -500.000000 500.000305 1799.999878
endloop
endfacet
facet normal 0.000000 1.000000 -0.000000
outer loop
vertex 500.000000 500.000244 1499.999878
vertex -500.000000 500.000305 1799.999878
vertex 500.000000 500.000305 1799.999878
endloop
endfacet
facet normal 0.000000 1.000000 -0.000000
outer loop
vertex 826.036255 327.740967 1500.000000
vertex 500.000000 327.740967 1500.000000
vertex 500.000000 327.741028 1800.000000
endloop
endfacet
facet normal 0.000000 1.000000 -0.000000
outer loop
vertex 826.036255 327.740967 1500.000000
vertex 500.000000 327.741028 1800.000000
vertex 826.036255 327.741028 1800.000000
endloop
endfacet
facet normal 0.000000 -1.000000 0.000000
outer loop
vertex 500.000000 -327.740417 1500.000000
vertex 826.036255 -327.740417 1500.000000
vertex 826.036255 -327.740356 1800.000000
endloop
endfacet
facet normal 0.000000 -1.000000 0.000000
outer loop
vertex 500.000000 -327.740417 1500.000000
vertex 826.036255 -327.740356 1800.000000
vertex 500.000000 -327.740356 1800.000000
endloop
endfacet
facet normal 0.000000 -1.000000 0.000000
outer loop
vertex -500.000000 -499.999756 1500.000122
vertex 500.000000 -499.999756 1500.000122
vertex 500.000000 -499.999695 1800.000122
endloop
endfacet
facet normal 0.000000 -1.000000 0.000000
outer loop
vertex -500.000000 -499.999756 1500.000122
vertex 500.000000 -499.999695 1800.000122
vertex -500.000000 -499.999695 1800.000122
endloop
endfacet
facet normal -1.000000 0.000000 0.000000
outer loop
vertex -500.000000 500.000244 1499.999878
vertex -500.000000 -499.999756 1500.000122
vertex -500.000000 -499.999695 1800.000122
endloop
endfacet
facet normal -1.000000 0.000000 0.000000
outer loop
vertex -500.000000 500.000244 1499.999878
vertex -500.000000 -499.999695 1800.000122
vertex -500.000000 500.000305 1799.999878
endloop
endfacet
facet normal 1.000000 0.000000 0.000000
outer loop
vertex 500.000000 327.740967 1500.000000
vertex 500.000000 500.000244 1499.999878
vertex 500.000000 500.000305 1799.999878
endloop
endfacet
facet normal 1.000000 0.000000 0.000000
outer loop
vertex 500.000000 327.740967 1500.000000
vertex 500.000000 500.000305 1799.999878
vertex 500.000000 327.741028 1800.000000
endloop
endfacet
facet normal 1.000000 0.000000 0.000000
outer loop
vertex 826.036255 -327.740417 1500.000000
vertex 826.036255 327.740967 1500.000000
vertex 826.036255 327.741028 1800.000000
endloop
endfacet
facet normal 1.000000 0.000000 0.000000
outer loop
vertex 826.036255 -327.740417 1500.000000
vertex 826.036255 327.741028 1800.000000
vertex 826.036255 -327.740356 1800.000000
endloop
endfacet
facet normal -1.000000 0.000000 0.000000
outer loop
vertex -500.000000 500.000305 1799.999878
vertex -500.000000 -499.999695 1800.000122
vertex -500.000000 -499.999664 2100.000000
endloop
endfacet
facet normal -1.000000 0.000000 0.000000
outer loop
vertex -500.000000 500.000305 1799.999878
vertex -500.000000 -499.999664 2100.000000
vertex -500.000000 500.000336 2100.000000
endloop
endfacet
facet normal 1.000000 0.000000 0.000000
outer loop
vertex 500.000000 327.741028 1800.000000
vertex 500.000000 500.000305 1799.999878
vertex 500.000000 500.000336 2100.000000
endloop
endfacet
facet normal 1.000000 0.000000 0.000000
outer loop
vertex 500.000000 327.741028 1800.000000
vertex 500.000000 500.000336 2100.000000
vertex 500.000000 327.741058 2100.000000
endloop
endfacet
facet normal 1.000000 0.000000 0.000000
outer loop
vertex 826.036255 -327.740356 1800.000000
vertex 826.036255 327.741028 1800.000000
vertex 826.036255 327.741058 2100.000000
endloop
endfacet
facet normal 1.000000 0.000000 0.000000
outer loop
vertex 826.036255 -327.740356 1800.000000
vertex 826.036255 327.741058 2100.000000
vertex 826.036255 -327.740326 2100.000000
endloop
endfacet
facet normal 1.000000 0.000000 0.000000
outer loop
vertex 500.000000 -499.999695 1800.000122
vertex 500.000000 -327.740356 1800.000000
vertex 500.000000 -327.740326 2100.000000
endloop
endfacet
facet normal 1.000000 0.000000 0.000000
outer loop
vertex 500.000000 -499.999695 1800.000122
vertex 500.000000 -327.740326 2100.000000
vertex 500.000000 -499.999664 2100.000000
endloop
endfacet
facet normal 0.000000 1.000000 0.000000
outer loop
vertex 500.000000 500.000305 1799.999878
vertex -500.000000 500.000305 1799.999878
vertex -500.000000 500.000336 2100.000000
endloop
endfacet
facet normal 0.000000 1.000000 -0.000000
outer loop
vertex 500.000000 500.000305 1799.999878
vertex -500.000000 500.000336 2100.000000
vertex 500.000000 500.000336 2100.000000
endloop
endfacet
facet normal 0.000000 1.000000 0.000000
outer loop
vertex 826.036255 327.741028 1800.000000
vertex 500.000000 327.741028 1800.000000
vertex 500.000000 327.741058 2100.000000
endloop
endfacet
facet normal 0.000000 1.000000 -0.000000
outer loop
vertex 826.036255 327.741028 1800.000000
vertex 500.000000 327.741058 2100.000000
vertex 826.036255 327.741058 2100.000000
endloop
endfacet
facet normal 0.000000 -1.000000 0.000000
outer loop
vertex 500.000000 -327.740356 1800.000000
vertex 826.036255 -327.740356 1800.000000
vertex 826.036255 -327.740326 2100.000000
endloop
endfacet
facet normal 0.000000 -1.000000 0.000000
outer loop
vertex 500.000000 -327.740356 1800.000000
vertex 826.036255 -327.740326 2100.000000
vertex 500.000000 -327.740326 2100.000000
endloop
endfacet
facet normal 0.000000 -1.000000 0.000000
outer loop
vertex -500.000000 -499.999695 1800.000122
vertex 500.000000 -499.999695 1800.000122
vertex 500.000000 -499.999664 2100.000000
endloop
endfacet
facet normal 0.000000 -1.000000 0.000000
outer loop
vertex -500.000000 -499.999695 1800.000122
vertex 500.000000 -499.999664 2100.000000
vertex -500.000000 -499.999664 2100.000000
endloop
endfacet
endsolid building_006.001
