solid building_005.002
facet normal 0.000000 1.000000 0.000000
outer loop
vertex 500.000000 500.000000 -0.000081
vertex 424.065979 500.000000 -0.000081
vertex 424.065979 500.000061 299.999908
endloop
endfacet
facet normal 0.000000 1.000000 -0.000000
outer loop
vertex 500.000000 500.000000 -0.000081
vertex 424.065979 500.000061 299.999908
vertex 500.000000 500.000061 299.999908
endloop
endfacet
facet normal 0.000000 0.000000 1.000000
outer loop
vertex -500.000000 500.000183 1199.999878
vertex -500.000000 -499.999817 1200.000122
vertex 500.000000 -499.999817 1200.000122
endloop
endfacet
facet normal 0.000000 0.000000 1.000000
outer loop
vertex 500.000000 -499.999817 1200.000122
vertex 500.000000 500.000183 1199.999878
vertex 424.065979 500.000183 1199.999878
endloop
endfacet
facet normal 0.000000 0.000000 1.000000
outer loop
vertex 424.065979 500.000183 1199.999878
vertex 424.065979 1040.701294 1199.999878
vertex -424.066071 1040.701294 1199.999878
endloop
endfacet
facet normal 0.000000 0.000000 1.000000
outer loop
vertex -424.066071 500.000183 1199.999878
vertex -500.000000 500.000183 1199.999878
vertex 500.000000 -499.999817 1200.000122
endloop
endfacet
facet normal 0.000000 0.000000 1.000000
outer loop
vertex 424.065979 500.000183 1199.999878
vertex -424.066071 1040.701294 1199.999878
vertex -424.066071 500.000183 1199.999878
endloop
endfacet
facet normal 0.000000 0.000000 1.000000
outer loop
vertex 500.000000 -499.999817 1200.000122
vertex 424.065979 500.000183 1199.999878
vertex -424.066071 500.000183 1199.999878
endloop
endfacet
facet normal 1.000000 -0.000000 0.000000
outer loop
vertex 500.000000 -500.000000 0.000081
vertex 500.000000 500.000000 -0.000081
vertex 500.000000 500.000061 299.999908
endloop
endfacet
facet normal 1.000000 0.000000 0.000000
outer loop
vertex 500.000000 -500.000000 0.000081
vertex 500.000000 500.000061 299.999908
vertex 500.000000 -499.999939 300.000092
endloop
endfacet
facet normal -1.000000 -0.000000 0.000000
outer loop
vertex -500.000000 500.000000 -0.000081
vertex -500.000000 -500.000000 0.000081
vertex -500.000000 -499.999939 300.000092
endloop
endfacet
facet normal -1.000000 0.000000 0.000000
outer loop
vertex -500.000000 500.000000 -0.000081
vertex -500.000000 -499.999939 300.000092
vertex -500.000000 500.000061 299.999908
endloop
endfacet
facet normal -1.000000 0.000000 0.000000
outer loop
vertex -424.066071 1040.701050 -0.000170
vertex -424.066071 500.000000 -0.000081
vertex -424.066071 500.000061 299.999908
endloop
endfacet
facet normal -1.000000 0.000000 0.000000
outer loop
vertex -424.066071 1040.701050 -0.000170
vertex -424.066071 500.000061 299.999908
vertex -424.066071 1040.701050 299.999817
endloop
endfacet
facet normal 0.000000 1.000000 -0.000000
outer loop
vertex -424.066071 500.000000 -0.000081
vertex -500.000000 500.000000 -0.000081
vertex -500.000000 500.000061 299.999908
endloop
endfacet
facet normal 0.000000 1.000000 0.000000
outer loop
vertex -424.066071 500.000000 -0.000081
vertex -500.000000 500.000061 299.999908
vertex -424.066071 500.000061 299.999908
endloop
endfacet
facet normal 0.000000 -1.000000 0.000000
outer loop
vertex -500.000000 -500.000000 0.000081
vertex 500.000000 -500.000000 0.000081
vertex 500.000000 -499.999939 300.000092
endloop
endfacet
facet normal 0.000000 -1.000000 0.000000
outer loop
vertex -500.000000 -500.000000 0.000081
vertex 500.000000 -499.999939 300.000092
vertex -500.000000 -499.999939 300.000092
endloop
endfacet
facet normal 1.000000 0.000000 0.000000
outer loop
vertex 424.065979 500.000000 -0.000081
vertex 424.065979 1040.701050 -0.000170
vertex 424.065979 1040.701050 299.999817
endloop
endfacet
facet normal 1.000000 0.000000 0.000000
outer loop
vertex 424.065979 500.000000 -0.000081
vertex 424.065979 1040.701050 299.999817
vertex 424.065979 500.000061 299.999908
endloop
endfacet
facet normal 0.000000 1.000000 0.000000
outer loop
vertex 424.065979 1040.701050 -0.000170
vertex -424.066071 1040.701050 -0.000170
vertex -424.066071 1040.701050 299.999817
endloop
endfacet
facet normal 0.000000 1.000000 0.000000
outer loop
vertex 424.065979 1040.701050 -0.000170
vertex -424.066071 1040.701050 299.999817
vertex 424.065979 1040.701050 299.999817
endloop
endfacet
facet normal -1.000000 0.000000 0.000000
outer loop
vertex -500.000000 500.000061 299.999908
vertex -500.000000 -499.999939 300.000092
vertex -500.000000 -499.999908 600.000061
endloop
endfacet
facet normal -1.000000 0.000000 0.000000
outer loop
vertex -500.000000 500.000061 299.999908
vertex -500.000000 -499.999908 600.000061
vertex -500.000000 500.000092 599.999939
endloop
endfacet
facet normal -1.000000 0.000000 0.000000
outer loop
vertex -424.066071 1040.701050 299.999817
vertex -424.066071 500.000061 299.999908
vertex -424.066071 500.000092 599.999939
endloop
endfacet
facet normal -1.000000 0.000000 0.000000
outer loop
vertex -424.066071 1040.701050 299.999817
vertex -424.066071 500.000092 599.999939
vertex -424.066071 1040.701172 599.999817
endloop
endfacet
facet normal 1.000000 0.000000 0.000000
outer loop
vertex 424.065979 500.000061 299.999908
vertex 424.065979 1040.701050 299.999817
vertex 424.065979 1040.701172 599.999817
endloop
endfacet
facet normal 1.000000 -0.000000 0.000000
outer loop
vertex 424.065979 500.000061 299.999908
vertex 424.065979 1040.701172 599.999817
vertex 424.065979 500.000092 599.999939
endloop
endfacet
facet normal 1.000000 0.000000 0.000000
outer loop
vertex 500.000000 -499.999939 300.000092
vertex 500.000000 500.000061 299.999908
vertex 500.000000 500.000092 599.999939
endloop
endfacet
facet normal 1.000000 0.000000 0.000000
outer loop
vertex 500.000000 -499.999939 300.000092
vertex 500.000000 500.000092 599.999939
vertex 500.000000 -499.999908 600.000061
endloop
endfacet
facet normal 0.000000 -1.000000 0.000000
outer loop
vertex -500.000000 -499.999939 300.000092
vertex 500.000000 -499.999939 300.000092
vertex 500.000000 -499.999908 600.000061
endloop
endfacet
facet normal 0.000000 -1.000000 0.000000
outer loop
vertex -500.000000 -499.999939 300.000092
vertex 500.000000 -499.999908 600.000061
vertex -500.000000 -499.999908 600.000061
endloop
endfacet
facet normal 0.000000 1.000000 0.000000
outer loop
vertex -424.066071 500.000061 299.999908
vertex -500.000000 500.000061 299.999908
vertex -500.000000 500.000092 599.999939
endloop
endfacet
facet normal 0.000000 1.000000 -0.000000
outer loop
vertex -424.066071 500.000061 299.999908
vertex -500.000000 500.000092 599.999939
vertex -424.066071 500.000092 599.999939
endloop
endfacet
facet normal 0.000000 1.000000 -0.000001
outer loop
vertex 424.065979 1040.701050 299.999817
vertex -424.066071 1040.701050 299.999817
vertex -424.066071 1040.701172 599.999817
endloop
endfacet
facet normal 0.000000 1.000000 0.000000
outer loop
vertex 424.065979 1040.701050 299.999817
vertex -424.066071 1040.701172 599.999817
vertex 424.065979 1040.701172 599.999817
endloop
endfacet
facet normal 0.000000 1.000000 0.000000
outer loop
vertex 500.000000 500.000061 299.999908
vertex 424.065979 500.000061 299.999908
vertex 424.065979 500.000092 599.999939
endloop
endfacet
facet normal 0.000000 1.000000 0.000000
outer loop
vertex 500.000000 500.000061 299.999908
vertex 424.065979 500.000092 599.999939
vertex 500.000000 500.000092 599.999939
endloop
endfacet
facet normal 0.000000 1.000000 -0.000000
outer loop
vertex 500.000000 500.000092 599.999939
vertex 424.065979 500.000092 599.999939
vertex 424.065979 500.000153 899.999939
endloop
endfacet
facet normal 0.000000 1.000000 -0.000000
outer loop
vertex 500.000000 500.000092 599.999939
vertex 424.065979 500.000153 899.999939
vertex 500.000000 500.000153 899.999939
endloop
endfacet
facet normal 0.000000 -1.000000 0.000000
outer loop
vertex -500.000000 -499.999908 600.000061
vertex 500.000000 -499.999908 600.000061
vertex 500.000000 -499.999847 900.000061
endloop
endfacet
facet normal 0.000000 -1.000000 0.000000
outer loop
vertex -500.000000 -499.999908 600.000061
vertex 500.000000 -499.999847 900.000061
vertex -500.000000 -499.999847 900.000061
endloop
endfacet
facet normal -1.000000 0.000000 0.000000
outer loop
vertex -500.000000 500.000092 599.999939
vertex -500.000000 -499.999908 600.000061
vertex -500.000000 -499.999847 900.000061
endloop
endfacet
facet normal -1.000000 0.000000 0.000000
outer loop
vertex -500.000000 500.000092 599.999939
vertex -500.000000 -499.999847 900.000061
vertex -500.000000 500.000153 899.999939
endloop
endfacet
facet normal -1.000000 0.000000 0.000000
outer loop
vertex -424.066071 1040.701172 599.999817
vertex -424.066071 500.000092 599.999939
vertex -424.066071 500.000153 899.999939
endloop
endfacet
facet normal -1.000000 0.000000 0.000000
outer loop
vertex -424.066071 1040.701172 599.999817
vertex -424.066071 500.000153 899.999939
vertex -424.066071 1040.701172 899.999817
endloop
endfacet
facet normal 1.000000 0.000000 0.000000
outer loop
vertex 424.065979 500.000092 599.999939
vertex 424.065979 1040.701172 599.999817
vertex 424.065979 1040.701172 899.999817
endloop
endfacet
facet normal 1.000000 0.000000 0.000000
outer loop
vertex 424.065979 500.000092 599.999939
vertex 424.065979 1040.701172 899.999817
vertex 424.065979 500.000153 899.999939
endloop
endfacet
facet normal 1.000000 0.000000 0.000000
outer loop
vertex 500.000000 -499.999908 600.000061
vertex 500.000000 500.000092 599.999939
vertex 500.000000 500.000153 899.999939
endloop
endfacet
facet normal 1.000000 0.000000 0.000000
outer loop
vertex 500.000000 -499.999908 600.000061
vertex 500.000000 500.000153 899.999939
vertex 500.000000 -499.999847 900.000061
endloop
endfacet
facet normal 0.000000 1.000000 0.000000
outer loop
vertex -424.066071 500.000092 599.999939
vertex -500.000000 500.000092 599.999939
vertex -500.000000 500.000153 899.999939
endloop
endfacet
facet normal 0.000000 1.000000 -0.000000
outer loop
vertex -424.066071 500.000092 599.999939
vertex -500.000000 500.000153 899.999939
vertex -424.066071 500.000153 899.999939
endloop
endfacet
facet normal 0.000000 1.000000 0.000000
outer loop
vertex 424.065979 1040.701172 599.999817
vertex -424.066071 1040.701172 599.999817
vertex -424.066071 1040.701172 899.999817
endloop
endfacet
facet normal 0.000000 1.000000 0.000000
outer loop
vertex 424.065979 1040.701172 599.999817
vertex -424.066071 1040.701172 899.999817
vertex 424.065979 1040.701172 899.999817
endloop
endfacet
facet normal 0.000000 1.000000 -0.000000
outer loop
vertex -424.066071 500.000153 899.999939
vertex -500.000000 500.000153 899.999939
vertex -500.000000 500.000183 1199.999878
endloop
endfacet
facet normal 0.000000 1.000000 0.000000
outer loop
vertex -424.066071 500.000153 899.999939
vertex -500.000000 500.000183 1199.999878
vertex -424.066071 500.000183 1199.999878
endloop
endfacet
facet normal 0.000000 1.000000 0.000000
outer loop
vertex 424.065979 1040.701172 899.999817
vertex -424.066071 1040.701172 899.999817
vertex -424.066071 1040.701294 1199.999878
endloop
endfacet
facet normal 0.000000 1.000000 -0.000000
outer loop
vertex 424.065979 1040.701172 899.999817
vertex -424.066071 1040.701294 1199.999878
vertex 424.065979 1040.701294 1199.999878
endloop
endfacet
facet normal 0.000000 1.000000 0.000000
outer loop
vertex 500.000000 500.000153 899.999939
vertex 424.065979 500.000153 899.999939
vertex 424.065979 500.000183 1199.999878
endloop
endfacet
facet normal 0.000000 1.000000 0.000000
outer loop
vertex 500.000000 500.000153 899.999939
vertex 424.065979 500.000183 1199.999878
vertex 500.000000 500.000183 1199.999878
endloop
endfacet
facet normal 0.000000 -1.000000 0.000000
outer loop
vertex -500.000000 -499.999847 900.000061
vertex 500.000000 -499.999847 900.000061
vertex 500.000000 -499.999817 1200.000122
endloop
endfacet
facet normal 0.000000 -1.000000 0.000000
outer loop
vertex -500.000000 -499.999847 900.000061
vertex 500.000000 -499.999817 1200.000122
vertex -500.000000 -499.999817 1200.000122
endloop
endfacet
facet normal -1.000000 0.000000 0.000000
outer loop
vertex -500.000000 500.000153 899.999939
vertex -500.000000 -499.999847 900.000061
vertex -500.000000 -499.999817 1200.000122
endloop
endfacet
facet normal -1.000000 0.000000 0.000000
outer loop
vertex -500.000000 500.000153 899.999939
vertex -500.000000 -499.999817 1200.000122
vertex -500.000000 500.000183 1199.999878
endloop
endfacet
facet normal -1.000000 0.000000 0.000000
outer loop
vertex -424.066071 1040.701172 899.999817
vertex -424.066071 500.000153 899.999939
vertex -424.066071 500.000183 1199.999878
endloop
endfacet
facet normal -1.000000 0.000000 0.000000
outer loop
vertex -424.066071 1040.701172 899.999817
vertex -424.066071 500.000183 1199.999878
vertex -424.066071 1040.701294 1199.999878
endloop
endfacet
facet normal 1.000000 0.000000 0.000000
outer loop
vertex 424.065979 500.000153 899.999939
vertex 424.065979 1040.701172 899.999817
vertex 424.065979 1040.701294 1199.999878
endloop
endfacet
facet normal 1.000000 0.000000 0.000000
outer loop
vertex 424.065979 500.000153 899.999939
vertex 424.065979 1040.701294 1199.999878
vertex 424.065979 500.000183 1199.999878
endloop
endfacet
facet normal 1.000000 0.000000 0.000000
outer loop
vertex 500.000000 -499.999847 900.000061
vertex 500.000000 500.000153 899.999939
vertex 500.000000 500.000183 1199.999878
endloop
endfacet
facet normal 1.000000 0.000000 0.000000
outer loop
vertex 500.000000 -499.999847 900.000061
vertex 500.000000 500.000183 1199.999878
vertex 500.000000 -499.999817 1200.000122
endloop
endfacet
endsolid building_005.002
