solid building_002.001
facet normal 0.000000 -1.000000 0.000000
outer loop
vertex -500.000000 -500.000000 0.000081
vertex -336.882935 -500.000000 0.000081
vertex -336.882935 -499.999939 450.000092
endloop
endfacet
facet normal 0.000000 -1.000000 0.000000
outer loop
vertex -500.000000 -500.000000 0.000081
vertex -336.882935 -499.999939 450.000092
vertex -500.000000 -499.999939 450.000092
endloop
endfacet
facet normal 0.000000 0.000000 1.000000
outer loop
vertex -500.000000 500.000305 1799.999878
vertex -500.000000 -499.999695 1800.000122
vertex -336.882935 -499.999695 1800.000122
endloop
endfacet
facet normal 0.000000 0.000000 1.000000
outer loop
vertex -336.882935 -499.999695 1800.000122
vertex -336.882935 -825.193970 1800.000122
vertex 348.642303 -825.193970 1800.000122
endloop
endfacet
facet normal 0.000000 0.000000 1.000000
outer loop
vertex 348.642303 -499.999695 1800.000122
vertex 500.000000 -499.999695 1800.000122
vertex 500.000000 500.000305 1799.999878
endloop
endfacet
facet normal 0.000000 0.000000 1.000000
outer loop
vertex -336.882935 -499.999695 1800.000122
vertex 348.642303 -825.193970 1800.000122
vertex 348.642303 -499.999695 1800.000122
endloop
endfacet
facet normal 0.000000 0.000000 1.000000
outer loop
vertex 500.000000 500.000305 1799.999878
vertex -500.000000 500.000305 1799.999878
vertex -336.882935 -499.999695 1800.000122
endloop
endfacet
facet normal 0.000000 0.000000 1.000000
outer loop
vertex -336.882935 -499.999695 1800.000122
vertex 348.642303 -499.999695 1800.000122
vertex 500.000000 500.000305 1799.999878
endloop
endfacet
facet normal 1.000000 -0.000000 0.000000
outer loop
vertex 500.000000 -500.000000 0.000081
vertex 500.000000 500.000000 -0.000081
vertex 500.000000 500.000061 449.999908
endloop
endfacet
facet normal 1.000000 0.000000 0.000000
outer loop
vertex 500.000000 -500.000000 0.000081
vertex 500.000000 500.000061 449.999908
vertex 500.000000 -499.999939 450.000092
endloop
endfacet
facet normal -1.000000 -0.000000 0.000000
outer loop
vertex -500.000000 500.000000 -0.000081
vertex -500.000000 -500.000000 0.000081
vertex -500.000000 -499.999939 450.000092
endloop
endfacet
facet normal -1.000000 0.000000 0.000000
outer loop
vertex -500.000000 500.000000 -0.000081
vertex -500.000000 -499.999939 450.000092
vertex -500.000000 500.000061 449.999908
endloop
endfacet
facet normal 1.000000 0.000000 0.000000
outer loop
vertex 348.642303 -825.194275 0.000134
vertex 348.642303 -500.000000 0.000081
vertex 348.642303 -499.999939 450.000092
endloop
endfacet
facet normal 1.000000 -0.000000 0.000000
outer loop
vertex 348.642303 -825.194275 0.000134
vertex 348.642303 -499.999939 450.000092
vertex 348.642303 -825.194214 450.000122
endloop
endfacet
facet normal 0.000000 1.000000 -0.000000
outer loop
vertex 500.000000 500.000000 -0.000081
vertex -500.000000 500.000000 -0.000081
vertex -500.000000 500.000061 449.999908
endloop
endfacet
facet normal 0.000000 1.000000 -0.000000
outer loop
vertex 500.000000 500.000000 -0.000081
vertex -500.000000 500.000061 449.999908
vertex 500.000000 500.000061 449.999908
endloop
endfacet
facet normal 0.000000 -1.000000 0.000000
outer loop
vertex 348.642303 -500.000000 0.000081
vertex 500.000000 -500.000000 0.000081
vertex 500.000000 -499.999939 450.000092
endloop
endfacet
facet normal 0.000000 -1.000000 0.000000
outer loop
vertex 348.642303 -500.000000 0.000081
vertex 500.000000 -499.999939 450.000092
vertex 348.642303 -499.999939 450.000092
endloop
endfacet
facet normal -1.000000 0.000000 0.000000
outer loop
vertex -336.882935 -500.000000 0.000081
vertex -336.882935 -825.194275 0.000134
vertex -336.882935 -825.194214 450.000122
endloop
endfacet
facet normal -1.000000 -0.000000 0.000000
outer loop
vertex -336.882935 -500.000000 0.000081
vertex -336.882935 -825.194214 450.000122
vertex -336.882935 -499.999939 450.000092
endloop
endfacet
facet normal 0.000000 -1.000000 0.000000
outer loop
vertex -336.882935 -825.194275 0.000134
vertex 348.642303 -825.194275 0.000134
vertex 348.642303 -825.194214 450.000122
endloop
endfacet
facet normal 0.000000 -1.000000 0.000000
outer loop
vertex -336.882935 -825.194275 0.000134
vertex 348.642303 -825.194214 450.000122
vertex -336.882935 -825.194214 450.000122
endloop
endfacet
facet normal -1.000000 0.000000 0.000000
outer loop
vertex -500.000000 500.000061 449.999908
vertex -500.000000 -499.999939 450.000092
vertex -500.000000 -499.999847 900.000061
endloop
endfacet
facet normal -1.000000 0.000000 0.000000
outer loop
vertex -500.000000 500.000061 449.999908
vertex -500.000000 -499.999847 900.000061
vertex -500.000000 500.000153 899.999939
endloop
endfacet
facet normal 1.000000 0.000000 0.000000
outer loop
vertex 500.000000 -499.999939 450.000092
vertex 500.000000 500.000061 449.999908
vertex 500.000000 500.000153 899.999939
endloop
endfacet
facet normal 1.000000 0.000000 0.000000
outer loop
vertex 500.000000 -499.999939 450.000092
vertex 500.000000 500.000153 899.999939
vertex 500.000000 -499.999847 900.000061
endloop
endfacet
facet normal 1.000000 0.000000 0.000000
outer loop
vertex 348.642303 -825.194214 450.000122
vertex 348.642303 -499.999939 450.000092
vertex 348.642303 -499.999847 900.000061
endloop
endfacet
facet normal 1.000000 -0.000000 0.000000
outer loop
vertex 348.642303 -825.194214 450.000122
vertex 348.642303 -499.999847 900.000061
vertex 348.642303 -825.194153 900.000122
endloop
endfacet
facet normal -1.000000 0.000000 0.000000
outer loop
vertex -336.882935 -499.999939 450.000092
vertex -336.882935 -825.194214 450.000122
vertex -336.882935 -825.194153 900.000122
endloop
endfacet
facet normal -1.000000 -0.000000 0.000000
outer loop
vertex -336.882935 -499.999939 450.000092
vertex -336.882935 -825.194153 900.000122
vertex -336.882935 -499.999847 900.000061
endloop
endfacet
facet normal 0.000000 -1.000000 0.000000
outer loop
vertex -500.000000 -499.999939 450.000092
vertex -336.882935 -499.999939 450.000092
vertex -336.882935 -499.999847 900.000061
endloop
endfacet
facet normal 0.000000 -1.000000 0.000000
outer loop
vertex -500.000000 -499.999939 450.000092
vertex -336.882935 -499.999847 900.000061
vertex -500.000000 -499.999847 900.000061
endloop
endfacet
facet normal 0.000000 1.000000 -0.000000
outer loop
vertex 500.000000 500.000061 449.999908
vertex -500.000000 500.000061 449.999908
vertex -500.000000 500.000153 899.999939
endloop
endfacet
facet normal 0.000000 1.000000 -0.000000
outer loop
vertex 500.000000 500.000061 449.999908
vertex -500.000000 500.000153 899.999939
vertex 500.000000 500.000153 899.999939
endloop
endfacet
facet normal 0.000000 -1.000000 0.000000
outer loop
vertex 348.642303 -499.999939 450.000092
vertex 500.000000 -499.999939 450.000092
vertex 500.000000 -499.999847 900.000061
endloop
endfacet
facet normal 0.000000 -1.000000 0.000000
outer loop
vertex 348.642303 -499.999939 450.000092
vertex 500.000000 -499.999847 900.000061
vertex 348.642303 -499.999847 900.000061
endloop
endfacet
facet normal 0.000000 -1.000000 0.000000
outer loop
vertex -336.882935 -825.194214 450.000122
vertex 348.642303 -825.194214 450.000122
vertex 348.642303 -825.194153 900.000122
endloop
endfacet
facet normal 0.000000 -1.000000 0.000000
outer loop
vertex -336.882935 -825.194214 450.000122
vertex 348.642303 -825.194153 900.000122
vertex -336.882935 -825.194153 900.000122
endloop
endfacet
facet normal 0.000000 -1.000000 0.000000
outer loop
vertex -336.882935 -825.194153 900.000122
vertex 348.642303 -825.194153 900.000122
vertex 348.642303 -825.194031 1350.000122
endloop
endfacet
facet normal 0.000000 -1.000000 0.000000
outer loop
vertex -336.882935 -825.194153 900.000122
vertex 348.642303 -825.194031 1350.000122
vertex -336.882935 -825.194031 1350.000122
endloop
endfacet
facet normal 0.000000 -1.000000 0.000000
outer loop
vertex -500.000000 -499.999847 900.000061
vertex -336.882935 -499.999847 900.000061
vertex -336.882935 -499.999786 1350.000122
endloop
endfacet
facet normal 0.000000 -1.000000 0.000000
outer loop
vertex -500.000000 -499.999847 900.000061
vertex -336.882935 -499.999786 1350.000122
vertex -500.000000 -499.999786 1350.000122
endloop
endfacet
facet normal -1.000000 0.000000 0.000000
outer loop
vertex -500.000000 500.000153 899.999939
vertex -500.000000 -499.999847 900.000061
vertex -500.000000 -499.999786 1350.000122
endloop
endfacet
facet normal -1.000000 0.000000 0.000000
outer loop
vertex -500.000000 500.000153 899.999939
vertex -500.000000 -499.999786 1350.000122
vertex -500.000000 500.000214 1349.999878
endloop
endfacet
facet normal 1.000000 0.000000 0.000000
outer loop
vertex 500.000000 -499.999847 900.000061
vertex 500.000000 500.000153 899.999939
vertex 500.000000 500.000214 1349.999878
endloop
endfacet
facet normal 1.000000 0.000000 0.000000
outer loop
vertex 500.000000 -499.999847 900.000061
vertex 500.000000 500.000214 1349.999878
vertex 500.000000 -499.999786 1350.000122
endloop
endfacet
facet normal 1.000000 -0.000000 0.000000
outer loop
vertex 348.642303 -825.194153 900.000122
vertex 348.642303 -499.999847 900.000061
vertex 348.642303 -499.999786 1350.000122
endloop
endfacet
facet normal 1.000000 0.000000 0.000000
outer loop
vertex 348.642303 -825.194153 900.000122
vertex 348.642303 -499.999786 1350.000122
vertex 348.642303 -825.194031 1350.000122
endloop
endfacet
facet normal -1.000000 0.000000 0.000000
outer loop
vertex -336.882935 -499.999847 900.000061
vertex -336.882935 -825.194153 900.000122
vertex -336.882935 -825.194031 1350.000122
endloop
endfacet
facet normal -1.000000 0.000000 0.000000
outer loop
vertex -336.882935 -499.999847 900.000061
vertex -336.882935 -825.194031 1350.000122
vertex -336.882935 -499.999786 1350.000122
endloop
endfacet
facet normal 0.000000 1.000000 -0.000000
outer loop
vertex 500.000000 500.000153 899.999939
vertex -500.000000 500.000153 899.999939
vertex -500.000000 500.000214 1349.999878
endloop
endfacet
facet normal 0.000000 1.000000 -0.000000
outer loop
vertex 500.000000 500.000153 899.999939
vertex -500.000000 500.000214 1349.999878
vertex 500.000000 500.000214 1349.999878
endloop
endfacet
facet normal 0.000000 -1.000000 0.000000
outer loop
vertex 348.642303 -499.999847 900.000061
vertex 500.000000 -499.999847 900.000061
vertex 500.000000 -499.999786 1350.000122
endloop
endfacet
facet normal 0.000000 -1.000000 0.000000
outer loop
vertex 348.642303 -499.999847 900.000061
vertex 500.000000 -499.999786 1350.000122
vertex 348.642303 -499.999786 1350.000122
endloop
endfacet
facet normal 0.000000 1.000000 -0.000000
outer loop
vertex 500.000000 500.000214 1349.999878
vertex -500.000000 500.000214 1349.999878
vertex -500.000000 500.000305 1799.999878
endloop
endfacet
facet normal 0.000000 1.000000 -0.000000
outer loop
vertex 500.000000 500.000214 1349.999878
vertex -500.000000 500.000305 1799.999878
vertex 500.000000 500.000305 1799.999878
endloop
endfacet
facet normal 0.000000 -1.000000 0.000000
outer loop
vertex 348.642303 -499.999786 1350.000122
vertex 500.000000 -499.999786 1350.000122
vertex 500.000000 -499.999695 1800.000122
endloop
endfacet
facet normal 0.000000 -1.000000 0.000000
outer loop
vertex 348.642303 -499.999786 1350.000122
vertex 500.000000 -499.999695 1800.000122
vertex 348.642303 -499.999695 1800.000122
endloop
endfacet
facet normal 0.000000 -1.000000 0.000000
outer loop
vertex -336.882935 -825.194031 1350.000122
vertex 348.642303 -825.194031 1350.000122
vertex 348.642303 -825.193970 1800.000122
endloop
endfacet
facet normal 0.000000 -1.000000 0.000000
outer loop
vertex -336.882935 -825.194031 1350.000122
vertex 348.642303 -825.193970 1800.000122
vertex -336.882935 -825.193970 1800.000122
endloop
endfacet
facet normal 0.000000 -1.000000 0.000000
outer loop
vertex -500.000000 -499.999786 1350.000122
vertex -336.882935 -499.999786 1350.000122
vertex -336.882935 -499.999695 1800.000122
endloop
endfacet
facet normal 0.000000 -1.000000 0.000000
outer loop
vertex -500.000000 -499.999786 1350.000122
vertex -336.882935 -499.999695 1800.000122
vertex -500.000000 -499.999695 1800.000122
endloop
endfacet
facet normal -1.000000 0.000000 0.000000
outer loop
vertex -500.000000 500.000214 1349.999878
vertex -500.000000 -499.999786 1350.000122
vertex -500.000000 -499.999695 1800.000122
endloop
endfacet
facet normal -1.000000 0.000000 0.000000
outer loop
vertex -500.000000 500.000214 1349.999878
vertex -500.000000 -499.999695 1800.000122
vertex -500.000000 500.000305 1799.999878
endloop
endfacet
facet normal 1.000000 0.000000 0.000000
outer loop
vertex 500.000000 -499.999786 1350.000122
vertex 500.000000 500.000214 1349.999878
vertex 500.000000 500.000305 1799.999878
endloop
endfacet
facet normal 1.000000 0.000000 0.000000
outer loop
vertex 500.000000 -499.999786 1350.000122
vertex 500.000000 500.000305 1799.999878
vertex 500.000000 -499.999695 1800.000122
endloop
endfacet
facet normal 1.000000 0.000000 0.000000
outer loop
vertex 348.642303 -825.194031 1350.000122
vertex 348.642303 -499.999786 1350.000122
vertex 348.642303 -499.999695 1800.000122
endloop
endfacet
facet normal 1.000000 0.000000 0.000000
outer loop
vertex 348.642303 -825.194031 1350.000122
vertex 348.642303 -499.999695 1800.000122
vertex 348.642303 -825.193970 1800.000122
endloop
endfacet
facet normal -1.000000 0.000000 0.000000
outer loop
vertex -336.882935 -499.999786 1350.000122
vertex -336.882935 -825.194031 1350.000122
vertex -336.882935 -825.193970 1800.000122
endloop
endfacet
facet normal -1.000000 0.000000 0.000000
outer loop
vertex -336.882935 -499.999786 1350.000122
vertex -336.882935 -825.193970 1800.000122
vertex -336.882935 -499.999695 1800.000122
endloop
endfacet
endsolid building_002.001
