solid building_010.001
facet normal 0.000000 1.000000 -0.000000
outer loop
vertex 500.000000 500.000000 -0.000081
vertex 353.394714 500.000000 -0.000081
vertex 353.394714 500.000061 374.999908
endloop
endfacet
facet normal 0.000000 1.000000 0.000000
outer loop
vertex 500.000000 500.000000 -0.000081
vertex 353.394714 500.000061 374.999908
vertex 500.000000 500.000061 374.999908
endloop
endfacet
facet normal 0.000000 0.000000 1.000000
outer loop
vertex -500.000000 500.000244 1499.999878
vertex -500.000000 -499.999756 1500.000122
vertex 500.000000 -499.999756 1500.000122
endloop
endfacet
facet normal 0.000000 0.000000 1.000000
outer loop
vertex 500.000000 -499.999756 1500.000122
vertex 500.000000 500.000244 1499.999878
vertex 353.394714 500.000244 1499.999878
endloop
endfacet
facet normal 0.000000 0.000000 1.000000
outer loop
vertex 353.394714 500.000244 1499.999878
vertex 353.394714 946.926147 1499.999878
vertex -353.394714 946.926147 1499.999878
endloop
endfacet
facet normal 0.000000 0.000000 1.000000
outer loop
vertex -353.394714 500.000244 1499.999878
vertex -500.000000 500.000244 1499.999878
vertex 500.000000 -499.999756 1500.000122
endloop
endfacet
facet normal 0.000000 0.000000 1.000000
outer loop
vertex 353.394714 500.000244 1499.999878
vertex -353.394714 946.926147 1499.999878
vertex -353.394714 500.000244 1499.999878
endloop
endfacet
facet normal 0.000000 0.000000 1.000000
outer loop
vertex 500.000000 -499.999756 1500.000122
vertex 353.394714 500.000244 1499.999878
vertex -353.394714 500.000244 1499.999878
endloop
endfacet
facet normal 1.000000 -0.000000 0.000000
outer loop
vertex 500.000000 -500.000000 0.000081
vertex 500.000000 500.000000 -0.000081
vertex 500.000000 500.000061 374.999908
endloop
endfacet
facet normal 1.000000 0.000000 0.000000
outer loop
vertex 500.000000 -500.000000 0.000081
vertex 500.000000 500.000061 374.999908
vertex 500.000000 -499.999939 375.000092
endloop
endfacet
facet normal -1.000000 -0.000000 0.000000
outer loop
vertex -500.000000 500.000000 -0.000081
vertex -500.000000 -500.000000 0.000081
vertex -500.000000 -499.999939 375.000092
endloop
endfacet
facet normal -1.000000 0.000000 0.000000
outer loop
vertex -500.000000 500.000000 -0.000081
vertex -500.000000 -499.999939 375.000092
vertex -500.000000 500.000061 374.999908
endloop
endfacet
facet normal -1.000000 0.000000 0.000000
outer loop
vertex -353.394714 946.925903 -0.000154
vertex -353.394714 500.000000 -0.000081
vertex -353.394714 500.000061 374.999908
endloop
endfacet
facet normal -1.000000 0.000000 0.000000
outer loop
vertex -353.394714 946.925903 -0.000154
vertex -353.394714 500.000061 374.999908
vertex -353.394714 946.925964 374.999847
endloop
endfacet
facet normal 0.000000 1.000000 -0.000000
outer loop
vertex -353.394714 500.000000 -0.000081
vertex -500.000000 500.000000 -0.000081
vertex -500.000000 500.000061 374.999908
endloop
endfacet
facet normal 0.000000 1.000000 0.000000
outer loop
vertex -353.394714 500.000000 -0.000081
vertex -500.000000 500.000061 374.999908
vertex -353.394714 500.000061 374.999908
endloop
endfacet
facet normal 0.000000 -1.000000 0.000000
outer loop
vertex -500.000000 -500.000000 0.000081
vertex 500.000000 -500.000000 0.000081
vertex 500.000000 -499.999939 375.000092
endloop
endfacet
facet normal 0.000000 -1.000000 0.000000
outer loop
vertex -500.000000 -500.000000 0.000081
vertex 500.000000 -499.999939 375.000092
vertex -500.000000 -499.999939 375.000092
endloop
endfacet
facet normal 1.000000 0.000000 0.000000
outer loop
vertex 353.394714 500.000000 -0.000081
vertex 353.394714 946.925903 -0.000154
vertex 353.394714 946.925964 374.999847
endloop
endfacet
facet normal 1.000000 -0.000000 0.000000
outer loop
vertex 353.394714 500.000000 -0.000081
vertex 353.394714 946.925964 374.999847
vertex 353.394714 500.000061 374.999908
endloop
endfacet
facet normal 0.000000 1.000000 0.000000
outer loop
vertex 353.394714 946.925903 -0.000154
vertex -353.394714 946.925903 -0.000154
vertex -353.394714 946.925964 374.999847
endloop
endfacet
facet normal 0.000000 1.000000 -0.000000
outer loop
vertex 353.394714 946.925903 -0.000154
vertex -353.394714 946.925964 374.999847
vertex 353.394714 946.925964 374.999847
endloop
endfacet
facet normal -1.000000 0.000000 0.000000
outer loop
vertex -500.000000 500.000061 374.999908
vertex -500.000000 -499.999939 375.000092
vertex -500.000000 -499.999878 750.000061
endloop
endfacet
facet normal -1.000000 0.000000 0.000000
outer loop
vertex -500.000000 500.000061 374.999908
vertex -500.000000 -499.999878 750.000061
vertex -500.000000 500.000122 749.999939
endloop
endfacet
facet normal -1.000000 0.000000 0.000000
outer loop
vertex -353.394714 946.925964 374.999847
vertex -353.394714 500.000061 374.999908
vertex -353.394714 500.000122 749.999939
endloop
endfacet
facet normal -1.000000 0.000000 0.000000
outer loop
vertex -353.394714 946.925964 374.999847
vertex -353.394714 500.000122 749.999939
vertex -353.394714 946.926025 749.999817
endloop
endfacet
facet normal 1.000000 0.000000 0.000000
outer loop
vertex 353.394714 500.000061 374.999908
vertex 353.394714 946.925964 374.999847
vertex 353.394714 946.926025 749.999817
endloop
endfacet
facet normal 1.000000 0.000000 0.000000
outer loop
vertex 353.394714 500.000061 374.999908
vertex 353.394714 946.926025 749.999817
vertex 353.394714 500.000122 749.999939
endloop
endfacet
facet normal 1.000000 0.000000 0.000000
outer loop
vertex 500.000000 -499.999939 375.000092
vertex 500.000000 500.000061 374.999908
vertex 500.000000 500.000122 749.999939
endloop
endfacet
facet normal 1.000000 0.000000 0.000000
outer loop
vertex 500.000000 -499.999939 375.000092
vertex 500.000000 500.000122 749.999939
vertex 500.000000 -499.999878 750.000061
endloop
endfacet
facet normal 0.000000 -1.000000 0.000000
outer loop
vertex -500.000000 -499.999939 375.000092
vertex 500.000000 -499.999939 375.000092
vertex 500.000000 -499.999878 750.000061
endloop
endfacet
facet normal 0.000000 -1.000000 0.000000
outer loop
vertex -500.000000 -499.999939 375.000092
vertex 500.000000 -499.999878 750.000061
vertex -500.000000 -499.999878 750.000061
endloop
endfacet
facet normal 0.000000 1.000000 -0.000000
outer loop
vertex -353.394714 500.000061 374.999908
vertex -500.000000 500.000061 374.999908
vertex -500.000000 500.000122 749.999939
endloop
endfacet
facet normal 0.000000 1.000000 -0.000000
outer loop
vertex -353.394714 500.000061 374.999908
vertex -500.000000 500.000122 749.999939
vertex -353.394714 500.000122 749.999939
endloop
endfacet
facet normal 0.000000 1.000000 -0.000000
outer loop
vertex 353.394714 946.925964 374.999847
vertex -353.394714 946.925964 374.999847
vertex -353.394714 946.926025 749.999817
endloop
endfacet
facet normal 0.000000 1.000000 0.000000
outer loop
vertex 353.394714 946.925964 374.999847
vertex -353.394714 946.926025 749.999817
vertex 353.394714 946.926025 749.999817
endloop
endfacet
facet normal 0.000000 1.000000 -0.000000
outer loop
vertex 500.000000 500.000061 374.999908
vertex 353.394714 500.000061 374.999908
vertex 353.394714 500.000122 749.999939
endloop
endfacet
facet normal 0.000000 1.000000 -0.000000
outer loop
vertex 500.000000 500.000061 374.999908
vertex 353.394714 500.000122 749.999939
vertex 500.000000 500.000122 749.999939
endloop
endfacet
facet normal 0.000000 1.000000 0.000000
outer loop
vertex 500.000000 500.000122 749.999939
vertex 353.394714 500.000122 749.999939
vertex 353.394714 500.000183 1124.999878
endloop
endfacet
facet normal 0.000000 1.000000 -0.000000
outer loop
vertex 500.000000 500.000122 749.999939
vertex 353.394714 500.000183 1124.999878
vertex 500.000000 500.000183 1124.999878
endloop
endfacet
facet normal 0.000000 -1.000000 0.000000
outer loop
vertex -500.000000 -499.999878 750.000061
vertex 500.000000 -499.999878 750.000061
vertex 500.000000 -499.999817 1125.000122
endloop
endfacet
facet normal 0.000000 -1.000000 0.000000
outer loop
vertex -500.000000 -499.999878 750.000061
vertex 500.000000 -499.999817 1125.000122
vertex -500.000000 -499.999817 1125.000122
endloop
endfacet
facet normal -1.000000 0.000000 0.000000
outer loop
vertex -500.000000 500.000122 749.999939
vertex -500.000000 -499.999878 750.000061
vertex -500.000000 -499.999817 1125.000122
endloop
endfacet
facet normal -1.000000 0.000000 0.000000
outer loop
vertex -500.000000 500.000122 749.999939
vertex -500.000000 -499.999817 1125.000122
vertex -500.000000 500.000183 1124.999878
endloop
endfacet
facet normal -1.000000 0.000000 0.000000
outer loop
vertex -353.394714 946.926025 749.999817
vertex -353.394714 500.000122 749.999939
vertex -353.394714 500.000183 1124.999878
endloop
endfacet
facet normal -1.000000 0.000000 0.000000
outer loop
vertex -353.394714 946.926025 749.999817
vertex -353.394714 500.000183 1124.999878
vertex -353.394714 946.926086 1124.999878
endloop
endfacet
facet normal 1.000000 0.000000 0.000000
outer loop
vertex 353.394714 500.000122 749.999939
vertex 353.394714 946.926025 749.999817
vertex 353.394714 946.926086 1124.999878
endloop
endfacet
facet normal 1.000000 0.000000 0.000000
outer loop
vertex 353.394714 500.000122 749.999939
vertex 353.394714 946.926086 1124.999878
vertex 353.394714 500.000183 1124.999878
endloop
endfacet
facet normal 1.000000 0.000000 0.000000
outer loop
vertex 500.000000 -499.999878 750.000061
vertex 500.000000 500.000122 749.999939
vertex 500.000000 500.000183 1124.999878
endloop
endfacet
facet normal 1.000000 0.000000 0.000000
outer loop
vertex 500.000000 -499.999878 750.000061
vertex 500.000000 500.000183 1124.999878
vertex 500.000000 -499.999817 1125.000122
endloop
endfacet
facet normal 0.000000 1.000000 0.000000
outer loop
vertex -353.394714 500.000122 749.999939
vertex -500.000000 500.000122 749.999939
vertex -500.000000 500.000183 1124.999878
endloop
endfacet
facet normal 0.000000 1.000000 -0.000000
outer loop
vertex -353.394714 500.000122 749.999939
vertex -500.000000 500.000183 1124.999878
vertex -353.394714 500.000183 1124.999878
endloop
endfacet
facet normal 0.000000 1.000000 0.000000
outer loop
vertex 353.394714 946.926025 749.999817
vertex -353.394714 946.926025 749.999817
vertex -353.394714 946.926086 1124.999878
endloop
endfacet
facet normal 0.000000 1.000000 -0.000000
outer loop
vertex 353.394714 946.926025 749.999817
vertex -353.394714 946.926086 1124.999878
vertex 353.394714 946.926086 1124.999878
endloop
endfacet
facet normal 0.000000 1.000000 0.000000
outer loop
vertex -353.394714 500.000183 1124.999878
vertex -500.000000 500.000183 1124.999878
vertex -500.000000 500.000244 1499.999878
endloop
endfacet
facet normal 0.000000 1.000000 -0.000000
outer loop
vertex -353.394714 500.000183 1124.999878
vertex -500.000000 500.000244 1499.999878
vertex -353.394714 500.000244 1499.999878
endloop
endfacet
facet normal 0.000000 1.000000 0.000000
outer loop
vertex 353.394714 946.926086 1124.999878
vertex -353.394714 946.926086 1124.999878
vertex -353.394714 946.926147 1499.999878
endloop
endfacet
facet normal 0.000000 1.000000 0.000000
outer loop
vertex 353.394714 946.926086 1124.999878
vertex -353.394714 946.926147 1499.999878
vertex 353.394714 946.926147 1499.999878
endloop
endfacet
facet normal 0.000000 1.000000 0.000000
outer loop
vertex 500.000000 500.000183 1124.999878
vertex 353.394714 500.000183 1124.999878
vertex 353.394714 500.000244 1499.999878
endloop
endfacet
facet normal 0.000000 1.000000 -0.000000
outer loop
vertex 500.000000 500.000183 1124.999878
vertex 353.394714 500.000244 1499.999878
vertex 500.000000 500.000244 1499.999878
endloop
endfacet
facet normal 0.000000 -1.000000 0.000000
outer loop
vertex -500.000000 -499.999817 1125.000122
vertex 500.000000 -499.999817 1125.000122
vertex 500.000000 -499.999756 1500.000122
endloop
endfacet
facet normal 0.000000 -1.000000 0.000000
outer loop
vertex -500.000000 -499.999817 1125.000122
vertex 500.000000 -499.999756 1500.000122
vertex -500.000000 -499.999756 1500.000122
endloop
endfacet
facet normal -1.000000 0.000000 0.000000
outer loop
vertex -500.000000 500.000183 1124.999878
vertex -500.000000 -499.999817 1125.000122
vertex -500.000000 -499.999756 1500.000122
endloop
endfacet
facet normal -1.000000 0.000000 0.000000
outer loop
vertex -500.000000 500.000183 1124.999878
vertex -500.000000 -499.999756 1500.000122
vertex -500.000000 500.000244 1499.999878
endloop
endfacet
facet normal -1.000000 0.000000 0.000000
outer loop
vertex -353.394714 946.926086 1124.999878
vertex -353.394714 500.000183 1124.999878
vertex -353.394714 500.000244 1499.999878
endloop
endfacet
facet normal -1.000000 0.000000 0.000000
outer loop
vertex -353.394714 946.926086 1124.999878
vertex -353.394714 500.000244 1499.999878
vertex -353.394714 946.926147 1499.999878
endloop
endfacet
facet normal 1.000000 0.000000 0.000000
outer loop
vertex 353.394714 500.000183 1124.999878
vertex 353.394714 946.926086 1124.999878
vertex 353.394714 946.926147 1499.999878
endloop
endfacet
facet normal 1.000000 0.000000 0.000000
outer loop
vertex 353.394714 500.000183 1124.999878
vertex 353.394714 946.926147 1499.999878
vertex 353.394714 500.000244 1499.999878
endloop
endfacet
facet normal 1.000000 0.000000 0.000000
outer loop
vertex 500.000000 -499.999817 1125.000122
vertex 500.000000 500.000183 1124.999878
vertex 500.000000 500.000244 1499.999878
endloop
endfacet
facet normal 1.000000 0.000000 0.000000
outer loop
vertex 500.000000 -499.999817 1125.000122
vertex 500.000000 500.000244 1499.999878
vertex 500.000000 -499.999756 1500.000122
endloop
endfacet
endsolid building_010.001
