solid building_005.001
facet normal 0.000000 1.000000 0.000000
outer loop
vertex 1111.262085 402.859924 -0.000066
vertex 500.000000 402.859924 -0.000066
vertex 500.000000 402.859955 199.999939
endloop
endfacet
facet normal 0.000000 1.000000 -0.000000
outer loop
vertex 1111.262085 402.859924 -0.000066
vertex 500.000000 402.859955 199.999939
vertex 1111.262085 402.859955 199.999939
endloop
endfacet
facet normal 0.000000 0.000000 1.000000
outer loop
vertex -500.000000 500.000336 1999.999878
vertex -500.000000 -499.999664 2000.000122
vertex 500.000000 -499.999664 2000.000122
endloop
endfacet
facet normal 0.000000 0.000000 1.000000
outer loop
vertex 500.000000 -305.705475 2000.000000
vertex 1111.262085 -305.705475 2000.000000
vertex 1111.262085 402.860260 1999.999878
endloop
endfacet
facet normal 0.000000 0.000001 1.000000
outer loop
vertex -500.000000 500.000336 1999.999878
vertex 500.000000 -499.999664 2000.000122
vertex 500.000000 -305.705475 2000.000000
endloop
endfacet
facet normal 0.000000 0.000000 1.000000
outer loop
vertex 500.000000 402.860260 1999.999878
vertex 500.000000 500.000336 1999.999878
vertex -500.000000 500.000336 1999.999878
endloop
endfacet
facet normal 0.000000 0.000000 1.000000
outer loop
vertex 500.000000 -305.705475 2000.000000
vertex 1111.262085 402.860260 1999.999878
vertex 500.000000 402.860260 1999.999878
endloop
endfacet
facet normal -0.000000 0.000000 1.000000
outer loop
vertex 500.000000 -305.705475 2000.000000
vertex 500.000000 402.860260 1999.999878
vertex -500.000000 500.000336 1999.999878
endloop
endfacet
facet normal 0.000000 1.000000 0.000000
outer loop
vertex 500.000000 500.000000 -0.000081
vertex -500.000000 500.000000 -0.000081
vertex -500.000000 500.000031 199.999924
endloop
endfacet
facet normal 0.000000 1.000000 -0.000000
outer loop
vertex 500.000000 500.000000 -0.000081
vertex -500.000000 500.000031 199.999924
vertex 500.000000 500.000031 199.999924
endloop
endfacet
facet normal 0.000000 -1.000000 0.000000
outer loop
vertex -500.000000 -500.000000 0.000081
vertex 500.000000 -500.000000 0.000081
vertex 500.000000 -499.999969 200.000076
endloop
endfacet
facet normal 0.000000 -1.000000 0.000000
outer loop
vertex -500.000000 -500.000000 0.000081
vertex 500.000000 -499.999969 200.000076
vertex -500.000000 -499.999969 200.000076
endloop
endfacet
facet normal 0.000000 -1.000000 0.000000
outer loop
vertex 500.000000 -305.705811 0.000050
vertex 1111.262085 -305.705811 0.000050
vertex 1111.262085 -305.705780 200.000046
endloop
endfacet
facet normal 0.000000 -1.000000 0.000000
outer loop
vertex 500.000000 -305.705811 0.000050
vertex 1111.262085 -305.705780 200.000046
vertex 500.000000 -305.705780 200.000046
endloop
endfacet
facet normal 1.000000 0.000000 0.000000
outer loop
vertex 1111.262085 -305.705811 0.000050
vertex 1111.262085 402.859924 -0.000066
vertex 1111.262085 402.859955 199.999939
endloop
endfacet
facet normal 1.000000 0.000000 0.000000
outer loop
vertex 1111.262085 -305.705811 0.000050
vertex 1111.262085 402.859955 199.999939
vertex 1111.262085 -305.705780 200.000046
endloop
endfacet
facet normal 1.000000 0.000000 0.000000
outer loop
vertex 500.000000 -500.000000 0.000081
vertex 500.000000 -305.705811 0.000050
vertex 500.000000 -305.705780 200.000046
endloop
endfacet
facet normal 1.000000 0.000000 0.000000
outer loop
vertex 500.000000 -500.000000 0.000081
vertex 500.000000 -305.705780 200.000046
vertex 500.000000 -499.999969 200.000076
endloop
endfacet
facet normal 1.000000 0.000000 0.000000
outer loop
vertex 500.000000 402.859924 -0.000066
vertex 500.000000 500.000000 -0.000081
vertex 500.000000 500.000031 199.999924
endloop
endfacet
facet normal 1.000000 0.000000 0.000000
outer loop
vertex 500.000000 402.859924 -0.000066
vertex 500.000000 500.000031 199.999924
vertex 500.000000 402.859955 199.999939
endloop
endfacet
facet normal -1.000000 0.000000 0.000000
outer loop
vertex -500.000000 500.000000 -0.000081
vertex -500.000000 -500.000000 0.000081
vertex -500.000000 -499.999969 200.000076
endloop
endfacet
facet normal -1.000000 0.000000 0.000000
outer loop
vertex -500.000000 500.000000 -0.000081
vertex -500.000000 -499.999969 200.000076
vertex -500.000000 500.000031 199.999924
endloop
endfacet
facet normal 0.000000 -1.000000 0.000000
outer loop
vertex -500.000000 -499.999969 200.000076
vertex 500.000000 -499.999969 200.000076
vertex 500.000000 -499.999939 400.000092
endloop
endfacet
facet normal 0.000000 -1.000000 0.000000
outer loop
vertex -500.000000 -499.999969 200.000076
vertex 500.000000 -499.999939 400.000092
vertex -500.000000 -499.999939 400.000092
endloop
endfacet
facet normal 0.000000 1.000000 -0.000000
outer loop
vertex 500.000000 500.000031 199.999924
vertex -500.000000 500.000031 199.999924
vertex -500.000000 500.000061 399.999908
endloop
endfacet
facet normal 0.000000 1.000000 0.000000
outer loop
vertex 500.000000 500.000031 199.999924
vertex -500.000000 500.000061 399.999908
vertex 500.000000 500.000061 399.999908
endloop
endfacet
facet normal 0.000000 1.000000 -0.000000
outer loop
vertex 1111.262085 402.859955 199.999939
vertex 500.000000 402.859955 199.999939
vertex 500.000000 402.859985 399.999939
endloop
endfacet
facet normal 0.000000 1.000000 0.000000
outer loop
vertex 1111.262085 402.859955 199.999939
vertex 500.000000 402.859985 399.999939
vertex 1111.262085 402.859985 399.999939
endloop
endfacet
facet normal 0.000000 -1.000000 0.000001
outer loop
vertex 500.000000 -305.705780 200.000046
vertex 1111.262085 -305.705780 200.000046
vertex 1111.262085 -305.705750 400.000061
endloop
endfacet
facet normal 0.000000 -1.000000 0.000000
outer loop
vertex 500.000000 -305.705780 200.000046
vertex 1111.262085 -305.705750 400.000061
vertex 500.000000 -305.705750 400.000061
endloop
endfacet
facet normal -1.000000 0.000000 0.000000
outer loop
vertex -500.000000 500.000031 199.999924
vertex -500.000000 -499.999969 200.000076
vertex -500.000000 -499.999939 400.000092
endloop
endfacet
facet normal -1.000000 0.000000 0.000000
outer loop
vertex -500.000000 500.000031 199.999924
vertex -500.000000 -499.999939 400.000092
vertex -500.000000 500.000061 399.999908
endloop
endfacet
facet normal 1.000000 0.000000 0.000000
outer loop
vertex 500.000000 402.859955 199.999939
vertex 500.000000 500.000031 199.999924
vertex 500.000000 500.000061 399.999908
endloop
endfacet
facet normal 1.000000 0.000000 0.000000
outer loop
vertex 500.000000 402.859955 199.999939
vertex 500.000000 500.000061 399.999908
vertex 500.000000 402.859985 399.999939
endloop
endfacet
facet normal 1.000000 0.000000 0.000000
outer loop
vertex 1111.262085 -305.705780 200.000046
vertex 1111.262085 402.859955 199.999939
vertex 1111.262085 402.859985 399.999939
endloop
endfacet
facet normal 1.000000 0.000000 0.000000
outer loop
vertex 1111.262085 -305.705780 200.000046
vertex 1111.262085 402.859985 399.999939
vertex 1111.262085 -305.705750 400.000061
endloop
endfacet
facet normal 1.000000 0.000000 0.000000
outer loop
vertex 500.000000 -499.999969 200.000076
vertex 500.000000 -305.705780 200.000046
vertex 500.000000 -305.705750 400.000061
endloop
endfacet
facet normal 1.000000 0.000000 0.000000
outer loop
vertex 500.000000 -499.999969 200.000076
vertex 500.000000 -305.705750 400.000061
vertex 500.000000 -499.999939 400.000092
endloop
endfacet
facet normal 1.000000 0.000000 0.000000
outer loop
vertex 500.000000 402.859985 399.999939
vertex 500.000000 500.000061 399.999908
vertex 500.000000 500.000092 599.999939
endloop
endfacet
facet normal 1.000000 0.000000 0.000000
outer loop
vertex 500.000000 402.859985 399.999939
vertex 500.000000 500.000092 599.999939
vertex 500.000000 402.860016 599.999939
endloop
endfacet
facet normal 1.000000 0.000000 0.000000
outer loop
vertex 1111.262085 -305.705750 400.000061
vertex 1111.262085 402.859985 399.999939
vertex 1111.262085 402.860016 599.999939
endloop
endfacet
facet normal 1.000000 0.000000 0.000000
outer loop
vertex 1111.262085 -305.705750 400.000061
vertex 1111.262085 402.860016 599.999939
vertex 1111.262085 -305.705719 600.000061
endloop
endfacet
facet normal 1.000000 0.000000 0.000000
outer loop
vertex 500.000000 -499.999939 400.000092
vertex 500.000000 -305.705750 400.000061
vertex 500.000000 -305.705719 600.000061
endloop
endfacet
facet normal 1.000000 0.000000 0.000000
outer loop
vertex 500.000000 -499.999939 400.000092
vertex 500.000000 -305.705719 600.000061
vertex 500.000000 -499.999908 600.000061
endloop
endfacet
facet normal 0.000000 1.000000 0.000000
outer loop
vertex 500.000000 500.000061 399.999908
vertex -500.000000 500.000061 399.999908
vertex -500.000000 500.000092 599.999939
endloop
endfacet
facet normal 0.000000 1.000000 -0.000000
outer loop
vertex 500.000000 500.000061 399.999908
vertex -500.000000 500.000092 599.999939
vertex 500.000000 500.000092 599.999939
endloop
endfacet
facet normal 0.000000 1.000000 0.000000
outer loop
vertex 1111.262085 402.859985 399.999939
vertex 500.000000 402.859985 399.999939
vertex 500.000000 402.860016 599.999939
endloop
endfacet
facet normal 0.000000 1.000000 -0.000000
outer loop
vertex 1111.262085 402.859985 399.999939
vertex 500.000000 402.860016 599.999939
vertex 1111.262085 402.860016 599.999939
endloop
endfacet
facet normal 0.000000 -1.000000 0.000000
outer loop
vertex 500.000000 -305.705750 400.000061
vertex 1111.262085 -305.705750 400.000061
vertex 1111.262085 -305.705719 600.000061
endloop
endfacet
facet normal 0.000000 -1.000000 0.000000
outer loop
vertex 500.000000 -305.705750 400.000061
vertex 1111.262085 -305.705719 600.000061
vertex 500.000000 -305.705719 600.000061
endloop
endfacet
facet normal 0.000000 -1.000000 0.000000
outer loop
vertex -500.000000 -499.999939 400.000092
vertex 500.000000 -499.999939 400.000092
vertex 500.000000 -499.999908 600.000061
endloop
endfacet
facet normal 0.000000 -1.000000 0.000000
outer loop
vertex -500.000000 -499.999939 400.000092
vertex 500.000000 -499.999908 600.000061
vertex -500.000000 -499.999908 600.000061
endloop
endfacet
facet normal -1.000000 0.000000 0.000000
outer loop
vertex -500.000000 500.000061 399.999908
vertex -500.000000 -499.999939 400.000092
vertex -500.000000 -499.999908 600.000061
endloop
endfacet
facet normal -1.000000 0.000000 0.000000
outer loop
vertex -500.000000 500.000061 399.999908
vertex -500.000000 -499.999908 600.000061
vertex -500.000000 500.000092 599.999939
endloop
endfacet
facet normal 0.000000 -1.000000 0.000000
outer loop
vertex -500.000000 -499.999908 600.000061
vertex 500.000000 -499.999908 600.000061
vertex 500.000000 -499.999878 800.000061
endloop
endfacet
facet normal 0.000000 -1.000000 0.000000
outer loop
vertex -500.000000 -499.999908 600.000061
vertex 500.000000 -499.999878 800.000061
vertex -500.000000 -499.999878 800.000061
endloop
endfacet
facet normal -1.000000 0.000000 0.000000
outer loop
vertex -500.000000 500.000092 599.999939
vertex -500.000000 -499.999908 600.000061
vertex -500.000000 -499.999878 800.000061
endloop
endfacet
facet normal -1.000000 0.000000 0.000000
outer loop
vertex -500.000000 500.000092 599.999939
vertex -500.000000 -499.999878 800.000061
vertex -500.000000 500.000122 799.999939
endloop
endfacet
facet normal 1.000000 0.000000 0.000000
outer loop
vertex 500.000000 402.860016 599.999939
vertex 500.000000 500.000092 599.999939
vertex 500.000000 500.000122 799.999939
endloop
endfacet
facet normal 1.000000 0.000000 0.000000
outer loop
vertex 500.000000 402.860016 599.999939
vertex 500.000000 500.000122 799.999939
vertex 500.000000 402.860046 799.999939
endloop
endfacet
facet normal 1.000000 0.000000 0.000000
outer loop
vertex 1111.262085 -305.705719 600.000061
vertex 1111.262085 402.860016 599.999939
vertex 1111.262085 402.860046 799.999939
endloop
endfacet
facet normal 1.000000 0.000000 0.000000
outer loop
vertex 1111.262085 -305.705719 600.000061
vertex 1111.262085 402.860046 799.999939
vertex 1111.262085 -305.705688 800.000061
endloop
endfacet
facet normal 1.000000 0.000000 0.000000
outer loop
vertex 500.000000 -499.999908 600.000061
vertex 500.000000 -305.705719 600.000061
vertex 500.000000 -305.705688 800.000061
endloop
endfacet
facet normal 1.000000 0.000000 0.000000
outer loop
vertex 500.000000 -499.999908 600.000061
vertex 500.000000 -305.705688 800.000061
vertex 500.000000 -499.999878 800.000061
endloop
endfacet
facet normal 0.000000 1.000000 -0.000000
outer loop
vertex 500.000000 500.000092 599.999939
vertex -500.000000 500.000092 599.999939
vertex -500.000000 500.000122 799.999939
endloop
endfacet
facet normal 0.000000 1.000000 0.000000
outer loop
vertex 500.000000 500.000092 599.999939
vertex -500.000000 500.000122 799.999939
vertex 500.000000 500.000122 799.999939
endloop
endfacet
facet normal 0.000000 1.000000 -0.000001
outer loop
vertex 1111.262085 402.860016 599.999939
vertex 500.000000 402.860016 599.999939
vertex 500.000000 402.860046 799.999939
endloop
endfacet
facet normal 0.000000 1.000000 0.000000
outer loop
vertex 1111.262085 402.860016 599.999939
vertex 500.000000 402.860046 799.999939
vertex 1111.262085 402.860046 799.999939
endloop
endfacet
facet normal 0.000000 -1.000000 0.000000
outer loop
vertex 500.000000 -305.705719 600.000061
vertex 1111.262085 -305.705719 600.000061
vertex 1111.262085 -305.705688 800.000061
endloop
endfacet
facet normal 0.000000 -1.000000 0.000000
outer loop
vertex 500.000000 -305.705719 600.000061
vertex 1111.262085 -305.705688 800.000061
vertex 500.000000 -305.705688 800.000061
endloop
endfacet
facet normal 0.000000 1.000000 0.000000
outer loop
vertex 500.000000 500.000122 799.999939
vertex -500.000000 500.000122 799.999939
vertex -500.000000 500.000153 999.999939
endloop
endfacet
facet normal 0.000000 1.000000 -0.000000
outer loop
vertex 500.000000 500.000122 799.999939
vertex -500.000000 500.000153 999.999939
vertex 500.000000 500.000153 999.999939
endloop
endfacet
facet normal 0.000000 1.000000 0.000000
outer loop
vertex 1111.262085 402.860046 799.999939
vertex 500.000000 402.860046 799.999939
vertex 500.000000 402.860077 999.999939
endloop
endfacet
facet normal 0.000000 1.000000 -0.000000
outer loop
vertex 1111.262085 402.860046 799.999939
vertex 500.000000 402.860077 999.999939
vertex 1111.262085 402.860077 999.999939
endloop
endfacet
facet normal 0.000000 -1.000000 0.000000
outer loop
vertex 500.000000 -305.705688 800.000061
vertex 1111.262085 -305.705688 800.000061
vertex 1111.262085 -305.705658 1000.000061
endloop
endfacet
facet normal 0.000000 -1.000000 0.000000
outer loop
vertex 500.000000 -305.705688 800.000061
vertex 1111.262085 -305.705658 1000.000061
vertex 500.000000 -305.705658 1000.000061
endloop
endfacet
facet normal 0.000000 -1.000000 0.000000
outer loop
vertex -500.000000 -499.999878 800.000061
vertex 500.000000 -499.999878 800.000061
vertex 500.000000 -499.999847 1000.000061
endloop
endfacet
facet normal 0.000000 -1.000000 0.000000
outer loop
vertex -500.000000 -499.999878 800.000061
vertex 500.000000 -499.999847 1000.000061
vertex -500.000000 -499.999847 1000.000061
endloop
endfacet
facet normal -1.000000 0.000000 0.000000
outer loop
vertex -500.000000 500.000122 799.999939
vertex -500.000000 -499.999878 800.000061
vertex -500.000000 -499.999847 1000.000061
endloop
endfacet
facet normal -1.000000 0.000000 0.000000
outer loop
vertex -500.000000 500.000122 799.999939
vertex -500.000000 -499.999847 1000.000061
vertex -500.000000 500.000153 999.999939
endloop
endfacet
facet normal 1.000000 0.000000 0.000000
outer loop
vertex 500.000000 402.860046 799.999939
vertex 500.000000 500.000122 799.999939
vertex 500.000000 500.000153 999.999939
endloop
endfacet
facet normal 1.000000 0.000000 0.000000
outer loop
vertex 500.000000 402.860046 799.999939
vertex 500.000000 500.000153 999.999939
vertex 500.000000 402.860077 999.999939
endloop
endfacet
facet normal 1.000000 0.000000 0.000000
outer loop
vertex 1111.262085 -305.705688 800.000061
vertex 1111.262085 402.860046 799.999939
vertex 1111.262085 402.860077 999.999939
endloop
endfacet
facet normal 1.000000 0.000000 0.000000
outer loop
vertex 1111.262085 -305.705688 800.000061
vertex 1111.262085 402.860077 999.999939
vertex 1111.262085 -305.705658 1000.000061
endloop
endfacet
facet normal 1.000000 0.000000 0.000000
outer loop
vertex 500.000000 -499.999878 800.000061
vertex 500.000000 -305.705688 800.000061
vertex 500.000000 -305.705658 1000.000061
endloop
endfacet
facet normal 1.000000 0.000000 0.000000
outer loop
vertex 500.000000 -499.999878 800.000061
vertex 500.000000 -305.705658 1000.000061
vertex 500.000000 -499.999847 1000.000061
endloop
endfacet
facet normal 1.000000 0.000000 0.000000
outer loop
vertex 500.000000 -499.999847 1000.000061
vertex 500.000000 -305.705658 1000.000061
vertex 500.000000 -305.705627 1200.000000
endloop
endfacet
facet normal 1.000000 0.000000 0.000000
outer loop
vertex 500.000000 -499.999847 1000.000061
vertex 500.000000 -305.705627 1200.000000
vertex 500.000000 -499.999817 1200.000122
endloop
endfacet
facet normal 0.000000 1.000000 -0.000000
outer loop
vertex 500.000000 500.000153 999.999939
vertex -500.000000 500.000153 999.999939
vertex -500.000000 500.000183 1199.999878
endloop
endfacet
facet normal 0.000000 1.000000 0.000000
outer loop
vertex 500.000000 500.000153 999.999939
vertex -500.000000 500.000183 1199.999878
vertex 500.000000 500.000183 1199.999878
endloop
endfacet
facet normal 0.000000 1.000000 -0.000000
outer loop
vertex 1111.262085 402.860077 999.999939
vertex 500.000000 402.860077 999.999939
vertex 500.000000 402.860107 1199.999878
endloop
endfacet
facet normal 0.000000 1.000000 0.000000
outer loop
vertex 1111.262085 402.860077 999.999939
vertex 500.000000 402.860107 1199.999878
vertex 1111.262085 402.860107 1199.999878
endloop
endfacet
facet normal 0.000000 -1.000000 0.000000
outer loop
vertex 500.000000 -305.705658 1000.000061
vertex 1111.262085 -305.705658 1000.000061
vertex 1111.262085 -305.705627 1200.000000
endloop
endfacet
facet normal 0.000000 -1.000000 0.000000
outer loop
vertex 500.000000 -305.705658 1000.000061
vertex 1111.262085 -305.705627 1200.000000
vertex 500.000000 -305.705627 1200.000000
endloop
endfacet
facet normal 0.000000 -1.000000 0.000000
outer loop
vertex -500.000000 -499.999847 1000.000061
vertex 500.000000 -499.999847 1000.000061
vertex 500.000000 -499.999817 1200.000122
endloop
endfacet
facet normal 0.000000 -1.000000 0.000000
outer loop
vertex -500.000000 -499.999847 1000.000061
vertex 500.000000 -499.999817 1200.000122
vertex -500.000000 -499.999817 1200.000122
endloop
endfacet
facet normal -1.000000 0.000000 0.000000
outer loop
vertex -500.000000 500.000153 999.999939
vertex -500.000000 -499.999847 1000.000061
vertex -500.000000 -499.999817 1200.000122
endloop
endfacet
facet normal -1.000000 0.000000 0.000000
outer loop
vertex -500.000000 500.000153 999.999939
vertex -500.000000 -499.999817 1200.000122
vertex -500.000000 500.000183 1199.999878
endloop
endfacet
facet normal 1.000000 0.000000 0.000000
outer loop
vertex 500.000000 402.860077 999.999939
vertex 500.000000 500.000153 999.999939
vertex 500.000000 500.000183 1199.999878
endloop
endfacet
facet normal 1.000000 0.000000 0.000000
outer loop
vertex 500.000000 402.860077 999.999939
vertex 500.000000 500.000183 1199.999878
vertex 500.000000 402.860107 1199.999878
endloop
endfacet
facet normal 1.000000 0.000000 0.000000
outer loop
vertex 1111.262085 -305.705658 1000.000061
vertex 1111.262085 402.860077 999.999939
vertex 1111.262085 402.860107 1199.999878
endloop
endfacet
facet normal 1.000000 -0.000000 0.000000
outer loop
vertex 1111.262085 -305.705658 1000.000061
vertex 1111.262085 402.860107 1199.999878
vertex 1111.262085 -305.705627 1200.000000
endloop
endfacet
facet normal -1.000000 0.000000 0.000000
outer loop
vertex -500.000000 500.000183 1199.999878
vertex -500.000000 -499.999817 1200.000122
vertex -500.000000 -499.999786 1400.000122
endloop
endfacet
facet normal -1.000000 0.000000 0.000000
outer loop
vertex -500.000000 500.000183 1199.999878
vertex -500.000000 -499.999786 1400.000122
vertex -500.000000 500.000214 1399.999878
endloop
endfacet
facet normal 1.000000 0.000000 0.000000
outer loop
vertex 500.000000 402.860107 1199.999878
vertex 500.000000 500.000183 1199.999878
vertex 500.000000 500.000214 1399.999878
endloop
endfacet
facet normal 1.000000 0.000000 0.000000
outer loop
vertex 500.000000 402.860107 1199.999878
vertex 500.000000 500.000214 1399.999878
vertex 500.000000 402.860138 1399.999878
endloop
endfacet
facet normal 1.000000 0.000000 0.000000
outer loop
vertex 1111.262085 -305.705627 1200.000000
vertex 1111.262085 402.860107 1199.999878
vertex 1111.262085 402.860138 1399.999878
endloop
endfacet
facet normal 1.000000 0.000000 0.000000
outer loop
vertex 1111.262085 -305.705627 1200.000000
vertex 1111.262085 402.860138 1399.999878
vertex 1111.262085 -305.705597 1400.000000
endloop
endfacet
facet normal 1.000000 0.000000 0.000000
outer loop
vertex 500.000000 -499.999817 1200.000122
vertex 500.000000 -305.705627 1200.000000
vertex 500.000000 -305.705597 1400.000000
endloop
endfacet
facet normal 1.000000 0.000000 0.000000
outer loop
vertex 500.000000 -499.999817 1200.000122
vertex 500.000000 -305.705597 1400.000000
vertex 500.000000 -499.999786 1400.000122
endloop
endfacet
facet normal 0.000000 1.000000 0.000000
outer loop
vertex 500.000000 500.000183 1199.999878
vertex -500.000000 500.000183 1199.999878
vertex -500.000000 500.000214 1399.999878
endloop
endfacet
facet normal 0.000000 1.000000 -0.000000
outer loop
vertex 500.000000 500.000183 1199.999878
vertex -500.000000 500.000214 1399.999878
vertex 500.000000 500.000214 1399.999878
endloop
endfacet
facet normal 0.000000 1.000000 0.000000
outer loop
vertex 1111.262085 402.860107 1199.999878
vertex 500.000000 402.860107 1199.999878
vertex 500.000000 402.860138 1399.999878
endloop
endfacet
facet normal 0.000000 1.000000 -0.000000
outer loop
vertex 1111.262085 402.860107 1199.999878
vertex 500.000000 402.860138 1399.999878
vertex 1111.262085 402.860138 1399.999878
endloop
endfacet
facet normal 0.000000 -1.000000 0.000000
outer loop
vertex 500.000000 -305.705627 1200.000000
vertex 1111.262085 -305.705627 1200.000000
vertex 1111.262085 -305.705597 1400.000000
endloop
endfacet
facet normal 0.000000 -1.000000 0.000001
outer loop
vertex 500.000000 -305.705627 1200.000000
vertex 1111.262085 -305.705597 1400.000000
vertex 500.000000 -305.705597 1400.000000
endloop
endfacet
facet normal 0.000000 -1.000000 0.000000
outer loop
vertex -500.000000 -499.999817 1200.000122
vertex 500.000000 -499.999817 1200.000122
vertex 500.000000 -499.999786 1400.000122
endloop
endfacet
facet normal 0.000000 -1.000000 0.000000
outer loop
vertex -500.000000 -499.999817 1200.000122
vertex 500.000000 -499.999786 1400.000122
vertex -500.000000 -499.999786 1400.000122
endloop
endfacet
facet normal 0.000000 -1.000000 0.000000
outer loop
vertex 500.000000 -305.705597 1400.000000
vertex 1111.262085 -305.705597 1400.000000
vertex 1111.262085 -305.705536 1600.000000
endloop
endfacet
facet normal 0.000000 -1.000000 0.000000
outer loop
vertex 500.000000 -305.705597 1400.000000
vertex 1111.262085 -305.705536 1600.000000
vertex 500.000000 -305.705536 1600.000000
endloop
endfacet
facet normal 0.000000 -1.000000 0.000000
outer loop
vertex -500.000000 -499.999786 1400.000122
vertex 500.000000 -499.999786 1400.000122
vertex 500.000000 -499.999725 1600.000122
endloop
endfacet
facet normal 0.000000 -1.000000 0.000000
outer loop
vertex -500.000000 -499.999786 1400.000122
vertex 500.000000 -499.999725 1600.000122
vertex -500.000000 -499.999725 1600.000122
endloop
endfacet
facet normal -1.000000 0.000000 0.000000
outer loop
vertex -500.000000 500.000214 1399.999878
vertex -500.000000 -499.999786 1400.000122
vertex -500.000000 -499.999725 1600.000122
endloop
endfacet
facet normal -1.000000 0.000000 0.000000
outer loop
vertex -500.000000 500.000214 1399.999878
vertex -500.000000 -499.999725 1600.000122
vertex -500.000000 500.000275 1599.999878
endloop
endfacet
facet normal 1.000000 0.000000 0.000000
outer loop
vertex 500.000000 402.860138 1399.999878
vertex 500.000000 500.000214 1399.999878
vertex 500.000000 500.000275 1599.999878
endloop
endfacet
facet normal 1.000000 0.000000 0.000000
outer loop
vertex 500.000000 402.860138 1399.999878
vertex 500.000000 500.000275 1599.999878
vertex 500.000000 402.860199 1599.999878
endloop
endfacet
facet normal 1.000000 0.000000 0.000000
outer loop
vertex 1111.262085 -305.705597 1400.000000
vertex 1111.262085 402.860138 1399.999878
vertex 1111.262085 402.860199 1599.999878
endloop
endfacet
facet normal 1.000000 0.000000 0.000000
outer loop
vertex 1111.262085 -305.705597 1400.000000
vertex 1111.262085 402.860199 1599.999878
vertex 1111.262085 -305.705536 1600.000000
endloop
endfacet
facet normal 1.000000 0.000000 0.000000
outer loop
vertex 500.000000 -499.999786 1400.000122
vertex 500.000000 -305.705597 1400.000000
vertex 500.000000 -305.705536 1600.000000
endloop
endfacet
facet normal 1.000000 0.000000 0.000000
outer loop
vertex 500.000000 -499.999786 1400.000122
vertex 500.000000 -305.705536 1600.000000
vertex 500.000000 -499.999725 1600.000122
endloop
endfacet
facet normal 0.000000 1.000000 -0.000000
outer loop
vertex 500.000000 500.000214 1399.999878
vertex -500.000000 500.000214 1399.999878
vertex -500.000000 500.000275 1599.999878
endloop
endfacet
facet normal 0.000000 1.000000 -0.000000
outer loop
vertex 500.000000 500.000214 1399.999878
vertex -500.000000 500.000275 1599.999878
vertex 500.000000 500.000275 1599.999878
endloop
endfacet
facet normal 0.000000 1.000000 -0.000000
outer loop
vertex 1111.262085 402.860138 1399.999878
vertex 500.000000 402.860138 1399.999878
vertex 500.000000 402.860199 1599.999878
endloop
endfacet
facet normal 0.000000 1.000000 -0.000001
outer loop
vertex 1111.262085 402.860138 1399.999878
vertex 500.000000 402.860199 1599.999878
vertex 1111.262085 402.860199 1599.999878
endloop
endfacet
facet normal 0.000000 1.000000 -0.000000
outer loop
vertex 500.000000 500.000275 1599.999878
vertex -500.000000 500.000275 1599.999878
vertex -500.000000 500.000305 1799.999878
endloop
endfacet
facet normal 0.000000 1.000000 0.000000
outer loop
vertex 500.000000 500.000275 1599.999878
vertex -500.000000 500.000305 1799.999878
vertex 500.000000 500.000305 1799.999878
endloop
endfacet
facet normal 0.000000 1.000000 -0.000000
outer loop
vertex 1111.262085 402.860199 1599.999878
vertex 500.000000 402.860199 1599.999878
vertex 500.000000 402.860229 1799.999878
endloop
endfacet
facet normal 0.000000 1.000000 0.000000
outer loop
vertex 1111.262085 402.860199 1599.999878
vertex 500.000000 402.860229 1799.999878
vertex 1111.262085 402.860229 1799.999878
endloop
endfacet
facet normal 0.000000 -1.000000 0.000000
outer loop
vertex 500.000000 -305.705536 1600.000000
vertex 1111.262085 -305.705536 1600.000000
vertex 1111.262085 -305.705505 1800.000000
endloop
endfacet
facet normal 0.000000 -1.000000 0.000000
outer loop
vertex 500.000000 -305.705536 1600.000000
vertex 1111.262085 -305.705505 1800.000000
vertex 500.000000 -305.705505 1800.000000
endloop
endfacet
facet normal 0.000000 -1.000000 0.000000
outer loop
vertex -500.000000 -499.999725 1600.000122
vertex 500.000000 -499.999725 1600.000122
vertex 500.000000 -499.999695 1800.000122
endloop
endfacet
facet normal 0.000000 -1.000000 0.000000
outer loop
vertex -500.000000 -499.999725 1600.000122
vertex 500.000000 -499.999695 1800.000122
vertex -500.000000 -499.999695 1800.000122
endloop
endfacet
facet normal -1.000000 0.000000 0.000000
outer loop
vertex -500.000000 500.000275 1599.999878
vertex -500.000000 -499.999725 1600.000122
vertex -500.000000 -499.999695 1800.000122
endloop
endfacet
facet normal -1.000000 0.000000 0.000000
outer loop
vertex -500.000000 500.000275 1599.999878
vertex -500.000000 -499.999695 1800.000122
vertex -500.000000 500.000305 1799.999878
endloop
endfacet
facet normal 1.000000 0.000000 0.000000
outer loop
vertex 500.000000 402.860199 1599.999878
vertex 500.000000 500.000275 1599.999878
vertex 500.000000 500.000305 1799.999878
endloop
endfacet
facet normal 1.000000 0.000000 0.000000
outer loop
vertex 500.000000 402.860199 1599.999878
vertex 500.000000 500.000305 1799.999878
vertex 500.000000 402.860229 1799.999878
endloop
endfacet
facet normal 1.000000 0.000000 0.000000
outer loop
vertex 1111.262085 -305.705536 1600.000000
vertex 1111.262085 402.860199 1599.999878
vertex 1111.262085 402.860229 1799.999878
endloop
endfacet
facet normal 1.000000 0.000000 0.000000
outer loop
vertex 1111.262085 -305.705536 1600.000000
vertex 1111.262085 402.860229 1799.999878
vertex 1111.262085 -305.705505 1800.000000
endloop
endfacet
facet normal 1.000000 0.000000 0.000000
outer loop
vertex 500.000000 -499.999725 1600.000122
vertex 500.000000 -305.705536 1600.000000
vertex 500.000000 -305.705505 1800.000000
endloop
endfacet
facet normal 1.000000 0.000000 0.000000
outer loop
vertex 500.000000 -499.999725 1600.000122
vertex 500.000000 -305.705505 1800.000000
vertex 500.000000 -499.999695 1800.000122
endloop
endfacet
facet normal 1.000000 0.000000 0.000000
outer loop
vertex 1111.262085 -305.705505 1800.000000
vertex 1111.262085 402.860229 1799.999878
vertex 1111.262085 402.860260 1999.999878
endloop
endfacet
facet normal 1.000000 0.000000 0.000000
outer loop
vertex 1111.262085 -305.705505 1800.000000
vertex 1111.262085 402.860260 1999.999878
vertex 1111.262085 -305.705475 2000.000000
endloop
endfacet
facet normal 1.000000 0.000000 0.000000
outer loop
vertex 500.000000 -499.999695 1800.000122
vertex 500.000000 -305.705505 1800.000000
vertex 500.000000 -305.705475 2000.000000
endloop
endfacet
facet normal 1.000000 0.000000 0.000000
outer loop
vertex 500.000000 -499.999695 1800.000122
vertex 500.000000 -305.705475 2000.000000
vertex 500.000000 -499.999664 2000.000122
endloop
endfacet
facet normal 0.000000 1.000000 0.000000
outer loop
vertex 500.000000 500.000305 1799.999878
vertex -500.000000 500.000305 1799.999878
vertex -500.000000 500.000336 1999.999878
endloop
endfacet
facet normal 0.000000 1.000000 -0.000000
outer loop
vertex 500.000000 500.000305 1799.999878
vertex -500.000000 500.000336 1999.999878
vertex 500.000000 500.000336 1999.999878
endloop
endfacet
facet normal 0.000000 1.000000 0.000000
outer loop
vertex 1111.262085 402.860229 1799.999878
vertex 500.000000 402.860229 1799.999878
vertex 500.000000 402.860260 1999.999878
endloop
endfacet
facet normal 0.000000 1.000000 -0.000000
outer loop
vertex 1111.262085 402.860229 1799.999878
vertex 500.000000 402.860260 1999.999878
vertex 1111.262085 402.860260 1999.999878
endloop
endfacet
facet normal 0.000000 -1.000000 0.000000
outer loop
vertex 500.000000 -305.705505 1800.000000
vertex 1111.262085 -305.705505 1800.000000
vertex 1111.262085 -305.705475 2000.000000
endloop
endfacet
facet normal 0.000000 -1.000000 0.000000
outer loop
vertex 500.000000 -305.705505 1800.000000
vertex 1111.262085 -305.705475 2000.000000
vertex 500.000000 -305.705475 2000.000000
endloop
endfacet
facet normal 0.000000 -1.000000 0.000000
outer loop
vertex -500.000000 -499.999695 1800.000122
vertex 500.000000 -499.999695 1800.000122
vertex 500.000000 -499.999664 2000.000122
endloop
endfacet
facet normal 0.000000 -1.000000 0.000000
outer loop
vertex -500.000000 -499.999695 1800.000122
vertex 500.000000 -499.999664 2000.000122
vertex -500.000000 -499.999664 2000.000122
endloop
endfacet
facet normal -1.000000 0.000000 0.000000
outer loop
vertex -500.000000 500.000305 1799.999878
vertex -500.000000 -499.999695 1800.000122
vertex -500.000000 -499.999664 2000.000122
endloop
endfacet
facet normal -1.000000 0.000000 0.000000
outer loop
vertex -500.000000 500.000305 1799.999878
vertex -500.000000 -499.999664 2000.000122
vertex -500.000000 500.000336 1999.999878
endloop
endfacet
facet normal 1.000000 0.000000 0.000000
outer loop
vertex 500.000000 402.860229 1799.999878
vertex 500.000000 500.000305 1799.999878
vertex 500.000000 500.000336 1999.999878
endloop
endfacet
facet normal 1.000000 0.000000 0.000000
outer loop
vertex 500.000000 402.860229 1799.999878
vertex 500.000000 500.000336 1999.999878
vertex 500.000000 402.860260 1999.999878
endloop
endfacet
endsolid building_005.001
