solid building_011.001
facet normal -1.000000 -0.000000 0.000000
outer loop
vertex -500.000000 500.000000 -0.000081
vertex -500.000000 244.027115 -0.000040
vertex -500.000000 244.027161 299.999969
endloop
endfacet
facet normal -1.000000 0.000000 0.000000
outer loop
vertex -500.000000 500.000000 -0.000081
vertex -500.000000 244.027161 299.999969
vertex -500.000000 500.000061 299.999908
endloop
endfacet
facet normal 0.000000 0.000000 1.000000
outer loop
vertex -500.000000 -244.026840 1800.000000
vertex -500.000000 -499.999695 1800.000122
vertex 500.000000 -499.999695 1800.000122
endloop
endfacet
facet normal 0.000000 0.000000 1.000000
outer loop
vertex 500.000000 -499.999695 1800.000122
vertex 500.000000 500.000305 1799.999878
vertex -500.000000 500.000305 1799.999878
endloop
endfacet
facet normal 0.000000 0.000000 1.000000
outer loop
vertex -500.000000 244.027405 1800.000000
vertex -767.699219 244.027405 1800.000000
vertex -767.699219 -244.026840 1800.000000
endloop
endfacet
facet normal -0.000000 0.000000 1.000000
outer loop
vertex 500.000000 -499.999695 1800.000122
vertex -500.000000 500.000305 1799.999878
vertex -500.000000 244.027405 1800.000000
endloop
endfacet
facet normal 0.000000 0.000000 1.000000
outer loop
vertex -500.000000 244.027405 1800.000000
vertex -767.699219 -244.026840 1800.000000
vertex -500.000000 -244.026840 1800.000000
endloop
endfacet
facet normal 0.000000 0.000000 1.000000
outer loop
vertex 500.000000 -499.999695 1800.000122
vertex -500.000000 244.027405 1800.000000
vertex -500.000000 -244.026840 1800.000000
endloop
endfacet
facet normal 1.000000 -0.000000 0.000000
outer loop
vertex 500.000000 -500.000000 0.000081
vertex 500.000000 500.000000 -0.000081
vertex 500.000000 500.000061 299.999908
endloop
endfacet
facet normal 1.000000 0.000000 0.000000
outer loop
vertex 500.000000 -500.000000 0.000081
vertex 500.000000 500.000061 299.999908
vertex 500.000000 -499.999939 300.000092
endloop
endfacet
facet normal -1.000000 -0.000000 0.000000
outer loop
vertex -500.000000 -244.027130 0.000040
vertex -500.000000 -500.000000 0.000081
vertex -500.000000 -499.999939 300.000092
endloop
endfacet
facet normal -1.000000 0.000000 0.000000
outer loop
vertex -500.000000 -244.027130 0.000040
vertex -500.000000 -499.999939 300.000092
vertex -500.000000 -244.027084 300.000031
endloop
endfacet
facet normal 0.000000 -1.000000 0.000000
outer loop
vertex -767.699219 -244.027130 0.000040
vertex -500.000000 -244.027130 0.000040
vertex -500.000000 -244.027084 300.000031
endloop
endfacet
facet normal 0.000000 -1.000000 0.000000
outer loop
vertex -767.699219 -244.027130 0.000040
vertex -500.000000 -244.027084 300.000031
vertex -767.699219 -244.027084 300.000031
endloop
endfacet
facet normal 0.000000 1.000000 -0.000000
outer loop
vertex 500.000000 500.000000 -0.000081
vertex -500.000000 500.000000 -0.000081
vertex -500.000000 500.000061 299.999908
endloop
endfacet
facet normal 0.000000 1.000000 -0.000000
outer loop
vertex 500.000000 500.000000 -0.000081
vertex -500.000000 500.000061 299.999908
vertex 500.000000 500.000061 299.999908
endloop
endfacet
facet normal 0.000000 -1.000000 0.000000
outer loop
vertex -500.000000 -500.000000 0.000081
vertex 500.000000 -500.000000 0.000081
vertex 500.000000 -499.999939 300.000092
endloop
endfacet
facet normal 0.000000 -1.000000 0.000000
outer loop
vertex -500.000000 -500.000000 0.000081
vertex 500.000000 -499.999939 300.000092
vertex -500.000000 -499.999939 300.000092
endloop
endfacet
facet normal 0.000000 1.000000 -0.000000
outer loop
vertex -500.000000 244.027115 -0.000040
vertex -767.699219 244.027115 -0.000040
vertex -767.699219 244.027161 299.999969
endloop
endfacet
facet normal 0.000000 1.000000 -0.000000
outer loop
vertex -500.000000 244.027115 -0.000040
vertex -767.699219 244.027161 299.999969
vertex -500.000000 244.027161 299.999969
endloop
endfacet
facet normal -1.000000 0.000000 0.000000
outer loop
vertex -767.699219 244.027115 -0.000040
vertex -767.699219 -244.027130 0.000040
vertex -767.699219 -244.027084 300.000031
endloop
endfacet
facet normal -1.000000 0.000000 0.000000
outer loop
vertex -767.699219 244.027115 -0.000040
vertex -767.699219 -244.027084 300.000031
vertex -767.699219 244.027161 299.999969
endloop
endfacet
facet normal -1.000000 0.000000 0.000000
outer loop
vertex -500.000000 -244.027084 300.000031
vertex -500.000000 -499.999939 300.000092
vertex -500.000000 -499.999908 600.000061
endloop
endfacet
facet normal -1.000000 0.000000 0.000000
outer loop
vertex -500.000000 -244.027084 300.000031
vertex -500.000000 -499.999908 600.000061
vertex -500.000000 -244.027039 600.000061
endloop
endfacet
facet normal -1.000000 0.000000 0.000000
outer loop
vertex -767.699219 244.027161 299.999969
vertex -767.699219 -244.027084 300.000031
vertex -767.699219 -244.027039 600.000061
endloop
endfacet
facet normal -1.000000 -0.000000 0.000000
outer loop
vertex -767.699219 244.027161 299.999969
vertex -767.699219 -244.027039 600.000061
vertex -767.699219 244.027206 599.999939
endloop
endfacet
facet normal -1.000000 0.000000 0.000000
outer loop
vertex -500.000000 500.000061 299.999908
vertex -500.000000 244.027161 299.999969
vertex -500.000000 244.027206 599.999939
endloop
endfacet
facet normal -1.000000 0.000000 0.000000
outer loop
vertex -500.000000 500.000061 299.999908
vertex -500.000000 244.027206 599.999939
vertex -500.000000 500.000092 599.999939
endloop
endfacet
facet normal 1.000000 0.000000 0.000000
outer loop
vertex 500.000000 -499.999939 300.000092
vertex 500.000000 500.000061 299.999908
vertex 500.000000 500.000092 599.999939
endloop
endfacet
facet normal 1.000000 0.000000 0.000000
outer loop
vertex 500.000000 -499.999939 300.000092
vertex 500.000000 500.000092 599.999939
vertex 500.000000 -499.999908 600.000061
endloop
endfacet
facet normal 0.000000 -1.000000 0.000000
outer loop
vertex -500.000000 -499.999939 300.000092
vertex 500.000000 -499.999939 300.000092
vertex 500.000000 -499.999908 600.000061
endloop
endfacet
facet normal 0.000000 -1.000000 0.000000
outer loop
vertex -500.000000 -499.999939 300.000092
vertex 500.000000 -499.999908 600.000061
vertex -500.000000 -499.999908 600.000061
endloop
endfacet
facet normal 0.000000 -1.000000 0.000000
outer loop
vertex -767.699219 -244.027084 300.000031
vertex -500.000000 -244.027084 300.000031
vertex -500.000000 -244.027039 600.000061
endloop
endfacet
facet normal 0.000000 -1.000000 0.000000
outer loop
vertex -767.699219 -244.027084 300.000031
vertex -500.000000 -244.027039 600.000061
vertex -767.699219 -244.027039 600.000061
endloop
endfacet
facet normal 0.000000 1.000000 -0.000000
outer loop
vertex -500.000000 244.027161 299.999969
vertex -767.699219 244.027161 299.999969
vertex -767.699219 244.027206 599.999939
endloop
endfacet
facet normal 0.000000 1.000000 -0.000000
outer loop
vertex -500.000000 244.027161 299.999969
vertex -767.699219 244.027206 599.999939
vertex -500.000000 244.027206 599.999939
endloop
endfacet
facet normal 0.000000 1.000000 0.000000
outer loop
vertex 500.000000 500.000061 299.999908
vertex -500.000000 500.000061 299.999908
vertex -500.000000 500.000092 599.999939
endloop
endfacet
facet normal 0.000000 1.000000 -0.000000
outer loop
vertex 500.000000 500.000061 299.999908
vertex -500.000000 500.000092 599.999939
vertex 500.000000 500.000092 599.999939
endloop
endfacet
facet normal 0.000000 1.000000 -0.000000
outer loop
vertex 500.000000 500.000092 599.999939
vertex -500.000000 500.000092 599.999939
vertex -500.000000 500.000153 899.999939
endloop
endfacet
facet normal 0.000000 1.000000 -0.000000
outer loop
vertex 500.000000 500.000092 599.999939
vertex -500.000000 500.000153 899.999939
vertex 500.000000 500.000153 899.999939
endloop
endfacet
facet normal 0.000000 -1.000000 0.000000
outer loop
vertex -500.000000 -499.999908 600.000061
vertex 500.000000 -499.999908 600.000061
vertex 500.000000 -499.999847 900.000061
endloop
endfacet
facet normal 0.000000 -1.000000 0.000000
outer loop
vertex -500.000000 -499.999908 600.000061
vertex 500.000000 -499.999847 900.000061
vertex -500.000000 -499.999847 900.000061
endloop
endfacet
facet normal -1.000000 0.000000 0.000000
outer loop
vertex -500.000000 -244.027039 600.000061
vertex -500.000000 -499.999908 600.000061
vertex -500.000000 -499.999847 900.000061
endloop
endfacet
facet normal -1.000000 0.000000 0.000000
outer loop
vertex -500.000000 -244.027039 600.000061
vertex -500.000000 -499.999847 900.000061
vertex -500.000000 -244.026978 900.000061
endloop
endfacet
facet normal -1.000000 0.000000 0.000000
outer loop
vertex -767.699219 244.027206 599.999939
vertex -767.699219 -244.027039 600.000061
vertex -767.699219 -244.026978 900.000061
endloop
endfacet
facet normal -1.000000 0.000000 0.000000
outer loop
vertex -767.699219 244.027206 599.999939
vertex -767.699219 -244.026978 900.000061
vertex -767.699219 244.027267 899.999939
endloop
endfacet
facet normal -1.000000 0.000000 0.000000
outer loop
vertex -500.000000 500.000092 599.999939
vertex -500.000000 244.027206 599.999939
vertex -500.000000 244.027267 899.999939
endloop
endfacet
facet normal -1.000000 0.000000 0.000000
outer loop
vertex -500.000000 500.000092 599.999939
vertex -500.000000 244.027267 899.999939
vertex -500.000000 500.000153 899.999939
endloop
endfacet
facet normal 1.000000 0.000000 0.000000
outer loop
vertex 500.000000 -499.999908 600.000061
vertex 500.000000 500.000092 599.999939
vertex 500.000000 500.000153 899.999939
endloop
endfacet
facet normal 1.000000 0.000000 0.000000
outer loop
vertex 500.000000 -499.999908 600.000061
vertex 500.000000 500.000153 899.999939
vertex 500.000000 -499.999847 900.000061
endloop
endfacet
facet normal 0.000000 -1.000000 0.000000
outer loop
vertex -767.699219 -244.027039 600.000061
vertex -500.000000 -244.027039 600.000061
vertex -500.000000 -244.026978 900.000061
endloop
endfacet
facet normal 0.000000 -1.000000 0.000000
outer loop
vertex -767.699219 -244.027039 600.000061
vertex -500.000000 -244.026978 900.000061
vertex -767.699219 -244.026978 900.000061
endloop
endfacet
facet normal 0.000000 1.000000 -0.000000
outer loop
vertex -500.000000 244.027206 599.999939
vertex -767.699219 244.027206 599.999939
vertex -767.699219 244.027267 899.999939
endloop
endfacet
facet normal 0.000000 1.000000 -0.000000
outer loop
vertex -500.000000 244.027206 599.999939
vertex -767.699219 244.027267 899.999939
vertex -500.000000 244.027267 899.999939
endloop
endfacet
facet normal 0.000000 -1.000000 0.000000
outer loop
vertex -767.699219 -244.026978 900.000061
vertex -500.000000 -244.026978 900.000061
vertex -500.000000 -244.026932 1200.000000
endloop
endfacet
facet normal 0.000000 -1.000000 0.000000
outer loop
vertex -767.699219 -244.026978 900.000061
vertex -500.000000 -244.026932 1200.000000
vertex -767.699219 -244.026932 1200.000000
endloop
endfacet
facet normal 0.000000 1.000000 -0.000000
outer loop
vertex -500.000000 244.027267 899.999939
vertex -767.699219 244.027267 899.999939
vertex -767.699219 244.027313 1200.000000
endloop
endfacet
facet normal 0.000000 1.000000 -0.000000
outer loop
vertex -500.000000 244.027267 899.999939
vertex -767.699219 244.027313 1200.000000
vertex -500.000000 244.027313 1200.000000
endloop
endfacet
facet normal 0.000000 1.000000 -0.000000
outer loop
vertex 500.000000 500.000153 899.999939
vertex -500.000000 500.000153 899.999939
vertex -500.000000 500.000183 1199.999878
endloop
endfacet
facet normal 0.000000 1.000000 0.000000
outer loop
vertex 500.000000 500.000153 899.999939
vertex -500.000000 500.000183 1199.999878
vertex 500.000000 500.000183 1199.999878
endloop
endfacet
facet normal 0.000000 -1.000000 0.000000
outer loop
vertex -500.000000 -499.999847 900.000061
vertex 500.000000 -499.999847 900.000061
vertex 500.000000 -499.999817 1200.000122
endloop
endfacet
facet normal 0.000000 -1.000000 0.000000
outer loop
vertex -500.000000 -499.999847 900.000061
vertex 500.000000 -499.999817 1200.000122
vertex -500.000000 -499.999817 1200.000122
endloop
endfacet
facet normal -1.000000 0.000000 0.000000
outer loop
vertex -500.000000 -244.026978 900.000061
vertex -500.000000 -499.999847 900.000061
vertex -500.000000 -499.999817 1200.000122
endloop
endfacet
facet normal -1.000000 0.000000 0.000000
outer loop
vertex -500.000000 -244.026978 900.000061
vertex -500.000000 -499.999817 1200.000122
vertex -500.000000 -244.026932 1200.000000
endloop
endfacet
facet normal -1.000000 0.000000 0.000000
outer loop
vertex -767.699219 244.027267 899.999939
vertex -767.699219 -244.026978 900.000061
vertex -767.699219 -244.026932 1200.000000
endloop
endfacet
facet normal -1.000000 0.000000 0.000000
outer loop
vertex -767.699219 244.027267 899.999939
vertex -767.699219 -244.026932 1200.000000
vertex -767.699219 244.027313 1200.000000
endloop
endfacet
facet normal -1.000000 0.000000 0.000000
outer loop
vertex -500.000000 500.000153 899.999939
vertex -500.000000 244.027267 899.999939
vertex -500.000000 244.027313 1200.000000
endloop
endfacet
facet normal -1.000000 0.000000 0.000000
outer loop
vertex -500.000000 500.000153 899.999939
vertex -500.000000 244.027313 1200.000000
vertex -500.000000 500.000183 1199.999878
endloop
endfacet
facet normal 1.000000 0.000000 0.000000
outer loop
vertex 500.000000 -499.999847 900.000061
vertex 500.000000 500.000153 899.999939
vertex 500.000000 500.000183 1199.999878
endloop
endfacet
facet normal 1.000000 0.000000 0.000000
outer loop
vertex 500.000000 -499.999847 900.000061
vertex 500.000000 500.000183 1199.999878
vertex 500.000000 -499.999817 1200.000122
endloop
endfacet
facet normal -1.000000 0.000000 0.000000
outer loop
vertex -500.000000 500.000183 1199.999878
vertex -500.000000 244.027313 1200.000000
vertex -500.000000 244.027359 1500.000000
endloop
endfacet
facet normal -1.000000 0.000000 0.000000
outer loop
vertex -500.000000 500.000183 1199.999878
vertex -500.000000 244.027359 1500.000000
vertex -500.000000 500.000244 1499.999878
endloop
endfacet
facet normal 1.000000 0.000000 0.000000
outer loop
vertex 500.000000 -499.999817 1200.000122
vertex 500.000000 500.000183 1199.999878
vertex 500.000000 500.000244 1499.999878
endloop
endfacet
facet normal 1.000000 0.000000 0.000000
outer loop
vertex 500.000000 -499.999817 1200.000122
vertex 500.000000 500.000244 1499.999878
vertex 500.000000 -499.999756 1500.000122
endloop
endfacet
facet normal 0.000000 -1.000000 0.000000
outer loop
vertex -767.699219 -244.026932 1200.000000
vertex -500.000000 -244.026932 1200.000000
vertex -500.000000 -244.026886 1500.000000
endloop
endfacet
facet normal 0.000000 -1.000000 0.000000
outer loop
vertex -767.699219 -244.026932 1200.000000
vertex -500.000000 -244.026886 1500.000000
vertex -767.699219 -244.026886 1500.000000
endloop
endfacet
facet normal 0.000000 1.000000 -0.000000
outer loop
vertex -500.000000 244.027313 1200.000000
vertex -767.699219 244.027313 1200.000000
vertex -767.699219 244.027359 1500.000000
endloop
endfacet
facet normal 0.000000 1.000000 -0.000000
outer loop
vertex -500.000000 244.027313 1200.000000
vertex -767.699219 244.027359 1500.000000
vertex -500.000000 244.027359 1500.000000
endloop
endfacet
facet normal 0.000000 1.000000 -0.000000
outer loop
vertex 500.000000 500.000183 1199.999878
vertex -500.000000 500.000183 1199.999878
vertex -500.000000 500.000244 1499.999878
endloop
endfacet
facet normal 0.000000 1.000000 -0.000000
outer loop
vertex 500.000000 500.000183 1199.999878
vertex -500.000000 500.000244 1499.999878
vertex 500.000000 500.000244 1499.999878
endloop
endfacet
facet normal 0.000000 -1.000000 0.000000
outer loop
vertex -500.000000 -499.999817 1200.000122
vertex 500.000000 -499.999817 1200.000122
vertex 500.000000 -499.999756 1500.000122
endloop
endfacet
facet normal 0.000000 -1.000000 0.000000
outer loop
vertex -500.000000 -499.999817 1200.000122
vertex 500.000000 -499.999756 1500.000122
vertex -500.000000 -499.999756 1500.000122
endloop
endfacet
facet normal -1.000000 0.000000 0.000000
outer loop
vertex -500.000000 -244.026932 1200.000000
vertex -500.000000 -499.999817 1200.000122
vertex -500.000000 -499.999756 1500.000122
endloop
endfacet
facet normal -1.000000 0.000000 0.000000
outer loop
vertex -500.000000 -244.026932 1200.000000
vertex -500.000000 -499.999756 1500.000122
vertex -500.000000 -244.026886 1500.000000
endloop
endfacet
facet normal -1.000000 0.000000 0.000000
outer loop
vertex -767.699219 244.027313 1200.000000
vertex -767.699219 -244.026932 1200.000000
vertex -767.699219 -244.026886 1500.000000
endloop
endfacet
facet normal -1.000000 0.000000 0.000000
outer loop
vertex -767.699219 244.027313 1200.000000
vertex -767.699219 -244.026886 1500.000000
vertex -767.699219 244.027359 1500.000000
endloop
endfacet
facet normal -1.000000 0.000000 0.000000
outer loop
vertex -500.000000 -244.026886 1500.000000
vertex -500.000000 -499.999756 1500.000122
vertex -500.000000 -499.999695 1800.000122
endloop
endfacet
facet normal -1.000000 0.000000 0.000000
outer loop
vertex -500.000000 -244.026886 1500.000000
vertex -500.000000 -499.999695 1800.000122
vertex -500.000000 -244.026840 1800.000000
endloop
endfacet
facet normal -1.000000 0.000000 0.000000
outer loop
vertex -767.699219 244.027359 1500.000000
vertex -767.699219 -244.026886 1500.000000
vertex -767.699219 -244.026840 1800.000000
endloop
endfacet
facet normal -1.000000 0.000000 0.000000
outer loop
vertex -767.699219 244.027359 1500.000000
vertex -767.699219 -244.026840 1800.000000
vertex -767.699219 244.027405 1800.000000
endloop
endfacet
facet normal -1.000000 0.000000 0.000000
outer loop
vertex -500.000000 500.000244 1499.999878
vertex -500.000000 244.027359 1500.000000
vertex -500.000000 244.027405 1800.000000
endloop
endfacet
facet normal -1.000000 0.000000 0.000000
outer loop
vertex -500.000000 500.000244 1499.999878
vertex -500.000000 244.027405 1800.000000
vertex -500.000000 500.000305 1799.999878
endloop
endfacet
facet normal 1.000000 0.000000 0.000000
outer loop
vertex 500.000000 -499.999756 1500.000122
vertex 500.000000 500.000244 1499.999878
vertex 500.000000 500.000305 1799.999878
endloop
endfacet
facet normal 1.000000 0.000000 0.000000
outer loop
vertex 500.000000 -499.999756 1500.000122
vertex 500.000000 500.000305 1799.999878
vertex 500.000000 -499.999695 1800.000122
endloop
endfacet
facet normal 0.000000 -1.000000 0.000000
outer loop
vertex -767.699219 -244.026886 1500.000000
vertex -500.000000 -244.026886 1500.000000
vertex -500.000000 -244.026840 1800.000000
endloop
endfacet
facet normal 0.000000 -1.000000 0.000000
outer loop
vertex -767.699219 -244.026886 1500.000000
vertex -500.000000 -244.026840 1800.000000
vertex -767.699219 -244.026840 1800.000000
endloop
endfacet
facet normal 0.000000 1.000000 -0.000000
outer loop
vertex -500.000000 244.027359 1500.000000
vertex -767.699219 244.027359 1500.000000
vertex -767.699219 244.027405 1800.000000
endloop
endfacet
facet normal 0.000000 1.000000 -0.000000
outer loop
vertex -500.000000 244.027359 1500.000000
vertex -767.699219 244.027405 1800.000000
vertex -500.000000 244.027405 1800.000000
endloop
endfacet
facet normal 0.000000 1.000000 -0.000000
outer loop
vertex 500.000000 500.000244 1499.999878
vertex -500.000000 500.000244 1499.999878
vertex -500.000000 500.000305 1799.999878
endloop
endfacet
facet normal 0.000000 1.000000 -0.000000
outer loop
vertex 500.000000 500.000244 1499.999878
vertex -500.000000 500.000305 1799.999878
vertex 500.000000 500.000305 1799.999878
endloop
endfacet
facet normal 0.000000 -1.000000 0.000000
outer loop
vertex -500.000000 -499.999756 1500.000122
vertex 500.000000 -499.999756 1500.000122
vertex 500.000000 -499.999695 1800.000122
endloop
endfacet
facet normal 0.000000 -1.000000 0.000000
outer loop
vertex -500.000000 -499.999756 1500.000122
vertex 500.000000 -499.999695 1800.000122
vertex -500.000000 -499.999695 1800.000122
endloop
endfacet
endsolid building_011.001
