solid building_009.002
facet normal -1.000000 0.000000 0.000000
outer loop
vertex -450.000000 500.000000 -0.000081
vertex -450.000000 489.369690 -0.000080
vertex -450.000000 489.369751 389.999908
endloop
endfacet
facet normal -1.000000 0.000000 0.000000
outer loop
vertex -450.000000 500.000000 -0.000081
vertex -450.000000 489.369751 389.999908
vertex -450.000000 500.000061 389.999908
endloop
endfacet
facet normal 0.000000 0.000000 1.000000
outer loop
vertex -450.000000 -489.368835 5460.000000
vertex -450.000000 -499.999115 5460.000000
vertex 450.000000 -499.999115 5460.000000
endloop
endfacet
facet normal 0.000000 0.000000 1.000000
outer loop
vertex 450.000000 -499.999115 5460.000000
vertex 450.000000 500.000885 5460.000000
vertex -450.000000 500.000885 5460.000000
endloop
endfacet
facet normal 0.000000 0.000000 1.000000
outer loop
vertex -450.000000 489.370575 5460.000000
vertex -1350.119263 489.370575 5460.000000
vertex -1350.119263 -489.368835 5460.000000
endloop
endfacet
facet normal -0.000002 0.000000 1.000000
outer loop
vertex 450.000000 -499.999115 5460.000000
vertex -450.000000 500.000885 5460.000000
vertex -450.000000 489.370575 5460.000000
endloop
endfacet
facet normal 0.000000 0.000000 1.000000
outer loop
vertex -450.000000 489.370575 5460.000000
vertex -1350.119263 -489.368835 5460.000000
vertex -450.000000 -489.368835 5460.000000
endloop
endfacet
facet normal 0.000000 0.000000 1.000000
outer loop
vertex 450.000000 -499.999115 5460.000000
vertex -450.000000 489.370575 5460.000000
vertex -450.000000 -489.368835 5460.000000
endloop
endfacet
facet normal 1.000000 0.000000 0.000000
outer loop
vertex 450.000000 -500.000000 0.000081
vertex 450.000000 500.000000 -0.000081
vertex 450.000000 500.000061 389.999908
endloop
endfacet
facet normal 1.000000 -0.000000 0.000000
outer loop
vertex 450.000000 -500.000000 0.000081
vertex 450.000000 500.000061 389.999908
vertex 450.000000 -499.999939 390.000092
endloop
endfacet
facet normal -1.000000 0.000000 0.000000
outer loop
vertex -450.000000 -489.369720 0.000080
vertex -450.000000 -500.000000 0.000081
vertex -450.000000 -499.999939 390.000092
endloop
endfacet
facet normal -1.000000 0.000000 0.000000
outer loop
vertex -450.000000 -489.369720 0.000080
vertex -450.000000 -499.999939 390.000092
vertex -450.000000 -489.369659 390.000092
endloop
endfacet
facet normal 0.000000 -1.000000 0.000000
outer loop
vertex -1350.119263 -489.369720 0.000080
vertex -450.000000 -489.369720 0.000080
vertex -450.000000 -489.369659 390.000092
endloop
endfacet
facet normal 0.000000 -1.000000 0.000000
outer loop
vertex -1350.119263 -489.369720 0.000080
vertex -450.000000 -489.369659 390.000092
vertex -1350.119263 -489.369659 390.000092
endloop
endfacet
facet normal 0.000000 1.000000 -0.000000
outer loop
vertex 450.000000 500.000000 -0.000081
vertex -450.000000 500.000000 -0.000081
vertex -450.000000 500.000061 389.999908
endloop
endfacet
facet normal 0.000000 1.000000 -0.000000
outer loop
vertex 450.000000 500.000000 -0.000081
vertex -450.000000 500.000061 389.999908
vertex 450.000000 500.000061 389.999908
endloop
endfacet
facet normal 0.000000 -1.000000 0.000000
outer loop
vertex -450.000000 -500.000000 0.000081
vertex 450.000000 -500.000000 0.000081
vertex 450.000000 -499.999939 390.000092
endloop
endfacet
facet normal 0.000000 -1.000000 0.000000
outer loop
vertex -450.000000 -500.000000 0.000081
vertex 450.000000 -499.999939 390.000092
vertex -450.000000 -499.999939 390.000092
endloop
endfacet
facet normal 0.000000 1.000000 -0.000000
outer loop
vertex -450.000000 489.369690 -0.000080
vertex -1350.119263 489.369690 -0.000080
vertex -1350.119263 489.369751 389.999908
endloop
endfacet
facet normal 0.000000 1.000000 0.000000
outer loop
vertex -450.000000 489.369690 -0.000080
vertex -1350.119263 489.369751 389.999908
vertex -450.000000 489.369751 389.999908
endloop
endfacet
facet normal -1.000000 -0.000000 0.000000
outer loop
vertex -1350.119263 489.369690 -0.000080
vertex -1350.119263 -489.369720 0.000080
vertex -1350.119263 -489.369659 390.000092
endloop
endfacet
facet normal -1.000000 0.000000 0.000000
outer loop
vertex -1350.119263 489.369690 -0.000080
vertex -1350.119263 -489.369659 390.000092
vertex -1350.119263 489.369751 389.999908
endloop
endfacet
facet normal -1.000000 0.000000 0.000000
outer loop
vertex -450.000000 -489.369659 390.000092
vertex -450.000000 -499.999939 390.000092
vertex -450.000000 -499.999878 780.000061
endloop
endfacet
facet normal -1.000000 0.000000 0.000000
outer loop
vertex -450.000000 -489.369659 390.000092
vertex -450.000000 -499.999878 780.000061
vertex -450.000000 -489.369598 780.000061
endloop
endfacet
facet normal -1.000000 0.000000 0.000000
outer loop
vertex -1350.119263 489.369751 389.999908
vertex -1350.119263 -489.369659 390.000092
vertex -1350.119263 -489.369598 780.000061
endloop
endfacet
facet normal -1.000000 -0.000000 0.000000
outer loop
vertex -1350.119263 489.369751 389.999908
vertex -1350.119263 -489.369598 780.000061
vertex -1350.119263 489.369812 779.999939
endloop
endfacet
facet normal -1.000000 0.000000 0.000000
outer loop
vertex -450.000000 500.000061 389.999908
vertex -450.000000 489.369751 389.999908
vertex -450.000000 489.369812 779.999939
endloop
endfacet
facet normal -1.000000 0.000000 0.000000
outer loop
vertex -450.000000 500.000061 389.999908
vertex -450.000000 489.369812 779.999939
vertex -450.000000 500.000122 779.999939
endloop
endfacet
facet normal 1.000000 0.000000 0.000000
outer loop
vertex 450.000000 -499.999939 390.000092
vertex 450.000000 500.000061 389.999908
vertex 450.000000 500.000122 779.999939
endloop
endfacet
facet normal 1.000000 -0.000000 0.000000
outer loop
vertex 450.000000 -499.999939 390.000092
vertex 450.000000 500.000122 779.999939
vertex 450.000000 -499.999878 780.000061
endloop
endfacet
facet normal 0.000000 -1.000000 0.000000
outer loop
vertex -450.000000 -499.999939 390.000092
vertex 450.000000 -499.999939 390.000092
vertex 450.000000 -499.999878 780.000061
endloop
endfacet
facet normal 0.000000 -1.000000 0.000000
outer loop
vertex -450.000000 -499.999939 390.000092
vertex 450.000000 -499.999878 780.000061
vertex -450.000000 -499.999878 780.000061
endloop
endfacet
facet normal 0.000000 -1.000000 0.000000
outer loop
vertex -1350.119263 -489.369659 390.000092
vertex -450.000000 -489.369659 390.000092
vertex -450.000000 -489.369598 780.000061
endloop
endfacet
facet normal 0.000000 -1.000000 0.000000
outer loop
vertex -1350.119263 -489.369659 390.000092
vertex -450.000000 -489.369598 780.000061
vertex -1350.119263 -489.369598 780.000061
endloop
endfacet
facet normal 0.000000 1.000000 -0.000000
outer loop
vertex -450.000000 489.369751 389.999908
vertex -1350.119263 489.369751 389.999908
vertex -1350.119263 489.369812 779.999939
endloop
endfacet
facet normal 0.000000 1.000000 -0.000000
outer loop
vertex -450.000000 489.369751 389.999908
vertex -1350.119263 489.369812 779.999939
vertex -450.000000 489.369812 779.999939
endloop
endfacet
facet normal 0.000000 1.000000 -0.000000
outer loop
vertex 450.000000 500.000061 389.999908
vertex -450.000000 500.000061 389.999908
vertex -450.000000 500.000122 779.999939
endloop
endfacet
facet normal 0.000000 1.000000 -0.000000
outer loop
vertex 450.000000 500.000061 389.999908
vertex -450.000000 500.000122 779.999939
vertex 450.000000 500.000122 779.999939
endloop
endfacet
facet normal 0.000000 1.000000 0.000000
outer loop
vertex 450.000000 500.000122 779.999939
vertex -450.000000 500.000122 779.999939
vertex -450.000000 500.000183 1169.999878
endloop
endfacet
facet normal 0.000000 1.000000 -0.000000
outer loop
vertex 450.000000 500.000122 779.999939
vertex -450.000000 500.000183 1169.999878
vertex 450.000000 500.000183 1169.999878
endloop
endfacet
facet normal 0.000000 -1.000000 0.000000
outer loop
vertex -450.000000 -499.999878 780.000061
vertex 450.000000 -499.999878 780.000061
vertex 450.000000 -499.999817 1170.000122
endloop
endfacet
facet normal 0.000000 -1.000000 0.000000
outer loop
vertex -450.000000 -499.999878 780.000061
vertex 450.000000 -499.999817 1170.000122
vertex -450.000000 -499.999817 1170.000122
endloop
endfacet
facet normal -1.000000 0.000000 0.000000
outer loop
vertex -450.000000 -489.369598 780.000061
vertex -450.000000 -499.999878 780.000061
vertex -450.000000 -499.999817 1170.000122
endloop
endfacet
facet normal -1.000000 0.000000 0.000000
outer loop
vertex -450.000000 -489.369598 780.000061
vertex -450.000000 -499.999817 1170.000122
vertex -450.000000 -489.369537 1170.000122
endloop
endfacet
facet normal -1.000000 0.000000 0.000000
outer loop
vertex -1350.119263 489.369812 779.999939
vertex -1350.119263 -489.369598 780.000061
vertex -1350.119263 -489.369537 1170.000122
endloop
endfacet
facet normal -1.000000 -0.000000 0.000000
outer loop
vertex -1350.119263 489.369812 779.999939
vertex -1350.119263 -489.369537 1170.000122
vertex -1350.119263 489.369873 1169.999878
endloop
endfacet
facet normal -1.000000 0.000000 0.000000
outer loop
vertex -450.000000 500.000122 779.999939
vertex -450.000000 489.369812 779.999939
vertex -450.000000 489.369873 1169.999878
endloop
endfacet
facet normal -1.000000 0.000000 0.000000
outer loop
vertex -450.000000 500.000122 779.999939
vertex -450.000000 489.369873 1169.999878
vertex -450.000000 500.000183 1169.999878
endloop
endfacet
facet normal 1.000000 0.000000 0.000000
outer loop
vertex 450.000000 -499.999878 780.000061
vertex 450.000000 500.000122 779.999939
vertex 450.000000 500.000183 1169.999878
endloop
endfacet
facet normal 1.000000 -0.000000 0.000000
outer loop
vertex 450.000000 -499.999878 780.000061
vertex 450.000000 500.000183 1169.999878
vertex 450.000000 -499.999817 1170.000122
endloop
endfacet
facet normal 0.000000 -1.000000 0.000000
outer loop
vertex -1350.119263 -489.369598 780.000061
vertex -450.000000 -489.369598 780.000061
vertex -450.000000 -489.369537 1170.000122
endloop
endfacet
facet normal 0.000000 -1.000000 0.000000
outer loop
vertex -1350.119263 -489.369598 780.000061
vertex -450.000000 -489.369537 1170.000122
vertex -1350.119263 -489.369537 1170.000122
endloop
endfacet
facet normal 0.000000 1.000000 -0.000000
outer loop
vertex -450.000000 489.369812 779.999939
vertex -1350.119263 489.369812 779.999939
vertex -1350.119263 489.369873 1169.999878
endloop
endfacet
facet normal 0.000000 1.000000 -0.000000
outer loop
vertex -450.000000 489.369812 779.999939
vertex -1350.119263 489.369873 1169.999878
vertex -450.000000 489.369873 1169.999878
endloop
endfacet
facet normal 0.000000 -1.000000 0.000000
outer loop
vertex -1350.119263 -489.369537 1170.000122
vertex -450.000000 -489.369537 1170.000122
vertex -450.000000 -489.369476 1560.000122
endloop
endfacet
facet normal 0.000000 -1.000000 0.000000
outer loop
vertex -1350.119263 -489.369537 1170.000122
vertex -450.000000 -489.369476 1560.000122
vertex -1350.119263 -489.369476 1560.000122
endloop
endfacet
facet normal 0.000000 1.000000 -0.000000
outer loop
vertex -450.000000 489.369873 1169.999878
vertex -1350.119263 489.369873 1169.999878
vertex -1350.119263 489.369934 1559.999878
endloop
endfacet
facet normal 0.000000 1.000000 -0.000000
outer loop
vertex -450.000000 489.369873 1169.999878
vertex -1350.119263 489.369934 1559.999878
vertex -450.000000 489.369934 1559.999878
endloop
endfacet
facet normal 0.000000 1.000000 -0.000000
outer loop
vertex 450.000000 500.000183 1169.999878
vertex -450.000000 500.000183 1169.999878
vertex -450.000000 500.000244 1559.999878
endloop
endfacet
facet normal 0.000000 1.000000 -0.000000
outer loop
vertex 450.000000 500.000183 1169.999878
vertex -450.000000 500.000244 1559.999878
vertex 450.000000 500.000244 1559.999878
endloop
endfacet
facet normal 0.000000 -1.000000 0.000000
outer loop
vertex -450.000000 -499.999817 1170.000122
vertex 450.000000 -499.999817 1170.000122
vertex 450.000000 -499.999756 1560.000122
endloop
endfacet
facet normal 0.000000 -1.000000 0.000000
outer loop
vertex -450.000000 -499.999817 1170.000122
vertex 450.000000 -499.999756 1560.000122
vertex -450.000000 -499.999756 1560.000122
endloop
endfacet
facet normal -1.000000 0.000000 0.000000
outer loop
vertex -450.000000 -489.369537 1170.000122
vertex -450.000000 -499.999817 1170.000122
vertex -450.000000 -499.999756 1560.000122
endloop
endfacet
facet normal -1.000000 0.000000 0.000000
outer loop
vertex -450.000000 -489.369537 1170.000122
vertex -450.000000 -499.999756 1560.000122
vertex -450.000000 -489.369476 1560.000122
endloop
endfacet
facet normal -1.000000 0.000000 0.000000
outer loop
vertex -1350.119263 489.369873 1169.999878
vertex -1350.119263 -489.369537 1170.000122
vertex -1350.119263 -489.369476 1560.000122
endloop
endfacet
facet normal -1.000000 -0.000000 0.000000
outer loop
vertex -1350.119263 489.369873 1169.999878
vertex -1350.119263 -489.369476 1560.000122
vertex -1350.119263 489.369934 1559.999878
endloop
endfacet
facet normal -1.000000 0.000000 0.000000
outer loop
vertex -450.000000 500.000183 1169.999878
vertex -450.000000 489.369873 1169.999878
vertex -450.000000 489.369934 1559.999878
endloop
endfacet
facet normal -1.000000 0.000000 0.000000
outer loop
vertex -450.000000 500.000183 1169.999878
vertex -450.000000 489.369934 1559.999878
vertex -450.000000 500.000244 1559.999878
endloop
endfacet
facet normal 1.000000 0.000000 0.000000
outer loop
vertex 450.000000 -499.999817 1170.000122
vertex 450.000000 500.000183 1169.999878
vertex 450.000000 500.000244 1559.999878
endloop
endfacet
facet normal 1.000000 -0.000000 0.000000
outer loop
vertex 450.000000 -499.999817 1170.000122
vertex 450.000000 500.000244 1559.999878
vertex 450.000000 -499.999756 1560.000122
endloop
endfacet
facet normal -1.000000 0.000000 0.000000
outer loop
vertex -450.000000 500.000244 1559.999878
vertex -450.000000 489.369934 1559.999878
vertex -450.000000 489.369995 1949.999878
endloop
endfacet
facet normal -1.000000 0.000000 0.000000
outer loop
vertex -450.000000 500.000244 1559.999878
vertex -450.000000 489.369995 1949.999878
vertex -450.000000 500.000305 1949.999878
endloop
endfacet
facet normal 1.000000 0.000000 0.000000
outer loop
vertex 450.000000 -499.999756 1560.000122
vertex 450.000000 500.000244 1559.999878
vertex 450.000000 500.000305 1949.999878
endloop
endfacet
facet normal 1.000000 -0.000000 0.000000
outer loop
vertex 450.000000 -499.999756 1560.000122
vertex 450.000000 500.000305 1949.999878
vertex 450.000000 -499.999695 1950.000122
endloop
endfacet
facet normal 0.000000 -1.000000 0.000000
outer loop
vertex -1350.119263 -489.369476 1560.000122
vertex -450.000000 -489.369476 1560.000122
vertex -450.000000 -489.369415 1950.000122
endloop
endfacet
facet normal 0.000000 -1.000000 0.000000
outer loop
vertex -1350.119263 -489.369476 1560.000122
vertex -450.000000 -489.369415 1950.000122
vertex -1350.119263 -489.369415 1950.000122
endloop
endfacet
facet normal 0.000000 1.000000 -0.000000
outer loop
vertex -450.000000 489.369934 1559.999878
vertex -1350.119263 489.369934 1559.999878
vertex -1350.119263 489.369995 1949.999878
endloop
endfacet
facet normal 0.000000 1.000000 0.000000
outer loop
vertex -450.000000 489.369934 1559.999878
vertex -1350.119263 489.369995 1949.999878
vertex -450.000000 489.369995 1949.999878
endloop
endfacet
facet normal 0.000000 1.000000 -0.000000
outer loop
vertex 450.000000 500.000244 1559.999878
vertex -450.000000 500.000244 1559.999878
vertex -450.000000 500.000305 1949.999878
endloop
endfacet
facet normal 0.000000 1.000000 -0.000000
outer loop
vertex 450.000000 500.000244 1559.999878
vertex -450.000000 500.000305 1949.999878
vertex 450.000000 500.000305 1949.999878
endloop
endfacet
facet normal 0.000000 -1.000000 0.000000
outer loop
vertex -450.000000 -499.999756 1560.000122
vertex 450.000000 -499.999756 1560.000122
vertex 450.000000 -499.999695 1950.000122
endloop
endfacet
facet normal 0.000000 -1.000000 0.000000
outer loop
vertex -450.000000 -499.999756 1560.000122
vertex 450.000000 -499.999695 1950.000122
vertex -450.000000 -499.999695 1950.000122
endloop
endfacet
facet normal -1.000000 0.000000 0.000000
outer loop
vertex -450.000000 -489.369476 1560.000122
vertex -450.000000 -499.999756 1560.000122
vertex -450.000000 -499.999695 1950.000122
endloop
endfacet
facet normal -1.000000 0.000000 0.000000
outer loop
vertex -450.000000 -489.369476 1560.000122
vertex -450.000000 -499.999695 1950.000122
vertex -450.000000 -489.369415 1950.000122
endloop
endfacet
facet normal -1.000000 0.000000 0.000000
outer loop
vertex -1350.119263 489.369934 1559.999878
vertex -1350.119263 -489.369476 1560.000122
vertex -1350.119263 -489.369415 1950.000122
endloop
endfacet
facet normal -1.000000 -0.000000 0.000000
outer loop
vertex -1350.119263 489.369934 1559.999878
vertex -1350.119263 -489.369415 1950.000122
vertex -1350.119263 489.369995 1949.999878
endloop
endfacet
facet normal -1.000000 0.000000 0.000000
outer loop
vertex -450.000000 -489.369415 1950.000122
vertex -450.000000 -499.999695 1950.000122
vertex -450.000000 -499.999634 2340.000000
endloop
endfacet
facet normal -1.000000 0.000000 0.000000
outer loop
vertex -450.000000 -489.369415 1950.000122
vertex -450.000000 -499.999634 2340.000000
vertex -450.000000 -489.369354 2340.000000
endloop
endfacet
facet normal -1.000000 0.000000 0.000000
outer loop
vertex -1350.119263 489.369995 1949.999878
vertex -1350.119263 -489.369415 1950.000122
vertex -1350.119263 -489.369354 2340.000000
endloop
endfacet
facet normal -1.000000 0.000000 0.000000
outer loop
vertex -1350.119263 489.369995 1949.999878
vertex -1350.119263 -489.369354 2340.000000
vertex -1350.119263 489.370056 2340.000000
endloop
endfacet
facet normal -1.000000 0.000000 0.000000
outer loop
vertex -450.000000 500.000305 1949.999878
vertex -450.000000 489.369995 1949.999878
vertex -450.000000 489.370056 2340.000000
endloop
endfacet
facet normal -1.000000 0.000000 0.000000
outer loop
vertex -450.000000 500.000305 1949.999878
vertex -450.000000 489.370056 2340.000000
vertex -450.000000 500.000366 2340.000000
endloop
endfacet
facet normal 1.000000 -0.000000 0.000000
outer loop
vertex 450.000000 -499.999695 1950.000122
vertex 450.000000 500.000305 1949.999878
vertex 450.000000 500.000366 2340.000000
endloop
endfacet
facet normal 1.000000 0.000000 0.000000
outer loop
vertex 450.000000 -499.999695 1950.000122
vertex 450.000000 500.000366 2340.000000
vertex 450.000000 -499.999634 2340.000000
endloop
endfacet
facet normal 0.000000 -1.000000 0.000000
outer loop
vertex -1350.119263 -489.369415 1950.000122
vertex -450.000000 -489.369415 1950.000122
vertex -450.000000 -489.369354 2340.000000
endloop
endfacet
facet normal 0.000000 -1.000000 0.000000
outer loop
vertex -1350.119263 -489.369415 1950.000122
vertex -450.000000 -489.369354 2340.000000
vertex -1350.119263 -489.369354 2340.000000
endloop
endfacet
facet normal 0.000000 1.000000 -0.000000
outer loop
vertex -450.000000 489.369995 1949.999878
vertex -1350.119263 489.369995 1949.999878
vertex -1350.119263 489.370056 2340.000000
endloop
endfacet
facet normal 0.000000 1.000000 -0.000000
outer loop
vertex -450.000000 489.369995 1949.999878
vertex -1350.119263 489.370056 2340.000000
vertex -450.000000 489.370056 2340.000000
endloop
endfacet
facet normal 0.000000 1.000000 -0.000000
outer loop
vertex 450.000000 500.000305 1949.999878
vertex -450.000000 500.000305 1949.999878
vertex -450.000000 500.000366 2340.000000
endloop
endfacet
facet normal 0.000000 1.000000 -0.000000
outer loop
vertex 450.000000 500.000305 1949.999878
vertex -450.000000 500.000366 2340.000000
vertex 450.000000 500.000366 2340.000000
endloop
endfacet
facet normal 0.000000 -1.000000 0.000000
outer loop
vertex -450.000000 -499.999695 1950.000122
vertex 450.000000 -499.999695 1950.000122
vertex 450.000000 -499.999634 2340.000000
endloop
endfacet
facet normal 0.000000 -1.000000 0.000000
outer loop
vertex -450.000000 -499.999695 1950.000122
vertex 450.000000 -499.999634 2340.000000
vertex -450.000000 -499.999634 2340.000000
endloop
endfacet
facet normal 0.000000 1.000000 -0.000000
outer loop
vertex -450.000000 489.370056 2340.000000
vertex -1350.119263 489.370056 2340.000000
vertex -1350.119263 489.370148 2730.000000
endloop
endfacet
facet normal 0.000000 1.000000 -0.000000
outer loop
vertex -450.000000 489.370056 2340.000000
vertex -1350.119263 489.370148 2730.000000
vertex -450.000000 489.370148 2730.000000
endloop
endfacet
facet normal 0.000000 1.000000 -0.000000
outer loop
vertex 450.000000 500.000366 2340.000000
vertex -450.000000 500.000366 2340.000000
vertex -450.000000 500.000458 2730.000000
endloop
endfacet
facet normal 0.000000 1.000000 -0.000000
outer loop
vertex 450.000000 500.000366 2340.000000
vertex -450.000000 500.000458 2730.000000
vertex 450.000000 500.000458 2730.000000
endloop
endfacet
facet normal 0.000000 -1.000000 0.000000
outer loop
vertex -450.000000 -499.999634 2340.000000
vertex 450.000000 -499.999634 2340.000000
vertex 450.000000 -499.999542 2730.000000
endloop
endfacet
facet normal 0.000000 -1.000000 0.000000
outer loop
vertex -450.000000 -499.999634 2340.000000
vertex 450.000000 -499.999542 2730.000000
vertex -450.000000 -499.999542 2730.000000
endloop
endfacet
facet normal -1.000000 0.000000 0.000000
outer loop
vertex -450.000000 -489.369354 2340.000000
vertex -450.000000 -499.999634 2340.000000
vertex -450.000000 -499.999542 2730.000000
endloop
endfacet
facet normal -1.000000 0.000000 0.000000
outer loop
vertex -450.000000 -489.369354 2340.000000
vertex -450.000000 -499.999542 2730.000000
vertex -450.000000 -489.369263 2730.000000
endloop
endfacet
facet normal -1.000000 0.000000 0.000000
outer loop
vertex -1350.119263 489.370056 2340.000000
vertex -1350.119263 -489.369354 2340.000000
vertex -1350.119263 -489.369263 2730.000000
endloop
endfacet
facet normal -1.000000 0.000000 0.000000
outer loop
vertex -1350.119263 489.370056 2340.000000
vertex -1350.119263 -489.369263 2730.000000
vertex -1350.119263 489.370148 2730.000000
endloop
endfacet
facet normal -1.000000 0.000000 0.000000
outer loop
vertex -450.000000 500.000366 2340.000000
vertex -450.000000 489.370056 2340.000000
vertex -450.000000 489.370148 2730.000000
endloop
endfacet
facet normal -1.000000 0.000000 0.000000
outer loop
vertex -450.000000 500.000366 2340.000000
vertex -450.000000 489.370148 2730.000000
vertex -450.000000 500.000458 2730.000000
endloop
endfacet
facet normal 1.000000 0.000000 0.000000
outer loop
vertex 450.000000 -499.999634 2340.000000
vertex 450.000000 500.000366 2340.000000
vertex 450.000000 500.000458 2730.000000
endloop
endfacet
facet normal 1.000000 0.000000 0.000000
outer loop
vertex 450.000000 -499.999634 2340.000000
vertex 450.000000 500.000458 2730.000000
vertex 450.000000 -499.999542 2730.000000
endloop
endfacet
facet normal 0.000000 -1.000000 0.000000
outer loop
vertex -1350.119263 -489.369354 2340.000000
vertex -450.000000 -489.369354 2340.000000
vertex -450.000000 -489.369263 2730.000000
endloop
endfacet
facet normal 0.000000 -1.000000 0.000000
outer loop
vertex -1350.119263 -489.369354 2340.000000
vertex -450.000000 -489.369263 2730.000000
vertex -1350.119263 -489.369263 2730.000000
endloop
endfacet
facet normal 0.000000 -1.000000 0.000000
outer loop
vertex -1350.119263 -489.369263 2730.000000
vertex -450.000000 -489.369263 2730.000000
vertex -450.000000 -489.369202 3120.000000
endloop
endfacet
facet normal 0.000000 -1.000000 0.000000
outer loop
vertex -1350.119263 -489.369263 2730.000000
vertex -450.000000 -489.369202 3120.000000
vertex -1350.119263 -489.369202 3120.000000
endloop
endfacet
facet normal 0.000000 1.000000 -0.000000
outer loop
vertex -450.000000 489.370148 2730.000000
vertex -1350.119263 489.370148 2730.000000
vertex -1350.119263 489.370209 3120.000000
endloop
endfacet
facet normal 0.000000 1.000000 -0.000000
outer loop
vertex -450.000000 489.370148 2730.000000
vertex -1350.119263 489.370209 3120.000000
vertex -450.000000 489.370209 3120.000000
endloop
endfacet
facet normal 0.000000 1.000000 -0.000000
outer loop
vertex 450.000000 500.000458 2730.000000
vertex -450.000000 500.000458 2730.000000
vertex -450.000000 500.000519 3120.000000
endloop
endfacet
facet normal 0.000000 1.000000 -0.000000
outer loop
vertex 450.000000 500.000458 2730.000000
vertex -450.000000 500.000519 3120.000000
vertex 450.000000 500.000519 3120.000000
endloop
endfacet
facet normal 0.000000 -1.000000 0.000000
outer loop
vertex -450.000000 -499.999542 2730.000000
vertex 450.000000 -499.999542 2730.000000
vertex 450.000000 -499.999481 3120.000000
endloop
endfacet
facet normal 0.000000 -1.000000 0.000000
outer loop
vertex -450.000000 -499.999542 2730.000000
vertex 450.000000 -499.999481 3120.000000
vertex -450.000000 -499.999481 3120.000000
endloop
endfacet
facet normal -1.000000 0.000000 0.000000
outer loop
vertex -450.000000 -489.369263 2730.000000
vertex -450.000000 -499.999542 2730.000000
vertex -450.000000 -499.999481 3120.000000
endloop
endfacet
facet normal -1.000000 0.000000 0.000000
outer loop
vertex -450.000000 -489.369263 2730.000000
vertex -450.000000 -499.999481 3120.000000
vertex -450.000000 -489.369202 3120.000000
endloop
endfacet
facet normal -1.000000 0.000000 0.000000
outer loop
vertex -1350.119263 489.370148 2730.000000
vertex -1350.119263 -489.369263 2730.000000
vertex -1350.119263 -489.369202 3120.000000
endloop
endfacet
facet normal -1.000000 0.000000 0.000000
outer loop
vertex -1350.119263 489.370148 2730.000000
vertex -1350.119263 -489.369202 3120.000000
vertex -1350.119263 489.370209 3120.000000
endloop
endfacet
facet normal -1.000000 0.000000 0.000000
outer loop
vertex -450.000000 500.000458 2730.000000
vertex -450.000000 489.370148 2730.000000
vertex -450.000000 489.370209 3120.000000
endloop
endfacet
facet normal -1.000000 0.000000 0.000000
outer loop
vertex -450.000000 500.000458 2730.000000
vertex -450.000000 489.370209 3120.000000
vertex -450.000000 500.000519 3120.000000
endloop
endfacet
facet normal 1.000000 0.000000 0.000000
outer loop
vertex 450.000000 -499.999542 2730.000000
vertex 450.000000 500.000458 2730.000000
vertex 450.000000 500.000519 3120.000000
endloop
endfacet
facet normal 1.000000 0.000000 0.000000
outer loop
vertex 450.000000 -499.999542 2730.000000
vertex 450.000000 500.000519 3120.000000
vertex 450.000000 -499.999481 3120.000000
endloop
endfacet
facet normal -1.000000 0.000000 0.000000
outer loop
vertex -1350.119263 489.370209 3120.000000
vertex -1350.119263 -489.369202 3120.000000
vertex -1350.119263 -489.369141 3510.000000
endloop
endfacet
facet normal -1.000000 0.000000 0.000000
outer loop
vertex -1350.119263 489.370209 3120.000000
vertex -1350.119263 -489.369141 3510.000000
vertex -1350.119263 489.370270 3510.000000
endloop
endfacet
facet normal -1.000000 0.000000 0.000000
outer loop
vertex -450.000000 500.000519 3120.000000
vertex -450.000000 489.370209 3120.000000
vertex -450.000000 489.370270 3510.000000
endloop
endfacet
facet normal -1.000000 0.000000 0.000000
outer loop
vertex -450.000000 500.000519 3120.000000
vertex -450.000000 489.370270 3510.000000
vertex -450.000000 500.000580 3510.000000
endloop
endfacet
facet normal 1.000000 0.000000 0.000000
outer loop
vertex 450.000000 -499.999481 3120.000000
vertex 450.000000 500.000519 3120.000000
vertex 450.000000 500.000580 3510.000000
endloop
endfacet
facet normal 1.000000 0.000000 0.000000
outer loop
vertex 450.000000 -499.999481 3120.000000
vertex 450.000000 500.000580 3510.000000
vertex 450.000000 -499.999420 3510.000000
endloop
endfacet
facet normal 0.000000 -1.000000 0.000000
outer loop
vertex -1350.119263 -489.369202 3120.000000
vertex -450.000000 -489.369202 3120.000000
vertex -450.000000 -489.369141 3510.000000
endloop
endfacet
facet normal 0.000000 -1.000000 0.000000
outer loop
vertex -1350.119263 -489.369202 3120.000000
vertex -450.000000 -489.369141 3510.000000
vertex -1350.119263 -489.369141 3510.000000
endloop
endfacet
facet normal 0.000000 1.000000 -0.000000
outer loop
vertex -450.000000 489.370209 3120.000000
vertex -1350.119263 489.370209 3120.000000
vertex -1350.119263 489.370270 3510.000000
endloop
endfacet
facet normal 0.000000 1.000000 0.000000
outer loop
vertex -450.000000 489.370209 3120.000000
vertex -1350.119263 489.370270 3510.000000
vertex -450.000000 489.370270 3510.000000
endloop
endfacet
facet normal 0.000000 1.000000 -0.000000
outer loop
vertex 450.000000 500.000519 3120.000000
vertex -450.000000 500.000519 3120.000000
vertex -450.000000 500.000580 3510.000000
endloop
endfacet
facet normal 0.000000 1.000000 -0.000000
outer loop
vertex 450.000000 500.000519 3120.000000
vertex -450.000000 500.000580 3510.000000
vertex 450.000000 500.000580 3510.000000
endloop
endfacet
facet normal 0.000000 -1.000000 0.000000
outer loop
vertex -450.000000 -499.999481 3120.000000
vertex 450.000000 -499.999481 3120.000000
vertex 450.000000 -499.999420 3510.000000
endloop
endfacet
facet normal 0.000000 -1.000000 0.000000
outer loop
vertex -450.000000 -499.999481 3120.000000
vertex 450.000000 -499.999420 3510.000000
vertex -450.000000 -499.999420 3510.000000
endloop
endfacet
facet normal -1.000000 0.000000 0.000000
outer loop
vertex -450.000000 -489.369202 3120.000000
vertex -450.000000 -499.999481 3120.000000
vertex -450.000000 -499.999420 3510.000000
endloop
endfacet
facet normal -1.000000 0.000000 0.000000
outer loop
vertex -450.000000 -489.369202 3120.000000
vertex -450.000000 -499.999420 3510.000000
vertex -450.000000 -489.369141 3510.000000
endloop
endfacet
facet normal 0.000000 -1.000000 0.000000
outer loop
vertex -450.000000 -499.999420 3510.000000
vertex 450.000000 -499.999420 3510.000000
vertex 450.000000 -499.999359 3900.000000
endloop
endfacet
facet normal 0.000000 -1.000000 0.000000
outer loop
vertex -450.000000 -499.999420 3510.000000
vertex 450.000000 -499.999359 3900.000000
vertex -450.000000 -499.999359 3900.000000
endloop
endfacet
facet normal -1.000000 0.000000 0.000000
outer loop
vertex -450.000000 -489.369141 3510.000000
vertex -450.000000 -499.999420 3510.000000
vertex -450.000000 -499.999359 3900.000000
endloop
endfacet
facet normal -1.000000 0.000000 0.000000
outer loop
vertex -450.000000 -489.369141 3510.000000
vertex -450.000000 -499.999359 3900.000000
vertex -450.000000 -489.369080 3900.000000
endloop
endfacet
facet normal -1.000000 0.000000 0.000000
outer loop
vertex -1350.119263 489.370270 3510.000000
vertex -1350.119263 -489.369141 3510.000000
vertex -1350.119263 -489.369080 3900.000000
endloop
endfacet
facet normal -1.000000 0.000000 0.000000
outer loop
vertex -1350.119263 489.370270 3510.000000
vertex -1350.119263 -489.369080 3900.000000
vertex -1350.119263 489.370331 3900.000000
endloop
endfacet
facet normal -1.000000 0.000000 0.000000
outer loop
vertex -450.000000 500.000580 3510.000000
vertex -450.000000 489.370270 3510.000000
vertex -450.000000 489.370331 3900.000000
endloop
endfacet
facet normal -1.000000 0.000000 0.000000
outer loop
vertex -450.000000 500.000580 3510.000000
vertex -450.000000 489.370331 3900.000000
vertex -450.000000 500.000641 3900.000000
endloop
endfacet
facet normal 1.000000 0.000000 0.000000
outer loop
vertex 450.000000 -499.999420 3510.000000
vertex 450.000000 500.000580 3510.000000
vertex 450.000000 500.000641 3900.000000
endloop
endfacet
facet normal 1.000000 0.000000 0.000000
outer loop
vertex 450.000000 -499.999420 3510.000000
vertex 450.000000 500.000641 3900.000000
vertex 450.000000 -499.999359 3900.000000
endloop
endfacet
facet normal 0.000000 -1.000000 0.000000
outer loop
vertex -1350.119263 -489.369141 3510.000000
vertex -450.000000 -489.369141 3510.000000
vertex -450.000000 -489.369080 3900.000000
endloop
endfacet
facet normal 0.000000 -1.000000 0.000000
outer loop
vertex -1350.119263 -489.369141 3510.000000
vertex -450.000000 -489.369080 3900.000000
vertex -1350.119263 -489.369080 3900.000000
endloop
endfacet
facet normal 0.000000 1.000000 -0.000000
outer loop
vertex -450.000000 489.370270 3510.000000
vertex -1350.119263 489.370270 3510.000000
vertex -1350.119263 489.370331 3900.000000
endloop
endfacet
facet normal 0.000000 1.000000 -0.000000
outer loop
vertex -450.000000 489.370270 3510.000000
vertex -1350.119263 489.370331 3900.000000
vertex -450.000000 489.370331 3900.000000
endloop
endfacet
facet normal 0.000000 1.000000 -0.000000
outer loop
vertex 450.000000 500.000580 3510.000000
vertex -450.000000 500.000580 3510.000000
vertex -450.000000 500.000641 3900.000000
endloop
endfacet
facet normal 0.000000 1.000000 0.000000
outer loop
vertex 450.000000 500.000580 3510.000000
vertex -450.000000 500.000641 3900.000000
vertex 450.000000 500.000641 3900.000000
endloop
endfacet
facet normal 0.000000 -1.000000 0.000000
outer loop
vertex -1350.119263 -489.369080 3900.000000
vertex -450.000000 -489.369080 3900.000000
vertex -450.000000 -489.369019 4290.000000
endloop
endfacet
facet normal 0.000000 -1.000000 0.000000
outer loop
vertex -1350.119263 -489.369080 3900.000000
vertex -450.000000 -489.369019 4290.000000
vertex -1350.119263 -489.369019 4290.000000
endloop
endfacet
facet normal 0.000000 1.000000 -0.000000
outer loop
vertex -450.000000 489.370331 3900.000000
vertex -1350.119263 489.370331 3900.000000
vertex -1350.119263 489.370392 4290.000000
endloop
endfacet
facet normal 0.000000 1.000000 -0.000000
outer loop
vertex -450.000000 489.370331 3900.000000
vertex -1350.119263 489.370392 4290.000000
vertex -450.000000 489.370392 4290.000000
endloop
endfacet
facet normal 0.000000 1.000000 -0.000000
outer loop
vertex 450.000000 500.000641 3900.000000
vertex -450.000000 500.000641 3900.000000
vertex -450.000000 500.000702 4290.000000
endloop
endfacet
facet normal 0.000000 1.000000 -0.000000
outer loop
vertex 450.000000 500.000641 3900.000000
vertex -450.000000 500.000702 4290.000000
vertex 450.000000 500.000702 4290.000000
endloop
endfacet
facet normal 0.000000 -1.000000 0.000000
outer loop
vertex -450.000000 -499.999359 3900.000000
vertex 450.000000 -499.999359 3900.000000
vertex 450.000000 -499.999298 4290.000000
endloop
endfacet
facet normal 0.000000 -1.000000 0.000000
outer loop
vertex -450.000000 -499.999359 3900.000000
vertex 450.000000 -499.999298 4290.000000
vertex -450.000000 -499.999298 4290.000000
endloop
endfacet
facet normal -1.000000 0.000000 0.000000
outer loop
vertex -450.000000 -489.369080 3900.000000
vertex -450.000000 -499.999359 3900.000000
vertex -450.000000 -499.999298 4290.000000
endloop
endfacet
facet normal -1.000000 0.000000 0.000000
outer loop
vertex -450.000000 -489.369080 3900.000000
vertex -450.000000 -499.999298 4290.000000
vertex -450.000000 -489.369019 4290.000000
endloop
endfacet
facet normal -1.000000 0.000000 0.000000
outer loop
vertex -1350.119263 489.370331 3900.000000
vertex -1350.119263 -489.369080 3900.000000
vertex -1350.119263 -489.369019 4290.000000
endloop
endfacet
facet normal -1.000000 0.000000 0.000000
outer loop
vertex -1350.119263 489.370331 3900.000000
vertex -1350.119263 -489.369019 4290.000000
vertex -1350.119263 489.370392 4290.000000
endloop
endfacet
facet normal -1.000000 0.000000 0.000000
outer loop
vertex -450.000000 500.000641 3900.000000
vertex -450.000000 489.370331 3900.000000
vertex -450.000000 489.370392 4290.000000
endloop
endfacet
facet normal -1.000000 0.000000 0.000000
outer loop
vertex -450.000000 500.000641 3900.000000
vertex -450.000000 489.370392 4290.000000
vertex -450.000000 500.000702 4290.000000
endloop
endfacet
facet normal 1.000000 0.000000 0.000000
outer loop
vertex 450.000000 -499.999359 3900.000000
vertex 450.000000 500.000641 3900.000000
vertex 450.000000 500.000702 4290.000000
endloop
endfacet
facet normal 1.000000 0.000000 0.000000
outer loop
vertex 450.000000 -499.999359 3900.000000
vertex 450.000000 500.000702 4290.000000
vertex 450.000000 -499.999298 4290.000000
endloop
endfacet
facet normal 1.000000 0.000000 0.000000
outer loop
vertex 450.000000 -499.999298 4290.000000
vertex 450.000000 500.000702 4290.000000
vertex 450.000000 500.000763 4680.000000
endloop
endfacet
facet normal 1.000000 0.000000 0.000000
outer loop
vertex 450.000000 -499.999298 4290.000000
vertex 450.000000 500.000763 4680.000000
vertex 450.000000 -499.999237 4680.000000
endloop
endfacet
facet normal 0.000000 -1.000000 0.000000
outer loop
vertex -1350.119263 -489.369019 4290.000000
vertex -450.000000 -489.369019 4290.000000
vertex -450.000000 -489.368958 4680.000000
endloop
endfacet
facet normal 0.000000 -1.000000 0.000000
outer loop
vertex -1350.119263 -489.369019 4290.000000
vertex -450.000000 -489.368958 4680.000000
vertex -1350.119263 -489.368958 4680.000000
endloop
endfacet
facet normal 0.000000 1.000000 -0.000000
outer loop
vertex -450.000000 489.370392 4290.000000
vertex -1350.119263 489.370392 4290.000000
vertex -1350.119263 489.370453 4680.000000
endloop
endfacet
facet normal 0.000000 1.000000 -0.000000
outer loop
vertex -450.000000 489.370392 4290.000000
vertex -1350.119263 489.370453 4680.000000
vertex -450.000000 489.370453 4680.000000
endloop
endfacet
facet normal 0.000000 1.000000 -0.000000
outer loop
vertex 450.000000 500.000702 4290.000000
vertex -450.000000 500.000702 4290.000000
vertex -450.000000 500.000763 4680.000000
endloop
endfacet
facet normal 0.000000 1.000000 -0.000000
outer loop
vertex 450.000000 500.000702 4290.000000
vertex -450.000000 500.000763 4680.000000
vertex 450.000000 500.000763 4680.000000
endloop
endfacet
facet normal 0.000000 -1.000000 0.000000
outer loop
vertex -450.000000 -499.999298 4290.000000
vertex 450.000000 -499.999298 4290.000000
vertex 450.000000 -499.999237 4680.000000
endloop
endfacet
facet normal 0.000000 -1.000000 0.000000
outer loop
vertex -450.000000 -499.999298 4290.000000
vertex 450.000000 -499.999237 4680.000000
vertex -450.000000 -499.999237 4680.000000
endloop
endfacet
facet normal -1.000000 0.000000 0.000000
outer loop
vertex -450.000000 -489.369019 4290.000000
vertex -450.000000 -499.999298 4290.000000
vertex -450.000000 -499.999237 4680.000000
endloop
endfacet
facet normal -1.000000 0.000000 0.000000
outer loop
vertex -450.000000 -489.369019 4290.000000
vertex -450.000000 -499.999237 4680.000000
vertex -450.000000 -489.368958 4680.000000
endloop
endfacet
facet normal -1.000000 0.000000 0.000000
outer loop
vertex -1350.119263 489.370392 4290.000000
vertex -1350.119263 -489.369019 4290.000000
vertex -1350.119263 -489.368958 4680.000000
endloop
endfacet
facet normal -1.000000 0.000000 0.000000
outer loop
vertex -1350.119263 489.370392 4290.000000
vertex -1350.119263 -489.368958 4680.000000
vertex -1350.119263 489.370453 4680.000000
endloop
endfacet
facet normal -1.000000 0.000000 0.000000
outer loop
vertex -450.000000 500.000702 4290.000000
vertex -450.000000 489.370392 4290.000000
vertex -450.000000 489.370453 4680.000000
endloop
endfacet
facet normal -1.000000 0.000000 0.000000
outer loop
vertex -450.000000 500.000702 4290.000000
vertex -450.000000 489.370453 4680.000000
vertex -450.000000 500.000763 4680.000000
endloop
endfacet
facet normal -1.000000 0.000000 0.000000
outer loop
vertex -450.000000 -489.368958 4680.000000
vertex -450.000000 -499.999237 4680.000000
vertex -450.000000 -499.999176 5070.000000
endloop
endfacet
facet normal -1.000000 0.000000 0.000000
outer loop
vertex -450.000000 -489.368958 4680.000000
vertex -450.000000 -499.999176 5070.000000
vertex -450.000000 -489.368896 5070.000000
endloop
endfacet
facet normal -1.000000 0.000000 0.000000
outer loop
vertex -1350.119263 489.370453 4680.000000
vertex -1350.119263 -489.368958 4680.000000
vertex -1350.119263 -489.368896 5070.000000
endloop
endfacet
facet normal -1.000000 0.000000 0.000000
outer loop
vertex -1350.119263 489.370453 4680.000000
vertex -1350.119263 -489.368896 5070.000000
vertex -1350.119263 489.370514 5070.000000
endloop
endfacet
facet normal -1.000000 0.000000 0.000000
outer loop
vertex -450.000000 500.000763 4680.000000
vertex -450.000000 489.370453 4680.000000
vertex -450.000000 489.370514 5070.000000
endloop
endfacet
facet normal -1.000000 0.000000 0.000000
outer loop
vertex -450.000000 500.000763 4680.000000
vertex -450.000000 489.370514 5070.000000
vertex -450.000000 500.000824 5070.000000
endloop
endfacet
facet normal 1.000000 0.000000 0.000000
outer loop
vertex 450.000000 -499.999237 4680.000000
vertex 450.000000 500.000763 4680.000000
vertex 450.000000 500.000824 5070.000000
endloop
endfacet
facet normal 1.000000 0.000000 0.000000
outer loop
vertex 450.000000 -499.999237 4680.000000
vertex 450.000000 500.000824 5070.000000
vertex 450.000000 -499.999176 5070.000000
endloop
endfacet
facet normal 0.000000 -1.000000 0.000000
outer loop
vertex -1350.119263 -489.368958 4680.000000
vertex -450.000000 -489.368958 4680.000000
vertex -450.000000 -489.368896 5070.000000
endloop
endfacet
facet normal 0.000000 -1.000000 0.000000
outer loop
vertex -1350.119263 -489.368958 4680.000000
vertex -450.000000 -489.368896 5070.000000
vertex -1350.119263 -489.368896 5070.000000
endloop
endfacet
facet normal 0.000000 1.000000 -0.000000
outer loop
vertex -450.000000 489.370453 4680.000000
vertex -1350.119263 489.370453 4680.000000
vertex -1350.119263 489.370514 5070.000000
endloop
endfacet
facet normal 0.000000 1.000000 0.000000
outer loop
vertex -450.000000 489.370453 4680.000000
vertex -1350.119263 489.370514 5070.000000
vertex -450.000000 489.370514 5070.000000
endloop
endfacet
facet normal 0.000000 1.000000 -0.000000
outer loop
vertex 450.000000 500.000763 4680.000000
vertex -450.000000 500.000763 4680.000000
vertex -450.000000 500.000824 5070.000000
endloop
endfacet
facet normal 0.000000 1.000000 -0.000000
outer loop
vertex 450.000000 500.000763 4680.000000
vertex -450.000000 500.000824 5070.000000
vertex 450.000000 500.000824 5070.000000
endloop
endfacet
facet normal 0.000000 -1.000000 0.000000
outer loop
vertex -450.000000 -499.999237 4680.000000
vertex 450.000000 -499.999237 4680.000000
vertex 450.000000 -499.999176 5070.000000
endloop
endfacet
facet normal 0.000000 -1.000000 0.000000
outer loop
vertex -450.000000 -499.999237 4680.000000
vertex 450.000000 -499.999176 5070.000000
vertex -450.000000 -499.999176 5070.000000
endloop
endfacet
facet normal 0.000000 1.000000 -0.000000
outer loop
vertex 450.000000 500.000824 5070.000000
vertex -450.000000 500.000824 5070.000000
vertex -450.000000 500.000885 5460.000000
endloop
endfacet
facet normal 0.000000 1.000000 0.000000
outer loop
vertex 450.000000 500.000824 5070.000000
vertex -450.000000 500.000885 5460.000000
vertex 450.000000 500.000885 5460.000000
endloop
endfacet
facet normal 0.000000 -1.000000 0.000000
outer loop
vertex -450.000000 -499.999176 5070.000000
vertex 450.000000 -499.999176 5070.000000
vertex 450.000000 -499.999115 5460.000000
endloop
endfacet
facet normal 0.000000 -1.000000 0.000000
outer loop
vertex -450.000000 -499.999176 5070.000000
vertex 450.000000 -499.999115 5460.000000
vertex -450.000000 -499.999115 5460.000000
endloop
endfacet
facet normal -1.000000 0.000000 0.000000
outer loop
vertex -450.000000 -489.368896 5070.000000
vertex -450.000000 -499.999176 5070.000000
vertex -450.000000 -499.999115 5460.000000
endloop
endfacet
facet normal -1.000000 0.000000 0.000000
outer loop
vertex -450.000000 -489.368896 5070.000000
vertex -450.000000 -499.999115 5460.000000
vertex -450.000000 -489.368835 5460.000000
endloop
endfacet
facet normal -1.000000 0.000000 0.000000
outer loop
vertex -1350.119263 489.370514 5070.000000
vertex -1350.119263 -489.368896 5070.000000
vertex -1350.119263 -489.368835 5460.000000
endloop
endfacet
facet normal -1.000000 0.000000 0.000000
outer loop
vertex -1350.119263 489.370514 5070.000000
vertex -1350.119263 -489.368835 5460.000000
vertex -1350.119263 489.370575 5460.000000
endloop
endfacet
facet normal -1.000000 0.000000 0.000000
outer loop
vertex -450.000000 500.000824 5070.000000
vertex -450.000000 489.370514 5070.000000
vertex -450.000000 489.370575 5460.000000
endloop
endfacet
facet normal -1.000000 0.000000 0.000000
outer loop
vertex -450.000000 500.000824 5070.000000
vertex -450.000000 489.370575 5460.000000
vertex -450.000000 500.000885 5460.000000
endloop
endfacet
facet normal 1.000000 0.000000 0.000000
outer loop
vertex 450.000000 -499.999176 5070.000000
vertex 450.000000 500.000824 5070.000000
vertex 450.000000 500.000885 5460.000000
endloop
endfacet
facet normal 1.000000 0.000000 0.000000
outer loop
vertex 450.000000 -499.999176 5070.000000
vertex 450.000000 500.000885 5460.000000
vertex 450.000000 -499.999115 5460.000000
endloop
endfacet
facet normal 0.000000 -1.000000 0.000000
outer loop
vertex -1350.119263 -489.368896 5070.000000
vertex -450.000000 -489.368896 5070.000000
vertex -450.000000 -489.368835 5460.000000
endloop
endfacet
facet normal 0.000000 -1.000000 0.000000
outer loop
vertex -1350.119263 -489.368896 5070.000000
vertex -450.000000 -489.368835 5460.000000
vertex -1350.119263 -489.368835 5460.000000
endloop
endfacet
facet normal 0.000000 1.000000 -0.000000
outer loop
vertex -450.000000 489.370514 5070.000000
vertex -1350.119263 489.370514 5070.000000
vertex -1350.119263 489.370575 5460.000000
endloop
endfacet
facet normal 0.000000 1.000000 -0.000000
outer loop
vertex -450.000000 489.370514 5070.000000
vertex -1350.119263 489.370575 5460.000000
vertex -450.000000 489.370575 5460.000000
endloop
endfacet
endsolid building_009.002
