solid building_001.001
facet normal 0.000000 0.000000 1.000000
outer loop
vertex -500.000000 500.000336 2100.000000
vertex -500.000000 -499.999664 2100.000000
vertex -241.641403 -499.999664 2100.000000
endloop
endfacet
facet normal 0.000000 0.000000 1.000000
outer loop
vertex -241.641403 -499.999664 2100.000000
vertex -241.641403 -1269.599365 2100.000244
vertex 507.338318 -1269.599365 2100.000244
endloop
endfacet
facet normal 0.000000 0.000000 1.000000
outer loop
vertex 507.338318 -1269.599365 2100.000244
vertex 507.338318 -499.999664 2100.000000
vertex 500.000000 -499.999664 2100.000000
endloop
endfacet
facet normal 0.000000 0.000000 1.000000
outer loop
vertex 500.000000 -499.999664 2100.000000
vertex 500.000000 500.000336 2100.000000
vertex -500.000000 500.000336 2100.000000
endloop
endfacet
facet normal -0.000000 -0.000000 1.000000
outer loop
vertex -500.000000 500.000336 2100.000000
vertex -241.641403 -499.999664 2100.000000
vertex 507.338318 -1269.599365 2100.000244
endloop
endfacet
facet normal 0.000000 0.000000 1.000000
outer loop
vertex 507.338318 -1269.599365 2100.000244
vertex 500.000000 -499.999664 2100.000000
vertex -500.000000 500.000336 2100.000000
endloop
endfacet
facet normal 0.000000 -1.000000 0.000000
outer loop
vertex -500.000000 -500.000000 0.000081
vertex -241.641403 -500.000000 0.000081
vertex -241.641403 -499.999939 300.000092
endloop
endfacet
facet normal 0.000000 -1.000000 0.000000
outer loop
vertex -500.000000 -500.000000 0.000081
vertex -241.641403 -499.999939 300.000092
vertex -500.000000 -499.999939 300.000092
endloop
endfacet
facet normal 1.000000 -0.000000 0.000000
outer loop
vertex 500.000000 -500.000000 0.000081
vertex 500.000000 500.000000 -0.000081
vertex 500.000000 500.000061 299.999908
endloop
endfacet
facet normal 1.000000 0.000000 0.000000
outer loop
vertex 500.000000 -500.000000 0.000081
vertex 500.000000 500.000061 299.999908
vertex 500.000000 -499.999939 300.000092
endloop
endfacet
facet normal -1.000000 -0.000000 0.000000
outer loop
vertex -500.000000 500.000000 -0.000081
vertex -500.000000 -500.000000 0.000081
vertex -500.000000 -499.999939 300.000092
endloop
endfacet
facet normal -1.000000 0.000000 0.000000
outer loop
vertex -500.000000 500.000000 -0.000081
vertex -500.000000 -499.999939 300.000092
vertex -500.000000 500.000061 299.999908
endloop
endfacet
facet normal 1.000000 0.000000 0.000000
outer loop
vertex 507.338318 -1269.599731 0.000207
vertex 507.338318 -500.000000 0.000081
vertex 507.338318 -499.999939 300.000092
endloop
endfacet
facet normal 1.000000 0.000000 0.000000
outer loop
vertex 507.338318 -1269.599731 0.000207
vertex 507.338318 -499.999939 300.000092
vertex 507.338318 -1269.599731 300.000214
endloop
endfacet
facet normal 0.000000 1.000000 -0.000000
outer loop
vertex 500.000000 500.000000 -0.000081
vertex -500.000000 500.000000 -0.000081
vertex -500.000000 500.000061 299.999908
endloop
endfacet
facet normal 0.000000 1.000000 -0.000000
outer loop
vertex 500.000000 500.000000 -0.000081
vertex -500.000000 500.000061 299.999908
vertex 500.000000 500.000061 299.999908
endloop
endfacet
facet normal 0.000000 1.000000 -0.000000
outer loop
vertex 507.338318 -500.000000 0.000081
vertex 500.000000 -500.000000 0.000081
vertex 500.000000 -499.999939 300.000092
endloop
endfacet
facet normal 0.000000 1.000000 -0.000000
outer loop
vertex 507.338318 -500.000000 0.000081
vertex 500.000000 -499.999939 300.000092
vertex 507.338318 -499.999939 300.000092
endloop
endfacet
facet normal -1.000000 0.000000 0.000000
outer loop
vertex -241.641403 -500.000000 0.000081
vertex -241.641403 -1269.599731 0.000207
vertex -241.641403 -1269.599731 300.000214
endloop
endfacet
facet normal -1.000000 0.000000 0.000000
outer loop
vertex -241.641403 -500.000000 0.000081
vertex -241.641403 -1269.599731 300.000214
vertex -241.641403 -499.999939 300.000092
endloop
endfacet
facet normal 0.000000 -1.000000 0.000000
outer loop
vertex -241.641403 -1269.599731 0.000207
vertex 507.338318 -1269.599731 0.000207
vertex 507.338318 -1269.599731 300.000214
endloop
endfacet
facet normal 0.000000 -1.000000 0.000000
outer loop
vertex -241.641403 -1269.599731 0.000207
vertex 507.338318 -1269.599731 300.000214
vertex -241.641403 -1269.599731 300.000214
endloop
endfacet
facet normal -1.000000 0.000000 0.000000
outer loop
vertex -500.000000 500.000061 299.999908
vertex -500.000000 -499.999939 300.000092
vertex -500.000000 -499.999908 600.000061
endloop
endfacet
facet normal -1.000000 0.000000 0.000000
outer loop
vertex -500.000000 500.000061 299.999908
vertex -500.000000 -499.999908 600.000061
vertex -500.000000 500.000092 599.999939
endloop
endfacet
facet normal 1.000000 0.000000 0.000000
outer loop
vertex 500.000000 -499.999939 300.000092
vertex 500.000000 500.000061 299.999908
vertex 500.000000 500.000092 599.999939
endloop
endfacet
facet normal 1.000000 0.000000 0.000000
outer loop
vertex 500.000000 -499.999939 300.000092
vertex 500.000000 500.000092 599.999939
vertex 500.000000 -499.999908 600.000061
endloop
endfacet
facet normal 1.000000 0.000000 0.000000
outer loop
vertex 507.338318 -1269.599731 300.000214
vertex 507.338318 -499.999939 300.000092
vertex 507.338318 -499.999908 600.000061
endloop
endfacet
facet normal 1.000000 0.000000 0.000000
outer loop
vertex 507.338318 -1269.599731 300.000214
vertex 507.338318 -499.999908 600.000061
vertex 507.338318 -1269.599609 600.000183
endloop
endfacet
facet normal -1.000000 0.000000 0.000000
outer loop
vertex -241.641403 -499.999939 300.000092
vertex -241.641403 -1269.599731 300.000214
vertex -241.641403 -1269.599609 600.000183
endloop
endfacet
facet normal -1.000000 0.000000 0.000000
outer loop
vertex -241.641403 -499.999939 300.000092
vertex -241.641403 -1269.599609 600.000183
vertex -241.641403 -499.999908 600.000061
endloop
endfacet
facet normal 0.000000 -1.000000 0.000000
outer loop
vertex -500.000000 -499.999939 300.000092
vertex -241.641403 -499.999939 300.000092
vertex -241.641403 -499.999908 600.000061
endloop
endfacet
facet normal 0.000000 -1.000000 0.000000
outer loop
vertex -500.000000 -499.999939 300.000092
vertex -241.641403 -499.999908 600.000061
vertex -500.000000 -499.999908 600.000061
endloop
endfacet
facet normal 0.000000 1.000000 0.000000
outer loop
vertex 500.000000 500.000061 299.999908
vertex -500.000000 500.000061 299.999908
vertex -500.000000 500.000092 599.999939
endloop
endfacet
facet normal 0.000000 1.000000 -0.000000
outer loop
vertex 500.000000 500.000061 299.999908
vertex -500.000000 500.000092 599.999939
vertex 500.000000 500.000092 599.999939
endloop
endfacet
facet normal 0.000000 1.000000 0.000000
outer loop
vertex 507.338318 -499.999939 300.000092
vertex 500.000000 -499.999939 300.000092
vertex 500.000000 -499.999908 600.000061
endloop
endfacet
facet normal 0.000000 1.000000 -0.000000
outer loop
vertex 507.338318 -499.999939 300.000092
vertex 500.000000 -499.999908 600.000061
vertex 507.338318 -499.999908 600.000061
endloop
endfacet
facet normal 0.000000 -1.000000 0.000001
outer loop
vertex -241.641403 -1269.599731 300.000214
vertex 507.338318 -1269.599731 300.000214
vertex 507.338318 -1269.599609 600.000183
endloop
endfacet
facet normal 0.000000 -1.000000 0.000000
outer loop
vertex -241.641403 -1269.599731 300.000214
vertex 507.338318 -1269.599609 600.000183
vertex -241.641403 -1269.599609 600.000183
endloop
endfacet
facet normal 0.000000 -1.000000 0.000000
outer loop
vertex -241.641403 -1269.599609 600.000183
vertex 507.338318 -1269.599609 600.000183
vertex 507.338318 -1269.599609 900.000183
endloop
endfacet
facet normal 0.000000 -1.000000 0.000000
outer loop
vertex -241.641403 -1269.599609 600.000183
vertex 507.338318 -1269.599609 900.000183
vertex -241.641403 -1269.599609 900.000183
endloop
endfacet
facet normal 0.000000 -1.000000 0.000000
outer loop
vertex -500.000000 -499.999908 600.000061
vertex -241.641403 -499.999908 600.000061
vertex -241.641403 -499.999847 900.000061
endloop
endfacet
facet normal 0.000000 -1.000000 0.000000
outer loop
vertex -500.000000 -499.999908 600.000061
vertex -241.641403 -499.999847 900.000061
vertex -500.000000 -499.999847 900.000061
endloop
endfacet
facet normal -1.000000 0.000000 0.000000
outer loop
vertex -500.000000 500.000092 599.999939
vertex -500.000000 -499.999908 600.000061
vertex -500.000000 -499.999847 900.000061
endloop
endfacet
facet normal -1.000000 0.000000 0.000000
outer loop
vertex -500.000000 500.000092 599.999939
vertex -500.000000 -499.999847 900.000061
vertex -500.000000 500.000153 899.999939
endloop
endfacet
facet normal 1.000000 0.000000 0.000000
outer loop
vertex 500.000000 -499.999908 600.000061
vertex 500.000000 500.000092 599.999939
vertex 500.000000 500.000153 899.999939
endloop
endfacet
facet normal 1.000000 0.000000 0.000000
outer loop
vertex 500.000000 -499.999908 600.000061
vertex 500.000000 500.000153 899.999939
vertex 500.000000 -499.999847 900.000061
endloop
endfacet
facet normal 1.000000 0.000000 0.000000
outer loop
vertex 507.338318 -1269.599609 600.000183
vertex 507.338318 -499.999908 600.000061
vertex 507.338318 -499.999847 900.000061
endloop
endfacet
facet normal 1.000000 0.000000 0.000000
outer loop
vertex 507.338318 -1269.599609 600.000183
vertex 507.338318 -499.999847 900.000061
vertex 507.338318 -1269.599609 900.000183
endloop
endfacet
facet normal -1.000000 0.000000 0.000000
outer loop
vertex -241.641403 -499.999908 600.000061
vertex -241.641403 -1269.599609 600.000183
vertex -241.641403 -1269.599609 900.000183
endloop
endfacet
facet normal -1.000000 0.000000 0.000000
outer loop
vertex -241.641403 -499.999908 600.000061
vertex -241.641403 -1269.599609 900.000183
vertex -241.641403 -499.999847 900.000061
endloop
endfacet
facet normal 0.000000 1.000000 -0.000000
outer loop
vertex 500.000000 500.000092 599.999939
vertex -500.000000 500.000092 599.999939
vertex -500.000000 500.000153 899.999939
endloop
endfacet
facet normal 0.000000 1.000000 -0.000000
outer loop
vertex 500.000000 500.000092 599.999939
vertex -500.000000 500.000153 899.999939
vertex 500.000000 500.000153 899.999939
endloop
endfacet
facet normal 0.000000 1.000000 -0.000000
outer loop
vertex 507.338318 -499.999908 600.000061
vertex 500.000000 -499.999908 600.000061
vertex 500.000000 -499.999847 900.000061
endloop
endfacet
facet normal 0.000000 1.000000 -0.000000
outer loop
vertex 507.338318 -499.999908 600.000061
vertex 500.000000 -499.999847 900.000061
vertex 507.338318 -499.999847 900.000061
endloop
endfacet
facet normal 0.000000 1.000000 -0.000000
outer loop
vertex 500.000000 500.000153 899.999939
vertex -500.000000 500.000153 899.999939
vertex -500.000000 500.000183 1199.999878
endloop
endfacet
facet normal 0.000000 1.000000 0.000000
outer loop
vertex 500.000000 500.000153 899.999939
vertex -500.000000 500.000183 1199.999878
vertex 500.000000 500.000183 1199.999878
endloop
endfacet
facet normal 0.000000 1.000000 -0.000000
outer loop
vertex 507.338318 -499.999847 900.000061
vertex 500.000000 -499.999847 900.000061
vertex 500.000000 -499.999817 1200.000122
endloop
endfacet
facet normal 0.000000 1.000000 0.000000
outer loop
vertex 507.338318 -499.999847 900.000061
vertex 500.000000 -499.999817 1200.000122
vertex 507.338318 -499.999817 1200.000122
endloop
endfacet
facet normal 0.000000 -1.000000 0.000000
outer loop
vertex -241.641403 -1269.599609 900.000183
vertex 507.338318 -1269.599609 900.000183
vertex 507.338318 -1269.599487 1200.000244
endloop
endfacet
facet normal 0.000000 -1.000000 0.000001
outer loop
vertex -241.641403 -1269.599609 900.000183
vertex 507.338318 -1269.599487 1200.000244
vertex -241.641403 -1269.599487 1200.000244
endloop
endfacet
facet normal 0.000000 -1.000000 0.000000
outer loop
vertex -500.000000 -499.999847 900.000061
vertex -241.641403 -499.999847 900.000061
vertex -241.641403 -499.999817 1200.000122
endloop
endfacet
facet normal 0.000000 -1.000000 0.000000
outer loop
vertex -500.000000 -499.999847 900.000061
vertex -241.641403 -499.999817 1200.000122
vertex -500.000000 -499.999817 1200.000122
endloop
endfacet
facet normal -1.000000 0.000000 0.000000
outer loop
vertex -500.000000 500.000153 899.999939
vertex -500.000000 -499.999847 900.000061
vertex -500.000000 -499.999817 1200.000122
endloop
endfacet
facet normal -1.000000 0.000000 0.000000
outer loop
vertex -500.000000 500.000153 899.999939
vertex -500.000000 -499.999817 1200.000122
vertex -500.000000 500.000183 1199.999878
endloop
endfacet
facet normal 1.000000 0.000000 0.000000
outer loop
vertex 500.000000 -499.999847 900.000061
vertex 500.000000 500.000153 899.999939
vertex 500.000000 500.000183 1199.999878
endloop
endfacet
facet normal 1.000000 0.000000 0.000000
outer loop
vertex 500.000000 -499.999847 900.000061
vertex 500.000000 500.000183 1199.999878
vertex 500.000000 -499.999817 1200.000122
endloop
endfacet
facet normal 1.000000 0.000000 0.000000
outer loop
vertex 507.338318 -1269.599609 900.000183
vertex 507.338318 -499.999847 900.000061
vertex 507.338318 -499.999817 1200.000122
endloop
endfacet
facet normal 1.000000 0.000000 0.000000
outer loop
vertex 507.338318 -1269.599609 900.000183
vertex 507.338318 -499.999817 1200.000122
vertex 507.338318 -1269.599487 1200.000244
endloop
endfacet
facet normal -1.000000 0.000000 0.000000
outer loop
vertex -241.641403 -499.999847 900.000061
vertex -241.641403 -1269.599609 900.000183
vertex -241.641403 -1269.599487 1200.000244
endloop
endfacet
facet normal -1.000000 0.000000 0.000000
outer loop
vertex -241.641403 -499.999847 900.000061
vertex -241.641403 -1269.599487 1200.000244
vertex -241.641403 -499.999817 1200.000122
endloop
endfacet
facet normal 1.000000 0.000000 0.000000
outer loop
vertex 507.338318 -1269.599487 1200.000244
vertex 507.338318 -499.999817 1200.000122
vertex 507.338318 -499.999756 1500.000122
endloop
endfacet
facet normal 1.000000 0.000000 0.000000
outer loop
vertex 507.338318 -1269.599487 1200.000244
vertex 507.338318 -499.999756 1500.000122
vertex 507.338318 -1269.599487 1500.000244
endloop
endfacet
facet normal -1.000000 0.000000 0.000000
outer loop
vertex -241.641403 -499.999817 1200.000122
vertex -241.641403 -1269.599487 1200.000244
vertex -241.641403 -1269.599487 1500.000244
endloop
endfacet
facet normal -1.000000 0.000000 0.000000
outer loop
vertex -241.641403 -499.999817 1200.000122
vertex -241.641403 -1269.599487 1500.000244
vertex -241.641403 -499.999756 1500.000122
endloop
endfacet
facet normal 0.000000 1.000000 -0.000000
outer loop
vertex 500.000000 500.000183 1199.999878
vertex -500.000000 500.000183 1199.999878
vertex -500.000000 500.000244 1499.999878
endloop
endfacet
facet normal 0.000000 1.000000 -0.000000
outer loop
vertex 500.000000 500.000183 1199.999878
vertex -500.000000 500.000244 1499.999878
vertex 500.000000 500.000244 1499.999878
endloop
endfacet
facet normal 0.000000 1.000000 0.000000
outer loop
vertex 507.338318 -499.999817 1200.000122
vertex 500.000000 -499.999817 1200.000122
vertex 500.000000 -499.999756 1500.000122
endloop
endfacet
facet normal 0.000000 1.000000 -0.000000
outer loop
vertex 507.338318 -499.999817 1200.000122
vertex 500.000000 -499.999756 1500.000122
vertex 507.338318 -499.999756 1500.000122
endloop
endfacet
facet normal 0.000000 -1.000000 0.000000
outer loop
vertex -241.641403 -1269.599487 1200.000244
vertex 507.338318 -1269.599487 1200.000244
vertex 507.338318 -1269.599487 1500.000244
endloop
endfacet
facet normal 0.000000 -1.000000 0.000000
outer loop
vertex -241.641403 -1269.599487 1200.000244
vertex 507.338318 -1269.599487 1500.000244
vertex -241.641403 -1269.599487 1500.000244
endloop
endfacet
facet normal 0.000000 -1.000000 0.000000
outer loop
vertex -500.000000 -499.999817 1200.000122
vertex -241.641403 -499.999817 1200.000122
vertex -241.641403 -499.999756 1500.000122
endloop
endfacet
facet normal 0.000000 -1.000000 0.000000
outer loop
vertex -500.000000 -499.999817 1200.000122
vertex -241.641403 -499.999756 1500.000122
vertex -500.000000 -499.999756 1500.000122
endloop
endfacet
facet normal -1.000000 0.000000 0.000000
outer loop
vertex -500.000000 500.000183 1199.999878
vertex -500.000000 -499.999817 1200.000122
vertex -500.000000 -499.999756 1500.000122
endloop
endfacet
facet normal -1.000000 0.000000 0.000000
outer loop
vertex -500.000000 500.000183 1199.999878
vertex -500.000000 -499.999756 1500.000122
vertex -500.000000 500.000244 1499.999878
endloop
endfacet
facet normal 1.000000 0.000000 0.000000
outer loop
vertex 500.000000 -499.999817 1200.000122
vertex 500.000000 500.000183 1199.999878
vertex 500.000000 500.000244 1499.999878
endloop
endfacet
facet normal 1.000000 0.000000 0.000000
outer loop
vertex 500.000000 -499.999817 1200.000122
vertex 500.000000 500.000244 1499.999878
vertex 500.000000 -499.999756 1500.000122
endloop
endfacet
facet normal -1.000000 0.000000 0.000000
outer loop
vertex -500.000000 500.000244 1499.999878
vertex -500.000000 -499.999756 1500.000122
vertex -500.000000 -499.999695 1800.000122
endloop
endfacet
facet normal -1.000000 0.000000 0.000000
outer loop
vertex -500.000000 500.000244 1499.999878
vertex -500.000000 -499.999695 1800.000122
vertex -500.000000 500.000305 1799.999878
endloop
endfacet
facet normal 1.000000 0.000000 0.000000
outer loop
vertex 500.000000 -499.999756 1500.000122
vertex 500.000000 500.000244 1499.999878
vertex 500.000000 500.000305 1799.999878
endloop
endfacet
facet normal 1.000000 0.000000 0.000000
outer loop
vertex 500.000000 -499.999756 1500.000122
vertex 500.000000 500.000305 1799.999878
vertex 500.000000 -499.999695 1800.000122
endloop
endfacet
facet normal 1.000000 0.000000 0.000000
outer loop
vertex 507.338318 -1269.599487 1500.000244
vertex 507.338318 -499.999756 1500.000122
vertex 507.338318 -499.999695 1800.000122
endloop
endfacet
facet normal 1.000000 0.000000 0.000000
outer loop
vertex 507.338318 -1269.599487 1500.000244
vertex 507.338318 -499.999695 1800.000122
vertex 507.338318 -1269.599487 1800.000244
endloop
endfacet
facet normal -1.000000 0.000000 0.000000
outer loop
vertex -241.641403 -499.999756 1500.000122
vertex -241.641403 -1269.599487 1500.000244
vertex -241.641403 -1269.599487 1800.000244
endloop
endfacet
facet normal -1.000000 0.000000 0.000000
outer loop
vertex -241.641403 -499.999756 1500.000122
vertex -241.641403 -1269.599487 1800.000244
vertex -241.641403 -499.999695 1800.000122
endloop
endfacet
facet normal 0.000000 1.000000 -0.000000
outer loop
vertex 500.000000 500.000244 1499.999878
vertex -500.000000 500.000244 1499.999878
vertex -500.000000 500.000305 1799.999878
endloop
endfacet
facet normal 0.000000 1.000000 -0.000000
outer loop
vertex 500.000000 500.000244 1499.999878
vertex -500.000000 500.000305 1799.999878
vertex 500.000000 500.000305 1799.999878
endloop
endfacet
facet normal 0.000000 1.000000 -0.000000
outer loop
vertex 507.338318 -499.999756 1500.000122
vertex 500.000000 -499.999756 1500.000122
vertex 500.000000 -499.999695 1800.000122
endloop
endfacet
facet normal 0.000000 1.000000 -0.000000
outer loop
vertex 507.338318 -499.999756 1500.000122
vertex 500.000000 -499.999695 1800.000122
vertex 507.338318 -499.999695 1800.000122
endloop
endfacet
facet normal 0.000000 -1.000000 0.000000
outer loop
vertex -241.641403 -1269.599487 1500.000244
vertex 507.338318 -1269.599487 1500.000244
vertex 507.338318 -1269.599487 1800.000244
endloop
endfacet
facet normal 0.000000 -1.000000 0.000000
outer loop
vertex -241.641403 -1269.599487 1500.000244
vertex 507.338318 -1269.599487 1800.000244
vertex -241.641403 -1269.599487 1800.000244
endloop
endfacet
facet normal 0.000000 -1.000000 0.000000
outer loop
vertex -500.000000 -499.999756 1500.000122
vertex -241.641403 -499.999756 1500.000122
vertex -241.641403 -499.999695 1800.000122
endloop
endfacet
facet normal 0.000000 -1.000000 0.000000
outer loop
vertex -500.000000 -499.999756 1500.000122
vertex -241.641403 -499.999695 1800.000122
vertex -500.000000 -499.999695 1800.000122
endloop
endfacet
facet normal 0.000000 1.000000 0.000000
outer loop
vertex 507.338318 -499.999695 1800.000122
vertex 500.000000 -499.999695 1800.000122
vertex 500.000000 -499.999664 2100.000000
endloop
endfacet
facet normal 0.000000 1.000000 -0.000000
outer loop
vertex 507.338318 -499.999695 1800.000122
vertex 500.000000 -499.999664 2100.000000
vertex 507.338318 -499.999664 2100.000000
endloop
endfacet
facet normal 0.000000 -1.000000 0.000001
outer loop
vertex -241.641403 -1269.599487 1800.000244
vertex 507.338318 -1269.599487 1800.000244
vertex 507.338318 -1269.599365 2100.000244
endloop
endfacet
facet normal 0.000000 -1.000000 0.000000
outer loop
vertex -241.641403 -1269.599487 1800.000244
vertex 507.338318 -1269.599365 2100.000244
vertex -241.641403 -1269.599365 2100.000244
endloop
endfacet
facet normal 0.000000 -1.000000 0.000000
outer loop
vertex -500.000000 -499.999695 1800.000122
vertex -241.641403 -499.999695 1800.000122
vertex -241.641403 -499.999664 2100.000000
endloop
endfacet
facet normal 0.000000 -1.000000 0.000000
outer loop
vertex -500.000000 -499.999695 1800.000122
vertex -241.641403 -499.999664 2100.000000
vertex -500.000000 -499.999664 2100.000000
endloop
endfacet
facet normal -1.000000 0.000000 0.000000
outer loop
vertex -500.000000 500.000305 1799.999878
vertex -500.000000 -499.999695 1800.000122
vertex -500.000000 -499.999664 2100.000000
endloop
endfacet
facet normal -1.000000 0.000000 0.000000
outer loop
vertex -500.000000 500.000305 1799.999878
vertex -500.000000 -499.999664 2100.000000
vertex -500.000000 500.000336 2100.000000
endloop
endfacet
facet normal 1.000000 0.000000 0.000000
outer loop
vertex 500.000000 -499.999695 1800.000122
vertex 500.000000 500.000305 1799.999878
vertex 500.000000 500.000336 2100.000000
endloop
endfacet
facet normal 1.000000 0.000000 0.000000
outer loop
vertex 500.000000 -499.999695 1800.000122
vertex 500.000000 500.000336 2100.000000
vertex 500.000000 -499.999664 2100.000000
endloop
endfacet
facet normal 1.000000 0.000000 0.000000
outer loop
vertex 507.338318 -1269.599487 1800.000244
vertex 507.338318 -499.999695 1800.000122
vertex 507.338318 -499.999664 2100.000000
endloop
endfacet
facet normal 1.000000 0.000000 0.000000
outer loop
vertex 507.338318 -1269.599487 1800.000244
vertex 507.338318 -499.999664 2100.000000
vertex 507.338318 -1269.599365 2100.000244
endloop
endfacet
facet normal -1.000000 0.000000 0.000000
outer loop
vertex -241.641403 -499.999695 1800.000122
vertex -241.641403 -1269.599487 1800.000244
vertex -241.641403 -1269.599365 2100.000244
endloop
endfacet
facet normal -1.000000 0.000000 0.000000
outer loop
vertex -241.641403 -499.999695 1800.000122
vertex -241.641403 -1269.599365 2100.000244
vertex -241.641403 -499.999664 2100.000000
endloop
endfacet
facet normal 0.000000 1.000000 0.000000
outer loop
vertex 500.000000 500.000305 1799.999878
vertex -500.000000 500.000305 1799.999878
vertex -500.000000 500.000336 2100.000000
endloop
endfacet
facet normal 0.000000 1.000000 -0.000000
outer loop
vertex 500.000000 500.000305 1799.999878
vertex -500.000000 500.000336 2100.000000
vertex 500.000000 500.000336 2100.000000
endloop
endfacet
endsolid building_001.001
