solid building_028
facet normal 0.000000 -1.000000 -0.000000
outer loop
vertex -750.000000 -525.000061 -0.000122
vertex 750.000000 -524.999939 0.000122
vertex 749.999939 -524.999939 200.000122
endloop
endfacet
facet normal 0.000000 -1.000000 0.000000
outer loop
vertex -750.000000 -525.000061 -0.000122
vertex 749.999939 -524.999939 200.000122
vertex -750.000061 -525.000061 199.999878
endloop
endfacet
facet normal -1.000000 0.000000 -0.000000
outer loop
vertex -900.000000 374.999969 -0.000147
vertex -900.000000 -375.000031 -0.000147
vertex -900.000061 -375.000031 199.999847
endloop
endfacet
facet normal -1.000000 0.000000 -0.000000
outer loop
vertex -900.000000 374.999969 -0.000147
vertex -900.000061 -375.000031 199.999847
vertex -900.000061 374.999969 199.999847
endloop
endfacet
facet normal 1.000000 0.000000 0.000000
outer loop
vertex 900.000000 -374.999969 0.000147
vertex 900.000000 375.000031 0.000147
vertex 899.999939 375.000031 200.000153
endloop
endfacet
facet normal 1.000000 0.000000 0.000000
outer loop
vertex 900.000000 -374.999969 0.000147
vertex 899.999939 375.000031 200.000153
vertex 899.999939 -374.999969 200.000153
endloop
endfacet
facet normal 1.000000 0.000000 0.000000
outer loop
vertex 750.000000 375.000031 0.000122
vertex 750.000000 525.000061 0.000122
vertex 749.999939 525.000061 200.000122
endloop
endfacet
facet normal 1.000000 0.000000 0.000000
outer loop
vertex 750.000000 375.000031 0.000122
vertex 749.999939 525.000061 200.000122
vertex 749.999939 375.000031 200.000122
endloop
endfacet
facet normal 0.000000 0.000000 1.000000
outer loop
vertex 749.999695 -374.999969 2000.000122
vertex 899.999695 -374.999969 2000.000122
vertex 899.999695 375.000031 2000.000122
endloop
endfacet
facet normal -0.000000 0.000000 1.000000
outer loop
vertex 749.999695 375.000031 2000.000122
vertex 749.999695 525.000061 2000.000122
vertex -750.000305 524.999939 1999.999878
endloop
endfacet
facet normal 0.000000 0.000000 1.000000
outer loop
vertex 749.999695 -374.999969 2000.000122
vertex 899.999695 375.000031 2000.000122
vertex 749.999695 375.000031 2000.000122
endloop
endfacet
facet normal -0.000000 0.000000 1.000000
outer loop
vertex -750.000305 -525.000061 1999.999878
vertex 749.999695 -524.999939 2000.000122
vertex 749.999695 -374.999969 2000.000122
endloop
endfacet
facet normal 0.000000 0.000000 1.000000
outer loop
vertex -900.000305 374.999969 1999.999878
vertex -900.000305 -375.000031 1999.999878
vertex -750.000305 -375.000031 1999.999878
endloop
endfacet
facet normal -0.000000 0.000000 1.000000
outer loop
vertex -750.000305 -375.000031 1999.999878
vertex -750.000305 -525.000061 1999.999878
vertex 749.999695 -374.999969 2000.000122
endloop
endfacet
facet normal -0.000000 0.000000 1.000000
outer loop
vertex 749.999695 -374.999969 2000.000122
vertex 749.999695 375.000031 2000.000122
vertex -750.000305 524.999939 1999.999878
endloop
endfacet
facet normal 0.000000 0.000000 1.000000
outer loop
vertex -750.000305 374.999969 1999.999878
vertex -900.000305 374.999969 1999.999878
vertex -750.000305 -375.000031 1999.999878
endloop
endfacet
facet normal 0.000000 0.000000 1.000000
outer loop
vertex 749.999695 -374.999969 2000.000122
vertex -750.000305 524.999939 1999.999878
vertex -750.000305 374.999969 1999.999878
endloop
endfacet
facet normal -0.000000 0.000000 1.000000
outer loop
vertex 749.999695 -374.999969 2000.000122
vertex -750.000305 374.999969 1999.999878
vertex -750.000305 -375.000031 1999.999878
endloop
endfacet
facet normal 0.000000 -1.000000 0.000000
outer loop
vertex -900.000000 -375.000031 -0.000147
vertex -750.000000 -375.000031 -0.000122
vertex -750.000061 -375.000031 199.999878
endloop
endfacet
facet normal 0.000000 -1.000000 0.000000
outer loop
vertex -900.000000 -375.000031 -0.000147
vertex -750.000061 -375.000031 199.999878
vertex -900.000061 -375.000031 199.999847
endloop
endfacet
facet normal -0.000000 1.000000 0.000000
outer loop
vertex 750.000000 525.000061 0.000122
vertex -750.000000 524.999939 -0.000122
vertex -750.000061 524.999939 199.999878
endloop
endfacet
facet normal -0.000000 1.000000 -0.000000
outer loop
vertex 750.000000 525.000061 0.000122
vertex -750.000061 524.999939 199.999878
vertex 749.999939 525.000061 200.000122
endloop
endfacet
facet normal 1.000000 0.000000 0.000000
outer loop
vertex 750.000000 -524.999939 0.000122
vertex 750.000000 -374.999969 0.000122
vertex 749.999939 -374.999969 200.000122
endloop
endfacet
facet normal 1.000000 0.000000 0.000000
outer loop
vertex 750.000000 -524.999939 0.000122
vertex 749.999939 -374.999969 200.000122
vertex 749.999939 -524.999939 200.000122
endloop
endfacet
facet normal 0.000000 1.000000 -0.000000
outer loop
vertex 900.000000 375.000031 0.000147
vertex 750.000000 375.000031 0.000122
vertex 749.999939 375.000031 200.000122
endloop
endfacet
facet normal 0.000000 1.000000 0.000000
outer loop
vertex 900.000000 375.000031 0.000147
vertex 749.999939 375.000031 200.000122
vertex 899.999939 375.000031 200.000153
endloop
endfacet
facet normal 0.000000 1.000000 -0.000000
outer loop
vertex -750.000000 374.999969 -0.000122
vertex -900.000000 374.999969 -0.000147
vertex -900.000061 374.999969 199.999847
endloop
endfacet
facet normal 0.000000 1.000000 0.000000
outer loop
vertex -750.000000 374.999969 -0.000122
vertex -900.000061 374.999969 199.999847
vertex -750.000061 374.999969 199.999878
endloop
endfacet
facet normal -1.000000 0.000000 -0.000000
outer loop
vertex -750.000000 524.999939 -0.000122
vertex -750.000000 374.999969 -0.000122
vertex -750.000061 374.999969 199.999878
endloop
endfacet
facet normal -1.000000 0.000000 -0.000000
outer loop
vertex -750.000000 524.999939 -0.000122
vertex -750.000061 374.999969 199.999878
vertex -750.000061 524.999939 199.999878
endloop
endfacet
facet normal -1.000000 0.000000 -0.000000
outer loop
vertex -750.000000 -375.000031 -0.000122
vertex -750.000000 -525.000061 -0.000122
vertex -750.000061 -525.000061 199.999878
endloop
endfacet
facet normal -1.000000 0.000000 -0.000000
outer loop
vertex -750.000000 -375.000031 -0.000122
vertex -750.000061 -525.000061 199.999878
vertex -750.000061 -375.000031 199.999878
endloop
endfacet
facet normal 0.000000 -1.000000 0.000000
outer loop
vertex 750.000000 -374.999969 0.000122
vertex 900.000000 -374.999969 0.000147
vertex 899.999939 -374.999969 200.000153
endloop
endfacet
facet normal 0.000000 -1.000000 0.000000
outer loop
vertex 750.000000 -374.999969 0.000122
vertex 899.999939 -374.999969 200.000153
vertex 749.999939 -374.999969 200.000122
endloop
endfacet
facet normal -0.000000 1.000000 0.000000
outer loop
vertex 749.999939 525.000061 200.000122
vertex -750.000061 524.999939 199.999878
vertex -750.000061 524.999939 399.999878
endloop
endfacet
facet normal -0.000000 1.000000 0.000000
outer loop
vertex 749.999939 525.000061 200.000122
vertex -750.000061 524.999939 399.999878
vertex 749.999939 525.000061 400.000122
endloop
endfacet
facet normal 1.000000 0.000000 0.000000
outer loop
vertex 749.999939 -524.999939 200.000122
vertex 749.999939 -374.999969 200.000122
vertex 749.999939 -374.999969 400.000122
endloop
endfacet
facet normal 1.000000 0.000000 0.000000
outer loop
vertex 749.999939 -524.999939 200.000122
vertex 749.999939 -374.999969 400.000122
vertex 749.999939 -524.999939 400.000122
endloop
endfacet
facet normal 1.000000 0.000000 0.000000
outer loop
vertex 899.999939 -374.999969 200.000153
vertex 899.999939 375.000031 200.000153
vertex 899.999939 375.000031 400.000153
endloop
endfacet
facet normal 1.000000 0.000000 0.000000
outer loop
vertex 899.999939 -374.999969 200.000153
vertex 899.999939 375.000031 400.000153
vertex 899.999939 -374.999969 400.000153
endloop
endfacet
facet normal 0.000000 -1.000000 0.000000
outer loop
vertex -900.000061 -375.000031 199.999847
vertex -750.000061 -375.000031 199.999878
vertex -750.000061 -375.000031 399.999878
endloop
endfacet
facet normal 0.000000 -1.000000 0.000000
outer loop
vertex -900.000061 -375.000031 199.999847
vertex -750.000061 -375.000031 399.999878
vertex -900.000061 -375.000031 399.999847
endloop
endfacet
facet normal 0.000000 -1.000000 0.000000
outer loop
vertex 749.999939 -374.999969 200.000122
vertex 899.999939 -374.999969 200.000153
vertex 899.999939 -374.999969 400.000153
endloop
endfacet
facet normal 0.000000 -1.000000 0.000000
outer loop
vertex 749.999939 -374.999969 200.000122
vertex 899.999939 -374.999969 400.000153
vertex 749.999939 -374.999969 400.000122
endloop
endfacet
facet normal -1.000000 0.000000 0.000000
outer loop
vertex -750.000061 524.999939 199.999878
vertex -750.000061 374.999969 199.999878
vertex -750.000061 374.999969 399.999878
endloop
endfacet
facet normal -1.000000 0.000000 0.000000
outer loop
vertex -750.000061 524.999939 199.999878
vertex -750.000061 374.999969 399.999878
vertex -750.000061 524.999939 399.999878
endloop
endfacet
facet normal -1.000000 0.000000 0.000000
outer loop
vertex -750.000061 -375.000031 199.999878
vertex -750.000061 -525.000061 199.999878
vertex -750.000061 -525.000061 399.999878
endloop
endfacet
facet normal -1.000000 0.000000 0.000000
outer loop
vertex -750.000061 -375.000031 199.999878
vertex -750.000061 -525.000061 399.999878
vertex -750.000061 -375.000031 399.999878
endloop
endfacet
facet normal 1.000000 0.000000 0.000000
outer loop
vertex 749.999939 375.000031 200.000122
vertex 749.999939 525.000061 200.000122
vertex 749.999939 525.000061 400.000122
endloop
endfacet
facet normal 1.000000 0.000000 0.000000
outer loop
vertex 749.999939 375.000031 200.000122
vertex 749.999939 525.000061 400.000122
vertex 749.999939 375.000031 400.000122
endloop
endfacet
facet normal 0.000000 1.000000 0.000000
outer loop
vertex -750.000061 374.999969 199.999878
vertex -900.000061 374.999969 199.999847
vertex -900.000061 374.999969 399.999847
endloop
endfacet
facet normal 0.000000 1.000000 0.000000
outer loop
vertex -750.000061 374.999969 199.999878
vertex -900.000061 374.999969 399.999847
vertex -750.000061 374.999969 399.999878
endloop
endfacet
facet normal 0.000000 -1.000000 0.000000
outer loop
vertex -750.000061 -525.000061 199.999878
vertex 749.999939 -524.999939 200.000122
vertex 749.999939 -524.999939 400.000122
endloop
endfacet
facet normal 0.000000 -1.000000 0.000000
outer loop
vertex -750.000061 -525.000061 199.999878
vertex 749.999939 -524.999939 400.000122
vertex -750.000061 -525.000061 399.999878
endloop
endfacet
facet normal -1.000000 0.000000 0.000000
outer loop
vertex -900.000061 374.999969 199.999847
vertex -900.000061 -375.000031 199.999847
vertex -900.000061 -375.000031 399.999847
endloop
endfacet
facet normal -1.000000 0.000000 0.000000
outer loop
vertex -900.000061 374.999969 199.999847
vertex -900.000061 -375.000031 399.999847
vertex -900.000061 374.999969 399.999847
endloop
endfacet
facet normal 0.000000 1.000000 0.000000
outer loop
vertex 899.999939 375.000031 200.000153
vertex 749.999939 375.000031 200.000122
vertex 749.999939 375.000031 400.000122
endloop
endfacet
facet normal 0.000000 1.000000 0.000000
outer loop
vertex 899.999939 375.000031 200.000153
vertex 749.999939 375.000031 400.000122
vertex 899.999939 375.000031 400.000153
endloop
endfacet
facet normal -0.000000 1.000000 0.000000
outer loop
vertex 749.999939 525.000061 400.000122
vertex -750.000061 524.999939 399.999878
vertex -750.000122 524.999939 599.999878
endloop
endfacet
facet normal -0.000000 1.000000 -0.000000
outer loop
vertex 749.999939 525.000061 400.000122
vertex -750.000122 524.999939 599.999878
vertex 749.999878 525.000061 600.000122
endloop
endfacet
facet normal 1.000000 0.000000 0.000000
outer loop
vertex 749.999939 -524.999939 400.000122
vertex 749.999939 -374.999969 400.000122
vertex 749.999878 -374.999969 600.000122
endloop
endfacet
facet normal 1.000000 0.000000 0.000000
outer loop
vertex 749.999939 -524.999939 400.000122
vertex 749.999878 -374.999969 600.000122
vertex 749.999878 -524.999939 600.000122
endloop
endfacet
facet normal 1.000000 0.000000 0.000000
outer loop
vertex 899.999939 -374.999969 400.000153
vertex 899.999939 375.000031 400.000153
vertex 899.999878 375.000031 600.000122
endloop
endfacet
facet normal 1.000000 0.000000 0.000000
outer loop
vertex 899.999939 -374.999969 400.000153
vertex 899.999878 375.000031 600.000122
vertex 899.999878 -374.999969 600.000122
endloop
endfacet
facet normal 0.000000 -1.000000 0.000000
outer loop
vertex -900.000061 -375.000031 399.999847
vertex -750.000061 -375.000031 399.999878
vertex -750.000122 -375.000031 599.999878
endloop
endfacet
facet normal 0.000000 -1.000000 0.000000
outer loop
vertex -900.000061 -375.000031 399.999847
vertex -750.000122 -375.000031 599.999878
vertex -900.000122 -375.000031 599.999878
endloop
endfacet
facet normal -1.000000 0.000000 -0.000000
outer loop
vertex -750.000061 524.999939 399.999878
vertex -750.000061 374.999969 399.999878
vertex -750.000122 374.999969 599.999878
endloop
endfacet
facet normal -1.000000 0.000000 -0.000000
outer loop
vertex -750.000061 524.999939 399.999878
vertex -750.000122 374.999969 599.999878
vertex -750.000122 524.999939 599.999878
endloop
endfacet
facet normal 0.000000 1.000000 -0.000000
outer loop
vertex 899.999939 375.000031 400.000153
vertex 749.999939 375.000031 400.000122
vertex 749.999878 375.000031 600.000122
endloop
endfacet
facet normal 0.000000 1.000000 0.000000
outer loop
vertex 899.999939 375.000031 400.000153
vertex 749.999878 375.000031 600.000122
vertex 899.999878 375.000031 600.000122
endloop
endfacet
facet normal -1.000000 0.000000 -0.000000
outer loop
vertex -750.000061 -375.000031 399.999878
vertex -750.000061 -525.000061 399.999878
vertex -750.000122 -525.000061 599.999878
endloop
endfacet
facet normal -1.000000 0.000000 -0.000000
outer loop
vertex -750.000061 -375.000031 399.999878
vertex -750.000122 -525.000061 599.999878
vertex -750.000122 -375.000031 599.999878
endloop
endfacet
facet normal 0.000000 1.000000 -0.000000
outer loop
vertex -750.000061 374.999969 399.999878
vertex -900.000061 374.999969 399.999847
vertex -900.000122 374.999969 599.999878
endloop
endfacet
facet normal 0.000000 1.000000 0.000000
outer loop
vertex -750.000061 374.999969 399.999878
vertex -900.000122 374.999969 599.999878
vertex -750.000122 374.999969 599.999878
endloop
endfacet
facet normal 1.000000 0.000000 0.000000
outer loop
vertex 749.999939 375.000031 400.000122
vertex 749.999939 525.000061 400.000122
vertex 749.999878 525.000061 600.000122
endloop
endfacet
facet normal 1.000000 0.000000 0.000000
outer loop
vertex 749.999939 375.000031 400.000122
vertex 749.999878 525.000061 600.000122
vertex 749.999878 375.000031 600.000122
endloop
endfacet
facet normal 0.000000 -1.000000 -0.000000
outer loop
vertex -750.000061 -525.000061 399.999878
vertex 749.999939 -524.999939 400.000122
vertex 749.999878 -524.999939 600.000122
endloop
endfacet
facet normal 0.000000 -1.000000 0.000000
outer loop
vertex -750.000061 -525.000061 399.999878
vertex 749.999878 -524.999939 600.000122
vertex -750.000122 -525.000061 599.999878
endloop
endfacet
facet normal 0.000000 -1.000000 0.000000
outer loop
vertex 749.999939 -374.999969 400.000122
vertex 899.999939 -374.999969 400.000153
vertex 899.999878 -374.999969 600.000122
endloop
endfacet
facet normal 0.000000 -1.000000 0.000000
outer loop
vertex 749.999939 -374.999969 400.000122
vertex 899.999878 -374.999969 600.000122
vertex 749.999878 -374.999969 600.000122
endloop
endfacet
facet normal -1.000000 0.000000 -0.000000
outer loop
vertex -900.000061 374.999969 399.999847
vertex -900.000061 -375.000031 399.999847
vertex -900.000122 -375.000031 599.999878
endloop
endfacet
facet normal -1.000000 0.000000 -0.000000
outer loop
vertex -900.000061 374.999969 399.999847
vertex -900.000122 -375.000031 599.999878
vertex -900.000122 374.999969 599.999878
endloop
endfacet
facet normal -1.000000 0.000000 0.000000
outer loop
vertex -900.000122 374.999969 599.999878
vertex -900.000122 -375.000031 599.999878
vertex -900.000122 -375.000031 799.999878
endloop
endfacet
facet normal -1.000000 0.000000 0.000000
outer loop
vertex -900.000122 374.999969 599.999878
vertex -900.000122 -375.000031 799.999878
vertex -900.000122 374.999969 799.999878
endloop
endfacet
facet normal -0.000000 1.000000 0.000000
outer loop
vertex 749.999878 525.000061 600.000122
vertex -750.000122 524.999939 599.999878
vertex -750.000122 524.999939 799.999878
endloop
endfacet
facet normal -0.000000 1.000000 0.000000
outer loop
vertex 749.999878 525.000061 600.000122
vertex -750.000122 524.999939 799.999878
vertex 749.999878 525.000061 800.000122
endloop
endfacet
facet normal 1.000000 0.000000 0.000000
outer loop
vertex 749.999878 -524.999939 600.000122
vertex 749.999878 -374.999969 600.000122
vertex 749.999878 -374.999969 800.000122
endloop
endfacet
facet normal 1.000000 0.000000 0.000000
outer loop
vertex 749.999878 -524.999939 600.000122
vertex 749.999878 -374.999969 800.000122
vertex 749.999878 -524.999939 800.000122
endloop
endfacet
facet normal 1.000000 0.000000 0.000000
outer loop
vertex 899.999878 -374.999969 600.000122
vertex 899.999878 375.000031 600.000122
vertex 899.999878 375.000031 800.000122
endloop
endfacet
facet normal 1.000000 0.000000 0.000000
outer loop
vertex 899.999878 -374.999969 600.000122
vertex 899.999878 375.000031 800.000122
vertex 899.999878 -374.999969 800.000122
endloop
endfacet
facet normal 0.000000 -1.000000 0.000000
outer loop
vertex -900.000122 -375.000031 599.999878
vertex -750.000122 -375.000031 599.999878
vertex -750.000122 -375.000031 799.999878
endloop
endfacet
facet normal 0.000000 -1.000000 0.000000
outer loop
vertex -900.000122 -375.000031 599.999878
vertex -750.000122 -375.000031 799.999878
vertex -900.000122 -375.000031 799.999878
endloop
endfacet
facet normal -1.000000 0.000000 0.000000
outer loop
vertex -750.000122 524.999939 599.999878
vertex -750.000122 374.999969 599.999878
vertex -750.000122 374.999969 799.999878
endloop
endfacet
facet normal -1.000000 0.000000 0.000000
outer loop
vertex -750.000122 524.999939 599.999878
vertex -750.000122 374.999969 799.999878
vertex -750.000122 524.999939 799.999878
endloop
endfacet
facet normal 0.000000 1.000000 0.000000
outer loop
vertex 899.999878 375.000031 600.000122
vertex 749.999878 375.000031 600.000122
vertex 749.999878 375.000031 800.000122
endloop
endfacet
facet normal 0.000000 1.000000 0.000000
outer loop
vertex 899.999878 375.000031 600.000122
vertex 749.999878 375.000031 800.000122
vertex 899.999878 375.000031 800.000122
endloop
endfacet
facet normal -1.000000 0.000000 0.000000
outer loop
vertex -750.000122 -375.000031 599.999878
vertex -750.000122 -525.000061 599.999878
vertex -750.000122 -525.000061 799.999878
endloop
endfacet
facet normal -1.000000 0.000000 0.000000
outer loop
vertex -750.000122 -375.000031 599.999878
vertex -750.000122 -525.000061 799.999878
vertex -750.000122 -375.000031 799.999878
endloop
endfacet
facet normal 0.000000 1.000000 0.000000
outer loop
vertex -750.000122 374.999969 599.999878
vertex -900.000122 374.999969 599.999878
vertex -900.000122 374.999969 799.999878
endloop
endfacet
facet normal 0.000000 1.000000 0.000000
outer loop
vertex -750.000122 374.999969 599.999878
vertex -900.000122 374.999969 799.999878
vertex -750.000122 374.999969 799.999878
endloop
endfacet
facet normal 1.000000 0.000000 0.000000
outer loop
vertex 749.999878 375.000031 600.000122
vertex 749.999878 525.000061 600.000122
vertex 749.999878 525.000061 800.000122
endloop
endfacet
facet normal 1.000000 0.000000 0.000000
outer loop
vertex 749.999878 375.000031 600.000122
vertex 749.999878 525.000061 800.000122
vertex 749.999878 375.000031 800.000122
endloop
endfacet
facet normal 0.000000 -1.000000 0.000000
outer loop
vertex -750.000122 -525.000061 599.999878
vertex 749.999878 -524.999939 600.000122
vertex 749.999878 -524.999939 800.000122
endloop
endfacet
facet normal 0.000000 -1.000000 0.000000
outer loop
vertex -750.000122 -525.000061 599.999878
vertex 749.999878 -524.999939 800.000122
vertex -750.000122 -525.000061 799.999878
endloop
endfacet
facet normal 0.000000 -1.000000 0.000000
outer loop
vertex 749.999878 -374.999969 600.000122
vertex 899.999878 -374.999969 600.000122
vertex 899.999878 -374.999969 800.000122
endloop
endfacet
facet normal 0.000000 -1.000000 0.000000
outer loop
vertex 749.999878 -374.999969 600.000122
vertex 899.999878 -374.999969 800.000122
vertex 749.999878 -374.999969 800.000122
endloop
endfacet
facet normal 0.000000 -1.000000 0.000000
outer loop
vertex 749.999878 -374.999969 800.000122
vertex 899.999878 -374.999969 800.000122
vertex 899.999817 -374.999969 1000.000122
endloop
endfacet
facet normal 0.000000 -1.000000 0.000000
outer loop
vertex 749.999878 -374.999969 800.000122
vertex 899.999817 -374.999969 1000.000122
vertex 749.999817 -374.999969 1000.000122
endloop
endfacet
facet normal -1.000000 0.000000 -0.000000
outer loop
vertex -900.000122 374.999969 799.999878
vertex -900.000122 -375.000031 799.999878
vertex -900.000183 -375.000031 999.999878
endloop
endfacet
facet normal -1.000000 0.000000 -0.000000
outer loop
vertex -900.000122 374.999969 799.999878
vertex -900.000183 -375.000031 999.999878
vertex -900.000183 374.999969 999.999878
endloop
endfacet
facet normal -0.000000 1.000000 0.000000
outer loop
vertex 749.999878 525.000061 800.000122
vertex -750.000122 524.999939 799.999878
vertex -750.000183 524.999939 999.999878
endloop
endfacet
facet normal -0.000000 1.000000 -0.000000
outer loop
vertex 749.999878 525.000061 800.000122
vertex -750.000183 524.999939 999.999878
vertex 749.999817 525.000061 1000.000122
endloop
endfacet
facet normal 1.000000 0.000000 0.000000
outer loop
vertex 749.999878 -524.999939 800.000122
vertex 749.999878 -374.999969 800.000122
vertex 749.999817 -374.999969 1000.000122
endloop
endfacet
facet normal 1.000000 0.000000 0.000000
outer loop
vertex 749.999878 -524.999939 800.000122
vertex 749.999817 -374.999969 1000.000122
vertex 749.999817 -524.999939 1000.000122
endloop
endfacet
facet normal 1.000000 0.000000 0.000000
outer loop
vertex 899.999878 -374.999969 800.000122
vertex 899.999878 375.000031 800.000122
vertex 899.999817 375.000031 1000.000122
endloop
endfacet
facet normal 1.000000 0.000000 0.000000
outer loop
vertex 899.999878 -374.999969 800.000122
vertex 899.999817 375.000031 1000.000122
vertex 899.999817 -374.999969 1000.000122
endloop
endfacet
facet normal 0.000000 -1.000000 0.000000
outer loop
vertex -900.000122 -375.000031 799.999878
vertex -750.000122 -375.000031 799.999878
vertex -750.000183 -375.000031 999.999878
endloop
endfacet
facet normal 0.000000 -1.000000 0.000000
outer loop
vertex -900.000122 -375.000031 799.999878
vertex -750.000183 -375.000031 999.999878
vertex -900.000183 -375.000031 999.999878
endloop
endfacet
facet normal -1.000000 0.000000 -0.000000
outer loop
vertex -750.000122 524.999939 799.999878
vertex -750.000122 374.999969 799.999878
vertex -750.000183 374.999969 999.999878
endloop
endfacet
facet normal -1.000000 0.000000 -0.000000
outer loop
vertex -750.000122 524.999939 799.999878
vertex -750.000183 374.999969 999.999878
vertex -750.000183 524.999939 999.999878
endloop
endfacet
facet normal 0.000000 1.000000 -0.000000
outer loop
vertex 899.999878 375.000031 800.000122
vertex 749.999878 375.000031 800.000122
vertex 749.999817 375.000031 1000.000122
endloop
endfacet
facet normal 0.000000 1.000000 0.000000
outer loop
vertex 899.999878 375.000031 800.000122
vertex 749.999817 375.000031 1000.000122
vertex 899.999817 375.000031 1000.000122
endloop
endfacet
facet normal -1.000000 0.000000 -0.000000
outer loop
vertex -750.000122 -375.000031 799.999878
vertex -750.000122 -525.000061 799.999878
vertex -750.000183 -525.000061 999.999878
endloop
endfacet
facet normal -1.000000 0.000000 -0.000000
outer loop
vertex -750.000122 -375.000031 799.999878
vertex -750.000183 -525.000061 999.999878
vertex -750.000183 -375.000031 999.999878
endloop
endfacet
facet normal 0.000000 1.000000 -0.000000
outer loop
vertex -750.000122 374.999969 799.999878
vertex -900.000122 374.999969 799.999878
vertex -900.000183 374.999969 999.999878
endloop
endfacet
facet normal 0.000000 1.000000 0.000000
outer loop
vertex -750.000122 374.999969 799.999878
vertex -900.000183 374.999969 999.999878
vertex -750.000183 374.999969 999.999878
endloop
endfacet
facet normal 1.000000 0.000000 0.000000
outer loop
vertex 749.999878 375.000031 800.000122
vertex 749.999878 525.000061 800.000122
vertex 749.999817 525.000061 1000.000122
endloop
endfacet
facet normal 1.000000 0.000000 0.000000
outer loop
vertex 749.999878 375.000031 800.000122
vertex 749.999817 525.000061 1000.000122
vertex 749.999817 375.000031 1000.000122
endloop
endfacet
facet normal 0.000000 -1.000000 -0.000000
outer loop
vertex -750.000122 -525.000061 799.999878
vertex 749.999878 -524.999939 800.000122
vertex 749.999817 -524.999939 1000.000122
endloop
endfacet
facet normal 0.000000 -1.000000 0.000000
outer loop
vertex -750.000122 -525.000061 799.999878
vertex 749.999817 -524.999939 1000.000122
vertex -750.000183 -525.000061 999.999878
endloop
endfacet
facet normal 0.000000 -1.000000 0.000000
outer loop
vertex -750.000183 -525.000061 999.999878
vertex 749.999817 -524.999939 1000.000122
vertex 749.999817 -524.999939 1200.000122
endloop
endfacet
facet normal 0.000000 -1.000000 0.000000
outer loop
vertex -750.000183 -525.000061 999.999878
vertex 749.999817 -524.999939 1200.000122
vertex -750.000183 -525.000061 1199.999878
endloop
endfacet
facet normal 0.000000 -1.000000 0.000000
outer loop
vertex 749.999817 -374.999969 1000.000122
vertex 899.999817 -374.999969 1000.000122
vertex 899.999817 -374.999969 1200.000122
endloop
endfacet
facet normal 0.000000 -1.000000 0.000000
outer loop
vertex 749.999817 -374.999969 1000.000122
vertex 899.999817 -374.999969 1200.000122
vertex 749.999817 -374.999969 1200.000122
endloop
endfacet
facet normal -1.000000 0.000000 0.000000
outer loop
vertex -900.000183 374.999969 999.999878
vertex -900.000183 -375.000031 999.999878
vertex -900.000183 -375.000031 1199.999878
endloop
endfacet
facet normal -1.000000 0.000000 0.000000
outer loop
vertex -900.000183 374.999969 999.999878
vertex -900.000183 -375.000031 1199.999878
vertex -900.000183 374.999969 1199.999878
endloop
endfacet
facet normal -0.000000 1.000000 0.000000
outer loop
vertex 749.999817 525.000061 1000.000122
vertex -750.000183 524.999939 999.999878
vertex -750.000183 524.999939 1199.999878
endloop
endfacet
facet normal -0.000000 1.000000 0.000000
outer loop
vertex 749.999817 525.000061 1000.000122
vertex -750.000183 524.999939 1199.999878
vertex 749.999817 525.000061 1200.000122
endloop
endfacet
facet normal 1.000000 0.000000 0.000000
outer loop
vertex 749.999817 -524.999939 1000.000122
vertex 749.999817 -374.999969 1000.000122
vertex 749.999817 -374.999969 1200.000122
endloop
endfacet
facet normal 1.000000 0.000000 0.000000
outer loop
vertex 749.999817 -524.999939 1000.000122
vertex 749.999817 -374.999969 1200.000122
vertex 749.999817 -524.999939 1200.000122
endloop
endfacet
facet normal 1.000000 0.000000 0.000000
outer loop
vertex 899.999817 -374.999969 1000.000122
vertex 899.999817 375.000031 1000.000122
vertex 899.999817 375.000031 1200.000122
endloop
endfacet
facet normal 1.000000 0.000000 0.000000
outer loop
vertex 899.999817 -374.999969 1000.000122
vertex 899.999817 375.000031 1200.000122
vertex 899.999817 -374.999969 1200.000122
endloop
endfacet
facet normal 0.000000 -1.000000 0.000000
outer loop
vertex -900.000183 -375.000031 999.999878
vertex -750.000183 -375.000031 999.999878
vertex -750.000183 -375.000031 1199.999878
endloop
endfacet
facet normal 0.000000 -1.000000 0.000000
outer loop
vertex -900.000183 -375.000031 999.999878
vertex -750.000183 -375.000031 1199.999878
vertex -900.000183 -375.000031 1199.999878
endloop
endfacet
facet normal -1.000000 0.000000 0.000000
outer loop
vertex -750.000183 524.999939 999.999878
vertex -750.000183 374.999969 999.999878
vertex -750.000183 374.999969 1199.999878
endloop
endfacet
facet normal -1.000000 0.000000 0.000000
outer loop
vertex -750.000183 524.999939 999.999878
vertex -750.000183 374.999969 1199.999878
vertex -750.000183 524.999939 1199.999878
endloop
endfacet
facet normal 0.000000 1.000000 0.000000
outer loop
vertex 899.999817 375.000031 1000.000122
vertex 749.999817 375.000031 1000.000122
vertex 749.999817 375.000031 1200.000122
endloop
endfacet
facet normal 0.000000 1.000000 0.000000
outer loop
vertex 899.999817 375.000031 1000.000122
vertex 749.999817 375.000031 1200.000122
vertex 899.999817 375.000031 1200.000122
endloop
endfacet
facet normal -1.000000 0.000000 0.000000
outer loop
vertex -750.000183 -375.000031 999.999878
vertex -750.000183 -525.000061 999.999878
vertex -750.000183 -525.000061 1199.999878
endloop
endfacet
facet normal -1.000000 0.000000 0.000000
outer loop
vertex -750.000183 -375.000031 999.999878
vertex -750.000183 -525.000061 1199.999878
vertex -750.000183 -375.000031 1199.999878
endloop
endfacet
facet normal 0.000000 1.000000 0.000000
outer loop
vertex -750.000183 374.999969 999.999878
vertex -900.000183 374.999969 999.999878
vertex -900.000183 374.999969 1199.999878
endloop
endfacet
facet normal 0.000000 1.000000 0.000000
outer loop
vertex -750.000183 374.999969 999.999878
vertex -900.000183 374.999969 1199.999878
vertex -750.000183 374.999969 1199.999878
endloop
endfacet
facet normal 1.000000 0.000000 0.000000
outer loop
vertex 749.999817 375.000031 1000.000122
vertex 749.999817 525.000061 1000.000122
vertex 749.999817 525.000061 1200.000122
endloop
endfacet
facet normal 1.000000 0.000000 0.000000
outer loop
vertex 749.999817 375.000031 1000.000122
vertex 749.999817 525.000061 1200.000122
vertex 749.999817 375.000031 1200.000122
endloop
endfacet
facet normal 1.000000 0.000000 0.000000
outer loop
vertex 749.999817 375.000031 1200.000122
vertex 749.999817 525.000061 1200.000122
vertex 749.999756 525.000061 1400.000122
endloop
endfacet
facet normal 1.000000 0.000000 0.000000
outer loop
vertex 749.999817 375.000031 1200.000122
vertex 749.999756 525.000061 1400.000122
vertex 749.999756 375.000031 1400.000122
endloop
endfacet
facet normal 0.000000 -1.000000 -0.000000
outer loop
vertex -750.000183 -525.000061 1199.999878
vertex 749.999817 -524.999939 1200.000122
vertex 749.999756 -524.999939 1400.000122
endloop
endfacet
facet normal 0.000000 -1.000000 0.000000
outer loop
vertex -750.000183 -525.000061 1199.999878
vertex 749.999756 -524.999939 1400.000122
vertex -750.000244 -525.000061 1399.999878
endloop
endfacet
facet normal 0.000000 -1.000000 0.000000
outer loop
vertex 749.999817 -374.999969 1200.000122
vertex 899.999817 -374.999969 1200.000122
vertex 899.999756 -374.999969 1400.000122
endloop
endfacet
facet normal 0.000000 -1.000000 0.000000
outer loop
vertex 749.999817 -374.999969 1200.000122
vertex 899.999756 -374.999969 1400.000122
vertex 749.999756 -374.999969 1400.000122
endloop
endfacet
facet normal -1.000000 0.000000 -0.000000
outer loop
vertex -900.000183 374.999969 1199.999878
vertex -900.000183 -375.000031 1199.999878
vertex -900.000244 -375.000031 1399.999878
endloop
endfacet
facet normal -1.000000 0.000000 -0.000000
outer loop
vertex -900.000183 374.999969 1199.999878
vertex -900.000244 -375.000031 1399.999878
vertex -900.000244 374.999969 1399.999878
endloop
endfacet
facet normal -0.000000 1.000000 0.000000
outer loop
vertex 749.999817 525.000061 1200.000122
vertex -750.000183 524.999939 1199.999878
vertex -750.000244 524.999939 1399.999878
endloop
endfacet
facet normal -0.000000 1.000000 -0.000000
outer loop
vertex 749.999817 525.000061 1200.000122
vertex -750.000244 524.999939 1399.999878
vertex 749.999756 525.000061 1400.000122
endloop
endfacet
facet normal 1.000000 0.000000 0.000000
outer loop
vertex 749.999817 -524.999939 1200.000122
vertex 749.999817 -374.999969 1200.000122
vertex 749.999756 -374.999969 1400.000122
endloop
endfacet
facet normal 1.000000 0.000000 0.000000
outer loop
vertex 749.999817 -524.999939 1200.000122
vertex 749.999756 -374.999969 1400.000122
vertex 749.999756 -524.999939 1400.000122
endloop
endfacet
facet normal 1.000000 0.000000 0.000000
outer loop
vertex 899.999817 -374.999969 1200.000122
vertex 899.999817 375.000031 1200.000122
vertex 899.999756 375.000031 1400.000122
endloop
endfacet
facet normal 1.000000 0.000000 0.000000
outer loop
vertex 899.999817 -374.999969 1200.000122
vertex 899.999756 375.000031 1400.000122
vertex 899.999756 -374.999969 1400.000122
endloop
endfacet
facet normal 0.000000 -1.000000 0.000000
outer loop
vertex -900.000183 -375.000031 1199.999878
vertex -750.000183 -375.000031 1199.999878
vertex -750.000244 -375.000031 1399.999878
endloop
endfacet
facet normal 0.000000 -1.000000 0.000000
outer loop
vertex -900.000183 -375.000031 1199.999878
vertex -750.000244 -375.000031 1399.999878
vertex -900.000244 -375.000031 1399.999878
endloop
endfacet
facet normal -1.000000 0.000000 -0.000000
outer loop
vertex -750.000183 524.999939 1199.999878
vertex -750.000183 374.999969 1199.999878
vertex -750.000244 374.999969 1399.999878
endloop
endfacet
facet normal -1.000000 0.000000 -0.000000
outer loop
vertex -750.000183 524.999939 1199.999878
vertex -750.000244 374.999969 1399.999878
vertex -750.000244 524.999939 1399.999878
endloop
endfacet
facet normal 0.000000 1.000000 -0.000000
outer loop
vertex 899.999817 375.000031 1200.000122
vertex 749.999817 375.000031 1200.000122
vertex 749.999756 375.000031 1400.000122
endloop
endfacet
facet normal 0.000000 1.000000 0.000000
outer loop
vertex 899.999817 375.000031 1200.000122
vertex 749.999756 375.000031 1400.000122
vertex 899.999756 375.000031 1400.000122
endloop
endfacet
facet normal -1.000000 0.000000 -0.000000
outer loop
vertex -750.000183 -375.000031 1199.999878
vertex -750.000183 -525.000061 1199.999878
vertex -750.000244 -525.000061 1399.999878
endloop
endfacet
facet normal -1.000000 0.000000 -0.000000
outer loop
vertex -750.000183 -375.000031 1199.999878
vertex -750.000244 -525.000061 1399.999878
vertex -750.000244 -375.000031 1399.999878
endloop
endfacet
facet normal 0.000000 1.000000 -0.000000
outer loop
vertex -750.000183 374.999969 1199.999878
vertex -900.000183 374.999969 1199.999878
vertex -900.000244 374.999969 1399.999878
endloop
endfacet
facet normal 0.000000 1.000000 0.000000
outer loop
vertex -750.000183 374.999969 1199.999878
vertex -900.000244 374.999969 1399.999878
vertex -750.000244 374.999969 1399.999878
endloop
endfacet
facet normal 1.000000 0.000000 0.000000
outer loop
vertex 749.999756 375.000031 1400.000122
vertex 749.999756 525.000061 1400.000122
vertex 749.999756 525.000061 1600.000122
endloop
endfacet
facet normal 1.000000 0.000000 0.000000
outer loop
vertex 749.999756 375.000031 1400.000122
vertex 749.999756 525.000061 1600.000122
vertex 749.999756 375.000031 1600.000122
endloop
endfacet
facet normal 0.000000 -1.000000 0.000000
outer loop
vertex -750.000244 -525.000061 1399.999878
vertex 749.999756 -524.999939 1400.000122
vertex 749.999756 -524.999939 1600.000122
endloop
endfacet
facet normal 0.000000 -1.000000 0.000000
outer loop
vertex -750.000244 -525.000061 1399.999878
vertex 749.999756 -524.999939 1600.000122
vertex -750.000244 -525.000061 1599.999878
endloop
endfacet
facet normal 0.000000 -1.000000 0.000000
outer loop
vertex 749.999756 -374.999969 1400.000122
vertex 899.999756 -374.999969 1400.000122
vertex 899.999756 -374.999969 1600.000122
endloop
endfacet
facet normal 0.000000 -1.000000 0.000000
outer loop
vertex 749.999756 -374.999969 1400.000122
vertex 899.999756 -374.999969 1600.000122
vertex 749.999756 -374.999969 1600.000122
endloop
endfacet
facet normal -1.000000 0.000000 0.000000
outer loop
vertex -900.000244 374.999969 1399.999878
vertex -900.000244 -375.000031 1399.999878
vertex -900.000244 -375.000031 1599.999878
endloop
endfacet
facet normal -1.000000 0.000000 0.000000
outer loop
vertex -900.000244 374.999969 1399.999878
vertex -900.000244 -375.000031 1599.999878
vertex -900.000244 374.999969 1599.999878
endloop
endfacet
facet normal -0.000000 1.000000 0.000000
outer loop
vertex 749.999756 525.000061 1400.000122
vertex -750.000244 524.999939 1399.999878
vertex -750.000244 524.999939 1599.999878
endloop
endfacet
facet normal -0.000000 1.000000 0.000000
outer loop
vertex 749.999756 525.000061 1400.000122
vertex -750.000244 524.999939 1599.999878
vertex 749.999756 525.000061 1600.000122
endloop
endfacet
facet normal 1.000000 0.000000 0.000000
outer loop
vertex 749.999756 -524.999939 1400.000122
vertex 749.999756 -374.999969 1400.000122
vertex 749.999756 -374.999969 1600.000122
endloop
endfacet
facet normal 1.000000 0.000000 0.000000
outer loop
vertex 749.999756 -524.999939 1400.000122
vertex 749.999756 -374.999969 1600.000122
vertex 749.999756 -524.999939 1600.000122
endloop
endfacet
facet normal 1.000000 0.000000 0.000000
outer loop
vertex 899.999756 -374.999969 1400.000122
vertex 899.999756 375.000031 1400.000122
vertex 899.999756 375.000031 1600.000122
endloop
endfacet
facet normal 1.000000 0.000000 0.000000
outer loop
vertex 899.999756 -374.999969 1400.000122
vertex 899.999756 375.000031 1600.000122
vertex 899.999756 -374.999969 1600.000122
endloop
endfacet
facet normal 0.000000 -1.000000 0.000000
outer loop
vertex -900.000244 -375.000031 1399.999878
vertex -750.000244 -375.000031 1399.999878
vertex -750.000244 -375.000031 1599.999878
endloop
endfacet
facet normal 0.000000 -1.000000 0.000000
outer loop
vertex -900.000244 -375.000031 1399.999878
vertex -750.000244 -375.000031 1599.999878
vertex -900.000244 -375.000031 1599.999878
endloop
endfacet
facet normal -1.000000 0.000000 0.000000
outer loop
vertex -750.000244 524.999939 1399.999878
vertex -750.000244 374.999969 1399.999878
vertex -750.000244 374.999969 1599.999878
endloop
endfacet
facet normal -1.000000 0.000000 0.000000
outer loop
vertex -750.000244 524.999939 1399.999878
vertex -750.000244 374.999969 1599.999878
vertex -750.000244 524.999939 1599.999878
endloop
endfacet
facet normal 0.000000 1.000000 0.000000
outer loop
vertex 899.999756 375.000031 1400.000122
vertex 749.999756 375.000031 1400.000122
vertex 749.999756 375.000031 1600.000122
endloop
endfacet
facet normal 0.000000 1.000000 0.000000
outer loop
vertex 899.999756 375.000031 1400.000122
vertex 749.999756 375.000031 1600.000122
vertex 899.999756 375.000031 1600.000122
endloop
endfacet
facet normal -1.000000 0.000000 0.000000
outer loop
vertex -750.000244 -375.000031 1399.999878
vertex -750.000244 -525.000061 1399.999878
vertex -750.000244 -525.000061 1599.999878
endloop
endfacet
facet normal -1.000000 0.000000 0.000000
outer loop
vertex -750.000244 -375.000031 1399.999878
vertex -750.000244 -525.000061 1599.999878
vertex -750.000244 -375.000031 1599.999878
endloop
endfacet
facet normal 0.000000 1.000000 0.000000
outer loop
vertex -750.000244 374.999969 1399.999878
vertex -900.000244 374.999969 1399.999878
vertex -900.000244 374.999969 1599.999878
endloop
endfacet
facet normal 0.000000 1.000000 0.000000
outer loop
vertex -750.000244 374.999969 1399.999878
vertex -900.000244 374.999969 1599.999878
vertex -750.000244 374.999969 1599.999878
endloop
endfacet
facet normal 0.000000 1.000000 -0.000000
outer loop
vertex -750.000244 374.999969 1599.999878
vertex -900.000244 374.999969 1599.999878
vertex -900.000305 374.999969 1799.999878
endloop
endfacet
facet normal 0.000000 1.000000 0.000000
outer loop
vertex -750.000244 374.999969 1599.999878
vertex -900.000305 374.999969 1799.999878
vertex -750.000305 374.999969 1799.999878
endloop
endfacet
facet normal 1.000000 0.000000 0.000000
outer loop
vertex 749.999756 375.000031 1600.000122
vertex 749.999756 525.000061 1600.000122
vertex 749.999695 525.000061 1800.000122
endloop
endfacet
facet normal 1.000000 0.000000 0.000000
outer loop
vertex 749.999756 375.000031 1600.000122
vertex 749.999695 525.000061 1800.000122
vertex 749.999695 375.000031 1800.000122
endloop
endfacet
facet normal 0.000000 -1.000000 -0.000000
outer loop
vertex -750.000244 -525.000061 1599.999878
vertex 749.999756 -524.999939 1600.000122
vertex 749.999695 -524.999939 1800.000122
endloop
endfacet
facet normal 0.000000 -1.000000 0.000000
outer loop
vertex -750.000244 -525.000061 1599.999878
vertex 749.999695 -524.999939 1800.000122
vertex -750.000305 -525.000061 1799.999878
endloop
endfacet
facet normal 0.000000 -1.000000 0.000000
outer loop
vertex 749.999756 -374.999969 1600.000122
vertex 899.999756 -374.999969 1600.000122
vertex 899.999695 -374.999969 1800.000122
endloop
endfacet
facet normal 0.000000 -1.000000 0.000000
outer loop
vertex 749.999756 -374.999969 1600.000122
vertex 899.999695 -374.999969 1800.000122
vertex 749.999695 -374.999969 1800.000122
endloop
endfacet
facet normal -1.000000 0.000000 -0.000000
outer loop
vertex -900.000244 374.999969 1599.999878
vertex -900.000244 -375.000031 1599.999878
vertex -900.000305 -375.000031 1799.999878
endloop
endfacet
facet normal -1.000000 0.000000 -0.000000
outer loop
vertex -900.000244 374.999969 1599.999878
vertex -900.000305 -375.000031 1799.999878
vertex -900.000305 374.999969 1799.999878
endloop
endfacet
facet normal -0.000000 1.000000 0.000000
outer loop
vertex 749.999756 525.000061 1600.000122
vertex -750.000244 524.999939 1599.999878
vertex -750.000305 524.999939 1799.999878
endloop
endfacet
facet normal -0.000000 1.000000 -0.000000
outer loop
vertex 749.999756 525.000061 1600.000122
vertex -750.000305 524.999939 1799.999878
vertex 749.999695 525.000061 1800.000122
endloop
endfacet
facet normal 1.000000 0.000000 0.000000
outer loop
vertex 749.999756 -524.999939 1600.000122
vertex 749.999756 -374.999969 1600.000122
vertex 749.999695 -374.999969 1800.000122
endloop
endfacet
facet normal 1.000000 0.000000 0.000000
outer loop
vertex 749.999756 -524.999939 1600.000122
vertex 749.999695 -374.999969 1800.000122
vertex 749.999695 -524.999939 1800.000122
endloop
endfacet
facet normal 1.000000 0.000000 0.000000
outer loop
vertex 899.999756 -374.999969 1600.000122
vertex 899.999756 375.000031 1600.000122
vertex 899.999695 375.000031 1800.000122
endloop
endfacet
facet normal 1.000000 0.000000 0.000000
outer loop
vertex 899.999756 -374.999969 1600.000122
vertex 899.999695 375.000031 1800.000122
vertex 899.999695 -374.999969 1800.000122
endloop
endfacet
facet normal 0.000000 -1.000000 0.000000
outer loop
vertex -900.000244 -375.000031 1599.999878
vertex -750.000244 -375.000031 1599.999878
vertex -750.000305 -375.000031 1799.999878
endloop
endfacet
facet normal 0.000000 -1.000000 0.000000
outer loop
vertex -900.000244 -375.000031 1599.999878
vertex -750.000305 -375.000031 1799.999878
vertex -900.000305 -375.000031 1799.999878
endloop
endfacet
facet normal -1.000000 0.000000 -0.000000
outer loop
vertex -750.000244 524.999939 1599.999878
vertex -750.000244 374.999969 1599.999878
vertex -750.000305 374.999969 1799.999878
endloop
endfacet
facet normal -1.000000 0.000000 -0.000000
outer loop
vertex -750.000244 524.999939 1599.999878
vertex -750.000305 374.999969 1799.999878
vertex -750.000305 524.999939 1799.999878
endloop
endfacet
facet normal 0.000000 1.000000 -0.000000
outer loop
vertex 899.999756 375.000031 1600.000122
vertex 749.999756 375.000031 1600.000122
vertex 749.999695 375.000031 1800.000122
endloop
endfacet
facet normal 0.000000 1.000000 0.000000
outer loop
vertex 899.999756 375.000031 1600.000122
vertex 749.999695 375.000031 1800.000122
vertex 899.999695 375.000031 1800.000122
endloop
endfacet
facet normal -1.000000 0.000000 -0.000000
outer loop
vertex -750.000244 -375.000031 1599.999878
vertex -750.000244 -525.000061 1599.999878
vertex -750.000305 -525.000061 1799.999878
endloop
endfacet
facet normal -1.000000 0.000000 -0.000000
outer loop
vertex -750.000244 -375.000031 1599.999878
vertex -750.000305 -525.000061 1799.999878
vertex -750.000305 -375.000031 1799.999878
endloop
endfacet
facet normal 0.000000 1.000000 0.000000
outer loop
vertex -750.000305 374.999969 1799.999878
vertex -900.000305 374.999969 1799.999878
vertex -900.000305 374.999969 1999.999878
endloop
endfacet
facet normal 0.000000 1.000000 0.000000
outer loop
vertex -750.000305 374.999969 1799.999878
vertex -900.000305 374.999969 1999.999878
vertex -750.000305 374.999969 1999.999878
endloop
endfacet
facet normal 1.000000 0.000000 0.000000
outer loop
vertex 749.999695 375.000031 1800.000122
vertex 749.999695 525.000061 1800.000122
vertex 749.999695 525.000061 2000.000122
endloop
endfacet
facet normal 1.000000 0.000000 0.000000
outer loop
vertex 749.999695 375.000031 1800.000122
vertex 749.999695 525.000061 2000.000122
vertex 749.999695 375.000031 2000.000122
endloop
endfacet
facet normal 0.000000 -1.000000 0.000000
outer loop
vertex -750.000305 -525.000061 1799.999878
vertex 749.999695 -524.999939 1800.000122
vertex 749.999695 -524.999939 2000.000122
endloop
endfacet
facet normal 0.000000 -1.000000 0.000000
outer loop
vertex -750.000305 -525.000061 1799.999878
vertex 749.999695 -524.999939 2000.000122
vertex -750.000305 -525.000061 1999.999878
endloop
endfacet
facet normal 0.000000 -1.000000 0.000000
outer loop
vertex 749.999695 -374.999969 1800.000122
vertex 899.999695 -374.999969 1800.000122
vertex 899.999695 -374.999969 2000.000122
endloop
endfacet
facet normal 0.000000 -1.000000 0.000000
outer loop
vertex 749.999695 -374.999969 1800.000122
vertex 899.999695 -374.999969 2000.000122
vertex 749.999695 -374.999969 2000.000122
endloop
endfacet
facet normal -1.000000 0.000000 0.000000
outer loop
vertex -900.000305 374.999969 1799.999878
vertex -900.000305 -375.000031 1799.999878
vertex -900.000305 -375.000031 1999.999878
endloop
endfacet
facet normal -1.000000 0.000000 0.000000
outer loop
vertex -900.000305 374.999969 1799.999878
vertex -900.000305 -375.000031 1999.999878
vertex -900.000305 374.999969 1999.999878
endloop
endfacet
facet normal -0.000000 1.000000 0.000000
outer loop
vertex 749.999695 525.000061 1800.000122
vertex -750.000305 524.999939 1799.999878
vertex -750.000305 524.999939 1999.999878
endloop
endfacet
facet normal -0.000000 1.000000 0.000000
outer loop
vertex 749.999695 525.000061 1800.000122
vertex -750.000305 524.999939 1999.999878
vertex 749.999695 525.000061 2000.000122
endloop
endfacet
facet normal 1.000000 0.000000 0.000000
outer loop
vertex 749.999695 -524.999939 1800.000122
vertex 749.999695 -374.999969 1800.000122
vertex 749.999695 -374.999969 2000.000122
endloop
endfacet
facet normal 1.000000 0.000000 0.000000
outer loop
vertex 749.999695 -524.999939 1800.000122
vertex 749.999695 -374.999969 2000.000122
vertex 749.999695 -524.999939 2000.000122
endloop
endfacet
facet normal 1.000000 0.000000 0.000000
outer loop
vertex 899.999695 -374.999969 1800.000122
vertex 899.999695 375.000031 1800.000122
vertex 899.999695 375.000031 2000.000122
endloop
endfacet
facet normal 1.000000 0.000000 0.000000
outer loop
vertex 899.999695 -374.999969 1800.000122
vertex 899.999695 375.000031 2000.000122
vertex 899.999695 -374.999969 2000.000122
endloop
endfacet
facet normal 0.000000 -1.000000 0.000000
outer loop
vertex -900.000305 -375.000031 1799.999878
vertex -750.000305 -375.000031 1799.999878
vertex -750.000305 -375.000031 1999.999878
endloop
endfacet
facet normal 0.000000 -1.000000 0.000000
outer loop
vertex -900.000305 -375.000031 1799.999878
vertex -750.000305 -375.000031 1999.999878
vertex -900.000305 -375.000031 1999.999878
endloop
endfacet
facet normal -1.000000 0.000000 0.000000
outer loop
vertex -750.000305 524.999939 1799.999878
vertex -750.000305 374.999969 1799.999878
vertex -750.000305 374.999969 1999.999878
endloop
endfacet
facet normal -1.000000 0.000000 0.000000
outer loop
vertex -750.000305 524.999939 1799.999878
vertex -750.000305 374.999969 1999.999878
vertex -750.000305 524.999939 1999.999878
endloop
endfacet
facet normal 0.000000 1.000000 0.000000
outer loop
vertex 899.999695 375.000031 1800.000122
vertex 749.999695 375.000031 1800.000122
vertex 749.999695 375.000031 2000.000122
endloop
endfacet
facet normal 0.000000 1.000000 0.000000
outer loop
vertex 899.999695 375.000031 1800.000122
vertex 749.999695 375.000031 2000.000122
vertex 899.999695 375.000031 2000.000122
endloop
endfacet
facet normal -1.000000 0.000000 0.000000
outer loop
vertex -750.000305 -375.000031 1799.999878
vertex -750.000305 -525.000061 1799.999878
vertex -750.000305 -525.000061 1999.999878
endloop
endfacet
facet normal -1.000000 0.000000 0.000000
outer loop
vertex -750.000305 -375.000031 1799.999878
vertex -750.000305 -525.000061 1999.999878
vertex -750.000305 -375.000031 1999.999878
endloop
endfacet
endsolid building_028
