solid building_019.001
facet normal -1.000000 0.000000 0.000000
outer loop
vertex -350.000000 702.000000 -0.000114
vertex -350.000000 350.000000 -0.000057
vertex -350.000000 350.000061 299.999939
endloop
endfacet
facet normal -1.000000 0.000000 0.000000
outer loop
vertex -350.000000 702.000000 -0.000114
vertex -350.000000 350.000061 299.999939
vertex -350.000000 702.000061 299.999878
endloop
endfacet
facet normal 0.000000 -1.000000 0.000000
outer loop
vertex -350.000000 -701.000000 0.000114
vertex 350.000000 -701.000000 0.000114
vertex 350.000000 -700.999939 300.000122
endloop
endfacet
facet normal 0.000000 -1.000000 0.000000
outer loop
vertex -350.000000 -701.000000 0.000114
vertex 350.000000 -700.999939 300.000122
vertex -350.000000 -700.999939 300.000122
endloop
endfacet
facet normal 1.000000 0.000000 0.000000
outer loop
vertex 696.000000 -350.000000 0.000057
vertex 696.000000 350.000000 -0.000057
vertex 696.000000 350.000061 299.999939
endloop
endfacet
facet normal 1.000000 -0.000000 0.000000
outer loop
vertex 696.000000 -350.000000 0.000057
vertex 696.000000 350.000061 299.999939
vertex 696.000000 -349.999939 300.000061
endloop
endfacet
facet normal -1.000000 0.000000 0.000000
outer loop
vertex -701.000000 350.000000 -0.000057
vertex -701.000000 -350.000000 0.000057
vertex -701.000000 -349.999939 300.000061
endloop
endfacet
facet normal -1.000000 -0.000000 0.000000
outer loop
vertex -701.000000 350.000000 -0.000057
vertex -701.000000 -349.999939 300.000061
vertex -701.000000 350.000061 299.999939
endloop
endfacet
facet normal 0.000000 0.000000 1.000000
outer loop
vertex -350.000000 -349.999603 2400.000000
vertex -350.000000 -700.999634 2400.000000
vertex 350.000000 -700.999634 2400.000000
endloop
endfacet
facet normal 0.000000 0.000000 1.000000
outer loop
vertex 350.000000 -349.999603 2400.000000
vertex 696.000000 -349.999603 2400.000000
vertex 696.000000 350.000397 2400.000000
endloop
endfacet
facet normal 0.000000 0.000000 1.000000
outer loop
vertex -350.000000 -349.999603 2400.000000
vertex 350.000000 -700.999634 2400.000000
vertex 350.000000 -349.999603 2400.000000
endloop
endfacet
facet normal 0.000000 0.000000 1.000000
outer loop
vertex -701.000000 350.000397 2400.000000
vertex -701.000000 -349.999603 2400.000000
vertex -350.000000 -349.999603 2400.000000
endloop
endfacet
facet normal 0.000000 0.000000 1.000000
outer loop
vertex 350.000000 702.000366 2400.000000
vertex -350.000000 702.000366 2400.000000
vertex -350.000000 350.000397 2400.000000
endloop
endfacet
facet normal 0.000000 0.000000 1.000000
outer loop
vertex -350.000000 350.000397 2400.000000
vertex -701.000000 350.000397 2400.000000
vertex -350.000000 -349.999603 2400.000000
endloop
endfacet
facet normal 0.000000 0.000000 1.000000
outer loop
vertex -350.000000 -349.999603 2400.000000
vertex 350.000000 -349.999603 2400.000000
vertex 696.000000 350.000397 2400.000000
endloop
endfacet
facet normal 0.000000 0.000000 1.000000
outer loop
vertex 350.000000 350.000397 2400.000000
vertex 350.000000 702.000366 2400.000000
vertex -350.000000 350.000397 2400.000000
endloop
endfacet
facet normal 0.000000 0.000000 1.000000
outer loop
vertex -350.000000 -349.999603 2400.000000
vertex 696.000000 350.000397 2400.000000
vertex 350.000000 350.000397 2400.000000
endloop
endfacet
facet normal 0.000000 0.000000 1.000000
outer loop
vertex -350.000000 -349.999603 2400.000000
vertex 350.000000 350.000397 2400.000000
vertex -350.000000 350.000397 2400.000000
endloop
endfacet
facet normal 0.000000 -1.000000 0.000000
outer loop
vertex -701.000000 -350.000000 0.000057
vertex -350.000000 -350.000000 0.000057
vertex -350.000000 -349.999939 300.000061
endloop
endfacet
facet normal 0.000000 -1.000000 0.000000
outer loop
vertex -701.000000 -350.000000 0.000057
vertex -350.000000 -349.999939 300.000061
vertex -701.000000 -349.999939 300.000061
endloop
endfacet
facet normal 1.000000 0.000000 0.000000
outer loop
vertex 350.000000 -701.000000 0.000114
vertex 350.000000 -350.000000 0.000057
vertex 350.000000 -349.999939 300.000061
endloop
endfacet
facet normal 1.000000 0.000000 0.000000
outer loop
vertex 350.000000 -701.000000 0.000114
vertex 350.000000 -349.999939 300.000061
vertex 350.000000 -700.999939 300.000122
endloop
endfacet
facet normal 1.000000 0.000000 0.000000
outer loop
vertex 350.000000 350.000000 -0.000057
vertex 350.000000 702.000000 -0.000114
vertex 350.000000 702.000061 299.999878
endloop
endfacet
facet normal 1.000000 0.000000 0.000000
outer loop
vertex 350.000000 350.000000 -0.000057
vertex 350.000000 702.000061 299.999878
vertex 350.000000 350.000061 299.999939
endloop
endfacet
facet normal 0.000000 1.000000 -0.000000
outer loop
vertex 696.000000 350.000000 -0.000057
vertex 350.000000 350.000000 -0.000057
vertex 350.000000 350.000061 299.999939
endloop
endfacet
facet normal 0.000000 1.000000 -0.000000
outer loop
vertex 696.000000 350.000000 -0.000057
vertex 350.000000 350.000061 299.999939
vertex 696.000000 350.000061 299.999939
endloop
endfacet
facet normal 0.000000 1.000000 -0.000000
outer loop
vertex -350.000000 350.000000 -0.000057
vertex -701.000000 350.000000 -0.000057
vertex -701.000000 350.000061 299.999939
endloop
endfacet
facet normal 0.000000 1.000000 -0.000000
outer loop
vertex -350.000000 350.000000 -0.000057
vertex -701.000000 350.000061 299.999939
vertex -350.000000 350.000061 299.999939
endloop
endfacet
facet normal -1.000000 0.000000 0.000000
outer loop
vertex -350.000000 -350.000000 0.000057
vertex -350.000000 -701.000000 0.000114
vertex -350.000000 -700.999939 300.000122
endloop
endfacet
facet normal -1.000000 0.000000 0.000000
outer loop
vertex -350.000000 -350.000000 0.000057
vertex -350.000000 -700.999939 300.000122
vertex -350.000000 -349.999939 300.000061
endloop
endfacet
facet normal 0.000000 -1.000000 0.000000
outer loop
vertex 350.000000 -350.000000 0.000057
vertex 696.000000 -350.000000 0.000057
vertex 696.000000 -349.999939 300.000061
endloop
endfacet
facet normal 0.000000 -1.000000 0.000000
outer loop
vertex 350.000000 -350.000000 0.000057
vertex 696.000000 -349.999939 300.000061
vertex 350.000000 -349.999939 300.000061
endloop
endfacet
facet normal 0.000000 1.000000 0.000000
outer loop
vertex 350.000000 702.000000 -0.000114
vertex -350.000000 702.000000 -0.000114
vertex -350.000000 702.000061 299.999878
endloop
endfacet
facet normal 0.000000 1.000000 -0.000000
outer loop
vertex 350.000000 702.000000 -0.000114
vertex -350.000000 702.000061 299.999878
vertex 350.000000 702.000061 299.999878
endloop
endfacet
facet normal 0.000000 1.000000 0.000000
outer loop
vertex 696.000000 350.000061 299.999939
vertex 350.000000 350.000061 299.999939
vertex 350.000000 350.000092 599.999939
endloop
endfacet
facet normal 0.000000 1.000000 -0.000000
outer loop
vertex 696.000000 350.000061 299.999939
vertex 350.000000 350.000092 599.999939
vertex 696.000000 350.000092 599.999939
endloop
endfacet
facet normal -1.000000 0.000000 0.000000
outer loop
vertex -350.000000 -349.999939 300.000061
vertex -350.000000 -700.999939 300.000122
vertex -350.000000 -700.999878 600.000122
endloop
endfacet
facet normal -1.000000 0.000000 0.000000
outer loop
vertex -350.000000 -349.999939 300.000061
vertex -350.000000 -700.999878 600.000122
vertex -350.000000 -349.999908 600.000061
endloop
endfacet
facet normal 0.000000 1.000000 0.000000
outer loop
vertex -350.000000 350.000061 299.999939
vertex -701.000000 350.000061 299.999939
vertex -701.000000 350.000092 599.999939
endloop
endfacet
facet normal 0.000000 1.000000 -0.000000
outer loop
vertex -350.000000 350.000061 299.999939
vertex -701.000000 350.000092 599.999939
vertex -350.000000 350.000092 599.999939
endloop
endfacet
facet normal 0.000000 -1.000000 0.000000
outer loop
vertex 350.000000 -349.999939 300.000061
vertex 696.000000 -349.999939 300.000061
vertex 696.000000 -349.999908 600.000061
endloop
endfacet
facet normal 0.000000 -1.000000 0.000000
outer loop
vertex 350.000000 -349.999939 300.000061
vertex 696.000000 -349.999908 600.000061
vertex 350.000000 -349.999908 600.000061
endloop
endfacet
facet normal 1.000000 0.000000 0.000000
outer loop
vertex 350.000000 350.000061 299.999939
vertex 350.000000 702.000061 299.999878
vertex 350.000000 702.000122 599.999878
endloop
endfacet
facet normal 1.000000 0.000000 0.000000
outer loop
vertex 350.000000 350.000061 299.999939
vertex 350.000000 702.000122 599.999878
vertex 350.000000 350.000092 599.999939
endloop
endfacet
facet normal -1.000000 0.000000 0.000000
outer loop
vertex -701.000000 350.000061 299.999939
vertex -701.000000 -349.999939 300.000061
vertex -701.000000 -349.999908 600.000061
endloop
endfacet
facet normal -1.000000 -0.000000 0.000000
outer loop
vertex -701.000000 350.000061 299.999939
vertex -701.000000 -349.999908 600.000061
vertex -701.000000 350.000092 599.999939
endloop
endfacet
facet normal 0.000000 1.000000 -0.000001
outer loop
vertex 350.000000 702.000061 299.999878
vertex -350.000000 702.000061 299.999878
vertex -350.000000 702.000122 599.999878
endloop
endfacet
facet normal 0.000000 1.000000 0.000000
outer loop
vertex 350.000000 702.000061 299.999878
vertex -350.000000 702.000122 599.999878
vertex 350.000000 702.000122 599.999878
endloop
endfacet
facet normal 1.000000 0.000000 0.000000
outer loop
vertex 350.000000 -700.999939 300.000122
vertex 350.000000 -349.999939 300.000061
vertex 350.000000 -349.999908 600.000061
endloop
endfacet
facet normal 1.000000 0.000000 0.000000
outer loop
vertex 350.000000 -700.999939 300.000122
vertex 350.000000 -349.999908 600.000061
vertex 350.000000 -700.999878 600.000122
endloop
endfacet
facet normal 1.000000 0.000000 0.000000
outer loop
vertex 696.000000 -349.999939 300.000061
vertex 696.000000 350.000061 299.999939
vertex 696.000000 350.000092 599.999939
endloop
endfacet
facet normal 1.000000 -0.000000 0.000000
outer loop
vertex 696.000000 -349.999939 300.000061
vertex 696.000000 350.000092 599.999939
vertex 696.000000 -349.999908 600.000061
endloop
endfacet
facet normal 0.000000 -1.000000 0.000000
outer loop
vertex -701.000000 -349.999939 300.000061
vertex -350.000000 -349.999939 300.000061
vertex -350.000000 -349.999908 600.000061
endloop
endfacet
facet normal 0.000000 -1.000000 0.000000
outer loop
vertex -701.000000 -349.999939 300.000061
vertex -350.000000 -349.999908 600.000061
vertex -701.000000 -349.999908 600.000061
endloop
endfacet
facet normal 0.000000 -1.000000 0.000001
outer loop
vertex -350.000000 -700.999939 300.000122
vertex 350.000000 -700.999939 300.000122
vertex 350.000000 -700.999878 600.000122
endloop
endfacet
facet normal 0.000000 -1.000000 0.000000
outer loop
vertex -350.000000 -700.999939 300.000122
vertex 350.000000 -700.999878 600.000122
vertex -350.000000 -700.999878 600.000122
endloop
endfacet
facet normal -1.000000 0.000000 0.000000
outer loop
vertex -350.000000 702.000061 299.999878
vertex -350.000000 350.000061 299.999939
vertex -350.000000 350.000092 599.999939
endloop
endfacet
facet normal -1.000000 0.000000 0.000000
outer loop
vertex -350.000000 702.000061 299.999878
vertex -350.000000 350.000092 599.999939
vertex -350.000000 702.000122 599.999878
endloop
endfacet
facet normal -1.000000 0.000000 0.000000
outer loop
vertex -350.000000 702.000122 599.999878
vertex -350.000000 350.000092 599.999939
vertex -350.000000 350.000153 899.999939
endloop
endfacet
facet normal -1.000000 0.000000 0.000000
outer loop
vertex -350.000000 702.000122 599.999878
vertex -350.000000 350.000153 899.999939
vertex -350.000000 702.000122 899.999878
endloop
endfacet
facet normal 0.000000 1.000000 -0.000000
outer loop
vertex 696.000000 350.000092 599.999939
vertex 350.000000 350.000092 599.999939
vertex 350.000000 350.000153 899.999939
endloop
endfacet
facet normal 0.000000 1.000000 -0.000000
outer loop
vertex 696.000000 350.000092 599.999939
vertex 350.000000 350.000153 899.999939
vertex 696.000000 350.000153 899.999939
endloop
endfacet
facet normal 1.000000 0.000000 0.000000
outer loop
vertex 350.000000 -700.999878 600.000122
vertex 350.000000 -349.999908 600.000061
vertex 350.000000 -349.999847 900.000061
endloop
endfacet
facet normal 1.000000 0.000000 0.000000
outer loop
vertex 350.000000 -700.999878 600.000122
vertex 350.000000 -349.999847 900.000061
vertex 350.000000 -700.999878 900.000122
endloop
endfacet
facet normal 0.000000 1.000000 -0.000000
outer loop
vertex -350.000000 350.000092 599.999939
vertex -701.000000 350.000092 599.999939
vertex -701.000000 350.000153 899.999939
endloop
endfacet
facet normal 0.000000 1.000000 -0.000000
outer loop
vertex -350.000000 350.000092 599.999939
vertex -701.000000 350.000153 899.999939
vertex -350.000000 350.000153 899.999939
endloop
endfacet
facet normal 1.000000 0.000000 0.000000
outer loop
vertex 350.000000 350.000092 599.999939
vertex 350.000000 702.000122 599.999878
vertex 350.000000 702.000122 899.999878
endloop
endfacet
facet normal 1.000000 0.000000 0.000000
outer loop
vertex 350.000000 350.000092 599.999939
vertex 350.000000 702.000122 899.999878
vertex 350.000000 350.000153 899.999939
endloop
endfacet
facet normal 0.000000 -1.000000 0.000000
outer loop
vertex 350.000000 -349.999908 600.000061
vertex 696.000000 -349.999908 600.000061
vertex 696.000000 -349.999847 900.000061
endloop
endfacet
facet normal 0.000000 -1.000000 0.000000
outer loop
vertex 350.000000 -349.999908 600.000061
vertex 696.000000 -349.999847 900.000061
vertex 350.000000 -349.999847 900.000061
endloop
endfacet
facet normal -1.000000 0.000000 0.000000
outer loop
vertex -701.000000 350.000092 599.999939
vertex -701.000000 -349.999908 600.000061
vertex -701.000000 -349.999847 900.000061
endloop
endfacet
facet normal -1.000000 -0.000000 0.000000
outer loop
vertex -701.000000 350.000092 599.999939
vertex -701.000000 -349.999847 900.000061
vertex -701.000000 350.000153 899.999939
endloop
endfacet
facet normal -1.000000 0.000000 0.000000
outer loop
vertex -350.000000 -349.999908 600.000061
vertex -350.000000 -700.999878 600.000122
vertex -350.000000 -700.999878 900.000122
endloop
endfacet
facet normal -1.000000 0.000000 0.000000
outer loop
vertex -350.000000 -349.999908 600.000061
vertex -350.000000 -700.999878 900.000122
vertex -350.000000 -349.999847 900.000061
endloop
endfacet
facet normal 0.000000 1.000000 0.000000
outer loop
vertex 350.000000 702.000122 599.999878
vertex -350.000000 702.000122 599.999878
vertex -350.000000 702.000122 899.999878
endloop
endfacet
facet normal 0.000000 1.000000 0.000000
outer loop
vertex 350.000000 702.000122 599.999878
vertex -350.000000 702.000122 899.999878
vertex 350.000000 702.000122 899.999878
endloop
endfacet
facet normal 1.000000 0.000000 0.000000
outer loop
vertex 696.000000 -349.999908 600.000061
vertex 696.000000 350.000092 599.999939
vertex 696.000000 350.000153 899.999939
endloop
endfacet
facet normal 1.000000 -0.000000 0.000000
outer loop
vertex 696.000000 -349.999908 600.000061
vertex 696.000000 350.000153 899.999939
vertex 696.000000 -349.999847 900.000061
endloop
endfacet
facet normal 0.000000 -1.000000 0.000000
outer loop
vertex -701.000000 -349.999908 600.000061
vertex -350.000000 -349.999908 600.000061
vertex -350.000000 -349.999847 900.000061
endloop
endfacet
facet normal 0.000000 -1.000000 0.000000
outer loop
vertex -701.000000 -349.999908 600.000061
vertex -350.000000 -349.999847 900.000061
vertex -701.000000 -349.999847 900.000061
endloop
endfacet
facet normal 0.000000 -1.000000 0.000000
outer loop
vertex -350.000000 -700.999878 600.000122
vertex 350.000000 -700.999878 600.000122
vertex 350.000000 -700.999878 900.000122
endloop
endfacet
facet normal 0.000000 -1.000000 0.000000
outer loop
vertex -350.000000 -700.999878 600.000122
vertex 350.000000 -700.999878 900.000122
vertex -350.000000 -700.999878 900.000122
endloop
endfacet
facet normal 0.000000 -1.000000 0.000000
outer loop
vertex -350.000000 -700.999878 900.000122
vertex 350.000000 -700.999878 900.000122
vertex 350.000000 -700.999817 1200.000122
endloop
endfacet
facet normal 0.000000 -1.000000 0.000000
outer loop
vertex -350.000000 -700.999878 900.000122
vertex 350.000000 -700.999817 1200.000122
vertex -350.000000 -700.999817 1200.000122
endloop
endfacet
facet normal -1.000000 0.000000 0.000000
outer loop
vertex -350.000000 702.000122 899.999878
vertex -350.000000 350.000153 899.999939
vertex -350.000000 350.000183 1200.000000
endloop
endfacet
facet normal -1.000000 -0.000000 0.000000
outer loop
vertex -350.000000 702.000122 899.999878
vertex -350.000000 350.000183 1200.000000
vertex -350.000000 702.000183 1199.999878
endloop
endfacet
facet normal 0.000000 1.000000 -0.000000
outer loop
vertex 696.000000 350.000153 899.999939
vertex 350.000000 350.000153 899.999939
vertex 350.000000 350.000183 1200.000000
endloop
endfacet
facet normal 0.000000 1.000000 0.000000
outer loop
vertex 696.000000 350.000153 899.999939
vertex 350.000000 350.000183 1200.000000
vertex 696.000000 350.000183 1200.000000
endloop
endfacet
facet normal 1.000000 0.000000 0.000000
outer loop
vertex 350.000000 -700.999878 900.000122
vertex 350.000000 -349.999847 900.000061
vertex 350.000000 -349.999817 1200.000000
endloop
endfacet
facet normal 1.000000 -0.000000 0.000000
outer loop
vertex 350.000000 -700.999878 900.000122
vertex 350.000000 -349.999817 1200.000000
vertex 350.000000 -700.999817 1200.000122
endloop
endfacet
facet normal 0.000000 1.000000 -0.000000
outer loop
vertex -350.000000 350.000153 899.999939
vertex -701.000000 350.000153 899.999939
vertex -701.000000 350.000183 1200.000000
endloop
endfacet
facet normal 0.000000 1.000000 0.000000
outer loop
vertex -350.000000 350.000153 899.999939
vertex -701.000000 350.000183 1200.000000
vertex -350.000000 350.000183 1200.000000
endloop
endfacet
facet normal 1.000000 0.000000 0.000000
outer loop
vertex 350.000000 350.000153 899.999939
vertex 350.000000 702.000122 899.999878
vertex 350.000000 702.000183 1199.999878
endloop
endfacet
facet normal 1.000000 0.000000 0.000000
outer loop
vertex 350.000000 350.000153 899.999939
vertex 350.000000 702.000183 1199.999878
vertex 350.000000 350.000183 1200.000000
endloop
endfacet
facet normal 0.000000 -1.000000 0.000000
outer loop
vertex 350.000000 -349.999847 900.000061
vertex 696.000000 -349.999847 900.000061
vertex 696.000000 -349.999817 1200.000000
endloop
endfacet
facet normal 0.000000 -1.000000 0.000000
outer loop
vertex 350.000000 -349.999847 900.000061
vertex 696.000000 -349.999817 1200.000000
vertex 350.000000 -349.999817 1200.000000
endloop
endfacet
facet normal -1.000000 -0.000000 0.000000
outer loop
vertex -701.000000 350.000153 899.999939
vertex -701.000000 -349.999847 900.000061
vertex -701.000000 -349.999817 1200.000000
endloop
endfacet
facet normal -1.000000 0.000000 0.000000
outer loop
vertex -701.000000 350.000153 899.999939
vertex -701.000000 -349.999817 1200.000000
vertex -701.000000 350.000183 1200.000000
endloop
endfacet
facet normal -1.000000 0.000000 0.000000
outer loop
vertex -350.000000 -349.999847 900.000061
vertex -350.000000 -700.999878 900.000122
vertex -350.000000 -700.999817 1200.000122
endloop
endfacet
facet normal -1.000000 0.000000 0.000000
outer loop
vertex -350.000000 -349.999847 900.000061
vertex -350.000000 -700.999817 1200.000122
vertex -350.000000 -349.999817 1200.000000
endloop
endfacet
facet normal 0.000000 1.000000 0.000000
outer loop
vertex 350.000000 702.000122 899.999878
vertex -350.000000 702.000122 899.999878
vertex -350.000000 702.000183 1199.999878
endloop
endfacet
facet normal 0.000000 1.000000 -0.000000
outer loop
vertex 350.000000 702.000122 899.999878
vertex -350.000000 702.000183 1199.999878
vertex 350.000000 702.000183 1199.999878
endloop
endfacet
facet normal 1.000000 -0.000000 0.000000
outer loop
vertex 696.000000 -349.999847 900.000061
vertex 696.000000 350.000153 899.999939
vertex 696.000000 350.000183 1200.000000
endloop
endfacet
facet normal 1.000000 0.000000 0.000000
outer loop
vertex 696.000000 -349.999847 900.000061
vertex 696.000000 350.000183 1200.000000
vertex 696.000000 -349.999817 1200.000000
endloop
endfacet
facet normal 0.000000 -1.000000 0.000000
outer loop
vertex -701.000000 -349.999847 900.000061
vertex -350.000000 -349.999847 900.000061
vertex -350.000000 -349.999817 1200.000000
endloop
endfacet
facet normal 0.000000 -1.000000 0.000000
outer loop
vertex -701.000000 -349.999847 900.000061
vertex -350.000000 -349.999817 1200.000000
vertex -701.000000 -349.999817 1200.000000
endloop
endfacet
facet normal 0.000000 -1.000000 0.000000
outer loop
vertex -701.000000 -349.999817 1200.000000
vertex -350.000000 -349.999817 1200.000000
vertex -350.000000 -349.999756 1500.000000
endloop
endfacet
facet normal 0.000000 -1.000000 0.000000
outer loop
vertex -701.000000 -349.999817 1200.000000
vertex -350.000000 -349.999756 1500.000000
vertex -701.000000 -349.999756 1500.000000
endloop
endfacet
facet normal 0.000000 -1.000000 0.000000
outer loop
vertex -350.000000 -700.999817 1200.000122
vertex 350.000000 -700.999817 1200.000122
vertex 350.000000 -700.999756 1500.000122
endloop
endfacet
facet normal 0.000000 -1.000000 0.000000
outer loop
vertex -350.000000 -700.999817 1200.000122
vertex 350.000000 -700.999756 1500.000122
vertex -350.000000 -700.999756 1500.000122
endloop
endfacet
facet normal -1.000000 0.000000 0.000000
outer loop
vertex -350.000000 702.000183 1199.999878
vertex -350.000000 350.000183 1200.000000
vertex -350.000000 350.000244 1500.000000
endloop
endfacet
facet normal -1.000000 -0.000000 0.000000
outer loop
vertex -350.000000 702.000183 1199.999878
vertex -350.000000 350.000244 1500.000000
vertex -350.000000 702.000244 1499.999878
endloop
endfacet
facet normal 0.000000 1.000000 -0.000000
outer loop
vertex 696.000000 350.000183 1200.000000
vertex 350.000000 350.000183 1200.000000
vertex 350.000000 350.000244 1500.000000
endloop
endfacet
facet normal 0.000000 1.000000 -0.000000
outer loop
vertex 696.000000 350.000183 1200.000000
vertex 350.000000 350.000244 1500.000000
vertex 696.000000 350.000244 1500.000000
endloop
endfacet
facet normal 1.000000 0.000000 0.000000
outer loop
vertex 350.000000 -700.999817 1200.000122
vertex 350.000000 -349.999817 1200.000000
vertex 350.000000 -349.999756 1500.000000
endloop
endfacet
facet normal 1.000000 -0.000000 0.000000
outer loop
vertex 350.000000 -700.999817 1200.000122
vertex 350.000000 -349.999756 1500.000000
vertex 350.000000 -700.999756 1500.000122
endloop
endfacet
facet normal 0.000000 1.000000 -0.000000
outer loop
vertex -350.000000 350.000183 1200.000000
vertex -701.000000 350.000183 1200.000000
vertex -701.000000 350.000244 1500.000000
endloop
endfacet
facet normal 0.000000 1.000000 -0.000000
outer loop
vertex -350.000000 350.000183 1200.000000
vertex -701.000000 350.000244 1500.000000
vertex -350.000000 350.000244 1500.000000
endloop
endfacet
facet normal 1.000000 0.000000 0.000000
outer loop
vertex 350.000000 350.000183 1200.000000
vertex 350.000000 702.000183 1199.999878
vertex 350.000000 702.000244 1499.999878
endloop
endfacet
facet normal 1.000000 -0.000000 0.000000
outer loop
vertex 350.000000 350.000183 1200.000000
vertex 350.000000 702.000244 1499.999878
vertex 350.000000 350.000244 1500.000000
endloop
endfacet
facet normal 0.000000 -1.000000 0.000000
outer loop
vertex 350.000000 -349.999817 1200.000000
vertex 696.000000 -349.999817 1200.000000
vertex 696.000000 -349.999756 1500.000000
endloop
endfacet
facet normal 0.000000 -1.000000 0.000000
outer loop
vertex 350.000000 -349.999817 1200.000000
vertex 696.000000 -349.999756 1500.000000
vertex 350.000000 -349.999756 1500.000000
endloop
endfacet
facet normal -1.000000 0.000000 0.000000
outer loop
vertex -701.000000 350.000183 1200.000000
vertex -701.000000 -349.999817 1200.000000
vertex -701.000000 -349.999756 1500.000000
endloop
endfacet
facet normal -1.000000 0.000000 0.000000
outer loop
vertex -701.000000 350.000183 1200.000000
vertex -701.000000 -349.999756 1500.000000
vertex -701.000000 350.000244 1500.000000
endloop
endfacet
facet normal -1.000000 0.000000 0.000000
outer loop
vertex -350.000000 -349.999817 1200.000000
vertex -350.000000 -700.999817 1200.000122
vertex -350.000000 -700.999756 1500.000122
endloop
endfacet
facet normal -1.000000 -0.000000 0.000000
outer loop
vertex -350.000000 -349.999817 1200.000000
vertex -350.000000 -700.999756 1500.000122
vertex -350.000000 -349.999756 1500.000000
endloop
endfacet
facet normal 0.000000 1.000000 -0.000000
outer loop
vertex 350.000000 702.000183 1199.999878
vertex -350.000000 702.000183 1199.999878
vertex -350.000000 702.000244 1499.999878
endloop
endfacet
facet normal 0.000000 1.000000 0.000000
outer loop
vertex 350.000000 702.000183 1199.999878
vertex -350.000000 702.000244 1499.999878
vertex 350.000000 702.000244 1499.999878
endloop
endfacet
facet normal 1.000000 0.000000 0.000000
outer loop
vertex 696.000000 -349.999817 1200.000000
vertex 696.000000 350.000183 1200.000000
vertex 696.000000 350.000244 1500.000000
endloop
endfacet
facet normal 1.000000 0.000000 0.000000
outer loop
vertex 696.000000 -349.999817 1200.000000
vertex 696.000000 350.000244 1500.000000
vertex 696.000000 -349.999756 1500.000000
endloop
endfacet
facet normal 1.000000 0.000000 0.000000
outer loop
vertex 696.000000 -349.999756 1500.000000
vertex 696.000000 350.000244 1500.000000
vertex 696.000000 350.000305 1800.000000
endloop
endfacet
facet normal 1.000000 0.000000 0.000000
outer loop
vertex 696.000000 -349.999756 1500.000000
vertex 696.000000 350.000305 1800.000000
vertex 696.000000 -349.999695 1800.000000
endloop
endfacet
facet normal 0.000000 -1.000000 0.000000
outer loop
vertex -701.000000 -349.999756 1500.000000
vertex -350.000000 -349.999756 1500.000000
vertex -350.000000 -349.999695 1800.000000
endloop
endfacet
facet normal 0.000000 -1.000000 0.000000
outer loop
vertex -701.000000 -349.999756 1500.000000
vertex -350.000000 -349.999695 1800.000000
vertex -701.000000 -349.999695 1800.000000
endloop
endfacet
facet normal 0.000000 -1.000000 0.000000
outer loop
vertex -350.000000 -700.999756 1500.000122
vertex 350.000000 -700.999756 1500.000122
vertex 350.000000 -700.999695 1800.000122
endloop
endfacet
facet normal 0.000000 -1.000000 0.000001
outer loop
vertex -350.000000 -700.999756 1500.000122
vertex 350.000000 -700.999695 1800.000122
vertex -350.000000 -700.999695 1800.000122
endloop
endfacet
facet normal -1.000000 0.000000 0.000000
outer loop
vertex -350.000000 702.000244 1499.999878
vertex -350.000000 350.000244 1500.000000
vertex -350.000000 350.000305 1800.000000
endloop
endfacet
facet normal -1.000000 -0.000000 0.000000
outer loop
vertex -350.000000 702.000244 1499.999878
vertex -350.000000 350.000305 1800.000000
vertex -350.000000 702.000305 1799.999878
endloop
endfacet
facet normal 0.000000 1.000000 -0.000000
outer loop
vertex 696.000000 350.000244 1500.000000
vertex 350.000000 350.000244 1500.000000
vertex 350.000000 350.000305 1800.000000
endloop
endfacet
facet normal 0.000000 1.000000 -0.000000
outer loop
vertex 696.000000 350.000244 1500.000000
vertex 350.000000 350.000305 1800.000000
vertex 696.000000 350.000305 1800.000000
endloop
endfacet
facet normal 1.000000 0.000000 0.000000
outer loop
vertex 350.000000 -700.999756 1500.000122
vertex 350.000000 -349.999756 1500.000000
vertex 350.000000 -349.999695 1800.000000
endloop
endfacet
facet normal 1.000000 -0.000000 0.000000
outer loop
vertex 350.000000 -700.999756 1500.000122
vertex 350.000000 -349.999695 1800.000000
vertex 350.000000 -700.999695 1800.000122
endloop
endfacet
facet normal 0.000000 1.000000 -0.000000
outer loop
vertex -350.000000 350.000244 1500.000000
vertex -701.000000 350.000244 1500.000000
vertex -701.000000 350.000305 1800.000000
endloop
endfacet
facet normal 0.000000 1.000000 -0.000000
outer loop
vertex -350.000000 350.000244 1500.000000
vertex -701.000000 350.000305 1800.000000
vertex -350.000000 350.000305 1800.000000
endloop
endfacet
facet normal 1.000000 0.000000 0.000000
outer loop
vertex 350.000000 350.000244 1500.000000
vertex 350.000000 702.000244 1499.999878
vertex 350.000000 702.000305 1799.999878
endloop
endfacet
facet normal 1.000000 -0.000000 0.000000
outer loop
vertex 350.000000 350.000244 1500.000000
vertex 350.000000 702.000305 1799.999878
vertex 350.000000 350.000305 1800.000000
endloop
endfacet
facet normal 0.000000 -1.000000 0.000000
outer loop
vertex 350.000000 -349.999756 1500.000000
vertex 696.000000 -349.999756 1500.000000
vertex 696.000000 -349.999695 1800.000000
endloop
endfacet
facet normal 0.000000 -1.000000 0.000000
outer loop
vertex 350.000000 -349.999756 1500.000000
vertex 696.000000 -349.999695 1800.000000
vertex 350.000000 -349.999695 1800.000000
endloop
endfacet
facet normal -1.000000 0.000000 0.000000
outer loop
vertex -701.000000 350.000244 1500.000000
vertex -701.000000 -349.999756 1500.000000
vertex -701.000000 -349.999695 1800.000000
endloop
endfacet
facet normal -1.000000 0.000000 0.000000
outer loop
vertex -701.000000 350.000244 1500.000000
vertex -701.000000 -349.999695 1800.000000
vertex -701.000000 350.000305 1800.000000
endloop
endfacet
facet normal -1.000000 0.000000 0.000000
outer loop
vertex -350.000000 -349.999756 1500.000000
vertex -350.000000 -700.999756 1500.000122
vertex -350.000000 -700.999695 1800.000122
endloop
endfacet
facet normal -1.000000 -0.000000 0.000000
outer loop
vertex -350.000000 -349.999756 1500.000000
vertex -350.000000 -700.999695 1800.000122
vertex -350.000000 -349.999695 1800.000000
endloop
endfacet
facet normal 0.000000 1.000000 0.000000
outer loop
vertex 350.000000 702.000244 1499.999878
vertex -350.000000 702.000244 1499.999878
vertex -350.000000 702.000305 1799.999878
endloop
endfacet
facet normal 0.000000 1.000000 -0.000001
outer loop
vertex 350.000000 702.000244 1499.999878
vertex -350.000000 702.000305 1799.999878
vertex 350.000000 702.000305 1799.999878
endloop
endfacet
facet normal 1.000000 0.000000 0.000000
outer loop
vertex 696.000000 -349.999695 1800.000000
vertex 696.000000 350.000305 1800.000000
vertex 696.000000 350.000336 2100.000000
endloop
endfacet
facet normal 1.000000 0.000000 0.000000
outer loop
vertex 696.000000 -349.999695 1800.000000
vertex 696.000000 350.000336 2100.000000
vertex 696.000000 -349.999664 2100.000000
endloop
endfacet
facet normal 0.000000 -1.000000 0.000000
outer loop
vertex -701.000000 -349.999695 1800.000000
vertex -350.000000 -349.999695 1800.000000
vertex -350.000000 -349.999664 2100.000000
endloop
endfacet
facet normal 0.000000 -1.000000 0.000000
outer loop
vertex -701.000000 -349.999695 1800.000000
vertex -350.000000 -349.999664 2100.000000
vertex -701.000000 -349.999664 2100.000000
endloop
endfacet
facet normal 0.000000 -1.000000 0.000000
outer loop
vertex -350.000000 -700.999695 1800.000122
vertex 350.000000 -700.999695 1800.000122
vertex 350.000000 -700.999634 2100.000000
endloop
endfacet
facet normal 0.000000 -1.000000 0.000000
outer loop
vertex -350.000000 -700.999695 1800.000122
vertex 350.000000 -700.999634 2100.000000
vertex -350.000000 -700.999634 2100.000000
endloop
endfacet
facet normal -1.000000 0.000000 0.000000
outer loop
vertex -350.000000 702.000305 1799.999878
vertex -350.000000 350.000305 1800.000000
vertex -350.000000 350.000336 2100.000000
endloop
endfacet
facet normal -1.000000 0.000000 0.000000
outer loop
vertex -350.000000 702.000305 1799.999878
vertex -350.000000 350.000336 2100.000000
vertex -350.000000 702.000366 2100.000000
endloop
endfacet
facet normal 0.000000 1.000000 0.000000
outer loop
vertex 696.000000 350.000305 1800.000000
vertex 350.000000 350.000305 1800.000000
vertex 350.000000 350.000336 2100.000000
endloop
endfacet
facet normal 0.000000 1.000000 -0.000000
outer loop
vertex 696.000000 350.000305 1800.000000
vertex 350.000000 350.000336 2100.000000
vertex 696.000000 350.000336 2100.000000
endloop
endfacet
facet normal 1.000000 0.000000 0.000000
outer loop
vertex 350.000000 -700.999695 1800.000122
vertex 350.000000 -349.999695 1800.000000
vertex 350.000000 -349.999664 2100.000000
endloop
endfacet
facet normal 1.000000 0.000000 0.000000
outer loop
vertex 350.000000 -700.999695 1800.000122
vertex 350.000000 -349.999664 2100.000000
vertex 350.000000 -700.999634 2100.000000
endloop
endfacet
facet normal 0.000000 1.000000 0.000000
outer loop
vertex -350.000000 350.000305 1800.000000
vertex -701.000000 350.000305 1800.000000
vertex -701.000000 350.000336 2100.000000
endloop
endfacet
facet normal 0.000000 1.000000 -0.000000
outer loop
vertex -350.000000 350.000305 1800.000000
vertex -701.000000 350.000336 2100.000000
vertex -350.000000 350.000336 2100.000000
endloop
endfacet
facet normal 1.000000 0.000000 0.000000
outer loop
vertex 350.000000 350.000305 1800.000000
vertex 350.000000 702.000305 1799.999878
vertex 350.000000 702.000366 2100.000000
endloop
endfacet
facet normal 1.000000 0.000000 0.000000
outer loop
vertex 350.000000 350.000305 1800.000000
vertex 350.000000 702.000366 2100.000000
vertex 350.000000 350.000336 2100.000000
endloop
endfacet
facet normal 0.000000 -1.000000 0.000000
outer loop
vertex 350.000000 -349.999695 1800.000000
vertex 696.000000 -349.999695 1800.000000
vertex 696.000000 -349.999664 2100.000000
endloop
endfacet
facet normal 0.000000 -1.000000 0.000000
outer loop
vertex 350.000000 -349.999695 1800.000000
vertex 696.000000 -349.999664 2100.000000
vertex 350.000000 -349.999664 2100.000000
endloop
endfacet
facet normal -1.000000 0.000000 0.000000
outer loop
vertex -701.000000 350.000305 1800.000000
vertex -701.000000 -349.999695 1800.000000
vertex -701.000000 -349.999664 2100.000000
endloop
endfacet
facet normal -1.000000 0.000000 0.000000
outer loop
vertex -701.000000 350.000305 1800.000000
vertex -701.000000 -349.999664 2100.000000
vertex -701.000000 350.000336 2100.000000
endloop
endfacet
facet normal -1.000000 0.000000 0.000000
outer loop
vertex -350.000000 -349.999695 1800.000000
vertex -350.000000 -700.999695 1800.000122
vertex -350.000000 -700.999634 2100.000000
endloop
endfacet
facet normal -1.000000 0.000000 0.000000
outer loop
vertex -350.000000 -349.999695 1800.000000
vertex -350.000000 -700.999634 2100.000000
vertex -350.000000 -349.999664 2100.000000
endloop
endfacet
facet normal 0.000000 1.000000 -0.000000
outer loop
vertex 350.000000 702.000305 1799.999878
vertex -350.000000 702.000305 1799.999878
vertex -350.000000 702.000366 2100.000000
endloop
endfacet
facet normal 0.000000 1.000000 0.000000
outer loop
vertex 350.000000 702.000305 1799.999878
vertex -350.000000 702.000366 2100.000000
vertex 350.000000 702.000366 2100.000000
endloop
endfacet
facet normal 0.000000 1.000000 0.000000
outer loop
vertex 350.000000 702.000366 2100.000000
vertex -350.000000 702.000366 2100.000000
vertex -350.000000 702.000366 2400.000000
endloop
endfacet
facet normal 0.000000 1.000000 0.000000
outer loop
vertex 350.000000 702.000366 2100.000000
vertex -350.000000 702.000366 2400.000000
vertex 350.000000 702.000366 2400.000000
endloop
endfacet
facet normal 1.000000 0.000000 0.000000
outer loop
vertex 696.000000 -349.999664 2100.000000
vertex 696.000000 350.000336 2100.000000
vertex 696.000000 350.000397 2400.000000
endloop
endfacet
facet normal 1.000000 0.000000 0.000000
outer loop
vertex 696.000000 -349.999664 2100.000000
vertex 696.000000 350.000397 2400.000000
vertex 696.000000 -349.999603 2400.000000
endloop
endfacet
facet normal 0.000000 -1.000000 0.000000
outer loop
vertex -701.000000 -349.999664 2100.000000
vertex -350.000000 -349.999664 2100.000000
vertex -350.000000 -349.999603 2400.000000
endloop
endfacet
facet normal 0.000000 -1.000000 0.000000
outer loop
vertex -701.000000 -349.999664 2100.000000
vertex -350.000000 -349.999603 2400.000000
vertex -701.000000 -349.999603 2400.000000
endloop
endfacet
facet normal 0.000000 -1.000000 0.000000
outer loop
vertex -350.000000 -700.999634 2100.000000
vertex 350.000000 -700.999634 2100.000000
vertex 350.000000 -700.999634 2400.000000
endloop
endfacet
facet normal 0.000000 -1.000000 0.000000
outer loop
vertex -350.000000 -700.999634 2100.000000
vertex 350.000000 -700.999634 2400.000000
vertex -350.000000 -700.999634 2400.000000
endloop
endfacet
facet normal -1.000000 0.000000 0.000000
outer loop
vertex -350.000000 702.000366 2100.000000
vertex -350.000000 350.000336 2100.000000
vertex -350.000000 350.000397 2400.000000
endloop
endfacet
facet normal -1.000000 0.000000 0.000000
outer loop
vertex -350.000000 702.000366 2100.000000
vertex -350.000000 350.000397 2400.000000
vertex -350.000000 702.000366 2400.000000
endloop
endfacet
facet normal 0.000000 1.000000 -0.000000
outer loop
vertex 696.000000 350.000336 2100.000000
vertex 350.000000 350.000336 2100.000000
vertex 350.000000 350.000397 2400.000000
endloop
endfacet
facet normal 0.000000 1.000000 -0.000000
outer loop
vertex 696.000000 350.000336 2100.000000
vertex 350.000000 350.000397 2400.000000
vertex 696.000000 350.000397 2400.000000
endloop
endfacet
facet normal 1.000000 0.000000 0.000000
outer loop
vertex 350.000000 -700.999634 2100.000000
vertex 350.000000 -349.999664 2100.000000
vertex 350.000000 -349.999603 2400.000000
endloop
endfacet
facet normal 1.000000 0.000000 0.000000
outer loop
vertex 350.000000 -700.999634 2100.000000
vertex 350.000000 -349.999603 2400.000000
vertex 350.000000 -700.999634 2400.000000
endloop
endfacet
facet normal 0.000000 1.000000 -0.000000
outer loop
vertex -350.000000 350.000336 2100.000000
vertex -701.000000 350.000336 2100.000000
vertex -701.000000 350.000397 2400.000000
endloop
endfacet
facet normal 0.000000 1.000000 -0.000000
outer loop
vertex -350.000000 350.000336 2100.000000
vertex -701.000000 350.000397 2400.000000
vertex -350.000000 350.000397 2400.000000
endloop
endfacet
facet normal 1.000000 0.000000 0.000000
outer loop
vertex 350.000000 350.000336 2100.000000
vertex 350.000000 702.000366 2100.000000
vertex 350.000000 702.000366 2400.000000
endloop
endfacet
facet normal 1.000000 0.000000 0.000000
outer loop
vertex 350.000000 350.000336 2100.000000
vertex 350.000000 702.000366 2400.000000
vertex 350.000000 350.000397 2400.000000
endloop
endfacet
facet normal 0.000000 -1.000000 0.000000
outer loop
vertex 350.000000 -349.999664 2100.000000
vertex 696.000000 -349.999664 2100.000000
vertex 696.000000 -349.999603 2400.000000
endloop
endfacet
facet normal 0.000000 -1.000000 0.000000
outer loop
vertex 350.000000 -349.999664 2100.000000
vertex 696.000000 -349.999603 2400.000000
vertex 350.000000 -349.999603 2400.000000
endloop
endfacet
facet normal -1.000000 0.000000 0.000000
outer loop
vertex -701.000000 350.000336 2100.000000
vertex -701.000000 -349.999664 2100.000000
vertex -701.000000 -349.999603 2400.000000
endloop
endfacet
facet normal -1.000000 0.000000 0.000000
outer loop
vertex -701.000000 350.000336 2100.000000
vertex -701.000000 -349.999603 2400.000000
vertex -701.000000 350.000397 2400.000000
endloop
endfacet
facet normal -1.000000 0.000000 0.000000
outer loop
vertex -350.000000 -349.999664 2100.000000
vertex -350.000000 -700.999634 2100.000000
vertex -350.000000 -700.999634 2400.000000
endloop
endfacet
facet normal -1.000000 0.000000 0.000000
outer loop
vertex -350.000000 -349.999664 2100.000000
vertex -350.000000 -700.999634 2400.000000
vertex -350.000000 -349.999603 2400.000000
endloop
endfacet
endsolid building_019.001
