solid building_003
facet normal 0.000000 0.000000 1.000000
outer loop
vertex -750.000000 -299.999512 3000.000000
vertex 750.000000 -299.999512 3000.000000
vertex 750.000000 300.000488 3000.000000
endloop
endfacet
facet normal 0.000000 0.000000 1.000000
outer loop
vertex -750.000000 -299.999512 3000.000000
vertex 750.000000 300.000488 3000.000000
vertex -750.000000 300.000488 3000.000000
endloop
endfacet
facet normal 1.000000 -0.000000 0.000000
outer loop
vertex 750.000000 -300.000000 0.000049
vertex 750.000000 300.000000 -0.000049
vertex 750.000000 300.000061 299.999939
endloop
endfacet
facet normal 1.000000 0.000000 0.000000
outer loop
vertex 750.000000 -300.000000 0.000049
vertex 750.000000 300.000061 299.999939
vertex 750.000000 -299.999939 300.000061
endloop
endfacet
facet normal -1.000000 -0.000000 0.000000
outer loop
vertex -750.000000 300.000000 -0.000049
vertex -750.000000 -300.000000 0.000049
vertex -750.000000 -299.999939 300.000061
endloop
endfacet
facet normal -1.000000 0.000000 0.000000
outer loop
vertex -750.000000 300.000000 -0.000049
vertex -750.000000 -299.999939 300.000061
vertex -750.000000 300.000061 299.999939
endloop
endfacet
facet normal 0.000000 1.000000 -0.000000
outer loop
vertex 750.000000 300.000000 -0.000049
vertex -750.000000 300.000000 -0.000049
vertex -750.000000 300.000061 299.999939
endloop
endfacet
facet normal 0.000000 1.000000 -0.000000
outer loop
vertex 750.000000 300.000000 -0.000049
vertex -750.000000 300.000061 299.999939
vertex 750.000000 300.000061 299.999939
endloop
endfacet
facet normal 0.000000 -1.000000 0.000000
outer loop
vertex -750.000000 -300.000000 0.000049
vertex 750.000000 -300.000000 0.000049
vertex 750.000000 -299.999939 300.000061
endloop
endfacet
facet normal 0.000000 -1.000000 0.000000
outer loop
vertex -750.000000 -300.000000 0.000049
vertex 750.000000 -299.999939 300.000061
vertex -750.000000 -299.999939 300.000061
endloop
endfacet
facet normal 0.000000 -1.000000 0.000000
outer loop
vertex -750.000000 -299.999939 300.000061
vertex 750.000000 -299.999939 300.000061
vertex 750.000000 -299.999908 600.000061
endloop
endfacet
facet normal 0.000000 -1.000000 0.000000
outer loop
vertex -750.000000 -299.999939 300.000061
vertex 750.000000 -299.999908 600.000061
vertex -750.000000 -299.999908 600.000061
endloop
endfacet
facet normal -1.000000 0.000000 0.000000
outer loop
vertex -750.000000 300.000061 299.999939
vertex -750.000000 -299.999939 300.000061
vertex -750.000000 -299.999908 600.000061
endloop
endfacet
facet normal -1.000000 0.000000 0.000000
outer loop
vertex -750.000000 300.000061 299.999939
vertex -750.000000 -299.999908 600.000061
vertex -750.000000 300.000092 599.999939
endloop
endfacet
facet normal 1.000000 0.000000 0.000000
outer loop
vertex 750.000000 -299.999939 300.000061
vertex 750.000000 300.000061 299.999939
vertex 750.000000 300.000092 599.999939
endloop
endfacet
facet normal 1.000000 0.000000 0.000000
outer loop
vertex 750.000000 -299.999939 300.000061
vertex 750.000000 300.000092 599.999939
vertex 750.000000 -299.999908 600.000061
endloop
endfacet
facet normal 0.000000 1.000000 0.000000
outer loop
vertex 750.000000 300.000061 299.999939
vertex -750.000000 300.000061 299.999939
vertex -750.000000 300.000092 599.999939
endloop
endfacet
facet normal 0.000000 1.000000 -0.000000
outer loop
vertex 750.000000 300.000061 299.999939
vertex -750.000000 300.000092 599.999939
vertex 750.000000 300.000092 599.999939
endloop
endfacet
facet normal -1.000000 0.000000 0.000000
outer loop
vertex -750.000000 300.000092 599.999939
vertex -750.000000 -299.999908 600.000061
vertex -750.000000 -299.999847 900.000061
endloop
endfacet
facet normal -1.000000 0.000000 0.000000
outer loop
vertex -750.000000 300.000092 599.999939
vertex -750.000000 -299.999847 900.000061
vertex -750.000000 300.000153 899.999939
endloop
endfacet
facet normal 1.000000 0.000000 0.000000
outer loop
vertex 750.000000 -299.999908 600.000061
vertex 750.000000 300.000092 599.999939
vertex 750.000000 300.000153 899.999939
endloop
endfacet
facet normal 1.000000 0.000000 0.000000
outer loop
vertex 750.000000 -299.999908 600.000061
vertex 750.000000 300.000153 899.999939
vertex 750.000000 -299.999847 900.000061
endloop
endfacet
facet normal 0.000000 1.000000 -0.000000
outer loop
vertex 750.000000 300.000092 599.999939
vertex -750.000000 300.000092 599.999939
vertex -750.000000 300.000153 899.999939
endloop
endfacet
facet normal 0.000000 1.000000 -0.000000
outer loop
vertex 750.000000 300.000092 599.999939
vertex -750.000000 300.000153 899.999939
vertex 750.000000 300.000153 899.999939
endloop
endfacet
facet normal 0.000000 -1.000000 0.000000
outer loop
vertex -750.000000 -299.999908 600.000061
vertex 750.000000 -299.999908 600.000061
vertex 750.000000 -299.999847 900.000061
endloop
endfacet
facet normal 0.000000 -1.000000 0.000000
outer loop
vertex -750.000000 -299.999908 600.000061
vertex 750.000000 -299.999847 900.000061
vertex -750.000000 -299.999847 900.000061
endloop
endfacet
facet normal 0.000000 1.000000 -0.000000
outer loop
vertex 750.000000 300.000153 899.999939
vertex -750.000000 300.000153 899.999939
vertex -750.000000 300.000183 1200.000000
endloop
endfacet
facet normal 0.000000 1.000000 0.000000
outer loop
vertex 750.000000 300.000153 899.999939
vertex -750.000000 300.000183 1200.000000
vertex 750.000000 300.000183 1200.000000
endloop
endfacet
facet normal 0.000000 -1.000000 0.000000
outer loop
vertex -750.000000 -299.999847 900.000061
vertex 750.000000 -299.999847 900.000061
vertex 750.000000 -299.999817 1200.000000
endloop
endfacet
facet normal 0.000000 -1.000000 0.000000
outer loop
vertex -750.000000 -299.999847 900.000061
vertex 750.000000 -299.999817 1200.000000
vertex -750.000000 -299.999817 1200.000000
endloop
endfacet
facet normal -1.000000 0.000000 0.000000
outer loop
vertex -750.000000 300.000153 899.999939
vertex -750.000000 -299.999847 900.000061
vertex -750.000000 -299.999817 1200.000000
endloop
endfacet
facet normal -1.000000 0.000000 0.000000
outer loop
vertex -750.000000 300.000153 899.999939
vertex -750.000000 -299.999817 1200.000000
vertex -750.000000 300.000183 1200.000000
endloop
endfacet
facet normal 1.000000 0.000000 0.000000
outer loop
vertex 750.000000 -299.999847 900.000061
vertex 750.000000 300.000153 899.999939
vertex 750.000000 300.000183 1200.000000
endloop
endfacet
facet normal 1.000000 0.000000 0.000000
outer loop
vertex 750.000000 -299.999847 900.000061
vertex 750.000000 300.000183 1200.000000
vertex 750.000000 -299.999817 1200.000000
endloop
endfacet
facet normal -1.000000 0.000000 0.000000
outer loop
vertex -750.000000 300.000183 1200.000000
vertex -750.000000 -299.999817 1200.000000
vertex -750.000000 -299.999756 1500.000000
endloop
endfacet
facet normal -1.000000 0.000000 0.000000
outer loop
vertex -750.000000 300.000183 1200.000000
vertex -750.000000 -299.999756 1500.000000
vertex -750.000000 300.000244 1500.000000
endloop
endfacet
facet normal 1.000000 0.000000 0.000000
outer loop
vertex 750.000000 -299.999817 1200.000000
vertex 750.000000 300.000183 1200.000000
vertex 750.000000 300.000244 1500.000000
endloop
endfacet
facet normal 1.000000 0.000000 0.000000
outer loop
vertex 750.000000 -299.999817 1200.000000
vertex 750.000000 300.000244 1500.000000
vertex 750.000000 -299.999756 1500.000000
endloop
endfacet
facet normal 0.000000 1.000000 -0.000000
outer loop
vertex 750.000000 300.000183 1200.000000
vertex -750.000000 300.000183 1200.000000
vertex -750.000000 300.000244 1500.000000
endloop
endfacet
facet normal 0.000000 1.000000 -0.000000
outer loop
vertex 750.000000 300.000183 1200.000000
vertex -750.000000 300.000244 1500.000000
vertex 750.000000 300.000244 1500.000000
endloop
endfacet
facet normal 0.000000 -1.000000 0.000000
outer loop
vertex -750.000000 -299.999817 1200.000000
vertex 750.000000 -299.999817 1200.000000
vertex 750.000000 -299.999756 1500.000000
endloop
endfacet
facet normal 0.000000 -1.000000 0.000000
outer loop
vertex -750.000000 -299.999817 1200.000000
vertex 750.000000 -299.999756 1500.000000
vertex -750.000000 -299.999756 1500.000000
endloop
endfacet
facet normal 1.000000 0.000000 0.000000
outer loop
vertex 750.000000 -299.999756 1500.000000
vertex 750.000000 300.000244 1500.000000
vertex 750.000000 300.000305 1800.000000
endloop
endfacet
facet normal 1.000000 0.000000 0.000000
outer loop
vertex 750.000000 -299.999756 1500.000000
vertex 750.000000 300.000305 1800.000000
vertex 750.000000 -299.999695 1800.000000
endloop
endfacet
facet normal 0.000000 1.000000 -0.000000
outer loop
vertex 750.000000 300.000244 1500.000000
vertex -750.000000 300.000244 1500.000000
vertex -750.000000 300.000305 1800.000000
endloop
endfacet
facet normal 0.000000 1.000000 -0.000000
outer loop
vertex 750.000000 300.000244 1500.000000
vertex -750.000000 300.000305 1800.000000
vertex 750.000000 300.000305 1800.000000
endloop
endfacet
facet normal 0.000000 -1.000000 0.000000
outer loop
vertex -750.000000 -299.999756 1500.000000
vertex 750.000000 -299.999756 1500.000000
vertex 750.000000 -299.999695 1800.000000
endloop
endfacet
facet normal 0.000000 -1.000000 0.000000
outer loop
vertex -750.000000 -299.999756 1500.000000
vertex 750.000000 -299.999695 1800.000000
vertex -750.000000 -299.999695 1800.000000
endloop
endfacet
facet normal -1.000000 0.000000 0.000000
outer loop
vertex -750.000000 300.000244 1500.000000
vertex -750.000000 -299.999756 1500.000000
vertex -750.000000 -299.999695 1800.000000
endloop
endfacet
facet normal -1.000000 0.000000 0.000000
outer loop
vertex -750.000000 300.000244 1500.000000
vertex -750.000000 -299.999695 1800.000000
vertex -750.000000 300.000305 1800.000000
endloop
endfacet
facet normal 0.000000 1.000000 0.000000
outer loop
vertex 750.000000 300.000305 1800.000000
vertex -750.000000 300.000305 1800.000000
vertex -750.000000 300.000336 2100.000000
endloop
endfacet
facet normal 0.000000 1.000000 -0.000000
outer loop
vertex 750.000000 300.000305 1800.000000
vertex -750.000000 300.000336 2100.000000
vertex 750.000000 300.000336 2100.000000
endloop
endfacet
facet normal 0.000000 -1.000000 0.000000
outer loop
vertex -750.000000 -299.999695 1800.000000
vertex 750.000000 -299.999695 1800.000000
vertex 750.000000 -299.999664 2100.000000
endloop
endfacet
facet normal 0.000000 -1.000000 0.000000
outer loop
vertex -750.000000 -299.999695 1800.000000
vertex 750.000000 -299.999664 2100.000000
vertex -750.000000 -299.999664 2100.000000
endloop
endfacet
facet normal -1.000000 0.000000 0.000000
outer loop
vertex -750.000000 300.000305 1800.000000
vertex -750.000000 -299.999695 1800.000000
vertex -750.000000 -299.999664 2100.000000
endloop
endfacet
facet normal -1.000000 0.000000 0.000000
outer loop
vertex -750.000000 300.000305 1800.000000
vertex -750.000000 -299.999664 2100.000000
vertex -750.000000 300.000336 2100.000000
endloop
endfacet
facet normal 1.000000 0.000000 0.000000
outer loop
vertex 750.000000 -299.999695 1800.000000
vertex 750.000000 300.000305 1800.000000
vertex 750.000000 300.000336 2100.000000
endloop
endfacet
facet normal 1.000000 0.000000 0.000000
outer loop
vertex 750.000000 -299.999695 1800.000000
vertex 750.000000 300.000336 2100.000000
vertex 750.000000 -299.999664 2100.000000
endloop
endfacet
facet normal -1.000000 0.000000 0.000000
outer loop
vertex -750.000000 300.000336 2100.000000
vertex -750.000000 -299.999664 2100.000000
vertex -750.000000 -299.999603 2400.000000
endloop
endfacet
facet normal -1.000000 0.000000 0.000000
outer loop
vertex -750.000000 300.000336 2100.000000
vertex -750.000000 -299.999603 2400.000000
vertex -750.000000 300.000397 2400.000000
endloop
endfacet
facet normal 1.000000 0.000000 0.000000
outer loop
vertex 750.000000 -299.999664 2100.000000
vertex 750.000000 300.000336 2100.000000
vertex 750.000000 300.000397 2400.000000
endloop
endfacet
facet normal 1.000000 0.000000 0.000000
outer loop
vertex 750.000000 -299.999664 2100.000000
vertex 750.000000 300.000397 2400.000000
vertex 750.000000 -299.999603 2400.000000
endloop
endfacet
facet normal 0.000000 1.000000 -0.000000
outer loop
vertex 750.000000 300.000336 2100.000000
vertex -750.000000 300.000336 2100.000000
vertex -750.000000 300.000397 2400.000000
endloop
endfacet
facet normal 0.000000 1.000000 -0.000000
outer loop
vertex 750.000000 300.000336 2100.000000
vertex -750.000000 300.000397 2400.000000
vertex 750.000000 300.000397 2400.000000
endloop
endfacet
facet normal 0.000000 -1.000000 0.000000
outer loop
vertex -750.000000 -299.999664 2100.000000
vertex 750.000000 -299.999664 2100.000000
vertex 750.000000 -299.999603 2400.000000
endloop
endfacet
facet normal 0.000000 -1.000000 0.000000
outer loop
vertex -750.000000 -299.999664 2100.000000
vertex 750.000000 -299.999603 2400.000000
vertex -750.000000 -299.999603 2400.000000
endloop
endfacet
facet normal 0.000000 1.000000 -0.000000
outer loop
vertex 750.000000 300.000397 2400.000000
vertex -750.000000 300.000397 2400.000000
vertex -750.000000 300.000427 2700.000000
endloop
endfacet
facet normal 0.000000 1.000000 0.000000
outer loop
vertex 750.000000 300.000397 2400.000000
vertex -750.000000 300.000427 2700.000000
vertex 750.000000 300.000427 2700.000000
endloop
endfacet
facet normal 0.000000 -1.000000 0.000000
outer loop
vertex -750.000000 -299.999603 2400.000000
vertex 750.000000 -299.999603 2400.000000
vertex 750.000000 -299.999573 2700.000000
endloop
endfacet
facet normal 0.000000 -1.000000 0.000000
outer loop
vertex -750.000000 -299.999603 2400.000000
vertex 750.000000 -299.999573 2700.000000
vertex -750.000000 -299.999573 2700.000000
endloop
endfacet
facet normal -1.000000 0.000000 0.000000
outer loop
vertex -750.000000 300.000397 2400.000000
vertex -750.000000 -299.999603 2400.000000
vertex -750.000000 -299.999573 2700.000000
endloop
endfacet
facet normal -1.000000 0.000000 0.000000
outer loop
vertex -750.000000 300.000397 2400.000000
vertex -750.000000 -299.999573 2700.000000
vertex -750.000000 300.000427 2700.000000
endloop
endfacet
facet normal 1.000000 0.000000 0.000000
outer loop
vertex 750.000000 -299.999603 2400.000000
vertex 750.000000 300.000397 2400.000000
vertex 750.000000 300.000427 2700.000000
endloop
endfacet
facet normal 1.000000 0.000000 0.000000
outer loop
vertex 750.000000 -299.999603 2400.000000
vertex 750.000000 300.000427 2700.000000
vertex 750.000000 -299.999573 2700.000000
endloop
endfacet
facet normal 0.000000 1.000000 -0.000000
outer loop
vertex -750.000000 300.000427 2700.000000
vertex -750.000000 300.000488 3000.000000
vertex 750.000000 300.000488 3000.000000
endloop
endfacet
facet normal 0.000000 -1.000000 0.000000
outer loop
vertex -750.000000 -299.999573 2700.000000
vertex 750.000000 -299.999573 2700.000000
vertex 750.000000 -299.999512 3000.000000
endloop
endfacet
facet normal 0.000000 -1.000000 0.000000
outer loop
vertex -750.000000 -299.999573 2700.000000
vertex 750.000000 -299.999512 3000.000000
vertex -750.000000 -299.999512 3000.000000
endloop
endfacet
facet normal -1.000000 0.000000 0.000000
outer loop
vertex -750.000000 300.000427 2700.000000
vertex -750.000000 -299.999573 2700.000000
vertex -750.000000 -299.999512 3000.000000
endloop
endfacet
facet normal -1.000000 0.000000 0.000000
outer loop
vertex -750.000000 300.000427 2700.000000
vertex -750.000000 -299.999512 3000.000000
vertex -750.000000 300.000488 3000.000000
endloop
endfacet
facet normal 1.000000 0.000000 0.000000
outer loop
vertex 750.000000 -299.999573 2700.000000
vertex 750.000000 300.000427 2700.000000
vertex 750.000000 300.000488 3000.000000
endloop
endfacet
facet normal 0.000000 1.000000 -0.000000
outer loop
vertex 750.000000 300.000427 2700.000000
vertex -750.000000 300.000427 2700.000000
vertex 750.000000 300.000488 3000.000000
endloop
endfacet
facet normal 1.000000 0.000000 0.000000
outer loop
vertex 750.000000 -299.999512 3000.000000
vertex 750.000000 -299.999573 2700.000000
vertex 750.000000 300.000488 3000.000000
endloop
endfacet
endsolid building_003
