solid building_020.001
facet normal 1.000000 0.000000 0.000000
outer loop
vertex 870.000000 -437.500000 0.000071
vertex 870.000000 437.500000 -0.000071
vertex 870.000000 437.500031 199.999924
endloop
endfacet
facet normal 1.000000 -0.000000 0.000000
outer loop
vertex 870.000000 -437.500000 0.000071
vertex 870.000000 437.500031 199.999924
vertex 870.000000 -437.499969 200.000076
endloop
endfacet
facet normal 0.000000 0.000000 1.000000
outer loop
vertex 870.000000 437.500183 1199.999878
vertex -437.500000 437.500183 1199.999878
vertex -437.500000 -876.249817 1200.000122
endloop
endfacet
facet normal 0.000000 0.000000 1.000000
outer loop
vertex -437.500000 -876.249817 1200.000122
vertex 437.500000 -876.249817 1200.000122
vertex 437.500000 -437.499817 1200.000122
endloop
endfacet
facet normal 0.000000 0.000000 1.000000
outer loop
vertex 437.500000 -437.499817 1200.000122
vertex 870.000000 -437.499817 1200.000122
vertex 870.000000 437.500183 1199.999878
endloop
endfacet
facet normal 0.000000 0.000000 1.000000
outer loop
vertex -437.500000 -876.249817 1200.000122
vertex 437.500000 -437.499817 1200.000122
vertex 870.000000 437.500183 1199.999878
endloop
endfacet
facet normal 0.000000 1.000000 -0.000000
outer loop
vertex -437.500000 437.500000 -0.000071
vertex -437.500000 437.500031 199.999924
vertex 870.000000 437.500031 199.999924
endloop
endfacet
facet normal 0.000000 1.000000 0.000000
outer loop
vertex -437.500000 437.500000 -0.000071
vertex 870.000000 437.500031 199.999924
vertex 870.000000 437.500000 -0.000071
endloop
endfacet
facet normal 0.000000 1.000000 0.000000
outer loop
vertex 870.000000 437.500031 199.999924
vertex -437.500000 437.500031 199.999924
vertex -437.500000 437.500061 399.999939
endloop
endfacet
facet normal 0.000000 1.000000 0.000000
outer loop
vertex 870.000000 437.500031 199.999924
vertex -437.500000 437.500061 399.999939
vertex 870.000000 437.500061 399.999939
endloop
endfacet
facet normal 0.000000 -1.000000 0.000000
outer loop
vertex -437.500000 -876.250000 0.000143
vertex 437.500000 -876.250000 0.000143
vertex 437.500000 -876.249939 200.000137
endloop
endfacet
facet normal 0.000000 -1.000000 0.000001
outer loop
vertex -437.500000 -876.250000 0.000143
vertex 437.500000 -876.249939 200.000137
vertex -437.500000 -876.249939 200.000137
endloop
endfacet
facet normal -1.000000 0.000000 0.000000
outer loop
vertex -437.500000 437.500000 -0.000071
vertex -437.500000 -876.250000 0.000143
vertex -437.500000 -876.249939 200.000137
endloop
endfacet
facet normal -1.000000 0.000000 0.000000
outer loop
vertex -437.500000 437.500000 -0.000071
vertex -437.500000 -876.249939 200.000137
vertex -437.500000 437.500031 199.999924
endloop
endfacet
facet normal 0.000000 -1.000000 0.000000
outer loop
vertex 437.500000 -437.499969 200.000076
vertex 870.000000 -437.499969 200.000076
vertex 870.000000 -437.499939 400.000061
endloop
endfacet
facet normal 0.000000 -1.000000 0.000000
outer loop
vertex 437.500000 -437.499969 200.000076
vertex 870.000000 -437.499939 400.000061
vertex 437.500000 -437.499939 400.000061
endloop
endfacet
facet normal 1.000000 0.000000 0.000000
outer loop
vertex 437.500000 -876.250000 0.000143
vertex 437.500000 -437.500000 0.000071
vertex 437.500000 -437.499969 200.000076
endloop
endfacet
facet normal 1.000000 -0.000000 0.000000
outer loop
vertex 437.500000 -876.250000 0.000143
vertex 437.500000 -437.499969 200.000076
vertex 437.500000 -876.249939 200.000137
endloop
endfacet
facet normal 0.000000 -1.000000 0.000000
outer loop
vertex 437.500000 -437.500000 0.000071
vertex 870.000000 -437.500000 0.000071
vertex 870.000000 -437.499969 200.000076
endloop
endfacet
facet normal 0.000000 -1.000000 0.000000
outer loop
vertex 437.500000 -437.500000 0.000071
vertex 870.000000 -437.499969 200.000076
vertex 437.500000 -437.499969 200.000076
endloop
endfacet
facet normal 0.000000 -1.000000 0.000000
outer loop
vertex -437.500000 -876.249939 200.000137
vertex 437.500000 -876.249939 200.000137
vertex 437.500000 -876.249939 400.000153
endloop
endfacet
facet normal 0.000000 -1.000000 0.000000
outer loop
vertex -437.500000 -876.249939 200.000137
vertex 437.500000 -876.249939 400.000153
vertex -437.500000 -876.249939 400.000153
endloop
endfacet
facet normal 1.000000 -0.000000 0.000000
outer loop
vertex 870.000000 -437.499969 200.000076
vertex 870.000000 437.500031 199.999924
vertex 870.000000 437.500061 399.999939
endloop
endfacet
facet normal 1.000000 0.000000 0.000000
outer loop
vertex 870.000000 -437.499969 200.000076
vertex 870.000000 437.500061 399.999939
vertex 870.000000 -437.499939 400.000061
endloop
endfacet
facet normal 1.000000 0.000000 0.000000
outer loop
vertex 437.500000 -876.249939 200.000137
vertex 437.500000 -437.499969 200.000076
vertex 437.500000 -437.499939 400.000061
endloop
endfacet
facet normal 1.000000 -0.000000 0.000000
outer loop
vertex 437.500000 -876.249939 200.000137
vertex 437.500000 -437.499939 400.000061
vertex 437.500000 -876.249939 400.000153
endloop
endfacet
facet normal -1.000000 0.000000 0.000000
outer loop
vertex -437.500000 437.500031 199.999924
vertex -437.500000 -876.249939 200.000137
vertex -437.500000 -876.249939 400.000153
endloop
endfacet
facet normal -1.000000 0.000000 0.000000
outer loop
vertex -437.500000 437.500031 199.999924
vertex -437.500000 -876.249939 400.000153
vertex -437.500000 437.500061 399.999939
endloop
endfacet
facet normal 0.000000 -1.000000 0.000001
outer loop
vertex -437.500000 -876.249939 400.000153
vertex 437.500000 -876.249939 400.000153
vertex 437.500000 -876.249878 600.000122
endloop
endfacet
facet normal 0.000000 -1.000000 0.000000
outer loop
vertex -437.500000 -876.249939 400.000153
vertex 437.500000 -876.249878 600.000122
vertex -437.500000 -876.249878 600.000122
endloop
endfacet
facet normal 1.000000 0.000000 0.000000
outer loop
vertex 870.000000 -437.499939 400.000061
vertex 870.000000 437.500061 399.999939
vertex 870.000000 437.500092 599.999939
endloop
endfacet
facet normal 1.000000 0.000000 0.000000
outer loop
vertex 870.000000 -437.499939 400.000061
vertex 870.000000 437.500092 599.999939
vertex 870.000000 -437.499908 600.000061
endloop
endfacet
facet normal 0.000000 -1.000000 0.000000
outer loop
vertex 437.500000 -437.499939 400.000061
vertex 870.000000 -437.499939 400.000061
vertex 870.000000 -437.499908 600.000061
endloop
endfacet
facet normal 0.000000 -1.000000 0.000000
outer loop
vertex 437.500000 -437.499939 400.000061
vertex 870.000000 -437.499908 600.000061
vertex 437.500000 -437.499908 600.000061
endloop
endfacet
facet normal 0.000000 1.000000 0.000000
outer loop
vertex 870.000000 437.500061 399.999939
vertex -437.500000 437.500061 399.999939
vertex -437.500000 437.500092 599.999939
endloop
endfacet
facet normal 0.000000 1.000000 -0.000000
outer loop
vertex 870.000000 437.500061 399.999939
vertex -437.500000 437.500092 599.999939
vertex 870.000000 437.500092 599.999939
endloop
endfacet
facet normal 1.000000 0.000000 0.000000
outer loop
vertex 437.500000 -876.249939 400.000153
vertex 437.500000 -437.499939 400.000061
vertex 437.500000 -437.499908 600.000061
endloop
endfacet
facet normal 1.000000 -0.000000 0.000000
outer loop
vertex 437.500000 -876.249939 400.000153
vertex 437.500000 -437.499908 600.000061
vertex 437.500000 -876.249878 600.000122
endloop
endfacet
facet normal -1.000000 0.000000 0.000000
outer loop
vertex -437.500000 437.500061 399.999939
vertex -437.500000 -876.249939 400.000153
vertex -437.500000 -876.249878 600.000122
endloop
endfacet
facet normal -1.000000 -0.000000 0.000000
outer loop
vertex -437.500000 437.500061 399.999939
vertex -437.500000 -876.249878 600.000122
vertex -437.500000 437.500092 599.999939
endloop
endfacet
facet normal 0.000000 1.000000 -0.000000
outer loop
vertex 870.000000 437.500092 599.999939
vertex -437.500000 437.500092 599.999939
vertex -437.500000 437.500122 799.999939
endloop
endfacet
facet normal 0.000000 1.000000 0.000000
outer loop
vertex 870.000000 437.500092 599.999939
vertex -437.500000 437.500122 799.999939
vertex 870.000000 437.500122 799.999939
endloop
endfacet
facet normal 0.000000 -1.000000 0.000000
outer loop
vertex 437.500000 -437.499908 600.000061
vertex 870.000000 -437.499908 600.000061
vertex 870.000000 -437.499878 800.000061
endloop
endfacet
facet normal 0.000000 -1.000000 0.000000
outer loop
vertex 437.500000 -437.499908 600.000061
vertex 870.000000 -437.499878 800.000061
vertex 437.500000 -437.499878 800.000061
endloop
endfacet
facet normal 0.000000 -1.000000 0.000000
outer loop
vertex -437.500000 -876.249878 600.000122
vertex 437.500000 -876.249878 600.000122
vertex 437.500000 -876.249878 800.000122
endloop
endfacet
facet normal 0.000000 -1.000000 0.000000
outer loop
vertex -437.500000 -876.249878 600.000122
vertex 437.500000 -876.249878 800.000122
vertex -437.500000 -876.249878 800.000122
endloop
endfacet
facet normal 1.000000 0.000000 0.000000
outer loop
vertex 870.000000 -437.499908 600.000061
vertex 870.000000 437.500092 599.999939
vertex 870.000000 437.500122 799.999939
endloop
endfacet
facet normal 1.000000 0.000000 0.000000
outer loop
vertex 870.000000 -437.499908 600.000061
vertex 870.000000 437.500122 799.999939
vertex 870.000000 -437.499878 800.000061
endloop
endfacet
facet normal 1.000000 0.000000 0.000000
outer loop
vertex 437.500000 -876.249878 600.000122
vertex 437.500000 -437.499908 600.000061
vertex 437.500000 -437.499878 800.000061
endloop
endfacet
facet normal 1.000000 -0.000000 0.000000
outer loop
vertex 437.500000 -876.249878 600.000122
vertex 437.500000 -437.499878 800.000061
vertex 437.500000 -876.249878 800.000122
endloop
endfacet
facet normal -1.000000 0.000000 0.000000
outer loop
vertex -437.500000 437.500092 599.999939
vertex -437.500000 -876.249878 600.000122
vertex -437.500000 -876.249878 800.000122
endloop
endfacet
facet normal -1.000000 -0.000000 0.000000
outer loop
vertex -437.500000 437.500092 599.999939
vertex -437.500000 -876.249878 800.000122
vertex -437.500000 437.500122 799.999939
endloop
endfacet
facet normal 1.000000 0.000000 0.000000
outer loop
vertex 870.000000 -437.499878 800.000061
vertex 870.000000 437.500122 799.999939
vertex 870.000000 437.500153 999.999939
endloop
endfacet
facet normal 1.000000 0.000000 0.000000
outer loop
vertex 870.000000 -437.499878 800.000061
vertex 870.000000 437.500153 999.999939
vertex 870.000000 -437.499847 1000.000061
endloop
endfacet
facet normal 1.000000 0.000000 0.000000
outer loop
vertex 437.500000 -876.249878 800.000122
vertex 437.500000 -437.499878 800.000061
vertex 437.500000 -437.499847 1000.000061
endloop
endfacet
facet normal 1.000000 -0.000000 0.000000
outer loop
vertex 437.500000 -876.249878 800.000122
vertex 437.500000 -437.499847 1000.000061
vertex 437.500000 -876.249817 1000.000122
endloop
endfacet
facet normal -1.000000 0.000000 0.000000
outer loop
vertex -437.500000 437.500122 799.999939
vertex -437.500000 -876.249878 800.000122
vertex -437.500000 -876.249817 1000.000122
endloop
endfacet
facet normal -1.000000 -0.000000 0.000000
outer loop
vertex -437.500000 437.500122 799.999939
vertex -437.500000 -876.249817 1000.000122
vertex -437.500000 437.500153 999.999939
endloop
endfacet
facet normal 0.000000 1.000000 0.000000
outer loop
vertex 870.000000 437.500122 799.999939
vertex -437.500000 437.500122 799.999939
vertex -437.500000 437.500153 999.999939
endloop
endfacet
facet normal 0.000000 1.000000 0.000000
outer loop
vertex 870.000000 437.500122 799.999939
vertex -437.500000 437.500153 999.999939
vertex 870.000000 437.500153 999.999939
endloop
endfacet
facet normal 0.000000 -1.000000 0.000000
outer loop
vertex 437.500000 -437.499878 800.000061
vertex 870.000000 -437.499878 800.000061
vertex 870.000000 -437.499847 1000.000061
endloop
endfacet
facet normal 0.000000 -1.000000 0.000000
outer loop
vertex 437.500000 -437.499878 800.000061
vertex 870.000000 -437.499847 1000.000061
vertex 437.500000 -437.499847 1000.000061
endloop
endfacet
facet normal 0.000000 -1.000000 0.000000
outer loop
vertex -437.500000 -876.249878 800.000122
vertex 437.500000 -876.249878 800.000122
vertex 437.500000 -876.249817 1000.000122
endloop
endfacet
facet normal 0.000000 -1.000000 0.000001
outer loop
vertex -437.500000 -876.249878 800.000122
vertex 437.500000 -876.249817 1000.000122
vertex -437.500000 -876.249817 1000.000122
endloop
endfacet
facet normal 0.000000 1.000000 -0.000000
outer loop
vertex 870.000000 437.500153 999.999939
vertex -437.500000 437.500153 999.999939
vertex -437.500000 437.500183 1199.999878
endloop
endfacet
facet normal 0.000000 1.000000 0.000000
outer loop
vertex 870.000000 437.500153 999.999939
vertex -437.500000 437.500183 1199.999878
vertex 870.000000 437.500183 1199.999878
endloop
endfacet
facet normal 0.000000 -1.000000 0.000000
outer loop
vertex 437.500000 -437.499847 1000.000061
vertex 870.000000 -437.499847 1000.000061
vertex 870.000000 -437.499817 1200.000122
endloop
endfacet
facet normal 0.000000 -1.000000 0.000000
outer loop
vertex 437.500000 -437.499847 1000.000061
vertex 870.000000 -437.499817 1200.000122
vertex 437.500000 -437.499817 1200.000122
endloop
endfacet
facet normal 0.000000 -1.000000 0.000000
outer loop
vertex -437.500000 -876.249817 1000.000122
vertex 437.500000 -876.249817 1000.000122
vertex 437.500000 -876.249817 1200.000122
endloop
endfacet
facet normal 0.000000 -1.000000 0.000000
outer loop
vertex -437.500000 -876.249817 1000.000122
vertex 437.500000 -876.249817 1200.000122
vertex -437.500000 -876.249817 1200.000122
endloop
endfacet
facet normal 1.000000 0.000000 0.000000
outer loop
vertex 870.000000 -437.499847 1000.000061
vertex 870.000000 437.500153 999.999939
vertex 870.000000 437.500183 1199.999878
endloop
endfacet
facet normal 1.000000 -0.000000 0.000000
outer loop
vertex 870.000000 -437.499847 1000.000061
vertex 870.000000 437.500183 1199.999878
vertex 870.000000 -437.499817 1200.000122
endloop
endfacet
facet normal 1.000000 0.000000 0.000000
outer loop
vertex 437.500000 -876.249817 1000.000122
vertex 437.500000 -437.499847 1000.000061
vertex 437.500000 -437.499817 1200.000122
endloop
endfacet
facet normal 1.000000 0.000000 0.000000
outer loop
vertex 437.500000 -876.249817 1000.000122
vertex 437.500000 -437.499817 1200.000122
vertex 437.500000 -876.249817 1200.000122
endloop
endfacet
facet normal -1.000000 0.000000 0.000000
outer loop
vertex -437.500000 437.500153 999.999939
vertex -437.500000 -876.249817 1000.000122
vertex -437.500000 -876.249817 1200.000122
endloop
endfacet
facet normal -1.000000 -0.000000 0.000000
outer loop
vertex -437.500000 437.500153 999.999939
vertex -437.500000 -876.249817 1200.000122
vertex -437.500000 437.500183 1199.999878
endloop
endfacet
endsolid building_020.001
