solid building_018.001
facet normal -1.000000 0.000000 0.000000
outer loop
vertex -600.000000 720.000000 -0.000117
vertex -600.000000 600.000000 -0.000098
vertex -600.000000 600.000061 399.999908
endloop
endfacet
facet normal -1.000000 -0.000000 0.000000
outer loop
vertex -600.000000 720.000000 -0.000117
vertex -600.000000 600.000061 399.999908
vertex -600.000000 720.000061 399.999878
endloop
endfacet
facet normal 0.000000 -1.000000 0.000000
outer loop
vertex -600.000000 -720.000000 0.000117
vertex 600.000000 -720.000000 0.000117
vertex 600.000000 -719.999939 400.000122
endloop
endfacet
facet normal 0.000000 -1.000000 0.000000
outer loop
vertex -600.000000 -720.000000 0.000117
vertex 600.000000 -719.999939 400.000122
vertex -600.000000 -719.999939 400.000122
endloop
endfacet
facet normal 1.000000 0.000000 0.000000
outer loop
vertex 720.000000 -600.000000 0.000098
vertex 720.000000 600.000000 -0.000098
vertex 720.000000 600.000061 399.999908
endloop
endfacet
facet normal 1.000000 -0.000000 0.000000
outer loop
vertex 720.000000 -600.000000 0.000098
vertex 720.000000 600.000061 399.999908
vertex 720.000000 -599.999939 400.000092
endloop
endfacet
facet normal -1.000000 0.000000 0.000000
outer loop
vertex -720.000000 600.000000 -0.000098
vertex -720.000000 -600.000000 0.000098
vertex -720.000000 -599.999939 400.000092
endloop
endfacet
facet normal -1.000000 -0.000000 0.000000
outer loop
vertex -720.000000 600.000000 -0.000098
vertex -720.000000 -599.999939 400.000092
vertex -720.000000 600.000061 399.999908
endloop
endfacet
facet normal 0.000000 0.000000 1.000000
outer loop
vertex -600.000000 -599.999756 1600.000122
vertex -600.000000 -719.999756 1600.000122
vertex 600.000000 -719.999756 1600.000122
endloop
endfacet
facet normal 0.000000 0.000000 1.000000
outer loop
vertex 600.000000 -599.999756 1600.000122
vertex 720.000000 -599.999756 1600.000122
vertex 720.000000 600.000244 1599.999878
endloop
endfacet
facet normal 0.000000 0.000000 1.000000
outer loop
vertex -600.000000 -599.999756 1600.000122
vertex 600.000000 -719.999756 1600.000122
vertex 600.000000 -599.999756 1600.000122
endloop
endfacet
facet normal 0.000000 0.000000 1.000000
outer loop
vertex -720.000000 600.000244 1599.999878
vertex -720.000000 -599.999756 1600.000122
vertex -600.000000 -599.999756 1600.000122
endloop
endfacet
facet normal 0.000000 0.000000 1.000000
outer loop
vertex 600.000000 720.000244 1599.999878
vertex -600.000000 720.000244 1599.999878
vertex -600.000000 600.000244 1599.999878
endloop
endfacet
facet normal 0.000000 0.000000 1.000000
outer loop
vertex -600.000000 600.000244 1599.999878
vertex -720.000000 600.000244 1599.999878
vertex -600.000000 -599.999756 1600.000122
endloop
endfacet
facet normal 0.000000 0.000000 1.000000
outer loop
vertex -600.000000 -599.999756 1600.000122
vertex 600.000000 -599.999756 1600.000122
vertex 720.000000 600.000244 1599.999878
endloop
endfacet
facet normal 0.000000 0.000000 1.000000
outer loop
vertex 600.000000 600.000244 1599.999878
vertex 600.000000 720.000244 1599.999878
vertex -600.000000 600.000244 1599.999878
endloop
endfacet
facet normal 0.000000 0.000000 1.000000
outer loop
vertex -600.000000 -599.999756 1600.000122
vertex 720.000000 600.000244 1599.999878
vertex 600.000000 600.000244 1599.999878
endloop
endfacet
facet normal 0.000000 0.000000 1.000000
outer loop
vertex -600.000000 -599.999756 1600.000122
vertex 600.000000 600.000244 1599.999878
vertex -600.000000 600.000244 1599.999878
endloop
endfacet
facet normal 0.000000 -1.000000 0.000000
outer loop
vertex -720.000000 -600.000000 0.000098
vertex -600.000000 -600.000000 0.000098
vertex -600.000000 -599.999939 400.000092
endloop
endfacet
facet normal 0.000000 -1.000000 0.000000
outer loop
vertex -720.000000 -600.000000 0.000098
vertex -600.000000 -599.999939 400.000092
vertex -720.000000 -599.999939 400.000092
endloop
endfacet
facet normal 1.000000 0.000000 0.000000
outer loop
vertex 600.000000 -720.000000 0.000117
vertex 600.000000 -600.000000 0.000098
vertex 600.000000 -599.999939 400.000092
endloop
endfacet
facet normal 1.000000 -0.000000 0.000000
outer loop
vertex 600.000000 -720.000000 0.000117
vertex 600.000000 -599.999939 400.000092
vertex 600.000000 -719.999939 400.000122
endloop
endfacet
facet normal 1.000000 0.000000 0.000000
outer loop
vertex 600.000000 600.000000 -0.000098
vertex 600.000000 720.000000 -0.000117
vertex 600.000000 720.000061 399.999878
endloop
endfacet
facet normal 1.000000 -0.000000 0.000000
outer loop
vertex 600.000000 600.000000 -0.000098
vertex 600.000000 720.000061 399.999878
vertex 600.000000 600.000061 399.999908
endloop
endfacet
facet normal 0.000000 1.000000 0.000000
outer loop
vertex 720.000000 600.000000 -0.000098
vertex 600.000000 600.000000 -0.000098
vertex 600.000000 600.000061 399.999908
endloop
endfacet
facet normal 0.000000 1.000000 -0.000000
outer loop
vertex 720.000000 600.000000 -0.000098
vertex 600.000000 600.000061 399.999908
vertex 720.000000 600.000061 399.999908
endloop
endfacet
facet normal 0.000000 1.000000 0.000000
outer loop
vertex -600.000000 600.000000 -0.000098
vertex -720.000000 600.000000 -0.000098
vertex -720.000000 600.000061 399.999908
endloop
endfacet
facet normal 0.000000 1.000000 -0.000000
outer loop
vertex -600.000000 600.000000 -0.000098
vertex -720.000000 600.000061 399.999908
vertex -600.000000 600.000061 399.999908
endloop
endfacet
facet normal -1.000000 0.000000 0.000000
outer loop
vertex -600.000000 -600.000000 0.000098
vertex -600.000000 -720.000000 0.000117
vertex -600.000000 -719.999939 400.000122
endloop
endfacet
facet normal -1.000000 -0.000000 0.000000
outer loop
vertex -600.000000 -600.000000 0.000098
vertex -600.000000 -719.999939 400.000122
vertex -600.000000 -599.999939 400.000092
endloop
endfacet
facet normal 0.000000 -1.000000 0.000000
outer loop
vertex 600.000000 -600.000000 0.000098
vertex 720.000000 -600.000000 0.000098
vertex 720.000000 -599.999939 400.000092
endloop
endfacet
facet normal 0.000000 -1.000000 0.000000
outer loop
vertex 600.000000 -600.000000 0.000098
vertex 720.000000 -599.999939 400.000092
vertex 600.000000 -599.999939 400.000092
endloop
endfacet
facet normal 0.000000 1.000000 0.000000
outer loop
vertex 600.000000 720.000000 -0.000117
vertex -600.000000 720.000000 -0.000117
vertex -600.000000 720.000061 399.999878
endloop
endfacet
facet normal 0.000000 1.000000 -0.000000
outer loop
vertex 600.000000 720.000000 -0.000117
vertex -600.000000 720.000061 399.999878
vertex 600.000000 720.000061 399.999878
endloop
endfacet
facet normal 0.000000 1.000000 -0.000000
outer loop
vertex 720.000000 600.000061 399.999908
vertex 600.000000 600.000061 399.999908
vertex 600.000000 600.000122 799.999878
endloop
endfacet
facet normal 0.000000 1.000000 0.000000
outer loop
vertex 720.000000 600.000061 399.999908
vertex 600.000000 600.000122 799.999878
vertex 720.000000 600.000122 799.999878
endloop
endfacet
facet normal -1.000000 0.000000 0.000000
outer loop
vertex -600.000000 -599.999939 400.000092
vertex -600.000000 -719.999939 400.000122
vertex -600.000000 -719.999878 800.000122
endloop
endfacet
facet normal -1.000000 0.000000 0.000000
outer loop
vertex -600.000000 -599.999939 400.000092
vertex -600.000000 -719.999878 800.000122
vertex -600.000000 -599.999878 800.000122
endloop
endfacet
facet normal 0.000000 1.000000 -0.000000
outer loop
vertex -600.000000 600.000061 399.999908
vertex -720.000000 600.000061 399.999908
vertex -720.000000 600.000122 799.999878
endloop
endfacet
facet normal 0.000000 1.000000 0.000000
outer loop
vertex -600.000000 600.000061 399.999908
vertex -720.000000 600.000122 799.999878
vertex -600.000000 600.000122 799.999878
endloop
endfacet
facet normal 0.000000 -1.000000 0.000000
outer loop
vertex 600.000000 -599.999939 400.000092
vertex 720.000000 -599.999939 400.000092
vertex 720.000000 -599.999878 800.000122
endloop
endfacet
facet normal 0.000000 -1.000000 0.000000
outer loop
vertex 600.000000 -599.999939 400.000092
vertex 720.000000 -599.999878 800.000122
vertex 600.000000 -599.999878 800.000122
endloop
endfacet
facet normal 1.000000 0.000000 0.000000
outer loop
vertex 600.000000 600.000061 399.999908
vertex 600.000000 720.000061 399.999878
vertex 600.000000 720.000122 799.999878
endloop
endfacet
facet normal 1.000000 0.000000 0.000000
outer loop
vertex 600.000000 600.000061 399.999908
vertex 600.000000 720.000122 799.999878
vertex 600.000000 600.000122 799.999878
endloop
endfacet
facet normal -1.000000 0.000000 0.000000
outer loop
vertex -720.000000 600.000061 399.999908
vertex -720.000000 -599.999939 400.000092
vertex -720.000000 -599.999878 800.000122
endloop
endfacet
facet normal -1.000000 0.000000 0.000000
outer loop
vertex -720.000000 600.000061 399.999908
vertex -720.000000 -599.999878 800.000122
vertex -720.000000 600.000122 799.999878
endloop
endfacet
facet normal 0.000000 1.000000 -0.000000
outer loop
vertex 600.000000 720.000061 399.999878
vertex -600.000000 720.000061 399.999878
vertex -600.000000 720.000122 799.999878
endloop
endfacet
facet normal 0.000000 1.000000 0.000000
outer loop
vertex 600.000000 720.000061 399.999878
vertex -600.000000 720.000122 799.999878
vertex 600.000000 720.000122 799.999878
endloop
endfacet
facet normal 1.000000 0.000000 0.000000
outer loop
vertex 600.000000 -719.999939 400.000122
vertex 600.000000 -599.999939 400.000092
vertex 600.000000 -599.999878 800.000122
endloop
endfacet
facet normal 1.000000 0.000000 0.000000
outer loop
vertex 600.000000 -719.999939 400.000122
vertex 600.000000 -599.999878 800.000122
vertex 600.000000 -719.999878 800.000122
endloop
endfacet
facet normal 1.000000 0.000000 0.000000
outer loop
vertex 720.000000 -599.999939 400.000092
vertex 720.000000 600.000061 399.999908
vertex 720.000000 600.000122 799.999878
endloop
endfacet
facet normal 1.000000 0.000000 0.000000
outer loop
vertex 720.000000 -599.999939 400.000092
vertex 720.000000 600.000122 799.999878
vertex 720.000000 -599.999878 800.000122
endloop
endfacet
facet normal 0.000000 -1.000000 0.000000
outer loop
vertex -720.000000 -599.999939 400.000092
vertex -600.000000 -599.999939 400.000092
vertex -600.000000 -599.999878 800.000122
endloop
endfacet
facet normal 0.000000 -1.000000 0.000000
outer loop
vertex -720.000000 -599.999939 400.000092
vertex -600.000000 -599.999878 800.000122
vertex -720.000000 -599.999878 800.000122
endloop
endfacet
facet normal 0.000000 -1.000000 0.000000
outer loop
vertex -600.000000 -719.999939 400.000122
vertex 600.000000 -719.999939 400.000122
vertex 600.000000 -719.999878 800.000122
endloop
endfacet
facet normal 0.000000 -1.000000 0.000000
outer loop
vertex -600.000000 -719.999939 400.000122
vertex 600.000000 -719.999878 800.000122
vertex -600.000000 -719.999878 800.000122
endloop
endfacet
facet normal -1.000000 0.000000 0.000000
outer loop
vertex -600.000000 720.000061 399.999878
vertex -600.000000 600.000061 399.999908
vertex -600.000000 600.000122 799.999878
endloop
endfacet
facet normal -1.000000 0.000000 0.000000
outer loop
vertex -600.000000 720.000061 399.999878
vertex -600.000000 600.000122 799.999878
vertex -600.000000 720.000122 799.999878
endloop
endfacet
facet normal -1.000000 0.000000 0.000000
outer loop
vertex -600.000000 720.000122 799.999878
vertex -600.000000 600.000122 799.999878
vertex -600.000000 600.000183 1199.999878
endloop
endfacet
facet normal -1.000000 0.000000 0.000000
outer loop
vertex -600.000000 720.000122 799.999878
vertex -600.000000 600.000183 1199.999878
vertex -600.000000 720.000183 1199.999878
endloop
endfacet
facet normal 0.000000 1.000000 0.000000
outer loop
vertex 720.000000 600.000122 799.999878
vertex 600.000000 600.000122 799.999878
vertex 600.000000 600.000183 1199.999878
endloop
endfacet
facet normal 0.000000 1.000000 -0.000000
outer loop
vertex 720.000000 600.000122 799.999878
vertex 600.000000 600.000183 1199.999878
vertex 720.000000 600.000183 1199.999878
endloop
endfacet
facet normal 1.000000 0.000000 0.000000
outer loop
vertex 600.000000 -719.999878 800.000122
vertex 600.000000 -599.999878 800.000122
vertex 600.000000 -599.999817 1200.000122
endloop
endfacet
facet normal 1.000000 0.000000 0.000000
outer loop
vertex 600.000000 -719.999878 800.000122
vertex 600.000000 -599.999817 1200.000122
vertex 600.000000 -719.999817 1200.000122
endloop
endfacet
facet normal 0.000000 1.000000 0.000000
outer loop
vertex -600.000000 600.000122 799.999878
vertex -720.000000 600.000122 799.999878
vertex -720.000000 600.000183 1199.999878
endloop
endfacet
facet normal 0.000000 1.000000 -0.000000
outer loop
vertex -600.000000 600.000122 799.999878
vertex -720.000000 600.000183 1199.999878
vertex -600.000000 600.000183 1199.999878
endloop
endfacet
facet normal 1.000000 0.000000 0.000000
outer loop
vertex 600.000000 600.000122 799.999878
vertex 600.000000 720.000122 799.999878
vertex 600.000000 720.000183 1199.999878
endloop
endfacet
facet normal 1.000000 0.000000 0.000000
outer loop
vertex 600.000000 600.000122 799.999878
vertex 600.000000 720.000183 1199.999878
vertex 600.000000 600.000183 1199.999878
endloop
endfacet
facet normal 0.000000 -1.000000 0.000000
outer loop
vertex 600.000000 -599.999878 800.000122
vertex 720.000000 -599.999878 800.000122
vertex 720.000000 -599.999817 1200.000122
endloop
endfacet
facet normal 0.000000 -1.000000 0.000000
outer loop
vertex 600.000000 -599.999878 800.000122
vertex 720.000000 -599.999817 1200.000122
vertex 600.000000 -599.999817 1200.000122
endloop
endfacet
facet normal -1.000000 0.000000 0.000000
outer loop
vertex -720.000000 600.000122 799.999878
vertex -720.000000 -599.999878 800.000122
vertex -720.000000 -599.999817 1200.000122
endloop
endfacet
facet normal -1.000000 0.000000 0.000000
outer loop
vertex -720.000000 600.000122 799.999878
vertex -720.000000 -599.999817 1200.000122
vertex -720.000000 600.000183 1199.999878
endloop
endfacet
facet normal -1.000000 0.000000 0.000000
outer loop
vertex -600.000000 -599.999878 800.000122
vertex -600.000000 -719.999878 800.000122
vertex -600.000000 -719.999817 1200.000122
endloop
endfacet
facet normal -1.000000 0.000000 0.000000
outer loop
vertex -600.000000 -599.999878 800.000122
vertex -600.000000 -719.999817 1200.000122
vertex -600.000000 -599.999817 1200.000122
endloop
endfacet
facet normal 0.000000 1.000000 0.000000
outer loop
vertex 600.000000 720.000122 799.999878
vertex -600.000000 720.000122 799.999878
vertex -600.000000 720.000183 1199.999878
endloop
endfacet
facet normal 0.000000 1.000000 -0.000001
outer loop
vertex 600.000000 720.000122 799.999878
vertex -600.000000 720.000183 1199.999878
vertex 600.000000 720.000183 1199.999878
endloop
endfacet
facet normal 1.000000 0.000000 0.000000
outer loop
vertex 720.000000 -599.999878 800.000122
vertex 720.000000 600.000122 799.999878
vertex 720.000000 600.000183 1199.999878
endloop
endfacet
facet normal 1.000000 0.000000 0.000000
outer loop
vertex 720.000000 -599.999878 800.000122
vertex 720.000000 600.000183 1199.999878
vertex 720.000000 -599.999817 1200.000122
endloop
endfacet
facet normal 0.000000 -1.000000 0.000000
outer loop
vertex -720.000000 -599.999878 800.000122
vertex -600.000000 -599.999878 800.000122
vertex -600.000000 -599.999817 1200.000122
endloop
endfacet
facet normal 0.000000 -1.000000 0.000000
outer loop
vertex -720.000000 -599.999878 800.000122
vertex -600.000000 -599.999817 1200.000122
vertex -720.000000 -599.999817 1200.000122
endloop
endfacet
facet normal 0.000000 -1.000000 0.000000
outer loop
vertex -600.000000 -719.999878 800.000122
vertex 600.000000 -719.999878 800.000122
vertex 600.000000 -719.999817 1200.000122
endloop
endfacet
facet normal 0.000000 -1.000000 0.000001
outer loop
vertex -600.000000 -719.999878 800.000122
vertex 600.000000 -719.999817 1200.000122
vertex -600.000000 -719.999817 1200.000122
endloop
endfacet
facet normal 0.000000 -1.000000 0.000000
outer loop
vertex -600.000000 -719.999817 1200.000122
vertex 600.000000 -719.999817 1200.000122
vertex 600.000000 -719.999756 1600.000122
endloop
endfacet
facet normal 0.000000 -1.000000 0.000000
outer loop
vertex -600.000000 -719.999817 1200.000122
vertex 600.000000 -719.999756 1600.000122
vertex -600.000000 -719.999756 1600.000122
endloop
endfacet
facet normal -1.000000 0.000000 0.000000
outer loop
vertex -600.000000 720.000183 1199.999878
vertex -600.000000 600.000183 1199.999878
vertex -600.000000 600.000244 1599.999878
endloop
endfacet
facet normal -1.000000 0.000000 0.000000
outer loop
vertex -600.000000 720.000183 1199.999878
vertex -600.000000 600.000244 1599.999878
vertex -600.000000 720.000244 1599.999878
endloop
endfacet
facet normal 0.000000 1.000000 -0.000000
outer loop
vertex 720.000000 600.000183 1199.999878
vertex 600.000000 600.000183 1199.999878
vertex 600.000000 600.000244 1599.999878
endloop
endfacet
facet normal 0.000000 1.000000 0.000000
outer loop
vertex 720.000000 600.000183 1199.999878
vertex 600.000000 600.000244 1599.999878
vertex 720.000000 600.000244 1599.999878
endloop
endfacet
facet normal 1.000000 0.000000 0.000000
outer loop
vertex 600.000000 -719.999817 1200.000122
vertex 600.000000 -599.999817 1200.000122
vertex 600.000000 -599.999756 1600.000122
endloop
endfacet
facet normal 1.000000 0.000000 0.000000
outer loop
vertex 600.000000 -719.999817 1200.000122
vertex 600.000000 -599.999756 1600.000122
vertex 600.000000 -719.999756 1600.000122
endloop
endfacet
facet normal 0.000000 1.000000 -0.000000
outer loop
vertex -600.000000 600.000183 1199.999878
vertex -720.000000 600.000183 1199.999878
vertex -720.000000 600.000244 1599.999878
endloop
endfacet
facet normal 0.000000 1.000000 0.000000
outer loop
vertex -600.000000 600.000183 1199.999878
vertex -720.000000 600.000244 1599.999878
vertex -600.000000 600.000244 1599.999878
endloop
endfacet
facet normal 1.000000 0.000000 0.000000
outer loop
vertex 600.000000 600.000183 1199.999878
vertex 600.000000 720.000183 1199.999878
vertex 600.000000 720.000244 1599.999878
endloop
endfacet
facet normal 1.000000 0.000000 0.000000
outer loop
vertex 600.000000 600.000183 1199.999878
vertex 600.000000 720.000244 1599.999878
vertex 600.000000 600.000244 1599.999878
endloop
endfacet
facet normal 0.000000 -1.000000 0.000000
outer loop
vertex 600.000000 -599.999817 1200.000122
vertex 720.000000 -599.999817 1200.000122
vertex 720.000000 -599.999756 1600.000122
endloop
endfacet
facet normal 0.000000 -1.000000 0.000000
outer loop
vertex 600.000000 -599.999817 1200.000122
vertex 720.000000 -599.999756 1600.000122
vertex 600.000000 -599.999756 1600.000122
endloop
endfacet
facet normal -1.000000 0.000000 0.000000
outer loop
vertex -720.000000 600.000183 1199.999878
vertex -720.000000 -599.999817 1200.000122
vertex -720.000000 -599.999756 1600.000122
endloop
endfacet
facet normal -1.000000 0.000000 0.000000
outer loop
vertex -720.000000 600.000183 1199.999878
vertex -720.000000 -599.999756 1600.000122
vertex -720.000000 600.000244 1599.999878
endloop
endfacet
facet normal -1.000000 0.000000 0.000000
outer loop
vertex -600.000000 -599.999817 1200.000122
vertex -600.000000 -719.999817 1200.000122
vertex -600.000000 -719.999756 1600.000122
endloop
endfacet
facet normal -1.000000 0.000000 0.000000
outer loop
vertex -600.000000 -599.999817 1200.000122
vertex -600.000000 -719.999756 1600.000122
vertex -600.000000 -599.999756 1600.000122
endloop
endfacet
facet normal 0.000000 1.000000 -0.000000
outer loop
vertex 600.000000 720.000183 1199.999878
vertex -600.000000 720.000183 1199.999878
vertex -600.000000 720.000244 1599.999878
endloop
endfacet
facet normal 0.000000 1.000000 0.000000
outer loop
vertex 600.000000 720.000183 1199.999878
vertex -600.000000 720.000244 1599.999878
vertex 600.000000 720.000244 1599.999878
endloop
endfacet
facet normal 1.000000 0.000000 0.000000
outer loop
vertex 720.000000 -599.999817 1200.000122
vertex 720.000000 600.000183 1199.999878
vertex 720.000000 600.000244 1599.999878
endloop
endfacet
facet normal 1.000000 0.000000 0.000000
outer loop
vertex 720.000000 -599.999817 1200.000122
vertex 720.000000 600.000244 1599.999878
vertex 720.000000 -599.999756 1600.000122
endloop
endfacet
facet normal 0.000000 -1.000000 0.000000
outer loop
vertex -720.000000 -599.999817 1200.000122
vertex -600.000000 -599.999817 1200.000122
vertex -600.000000 -599.999756 1600.000122
endloop
endfacet
facet normal 0.000000 -1.000000 0.000000
outer loop
vertex -720.000000 -599.999817 1200.000122
vertex -600.000000 -599.999756 1600.000122
vertex -720.000000 -599.999756 1600.000122
endloop
endfacet
endsolid building_018.001
