solid building_003.001
facet normal 0.000000 1.000000 -0.000000
outer loop
vertex 500.000000 500.000031 249.999924
vertex -500.000000 500.000031 249.999924
vertex -500.000000 500.000092 499.999908
endloop
endfacet
facet normal 0.000000 1.000000 -0.000000
outer loop
vertex 500.000000 500.000031 249.999924
vertex -500.000000 500.000092 499.999908
vertex 500.000000 500.000092 499.999908
endloop
endfacet
facet normal 0.000000 1.000000 0.000000
outer loop
vertex -500.000000 600.000000 -0.000098
vertex -600.000000 600.000000 -0.000098
vertex -600.000000 600.000061 249.999908
endloop
endfacet
facet normal 0.000000 1.000000 -0.000001
outer loop
vertex -500.000000 600.000000 -0.000098
vertex -600.000000 600.000061 249.999908
vertex -500.000000 600.000061 249.999908
endloop
endfacet
facet normal 0.000000 -1.000000 0.000000
outer loop
vertex 500.000000 -600.000000 0.000098
vertex 600.000000 -600.000000 0.000098
vertex 600.000000 -599.999939 250.000092
endloop
endfacet
facet normal 0.000000 -1.000000 0.000001
outer loop
vertex 500.000000 -600.000000 0.000098
vertex 600.000000 -599.999939 250.000092
vertex 500.000000 -599.999939 250.000092
endloop
endfacet
facet normal 0.000000 -1.000000 0.000000
outer loop
vertex -500.000000 -500.000000 0.000081
vertex 500.000000 -500.000000 0.000081
vertex 500.000000 -499.999969 250.000076
endloop
endfacet
facet normal 0.000000 -1.000000 0.000000
outer loop
vertex -500.000000 -500.000000 0.000081
vertex 500.000000 -499.999969 250.000076
vertex -500.000000 -499.999969 250.000076
endloop
endfacet
facet normal 1.000000 -0.000000 0.000000
outer loop
vertex 600.000000 600.000000 -0.000098
vertex 600.000000 600.000061 249.999908
vertex 600.000000 -599.999939 250.000092
endloop
endfacet
facet normal 1.000000 0.000000 0.000000
outer loop
vertex 600.000000 600.000000 -0.000098
vertex 600.000000 -599.999939 250.000092
vertex 600.000000 -600.000000 0.000098
endloop
endfacet
facet normal -1.000000 0.000000 0.000000
outer loop
vertex -600.000000 600.000000 -0.000098
vertex -600.000000 -600.000000 0.000098
vertex -600.000000 -599.999939 250.000092
endloop
endfacet
facet normal -1.000000 -0.000000 0.000000
outer loop
vertex -600.000000 600.000000 -0.000098
vertex -600.000000 -599.999939 250.000092
vertex -600.000000 600.000061 249.999908
endloop
endfacet
facet normal 0.000000 -1.000000 0.000000
outer loop
vertex 500.000000 -599.999939 250.000092
vertex 600.000000 -599.999939 250.000092
vertex 600.000000 -599.999939 500.000092
endloop
endfacet
facet normal 0.000000 -1.000000 0.000000
outer loop
vertex 500.000000 -599.999939 250.000092
vertex 600.000000 -599.999939 500.000092
vertex 500.000000 -599.999939 500.000092
endloop
endfacet
facet normal 0.000000 1.000000 0.000000
outer loop
vertex 500.000000 500.000000 -0.000081
vertex -500.000000 500.000000 -0.000081
vertex -500.000000 500.000031 249.999924
endloop
endfacet
facet normal 0.000000 1.000000 -0.000000
outer loop
vertex 500.000000 500.000000 -0.000081
vertex -500.000000 500.000031 249.999924
vertex 500.000000 500.000031 249.999924
endloop
endfacet
facet normal 1.000000 0.000000 0.000000
outer loop
vertex -500.000000 500.000000 -0.000081
vertex -500.000000 600.000000 -0.000098
vertex -500.000000 600.000061 249.999908
endloop
endfacet
facet normal 1.000000 -0.000000 0.000000
outer loop
vertex -500.000000 500.000000 -0.000081
vertex -500.000000 600.000061 249.999908
vertex -500.000000 500.000031 249.999924
endloop
endfacet
facet normal 0.000000 0.000000 1.000000
outer loop
vertex 500.000000 -499.999420 3500.000000
vertex 500.000000 -599.999451 3500.000000
vertex 600.000000 -599.999451 3500.000000
endloop
endfacet
facet normal 0.000000 0.000000 1.000000
outer loop
vertex 600.000000 -599.999451 3500.000000
vertex 600.000000 600.000549 3500.000000
vertex 500.000000 600.000549 3500.000000
endloop
endfacet
facet normal -0.000019 0.000000 1.000000
outer loop
vertex 600.000000 -599.999451 3500.000000
vertex 500.000000 600.000549 3500.000000
vertex 500.000000 500.000580 3500.000000
endloop
endfacet
facet normal 0.000000 0.000000 1.000000
outer loop
vertex 500.000000 -499.999420 3500.000000
vertex 600.000000 -599.999451 3500.000000
vertex 500.000000 500.000580 3500.000000
endloop
endfacet
facet normal 0.000000 0.000000 1.000000
outer loop
vertex -500.000000 500.000580 3500.000000
vertex -500.000000 600.000549 3500.000000
vertex -600.000000 600.000549 3500.000000
endloop
endfacet
facet normal 0.000000 0.000000 1.000000
outer loop
vertex 500.000000 -499.999420 3500.000000
vertex 500.000000 500.000580 3500.000000
vertex -500.000000 500.000580 3500.000000
endloop
endfacet
facet normal 0.000000 0.000000 1.000000
outer loop
vertex -600.000000 -599.999451 3500.000000
vertex -500.000000 -599.999451 3500.000000
vertex -500.000000 -499.999420 3500.000000
endloop
endfacet
facet normal 0.000000 0.000000 1.000000
outer loop
vertex -500.000000 -499.999420 3500.000000
vertex 500.000000 -499.999420 3500.000000
vertex -500.000000 500.000580 3500.000000
endloop
endfacet
facet normal 0.000000 0.000000 1.000000
outer loop
vertex -500.000000 500.000580 3500.000000
vertex -600.000000 600.000549 3500.000000
vertex -600.000000 -599.999451 3500.000000
endloop
endfacet
facet normal 0.000000 0.000000 1.000000
outer loop
vertex -500.000000 -499.999420 3500.000000
vertex -500.000000 500.000580 3500.000000
vertex -600.000000 -599.999451 3500.000000
endloop
endfacet
facet normal 1.000000 0.000000 0.000000
outer loop
vertex -500.000000 500.000031 249.999924
vertex -500.000000 600.000061 249.999908
vertex -500.000000 600.000061 499.999908
endloop
endfacet
facet normal 1.000000 0.000000 0.000000
outer loop
vertex -500.000000 500.000031 249.999924
vertex -500.000000 600.000061 499.999908
vertex -500.000000 500.000092 499.999908
endloop
endfacet
facet normal 0.000000 1.000000 0.000000
outer loop
vertex 600.000000 600.000000 -0.000098
vertex 500.000000 600.000000 -0.000098
vertex 500.000000 600.000061 249.999908
endloop
endfacet
facet normal 0.000000 1.000000 -0.000001
outer loop
vertex 600.000000 600.000000 -0.000098
vertex 500.000000 600.000061 249.999908
vertex 600.000000 600.000061 249.999908
endloop
endfacet
facet normal -1.000000 0.000000 0.000000
outer loop
vertex 500.000000 -500.000000 0.000081
vertex 500.000000 -600.000000 0.000098
vertex 500.000000 -599.999939 250.000092
endloop
endfacet
facet normal -1.000000 -0.000000 0.000000
outer loop
vertex 500.000000 -500.000000 0.000081
vertex 500.000000 -599.999939 250.000092
vertex 500.000000 -499.999969 250.000076
endloop
endfacet
facet normal -1.000000 0.000000 0.000000
outer loop
vertex 500.000000 600.000000 -0.000098
vertex 500.000000 500.000000 -0.000081
vertex 500.000000 500.000031 249.999924
endloop
endfacet
facet normal -1.000000 -0.000000 0.000000
outer loop
vertex 500.000000 600.000000 -0.000098
vertex 500.000000 500.000031 249.999924
vertex 500.000000 600.000061 249.999908
endloop
endfacet
facet normal 0.000000 -1.000000 0.000000
outer loop
vertex -600.000000 -600.000000 0.000098
vertex -500.000000 -600.000000 0.000098
vertex -500.000000 -599.999939 250.000092
endloop
endfacet
facet normal 0.000000 -1.000000 0.000001
outer loop
vertex -600.000000 -600.000000 0.000098
vertex -500.000000 -599.999939 250.000092
vertex -600.000000 -599.999939 250.000092
endloop
endfacet
facet normal 1.000000 0.000000 0.000000
outer loop
vertex -500.000000 -599.999939 250.000092
vertex -500.000000 -499.999969 250.000076
vertex -500.000000 -499.999908 500.000092
endloop
endfacet
facet normal 1.000000 0.000000 0.000000
outer loop
vertex -500.000000 -599.999939 250.000092
vertex -500.000000 -499.999908 500.000092
vertex -500.000000 -599.999939 500.000092
endloop
endfacet
facet normal 1.000000 0.000000 0.000000
outer loop
vertex -500.000000 -600.000000 0.000098
vertex -500.000000 -500.000000 0.000081
vertex -500.000000 -499.999969 250.000076
endloop
endfacet
facet normal 1.000000 -0.000000 0.000000
outer loop
vertex -500.000000 -600.000000 0.000098
vertex -500.000000 -499.999969 250.000076
vertex -500.000000 -599.999939 250.000092
endloop
endfacet
facet normal 0.000000 1.000000 0.000000
outer loop
vertex 600.000000 600.000061 249.999908
vertex 500.000000 600.000061 249.999908
vertex 500.000000 600.000061 499.999908
endloop
endfacet
facet normal 0.000000 1.000000 0.000000
outer loop
vertex 600.000000 600.000061 249.999908
vertex 500.000000 600.000061 499.999908
vertex 600.000000 600.000061 499.999908
endloop
endfacet
facet normal 0.000000 -1.000000 0.000000
outer loop
vertex -500.000000 -499.999969 250.000076
vertex 500.000000 -499.999969 250.000076
vertex 500.000000 -499.999908 500.000092
endloop
endfacet
facet normal 0.000000 -1.000000 0.000000
outer loop
vertex -500.000000 -499.999969 250.000076
vertex 500.000000 -499.999908 500.000092
vertex -500.000000 -499.999908 500.000092
endloop
endfacet
facet normal -1.000000 0.000000 0.000000
outer loop
vertex -600.000000 600.000061 249.999908
vertex -600.000000 -599.999939 250.000092
vertex -600.000000 -599.999939 500.000092
endloop
endfacet
facet normal -1.000000 -0.000000 0.000000
outer loop
vertex -600.000000 600.000061 249.999908
vertex -600.000000 -599.999939 500.000092
vertex -600.000000 600.000061 499.999908
endloop
endfacet
facet normal 1.000000 0.000000 0.000000
outer loop
vertex 600.000000 -599.999939 250.000092
vertex 600.000000 600.000061 249.999908
vertex 600.000000 600.000061 499.999908
endloop
endfacet
facet normal 1.000000 -0.000000 0.000000
outer loop
vertex 600.000000 -599.999939 250.000092
vertex 600.000000 600.000061 499.999908
vertex 600.000000 -599.999939 500.000092
endloop
endfacet
facet normal 0.000000 1.000000 0.000000
outer loop
vertex -500.000000 600.000061 249.999908
vertex -600.000000 600.000061 249.999908
vertex -600.000000 600.000061 499.999908
endloop
endfacet
facet normal 0.000000 1.000000 0.000000
outer loop
vertex -500.000000 600.000061 249.999908
vertex -600.000000 600.000061 499.999908
vertex -500.000000 600.000061 499.999908
endloop
endfacet
facet normal -1.000000 0.000000 0.000000
outer loop
vertex 500.000000 -499.999969 250.000076
vertex 500.000000 -599.999939 250.000092
vertex 500.000000 -599.999939 500.000092
endloop
endfacet
facet normal -1.000000 0.000000 0.000000
outer loop
vertex 500.000000 -499.999969 250.000076
vertex 500.000000 -599.999939 500.000092
vertex 500.000000 -499.999908 500.000092
endloop
endfacet
facet normal -1.000000 0.000000 0.000000
outer loop
vertex 500.000000 600.000061 249.999908
vertex 500.000000 500.000031 249.999924
vertex 500.000000 500.000092 499.999908
endloop
endfacet
facet normal -1.000000 0.000000 0.000000
outer loop
vertex 500.000000 600.000061 249.999908
vertex 500.000000 500.000092 499.999908
vertex 500.000000 600.000061 499.999908
endloop
endfacet
facet normal 0.000000 -1.000000 0.000000
outer loop
vertex -600.000000 -599.999939 250.000092
vertex -500.000000 -599.999939 250.000092
vertex -500.000000 -599.999939 500.000092
endloop
endfacet
facet normal 0.000000 -1.000000 0.000000
outer loop
vertex -600.000000 -599.999939 250.000092
vertex -500.000000 -599.999939 500.000092
vertex -600.000000 -599.999939 500.000092
endloop
endfacet
facet normal -1.000000 0.000000 0.000000
outer loop
vertex 500.000000 -499.999908 500.000092
vertex 500.000000 -599.999939 500.000092
vertex 500.000000 -599.999878 750.000122
endloop
endfacet
facet normal -1.000000 -0.000000 0.000000
outer loop
vertex 500.000000 -499.999908 500.000092
vertex 500.000000 -599.999878 750.000122
vertex 500.000000 -499.999878 750.000061
endloop
endfacet
facet normal 0.000000 -1.000000 0.000000
outer loop
vertex 500.000000 -599.999939 500.000092
vertex 600.000000 -599.999939 500.000092
vertex 600.000000 -599.999878 750.000122
endloop
endfacet
facet normal 0.000000 -1.000000 0.000000
outer loop
vertex 500.000000 -599.999939 500.000092
vertex 600.000000 -599.999878 750.000122
vertex 500.000000 -599.999878 750.000122
endloop
endfacet
facet normal 0.000000 1.000000 -0.000000
outer loop
vertex 500.000000 500.000092 499.999908
vertex -500.000000 500.000092 499.999908
vertex -500.000000 500.000122 749.999939
endloop
endfacet
facet normal 0.000000 1.000000 0.000000
outer loop
vertex 500.000000 500.000092 499.999908
vertex -500.000000 500.000122 749.999939
vertex 500.000000 500.000122 749.999939
endloop
endfacet
facet normal -1.000000 0.000000 0.000000
outer loop
vertex 500.000000 600.000061 499.999908
vertex 500.000000 500.000092 499.999908
vertex 500.000000 500.000122 749.999939
endloop
endfacet
facet normal -1.000000 -0.000000 0.000000
outer loop
vertex 500.000000 600.000061 499.999908
vertex 500.000000 500.000122 749.999939
vertex 500.000000 600.000122 749.999878
endloop
endfacet
facet normal 1.000000 0.000000 0.000000
outer loop
vertex -500.000000 500.000092 499.999908
vertex -500.000000 600.000061 499.999908
vertex -500.000000 600.000122 749.999878
endloop
endfacet
facet normal 1.000000 -0.000000 0.000000
outer loop
vertex -500.000000 500.000092 499.999908
vertex -500.000000 600.000122 749.999878
vertex -500.000000 500.000122 749.999939
endloop
endfacet
facet normal 0.000000 1.000000 -0.000000
outer loop
vertex 600.000000 600.000061 499.999908
vertex 500.000000 600.000061 499.999908
vertex 500.000000 600.000122 749.999878
endloop
endfacet
facet normal 0.000000 1.000000 0.000000
outer loop
vertex 600.000000 600.000061 499.999908
vertex 500.000000 600.000122 749.999878
vertex 600.000000 600.000122 749.999878
endloop
endfacet
facet normal 0.000000 -1.000000 0.000000
outer loop
vertex -500.000000 -499.999908 500.000092
vertex 500.000000 -499.999908 500.000092
vertex 500.000000 -499.999878 750.000061
endloop
endfacet
facet normal 0.000000 -1.000000 0.000000
outer loop
vertex -500.000000 -499.999908 500.000092
vertex 500.000000 -499.999878 750.000061
vertex -500.000000 -499.999878 750.000061
endloop
endfacet
facet normal -1.000000 0.000000 0.000000
outer loop
vertex -600.000000 600.000061 499.999908
vertex -600.000000 -599.999939 500.000092
vertex -600.000000 -599.999878 750.000122
endloop
endfacet
facet normal -1.000000 -0.000000 0.000000
outer loop
vertex -600.000000 600.000061 499.999908
vertex -600.000000 -599.999878 750.000122
vertex -600.000000 600.000122 749.999878
endloop
endfacet
facet normal 1.000000 0.000000 0.000000
outer loop
vertex -500.000000 -599.999939 500.000092
vertex -500.000000 -499.999908 500.000092
vertex -500.000000 -499.999878 750.000061
endloop
endfacet
facet normal 1.000000 -0.000000 0.000000
outer loop
vertex -500.000000 -599.999939 500.000092
vertex -500.000000 -499.999878 750.000061
vertex -500.000000 -599.999878 750.000122
endloop
endfacet
facet normal 1.000000 0.000000 0.000000
outer loop
vertex 600.000000 -599.999939 500.000092
vertex 600.000000 600.000061 499.999908
vertex 600.000000 600.000122 749.999878
endloop
endfacet
facet normal 1.000000 -0.000000 0.000000
outer loop
vertex 600.000000 -599.999939 500.000092
vertex 600.000000 600.000122 749.999878
vertex 600.000000 -599.999878 750.000122
endloop
endfacet
facet normal 0.000000 -1.000000 0.000000
outer loop
vertex -600.000000 -599.999939 500.000092
vertex -500.000000 -599.999939 500.000092
vertex -500.000000 -599.999878 750.000122
endloop
endfacet
facet normal 0.000000 -1.000000 0.000000
outer loop
vertex -600.000000 -599.999939 500.000092
vertex -500.000000 -599.999878 750.000122
vertex -600.000000 -599.999878 750.000122
endloop
endfacet
facet normal 0.000000 1.000000 -0.000000
outer loop
vertex -500.000000 600.000061 499.999908
vertex -600.000000 600.000061 499.999908
vertex -600.000000 600.000122 749.999878
endloop
endfacet
facet normal 0.000000 1.000000 0.000000
outer loop
vertex -500.000000 600.000061 499.999908
vertex -600.000000 600.000122 749.999878
vertex -500.000000 600.000122 749.999878
endloop
endfacet
facet normal -1.000000 0.000000 0.000000
outer loop
vertex 500.000000 -499.999878 750.000061
vertex 500.000000 -599.999878 750.000122
vertex 500.000000 -599.999817 1000.000122
endloop
endfacet
facet normal -1.000000 -0.000000 0.000000
outer loop
vertex 500.000000 -499.999878 750.000061
vertex 500.000000 -599.999817 1000.000122
vertex 500.000000 -499.999847 1000.000061
endloop
endfacet
facet normal 0.000000 1.000000 0.000000
outer loop
vertex -500.000000 600.000122 749.999878
vertex -600.000000 600.000122 749.999878
vertex -600.000000 600.000183 999.999878
endloop
endfacet
facet normal 0.000000 1.000000 -0.000001
outer loop
vertex -500.000000 600.000122 749.999878
vertex -600.000000 600.000183 999.999878
vertex -500.000000 600.000183 999.999878
endloop
endfacet
facet normal -1.000000 0.000000 0.000000
outer loop
vertex 500.000000 600.000122 749.999878
vertex 500.000000 500.000122 749.999939
vertex 500.000000 500.000153 999.999939
endloop
endfacet
facet normal -1.000000 -0.000000 0.000000
outer loop
vertex 500.000000 600.000122 749.999878
vertex 500.000000 500.000153 999.999939
vertex 500.000000 600.000183 999.999878
endloop
endfacet
facet normal 0.000000 -1.000000 0.000000
outer loop
vertex 500.000000 -599.999878 750.000122
vertex 600.000000 -599.999878 750.000122
vertex 600.000000 -599.999817 1000.000122
endloop
endfacet
facet normal 0.000000 -1.000000 0.000001
outer loop
vertex 500.000000 -599.999878 750.000122
vertex 600.000000 -599.999817 1000.000122
vertex 500.000000 -599.999817 1000.000122
endloop
endfacet
facet normal -1.000000 0.000000 0.000000
outer loop
vertex -600.000000 600.000122 749.999878
vertex -600.000000 -599.999878 750.000122
vertex -600.000000 -599.999817 1000.000122
endloop
endfacet
facet normal -1.000000 -0.000000 0.000000
outer loop
vertex -600.000000 600.000122 749.999878
vertex -600.000000 -599.999817 1000.000122
vertex -600.000000 600.000183 999.999878
endloop
endfacet
facet normal 0.000000 1.000000 0.000000
outer loop
vertex 500.000000 500.000122 749.999939
vertex -500.000000 500.000122 749.999939
vertex -500.000000 500.000153 999.999939
endloop
endfacet
facet normal 0.000000 1.000000 -0.000000
outer loop
vertex 500.000000 500.000122 749.999939
vertex -500.000000 500.000153 999.999939
vertex 500.000000 500.000153 999.999939
endloop
endfacet
facet normal 1.000000 0.000000 0.000000
outer loop
vertex 600.000000 -599.999878 750.000122
vertex 600.000000 600.000122 749.999878
vertex 600.000000 600.000183 999.999878
endloop
endfacet
facet normal 1.000000 -0.000000 0.000000
outer loop
vertex 600.000000 -599.999878 750.000122
vertex 600.000000 600.000183 999.999878
vertex 600.000000 -599.999817 1000.000122
endloop
endfacet
facet normal 0.000000 -1.000000 0.000000
outer loop
vertex -600.000000 -599.999878 750.000122
vertex -500.000000 -599.999878 750.000122
vertex -500.000000 -599.999817 1000.000122
endloop
endfacet
facet normal 0.000000 -1.000000 0.000001
outer loop
vertex -600.000000 -599.999878 750.000122
vertex -500.000000 -599.999817 1000.000122
vertex -600.000000 -599.999817 1000.000122
endloop
endfacet
facet normal 0.000000 -1.000000 0.000000
outer loop
vertex -500.000000 -499.999878 750.000061
vertex 500.000000 -499.999878 750.000061
vertex 500.000000 -499.999847 1000.000061
endloop
endfacet
facet normal 0.000000 -1.000000 0.000000
outer loop
vertex -500.000000 -499.999878 750.000061
vertex 500.000000 -499.999847 1000.000061
vertex -500.000000 -499.999847 1000.000061
endloop
endfacet
facet normal 1.000000 0.000000 0.000000
outer loop
vertex -500.000000 500.000122 749.999939
vertex -500.000000 600.000122 749.999878
vertex -500.000000 600.000183 999.999878
endloop
endfacet
facet normal 1.000000 -0.000000 0.000000
outer loop
vertex -500.000000 500.000122 749.999939
vertex -500.000000 600.000183 999.999878
vertex -500.000000 500.000153 999.999939
endloop
endfacet
facet normal 0.000000 1.000000 0.000000
outer loop
vertex 600.000000 600.000122 749.999878
vertex 500.000000 600.000122 749.999878
vertex 500.000000 600.000183 999.999878
endloop
endfacet
facet normal 0.000000 1.000000 -0.000001
outer loop
vertex 600.000000 600.000122 749.999878
vertex 500.000000 600.000183 999.999878
vertex 600.000000 600.000183 999.999878
endloop
endfacet
facet normal 1.000000 0.000000 0.000000
outer loop
vertex -500.000000 -599.999878 750.000122
vertex -500.000000 -499.999878 750.000061
vertex -500.000000 -499.999847 1000.000061
endloop
endfacet
facet normal 1.000000 -0.000000 0.000000
outer loop
vertex -500.000000 -599.999878 750.000122
vertex -500.000000 -499.999847 1000.000061
vertex -500.000000 -599.999817 1000.000122
endloop
endfacet
facet normal 1.000000 0.000000 0.000000
outer loop
vertex -500.000000 -599.999817 1000.000122
vertex -500.000000 -499.999847 1000.000061
vertex -500.000000 -499.999786 1250.000122
endloop
endfacet
facet normal 1.000000 0.000000 0.000000
outer loop
vertex -500.000000 -599.999817 1000.000122
vertex -500.000000 -499.999786 1250.000122
vertex -500.000000 -599.999817 1250.000122
endloop
endfacet
facet normal -1.000000 0.000000 0.000000
outer loop
vertex 500.000000 -499.999847 1000.000061
vertex 500.000000 -599.999817 1000.000122
vertex 500.000000 -599.999817 1250.000122
endloop
endfacet
facet normal -1.000000 0.000000 0.000000
outer loop
vertex 500.000000 -499.999847 1000.000061
vertex 500.000000 -599.999817 1250.000122
vertex 500.000000 -499.999786 1250.000122
endloop
endfacet
facet normal 0.000000 1.000000 0.000000
outer loop
vertex -500.000000 600.000183 999.999878
vertex -600.000000 600.000183 999.999878
vertex -600.000000 600.000183 1249.999878
endloop
endfacet
facet normal 0.000000 1.000000 0.000000
outer loop
vertex -500.000000 600.000183 999.999878
vertex -600.000000 600.000183 1249.999878
vertex -500.000000 600.000183 1249.999878
endloop
endfacet
facet normal -1.000000 0.000000 0.000000
outer loop
vertex 500.000000 600.000183 999.999878
vertex 500.000000 500.000153 999.999939
vertex 500.000000 500.000214 1249.999878
endloop
endfacet
facet normal -1.000000 0.000000 0.000000
outer loop
vertex 500.000000 600.000183 999.999878
vertex 500.000000 500.000214 1249.999878
vertex 500.000000 600.000183 1249.999878
endloop
endfacet
facet normal 0.000000 -1.000000 0.000000
outer loop
vertex 500.000000 -599.999817 1000.000122
vertex 600.000000 -599.999817 1000.000122
vertex 600.000000 -599.999817 1250.000122
endloop
endfacet
facet normal 0.000000 -1.000000 0.000000
outer loop
vertex 500.000000 -599.999817 1000.000122
vertex 600.000000 -599.999817 1250.000122
vertex 500.000000 -599.999817 1250.000122
endloop
endfacet
facet normal -1.000000 0.000000 0.000000
outer loop
vertex -600.000000 600.000183 999.999878
vertex -600.000000 -599.999817 1000.000122
vertex -600.000000 -599.999817 1250.000122
endloop
endfacet
facet normal -1.000000 -0.000000 0.000000
outer loop
vertex -600.000000 600.000183 999.999878
vertex -600.000000 -599.999817 1250.000122
vertex -600.000000 600.000183 1249.999878
endloop
endfacet
facet normal 0.000000 1.000000 -0.000000
outer loop
vertex 500.000000 500.000153 999.999939
vertex -500.000000 500.000153 999.999939
vertex -500.000000 500.000214 1249.999878
endloop
endfacet
facet normal 0.000000 1.000000 -0.000000
outer loop
vertex 500.000000 500.000153 999.999939
vertex -500.000000 500.000214 1249.999878
vertex 500.000000 500.000214 1249.999878
endloop
endfacet
facet normal 1.000000 0.000000 0.000000
outer loop
vertex 600.000000 -599.999817 1000.000122
vertex 600.000000 600.000183 999.999878
vertex 600.000000 600.000183 1249.999878
endloop
endfacet
facet normal 1.000000 -0.000000 0.000000
outer loop
vertex 600.000000 -599.999817 1000.000122
vertex 600.000000 600.000183 1249.999878
vertex 600.000000 -599.999817 1250.000122
endloop
endfacet
facet normal 0.000000 -1.000000 0.000000
outer loop
vertex -600.000000 -599.999817 1000.000122
vertex -500.000000 -599.999817 1000.000122
vertex -500.000000 -599.999817 1250.000122
endloop
endfacet
facet normal 0.000000 -1.000000 0.000000
outer loop
vertex -600.000000 -599.999817 1000.000122
vertex -500.000000 -599.999817 1250.000122
vertex -600.000000 -599.999817 1250.000122
endloop
endfacet
facet normal 0.000000 -1.000000 0.000000
outer loop
vertex -500.000000 -499.999847 1000.000061
vertex 500.000000 -499.999847 1000.000061
vertex 500.000000 -499.999786 1250.000122
endloop
endfacet
facet normal 0.000000 -1.000000 0.000000
outer loop
vertex -500.000000 -499.999847 1000.000061
vertex 500.000000 -499.999786 1250.000122
vertex -500.000000 -499.999786 1250.000122
endloop
endfacet
facet normal 1.000000 0.000000 0.000000
outer loop
vertex -500.000000 500.000153 999.999939
vertex -500.000000 600.000183 999.999878
vertex -500.000000 600.000183 1249.999878
endloop
endfacet
facet normal 1.000000 0.000000 0.000000
outer loop
vertex -500.000000 500.000153 999.999939
vertex -500.000000 600.000183 1249.999878
vertex -500.000000 500.000214 1249.999878
endloop
endfacet
facet normal 0.000000 1.000000 0.000000
outer loop
vertex 600.000000 600.000183 999.999878
vertex 500.000000 600.000183 999.999878
vertex 500.000000 600.000183 1249.999878
endloop
endfacet
facet normal 0.000000 1.000000 0.000000
outer loop
vertex 600.000000 600.000183 999.999878
vertex 500.000000 600.000183 1249.999878
vertex 600.000000 600.000183 1249.999878
endloop
endfacet
facet normal 0.000000 1.000000 -0.000000
outer loop
vertex 600.000000 600.000183 1249.999878
vertex 500.000000 600.000183 1249.999878
vertex 500.000000 600.000244 1499.999878
endloop
endfacet
facet normal 0.000000 1.000000 0.000000
outer loop
vertex 600.000000 600.000183 1249.999878
vertex 500.000000 600.000244 1499.999878
vertex 600.000000 600.000244 1499.999878
endloop
endfacet
facet normal 1.000000 0.000000 0.000000
outer loop
vertex -500.000000 -599.999817 1250.000122
vertex -500.000000 -499.999786 1250.000122
vertex -500.000000 -499.999756 1500.000122
endloop
endfacet
facet normal 1.000000 0.000000 0.000000
outer loop
vertex -500.000000 -599.999817 1250.000122
vertex -500.000000 -499.999756 1500.000122
vertex -500.000000 -599.999756 1500.000122
endloop
endfacet
facet normal -1.000000 0.000000 0.000000
outer loop
vertex 500.000000 -499.999786 1250.000122
vertex 500.000000 -599.999817 1250.000122
vertex 500.000000 -599.999756 1500.000122
endloop
endfacet
facet normal -1.000000 0.000000 0.000000
outer loop
vertex 500.000000 -499.999786 1250.000122
vertex 500.000000 -599.999756 1500.000122
vertex 500.000000 -499.999756 1500.000122
endloop
endfacet
facet normal 0.000000 1.000000 -0.000000
outer loop
vertex -500.000000 600.000183 1249.999878
vertex -600.000000 600.000183 1249.999878
vertex -600.000000 600.000244 1499.999878
endloop
endfacet
facet normal 0.000000 1.000000 0.000000
outer loop
vertex -500.000000 600.000183 1249.999878
vertex -600.000000 600.000244 1499.999878
vertex -500.000000 600.000244 1499.999878
endloop
endfacet
facet normal -1.000000 0.000000 0.000000
outer loop
vertex 500.000000 600.000183 1249.999878
vertex 500.000000 500.000214 1249.999878
vertex 500.000000 500.000244 1499.999878
endloop
endfacet
facet normal -1.000000 0.000000 0.000000
outer loop
vertex 500.000000 600.000183 1249.999878
vertex 500.000000 500.000244 1499.999878
vertex 500.000000 600.000244 1499.999878
endloop
endfacet
facet normal 0.000000 -1.000000 0.000000
outer loop
vertex 500.000000 -599.999817 1250.000122
vertex 600.000000 -599.999817 1250.000122
vertex 600.000000 -599.999756 1500.000122
endloop
endfacet
facet normal 0.000000 -1.000000 0.000000
outer loop
vertex 500.000000 -599.999817 1250.000122
vertex 600.000000 -599.999756 1500.000122
vertex 500.000000 -599.999756 1500.000122
endloop
endfacet
facet normal -1.000000 0.000000 0.000000
outer loop
vertex -600.000000 600.000183 1249.999878
vertex -600.000000 -599.999817 1250.000122
vertex -600.000000 -599.999756 1500.000122
endloop
endfacet
facet normal -1.000000 -0.000000 0.000000
outer loop
vertex -600.000000 600.000183 1249.999878
vertex -600.000000 -599.999756 1500.000122
vertex -600.000000 600.000244 1499.999878
endloop
endfacet
facet normal 0.000000 1.000000 -0.000000
outer loop
vertex 500.000000 500.000214 1249.999878
vertex -500.000000 500.000214 1249.999878
vertex -500.000000 500.000244 1499.999878
endloop
endfacet
facet normal 0.000000 1.000000 0.000000
outer loop
vertex 500.000000 500.000214 1249.999878
vertex -500.000000 500.000244 1499.999878
vertex 500.000000 500.000244 1499.999878
endloop
endfacet
facet normal 1.000000 0.000000 0.000000
outer loop
vertex 600.000000 -599.999817 1250.000122
vertex 600.000000 600.000183 1249.999878
vertex 600.000000 600.000244 1499.999878
endloop
endfacet
facet normal 1.000000 -0.000000 0.000000
outer loop
vertex 600.000000 -599.999817 1250.000122
vertex 600.000000 600.000244 1499.999878
vertex 600.000000 -599.999756 1500.000122
endloop
endfacet
facet normal 0.000000 -1.000000 0.000000
outer loop
vertex -600.000000 -599.999817 1250.000122
vertex -500.000000 -599.999817 1250.000122
vertex -500.000000 -599.999756 1500.000122
endloop
endfacet
facet normal 0.000000 -1.000000 0.000000
outer loop
vertex -600.000000 -599.999817 1250.000122
vertex -500.000000 -599.999756 1500.000122
vertex -600.000000 -599.999756 1500.000122
endloop
endfacet
facet normal 0.000000 -1.000000 0.000000
outer loop
vertex -500.000000 -499.999786 1250.000122
vertex 500.000000 -499.999786 1250.000122
vertex 500.000000 -499.999756 1500.000122
endloop
endfacet
facet normal 0.000000 -1.000000 0.000000
outer loop
vertex -500.000000 -499.999786 1250.000122
vertex 500.000000 -499.999756 1500.000122
vertex -500.000000 -499.999756 1500.000122
endloop
endfacet
facet normal 1.000000 0.000000 0.000000
outer loop
vertex -500.000000 500.000214 1249.999878
vertex -500.000000 600.000183 1249.999878
vertex -500.000000 600.000244 1499.999878
endloop
endfacet
facet normal 1.000000 0.000000 0.000000
outer loop
vertex -500.000000 500.000214 1249.999878
vertex -500.000000 600.000244 1499.999878
vertex -500.000000 500.000244 1499.999878
endloop
endfacet
facet normal 0.000000 1.000000 0.000000
outer loop
vertex 600.000000 600.000244 1499.999878
vertex 500.000000 600.000244 1499.999878
vertex 500.000000 600.000305 1749.999878
endloop
endfacet
facet normal 0.000000 1.000000 -0.000001
outer loop
vertex 600.000000 600.000244 1499.999878
vertex 500.000000 600.000305 1749.999878
vertex 600.000000 600.000305 1749.999878
endloop
endfacet
facet normal 1.000000 0.000000 0.000000
outer loop
vertex -500.000000 -599.999756 1500.000122
vertex -500.000000 -499.999756 1500.000122
vertex -500.000000 -499.999725 1750.000122
endloop
endfacet
facet normal 1.000000 0.000000 0.000000
outer loop
vertex -500.000000 -599.999756 1500.000122
vertex -500.000000 -499.999725 1750.000122
vertex -500.000000 -599.999695 1750.000122
endloop
endfacet
facet normal -1.000000 0.000000 0.000000
outer loop
vertex 500.000000 -499.999756 1500.000122
vertex 500.000000 -599.999756 1500.000122
vertex 500.000000 -599.999695 1750.000122
endloop
endfacet
facet normal -1.000000 0.000000 0.000000
outer loop
vertex 500.000000 -499.999756 1500.000122
vertex 500.000000 -599.999695 1750.000122
vertex 500.000000 -499.999725 1750.000122
endloop
endfacet
facet normal 0.000000 1.000000 0.000000
outer loop
vertex -500.000000 600.000244 1499.999878
vertex -600.000000 600.000244 1499.999878
vertex -600.000000 600.000305 1749.999878
endloop
endfacet
facet normal 0.000000 1.000000 -0.000001
outer loop
vertex -500.000000 600.000244 1499.999878
vertex -600.000000 600.000305 1749.999878
vertex -500.000000 600.000305 1749.999878
endloop
endfacet
facet normal -1.000000 0.000000 0.000000
outer loop
vertex 500.000000 600.000244 1499.999878
vertex 500.000000 500.000244 1499.999878
vertex 500.000000 500.000275 1749.999878
endloop
endfacet
facet normal -1.000000 0.000000 0.000000
outer loop
vertex 500.000000 600.000244 1499.999878
vertex 500.000000 500.000275 1749.999878
vertex 500.000000 600.000305 1749.999878
endloop
endfacet
facet normal 0.000000 -1.000000 0.000000
outer loop
vertex 500.000000 -599.999756 1500.000122
vertex 600.000000 -599.999756 1500.000122
vertex 600.000000 -599.999695 1750.000122
endloop
endfacet
facet normal 0.000000 -1.000000 0.000001
outer loop
vertex 500.000000 -599.999756 1500.000122
vertex 600.000000 -599.999695 1750.000122
vertex 500.000000 -599.999695 1750.000122
endloop
endfacet
facet normal -1.000000 0.000000 0.000000
outer loop
vertex -600.000000 600.000244 1499.999878
vertex -600.000000 -599.999756 1500.000122
vertex -600.000000 -599.999695 1750.000122
endloop
endfacet
facet normal -1.000000 -0.000000 0.000000
outer loop
vertex -600.000000 600.000244 1499.999878
vertex -600.000000 -599.999695 1750.000122
vertex -600.000000 600.000305 1749.999878
endloop
endfacet
facet normal 0.000000 1.000000 0.000000
outer loop
vertex 500.000000 500.000244 1499.999878
vertex -500.000000 500.000244 1499.999878
vertex -500.000000 500.000275 1749.999878
endloop
endfacet
facet normal 0.000000 1.000000 -0.000000
outer loop
vertex 500.000000 500.000244 1499.999878
vertex -500.000000 500.000275 1749.999878
vertex 500.000000 500.000275 1749.999878
endloop
endfacet
facet normal 1.000000 0.000000 0.000000
outer loop
vertex 600.000000 -599.999756 1500.000122
vertex 600.000000 600.000244 1499.999878
vertex 600.000000 600.000305 1749.999878
endloop
endfacet
facet normal 1.000000 -0.000000 0.000000
outer loop
vertex 600.000000 -599.999756 1500.000122
vertex 600.000000 600.000305 1749.999878
vertex 600.000000 -599.999695 1750.000122
endloop
endfacet
facet normal 0.000000 -1.000000 0.000000
outer loop
vertex -600.000000 -599.999756 1500.000122
vertex -500.000000 -599.999756 1500.000122
vertex -500.000000 -599.999695 1750.000122
endloop
endfacet
facet normal 0.000000 -1.000000 0.000001
outer loop
vertex -600.000000 -599.999756 1500.000122
vertex -500.000000 -599.999695 1750.000122
vertex -600.000000 -599.999695 1750.000122
endloop
endfacet
facet normal 0.000000 -1.000000 0.000000
outer loop
vertex -500.000000 -499.999756 1500.000122
vertex 500.000000 -499.999756 1500.000122
vertex 500.000000 -499.999725 1750.000122
endloop
endfacet
facet normal 0.000000 -1.000000 0.000000
outer loop
vertex -500.000000 -499.999756 1500.000122
vertex 500.000000 -499.999725 1750.000122
vertex -500.000000 -499.999725 1750.000122
endloop
endfacet
facet normal 1.000000 0.000000 0.000000
outer loop
vertex -500.000000 500.000244 1499.999878
vertex -500.000000 600.000244 1499.999878
vertex -500.000000 600.000305 1749.999878
endloop
endfacet
facet normal 1.000000 0.000000 0.000000
outer loop
vertex -500.000000 500.000244 1499.999878
vertex -500.000000 600.000305 1749.999878
vertex -500.000000 500.000275 1749.999878
endloop
endfacet
facet normal 1.000000 0.000000 0.000000
outer loop
vertex -500.000000 500.000275 1749.999878
vertex -500.000000 600.000305 1749.999878
vertex -500.000000 600.000305 1999.999878
endloop
endfacet
facet normal 1.000000 0.000000 0.000000
outer loop
vertex -500.000000 500.000275 1749.999878
vertex -500.000000 600.000305 1999.999878
vertex -500.000000 500.000336 1999.999878
endloop
endfacet
facet normal 0.000000 1.000000 0.000000
outer loop
vertex 600.000000 600.000305 1749.999878
vertex 500.000000 600.000305 1749.999878
vertex 500.000000 600.000305 1999.999878
endloop
endfacet
facet normal 0.000000 1.000000 0.000000
outer loop
vertex 600.000000 600.000305 1749.999878
vertex 500.000000 600.000305 1999.999878
vertex 600.000000 600.000305 1999.999878
endloop
endfacet
facet normal 1.000000 0.000000 0.000000
outer loop
vertex -500.000000 -599.999695 1750.000122
vertex -500.000000 -499.999725 1750.000122
vertex -500.000000 -499.999664 2000.000122
endloop
endfacet
facet normal 1.000000 0.000000 0.000000
outer loop
vertex -500.000000 -599.999695 1750.000122
vertex -500.000000 -499.999664 2000.000122
vertex -500.000000 -599.999695 2000.000122
endloop
endfacet
facet normal -1.000000 0.000000 0.000000
outer loop
vertex 500.000000 -499.999725 1750.000122
vertex 500.000000 -599.999695 1750.000122
vertex 500.000000 -599.999695 2000.000122
endloop
endfacet
facet normal -1.000000 0.000000 0.000000
outer loop
vertex 500.000000 -499.999725 1750.000122
vertex 500.000000 -599.999695 2000.000122
vertex 500.000000 -499.999664 2000.000122
endloop
endfacet
facet normal 0.000000 1.000000 0.000000
outer loop
vertex -500.000000 600.000305 1749.999878
vertex -600.000000 600.000305 1749.999878
vertex -600.000000 600.000305 1999.999878
endloop
endfacet
facet normal 0.000000 1.000000 0.000000
outer loop
vertex -500.000000 600.000305 1749.999878
vertex -600.000000 600.000305 1999.999878
vertex -500.000000 600.000305 1999.999878
endloop
endfacet
facet normal -1.000000 0.000000 0.000000
outer loop
vertex 500.000000 600.000305 1749.999878
vertex 500.000000 500.000275 1749.999878
vertex 500.000000 500.000336 1999.999878
endloop
endfacet
facet normal -1.000000 0.000000 0.000000
outer loop
vertex 500.000000 600.000305 1749.999878
vertex 500.000000 500.000336 1999.999878
vertex 500.000000 600.000305 1999.999878
endloop
endfacet
facet normal 0.000000 -1.000000 0.000000
outer loop
vertex 500.000000 -599.999695 1750.000122
vertex 600.000000 -599.999695 1750.000122
vertex 600.000000 -599.999695 2000.000122
endloop
endfacet
facet normal 0.000000 -1.000000 0.000000
outer loop
vertex 500.000000 -599.999695 1750.000122
vertex 600.000000 -599.999695 2000.000122
vertex 500.000000 -599.999695 2000.000122
endloop
endfacet
facet normal -1.000000 0.000000 0.000000
outer loop
vertex -600.000000 600.000305 1749.999878
vertex -600.000000 -599.999695 1750.000122
vertex -600.000000 -599.999695 2000.000122
endloop
endfacet
facet normal -1.000000 -0.000000 0.000000
outer loop
vertex -600.000000 600.000305 1749.999878
vertex -600.000000 -599.999695 2000.000122
vertex -600.000000 600.000305 1999.999878
endloop
endfacet
facet normal 0.000000 1.000000 -0.000000
outer loop
vertex 500.000000 500.000275 1749.999878
vertex -500.000000 500.000275 1749.999878
vertex -500.000000 500.000336 1999.999878
endloop
endfacet
facet normal 0.000000 1.000000 -0.000000
outer loop
vertex 500.000000 500.000275 1749.999878
vertex -500.000000 500.000336 1999.999878
vertex 500.000000 500.000336 1999.999878
endloop
endfacet
facet normal 1.000000 0.000000 0.000000
outer loop
vertex 600.000000 -599.999695 1750.000122
vertex 600.000000 600.000305 1749.999878
vertex 600.000000 600.000305 1999.999878
endloop
endfacet
facet normal 1.000000 -0.000000 0.000000
outer loop
vertex 600.000000 -599.999695 1750.000122
vertex 600.000000 600.000305 1999.999878
vertex 600.000000 -599.999695 2000.000122
endloop
endfacet
facet normal 0.000000 -1.000000 0.000000
outer loop
vertex -600.000000 -599.999695 1750.000122
vertex -500.000000 -599.999695 1750.000122
vertex -500.000000 -599.999695 2000.000122
endloop
endfacet
facet normal 0.000000 -1.000000 0.000000
outer loop
vertex -600.000000 -599.999695 1750.000122
vertex -500.000000 -599.999695 2000.000122
vertex -600.000000 -599.999695 2000.000122
endloop
endfacet
facet normal 0.000000 -1.000000 0.000000
outer loop
vertex -500.000000 -499.999725 1750.000122
vertex 500.000000 -499.999725 1750.000122
vertex 500.000000 -499.999664 2000.000122
endloop
endfacet
facet normal 0.000000 -1.000000 0.000000
outer loop
vertex -500.000000 -499.999725 1750.000122
vertex 500.000000 -499.999664 2000.000122
vertex -500.000000 -499.999664 2000.000122
endloop
endfacet
facet normal 0.000000 -1.000000 0.000000
outer loop
vertex -500.000000 -499.999664 2000.000122
vertex 500.000000 -499.999664 2000.000122
vertex 500.000000 -499.999634 2250.000000
endloop
endfacet
facet normal 0.000000 -1.000000 0.000000
outer loop
vertex -500.000000 -499.999664 2000.000122
vertex 500.000000 -499.999634 2250.000000
vertex -500.000000 -499.999634 2250.000000
endloop
endfacet
facet normal 1.000000 0.000000 0.000000
outer loop
vertex -500.000000 500.000336 1999.999878
vertex -500.000000 600.000305 1999.999878
vertex -500.000000 600.000366 2250.000000
endloop
endfacet
facet normal 1.000000 0.000000 0.000000
outer loop
vertex -500.000000 500.000336 1999.999878
vertex -500.000000 600.000366 2250.000000
vertex -500.000000 500.000366 2250.000000
endloop
endfacet
facet normal 0.000000 1.000000 -0.000000
outer loop
vertex 600.000000 600.000305 1999.999878
vertex 500.000000 600.000305 1999.999878
vertex 500.000000 600.000366 2250.000000
endloop
endfacet
facet normal 0.000000 1.000000 0.000000
outer loop
vertex 600.000000 600.000305 1999.999878
vertex 500.000000 600.000366 2250.000000
vertex 600.000000 600.000366 2250.000000
endloop
endfacet
facet normal 1.000000 0.000000 0.000000
outer loop
vertex -500.000000 -599.999695 2000.000122
vertex -500.000000 -499.999664 2000.000122
vertex -500.000000 -499.999634 2250.000000
endloop
endfacet
facet normal 1.000000 0.000000 0.000000
outer loop
vertex -500.000000 -599.999695 2000.000122
vertex -500.000000 -499.999634 2250.000000
vertex -500.000000 -599.999634 2250.000000
endloop
endfacet
facet normal -1.000000 0.000000 0.000000
outer loop
vertex 500.000000 -499.999664 2000.000122
vertex 500.000000 -599.999695 2000.000122
vertex 500.000000 -599.999634 2250.000000
endloop
endfacet
facet normal -1.000000 0.000000 0.000000
outer loop
vertex 500.000000 -499.999664 2000.000122
vertex 500.000000 -599.999634 2250.000000
vertex 500.000000 -499.999634 2250.000000
endloop
endfacet
facet normal 0.000000 1.000000 -0.000000
outer loop
vertex -500.000000 600.000305 1999.999878
vertex -600.000000 600.000305 1999.999878
vertex -600.000000 600.000366 2250.000000
endloop
endfacet
facet normal 0.000000 1.000000 0.000000
outer loop
vertex -500.000000 600.000305 1999.999878
vertex -600.000000 600.000366 2250.000000
vertex -500.000000 600.000366 2250.000000
endloop
endfacet
facet normal -1.000000 0.000000 0.000000
outer loop
vertex 500.000000 600.000305 1999.999878
vertex 500.000000 500.000336 1999.999878
vertex 500.000000 500.000366 2250.000000
endloop
endfacet
facet normal -1.000000 0.000000 0.000000
outer loop
vertex 500.000000 600.000305 1999.999878
vertex 500.000000 500.000366 2250.000000
vertex 500.000000 600.000366 2250.000000
endloop
endfacet
facet normal 0.000000 -1.000000 0.000000
outer loop
vertex 500.000000 -599.999695 2000.000122
vertex 600.000000 -599.999695 2000.000122
vertex 600.000000 -599.999634 2250.000000
endloop
endfacet
facet normal 0.000000 -1.000000 0.000000
outer loop
vertex 500.000000 -599.999695 2000.000122
vertex 600.000000 -599.999634 2250.000000
vertex 500.000000 -599.999634 2250.000000
endloop
endfacet
facet normal -1.000000 -0.000000 0.000000
outer loop
vertex -600.000000 600.000305 1999.999878
vertex -600.000000 -599.999695 2000.000122
vertex -600.000000 -599.999634 2250.000000
endloop
endfacet
facet normal -1.000000 0.000000 0.000000
outer loop
vertex -600.000000 600.000305 1999.999878
vertex -600.000000 -599.999634 2250.000000
vertex -600.000000 600.000366 2250.000000
endloop
endfacet
facet normal 0.000000 1.000000 -0.000000
outer loop
vertex 500.000000 500.000336 1999.999878
vertex -500.000000 500.000336 1999.999878
vertex -500.000000 500.000366 2250.000000
endloop
endfacet
facet normal 0.000000 1.000000 0.000000
outer loop
vertex 500.000000 500.000336 1999.999878
vertex -500.000000 500.000366 2250.000000
vertex 500.000000 500.000366 2250.000000
endloop
endfacet
facet normal 1.000000 -0.000000 0.000000
outer loop
vertex 600.000000 -599.999695 2000.000122
vertex 600.000000 600.000305 1999.999878
vertex 600.000000 600.000366 2250.000000
endloop
endfacet
facet normal 1.000000 0.000000 0.000000
outer loop
vertex 600.000000 -599.999695 2000.000122
vertex 600.000000 600.000366 2250.000000
vertex 600.000000 -599.999634 2250.000000
endloop
endfacet
facet normal 0.000000 -1.000000 0.000000
outer loop
vertex -600.000000 -599.999695 2000.000122
vertex -500.000000 -599.999695 2000.000122
vertex -500.000000 -599.999634 2250.000000
endloop
endfacet
facet normal 0.000000 -1.000000 0.000000
outer loop
vertex -600.000000 -599.999695 2000.000122
vertex -500.000000 -599.999634 2250.000000
vertex -600.000000 -599.999634 2250.000000
endloop
endfacet
facet normal 0.000000 -1.000000 0.000000
outer loop
vertex -600.000000 -599.999634 2250.000000
vertex -500.000000 -599.999634 2250.000000
vertex -500.000000 -599.999573 2500.000000
endloop
endfacet
facet normal 0.000000 -1.000000 0.000001
outer loop
vertex -600.000000 -599.999634 2250.000000
vertex -500.000000 -599.999573 2500.000000
vertex -600.000000 -599.999573 2500.000000
endloop
endfacet
facet normal 0.000000 -1.000000 0.000000
outer loop
vertex -500.000000 -499.999634 2250.000000
vertex 500.000000 -499.999634 2250.000000
vertex 500.000000 -499.999603 2500.000000
endloop
endfacet
facet normal 0.000000 -1.000000 0.000000
outer loop
vertex -500.000000 -499.999634 2250.000000
vertex 500.000000 -499.999603 2500.000000
vertex -500.000000 -499.999603 2500.000000
endloop
endfacet
facet normal 1.000000 0.000000 0.000000
outer loop
vertex -500.000000 500.000366 2250.000000
vertex -500.000000 600.000366 2250.000000
vertex -500.000000 600.000427 2500.000000
endloop
endfacet
facet normal 1.000000 0.000000 0.000000
outer loop
vertex -500.000000 500.000366 2250.000000
vertex -500.000000 600.000427 2500.000000
vertex -500.000000 500.000397 2500.000000
endloop
endfacet
facet normal 0.000000 1.000000 0.000000
outer loop
vertex 600.000000 600.000366 2250.000000
vertex 500.000000 600.000366 2250.000000
vertex 500.000000 600.000427 2500.000000
endloop
endfacet
facet normal 0.000000 1.000000 -0.000001
outer loop
vertex 600.000000 600.000366 2250.000000
vertex 500.000000 600.000427 2500.000000
vertex 600.000000 600.000427 2500.000000
endloop
endfacet
facet normal 1.000000 0.000000 0.000000
outer loop
vertex -500.000000 -599.999634 2250.000000
vertex -500.000000 -499.999634 2250.000000
vertex -500.000000 -499.999603 2500.000000
endloop
endfacet
facet normal 1.000000 0.000000 0.000000
outer loop
vertex -500.000000 -599.999634 2250.000000
vertex -500.000000 -499.999603 2500.000000
vertex -500.000000 -599.999573 2500.000000
endloop
endfacet
facet normal -1.000000 0.000000 0.000000
outer loop
vertex 500.000000 -499.999634 2250.000000
vertex 500.000000 -599.999634 2250.000000
vertex 500.000000 -599.999573 2500.000000
endloop
endfacet
facet normal -1.000000 0.000000 0.000000
outer loop
vertex 500.000000 -499.999634 2250.000000
vertex 500.000000 -599.999573 2500.000000
vertex 500.000000 -499.999603 2500.000000
endloop
endfacet
facet normal 0.000000 1.000000 0.000000
outer loop
vertex -500.000000 600.000366 2250.000000
vertex -600.000000 600.000366 2250.000000
vertex -600.000000 600.000427 2500.000000
endloop
endfacet
facet normal 0.000000 1.000000 -0.000001
outer loop
vertex -500.000000 600.000366 2250.000000
vertex -600.000000 600.000427 2500.000000
vertex -500.000000 600.000427 2500.000000
endloop
endfacet
facet normal -1.000000 0.000000 0.000000
outer loop
vertex 500.000000 600.000366 2250.000000
vertex 500.000000 500.000366 2250.000000
vertex 500.000000 500.000397 2500.000000
endloop
endfacet
facet normal -1.000000 0.000000 0.000000
outer loop
vertex 500.000000 600.000366 2250.000000
vertex 500.000000 500.000397 2500.000000
vertex 500.000000 600.000427 2500.000000
endloop
endfacet
facet normal 0.000000 -1.000000 0.000000
outer loop
vertex 500.000000 -599.999634 2250.000000
vertex 600.000000 -599.999634 2250.000000
vertex 600.000000 -599.999573 2500.000000
endloop
endfacet
facet normal 0.000000 -1.000000 0.000001
outer loop
vertex 500.000000 -599.999634 2250.000000
vertex 600.000000 -599.999573 2500.000000
vertex 500.000000 -599.999573 2500.000000
endloop
endfacet
facet normal -1.000000 0.000000 0.000000
outer loop
vertex -600.000000 600.000366 2250.000000
vertex -600.000000 -599.999634 2250.000000
vertex -600.000000 -599.999573 2500.000000
endloop
endfacet
facet normal -1.000000 0.000000 0.000000
outer loop
vertex -600.000000 600.000366 2250.000000
vertex -600.000000 -599.999573 2500.000000
vertex -600.000000 600.000427 2500.000000
endloop
endfacet
facet normal 0.000000 1.000000 0.000000
outer loop
vertex 500.000000 500.000366 2250.000000
vertex -500.000000 500.000366 2250.000000
vertex -500.000000 500.000397 2500.000000
endloop
endfacet
facet normal 0.000000 1.000000 -0.000000
outer loop
vertex 500.000000 500.000366 2250.000000
vertex -500.000000 500.000397 2500.000000
vertex 500.000000 500.000397 2500.000000
endloop
endfacet
facet normal 1.000000 0.000000 0.000000
outer loop
vertex 600.000000 -599.999634 2250.000000
vertex 600.000000 600.000366 2250.000000
vertex 600.000000 600.000427 2500.000000
endloop
endfacet
facet normal 1.000000 0.000000 0.000000
outer loop
vertex 600.000000 -599.999634 2250.000000
vertex 600.000000 600.000427 2500.000000
vertex 600.000000 -599.999573 2500.000000
endloop
endfacet
facet normal 1.000000 0.000000 0.000000
outer loop
vertex 600.000000 -599.999573 2500.000000
vertex 600.000000 600.000427 2500.000000
vertex 600.000000 600.000427 2750.000000
endloop
endfacet
facet normal 1.000000 0.000000 0.000000
outer loop
vertex 600.000000 -599.999573 2500.000000
vertex 600.000000 600.000427 2750.000000
vertex 600.000000 -599.999573 2750.000000
endloop
endfacet
facet normal 0.000000 -1.000000 0.000000
outer loop
vertex -600.000000 -599.999573 2500.000000
vertex -500.000000 -599.999573 2500.000000
vertex -500.000000 -599.999573 2750.000000
endloop
endfacet
facet normal 0.000000 -1.000000 0.000000
outer loop
vertex -600.000000 -599.999573 2500.000000
vertex -500.000000 -599.999573 2750.000000
vertex -600.000000 -599.999573 2750.000000
endloop
endfacet
facet normal 0.000000 -1.000000 0.000000
outer loop
vertex -500.000000 -499.999603 2500.000000
vertex 500.000000 -499.999603 2500.000000
vertex 500.000000 -499.999542 2750.000000
endloop
endfacet
facet normal 0.000000 -1.000000 0.000000
outer loop
vertex -500.000000 -499.999603 2500.000000
vertex 500.000000 -499.999542 2750.000000
vertex -500.000000 -499.999542 2750.000000
endloop
endfacet
facet normal 1.000000 0.000000 0.000000
outer loop
vertex -500.000000 500.000397 2500.000000
vertex -500.000000 600.000427 2500.000000
vertex -500.000000 600.000427 2750.000000
endloop
endfacet
facet normal 1.000000 0.000000 0.000000
outer loop
vertex -500.000000 500.000397 2500.000000
vertex -500.000000 600.000427 2750.000000
vertex -500.000000 500.000458 2750.000000
endloop
endfacet
facet normal 0.000000 1.000000 0.000000
outer loop
vertex 600.000000 600.000427 2500.000000
vertex 500.000000 600.000427 2500.000000
vertex 500.000000 600.000427 2750.000000
endloop
endfacet
facet normal 0.000000 1.000000 0.000000
outer loop
vertex 600.000000 600.000427 2500.000000
vertex 500.000000 600.000427 2750.000000
vertex 600.000000 600.000427 2750.000000
endloop
endfacet
facet normal 1.000000 0.000000 0.000000
outer loop
vertex -500.000000 -599.999573 2500.000000
vertex -500.000000 -499.999603 2500.000000
vertex -500.000000 -499.999542 2750.000000
endloop
endfacet
facet normal 1.000000 0.000000 0.000000
outer loop
vertex -500.000000 -599.999573 2500.000000
vertex -500.000000 -499.999542 2750.000000
vertex -500.000000 -599.999573 2750.000000
endloop
endfacet
facet normal -1.000000 0.000000 0.000000
outer loop
vertex 500.000000 -499.999603 2500.000000
vertex 500.000000 -599.999573 2500.000000
vertex 500.000000 -599.999573 2750.000000
endloop
endfacet
facet normal -1.000000 0.000000 0.000000
outer loop
vertex 500.000000 -499.999603 2500.000000
vertex 500.000000 -599.999573 2750.000000
vertex 500.000000 -499.999542 2750.000000
endloop
endfacet
facet normal 0.000000 1.000000 0.000000
outer loop
vertex -500.000000 600.000427 2500.000000
vertex -600.000000 600.000427 2500.000000
vertex -600.000000 600.000427 2750.000000
endloop
endfacet
facet normal 0.000000 1.000000 0.000000
outer loop
vertex -500.000000 600.000427 2500.000000
vertex -600.000000 600.000427 2750.000000
vertex -500.000000 600.000427 2750.000000
endloop
endfacet
facet normal -1.000000 0.000000 0.000000
outer loop
vertex 500.000000 600.000427 2500.000000
vertex 500.000000 500.000397 2500.000000
vertex 500.000000 500.000458 2750.000000
endloop
endfacet
facet normal -1.000000 0.000000 0.000000
outer loop
vertex 500.000000 600.000427 2500.000000
vertex 500.000000 500.000458 2750.000000
vertex 500.000000 600.000427 2750.000000
endloop
endfacet
facet normal 0.000000 -1.000000 0.000000
outer loop
vertex 500.000000 -599.999573 2500.000000
vertex 600.000000 -599.999573 2500.000000
vertex 600.000000 -599.999573 2750.000000
endloop
endfacet
facet normal 0.000000 -1.000000 0.000000
outer loop
vertex 500.000000 -599.999573 2500.000000
vertex 600.000000 -599.999573 2750.000000
vertex 500.000000 -599.999573 2750.000000
endloop
endfacet
facet normal -1.000000 0.000000 0.000000
outer loop
vertex -600.000000 600.000427 2500.000000
vertex -600.000000 -599.999573 2500.000000
vertex -600.000000 -599.999573 2750.000000
endloop
endfacet
facet normal -1.000000 0.000000 0.000000
outer loop
vertex -600.000000 600.000427 2500.000000
vertex -600.000000 -599.999573 2750.000000
vertex -600.000000 600.000427 2750.000000
endloop
endfacet
facet normal 0.000000 1.000000 -0.000000
outer loop
vertex 500.000000 500.000397 2500.000000
vertex -500.000000 500.000397 2500.000000
vertex -500.000000 500.000458 2750.000000
endloop
endfacet
facet normal 0.000000 1.000000 -0.000000
outer loop
vertex 500.000000 500.000397 2500.000000
vertex -500.000000 500.000458 2750.000000
vertex 500.000000 500.000458 2750.000000
endloop
endfacet
facet normal 1.000000 0.000000 0.000000
outer loop
vertex 600.000000 -599.999573 2750.000000
vertex 600.000000 600.000427 2750.000000
vertex 600.000000 600.000488 3000.000000
endloop
endfacet
facet normal 1.000000 0.000000 0.000000
outer loop
vertex 600.000000 -599.999573 2750.000000
vertex 600.000000 600.000488 3000.000000
vertex 600.000000 -599.999512 3000.000000
endloop
endfacet
facet normal 0.000000 -1.000000 0.000000
outer loop
vertex -600.000000 -599.999573 2750.000000
vertex -500.000000 -599.999573 2750.000000
vertex -500.000000 -599.999512 3000.000000
endloop
endfacet
facet normal 0.000000 -1.000000 0.000000
outer loop
vertex -600.000000 -599.999573 2750.000000
vertex -500.000000 -599.999512 3000.000000
vertex -600.000000 -599.999512 3000.000000
endloop
endfacet
facet normal 0.000000 -1.000000 0.000000
outer loop
vertex -500.000000 -499.999542 2750.000000
vertex 500.000000 -499.999542 2750.000000
vertex 500.000000 -499.999512 3000.000000
endloop
endfacet
facet normal 0.000000 -1.000000 0.000000
outer loop
vertex -500.000000 -499.999542 2750.000000
vertex 500.000000 -499.999512 3000.000000
vertex -500.000000 -499.999512 3000.000000
endloop
endfacet
facet normal 1.000000 0.000000 0.000000
outer loop
vertex -500.000000 500.000458 2750.000000
vertex -500.000000 600.000427 2750.000000
vertex -500.000000 600.000488 3000.000000
endloop
endfacet
facet normal 1.000000 0.000000 0.000000
outer loop
vertex -500.000000 500.000458 2750.000000
vertex -500.000000 600.000488 3000.000000
vertex -500.000000 500.000488 3000.000000
endloop
endfacet
facet normal 0.000000 1.000000 -0.000000
outer loop
vertex 600.000000 600.000427 2750.000000
vertex 500.000000 600.000427 2750.000000
vertex 500.000000 600.000488 3000.000000
endloop
endfacet
facet normal 0.000000 1.000000 0.000000
outer loop
vertex 600.000000 600.000427 2750.000000
vertex 500.000000 600.000488 3000.000000
vertex 600.000000 600.000488 3000.000000
endloop
endfacet
facet normal 1.000000 0.000000 0.000000
outer loop
vertex -500.000000 -599.999573 2750.000000
vertex -500.000000 -499.999542 2750.000000
vertex -500.000000 -499.999512 3000.000000
endloop
endfacet
facet normal 1.000000 0.000000 0.000000
outer loop
vertex -500.000000 -599.999573 2750.000000
vertex -500.000000 -499.999512 3000.000000
vertex -500.000000 -599.999512 3000.000000
endloop
endfacet
facet normal -1.000000 0.000000 0.000000
outer loop
vertex 500.000000 -499.999542 2750.000000
vertex 500.000000 -599.999573 2750.000000
vertex 500.000000 -599.999512 3000.000000
endloop
endfacet
facet normal -1.000000 0.000000 0.000000
outer loop
vertex 500.000000 -499.999542 2750.000000
vertex 500.000000 -599.999512 3000.000000
vertex 500.000000 -499.999512 3000.000000
endloop
endfacet
facet normal 0.000000 1.000000 -0.000000
outer loop
vertex -500.000000 600.000427 2750.000000
vertex -600.000000 600.000427 2750.000000
vertex -600.000000 600.000488 3000.000000
endloop
endfacet
facet normal 0.000000 1.000000 0.000000
outer loop
vertex -500.000000 600.000427 2750.000000
vertex -600.000000 600.000488 3000.000000
vertex -500.000000 600.000488 3000.000000
endloop
endfacet
facet normal -1.000000 0.000000 0.000000
outer loop
vertex 500.000000 600.000427 2750.000000
vertex 500.000000 500.000458 2750.000000
vertex 500.000000 500.000488 3000.000000
endloop
endfacet
facet normal -1.000000 0.000000 0.000000
outer loop
vertex 500.000000 600.000427 2750.000000
vertex 500.000000 500.000488 3000.000000
vertex 500.000000 600.000488 3000.000000
endloop
endfacet
facet normal 0.000000 -1.000000 0.000000
outer loop
vertex 500.000000 -599.999573 2750.000000
vertex 600.000000 -599.999573 2750.000000
vertex 600.000000 -599.999512 3000.000000
endloop
endfacet
facet normal 0.000000 -1.000000 0.000000
outer loop
vertex 500.000000 -599.999573 2750.000000
vertex 600.000000 -599.999512 3000.000000
vertex 500.000000 -599.999512 3000.000000
endloop
endfacet
facet normal -1.000000 0.000000 0.000000
outer loop
vertex -600.000000 600.000427 2750.000000
vertex -600.000000 -599.999573 2750.000000
vertex -600.000000 -599.999512 3000.000000
endloop
endfacet
facet normal -1.000000 0.000000 0.000000
outer loop
vertex -600.000000 600.000427 2750.000000
vertex -600.000000 -599.999512 3000.000000
vertex -600.000000 600.000488 3000.000000
endloop
endfacet
facet normal 0.000000 1.000000 -0.000000
outer loop
vertex 500.000000 500.000458 2750.000000
vertex -500.000000 500.000458 2750.000000
vertex -500.000000 500.000488 3000.000000
endloop
endfacet
facet normal 0.000000 1.000000 0.000000
outer loop
vertex 500.000000 500.000458 2750.000000
vertex -500.000000 500.000488 3000.000000
vertex 500.000000 500.000488 3000.000000
endloop
endfacet
facet normal 0.000000 1.000000 0.000000
outer loop
vertex 500.000000 500.000488 3000.000000
vertex -500.000000 500.000488 3000.000000
vertex -500.000000 500.000519 3250.000000
endloop
endfacet
facet normal 0.000000 1.000000 -0.000000
outer loop
vertex 500.000000 500.000488 3000.000000
vertex -500.000000 500.000519 3250.000000
vertex 500.000000 500.000519 3250.000000
endloop
endfacet
facet normal 1.000000 0.000000 0.000000
outer loop
vertex 600.000000 -599.999512 3000.000000
vertex 600.000000 600.000488 3000.000000
vertex 600.000000 600.000549 3250.000000
endloop
endfacet
facet normal 1.000000 0.000000 0.000000
outer loop
vertex 600.000000 -599.999512 3000.000000
vertex 600.000000 600.000549 3250.000000
vertex 600.000000 -599.999451 3250.000000
endloop
endfacet
facet normal 0.000000 -1.000000 0.000000
outer loop
vertex -600.000000 -599.999512 3000.000000
vertex -500.000000 -599.999512 3000.000000
vertex -500.000000 -599.999451 3250.000000
endloop
endfacet
facet normal 0.000000 -1.000000 0.000001
outer loop
vertex -600.000000 -599.999512 3000.000000
vertex -500.000000 -599.999451 3250.000000
vertex -600.000000 -599.999451 3250.000000
endloop
endfacet
facet normal 0.000000 -1.000000 0.000000
outer loop
vertex -500.000000 -499.999512 3000.000000
vertex 500.000000 -499.999512 3000.000000
vertex 500.000000 -499.999481 3250.000000
endloop
endfacet
facet normal 0.000000 -1.000000 0.000000
outer loop
vertex -500.000000 -499.999512 3000.000000
vertex 500.000000 -499.999481 3250.000000
vertex -500.000000 -499.999481 3250.000000
endloop
endfacet
facet normal 1.000000 0.000000 0.000000
outer loop
vertex -500.000000 500.000488 3000.000000
vertex -500.000000 600.000488 3000.000000
vertex -500.000000 600.000549 3250.000000
endloop
endfacet
facet normal 1.000000 0.000000 0.000000
outer loop
vertex -500.000000 500.000488 3000.000000
vertex -500.000000 600.000549 3250.000000
vertex -500.000000 500.000519 3250.000000
endloop
endfacet
facet normal 0.000000 1.000000 0.000000
outer loop
vertex 600.000000 600.000488 3000.000000
vertex 500.000000 600.000488 3000.000000
vertex 500.000000 600.000549 3250.000000
endloop
endfacet
facet normal 0.000000 1.000000 -0.000001
outer loop
vertex 600.000000 600.000488 3000.000000
vertex 500.000000 600.000549 3250.000000
vertex 600.000000 600.000549 3250.000000
endloop
endfacet
facet normal 1.000000 0.000000 0.000000
outer loop
vertex -500.000000 -599.999512 3000.000000
vertex -500.000000 -499.999512 3000.000000
vertex -500.000000 -499.999481 3250.000000
endloop
endfacet
facet normal 1.000000 0.000000 0.000000
outer loop
vertex -500.000000 -599.999512 3000.000000
vertex -500.000000 -499.999481 3250.000000
vertex -500.000000 -599.999451 3250.000000
endloop
endfacet
facet normal -1.000000 0.000000 0.000000
outer loop
vertex 500.000000 -499.999512 3000.000000
vertex 500.000000 -599.999512 3000.000000
vertex 500.000000 -599.999451 3250.000000
endloop
endfacet
facet normal -1.000000 0.000000 0.000000
outer loop
vertex 500.000000 -499.999512 3000.000000
vertex 500.000000 -599.999451 3250.000000
vertex 500.000000 -499.999481 3250.000000
endloop
endfacet
facet normal 0.000000 1.000000 0.000000
outer loop
vertex -500.000000 600.000488 3000.000000
vertex -600.000000 600.000488 3000.000000
vertex -600.000000 600.000549 3250.000000
endloop
endfacet
facet normal 0.000000 1.000000 -0.000001
outer loop
vertex -500.000000 600.000488 3000.000000
vertex -600.000000 600.000549 3250.000000
vertex -500.000000 600.000549 3250.000000
endloop
endfacet
facet normal -1.000000 0.000000 0.000000
outer loop
vertex 500.000000 600.000488 3000.000000
vertex 500.000000 500.000488 3000.000000
vertex 500.000000 500.000519 3250.000000
endloop
endfacet
facet normal -1.000000 0.000000 0.000000
outer loop
vertex 500.000000 600.000488 3000.000000
vertex 500.000000 500.000519 3250.000000
vertex 500.000000 600.000549 3250.000000
endloop
endfacet
facet normal 0.000000 -1.000000 0.000000
outer loop
vertex 500.000000 -599.999512 3000.000000
vertex 600.000000 -599.999512 3000.000000
vertex 600.000000 -599.999451 3250.000000
endloop
endfacet
facet normal 0.000000 -1.000000 0.000001
outer loop
vertex 500.000000 -599.999512 3000.000000
vertex 600.000000 -599.999451 3250.000000
vertex 500.000000 -599.999451 3250.000000
endloop
endfacet
facet normal -1.000000 0.000000 0.000000
outer loop
vertex -600.000000 600.000488 3000.000000
vertex -600.000000 -599.999512 3000.000000
vertex -600.000000 -599.999451 3250.000000
endloop
endfacet
facet normal -1.000000 0.000000 0.000000
outer loop
vertex -600.000000 600.000488 3000.000000
vertex -600.000000 -599.999451 3250.000000
vertex -600.000000 600.000549 3250.000000
endloop
endfacet
facet normal 0.000000 1.000000 -0.000000
outer loop
vertex 500.000000 500.000519 3250.000000
vertex -500.000000 500.000519 3250.000000
vertex -500.000000 500.000580 3500.000000
endloop
endfacet
facet normal 0.000000 1.000000 -0.000000
outer loop
vertex 500.000000 500.000519 3250.000000
vertex -500.000000 500.000580 3500.000000
vertex 500.000000 500.000580 3500.000000
endloop
endfacet
facet normal 1.000000 0.000000 0.000000
outer loop
vertex 600.000000 -599.999451 3250.000000
vertex 600.000000 600.000549 3250.000000
vertex 600.000000 600.000549 3500.000000
endloop
endfacet
facet normal 1.000000 0.000000 0.000000
outer loop
vertex 600.000000 -599.999451 3250.000000
vertex 600.000000 600.000549 3500.000000
vertex 600.000000 -599.999451 3500.000000
endloop
endfacet
facet normal 0.000000 -1.000000 0.000000
outer loop
vertex -600.000000 -599.999451 3250.000000
vertex -500.000000 -599.999451 3250.000000
vertex -500.000000 -599.999451 3500.000000
endloop
endfacet
facet normal 0.000000 -1.000000 0.000000
outer loop
vertex -600.000000 -599.999451 3250.000000
vertex -500.000000 -599.999451 3500.000000
vertex -600.000000 -599.999451 3500.000000
endloop
endfacet
facet normal 0.000000 -1.000000 0.000000
outer loop
vertex -500.000000 -499.999481 3250.000000
vertex 500.000000 -499.999481 3250.000000
vertex 500.000000 -499.999420 3500.000000
endloop
endfacet
facet normal 0.000000 -1.000000 0.000000
outer loop
vertex -500.000000 -499.999481 3250.000000
vertex 500.000000 -499.999420 3500.000000
vertex -500.000000 -499.999420 3500.000000
endloop
endfacet
facet normal 1.000000 0.000000 0.000000
outer loop
vertex -500.000000 500.000519 3250.000000
vertex -500.000000 600.000549 3250.000000
vertex -500.000000 600.000549 3500.000000
endloop
endfacet
facet normal 1.000000 0.000000 0.000000
outer loop
vertex -500.000000 500.000519 3250.000000
vertex -500.000000 600.000549 3500.000000
vertex -500.000000 500.000580 3500.000000
endloop
endfacet
facet normal 0.000000 1.000000 0.000000
outer loop
vertex 600.000000 600.000549 3250.000000
vertex 500.000000 600.000549 3250.000000
vertex 500.000000 600.000549 3500.000000
endloop
endfacet
facet normal 0.000000 1.000000 0.000000
outer loop
vertex 600.000000 600.000549 3250.000000
vertex 500.000000 600.000549 3500.000000
vertex 600.000000 600.000549 3500.000000
endloop
endfacet
facet normal 1.000000 0.000000 0.000000
outer loop
vertex -500.000000 -599.999451 3250.000000
vertex -500.000000 -499.999481 3250.000000
vertex -500.000000 -499.999420 3500.000000
endloop
endfacet
facet normal 1.000000 0.000000 0.000000
outer loop
vertex -500.000000 -599.999451 3250.000000
vertex -500.000000 -499.999420 3500.000000
vertex -500.000000 -599.999451 3500.000000
endloop
endfacet
facet normal -1.000000 0.000000 0.000000
outer loop
vertex 500.000000 -499.999481 3250.000000
vertex 500.000000 -599.999451 3250.000000
vertex 500.000000 -599.999451 3500.000000
endloop
endfacet
facet normal -1.000000 0.000000 0.000000
outer loop
vertex 500.000000 -499.999481 3250.000000
vertex 500.000000 -599.999451 3500.000000
vertex 500.000000 -499.999420 3500.000000
endloop
endfacet
facet normal 0.000000 1.000000 0.000000
outer loop
vertex -500.000000 600.000549 3250.000000
vertex -600.000000 600.000549 3250.000000
vertex -600.000000 600.000549 3500.000000
endloop
endfacet
facet normal 0.000000 1.000000 0.000000
outer loop
vertex -500.000000 600.000549 3250.000000
vertex -600.000000 600.000549 3500.000000
vertex -500.000000 600.000549 3500.000000
endloop
endfacet
facet normal -1.000000 0.000000 0.000000
outer loop
vertex 500.000000 600.000549 3250.000000
vertex 500.000000 500.000519 3250.000000
vertex 500.000000 500.000580 3500.000000
endloop
endfacet
facet normal -1.000000 0.000000 0.000000
outer loop
vertex 500.000000 600.000549 3250.000000
vertex 500.000000 500.000580 3500.000000
vertex 500.000000 600.000549 3500.000000
endloop
endfacet
facet normal 0.000000 -1.000000 0.000000
outer loop
vertex 500.000000 -599.999451 3250.000000
vertex 600.000000 -599.999451 3250.000000
vertex 600.000000 -599.999451 3500.000000
endloop
endfacet
facet normal 0.000000 -1.000000 0.000000
outer loop
vertex 500.000000 -599.999451 3250.000000
vertex 600.000000 -599.999451 3500.000000
vertex 500.000000 -599.999451 3500.000000
endloop
endfacet
facet normal -1.000000 0.000000 0.000000
outer loop
vertex -600.000000 600.000549 3250.000000
vertex -600.000000 -599.999451 3250.000000
vertex -600.000000 -599.999451 3500.000000
endloop
endfacet
facet normal -1.000000 0.000000 0.000000
outer loop
vertex -600.000000 600.000549 3250.000000
vertex -600.000000 -599.999451 3500.000000
vertex -600.000000 600.000549 3500.000000
endloop
endfacet
endsolid building_003.001
