solid building_032
facet normal -1.000000 0.000000 0.000000
outer loop
vertex -900.000000 375.000000 -0.000061
vertex -900.000000 -375.000000 0.000061
vertex -900.000000 -374.999939 300.000061
endloop
endfacet
facet normal -1.000000 0.000000 0.000000
outer loop
vertex -900.000000 375.000000 -0.000061
vertex -900.000000 -374.999939 300.000061
vertex -900.000000 375.000061 299.999939
endloop
endfacet
facet normal 0.000000 1.000000 0.000000
outer loop
vertex 750.000000 525.000000 -0.000086
vertex -750.000000 525.000000 -0.000086
vertex -750.000000 525.000061 299.999908
endloop
endfacet
facet normal 0.000000 1.000000 -0.000000
outer loop
vertex 750.000000 525.000000 -0.000086
vertex -750.000000 525.000061 299.999908
vertex 750.000000 525.000061 299.999908
endloop
endfacet
facet normal 0.000000 -1.000000 0.000000
outer loop
vertex -750.000000 -525.000000 0.000086
vertex 750.000000 -525.000000 0.000086
vertex 750.000000 -524.999939 300.000092
endloop
endfacet
facet normal 0.000000 -1.000000 0.000000
outer loop
vertex -750.000000 -525.000000 0.000086
vertex 750.000000 -524.999939 300.000092
vertex -750.000000 -524.999939 300.000092
endloop
endfacet
facet normal 0.000000 0.000000 1.000000
outer loop
vertex -750.000000 -374.999756 1500.000122
vertex -750.000000 -524.999756 1500.000122
vertex 750.000000 -524.999756 1500.000122
endloop
endfacet
facet normal 0.000000 0.000000 1.000000
outer loop
vertex 750.000000 -374.999756 1500.000122
vertex 900.000000 -374.999756 1500.000122
vertex 900.000000 375.000244 1499.999878
endloop
endfacet
facet normal 0.000000 0.000000 1.000000
outer loop
vertex -750.000000 -374.999756 1500.000122
vertex 750.000000 -524.999756 1500.000122
vertex 750.000000 -374.999756 1500.000122
endloop
endfacet
facet normal 0.000000 0.000000 1.000000
outer loop
vertex -900.000000 375.000244 1499.999878
vertex -900.000000 -374.999756 1500.000122
vertex -750.000000 -374.999756 1500.000122
endloop
endfacet
facet normal 0.000000 0.000000 1.000000
outer loop
vertex 750.000000 525.000244 1499.999878
vertex -750.000000 525.000244 1499.999878
vertex -750.000000 375.000244 1499.999878
endloop
endfacet
facet normal 0.000000 0.000000 1.000000
outer loop
vertex -750.000000 375.000244 1499.999878
vertex -900.000000 375.000244 1499.999878
vertex -750.000000 -374.999756 1500.000122
endloop
endfacet
facet normal 0.000000 0.000000 1.000000
outer loop
vertex -750.000000 -374.999756 1500.000122
vertex 750.000000 -374.999756 1500.000122
vertex 900.000000 375.000244 1499.999878
endloop
endfacet
facet normal 0.000000 0.000000 1.000000
outer loop
vertex 750.000000 375.000244 1499.999878
vertex 750.000000 525.000244 1499.999878
vertex -750.000000 375.000244 1499.999878
endloop
endfacet
facet normal 0.000000 0.000000 1.000000
outer loop
vertex -750.000000 -374.999756 1500.000122
vertex 900.000000 375.000244 1499.999878
vertex 750.000000 375.000244 1499.999878
endloop
endfacet
facet normal 0.000000 0.000000 1.000000
outer loop
vertex -750.000000 -374.999756 1500.000122
vertex 750.000000 375.000244 1499.999878
vertex -750.000000 375.000244 1499.999878
endloop
endfacet
facet normal 0.000000 -1.000000 0.000000
outer loop
vertex 750.000000 -375.000000 0.000061
vertex 900.000000 -375.000000 0.000061
vertex 900.000000 -374.999939 300.000061
endloop
endfacet
facet normal 0.000000 -1.000000 0.000000
outer loop
vertex 750.000000 -375.000000 0.000061
vertex 900.000000 -374.999939 300.000061
vertex 750.000000 -374.999939 300.000061
endloop
endfacet
facet normal -1.000000 0.000000 0.000000
outer loop
vertex -750.000000 525.000000 -0.000086
vertex -750.000000 375.000000 -0.000061
vertex -750.000000 375.000061 299.999939
endloop
endfacet
facet normal -1.000000 -0.000000 0.000000
outer loop
vertex -750.000000 525.000000 -0.000086
vertex -750.000000 375.000061 299.999939
vertex -750.000000 525.000061 299.999908
endloop
endfacet
facet normal 1.000000 0.000000 0.000000
outer loop
vertex 900.000000 -375.000000 0.000061
vertex 900.000000 375.000000 -0.000061
vertex 900.000000 375.000061 299.999939
endloop
endfacet
facet normal 1.000000 0.000000 0.000000
outer loop
vertex 900.000000 -375.000000 0.000061
vertex 900.000000 375.000061 299.999939
vertex 900.000000 -374.999939 300.000061
endloop
endfacet
facet normal 0.000000 -1.000000 0.000000
outer loop
vertex -900.000000 -375.000000 0.000061
vertex -750.000000 -375.000000 0.000061
vertex -750.000000 -374.999939 300.000061
endloop
endfacet
facet normal 0.000000 -1.000000 0.000000
outer loop
vertex -900.000000 -375.000000 0.000061
vertex -750.000000 -374.999939 300.000061
vertex -900.000000 -374.999939 300.000061
endloop
endfacet
facet normal 1.000000 0.000000 0.000000
outer loop
vertex 750.000000 -525.000000 0.000086
vertex 750.000000 -375.000000 0.000061
vertex 750.000000 -374.999939 300.000061
endloop
endfacet
facet normal 1.000000 -0.000000 0.000000
outer loop
vertex 750.000000 -525.000000 0.000086
vertex 750.000000 -374.999939 300.000061
vertex 750.000000 -524.999939 300.000092
endloop
endfacet
facet normal 1.000000 0.000000 0.000000
outer loop
vertex 750.000000 375.000000 -0.000061
vertex 750.000000 525.000000 -0.000086
vertex 750.000000 525.000061 299.999908
endloop
endfacet
facet normal 1.000000 -0.000000 0.000000
outer loop
vertex 750.000000 375.000000 -0.000061
vertex 750.000000 525.000061 299.999908
vertex 750.000000 375.000061 299.999939
endloop
endfacet
facet normal 0.000000 1.000000 -0.000000
outer loop
vertex 900.000000 375.000000 -0.000061
vertex 750.000000 375.000000 -0.000061
vertex 750.000000 375.000061 299.999939
endloop
endfacet
facet normal 0.000000 1.000000 -0.000000
outer loop
vertex 900.000000 375.000000 -0.000061
vertex 750.000000 375.000061 299.999939
vertex 900.000000 375.000061 299.999939
endloop
endfacet
facet normal 0.000000 1.000000 -0.000000
outer loop
vertex -750.000000 375.000000 -0.000061
vertex -900.000000 375.000000 -0.000061
vertex -900.000000 375.000061 299.999939
endloop
endfacet
facet normal 0.000000 1.000000 -0.000000
outer loop
vertex -750.000000 375.000000 -0.000061
vertex -900.000000 375.000061 299.999939
vertex -750.000000 375.000061 299.999939
endloop
endfacet
facet normal -1.000000 0.000000 0.000000
outer loop
vertex -750.000000 -375.000000 0.000061
vertex -750.000000 -525.000000 0.000086
vertex -750.000000 -524.999939 300.000092
endloop
endfacet
facet normal -1.000000 -0.000000 0.000000
outer loop
vertex -750.000000 -375.000000 0.000061
vertex -750.000000 -524.999939 300.000092
vertex -750.000000 -374.999939 300.000061
endloop
endfacet
facet normal 1.000000 0.000000 0.000000
outer loop
vertex 900.000000 -374.999939 300.000061
vertex 900.000000 375.000061 299.999939
vertex 900.000000 375.000092 599.999939
endloop
endfacet
facet normal 1.000000 0.000000 0.000000
outer loop
vertex 900.000000 -374.999939 300.000061
vertex 900.000000 375.000092 599.999939
vertex 900.000000 -374.999908 600.000061
endloop
endfacet
facet normal 0.000000 -1.000000 0.000000
outer loop
vertex -900.000000 -374.999939 300.000061
vertex -750.000000 -374.999939 300.000061
vertex -750.000000 -374.999908 600.000061
endloop
endfacet
facet normal 0.000000 -1.000000 0.000000
outer loop
vertex -900.000000 -374.999939 300.000061
vertex -750.000000 -374.999908 600.000061
vertex -900.000000 -374.999908 600.000061
endloop
endfacet
facet normal 0.000000 -1.000000 0.000001
outer loop
vertex -750.000000 -524.999939 300.000092
vertex 750.000000 -524.999939 300.000092
vertex 750.000000 -524.999878 600.000061
endloop
endfacet
facet normal 0.000000 -1.000000 0.000000
outer loop
vertex -750.000000 -524.999939 300.000092
vertex 750.000000 -524.999878 600.000061
vertex -750.000000 -524.999878 600.000061
endloop
endfacet
facet normal -1.000000 0.000000 0.000000
outer loop
vertex -750.000000 525.000061 299.999908
vertex -750.000000 375.000061 299.999939
vertex -750.000000 375.000092 599.999939
endloop
endfacet
facet normal -1.000000 0.000000 0.000000
outer loop
vertex -750.000000 525.000061 299.999908
vertex -750.000000 375.000092 599.999939
vertex -750.000000 525.000122 599.999939
endloop
endfacet
facet normal -1.000000 0.000000 0.000000
outer loop
vertex -750.000000 -374.999939 300.000061
vertex -750.000000 -524.999939 300.000092
vertex -750.000000 -524.999878 600.000061
endloop
endfacet
facet normal -1.000000 0.000000 0.000000
outer loop
vertex -750.000000 -374.999939 300.000061
vertex -750.000000 -524.999878 600.000061
vertex -750.000000 -374.999908 600.000061
endloop
endfacet
facet normal 0.000000 1.000000 0.000000
outer loop
vertex 900.000000 375.000061 299.999939
vertex 750.000000 375.000061 299.999939
vertex 750.000000 375.000092 599.999939
endloop
endfacet
facet normal 0.000000 1.000000 -0.000000
outer loop
vertex 900.000000 375.000061 299.999939
vertex 750.000000 375.000092 599.999939
vertex 900.000000 375.000092 599.999939
endloop
endfacet
facet normal 0.000000 1.000000 0.000000
outer loop
vertex -750.000000 375.000061 299.999939
vertex -900.000000 375.000061 299.999939
vertex -900.000000 375.000092 599.999939
endloop
endfacet
facet normal 0.000000 1.000000 -0.000000
outer loop
vertex -750.000000 375.000061 299.999939
vertex -900.000000 375.000092 599.999939
vertex -750.000000 375.000092 599.999939
endloop
endfacet
facet normal 0.000000 -1.000000 0.000000
outer loop
vertex 750.000000 -374.999939 300.000061
vertex 900.000000 -374.999939 300.000061
vertex 900.000000 -374.999908 600.000061
endloop
endfacet
facet normal 0.000000 -1.000000 0.000000
outer loop
vertex 750.000000 -374.999939 300.000061
vertex 900.000000 -374.999908 600.000061
vertex 750.000000 -374.999908 600.000061
endloop
endfacet
facet normal 1.000000 0.000000 0.000000
outer loop
vertex 750.000000 375.000061 299.999939
vertex 750.000000 525.000061 299.999908
vertex 750.000000 525.000122 599.999939
endloop
endfacet
facet normal 1.000000 0.000000 0.000000
outer loop
vertex 750.000000 375.000061 299.999939
vertex 750.000000 525.000122 599.999939
vertex 750.000000 375.000092 599.999939
endloop
endfacet
facet normal -1.000000 0.000000 0.000000
outer loop
vertex -900.000000 375.000061 299.999939
vertex -900.000000 -374.999939 300.000061
vertex -900.000000 -374.999908 600.000061
endloop
endfacet
facet normal -1.000000 0.000000 0.000000
outer loop
vertex -900.000000 375.000061 299.999939
vertex -900.000000 -374.999908 600.000061
vertex -900.000000 375.000092 599.999939
endloop
endfacet
facet normal 0.000000 1.000000 -0.000001
outer loop
vertex 750.000000 525.000061 299.999908
vertex -750.000000 525.000061 299.999908
vertex -750.000000 525.000122 599.999939
endloop
endfacet
facet normal 0.000000 1.000000 0.000000
outer loop
vertex 750.000000 525.000061 299.999908
vertex -750.000000 525.000122 599.999939
vertex 750.000000 525.000122 599.999939
endloop
endfacet
facet normal 1.000000 0.000000 0.000000
outer loop
vertex 750.000000 -524.999939 300.000092
vertex 750.000000 -374.999939 300.000061
vertex 750.000000 -374.999908 600.000061
endloop
endfacet
facet normal 1.000000 0.000000 0.000000
outer loop
vertex 750.000000 -524.999939 300.000092
vertex 750.000000 -374.999908 600.000061
vertex 750.000000 -524.999878 600.000061
endloop
endfacet
facet normal 1.000000 0.000000 0.000000
outer loop
vertex 900.000000 -374.999908 600.000061
vertex 900.000000 375.000092 599.999939
vertex 900.000000 375.000153 899.999939
endloop
endfacet
facet normal 1.000000 0.000000 0.000000
outer loop
vertex 900.000000 -374.999908 600.000061
vertex 900.000000 375.000153 899.999939
vertex 900.000000 -374.999847 900.000061
endloop
endfacet
facet normal 0.000000 -1.000000 0.000000
outer loop
vertex -900.000000 -374.999908 600.000061
vertex -750.000000 -374.999908 600.000061
vertex -750.000000 -374.999847 900.000061
endloop
endfacet
facet normal 0.000000 -1.000000 0.000000
outer loop
vertex -900.000000 -374.999908 600.000061
vertex -750.000000 -374.999847 900.000061
vertex -900.000000 -374.999847 900.000061
endloop
endfacet
facet normal 0.000000 -1.000000 0.000000
outer loop
vertex -750.000000 -524.999878 600.000061
vertex 750.000000 -524.999878 600.000061
vertex 750.000000 -524.999878 900.000061
endloop
endfacet
facet normal 0.000000 -1.000000 0.000000
outer loop
vertex -750.000000 -524.999878 600.000061
vertex 750.000000 -524.999878 900.000061
vertex -750.000000 -524.999878 900.000061
endloop
endfacet
facet normal -1.000000 0.000000 0.000000
outer loop
vertex -750.000000 525.000122 599.999939
vertex -750.000000 375.000092 599.999939
vertex -750.000000 375.000153 899.999939
endloop
endfacet
facet normal -1.000000 0.000000 0.000000
outer loop
vertex -750.000000 525.000122 599.999939
vertex -750.000000 375.000153 899.999939
vertex -750.000000 525.000122 899.999939
endloop
endfacet
facet normal 0.000000 1.000000 -0.000000
outer loop
vertex 900.000000 375.000092 599.999939
vertex 750.000000 375.000092 599.999939
vertex 750.000000 375.000153 899.999939
endloop
endfacet
facet normal 0.000000 1.000000 -0.000000
outer loop
vertex 900.000000 375.000092 599.999939
vertex 750.000000 375.000153 899.999939
vertex 900.000000 375.000153 899.999939
endloop
endfacet
facet normal 1.000000 0.000000 0.000000
outer loop
vertex 750.000000 -524.999878 600.000061
vertex 750.000000 -374.999908 600.000061
vertex 750.000000 -374.999847 900.000061
endloop
endfacet
facet normal 1.000000 0.000000 0.000000
outer loop
vertex 750.000000 -524.999878 600.000061
vertex 750.000000 -374.999847 900.000061
vertex 750.000000 -524.999878 900.000061
endloop
endfacet
facet normal 0.000000 1.000000 -0.000000
outer loop
vertex -750.000000 375.000092 599.999939
vertex -900.000000 375.000092 599.999939
vertex -900.000000 375.000153 899.999939
endloop
endfacet
facet normal 0.000000 1.000000 -0.000000
outer loop
vertex -750.000000 375.000092 599.999939
vertex -900.000000 375.000153 899.999939
vertex -750.000000 375.000153 899.999939
endloop
endfacet
facet normal 1.000000 0.000000 0.000000
outer loop
vertex 750.000000 375.000092 599.999939
vertex 750.000000 525.000122 599.999939
vertex 750.000000 525.000122 899.999939
endloop
endfacet
facet normal 1.000000 0.000000 0.000000
outer loop
vertex 750.000000 375.000092 599.999939
vertex 750.000000 525.000122 899.999939
vertex 750.000000 375.000153 899.999939
endloop
endfacet
facet normal 0.000000 -1.000000 0.000000
outer loop
vertex 750.000000 -374.999908 600.000061
vertex 900.000000 -374.999908 600.000061
vertex 900.000000 -374.999847 900.000061
endloop
endfacet
facet normal 0.000000 -1.000000 0.000000
outer loop
vertex 750.000000 -374.999908 600.000061
vertex 900.000000 -374.999847 900.000061
vertex 750.000000 -374.999847 900.000061
endloop
endfacet
facet normal -1.000000 0.000000 0.000000
outer loop
vertex -900.000000 375.000092 599.999939
vertex -900.000000 -374.999908 600.000061
vertex -900.000000 -374.999847 900.000061
endloop
endfacet
facet normal -1.000000 0.000000 0.000000
outer loop
vertex -900.000000 375.000092 599.999939
vertex -900.000000 -374.999847 900.000061
vertex -900.000000 375.000153 899.999939
endloop
endfacet
facet normal -1.000000 0.000000 0.000000
outer loop
vertex -750.000000 -374.999908 600.000061
vertex -750.000000 -524.999878 600.000061
vertex -750.000000 -524.999878 900.000061
endloop
endfacet
facet normal -1.000000 0.000000 0.000000
outer loop
vertex -750.000000 -374.999908 600.000061
vertex -750.000000 -524.999878 900.000061
vertex -750.000000 -374.999847 900.000061
endloop
endfacet
facet normal 0.000000 1.000000 0.000000
outer loop
vertex 750.000000 525.000122 599.999939
vertex -750.000000 525.000122 599.999939
vertex -750.000000 525.000122 899.999939
endloop
endfacet
facet normal 0.000000 1.000000 0.000000
outer loop
vertex 750.000000 525.000122 599.999939
vertex -750.000000 525.000122 899.999939
vertex 750.000000 525.000122 899.999939
endloop
endfacet
facet normal 0.000000 1.000000 0.000000
outer loop
vertex 750.000000 525.000122 899.999939
vertex -750.000000 525.000122 899.999939
vertex -750.000000 525.000183 1199.999878
endloop
endfacet
facet normal 0.000000 1.000000 -0.000000
outer loop
vertex 750.000000 525.000122 899.999939
vertex -750.000000 525.000183 1199.999878
vertex 750.000000 525.000183 1199.999878
endloop
endfacet
facet normal 1.000000 0.000000 0.000000
outer loop
vertex 900.000000 -374.999847 900.000061
vertex 900.000000 375.000153 899.999939
vertex 900.000000 375.000183 1199.999878
endloop
endfacet
facet normal 1.000000 -0.000000 0.000000
outer loop
vertex 900.000000 -374.999847 900.000061
vertex 900.000000 375.000183 1199.999878
vertex 900.000000 -374.999817 1200.000122
endloop
endfacet
facet normal 0.000000 -1.000000 0.000000
outer loop
vertex -900.000000 -374.999847 900.000061
vertex -750.000000 -374.999847 900.000061
vertex -750.000000 -374.999817 1200.000122
endloop
endfacet
facet normal 0.000000 -1.000000 0.000000
outer loop
vertex -900.000000 -374.999847 900.000061
vertex -750.000000 -374.999817 1200.000122
vertex -900.000000 -374.999817 1200.000122
endloop
endfacet
facet normal 0.000000 -1.000000 0.000000
outer loop
vertex -750.000000 -524.999878 900.000061
vertex 750.000000 -524.999878 900.000061
vertex 750.000000 -524.999817 1200.000122
endloop
endfacet
facet normal 0.000000 -1.000000 0.000000
outer loop
vertex -750.000000 -524.999878 900.000061
vertex 750.000000 -524.999817 1200.000122
vertex -750.000000 -524.999817 1200.000122
endloop
endfacet
facet normal -1.000000 0.000000 0.000000
outer loop
vertex -750.000000 525.000122 899.999939
vertex -750.000000 375.000153 899.999939
vertex -750.000000 375.000183 1199.999878
endloop
endfacet
facet normal -1.000000 0.000000 0.000000
outer loop
vertex -750.000000 525.000122 899.999939
vertex -750.000000 375.000183 1199.999878
vertex -750.000000 525.000183 1199.999878
endloop
endfacet
facet normal 0.000000 1.000000 -0.000000
outer loop
vertex 900.000000 375.000153 899.999939
vertex 750.000000 375.000153 899.999939
vertex 750.000000 375.000183 1199.999878
endloop
endfacet
facet normal 0.000000 1.000000 0.000000
outer loop
vertex 900.000000 375.000153 899.999939
vertex 750.000000 375.000183 1199.999878
vertex 900.000000 375.000183 1199.999878
endloop
endfacet
facet normal 1.000000 0.000000 0.000000
outer loop
vertex 750.000000 -524.999878 900.000061
vertex 750.000000 -374.999847 900.000061
vertex 750.000000 -374.999817 1200.000122
endloop
endfacet
facet normal 1.000000 0.000000 0.000000
outer loop
vertex 750.000000 -524.999878 900.000061
vertex 750.000000 -374.999817 1200.000122
vertex 750.000000 -524.999817 1200.000122
endloop
endfacet
facet normal 0.000000 1.000000 -0.000000
outer loop
vertex -750.000000 375.000153 899.999939
vertex -900.000000 375.000153 899.999939
vertex -900.000000 375.000183 1199.999878
endloop
endfacet
facet normal 0.000000 1.000000 0.000000
outer loop
vertex -750.000000 375.000153 899.999939
vertex -900.000000 375.000183 1199.999878
vertex -750.000000 375.000183 1199.999878
endloop
endfacet
facet normal 1.000000 0.000000 0.000000
outer loop
vertex 750.000000 375.000153 899.999939
vertex 750.000000 525.000122 899.999939
vertex 750.000000 525.000183 1199.999878
endloop
endfacet
facet normal 1.000000 0.000000 0.000000
outer loop
vertex 750.000000 375.000153 899.999939
vertex 750.000000 525.000183 1199.999878
vertex 750.000000 375.000183 1199.999878
endloop
endfacet
facet normal 0.000000 -1.000000 0.000000
outer loop
vertex 750.000000 -374.999847 900.000061
vertex 900.000000 -374.999847 900.000061
vertex 900.000000 -374.999817 1200.000122
endloop
endfacet
facet normal 0.000000 -1.000000 0.000000
outer loop
vertex 750.000000 -374.999847 900.000061
vertex 900.000000 -374.999817 1200.000122
vertex 750.000000 -374.999817 1200.000122
endloop
endfacet
facet normal -1.000000 0.000000 0.000000
outer loop
vertex -900.000000 375.000153 899.999939
vertex -900.000000 -374.999847 900.000061
vertex -900.000000 -374.999817 1200.000122
endloop
endfacet
facet normal -1.000000 -0.000000 0.000000
outer loop
vertex -900.000000 375.000153 899.999939
vertex -900.000000 -374.999817 1200.000122
vertex -900.000000 375.000183 1199.999878
endloop
endfacet
facet normal -1.000000 0.000000 0.000000
outer loop
vertex -750.000000 -374.999847 900.000061
vertex -750.000000 -524.999878 900.000061
vertex -750.000000 -524.999817 1200.000122
endloop
endfacet
facet normal -1.000000 0.000000 0.000000
outer loop
vertex -750.000000 -374.999847 900.000061
vertex -750.000000 -524.999817 1200.000122
vertex -750.000000 -374.999817 1200.000122
endloop
endfacet
facet normal -1.000000 0.000000 0.000000
outer loop
vertex -750.000000 -374.999817 1200.000122
vertex -750.000000 -524.999817 1200.000122
vertex -750.000000 -524.999756 1500.000122
endloop
endfacet
facet normal -1.000000 0.000000 0.000000
outer loop
vertex -750.000000 -374.999817 1200.000122
vertex -750.000000 -524.999756 1500.000122
vertex -750.000000 -374.999756 1500.000122
endloop
endfacet
facet normal 0.000000 1.000000 -0.000001
outer loop
vertex 750.000000 525.000183 1199.999878
vertex -750.000000 525.000183 1199.999878
vertex -750.000000 525.000244 1499.999878
endloop
endfacet
facet normal 0.000000 1.000000 0.000000
outer loop
vertex 750.000000 525.000183 1199.999878
vertex -750.000000 525.000244 1499.999878
vertex 750.000000 525.000244 1499.999878
endloop
endfacet
facet normal 1.000000 0.000000 0.000000
outer loop
vertex 900.000000 -374.999817 1200.000122
vertex 900.000000 375.000183 1199.999878
vertex 900.000000 375.000244 1499.999878
endloop
endfacet
facet normal 1.000000 -0.000000 0.000000
outer loop
vertex 900.000000 -374.999817 1200.000122
vertex 900.000000 375.000244 1499.999878
vertex 900.000000 -374.999756 1500.000122
endloop
endfacet
facet normal 0.000000 -1.000000 0.000000
outer loop
vertex -900.000000 -374.999817 1200.000122
vertex -750.000000 -374.999817 1200.000122
vertex -750.000000 -374.999756 1500.000122
endloop
endfacet
facet normal 0.000000 -1.000000 0.000000
outer loop
vertex -900.000000 -374.999817 1200.000122
vertex -750.000000 -374.999756 1500.000122
vertex -900.000000 -374.999756 1500.000122
endloop
endfacet
facet normal 0.000000 -1.000000 0.000001
outer loop
vertex -750.000000 -524.999817 1200.000122
vertex 750.000000 -524.999817 1200.000122
vertex 750.000000 -524.999756 1500.000122
endloop
endfacet
facet normal 0.000000 -1.000000 0.000000
outer loop
vertex -750.000000 -524.999817 1200.000122
vertex 750.000000 -524.999756 1500.000122
vertex -750.000000 -524.999756 1500.000122
endloop
endfacet
facet normal -1.000000 0.000000 0.000000
outer loop
vertex -750.000000 525.000183 1199.999878
vertex -750.000000 375.000183 1199.999878
vertex -750.000000 375.000244 1499.999878
endloop
endfacet
facet normal -1.000000 0.000000 0.000000
outer loop
vertex -750.000000 525.000183 1199.999878
vertex -750.000000 375.000244 1499.999878
vertex -750.000000 525.000244 1499.999878
endloop
endfacet
facet normal 0.000000 1.000000 -0.000000
outer loop
vertex 900.000000 375.000183 1199.999878
vertex 750.000000 375.000183 1199.999878
vertex 750.000000 375.000244 1499.999878
endloop
endfacet
facet normal 0.000000 1.000000 -0.000000
outer loop
vertex 900.000000 375.000183 1199.999878
vertex 750.000000 375.000244 1499.999878
vertex 900.000000 375.000244 1499.999878
endloop
endfacet
facet normal 1.000000 0.000000 0.000000
outer loop
vertex 750.000000 -524.999817 1200.000122
vertex 750.000000 -374.999817 1200.000122
vertex 750.000000 -374.999756 1500.000122
endloop
endfacet
facet normal 1.000000 0.000000 0.000000
outer loop
vertex 750.000000 -524.999817 1200.000122
vertex 750.000000 -374.999756 1500.000122
vertex 750.000000 -524.999756 1500.000122
endloop
endfacet
facet normal 0.000000 1.000000 -0.000000
outer loop
vertex -750.000000 375.000183 1199.999878
vertex -900.000000 375.000183 1199.999878
vertex -900.000000 375.000244 1499.999878
endloop
endfacet
facet normal 0.000000 1.000000 -0.000000
outer loop
vertex -750.000000 375.000183 1199.999878
vertex -900.000000 375.000244 1499.999878
vertex -750.000000 375.000244 1499.999878
endloop
endfacet
facet normal 1.000000 0.000000 0.000000
outer loop
vertex 750.000000 375.000183 1199.999878
vertex 750.000000 525.000183 1199.999878
vertex 750.000000 525.000244 1499.999878
endloop
endfacet
facet normal 1.000000 0.000000 0.000000
outer loop
vertex 750.000000 375.000183 1199.999878
vertex 750.000000 525.000244 1499.999878
vertex 750.000000 375.000244 1499.999878
endloop
endfacet
facet normal 0.000000 -1.000000 0.000000
outer loop
vertex 750.000000 -374.999817 1200.000122
vertex 900.000000 -374.999817 1200.000122
vertex 900.000000 -374.999756 1500.000122
endloop
endfacet
facet normal 0.000000 -1.000000 0.000000
outer loop
vertex 750.000000 -374.999817 1200.000122
vertex 900.000000 -374.999756 1500.000122
vertex 750.000000 -374.999756 1500.000122
endloop
endfacet
facet normal -1.000000 0.000000 0.000000
outer loop
vertex -900.000000 375.000183 1199.999878
vertex -900.000000 -374.999817 1200.000122
vertex -900.000000 -374.999756 1500.000122
endloop
endfacet
facet normal -1.000000 -0.000000 0.000000
outer loop
vertex -900.000000 375.000183 1199.999878
vertex -900.000000 -374.999756 1500.000122
vertex -900.000000 375.000244 1499.999878
endloop
endfacet
endsolid building_032
