solid building_004.002
facet normal 0.000000 0.000000 1.000000
outer loop
vertex -500.000000 500.000244 1499.999878
vertex -500.000000 -499.999756 1500.000122
vertex -372.081909 -499.999756 1500.000122
endloop
endfacet
facet normal 0.000000 0.000000 1.000000
outer loop
vertex -372.081909 -499.999756 1500.000122
vertex -372.081909 -1322.443481 1500.000244
vertex 372.081909 -1322.443481 1500.000244
endloop
endfacet
facet normal 0.000000 0.000000 1.000000
outer loop
vertex 372.081909 -499.999756 1500.000122
vertex 500.000000 -499.999756 1500.000122
vertex 500.000000 500.000244 1499.999878
endloop
endfacet
facet normal 0.000000 0.000000 1.000000
outer loop
vertex -372.081909 -499.999756 1500.000122
vertex 372.081909 -1322.443481 1500.000244
vertex 372.081909 -499.999756 1500.000122
endloop
endfacet
facet normal 0.000000 0.000000 1.000000
outer loop
vertex 500.000000 500.000244 1499.999878
vertex -500.000000 500.000244 1499.999878
vertex -372.081909 -499.999756 1500.000122
endloop
endfacet
facet normal 0.000000 0.000000 1.000000
outer loop
vertex -372.081909 -499.999756 1500.000122
vertex 372.081909 -499.999756 1500.000122
vertex 500.000000 500.000244 1499.999878
endloop
endfacet
facet normal 0.000000 -1.000000 0.000000
outer loop
vertex -500.000000 -500.000000 0.000081
vertex -372.081909 -500.000000 0.000081
vertex -372.081909 -499.999939 300.000092
endloop
endfacet
facet normal 0.000000 -1.000000 0.000000
outer loop
vertex -500.000000 -500.000000 0.000081
vertex -372.081909 -499.999939 300.000092
vertex -500.000000 -499.999939 300.000092
endloop
endfacet
facet normal 1.000000 -0.000000 0.000000
outer loop
vertex 500.000000 -500.000000 0.000081
vertex 500.000000 500.000000 -0.000081
vertex 500.000000 500.000061 299.999908
endloop
endfacet
facet normal 1.000000 0.000000 0.000000
outer loop
vertex 500.000000 -500.000000 0.000081
vertex 500.000000 500.000061 299.999908
vertex 500.000000 -499.999939 300.000092
endloop
endfacet
facet normal -1.000000 -0.000000 0.000000
outer loop
vertex -500.000000 500.000000 -0.000081
vertex -500.000000 -500.000000 0.000081
vertex -500.000000 -499.999939 300.000092
endloop
endfacet
facet normal -1.000000 0.000000 0.000000
outer loop
vertex -500.000000 500.000000 -0.000081
vertex -500.000000 -499.999939 300.000092
vertex -500.000000 500.000061 299.999908
endloop
endfacet
facet normal 1.000000 0.000000 0.000000
outer loop
vertex 372.081909 -1322.443726 0.000215
vertex 372.081909 -500.000000 0.000081
vertex 372.081909 -499.999939 300.000092
endloop
endfacet
facet normal 1.000000 0.000000 0.000000
outer loop
vertex 372.081909 -1322.443726 0.000215
vertex 372.081909 -499.999939 300.000092
vertex 372.081909 -1322.443726 300.000214
endloop
endfacet
facet normal 0.000000 1.000000 -0.000000
outer loop
vertex 500.000000 500.000000 -0.000081
vertex -500.000000 500.000000 -0.000081
vertex -500.000000 500.000061 299.999908
endloop
endfacet
facet normal 0.000000 1.000000 -0.000000
outer loop
vertex 500.000000 500.000000 -0.000081
vertex -500.000000 500.000061 299.999908
vertex 500.000000 500.000061 299.999908
endloop
endfacet
facet normal 0.000000 -1.000000 0.000000
outer loop
vertex 372.081909 -500.000000 0.000081
vertex 500.000000 -500.000000 0.000081
vertex 500.000000 -499.999939 300.000092
endloop
endfacet
facet normal 0.000000 -1.000000 0.000000
outer loop
vertex 372.081909 -500.000000 0.000081
vertex 500.000000 -499.999939 300.000092
vertex 372.081909 -499.999939 300.000092
endloop
endfacet
facet normal -1.000000 0.000000 0.000000
outer loop
vertex -372.081909 -500.000000 0.000081
vertex -372.081909 -1322.443726 0.000215
vertex -372.081909 -1322.443726 300.000214
endloop
endfacet
facet normal -1.000000 0.000000 0.000000
outer loop
vertex -372.081909 -500.000000 0.000081
vertex -372.081909 -1322.443726 300.000214
vertex -372.081909 -499.999939 300.000092
endloop
endfacet
facet normal 0.000000 -1.000000 0.000000
outer loop
vertex -372.081909 -1322.443726 0.000215
vertex 372.081909 -1322.443726 0.000215
vertex 372.081909 -1322.443726 300.000214
endloop
endfacet
facet normal 0.000000 -1.000000 0.000000
outer loop
vertex -372.081909 -1322.443726 0.000215
vertex 372.081909 -1322.443726 300.000214
vertex -372.081909 -1322.443726 300.000214
endloop
endfacet
facet normal -1.000000 0.000000 0.000000
outer loop
vertex -500.000000 500.000061 299.999908
vertex -500.000000 -499.999939 300.000092
vertex -500.000000 -499.999908 600.000061
endloop
endfacet
facet normal -1.000000 0.000000 0.000000
outer loop
vertex -500.000000 500.000061 299.999908
vertex -500.000000 -499.999908 600.000061
vertex -500.000000 500.000092 599.999939
endloop
endfacet
facet normal 1.000000 0.000000 0.000000
outer loop
vertex 500.000000 -499.999939 300.000092
vertex 500.000000 500.000061 299.999908
vertex 500.000000 500.000092 599.999939
endloop
endfacet
facet normal 1.000000 0.000000 0.000000
outer loop
vertex 500.000000 -499.999939 300.000092
vertex 500.000000 500.000092 599.999939
vertex 500.000000 -499.999908 600.000061
endloop
endfacet
facet normal 1.000000 0.000000 0.000000
outer loop
vertex 372.081909 -1322.443726 300.000214
vertex 372.081909 -499.999939 300.000092
vertex 372.081909 -499.999908 600.000061
endloop
endfacet
facet normal 1.000000 0.000000 0.000000
outer loop
vertex 372.081909 -1322.443726 300.000214
vertex 372.081909 -499.999908 600.000061
vertex 372.081909 -1322.443604 600.000244
endloop
endfacet
facet normal -1.000000 0.000000 0.000000
outer loop
vertex -372.081909 -499.999939 300.000092
vertex -372.081909 -1322.443726 300.000214
vertex -372.081909 -1322.443604 600.000244
endloop
endfacet
facet normal -1.000000 0.000000 0.000000
outer loop
vertex -372.081909 -499.999939 300.000092
vertex -372.081909 -1322.443604 600.000244
vertex -372.081909 -499.999908 600.000061
endloop
endfacet
facet normal 0.000000 -1.000000 0.000000
outer loop
vertex -500.000000 -499.999939 300.000092
vertex -372.081909 -499.999939 300.000092
vertex -372.081909 -499.999908 600.000061
endloop
endfacet
facet normal 0.000000 -1.000000 0.000000
outer loop
vertex -500.000000 -499.999939 300.000092
vertex -372.081909 -499.999908 600.000061
vertex -500.000000 -499.999908 600.000061
endloop
endfacet
facet normal 0.000000 1.000000 0.000000
outer loop
vertex 500.000000 500.000061 299.999908
vertex -500.000000 500.000061 299.999908
vertex -500.000000 500.000092 599.999939
endloop
endfacet
facet normal 0.000000 1.000000 -0.000000
outer loop
vertex 500.000000 500.000061 299.999908
vertex -500.000000 500.000092 599.999939
vertex 500.000000 500.000092 599.999939
endloop
endfacet
facet normal 0.000000 -1.000000 0.000000
outer loop
vertex 372.081909 -499.999939 300.000092
vertex 500.000000 -499.999939 300.000092
vertex 500.000000 -499.999908 600.000061
endloop
endfacet
facet normal 0.000000 -1.000000 0.000000
outer loop
vertex 372.081909 -499.999939 300.000092
vertex 500.000000 -499.999908 600.000061
vertex 372.081909 -499.999908 600.000061
endloop
endfacet
facet normal 0.000000 -1.000000 0.000001
outer loop
vertex -372.081909 -1322.443726 300.000214
vertex 372.081909 -1322.443726 300.000214
vertex 372.081909 -1322.443604 600.000244
endloop
endfacet
facet normal 0.000000 -1.000000 0.000000
outer loop
vertex -372.081909 -1322.443726 300.000214
vertex 372.081909 -1322.443604 600.000244
vertex -372.081909 -1322.443604 600.000244
endloop
endfacet
facet normal 0.000000 -1.000000 0.000000
outer loop
vertex -372.081909 -1322.443604 600.000244
vertex 372.081909 -1322.443604 600.000244
vertex 372.081909 -1322.443604 900.000244
endloop
endfacet
facet normal 0.000000 -1.000000 0.000000
outer loop
vertex -372.081909 -1322.443604 600.000244
vertex 372.081909 -1322.443604 900.000244
vertex -372.081909 -1322.443604 900.000244
endloop
endfacet
facet normal 0.000000 -1.000000 0.000000
outer loop
vertex -500.000000 -499.999908 600.000061
vertex -372.081909 -499.999908 600.000061
vertex -372.081909 -499.999847 900.000061
endloop
endfacet
facet normal 0.000000 -1.000000 0.000000
outer loop
vertex -500.000000 -499.999908 600.000061
vertex -372.081909 -499.999847 900.000061
vertex -500.000000 -499.999847 900.000061
endloop
endfacet
facet normal -1.000000 0.000000 0.000000
outer loop
vertex -500.000000 500.000092 599.999939
vertex -500.000000 -499.999908 600.000061
vertex -500.000000 -499.999847 900.000061
endloop
endfacet
facet normal -1.000000 0.000000 0.000000
outer loop
vertex -500.000000 500.000092 599.999939
vertex -500.000000 -499.999847 900.000061
vertex -500.000000 500.000153 899.999939
endloop
endfacet
facet normal 1.000000 0.000000 0.000000
outer loop
vertex 500.000000 -499.999908 600.000061
vertex 500.000000 500.000092 599.999939
vertex 500.000000 500.000153 899.999939
endloop
endfacet
facet normal 1.000000 0.000000 0.000000
outer loop
vertex 500.000000 -499.999908 600.000061
vertex 500.000000 500.000153 899.999939
vertex 500.000000 -499.999847 900.000061
endloop
endfacet
facet normal 1.000000 0.000000 0.000000
outer loop
vertex 372.081909 -1322.443604 600.000244
vertex 372.081909 -499.999908 600.000061
vertex 372.081909 -499.999847 900.000061
endloop
endfacet
facet normal 1.000000 -0.000000 0.000000
outer loop
vertex 372.081909 -1322.443604 600.000244
vertex 372.081909 -499.999847 900.000061
vertex 372.081909 -1322.443604 900.000244
endloop
endfacet
facet normal -1.000000 0.000000 0.000000
outer loop
vertex -372.081909 -499.999908 600.000061
vertex -372.081909 -1322.443604 600.000244
vertex -372.081909 -1322.443604 900.000244
endloop
endfacet
facet normal -1.000000 0.000000 0.000000
outer loop
vertex -372.081909 -499.999908 600.000061
vertex -372.081909 -1322.443604 900.000244
vertex -372.081909 -499.999847 900.000061
endloop
endfacet
facet normal 0.000000 1.000000 -0.000000
outer loop
vertex 500.000000 500.000092 599.999939
vertex -500.000000 500.000092 599.999939
vertex -500.000000 500.000153 899.999939
endloop
endfacet
facet normal 0.000000 1.000000 -0.000000
outer loop
vertex 500.000000 500.000092 599.999939
vertex -500.000000 500.000153 899.999939
vertex 500.000000 500.000153 899.999939
endloop
endfacet
facet normal 0.000000 -1.000000 0.000000
outer loop
vertex 372.081909 -499.999908 600.000061
vertex 500.000000 -499.999908 600.000061
vertex 500.000000 -499.999847 900.000061
endloop
endfacet
facet normal 0.000000 -1.000000 0.000000
outer loop
vertex 372.081909 -499.999908 600.000061
vertex 500.000000 -499.999847 900.000061
vertex 372.081909 -499.999847 900.000061
endloop
endfacet
facet normal 0.000000 1.000000 -0.000000
outer loop
vertex 500.000000 500.000153 899.999939
vertex -500.000000 500.000153 899.999939
vertex -500.000000 500.000183 1199.999878
endloop
endfacet
facet normal 0.000000 1.000000 0.000000
outer loop
vertex 500.000000 500.000153 899.999939
vertex -500.000000 500.000183 1199.999878
vertex 500.000000 500.000183 1199.999878
endloop
endfacet
facet normal 0.000000 -1.000000 0.000000
outer loop
vertex 372.081909 -499.999847 900.000061
vertex 500.000000 -499.999847 900.000061
vertex 500.000000 -499.999817 1200.000122
endloop
endfacet
facet normal 0.000000 -1.000000 0.000000
outer loop
vertex 372.081909 -499.999847 900.000061
vertex 500.000000 -499.999817 1200.000122
vertex 372.081909 -499.999817 1200.000122
endloop
endfacet
facet normal 0.000000 -1.000000 0.000000
outer loop
vertex -372.081909 -1322.443604 900.000244
vertex 372.081909 -1322.443604 900.000244
vertex 372.081909 -1322.443481 1200.000244
endloop
endfacet
facet normal 0.000000 -1.000000 0.000001
outer loop
vertex -372.081909 -1322.443604 900.000244
vertex 372.081909 -1322.443481 1200.000244
vertex -372.081909 -1322.443481 1200.000244
endloop
endfacet
facet normal 0.000000 -1.000000 0.000000
outer loop
vertex -500.000000 -499.999847 900.000061
vertex -372.081909 -499.999847 900.000061
vertex -372.081909 -499.999817 1200.000122
endloop
endfacet
facet normal 0.000000 -1.000000 0.000000
outer loop
vertex -500.000000 -499.999847 900.000061
vertex -372.081909 -499.999817 1200.000122
vertex -500.000000 -499.999817 1200.000122
endloop
endfacet
facet normal -1.000000 0.000000 0.000000
outer loop
vertex -500.000000 500.000153 899.999939
vertex -500.000000 -499.999847 900.000061
vertex -500.000000 -499.999817 1200.000122
endloop
endfacet
facet normal -1.000000 0.000000 0.000000
outer loop
vertex -500.000000 500.000153 899.999939
vertex -500.000000 -499.999817 1200.000122
vertex -500.000000 500.000183 1199.999878
endloop
endfacet
facet normal 1.000000 0.000000 0.000000
outer loop
vertex 500.000000 -499.999847 900.000061
vertex 500.000000 500.000153 899.999939
vertex 500.000000 500.000183 1199.999878
endloop
endfacet
facet normal 1.000000 0.000000 0.000000
outer loop
vertex 500.000000 -499.999847 900.000061
vertex 500.000000 500.000183 1199.999878
vertex 500.000000 -499.999817 1200.000122
endloop
endfacet
facet normal 1.000000 0.000000 0.000000
outer loop
vertex 372.081909 -1322.443604 900.000244
vertex 372.081909 -499.999847 900.000061
vertex 372.081909 -499.999817 1200.000122
endloop
endfacet
facet normal 1.000000 0.000000 0.000000
outer loop
vertex 372.081909 -1322.443604 900.000244
vertex 372.081909 -499.999817 1200.000122
vertex 372.081909 -1322.443481 1200.000244
endloop
endfacet
facet normal -1.000000 0.000000 0.000000
outer loop
vertex -372.081909 -499.999847 900.000061
vertex -372.081909 -1322.443604 900.000244
vertex -372.081909 -1322.443481 1200.000244
endloop
endfacet
facet normal -1.000000 0.000000 0.000000
outer loop
vertex -372.081909 -499.999847 900.000061
vertex -372.081909 -1322.443481 1200.000244
vertex -372.081909 -499.999817 1200.000122
endloop
endfacet
facet normal 1.000000 0.000000 0.000000
outer loop
vertex 372.081909 -1322.443481 1200.000244
vertex 372.081909 -499.999817 1200.000122
vertex 372.081909 -499.999756 1500.000122
endloop
endfacet
facet normal 1.000000 0.000000 0.000000
outer loop
vertex 372.081909 -1322.443481 1200.000244
vertex 372.081909 -499.999756 1500.000122
vertex 372.081909 -1322.443481 1500.000244
endloop
endfacet
facet normal -1.000000 0.000000 0.000000
outer loop
vertex -372.081909 -499.999817 1200.000122
vertex -372.081909 -1322.443481 1200.000244
vertex -372.081909 -1322.443481 1500.000244
endloop
endfacet
facet normal -1.000000 0.000000 0.000000
outer loop
vertex -372.081909 -499.999817 1200.000122
vertex -372.081909 -1322.443481 1500.000244
vertex -372.081909 -499.999756 1500.000122
endloop
endfacet
facet normal 0.000000 1.000000 -0.000000
outer loop
vertex 500.000000 500.000183 1199.999878
vertex -500.000000 500.000183 1199.999878
vertex -500.000000 500.000244 1499.999878
endloop
endfacet
facet normal 0.000000 1.000000 -0.000000
outer loop
vertex 500.000000 500.000183 1199.999878
vertex -500.000000 500.000244 1499.999878
vertex 500.000000 500.000244 1499.999878
endloop
endfacet
facet normal 0.000000 -1.000000 0.000000
outer loop
vertex 372.081909 -499.999817 1200.000122
vertex 500.000000 -499.999817 1200.000122
vertex 500.000000 -499.999756 1500.000122
endloop
endfacet
facet normal 0.000000 -1.000000 0.000000
outer loop
vertex 372.081909 -499.999817 1200.000122
vertex 500.000000 -499.999756 1500.000122
vertex 372.081909 -499.999756 1500.000122
endloop
endfacet
facet normal 0.000000 -1.000000 0.000000
outer loop
vertex -372.081909 -1322.443481 1200.000244
vertex 372.081909 -1322.443481 1200.000244
vertex 372.081909 -1322.443481 1500.000244
endloop
endfacet
facet normal 0.000000 -1.000000 0.000000
outer loop
vertex -372.081909 -1322.443481 1200.000244
vertex 372.081909 -1322.443481 1500.000244
vertex -372.081909 -1322.443481 1500.000244
endloop
endfacet
facet normal 0.000000 -1.000000 0.000000
outer loop
vertex -500.000000 -499.999817 1200.000122
vertex -372.081909 -499.999817 1200.000122
vertex -372.081909 -499.999756 1500.000122
endloop
endfacet
facet normal 0.000000 -1.000000 0.000000
outer loop
vertex -500.000000 -499.999817 1200.000122
vertex -372.081909 -499.999756 1500.000122
vertex -500.000000 -499.999756 1500.000122
endloop
endfacet
facet normal -1.000000 0.000000 0.000000
outer loop
vertex -500.000000 500.000183 1199.999878
vertex -500.000000 -499.999817 1200.000122
vertex -500.000000 -499.999756 1500.000122
endloop
endfacet
facet normal -1.000000 0.000000 0.000000
outer loop
vertex -500.000000 500.000183 1199.999878
vertex -500.000000 -499.999756 1500.000122
vertex -500.000000 500.000244 1499.999878
endloop
endfacet
facet normal 1.000000 0.000000 0.000000
outer loop
vertex 500.000000 -499.999817 1200.000122
vertex 500.000000 500.000183 1199.999878
vertex 500.000000 500.000244 1499.999878
endloop
endfacet
facet normal 1.000000 0.000000 0.000000
outer loop
vertex 500.000000 -499.999817 1200.000122
vertex 500.000000 500.000244 1499.999878
vertex 500.000000 -499.999756 1500.000122
endloop
endfacet
endsolid building_004.002
