solid building_023
facet normal 0.000000 0.000000 1.000000
outer loop
vertex -756.750000 -524.999390 3600.000000
vertex 756.750000 -524.999390 3600.000000
vertex 756.750000 525.000610 3600.000000
endloop
endfacet
facet normal 0.000000 0.000000 1.000000
outer loop
vertex -756.750000 -524.999390 3600.000000
vertex 756.750000 525.000610 3600.000000
vertex -756.750000 525.000610 3600.000000
endloop
endfacet
facet normal 0.000000 -1.000000 0.000000
outer loop
vertex -756.750000 -525.000000 0.000086
vertex 756.750000 -525.000000 0.000086
vertex 756.750000 -524.999878 900.000061
endloop
endfacet
facet normal 0.000000 -1.000000 0.000000
outer loop
vertex -756.750000 -525.000000 0.000086
vertex 756.750000 -524.999878 900.000061
vertex -756.750000 -524.999878 900.000061
endloop
endfacet
facet normal 1.000000 0.000000 0.000000
outer loop
vertex 756.750000 -525.000000 0.000086
vertex 756.750000 525.000000 -0.000086
vertex 756.750000 525.000122 899.999939
endloop
endfacet
facet normal 1.000000 -0.000000 0.000000
outer loop
vertex 756.750000 -525.000000 0.000086
vertex 756.750000 525.000122 899.999939
vertex 756.750000 -524.999878 900.000061
endloop
endfacet
facet normal -1.000000 0.000000 0.000000
outer loop
vertex -756.750000 525.000000 -0.000086
vertex -756.750000 -525.000000 0.000086
vertex -756.750000 -524.999878 900.000061
endloop
endfacet
facet normal -1.000000 -0.000000 0.000000
outer loop
vertex -756.750000 525.000000 -0.000086
vertex -756.750000 -524.999878 900.000061
vertex -756.750000 525.000122 899.999939
endloop
endfacet
facet normal 0.000000 1.000000 -0.000000
outer loop
vertex 756.750000 525.000000 -0.000086
vertex -756.750000 525.000000 -0.000086
vertex -756.750000 525.000122 899.999939
endloop
endfacet
facet normal 0.000000 1.000000 -0.000000
outer loop
vertex 756.750000 525.000000 -0.000086
vertex -756.750000 525.000122 899.999939
vertex 756.750000 525.000122 899.999939
endloop
endfacet
facet normal 0.000000 1.000000 -0.000000
outer loop
vertex 756.750000 525.000122 899.999939
vertex -756.750000 525.000122 899.999939
vertex -756.750000 525.000305 1799.999878
endloop
endfacet
facet normal 0.000000 1.000000 -0.000000
outer loop
vertex 756.750000 525.000122 899.999939
vertex -756.750000 525.000305 1799.999878
vertex 756.750000 525.000305 1799.999878
endloop
endfacet
facet normal 0.000000 -1.000000 0.000000
outer loop
vertex -756.750000 -524.999878 900.000061
vertex 756.750000 -524.999878 900.000061
vertex 756.750000 -524.999695 1800.000122
endloop
endfacet
facet normal 0.000000 -1.000000 0.000000
outer loop
vertex -756.750000 -524.999878 900.000061
vertex 756.750000 -524.999695 1800.000122
vertex -756.750000 -524.999695 1800.000122
endloop
endfacet
facet normal -1.000000 0.000000 0.000000
outer loop
vertex -756.750000 525.000122 899.999939
vertex -756.750000 -524.999878 900.000061
vertex -756.750000 -524.999695 1800.000122
endloop
endfacet
facet normal -1.000000 0.000000 0.000000
outer loop
vertex -756.750000 525.000122 899.999939
vertex -756.750000 -524.999695 1800.000122
vertex -756.750000 525.000305 1799.999878
endloop
endfacet
facet normal 1.000000 0.000000 0.000000
outer loop
vertex 756.750000 -524.999878 900.000061
vertex 756.750000 525.000122 899.999939
vertex 756.750000 525.000305 1799.999878
endloop
endfacet
facet normal 1.000000 0.000000 0.000000
outer loop
vertex 756.750000 -524.999878 900.000061
vertex 756.750000 525.000305 1799.999878
vertex 756.750000 -524.999695 1800.000122
endloop
endfacet
facet normal 0.000000 -1.000000 0.000000
outer loop
vertex -756.750000 -524.999695 1800.000122
vertex 756.750000 -524.999695 1800.000122
vertex 756.750000 -524.999573 2700.000000
endloop
endfacet
facet normal 0.000000 -1.000000 0.000000
outer loop
vertex -756.750000 -524.999695 1800.000122
vertex 756.750000 -524.999573 2700.000000
vertex -756.750000 -524.999573 2700.000000
endloop
endfacet
facet normal -1.000000 0.000000 0.000000
outer loop
vertex -756.750000 525.000305 1799.999878
vertex -756.750000 -524.999695 1800.000122
vertex -756.750000 -524.999573 2700.000000
endloop
endfacet
facet normal -1.000000 0.000000 0.000000
outer loop
vertex -756.750000 525.000305 1799.999878
vertex -756.750000 -524.999573 2700.000000
vertex -756.750000 525.000427 2700.000000
endloop
endfacet
facet normal 1.000000 0.000000 0.000000
outer loop
vertex 756.750000 -524.999695 1800.000122
vertex 756.750000 525.000305 1799.999878
vertex 756.750000 525.000427 2700.000000
endloop
endfacet
facet normal 1.000000 0.000000 0.000000
outer loop
vertex 756.750000 -524.999695 1800.000122
vertex 756.750000 525.000427 2700.000000
vertex 756.750000 -524.999573 2700.000000
endloop
endfacet
facet normal 0.000000 1.000000 -0.000000
outer loop
vertex 756.750000 525.000305 1799.999878
vertex -756.750000 525.000305 1799.999878
vertex -756.750000 525.000427 2700.000000
endloop
endfacet
facet normal 0.000000 1.000000 -0.000000
outer loop
vertex 756.750000 525.000305 1799.999878
vertex -756.750000 525.000427 2700.000000
vertex 756.750000 525.000427 2700.000000
endloop
endfacet
facet normal -1.000000 0.000000 0.000000
outer loop
vertex -756.750000 525.000427 2700.000000
vertex -756.750000 -524.999573 2700.000000
vertex -756.750000 -524.999390 3600.000000
endloop
endfacet
facet normal -1.000000 0.000000 0.000000
outer loop
vertex -756.750000 525.000427 2700.000000
vertex -756.750000 -524.999390 3600.000000
vertex -756.750000 525.000610 3600.000000
endloop
endfacet
facet normal 1.000000 0.000000 0.000000
outer loop
vertex 756.750000 -524.999573 2700.000000
vertex 756.750000 525.000427 2700.000000
vertex 756.750000 525.000610 3600.000000
endloop
endfacet
facet normal 1.000000 0.000000 0.000000
outer loop
vertex 756.750000 -524.999573 2700.000000
vertex 756.750000 525.000610 3600.000000
vertex 756.750000 -524.999390 3600.000000
endloop
endfacet
facet normal 0.000000 1.000000 -0.000000
outer loop
vertex 756.750000 525.000427 2700.000000
vertex -756.750000 525.000427 2700.000000
vertex -756.750000 525.000610 3600.000000
endloop
endfacet
facet normal 0.000000 1.000000 -0.000000
outer loop
vertex 756.750000 525.000427 2700.000000
vertex -756.750000 525.000610 3600.000000
vertex 756.750000 525.000610 3600.000000
endloop
endfacet
facet normal 0.000000 -1.000000 0.000000
outer loop
vertex -756.750000 -524.999573 2700.000000
vertex 756.750000 -524.999573 2700.000000
vertex 756.750000 -524.999390 3600.000000
endloop
endfacet
facet normal 0.000000 -1.000000 0.000000
outer loop
vertex -756.750000 -524.999573 2700.000000
vertex 756.750000 -524.999390 3600.000000
vertex -756.750000 -524.999390 3600.000000
endloop
endfacet
endsolid building_023
