solid building_012
facet normal 0.000000 0.000001 1.000000
outer loop
vertex -750.000000 -480.038910 2100.000000
vertex -750.000000 -749.999634 2100.000244
vertex 750.000000 -749.999634 2100.000244
endloop
endfacet
facet normal 0.000000 0.000000 1.000000
outer loop
vertex 750.000000 -749.999634 2100.000244
vertex 750.000000 750.000366 2099.999756
vertex -750.000000 750.000366 2099.999756
endloop
endfacet
facet normal 0.000000 0.000000 1.000000
outer loop
vertex -750.000000 714.030701 2100.000000
vertex -1139.301147 714.030701 2100.000000
vertex -1139.301147 -480.038910 2100.000000
endloop
endfacet
facet normal -0.000008 0.000007 1.000000
outer loop
vertex 750.000000 -749.999634 2100.000244
vertex -750.000000 750.000366 2099.999756
vertex -750.000000 714.030701 2100.000000
endloop
endfacet
facet normal 0.000000 0.000000 1.000000
outer loop
vertex -750.000000 714.030701 2100.000000
vertex -1139.301147 -480.038910 2100.000000
vertex -750.000000 -480.038910 2100.000000
endloop
endfacet
facet normal 0.000000 0.000000 1.000000
outer loop
vertex 750.000000 -749.999634 2100.000244
vertex -750.000000 714.030701 2100.000000
vertex -750.000000 -480.038910 2100.000000
endloop
endfacet
facet normal 0.000000 -1.000000 0.000000
outer loop
vertex -1139.301147 -480.039246 0.000078
vertex -750.000000 -480.039246 0.000078
vertex -750.000000 -480.039185 300.000092
endloop
endfacet
facet normal 0.000000 -1.000000 0.000000
outer loop
vertex -1139.301147 -480.039246 0.000078
vertex -750.000000 -480.039185 300.000092
vertex -1139.301147 -480.039185 300.000092
endloop
endfacet
facet normal 0.000000 1.000000 0.000000
outer loop
vertex 750.000000 750.000000 -0.000122
vertex -750.000000 750.000000 -0.000122
vertex -750.000000 750.000061 299.999878
endloop
endfacet
facet normal 0.000000 1.000000 -0.000001
outer loop
vertex 750.000000 750.000000 -0.000122
vertex -750.000000 750.000061 299.999878
vertex 750.000000 750.000061 299.999878
endloop
endfacet
facet normal 0.000000 -1.000000 0.000000
outer loop
vertex -750.000000 -750.000000 0.000122
vertex 750.000000 -750.000000 0.000122
vertex 750.000000 -749.999939 300.000122
endloop
endfacet
facet normal 0.000000 -1.000000 0.000001
outer loop
vertex -750.000000 -750.000000 0.000122
vertex 750.000000 -749.999939 300.000122
vertex -750.000000 -749.999939 300.000122
endloop
endfacet
facet normal 0.000000 1.000000 0.000000
outer loop
vertex -750.000000 714.030334 -0.000116
vertex -1139.301147 714.030334 -0.000116
vertex -1139.301147 714.030396 299.999878
endloop
endfacet
facet normal 0.000000 1.000000 0.000000
outer loop
vertex -750.000000 714.030334 -0.000116
vertex -1139.301147 714.030396 299.999878
vertex -750.000000 714.030396 299.999878
endloop
endfacet
facet normal -1.000000 -0.000000 0.000000
outer loop
vertex -1139.301147 714.030334 -0.000116
vertex -1139.301147 -480.039246 0.000078
vertex -1139.301147 -480.039185 300.000092
endloop
endfacet
facet normal -1.000000 0.000000 0.000000
outer loop
vertex -1139.301147 714.030334 -0.000116
vertex -1139.301147 -480.039185 300.000092
vertex -1139.301147 714.030396 299.999878
endloop
endfacet
facet normal -1.000000 0.000000 0.000000
outer loop
vertex -750.000000 750.000000 -0.000122
vertex -750.000000 714.030334 -0.000116
vertex -750.000000 714.030396 299.999878
endloop
endfacet
facet normal -1.000000 0.000000 0.000000
outer loop
vertex -750.000000 750.000000 -0.000122
vertex -750.000000 714.030396 299.999878
vertex -750.000000 750.000061 299.999878
endloop
endfacet
facet normal 1.000000 0.000000 0.000000
outer loop
vertex 750.000000 -750.000000 0.000122
vertex 750.000000 750.000000 -0.000122
vertex 750.000000 750.000061 299.999878
endloop
endfacet
facet normal 1.000000 0.000000 0.000000
outer loop
vertex 750.000000 -750.000000 0.000122
vertex 750.000000 750.000061 299.999878
vertex 750.000000 -749.999939 300.000122
endloop
endfacet
facet normal -1.000000 0.000000 0.000000
outer loop
vertex -750.000000 -480.039246 0.000078
vertex -750.000000 -750.000000 0.000122
vertex -750.000000 -749.999939 300.000122
endloop
endfacet
facet normal -1.000000 -0.000000 0.000000
outer loop
vertex -750.000000 -480.039246 0.000078
vertex -750.000000 -749.999939 300.000122
vertex -750.000000 -480.039185 300.000092
endloop
endfacet
facet normal 0.000000 -1.000000 0.000000
outer loop
vertex -750.000000 -749.999939 300.000122
vertex 750.000000 -749.999939 300.000122
vertex 750.000000 -749.999878 600.000122
endloop
endfacet
facet normal 0.000000 -1.000000 0.000000
outer loop
vertex -750.000000 -749.999939 300.000122
vertex 750.000000 -749.999878 600.000122
vertex -750.000000 -749.999878 600.000122
endloop
endfacet
facet normal 0.000000 -1.000000 0.000000
outer loop
vertex -1139.301147 -480.039185 300.000092
vertex -750.000000 -480.039185 300.000092
vertex -750.000000 -480.039154 600.000061
endloop
endfacet
facet normal 0.000000 -1.000000 0.000000
outer loop
vertex -1139.301147 -480.039185 300.000092
vertex -750.000000 -480.039154 600.000061
vertex -1139.301147 -480.039154 600.000061
endloop
endfacet
facet normal 0.000000 1.000000 0.000000
outer loop
vertex -750.000000 714.030396 299.999878
vertex -1139.301147 714.030396 299.999878
vertex -1139.301147 714.030457 599.999878
endloop
endfacet
facet normal 0.000000 1.000000 -0.000001
outer loop
vertex -750.000000 714.030396 299.999878
vertex -1139.301147 714.030457 599.999878
vertex -750.000000 714.030457 599.999878
endloop
endfacet
facet normal 0.000000 1.000000 0.000000
outer loop
vertex 750.000000 750.000061 299.999878
vertex -750.000000 750.000061 299.999878
vertex -750.000000 750.000122 599.999878
endloop
endfacet
facet normal 0.000000 1.000000 0.000000
outer loop
vertex 750.000000 750.000061 299.999878
vertex -750.000000 750.000122 599.999878
vertex 750.000000 750.000122 599.999878
endloop
endfacet
facet normal -1.000000 0.000000 0.000000
outer loop
vertex -750.000000 -480.039185 300.000092
vertex -750.000000 -749.999939 300.000122
vertex -750.000000 -749.999878 600.000122
endloop
endfacet
facet normal -1.000000 -0.000000 0.000000
outer loop
vertex -750.000000 -480.039185 300.000092
vertex -750.000000 -749.999878 600.000122
vertex -750.000000 -480.039154 600.000061
endloop
endfacet
facet normal -1.000000 0.000000 0.000000
outer loop
vertex -1139.301147 714.030396 299.999878
vertex -1139.301147 -480.039185 300.000092
vertex -1139.301147 -480.039154 600.000061
endloop
endfacet
facet normal -1.000000 0.000000 0.000000
outer loop
vertex -1139.301147 714.030396 299.999878
vertex -1139.301147 -480.039154 600.000061
vertex -1139.301147 714.030457 599.999878
endloop
endfacet
facet normal -1.000000 0.000000 0.000000
outer loop
vertex -750.000000 750.000061 299.999878
vertex -750.000000 714.030396 299.999878
vertex -750.000000 714.030457 599.999878
endloop
endfacet
facet normal -1.000000 0.000000 0.000000
outer loop
vertex -750.000000 750.000061 299.999878
vertex -750.000000 714.030457 599.999878
vertex -750.000000 750.000122 599.999878
endloop
endfacet
facet normal 1.000000 0.000000 0.000000
outer loop
vertex 750.000000 -749.999939 300.000122
vertex 750.000000 750.000061 299.999878
vertex 750.000000 750.000122 599.999878
endloop
endfacet
facet normal 1.000000 0.000000 0.000000
outer loop
vertex 750.000000 -749.999939 300.000122
vertex 750.000000 750.000122 599.999878
vertex 750.000000 -749.999878 600.000122
endloop
endfacet
facet normal -1.000000 0.000000 0.000000
outer loop
vertex -1139.301147 714.030457 599.999878
vertex -1139.301147 -480.039154 600.000061
vertex -1139.301147 -480.039093 900.000061
endloop
endfacet
facet normal -1.000000 0.000000 0.000000
outer loop
vertex -1139.301147 714.030457 599.999878
vertex -1139.301147 -480.039093 900.000061
vertex -1139.301147 714.030457 899.999878
endloop
endfacet
facet normal -1.000000 0.000000 0.000000
outer loop
vertex -750.000000 750.000122 599.999878
vertex -750.000000 714.030457 599.999878
vertex -750.000000 714.030457 899.999878
endloop
endfacet
facet normal -1.000000 0.000000 0.000000
outer loop
vertex -750.000000 750.000122 599.999878
vertex -750.000000 714.030457 899.999878
vertex -750.000000 750.000122 899.999878
endloop
endfacet
facet normal 1.000000 0.000000 0.000000
outer loop
vertex 750.000000 -749.999878 600.000122
vertex 750.000000 750.000122 599.999878
vertex 750.000000 750.000122 899.999878
endloop
endfacet
facet normal 1.000000 0.000000 0.000000
outer loop
vertex 750.000000 -749.999878 600.000122
vertex 750.000000 750.000122 899.999878
vertex 750.000000 -749.999878 900.000122
endloop
endfacet
facet normal 0.000000 -1.000000 0.000000
outer loop
vertex -1139.301147 -480.039154 600.000061
vertex -750.000000 -480.039154 600.000061
vertex -750.000000 -480.039093 900.000061
endloop
endfacet
facet normal 0.000000 -1.000000 0.000000
outer loop
vertex -1139.301147 -480.039154 600.000061
vertex -750.000000 -480.039093 900.000061
vertex -1139.301147 -480.039093 900.000061
endloop
endfacet
facet normal 0.000000 1.000000 0.000000
outer loop
vertex -750.000000 714.030457 599.999878
vertex -1139.301147 714.030457 599.999878
vertex -1139.301147 714.030457 899.999878
endloop
endfacet
facet normal 0.000000 1.000000 0.000000
outer loop
vertex -750.000000 714.030457 599.999878
vertex -1139.301147 714.030457 899.999878
vertex -750.000000 714.030457 899.999878
endloop
endfacet
facet normal 0.000000 1.000000 0.000000
outer loop
vertex 750.000000 750.000122 599.999878
vertex -750.000000 750.000122 599.999878
vertex -750.000000 750.000122 899.999878
endloop
endfacet
facet normal 0.000000 1.000000 0.000000
outer loop
vertex 750.000000 750.000122 599.999878
vertex -750.000000 750.000122 899.999878
vertex 750.000000 750.000122 899.999878
endloop
endfacet
facet normal 0.000000 -1.000000 0.000000
outer loop
vertex -750.000000 -749.999878 600.000122
vertex 750.000000 -749.999878 600.000122
vertex 750.000000 -749.999878 900.000122
endloop
endfacet
facet normal 0.000000 -1.000000 0.000000
outer loop
vertex -750.000000 -749.999878 600.000122
vertex 750.000000 -749.999878 900.000122
vertex -750.000000 -749.999878 900.000122
endloop
endfacet
facet normal -1.000000 0.000000 0.000000
outer loop
vertex -750.000000 -480.039154 600.000061
vertex -750.000000 -749.999878 600.000122
vertex -750.000000 -749.999878 900.000122
endloop
endfacet
facet normal -1.000000 0.000000 0.000000
outer loop
vertex -750.000000 -480.039154 600.000061
vertex -750.000000 -749.999878 900.000122
vertex -750.000000 -480.039093 900.000061
endloop
endfacet
facet normal 0.000000 -1.000000 0.000000
outer loop
vertex -750.000000 -749.999878 900.000122
vertex 750.000000 -749.999878 900.000122
vertex 750.000000 -749.999817 1200.000122
endloop
endfacet
facet normal 0.000000 -1.000000 0.000001
outer loop
vertex -750.000000 -749.999878 900.000122
vertex 750.000000 -749.999817 1200.000122
vertex -750.000000 -749.999817 1200.000122
endloop
endfacet
facet normal -1.000000 0.000000 0.000000
outer loop
vertex -750.000000 -480.039093 900.000061
vertex -750.000000 -749.999878 900.000122
vertex -750.000000 -749.999817 1200.000122
endloop
endfacet
facet normal -1.000000 0.000000 0.000000
outer loop
vertex -750.000000 -480.039093 900.000061
vertex -750.000000 -749.999817 1200.000122
vertex -750.000000 -480.039062 1200.000122
endloop
endfacet
facet normal -1.000000 0.000000 0.000000
outer loop
vertex -1139.301147 714.030457 899.999878
vertex -1139.301147 -480.039093 900.000061
vertex -1139.301147 -480.039062 1200.000122
endloop
endfacet
facet normal -1.000000 0.000000 0.000000
outer loop
vertex -1139.301147 714.030457 899.999878
vertex -1139.301147 -480.039062 1200.000122
vertex -1139.301147 714.030518 1199.999878
endloop
endfacet
facet normal -1.000000 0.000000 0.000000
outer loop
vertex -750.000000 750.000122 899.999878
vertex -750.000000 714.030457 899.999878
vertex -750.000000 714.030518 1199.999878
endloop
endfacet
facet normal -1.000000 0.000000 0.000000
outer loop
vertex -750.000000 750.000122 899.999878
vertex -750.000000 714.030518 1199.999878
vertex -750.000000 750.000183 1199.999878
endloop
endfacet
facet normal 1.000000 0.000000 0.000000
outer loop
vertex 750.000000 -749.999878 900.000122
vertex 750.000000 750.000122 899.999878
vertex 750.000000 750.000183 1199.999878
endloop
endfacet
facet normal 1.000000 0.000000 0.000000
outer loop
vertex 750.000000 -749.999878 900.000122
vertex 750.000000 750.000183 1199.999878
vertex 750.000000 -749.999817 1200.000122
endloop
endfacet
facet normal 0.000000 -1.000000 0.000000
outer loop
vertex -1139.301147 -480.039093 900.000061
vertex -750.000000 -480.039093 900.000061
vertex -750.000000 -480.039062 1200.000122
endloop
endfacet
facet normal 0.000000 -1.000000 0.000000
outer loop
vertex -1139.301147 -480.039093 900.000061
vertex -750.000000 -480.039062 1200.000122
vertex -1139.301147 -480.039062 1200.000122
endloop
endfacet
facet normal 0.000000 1.000000 -0.000001
outer loop
vertex -750.000000 714.030457 899.999878
vertex -1139.301147 714.030457 899.999878
vertex -1139.301147 714.030518 1199.999878
endloop
endfacet
facet normal 0.000000 1.000000 0.000000
outer loop
vertex -750.000000 714.030457 899.999878
vertex -1139.301147 714.030518 1199.999878
vertex -750.000000 714.030518 1199.999878
endloop
endfacet
facet normal 0.000000 1.000000 0.000000
outer loop
vertex 750.000000 750.000122 899.999878
vertex -750.000000 750.000122 899.999878
vertex -750.000000 750.000183 1199.999878
endloop
endfacet
facet normal 0.000000 1.000000 -0.000001
outer loop
vertex 750.000000 750.000122 899.999878
vertex -750.000000 750.000183 1199.999878
vertex 750.000000 750.000183 1199.999878
endloop
endfacet
facet normal 0.000000 -1.000000 0.000000
outer loop
vertex -1139.301147 -480.039062 1200.000122
vertex -750.000000 -480.039062 1200.000122
vertex -750.000000 -480.039001 1500.000122
endloop
endfacet
facet normal 0.000000 -1.000000 0.000000
outer loop
vertex -1139.301147 -480.039062 1200.000122
vertex -750.000000 -480.039001 1500.000122
vertex -1139.301147 -480.039001 1500.000122
endloop
endfacet
facet normal 0.000000 1.000000 0.000000
outer loop
vertex -750.000000 714.030518 1199.999878
vertex -1139.301147 714.030518 1199.999878
vertex -1139.301147 714.030579 1499.999878
endloop
endfacet
facet normal 0.000000 1.000000 -0.000001
outer loop
vertex -750.000000 714.030518 1199.999878
vertex -1139.301147 714.030579 1499.999878
vertex -750.000000 714.030579 1499.999878
endloop
endfacet
facet normal 0.000000 1.000000 -0.000001
outer loop
vertex 750.000000 750.000183 1199.999878
vertex -750.000000 750.000183 1199.999878
vertex -750.000000 750.000244 1499.999878
endloop
endfacet
facet normal 0.000000 1.000000 0.000000
outer loop
vertex 750.000000 750.000183 1199.999878
vertex -750.000000 750.000244 1499.999878
vertex 750.000000 750.000244 1499.999878
endloop
endfacet
facet normal 0.000000 -1.000000 0.000001
outer loop
vertex -750.000000 -749.999817 1200.000122
vertex 750.000000 -749.999817 1200.000122
vertex 750.000000 -749.999756 1500.000122
endloop
endfacet
facet normal 0.000000 -1.000000 0.000000
outer loop
vertex -750.000000 -749.999817 1200.000122
vertex 750.000000 -749.999756 1500.000122
vertex -750.000000 -749.999756 1500.000122
endloop
endfacet
facet normal -1.000000 0.000000 0.000000
outer loop
vertex -750.000000 -480.039062 1200.000122
vertex -750.000000 -749.999817 1200.000122
vertex -750.000000 -749.999756 1500.000122
endloop
endfacet
facet normal -1.000000 0.000000 0.000000
outer loop
vertex -750.000000 -480.039062 1200.000122
vertex -750.000000 -749.999756 1500.000122
vertex -750.000000 -480.039001 1500.000122
endloop
endfacet
facet normal -1.000000 0.000000 0.000000
outer loop
vertex -1139.301147 714.030518 1199.999878
vertex -1139.301147 -480.039062 1200.000122
vertex -1139.301147 -480.039001 1500.000122
endloop
endfacet
facet normal -1.000000 0.000000 0.000000
outer loop
vertex -1139.301147 714.030518 1199.999878
vertex -1139.301147 -480.039001 1500.000122
vertex -1139.301147 714.030579 1499.999878
endloop
endfacet
facet normal -1.000000 0.000000 0.000000
outer loop
vertex -750.000000 750.000183 1199.999878
vertex -750.000000 714.030518 1199.999878
vertex -750.000000 714.030579 1499.999878
endloop
endfacet
facet normal -1.000000 0.000000 0.000000
outer loop
vertex -750.000000 750.000183 1199.999878
vertex -750.000000 714.030579 1499.999878
vertex -750.000000 750.000244 1499.999878
endloop
endfacet
facet normal 1.000000 0.000000 0.000000
outer loop
vertex 750.000000 -749.999817 1200.000122
vertex 750.000000 750.000183 1199.999878
vertex 750.000000 750.000244 1499.999878
endloop
endfacet
facet normal 1.000000 0.000000 0.000000
outer loop
vertex 750.000000 -749.999817 1200.000122
vertex 750.000000 750.000244 1499.999878
vertex 750.000000 -749.999756 1500.000122
endloop
endfacet
facet normal 1.000000 0.000000 0.000000
outer loop
vertex 750.000000 -749.999756 1500.000122
vertex 750.000000 750.000244 1499.999878
vertex 750.000000 750.000305 1799.999878
endloop
endfacet
facet normal 1.000000 0.000000 0.000000
outer loop
vertex 750.000000 -749.999756 1500.000122
vertex 750.000000 750.000305 1799.999878
vertex 750.000000 -749.999695 1800.000122
endloop
endfacet
facet normal 0.000000 -1.000000 0.000000
outer loop
vertex -1139.301147 -480.039001 1500.000122
vertex -750.000000 -480.039001 1500.000122
vertex -750.000000 -480.038940 1800.000122
endloop
endfacet
facet normal 0.000000 -1.000000 0.000000
outer loop
vertex -1139.301147 -480.039001 1500.000122
vertex -750.000000 -480.038940 1800.000122
vertex -1139.301147 -480.038940 1800.000122
endloop
endfacet
facet normal 0.000000 1.000000 0.000000
outer loop
vertex -750.000000 714.030579 1499.999878
vertex -1139.301147 714.030579 1499.999878
vertex -1139.301147 714.030640 1799.999878
endloop
endfacet
facet normal 0.000000 1.000000 0.000000
outer loop
vertex -750.000000 714.030579 1499.999878
vertex -1139.301147 714.030640 1799.999878
vertex -750.000000 714.030640 1799.999878
endloop
endfacet
facet normal 0.000000 1.000000 0.000000
outer loop
vertex 750.000000 750.000244 1499.999878
vertex -750.000000 750.000244 1499.999878
vertex -750.000000 750.000305 1799.999878
endloop
endfacet
facet normal 0.000000 1.000000 -0.000001
outer loop
vertex 750.000000 750.000244 1499.999878
vertex -750.000000 750.000305 1799.999878
vertex 750.000000 750.000305 1799.999878
endloop
endfacet
facet normal 0.000000 -1.000000 0.000000
outer loop
vertex -750.000000 -749.999756 1500.000122
vertex 750.000000 -749.999756 1500.000122
vertex 750.000000 -749.999695 1800.000122
endloop
endfacet
facet normal 0.000000 -1.000000 0.000001
outer loop
vertex -750.000000 -749.999756 1500.000122
vertex 750.000000 -749.999695 1800.000122
vertex -750.000000 -749.999695 1800.000122
endloop
endfacet
facet normal -1.000000 0.000000 0.000000
outer loop
vertex -750.000000 -480.039001 1500.000122
vertex -750.000000 -749.999756 1500.000122
vertex -750.000000 -749.999695 1800.000122
endloop
endfacet
facet normal -1.000000 0.000000 0.000000
outer loop
vertex -750.000000 -480.039001 1500.000122
vertex -750.000000 -749.999695 1800.000122
vertex -750.000000 -480.038940 1800.000122
endloop
endfacet
facet normal -1.000000 0.000000 0.000000
outer loop
vertex -1139.301147 714.030579 1499.999878
vertex -1139.301147 -480.039001 1500.000122
vertex -1139.301147 -480.038940 1800.000122
endloop
endfacet
facet normal -1.000000 0.000000 0.000000
outer loop
vertex -1139.301147 714.030579 1499.999878
vertex -1139.301147 -480.038940 1800.000122
vertex -1139.301147 714.030640 1799.999878
endloop
endfacet
facet normal -1.000000 0.000000 0.000000
outer loop
vertex -750.000000 750.000244 1499.999878
vertex -750.000000 714.030579 1499.999878
vertex -750.000000 714.030640 1799.999878
endloop
endfacet
facet normal -1.000000 0.000000 0.000000
outer loop
vertex -750.000000 750.000244 1499.999878
vertex -750.000000 714.030640 1799.999878
vertex -750.000000 750.000305 1799.999878
endloop
endfacet
facet normal -1.000000 0.000000 0.000000
outer loop
vertex -750.000000 -480.038940 1800.000122
vertex -750.000000 -749.999695 1800.000122
vertex -750.000000 -749.999634 2100.000244
endloop
endfacet
facet normal -1.000000 0.000000 0.000000
outer loop
vertex -750.000000 -480.038940 1800.000122
vertex -750.000000 -749.999634 2100.000244
vertex -750.000000 -480.038910 2100.000000
endloop
endfacet
facet normal -1.000000 0.000000 0.000000
outer loop
vertex -1139.301147 714.030640 1799.999878
vertex -1139.301147 -480.038940 1800.000122
vertex -1139.301147 -480.038910 2100.000000
endloop
endfacet
facet normal -1.000000 0.000000 0.000000
outer loop
vertex -1139.301147 714.030640 1799.999878
vertex -1139.301147 -480.038910 2100.000000
vertex -1139.301147 714.030701 2100.000000
endloop
endfacet
facet normal -1.000000 0.000000 0.000000
outer loop
vertex -750.000000 750.000305 1799.999878
vertex -750.000000 714.030640 1799.999878
vertex -750.000000 714.030701 2100.000000
endloop
endfacet
facet normal -1.000000 0.000001 0.000000
outer loop
vertex -750.000000 750.000305 1799.999878
vertex -750.000000 714.030701 2100.000000
vertex -750.000000 750.000366 2099.999756
endloop
endfacet
facet normal 1.000000 0.000000 0.000000
outer loop
vertex 750.000000 -749.999695 1800.000122
vertex 750.000000 750.000305 1799.999878
vertex 750.000000 750.000366 2099.999756
endloop
endfacet
facet normal 1.000000 0.000000 0.000000
outer loop
vertex 750.000000 -749.999695 1800.000122
vertex 750.000000 750.000366 2099.999756
vertex 750.000000 -749.999634 2100.000244
endloop
endfacet
facet normal 0.000000 -1.000000 0.000000
outer loop
vertex -1139.301147 -480.038940 1800.000122
vertex -750.000000 -480.038940 1800.000122
vertex -750.000000 -480.038910 2100.000000
endloop
endfacet
facet normal 0.000000 -1.000000 0.000000
outer loop
vertex -1139.301147 -480.038940 1800.000122
vertex -750.000000 -480.038910 2100.000000
vertex -1139.301147 -480.038910 2100.000000
endloop
endfacet
facet normal 0.000000 1.000000 0.000000
outer loop
vertex -750.000000 714.030640 1799.999878
vertex -1139.301147 714.030640 1799.999878
vertex -1139.301147 714.030701 2100.000000
endloop
endfacet
facet normal 0.000000 1.000000 -0.000001
outer loop
vertex -750.000000 714.030640 1799.999878
vertex -1139.301147 714.030701 2100.000000
vertex -750.000000 714.030701 2100.000000
endloop
endfacet
facet normal 0.000000 1.000000 0.000000
outer loop
vertex 750.000000 750.000305 1799.999878
vertex -750.000000 750.000305 1799.999878
vertex -750.000000 750.000366 2099.999756
endloop
endfacet
facet normal 0.000000 1.000000 0.000000
outer loop
vertex 750.000000 750.000305 1799.999878
vertex -750.000000 750.000366 2099.999756
vertex 750.000000 750.000366 2099.999756
endloop
endfacet
facet normal 0.000000 -1.000000 0.000000
outer loop
vertex -750.000000 -749.999695 1800.000122
vertex 750.000000 -749.999695 1800.000122
vertex 750.000000 -749.999634 2100.000244
endloop
endfacet
facet normal 0.000000 -1.000000 0.000000
outer loop
vertex -750.000000 -749.999695 1800.000122
vertex 750.000000 -749.999634 2100.000244
vertex -750.000000 -749.999634 2100.000244
endloop
endfacet
endsolid building_012
