solid building_020
facet normal 0.000000 1.000000 -0.000000
outer loop
vertex -813.056091 360.000000 -0.000059
vertex -900.000000 360.000000 -0.000059
vertex -900.000000 360.000061 299.999939
endloop
endfacet
facet normal 0.000000 1.000000 -0.000000
outer loop
vertex -813.056091 360.000000 -0.000059
vertex -900.000000 360.000061 299.999939
vertex -813.056091 360.000061 299.999939
endloop
endfacet
facet normal -1.000000 -0.000000 0.000000
outer loop
vertex -900.000000 360.000000 -0.000059
vertex -900.000000 -360.000000 0.000059
vertex -900.000000 -359.999939 300.000061
endloop
endfacet
facet normal -1.000000 0.000000 0.000000
outer loop
vertex -900.000000 360.000000 -0.000059
vertex -900.000000 -359.999939 300.000061
vertex -900.000000 360.000061 299.999939
endloop
endfacet
facet normal 0.000000 0.000000 1.000000
outer loop
vertex -900.000000 360.000244 1500.000000
vertex -900.000000 -359.999756 1500.000000
vertex -874.444763 -359.999756 1500.000000
endloop
endfacet
facet normal 0.000000 0.000000 1.000000
outer loop
vertex -874.444763 -359.999756 1500.000000
vertex -874.444763 -1135.489624 1500.000244
vertex 874.444763 -1135.489624 1500.000244
endloop
endfacet
facet normal 0.000000 0.000000 1.000000
outer loop
vertex 874.444763 -359.999756 1500.000000
vertex 900.000000 -359.999756 1500.000000
vertex 900.000000 360.000244 1500.000000
endloop
endfacet
facet normal 0.000000 0.000000 1.000000
outer loop
vertex -874.444763 -359.999756 1500.000000
vertex 874.444763 -1135.489624 1500.000244
vertex 874.444763 -359.999756 1500.000000
endloop
endfacet
facet normal 0.000000 0.000000 1.000000
outer loop
vertex -813.056091 360.000244 1500.000000
vertex -900.000000 360.000244 1500.000000
vertex -874.444763 -359.999756 1500.000000
endloop
endfacet
facet normal 0.000000 0.000001 1.000000
outer loop
vertex 813.056091 505.254730 1499.999878
vertex -813.056091 505.254730 1499.999878
vertex -813.056091 360.000244 1500.000000
endloop
endfacet
facet normal 0.000000 0.000000 1.000000
outer loop
vertex 874.444763 -359.999756 1500.000000
vertex 900.000000 360.000244 1500.000000
vertex 813.056091 360.000244 1500.000000
endloop
endfacet
facet normal 0.000000 0.000001 1.000000
outer loop
vertex 813.056091 360.000244 1500.000000
vertex 813.056091 505.254730 1499.999878
vertex -813.056091 360.000244 1500.000000
endloop
endfacet
facet normal 0.000000 0.000000 1.000000
outer loop
vertex -813.056091 360.000244 1500.000000
vertex -874.444763 -359.999756 1500.000000
vertex 874.444763 -359.999756 1500.000000
endloop
endfacet
facet normal 0.000000 0.000000 1.000000
outer loop
vertex 874.444763 -359.999756 1500.000000
vertex 813.056091 360.000244 1500.000000
vertex -813.056091 360.000244 1500.000000
endloop
endfacet
facet normal 1.000000 0.000000 0.000000
outer loop
vertex 874.444763 -1135.489868 0.000185
vertex 874.444763 -360.000000 0.000059
vertex 874.444763 -359.999939 300.000061
endloop
endfacet
facet normal 1.000000 0.000000 0.000000
outer loop
vertex 874.444763 -1135.489868 0.000185
vertex 874.444763 -359.999939 300.000061
vertex 874.444763 -1135.489868 300.000183
endloop
endfacet
facet normal 0.000000 -1.000000 0.000000
outer loop
vertex -900.000000 -360.000000 0.000059
vertex -874.444763 -360.000000 0.000059
vertex -874.444763 -359.999939 300.000061
endloop
endfacet
facet normal 0.000000 -1.000000 0.000000
outer loop
vertex -900.000000 -360.000000 0.000059
vertex -874.444763 -359.999939 300.000061
vertex -900.000000 -359.999939 300.000061
endloop
endfacet
facet normal 0.000000 1.000000 0.000000
outer loop
vertex 813.056091 505.254486 -0.000082
vertex -813.056091 505.254486 -0.000082
vertex -813.056091 505.254547 299.999908
endloop
endfacet
facet normal 0.000000 1.000000 -0.000000
outer loop
vertex 813.056091 505.254486 -0.000082
vertex -813.056091 505.254547 299.999908
vertex 813.056091 505.254547 299.999908
endloop
endfacet
facet normal 0.000000 -1.000000 0.000000
outer loop
vertex 874.444763 -360.000000 0.000059
vertex 900.000000 -360.000000 0.000059
vertex 900.000000 -359.999939 300.000061
endloop
endfacet
facet normal 0.000000 -1.000000 0.000000
outer loop
vertex 874.444763 -360.000000 0.000059
vertex 900.000000 -359.999939 300.000061
vertex 874.444763 -359.999939 300.000061
endloop
endfacet
facet normal -1.000000 0.000000 0.000000
outer loop
vertex -874.444763 -360.000000 0.000059
vertex -874.444763 -1135.489868 0.000185
vertex -874.444763 -1135.489868 300.000183
endloop
endfacet
facet normal -1.000000 -0.000000 0.000000
outer loop
vertex -874.444763 -360.000000 0.000059
vertex -874.444763 -1135.489868 300.000183
vertex -874.444763 -359.999939 300.000061
endloop
endfacet
facet normal -1.000000 -0.000001 0.000000
outer loop
vertex -813.056091 505.254486 -0.000082
vertex -813.056091 360.000000 -0.000059
vertex -813.056091 360.000061 299.999939
endloop
endfacet
facet normal -1.000000 0.000000 0.000000
outer loop
vertex -813.056091 505.254486 -0.000082
vertex -813.056091 360.000061 299.999939
vertex -813.056091 505.254547 299.999908
endloop
endfacet
facet normal 1.000000 -0.000000 0.000000
outer loop
vertex 900.000000 -360.000000 0.000059
vertex 900.000000 360.000000 -0.000059
vertex 900.000000 360.000061 299.999939
endloop
endfacet
facet normal 1.000000 0.000000 0.000000
outer loop
vertex 900.000000 -360.000000 0.000059
vertex 900.000000 360.000061 299.999939
vertex 900.000000 -359.999939 300.000061
endloop
endfacet
facet normal 0.000000 1.000000 -0.000000
outer loop
vertex 900.000000 360.000000 -0.000059
vertex 813.056091 360.000000 -0.000059
vertex 813.056091 360.000061 299.999939
endloop
endfacet
facet normal 0.000000 1.000000 -0.000000
outer loop
vertex 900.000000 360.000000 -0.000059
vertex 813.056091 360.000061 299.999939
vertex 900.000000 360.000061 299.999939
endloop
endfacet
facet normal 0.000000 -1.000000 0.000000
outer loop
vertex -874.444763 -1135.489868 0.000185
vertex 874.444763 -1135.489868 0.000185
vertex 874.444763 -1135.489868 300.000183
endloop
endfacet
facet normal 0.000000 -1.000000 0.000000
outer loop
vertex -874.444763 -1135.489868 0.000185
vertex 874.444763 -1135.489868 300.000183
vertex -874.444763 -1135.489868 300.000183
endloop
endfacet
facet normal 1.000000 -0.000001 0.000000
outer loop
vertex 813.056091 360.000000 -0.000059
vertex 813.056091 505.254486 -0.000082
vertex 813.056091 505.254547 299.999908
endloop
endfacet
facet normal 1.000000 0.000000 0.000000
outer loop
vertex 813.056091 360.000000 -0.000059
vertex 813.056091 505.254547 299.999908
vertex 813.056091 360.000061 299.999939
endloop
endfacet
facet normal 0.000000 1.000000 -0.000000
outer loop
vertex 813.056091 505.254547 299.999908
vertex -813.056091 505.254547 299.999908
vertex -813.056091 505.254578 599.999939
endloop
endfacet
facet normal 0.000000 1.000000 0.000000
outer loop
vertex 813.056091 505.254547 299.999908
vertex -813.056091 505.254578 599.999939
vertex 813.056091 505.254578 599.999939
endloop
endfacet
facet normal 0.000000 -1.000000 0.000000
outer loop
vertex -900.000000 -359.999939 300.000061
vertex -874.444763 -359.999939 300.000061
vertex -874.444763 -359.999908 600.000061
endloop
endfacet
facet normal 0.000000 -1.000000 0.000000
outer loop
vertex -900.000000 -359.999939 300.000061
vertex -874.444763 -359.999908 600.000061
vertex -900.000000 -359.999908 600.000061
endloop
endfacet
facet normal 1.000000 0.000000 0.000000
outer loop
vertex 900.000000 -359.999939 300.000061
vertex 900.000000 360.000061 299.999939
vertex 900.000000 360.000092 599.999939
endloop
endfacet
facet normal 1.000000 0.000000 0.000000
outer loop
vertex 900.000000 -359.999939 300.000061
vertex 900.000000 360.000092 599.999939
vertex 900.000000 -359.999908 600.000061
endloop
endfacet
facet normal 0.000000 -1.000000 0.000001
outer loop
vertex -874.444763 -1135.489868 300.000183
vertex 874.444763 -1135.489868 300.000183
vertex 874.444763 -1135.489746 600.000183
endloop
endfacet
facet normal 0.000000 -1.000000 0.000000
outer loop
vertex -874.444763 -1135.489868 300.000183
vertex 874.444763 -1135.489746 600.000183
vertex -874.444763 -1135.489746 600.000183
endloop
endfacet
facet normal -1.000000 0.000000 0.000000
outer loop
vertex -813.056091 505.254547 299.999908
vertex -813.056091 360.000061 299.999939
vertex -813.056091 360.000092 599.999939
endloop
endfacet
facet normal -1.000000 0.000000 0.000000
outer loop
vertex -813.056091 505.254547 299.999908
vertex -813.056091 360.000092 599.999939
vertex -813.056091 505.254578 599.999939
endloop
endfacet
facet normal 0.000000 1.000000 0.000000
outer loop
vertex 900.000000 360.000061 299.999939
vertex 813.056091 360.000061 299.999939
vertex 813.056091 360.000092 599.999939
endloop
endfacet
facet normal 0.000000 1.000000 -0.000000
outer loop
vertex 900.000000 360.000061 299.999939
vertex 813.056091 360.000092 599.999939
vertex 900.000000 360.000092 599.999939
endloop
endfacet
facet normal 1.000000 -0.000000 0.000000
outer loop
vertex 874.444763 -1135.489868 300.000183
vertex 874.444763 -359.999939 300.000061
vertex 874.444763 -359.999908 600.000061
endloop
endfacet
facet normal 1.000000 0.000000 0.000000
outer loop
vertex 874.444763 -1135.489868 300.000183
vertex 874.444763 -359.999908 600.000061
vertex 874.444763 -1135.489746 600.000183
endloop
endfacet
facet normal 0.000000 1.000000 0.000000
outer loop
vertex -813.056091 360.000061 299.999939
vertex -900.000000 360.000061 299.999939
vertex -900.000000 360.000092 599.999939
endloop
endfacet
facet normal 0.000000 1.000000 -0.000000
outer loop
vertex -813.056091 360.000061 299.999939
vertex -900.000000 360.000092 599.999939
vertex -813.056091 360.000092 599.999939
endloop
endfacet
facet normal -1.000000 0.000000 0.000000
outer loop
vertex -874.444763 -359.999939 300.000061
vertex -874.444763 -1135.489868 300.000183
vertex -874.444763 -1135.489746 600.000183
endloop
endfacet
facet normal -1.000000 -0.000000 0.000000
outer loop
vertex -874.444763 -359.999939 300.000061
vertex -874.444763 -1135.489746 600.000183
vertex -874.444763 -359.999908 600.000061
endloop
endfacet
facet normal 1.000000 0.000000 0.000000
outer loop
vertex 813.056091 360.000061 299.999939
vertex 813.056091 505.254547 299.999908
vertex 813.056091 505.254578 599.999939
endloop
endfacet
facet normal 1.000000 0.000000 0.000000
outer loop
vertex 813.056091 360.000061 299.999939
vertex 813.056091 505.254578 599.999939
vertex 813.056091 360.000092 599.999939
endloop
endfacet
facet normal 0.000000 -1.000000 0.000000
outer loop
vertex 874.444763 -359.999939 300.000061
vertex 900.000000 -359.999939 300.000061
vertex 900.000000 -359.999908 600.000061
endloop
endfacet
facet normal 0.000000 -1.000000 0.000000
outer loop
vertex 874.444763 -359.999939 300.000061
vertex 900.000000 -359.999908 600.000061
vertex 874.444763 -359.999908 600.000061
endloop
endfacet
facet normal -1.000000 0.000000 0.000000
outer loop
vertex -900.000000 360.000061 299.999939
vertex -900.000000 -359.999939 300.000061
vertex -900.000000 -359.999908 600.000061
endloop
endfacet
facet normal -1.000000 0.000000 0.000000
outer loop
vertex -900.000000 360.000061 299.999939
vertex -900.000000 -359.999908 600.000061
vertex -900.000000 360.000092 599.999939
endloop
endfacet
facet normal -1.000000 0.000000 0.000000
outer loop
vertex -874.444763 -359.999908 600.000061
vertex -874.444763 -1135.489746 600.000183
vertex -874.444763 -1135.489746 900.000183
endloop
endfacet
facet normal -1.000000 -0.000000 0.000000
outer loop
vertex -874.444763 -359.999908 600.000061
vertex -874.444763 -1135.489746 900.000183
vertex -874.444763 -359.999847 900.000061
endloop
endfacet
facet normal 0.000000 1.000000 -0.000000
outer loop
vertex 813.056091 505.254578 599.999939
vertex -813.056091 505.254578 599.999939
vertex -813.056091 505.254639 899.999939
endloop
endfacet
facet normal 0.000000 1.000000 -0.000000
outer loop
vertex 813.056091 505.254578 599.999939
vertex -813.056091 505.254639 899.999939
vertex 813.056091 505.254639 899.999939
endloop
endfacet
facet normal 1.000000 0.000000 0.000000
outer loop
vertex 900.000000 -359.999908 600.000061
vertex 900.000000 360.000092 599.999939
vertex 900.000000 360.000153 899.999939
endloop
endfacet
facet normal 1.000000 0.000000 0.000000
outer loop
vertex 900.000000 -359.999908 600.000061
vertex 900.000000 360.000153 899.999939
vertex 900.000000 -359.999847 900.000061
endloop
endfacet
facet normal 0.000000 -1.000000 0.000000
outer loop
vertex -874.444763 -1135.489746 600.000183
vertex 874.444763 -1135.489746 600.000183
vertex 874.444763 -1135.489746 900.000183
endloop
endfacet
facet normal 0.000000 -1.000000 0.000000
outer loop
vertex -874.444763 -1135.489746 600.000183
vertex 874.444763 -1135.489746 900.000183
vertex -874.444763 -1135.489746 900.000183
endloop
endfacet
facet normal -1.000000 0.000000 0.000000
outer loop
vertex -813.056091 505.254578 599.999939
vertex -813.056091 360.000092 599.999939
vertex -813.056091 360.000153 899.999939
endloop
endfacet
facet normal -1.000000 0.000000 0.000000
outer loop
vertex -813.056091 505.254578 599.999939
vertex -813.056091 360.000153 899.999939
vertex -813.056091 505.254639 899.999939
endloop
endfacet
facet normal 0.000000 1.000000 -0.000000
outer loop
vertex 900.000000 360.000092 599.999939
vertex 813.056091 360.000092 599.999939
vertex 813.056091 360.000153 899.999939
endloop
endfacet
facet normal 0.000000 1.000000 -0.000000
outer loop
vertex 900.000000 360.000092 599.999939
vertex 813.056091 360.000153 899.999939
vertex 900.000000 360.000153 899.999939
endloop
endfacet
facet normal 1.000000 -0.000000 0.000000
outer loop
vertex 874.444763 -1135.489746 600.000183
vertex 874.444763 -359.999908 600.000061
vertex 874.444763 -359.999847 900.000061
endloop
endfacet
facet normal 1.000000 0.000000 0.000000
outer loop
vertex 874.444763 -1135.489746 600.000183
vertex 874.444763 -359.999847 900.000061
vertex 874.444763 -1135.489746 900.000183
endloop
endfacet
facet normal 0.000000 1.000000 -0.000000
outer loop
vertex -813.056091 360.000092 599.999939
vertex -900.000000 360.000092 599.999939
vertex -900.000000 360.000153 899.999939
endloop
endfacet
facet normal 0.000000 1.000000 -0.000000
outer loop
vertex -813.056091 360.000092 599.999939
vertex -900.000000 360.000153 899.999939
vertex -813.056091 360.000153 899.999939
endloop
endfacet
facet normal 0.000000 -1.000000 0.000000
outer loop
vertex -900.000000 -359.999908 600.000061
vertex -874.444763 -359.999908 600.000061
vertex -874.444763 -359.999847 900.000061
endloop
endfacet
facet normal 0.000000 -1.000000 0.000000
outer loop
vertex -900.000000 -359.999908 600.000061
vertex -874.444763 -359.999847 900.000061
vertex -900.000000 -359.999847 900.000061
endloop
endfacet
facet normal 1.000000 0.000000 0.000000
outer loop
vertex 813.056091 360.000092 599.999939
vertex 813.056091 505.254578 599.999939
vertex 813.056091 505.254639 899.999939
endloop
endfacet
facet normal 1.000000 0.000000 0.000000
outer loop
vertex 813.056091 360.000092 599.999939
vertex 813.056091 505.254639 899.999939
vertex 813.056091 360.000153 899.999939
endloop
endfacet
facet normal 0.000000 -1.000000 0.000000
outer loop
vertex 874.444763 -359.999908 600.000061
vertex 900.000000 -359.999908 600.000061
vertex 900.000000 -359.999847 900.000061
endloop
endfacet
facet normal 0.000000 -1.000000 0.000000
outer loop
vertex 874.444763 -359.999908 600.000061
vertex 900.000000 -359.999847 900.000061
vertex 874.444763 -359.999847 900.000061
endloop
endfacet
facet normal -1.000000 0.000000 0.000000
outer loop
vertex -900.000000 360.000092 599.999939
vertex -900.000000 -359.999908 600.000061
vertex -900.000000 -359.999847 900.000061
endloop
endfacet
facet normal -1.000000 0.000000 0.000000
outer loop
vertex -900.000000 360.000092 599.999939
vertex -900.000000 -359.999847 900.000061
vertex -900.000000 360.000153 899.999939
endloop
endfacet
facet normal -1.000000 0.000000 0.000000
outer loop
vertex -900.000000 360.000153 899.999939
vertex -900.000000 -359.999847 900.000061
vertex -900.000000 -359.999817 1200.000000
endloop
endfacet
facet normal -1.000000 0.000000 0.000000
outer loop
vertex -900.000000 360.000153 899.999939
vertex -900.000000 -359.999817 1200.000000
vertex -900.000000 360.000183 1200.000000
endloop
endfacet
facet normal -1.000000 -0.000000 0.000000
outer loop
vertex -874.444763 -359.999847 900.000061
vertex -874.444763 -1135.489746 900.000183
vertex -874.444763 -1135.489624 1200.000244
endloop
endfacet
facet normal -1.000000 0.000000 0.000000
outer loop
vertex -874.444763 -359.999847 900.000061
vertex -874.444763 -1135.489624 1200.000244
vertex -874.444763 -359.999817 1200.000000
endloop
endfacet
facet normal 0.000000 1.000000 0.000000
outer loop
vertex 813.056091 505.254639 899.999939
vertex -813.056091 505.254639 899.999939
vertex -813.056091 505.254669 1199.999878
endloop
endfacet
facet normal 0.000000 1.000000 0.000000
outer loop
vertex 813.056091 505.254639 899.999939
vertex -813.056091 505.254669 1199.999878
vertex 813.056091 505.254669 1199.999878
endloop
endfacet
facet normal 1.000000 0.000000 0.000000
outer loop
vertex 900.000000 -359.999847 900.000061
vertex 900.000000 360.000153 899.999939
vertex 900.000000 360.000183 1200.000000
endloop
endfacet
facet normal 1.000000 0.000000 0.000000
outer loop
vertex 900.000000 -359.999847 900.000061
vertex 900.000000 360.000183 1200.000000
vertex 900.000000 -359.999817 1200.000000
endloop
endfacet
facet normal 0.000000 -1.000000 0.000000
outer loop
vertex -874.444763 -1135.489746 900.000183
vertex 874.444763 -1135.489746 900.000183
vertex 874.444763 -1135.489624 1200.000244
endloop
endfacet
facet normal 0.000000 -1.000000 0.000001
outer loop
vertex -874.444763 -1135.489746 900.000183
vertex 874.444763 -1135.489624 1200.000244
vertex -874.444763 -1135.489624 1200.000244
endloop
endfacet
facet normal -1.000000 0.000000 0.000000
outer loop
vertex -813.056091 505.254639 899.999939
vertex -813.056091 360.000153 899.999939
vertex -813.056091 360.000183 1200.000000
endloop
endfacet
facet normal -1.000000 -0.000000 0.000000
outer loop
vertex -813.056091 505.254639 899.999939
vertex -813.056091 360.000183 1200.000000
vertex -813.056091 505.254669 1199.999878
endloop
endfacet
facet normal 0.000000 1.000000 -0.000000
outer loop
vertex 900.000000 360.000153 899.999939
vertex 813.056091 360.000153 899.999939
vertex 813.056091 360.000183 1200.000000
endloop
endfacet
facet normal 0.000000 1.000000 0.000000
outer loop
vertex 900.000000 360.000153 899.999939
vertex 813.056091 360.000183 1200.000000
vertex 900.000000 360.000183 1200.000000
endloop
endfacet
facet normal 1.000000 0.000000 0.000000
outer loop
vertex 874.444763 -1135.489746 900.000183
vertex 874.444763 -359.999847 900.000061
vertex 874.444763 -359.999817 1200.000000
endloop
endfacet
facet normal 1.000000 -0.000000 0.000000
outer loop
vertex 874.444763 -1135.489746 900.000183
vertex 874.444763 -359.999817 1200.000000
vertex 874.444763 -1135.489624 1200.000244
endloop
endfacet
facet normal 0.000000 1.000000 -0.000000
outer loop
vertex -813.056091 360.000153 899.999939
vertex -900.000000 360.000153 899.999939
vertex -900.000000 360.000183 1200.000000
endloop
endfacet
facet normal 0.000000 1.000000 0.000000
outer loop
vertex -813.056091 360.000153 899.999939
vertex -900.000000 360.000183 1200.000000
vertex -813.056091 360.000183 1200.000000
endloop
endfacet
facet normal 0.000000 -1.000000 0.000000
outer loop
vertex -900.000000 -359.999847 900.000061
vertex -874.444763 -359.999847 900.000061
vertex -874.444763 -359.999817 1200.000000
endloop
endfacet
facet normal 0.000000 -1.000000 0.000000
outer loop
vertex -900.000000 -359.999847 900.000061
vertex -874.444763 -359.999817 1200.000000
vertex -900.000000 -359.999817 1200.000000
endloop
endfacet
facet normal 1.000000 0.000000 0.000000
outer loop
vertex 813.056091 360.000153 899.999939
vertex 813.056091 505.254639 899.999939
vertex 813.056091 505.254669 1199.999878
endloop
endfacet
facet normal 1.000000 -0.000000 0.000000
outer loop
vertex 813.056091 360.000153 899.999939
vertex 813.056091 505.254669 1199.999878
vertex 813.056091 360.000183 1200.000000
endloop
endfacet
facet normal 0.000000 -1.000000 0.000000
outer loop
vertex 874.444763 -359.999847 900.000061
vertex 900.000000 -359.999847 900.000061
vertex 900.000000 -359.999817 1200.000000
endloop
endfacet
facet normal 0.000000 -1.000000 0.000000
outer loop
vertex 874.444763 -359.999847 900.000061
vertex 900.000000 -359.999817 1200.000000
vertex 874.444763 -359.999817 1200.000000
endloop
endfacet
facet normal 0.000000 -1.000000 0.000000
outer loop
vertex 874.444763 -359.999817 1200.000000
vertex 900.000000 -359.999817 1200.000000
vertex 900.000000 -359.999756 1500.000000
endloop
endfacet
facet normal 0.000000 -1.000000 0.000000
outer loop
vertex 874.444763 -359.999817 1200.000000
vertex 900.000000 -359.999756 1500.000000
vertex 874.444763 -359.999756 1500.000000
endloop
endfacet
facet normal -1.000000 0.000000 0.000000
outer loop
vertex -900.000000 360.000183 1200.000000
vertex -900.000000 -359.999817 1200.000000
vertex -900.000000 -359.999756 1500.000000
endloop
endfacet
facet normal -1.000000 0.000000 0.000000
outer loop
vertex -900.000000 360.000183 1200.000000
vertex -900.000000 -359.999756 1500.000000
vertex -900.000000 360.000244 1500.000000
endloop
endfacet
facet normal -1.000000 0.000000 0.000000
outer loop
vertex -874.444763 -359.999817 1200.000000
vertex -874.444763 -1135.489624 1200.000244
vertex -874.444763 -1135.489624 1500.000244
endloop
endfacet
facet normal -1.000000 0.000000 0.000000
outer loop
vertex -874.444763 -359.999817 1200.000000
vertex -874.444763 -1135.489624 1500.000244
vertex -874.444763 -359.999756 1500.000000
endloop
endfacet
facet normal 0.000000 1.000000 -0.000000
outer loop
vertex 813.056091 505.254669 1199.999878
vertex -813.056091 505.254669 1199.999878
vertex -813.056091 505.254730 1499.999878
endloop
endfacet
facet normal 0.000000 1.000000 -0.000000
outer loop
vertex 813.056091 505.254669 1199.999878
vertex -813.056091 505.254730 1499.999878
vertex 813.056091 505.254730 1499.999878
endloop
endfacet
facet normal 1.000000 0.000000 0.000000
outer loop
vertex 900.000000 -359.999817 1200.000000
vertex 900.000000 360.000183 1200.000000
vertex 900.000000 360.000244 1500.000000
endloop
endfacet
facet normal 1.000000 0.000000 0.000000
outer loop
vertex 900.000000 -359.999817 1200.000000
vertex 900.000000 360.000244 1500.000000
vertex 900.000000 -359.999756 1500.000000
endloop
endfacet
facet normal 0.000000 -1.000000 0.000000
outer loop
vertex -874.444763 -1135.489624 1200.000244
vertex 874.444763 -1135.489624 1200.000244
vertex 874.444763 -1135.489624 1500.000244
endloop
endfacet
facet normal 0.000000 -1.000000 0.000000
outer loop
vertex -874.444763 -1135.489624 1200.000244
vertex 874.444763 -1135.489624 1500.000244
vertex -874.444763 -1135.489624 1500.000244
endloop
endfacet
facet normal -1.000000 0.000000 0.000000
outer loop
vertex -813.056091 505.254669 1199.999878
vertex -813.056091 360.000183 1200.000000
vertex -813.056091 360.000244 1500.000000
endloop
endfacet
facet normal -1.000000 -0.000000 0.000000
outer loop
vertex -813.056091 505.254669 1199.999878
vertex -813.056091 360.000244 1500.000000
vertex -813.056091 505.254730 1499.999878
endloop
endfacet
facet normal 0.000000 1.000000 -0.000000
outer loop
vertex 900.000000 360.000183 1200.000000
vertex 813.056091 360.000183 1200.000000
vertex 813.056091 360.000244 1500.000000
endloop
endfacet
facet normal 0.000000 1.000000 -0.000000
outer loop
vertex 900.000000 360.000183 1200.000000
vertex 813.056091 360.000244 1500.000000
vertex 900.000000 360.000244 1500.000000
endloop
endfacet
facet normal 1.000000 0.000000 0.000000
outer loop
vertex 874.444763 -1135.489624 1200.000244
vertex 874.444763 -359.999817 1200.000000
vertex 874.444763 -359.999756 1500.000000
endloop
endfacet
facet normal 1.000000 0.000000 0.000000
outer loop
vertex 874.444763 -1135.489624 1200.000244
vertex 874.444763 -359.999756 1500.000000
vertex 874.444763 -1135.489624 1500.000244
endloop
endfacet
facet normal 0.000000 1.000000 -0.000000
outer loop
vertex -813.056091 360.000183 1200.000000
vertex -900.000000 360.000183 1200.000000
vertex -900.000000 360.000244 1500.000000
endloop
endfacet
facet normal 0.000000 1.000000 -0.000000
outer loop
vertex -813.056091 360.000183 1200.000000
vertex -900.000000 360.000244 1500.000000
vertex -813.056091 360.000244 1500.000000
endloop
endfacet
facet normal 0.000000 -1.000000 0.000000
outer loop
vertex -900.000000 -359.999817 1200.000000
vertex -874.444763 -359.999817 1200.000000
vertex -874.444763 -359.999756 1500.000000
endloop
endfacet
facet normal 0.000000 -1.000000 0.000000
outer loop
vertex -900.000000 -359.999817 1200.000000
vertex -874.444763 -359.999756 1500.000000
vertex -900.000000 -359.999756 1500.000000
endloop
endfacet
facet normal 1.000000 0.000000 0.000000
outer loop
vertex 813.056091 360.000183 1200.000000
vertex 813.056091 505.254669 1199.999878
vertex 813.056091 505.254730 1499.999878
endloop
endfacet
facet normal 1.000000 -0.000000 0.000000
outer loop
vertex 813.056091 360.000183 1200.000000
vertex 813.056091 505.254730 1499.999878
vertex 813.056091 360.000244 1500.000000
endloop
endfacet
endsolid building_020
