solid building_007.002
facet normal 1.000000 0.000000 0.000000
outer loop
vertex 500.000000 -500.000000 0.000081
vertex 500.000000 -341.273102 0.000056
vertex 500.000000 -341.273041 300.000061
endloop
endfacet
facet normal 1.000000 0.000000 0.000000
outer loop
vertex 500.000000 -500.000000 0.000081
vertex 500.000000 -341.273041 300.000061
vertex 500.000000 -499.999939 300.000092
endloop
endfacet
facet normal 0.000000 0.000000 1.000000
outer loop
vertex -500.000000 500.000305 1799.999878
vertex -500.000000 -499.999695 1800.000122
vertex 500.000000 -499.999695 1800.000122
endloop
endfacet
facet normal 0.000000 0.000000 1.000000
outer loop
vertex 500.000000 -341.272797 1800.000000
vertex 1190.753540 -341.272797 1800.000000
vertex 1190.753540 642.060608 1799.999878
endloop
endfacet
facet normal 0.000001 0.000001 1.000000
outer loop
vertex -500.000000 500.000305 1799.999878
vertex 500.000000 -499.999695 1800.000122
vertex 500.000000 -341.272797 1800.000000
endloop
endfacet
facet normal 0.000000 0.000000 1.000000
outer loop
vertex 1190.753540 642.060608 1799.999878
vertex 500.000000 642.060608 1799.999878
vertex 500.000000 500.000305 1799.999878
endloop
endfacet
facet normal 0.000000 0.000000 1.000000
outer loop
vertex 500.000000 500.000305 1799.999878
vertex -500.000000 500.000305 1799.999878
vertex 500.000000 -341.272797 1800.000000
endloop
endfacet
facet normal -0.000000 0.000000 1.000000
outer loop
vertex 500.000000 -341.272797 1800.000000
vertex 1190.753540 642.060608 1799.999878
vertex 500.000000 500.000305 1799.999878
endloop
endfacet
facet normal -1.000000 -0.000001 0.000000
outer loop
vertex 500.000000 642.060303 -0.000105
vertex 500.000000 500.000000 -0.000081
vertex 500.000000 500.000061 299.999908
endloop
endfacet
facet normal -1.000000 0.000000 0.000000
outer loop
vertex 500.000000 642.060303 -0.000105
vertex 500.000000 500.000061 299.999908
vertex 500.000000 642.060364 299.999908
endloop
endfacet
facet normal -1.000000 -0.000000 0.000000
outer loop
vertex -500.000000 500.000000 -0.000081
vertex -500.000000 -500.000000 0.000081
vertex -500.000000 -499.999939 300.000092
endloop
endfacet
facet normal -1.000000 0.000000 0.000000
outer loop
vertex -500.000000 500.000000 -0.000081
vertex -500.000000 -499.999939 300.000092
vertex -500.000000 500.000061 299.999908
endloop
endfacet
facet normal 0.000000 1.000000 0.000000
outer loop
vertex 1190.753540 642.060303 -0.000105
vertex 500.000000 642.060303 -0.000105
vertex 500.000000 642.060364 299.999908
endloop
endfacet
facet normal 0.000000 1.000000 -0.000000
outer loop
vertex 1190.753540 642.060303 -0.000105
vertex 500.000000 642.060364 299.999908
vertex 1190.753540 642.060364 299.999908
endloop
endfacet
facet normal 0.000000 1.000000 -0.000000
outer loop
vertex 500.000000 500.000000 -0.000081
vertex -500.000000 500.000000 -0.000081
vertex -500.000000 500.000061 299.999908
endloop
endfacet
facet normal 0.000000 1.000000 -0.000000
outer loop
vertex 500.000000 500.000000 -0.000081
vertex -500.000000 500.000061 299.999908
vertex 500.000000 500.000061 299.999908
endloop
endfacet
facet normal 0.000000 -1.000000 0.000000
outer loop
vertex -500.000000 -500.000000 0.000081
vertex 500.000000 -500.000000 0.000081
vertex 500.000000 -499.999939 300.000092
endloop
endfacet
facet normal 0.000000 -1.000000 0.000000
outer loop
vertex -500.000000 -500.000000 0.000081
vertex 500.000000 -499.999939 300.000092
vertex -500.000000 -499.999939 300.000092
endloop
endfacet
facet normal 0.000000 -1.000000 0.000000
outer loop
vertex 500.000000 -341.273102 0.000056
vertex 1190.753540 -341.273102 0.000056
vertex 1190.753540 -341.273041 300.000061
endloop
endfacet
facet normal 0.000000 -1.000000 0.000000
outer loop
vertex 500.000000 -341.273102 0.000056
vertex 1190.753540 -341.273041 300.000061
vertex 500.000000 -341.273041 300.000061
endloop
endfacet
facet normal 1.000000 0.000000 0.000000
outer loop
vertex 1190.753540 -341.273102 0.000056
vertex 1190.753540 642.060303 -0.000105
vertex 1190.753540 642.060364 299.999908
endloop
endfacet
facet normal 1.000000 0.000000 0.000000
outer loop
vertex 1190.753540 -341.273102 0.000056
vertex 1190.753540 642.060364 299.999908
vertex 1190.753540 -341.273041 300.000061
endloop
endfacet
facet normal -1.000000 0.000000 0.000000
outer loop
vertex -500.000000 500.000061 299.999908
vertex -500.000000 -499.999939 300.000092
vertex -500.000000 -499.999908 600.000061
endloop
endfacet
facet normal -1.000000 0.000000 0.000000
outer loop
vertex -500.000000 500.000061 299.999908
vertex -500.000000 -499.999908 600.000061
vertex -500.000000 500.000092 599.999939
endloop
endfacet
facet normal -1.000000 0.000000 0.000000
outer loop
vertex 500.000000 642.060364 299.999908
vertex 500.000000 500.000061 299.999908
vertex 500.000000 500.000092 599.999939
endloop
endfacet
facet normal -1.000000 -0.000000 0.000000
outer loop
vertex 500.000000 642.060364 299.999908
vertex 500.000000 500.000092 599.999939
vertex 500.000000 642.060425 599.999878
endloop
endfacet
facet normal 1.000000 0.000000 0.000000
outer loop
vertex 1190.753540 -341.273041 300.000061
vertex 1190.753540 642.060364 299.999908
vertex 1190.753540 642.060425 599.999878
endloop
endfacet
facet normal 1.000000 0.000000 0.000000
outer loop
vertex 1190.753540 -341.273041 300.000061
vertex 1190.753540 642.060425 599.999878
vertex 1190.753540 -341.273010 600.000061
endloop
endfacet
facet normal 1.000000 0.000000 0.000000
outer loop
vertex 500.000000 -499.999939 300.000092
vertex 500.000000 -341.273041 300.000061
vertex 500.000000 -341.273010 600.000061
endloop
endfacet
facet normal 1.000000 0.000000 0.000000
outer loop
vertex 500.000000 -499.999939 300.000092
vertex 500.000000 -341.273010 600.000061
vertex 500.000000 -499.999908 600.000061
endloop
endfacet
facet normal 0.000000 -1.000000 0.000000
outer loop
vertex -500.000000 -499.999939 300.000092
vertex 500.000000 -499.999939 300.000092
vertex 500.000000 -499.999908 600.000061
endloop
endfacet
facet normal 0.000000 -1.000000 0.000000
outer loop
vertex -500.000000 -499.999939 300.000092
vertex 500.000000 -499.999908 600.000061
vertex -500.000000 -499.999908 600.000061
endloop
endfacet
facet normal 0.000000 1.000000 0.000000
outer loop
vertex 500.000000 500.000061 299.999908
vertex -500.000000 500.000061 299.999908
vertex -500.000000 500.000092 599.999939
endloop
endfacet
facet normal 0.000000 1.000000 -0.000000
outer loop
vertex 500.000000 500.000061 299.999908
vertex -500.000000 500.000092 599.999939
vertex 500.000000 500.000092 599.999939
endloop
endfacet
facet normal 0.000000 1.000000 -0.000000
outer loop
vertex 1190.753540 642.060364 299.999908
vertex 500.000000 642.060364 299.999908
vertex 500.000000 642.060425 599.999878
endloop
endfacet
facet normal 0.000000 1.000000 0.000000
outer loop
vertex 1190.753540 642.060364 299.999908
vertex 500.000000 642.060425 599.999878
vertex 1190.753540 642.060425 599.999878
endloop
endfacet
facet normal 0.000000 -1.000000 0.000000
outer loop
vertex 500.000000 -341.273041 300.000061
vertex 1190.753540 -341.273041 300.000061
vertex 1190.753540 -341.273010 600.000061
endloop
endfacet
facet normal 0.000000 -1.000000 0.000000
outer loop
vertex 500.000000 -341.273041 300.000061
vertex 1190.753540 -341.273010 600.000061
vertex 500.000000 -341.273010 600.000061
endloop
endfacet
facet normal 0.000000 -1.000000 0.000000
outer loop
vertex 500.000000 -341.273010 600.000061
vertex 1190.753540 -341.273010 600.000061
vertex 1190.753540 -341.272949 900.000061
endloop
endfacet
facet normal 0.000000 -1.000000 0.000000
outer loop
vertex 500.000000 -341.273010 600.000061
vertex 1190.753540 -341.272949 900.000061
vertex 500.000000 -341.272949 900.000061
endloop
endfacet
facet normal 0.000000 -1.000000 0.000000
outer loop
vertex -500.000000 -499.999908 600.000061
vertex 500.000000 -499.999908 600.000061
vertex 500.000000 -499.999847 900.000061
endloop
endfacet
facet normal 0.000000 -1.000000 0.000000
outer loop
vertex -500.000000 -499.999908 600.000061
vertex 500.000000 -499.999847 900.000061
vertex -500.000000 -499.999847 900.000061
endloop
endfacet
facet normal -1.000000 0.000000 0.000000
outer loop
vertex -500.000000 500.000092 599.999939
vertex -500.000000 -499.999908 600.000061
vertex -500.000000 -499.999847 900.000061
endloop
endfacet
facet normal -1.000000 0.000000 0.000000
outer loop
vertex -500.000000 500.000092 599.999939
vertex -500.000000 -499.999847 900.000061
vertex -500.000000 500.000153 899.999939
endloop
endfacet
facet normal -1.000000 0.000000 0.000000
outer loop
vertex 500.000000 642.060425 599.999878
vertex 500.000000 500.000092 599.999939
vertex 500.000000 500.000153 899.999939
endloop
endfacet
facet normal -1.000000 -0.000000 0.000000
outer loop
vertex 500.000000 642.060425 599.999878
vertex 500.000000 500.000153 899.999939
vertex 500.000000 642.060425 899.999878
endloop
endfacet
facet normal 1.000000 0.000000 0.000000
outer loop
vertex 1190.753540 -341.273010 600.000061
vertex 1190.753540 642.060425 599.999878
vertex 1190.753540 642.060425 899.999878
endloop
endfacet
facet normal 1.000000 0.000000 0.000000
outer loop
vertex 1190.753540 -341.273010 600.000061
vertex 1190.753540 642.060425 899.999878
vertex 1190.753540 -341.272949 900.000061
endloop
endfacet
facet normal 1.000000 0.000000 0.000000
outer loop
vertex 500.000000 -499.999908 600.000061
vertex 500.000000 -341.273010 600.000061
vertex 500.000000 -341.272949 900.000061
endloop
endfacet
facet normal 1.000000 0.000000 0.000000
outer loop
vertex 500.000000 -499.999908 600.000061
vertex 500.000000 -341.272949 900.000061
vertex 500.000000 -499.999847 900.000061
endloop
endfacet
facet normal 0.000000 1.000000 -0.000000
outer loop
vertex 500.000000 500.000092 599.999939
vertex -500.000000 500.000092 599.999939
vertex -500.000000 500.000153 899.999939
endloop
endfacet
facet normal 0.000000 1.000000 -0.000000
outer loop
vertex 500.000000 500.000092 599.999939
vertex -500.000000 500.000153 899.999939
vertex 500.000000 500.000153 899.999939
endloop
endfacet
facet normal 0.000000 1.000000 0.000000
outer loop
vertex 1190.753540 642.060425 599.999878
vertex 500.000000 642.060425 599.999878
vertex 500.000000 642.060425 899.999878
endloop
endfacet
facet normal 0.000000 1.000000 0.000000
outer loop
vertex 1190.753540 642.060425 599.999878
vertex 500.000000 642.060425 899.999878
vertex 1190.753540 642.060425 899.999878
endloop
endfacet
facet normal 0.000000 1.000000 -0.000000
outer loop
vertex 500.000000 500.000153 899.999939
vertex -500.000000 500.000153 899.999939
vertex -500.000000 500.000183 1199.999878
endloop
endfacet
facet normal 0.000000 1.000000 0.000000
outer loop
vertex 500.000000 500.000153 899.999939
vertex -500.000000 500.000183 1199.999878
vertex 500.000000 500.000183 1199.999878
endloop
endfacet
facet normal 0.000000 1.000000 0.000000
outer loop
vertex 1190.753540 642.060425 899.999878
vertex 500.000000 642.060425 899.999878
vertex 500.000000 642.060486 1199.999878
endloop
endfacet
facet normal 0.000000 1.000000 -0.000001
outer loop
vertex 1190.753540 642.060425 899.999878
vertex 500.000000 642.060486 1199.999878
vertex 1190.753540 642.060486 1199.999878
endloop
endfacet
facet normal 0.000000 -1.000000 0.000000
outer loop
vertex 500.000000 -341.272949 900.000061
vertex 1190.753540 -341.272949 900.000061
vertex 1190.753540 -341.272919 1200.000000
endloop
endfacet
facet normal 0.000000 -1.000000 0.000000
outer loop
vertex 500.000000 -341.272949 900.000061
vertex 1190.753540 -341.272919 1200.000000
vertex 500.000000 -341.272919 1200.000000
endloop
endfacet
facet normal 0.000000 -1.000000 0.000000
outer loop
vertex -500.000000 -499.999847 900.000061
vertex 500.000000 -499.999847 900.000061
vertex 500.000000 -499.999817 1200.000122
endloop
endfacet
facet normal 0.000000 -1.000000 0.000000
outer loop
vertex -500.000000 -499.999847 900.000061
vertex 500.000000 -499.999817 1200.000122
vertex -500.000000 -499.999817 1200.000122
endloop
endfacet
facet normal -1.000000 0.000000 0.000000
outer loop
vertex -500.000000 500.000153 899.999939
vertex -500.000000 -499.999847 900.000061
vertex -500.000000 -499.999817 1200.000122
endloop
endfacet
facet normal -1.000000 0.000000 0.000000
outer loop
vertex -500.000000 500.000153 899.999939
vertex -500.000000 -499.999817 1200.000122
vertex -500.000000 500.000183 1199.999878
endloop
endfacet
facet normal -1.000000 0.000000 0.000000
outer loop
vertex 500.000000 642.060425 899.999878
vertex 500.000000 500.000153 899.999939
vertex 500.000000 500.000183 1199.999878
endloop
endfacet
facet normal -1.000000 0.000000 0.000000
outer loop
vertex 500.000000 642.060425 899.999878
vertex 500.000000 500.000183 1199.999878
vertex 500.000000 642.060486 1199.999878
endloop
endfacet
facet normal 1.000000 0.000000 0.000000
outer loop
vertex 1190.753540 -341.272949 900.000061
vertex 1190.753540 642.060425 899.999878
vertex 1190.753540 642.060486 1199.999878
endloop
endfacet
facet normal 1.000000 0.000000 0.000000
outer loop
vertex 1190.753540 -341.272949 900.000061
vertex 1190.753540 642.060486 1199.999878
vertex 1190.753540 -341.272919 1200.000000
endloop
endfacet
facet normal 1.000000 0.000000 0.000000
outer loop
vertex 500.000000 -499.999847 900.000061
vertex 500.000000 -341.272949 900.000061
vertex 500.000000 -341.272919 1200.000000
endloop
endfacet
facet normal 1.000000 0.000000 0.000000
outer loop
vertex 500.000000 -499.999847 900.000061
vertex 500.000000 -341.272919 1200.000000
vertex 500.000000 -499.999817 1200.000122
endloop
endfacet
facet normal 1.000000 0.000000 0.000000
outer loop
vertex 1190.753540 -341.272919 1200.000000
vertex 1190.753540 642.060486 1199.999878
vertex 1190.753540 642.060547 1499.999878
endloop
endfacet
facet normal 1.000000 0.000000 0.000000
outer loop
vertex 1190.753540 -341.272919 1200.000000
vertex 1190.753540 642.060547 1499.999878
vertex 1190.753540 -341.272858 1500.000000
endloop
endfacet
facet normal 1.000000 0.000000 0.000000
outer loop
vertex 500.000000 -499.999817 1200.000122
vertex 500.000000 -341.272919 1200.000000
vertex 500.000000 -341.272858 1500.000000
endloop
endfacet
facet normal 1.000000 0.000000 0.000000
outer loop
vertex 500.000000 -499.999817 1200.000122
vertex 500.000000 -341.272858 1500.000000
vertex 500.000000 -499.999756 1500.000122
endloop
endfacet
facet normal 0.000000 1.000000 -0.000000
outer loop
vertex 500.000000 500.000183 1199.999878
vertex -500.000000 500.000183 1199.999878
vertex -500.000000 500.000244 1499.999878
endloop
endfacet
facet normal 0.000000 1.000000 -0.000000
outer loop
vertex 500.000000 500.000183 1199.999878
vertex -500.000000 500.000244 1499.999878
vertex 500.000000 500.000244 1499.999878
endloop
endfacet
facet normal 0.000000 1.000000 -0.000000
outer loop
vertex 1190.753540 642.060486 1199.999878
vertex 500.000000 642.060486 1199.999878
vertex 500.000000 642.060547 1499.999878
endloop
endfacet
facet normal 0.000000 1.000000 0.000000
outer loop
vertex 1190.753540 642.060486 1199.999878
vertex 500.000000 642.060547 1499.999878
vertex 1190.753540 642.060547 1499.999878
endloop
endfacet
facet normal 0.000000 -1.000000 0.000000
outer loop
vertex 500.000000 -341.272919 1200.000000
vertex 1190.753540 -341.272919 1200.000000
vertex 1190.753540 -341.272858 1500.000000
endloop
endfacet
facet normal 0.000000 -1.000000 0.000000
outer loop
vertex 500.000000 -341.272919 1200.000000
vertex 1190.753540 -341.272858 1500.000000
vertex 500.000000 -341.272858 1500.000000
endloop
endfacet
facet normal 0.000000 -1.000000 0.000000
outer loop
vertex -500.000000 -499.999817 1200.000122
vertex 500.000000 -499.999817 1200.000122
vertex 500.000000 -499.999756 1500.000122
endloop
endfacet
facet normal 0.000000 -1.000000 0.000000
outer loop
vertex -500.000000 -499.999817 1200.000122
vertex 500.000000 -499.999756 1500.000122
vertex -500.000000 -499.999756 1500.000122
endloop
endfacet
facet normal -1.000000 0.000000 0.000000
outer loop
vertex -500.000000 500.000183 1199.999878
vertex -500.000000 -499.999817 1200.000122
vertex -500.000000 -499.999756 1500.000122
endloop
endfacet
facet normal -1.000000 0.000000 0.000000
outer loop
vertex -500.000000 500.000183 1199.999878
vertex -500.000000 -499.999756 1500.000122
vertex -500.000000 500.000244 1499.999878
endloop
endfacet
facet normal -1.000000 0.000000 0.000000
outer loop
vertex 500.000000 642.060486 1199.999878
vertex 500.000000 500.000183 1199.999878
vertex 500.000000 500.000244 1499.999878
endloop
endfacet
facet normal -1.000000 0.000000 0.000000
outer loop
vertex 500.000000 642.060486 1199.999878
vertex 500.000000 500.000244 1499.999878
vertex 500.000000 642.060547 1499.999878
endloop
endfacet
facet normal -1.000000 0.000000 0.000000
outer loop
vertex -500.000000 500.000244 1499.999878
vertex -500.000000 -499.999756 1500.000122
vertex -500.000000 -499.999695 1800.000122
endloop
endfacet
facet normal -1.000000 0.000000 0.000000
outer loop
vertex -500.000000 500.000244 1499.999878
vertex -500.000000 -499.999695 1800.000122
vertex -500.000000 500.000305 1799.999878
endloop
endfacet
facet normal -1.000000 0.000000 0.000000
outer loop
vertex 500.000000 642.060547 1499.999878
vertex 500.000000 500.000244 1499.999878
vertex 500.000000 500.000305 1799.999878
endloop
endfacet
facet normal -1.000000 0.000000 0.000000
outer loop
vertex 500.000000 642.060547 1499.999878
vertex 500.000000 500.000305 1799.999878
vertex 500.000000 642.060608 1799.999878
endloop
endfacet
facet normal 1.000000 0.000000 0.000000
outer loop
vertex 1190.753540 -341.272858 1500.000000
vertex 1190.753540 642.060547 1499.999878
vertex 1190.753540 642.060608 1799.999878
endloop
endfacet
facet normal 1.000000 0.000000 0.000000
outer loop
vertex 1190.753540 -341.272858 1500.000000
vertex 1190.753540 642.060608 1799.999878
vertex 1190.753540 -341.272797 1800.000000
endloop
endfacet
facet normal 1.000000 0.000000 0.000000
outer loop
vertex 500.000000 -499.999756 1500.000122
vertex 500.000000 -341.272858 1500.000000
vertex 500.000000 -341.272797 1800.000000
endloop
endfacet
facet normal 1.000000 0.000000 0.000000
outer loop
vertex 500.000000 -499.999756 1500.000122
vertex 500.000000 -341.272797 1800.000000
vertex 500.000000 -499.999695 1800.000122
endloop
endfacet
facet normal 0.000000 1.000000 -0.000000
outer loop
vertex 500.000000 500.000244 1499.999878
vertex -500.000000 500.000244 1499.999878
vertex -500.000000 500.000305 1799.999878
endloop
endfacet
facet normal 0.000000 1.000000 -0.000000
outer loop
vertex 500.000000 500.000244 1499.999878
vertex -500.000000 500.000305 1799.999878
vertex 500.000000 500.000305 1799.999878
endloop
endfacet
facet normal 0.000000 1.000000 0.000000
outer loop
vertex 1190.753540 642.060547 1499.999878
vertex 500.000000 642.060547 1499.999878
vertex 500.000000 642.060608 1799.999878
endloop
endfacet
facet normal 0.000000 1.000000 -0.000000
outer loop
vertex 1190.753540 642.060547 1499.999878
vertex 500.000000 642.060608 1799.999878
vertex 1190.753540 642.060608 1799.999878
endloop
endfacet
facet normal 0.000000 -1.000000 0.000000
outer loop
vertex 500.000000 -341.272858 1500.000000
vertex 1190.753540 -341.272858 1500.000000
vertex 1190.753540 -341.272797 1800.000000
endloop
endfacet
facet normal 0.000000 -1.000000 0.000000
outer loop
vertex 500.000000 -341.272858 1500.000000
vertex 1190.753540 -341.272797 1800.000000
vertex 500.000000 -341.272797 1800.000000
endloop
endfacet
facet normal 0.000000 -1.000000 0.000000
outer loop
vertex -500.000000 -499.999756 1500.000122
vertex 500.000000 -499.999756 1500.000122
vertex 500.000000 -499.999695 1800.000122
endloop
endfacet
facet normal 0.000000 -1.000000 0.000000
outer loop
vertex -500.000000 -499.999756 1500.000122
vertex 500.000000 -499.999695 1800.000122
vertex -500.000000 -499.999695 1800.000122
endloop
endfacet
endsolid building_007.002
