solid building_009.001
facet normal -1.000000 0.000000 0.000000
outer loop
vertex -600.000000 -200.000015 0.000033
vertex -600.000000 -600.000000 0.000098
vertex -600.000000 -599.999939 400.000092
endloop
endfacet
facet normal -1.000000 -0.000000 0.000000
outer loop
vertex -600.000000 -200.000015 0.000033
vertex -600.000000 -599.999939 400.000092
vertex -600.000000 -199.999954 400.000031
endloop
endfacet
facet normal 0.000000 1.000000 -0.000000
outer loop
vertex 968.103760 200.000015 -0.000033
vertex 600.000000 200.000015 -0.000033
vertex 600.000000 200.000076 399.999969
endloop
endfacet
facet normal 0.000000 1.000000 -0.000000
outer loop
vertex 968.103760 200.000015 -0.000033
vertex 600.000000 200.000076 399.999969
vertex 968.103760 200.000076 399.999969
endloop
endfacet
facet normal 0.000000 0.000000 1.000000
outer loop
vertex -600.000000 -199.999695 2000.000000
vertex -600.000000 -599.999695 2000.000122
vertex 600.000000 -599.999695 2000.000122
endloop
endfacet
facet normal 0.000000 0.000000 1.000000
outer loop
vertex 600.000000 -199.999664 2000.000000
vertex 968.103760 -199.999664 2000.000000
vertex 968.103760 200.000336 2000.000000
endloop
endfacet
facet normal 0.000000 0.000000 1.000000
outer loop
vertex -600.000000 -199.999695 2000.000000
vertex 600.000000 -599.999695 2000.000122
vertex 600.000000 -199.999664 2000.000000
endloop
endfacet
facet normal 0.000000 0.000000 1.000000
outer loop
vertex -905.269348 200.000305 2000.000000
vertex -905.269348 -199.999695 2000.000000
vertex -600.000000 -199.999695 2000.000000
endloop
endfacet
facet normal 0.000000 0.000000 1.000000
outer loop
vertex 600.000000 600.000305 1999.999878
vertex -600.000000 600.000305 1999.999878
vertex -600.000000 200.000305 2000.000000
endloop
endfacet
facet normal 0.000000 0.000000 1.000000
outer loop
vertex -600.000000 200.000305 2000.000000
vertex -905.269348 200.000305 2000.000000
vertex -600.000000 -199.999695 2000.000000
endloop
endfacet
facet normal 0.000000 0.000000 1.000000
outer loop
vertex -600.000000 -199.999695 2000.000000
vertex 600.000000 -199.999664 2000.000000
vertex 968.103760 200.000336 2000.000000
endloop
endfacet
facet normal 0.000000 0.000000 1.000000
outer loop
vertex 600.000000 200.000336 2000.000000
vertex 600.000000 600.000305 1999.999878
vertex -600.000000 200.000305 2000.000000
endloop
endfacet
facet normal 0.000000 0.000000 1.000000
outer loop
vertex -600.000000 -199.999695 2000.000000
vertex 968.103760 200.000336 2000.000000
vertex 600.000000 200.000336 2000.000000
endloop
endfacet
facet normal 0.000000 0.000000 1.000000
outer loop
vertex 600.000000 200.000336 2000.000000
vertex -600.000000 200.000305 2000.000000
vertex -600.000000 -199.999695 2000.000000
endloop
endfacet
facet normal 1.000000 0.000000 0.000000
outer loop
vertex 600.000000 -600.000000 0.000098
vertex 600.000000 -199.999985 0.000033
vertex 600.000000 -199.999924 400.000031
endloop
endfacet
facet normal 1.000000 -0.000000 0.000000
outer loop
vertex 600.000000 -600.000000 0.000098
vertex 600.000000 -199.999924 400.000031
vertex 600.000000 -599.999939 400.000092
endloop
endfacet
facet normal -1.000000 0.000000 0.000000
outer loop
vertex -905.269348 199.999985 -0.000033
vertex -905.269348 -200.000015 0.000033
vertex -905.269348 -199.999954 400.000031
endloop
endfacet
facet normal -1.000000 -0.000000 0.000000
outer loop
vertex -905.269348 199.999985 -0.000033
vertex -905.269348 -199.999954 400.000031
vertex -905.269348 200.000046 399.999969
endloop
endfacet
facet normal 0.000000 -1.000000 0.000000
outer loop
vertex -600.000000 -600.000000 0.000098
vertex 600.000000 -600.000000 0.000098
vertex 600.000000 -599.999939 400.000092
endloop
endfacet
facet normal 0.000000 -1.000000 0.000000
outer loop
vertex -600.000000 -600.000000 0.000098
vertex 600.000000 -599.999939 400.000092
vertex -600.000000 -599.999939 400.000092
endloop
endfacet
facet normal 0.000000 -1.000000 0.000000
outer loop
vertex 600.000000 -199.999985 0.000033
vertex 968.103760 -199.999985 0.000033
vertex 968.103760 -199.999924 400.000031
endloop
endfacet
facet normal 0.000000 -1.000000 0.000000
outer loop
vertex 600.000000 -199.999985 0.000033
vertex 968.103760 -199.999924 400.000031
vertex 600.000000 -199.999924 400.000031
endloop
endfacet
facet normal 0.000000 -1.000000 0.000000
outer loop
vertex -905.269348 -200.000015 0.000033
vertex -600.000000 -200.000015 0.000033
vertex -600.000000 -199.999954 400.000031
endloop
endfacet
facet normal 0.000000 -1.000000 0.000000
outer loop
vertex -905.269348 -200.000015 0.000033
vertex -600.000000 -199.999954 400.000031
vertex -905.269348 -199.999954 400.000031
endloop
endfacet
facet normal 1.000000 0.000000 0.000000
outer loop
vertex 600.000000 200.000015 -0.000033
vertex 600.000000 600.000000 -0.000098
vertex 600.000000 600.000061 399.999908
endloop
endfacet
facet normal 1.000000 -0.000000 0.000000
outer loop
vertex 600.000000 200.000015 -0.000033
vertex 600.000000 600.000061 399.999908
vertex 600.000000 200.000076 399.999969
endloop
endfacet
facet normal -1.000000 0.000000 0.000000
outer loop
vertex -600.000000 600.000000 -0.000098
vertex -600.000000 199.999985 -0.000033
vertex -600.000000 200.000046 399.999969
endloop
endfacet
facet normal -1.000000 -0.000000 0.000000
outer loop
vertex -600.000000 600.000000 -0.000098
vertex -600.000000 200.000046 399.999969
vertex -600.000000 600.000061 399.999908
endloop
endfacet
facet normal 1.000000 0.000000 0.000000
outer loop
vertex 968.103760 -199.999985 0.000033
vertex 968.103760 200.000015 -0.000033
vertex 968.103760 200.000076 399.999969
endloop
endfacet
facet normal 1.000000 0.000000 0.000000
outer loop
vertex 968.103760 -199.999985 0.000033
vertex 968.103760 200.000076 399.999969
vertex 968.103760 -199.999924 400.000031
endloop
endfacet
facet normal 0.000000 1.000000 -0.000000
outer loop
vertex -600.000000 199.999985 -0.000033
vertex -905.269348 199.999985 -0.000033
vertex -905.269348 200.000046 399.999969
endloop
endfacet
facet normal 0.000000 1.000000 -0.000000
outer loop
vertex -600.000000 199.999985 -0.000033
vertex -905.269348 200.000046 399.999969
vertex -600.000000 200.000046 399.999969
endloop
endfacet
facet normal 0.000000 1.000000 0.000000
outer loop
vertex 600.000000 600.000000 -0.000098
vertex -600.000000 600.000000 -0.000098
vertex -600.000000 600.000061 399.999908
endloop
endfacet
facet normal 0.000000 1.000000 -0.000000
outer loop
vertex 600.000000 600.000000 -0.000098
vertex -600.000000 600.000061 399.999908
vertex 600.000000 600.000061 399.999908
endloop
endfacet
facet normal 0.000000 -1.000000 0.000000
outer loop
vertex -600.000000 -599.999939 400.000092
vertex 600.000000 -599.999939 400.000092
vertex 600.000000 -599.999878 800.000122
endloop
endfacet
facet normal 0.000000 -1.000000 0.000000
outer loop
vertex -600.000000 -599.999939 400.000092
vertex 600.000000 -599.999878 800.000122
vertex -600.000000 -599.999878 800.000122
endloop
endfacet
facet normal 1.000000 -0.000000 0.000000
outer loop
vertex 600.000000 200.000076 399.999969
vertex 600.000000 600.000061 399.999908
vertex 600.000000 600.000122 799.999878
endloop
endfacet
facet normal 1.000000 0.000000 0.000000
outer loop
vertex 600.000000 200.000076 399.999969
vertex 600.000000 600.000122 799.999878
vertex 600.000000 200.000153 799.999939
endloop
endfacet
facet normal 0.000000 -1.000000 0.000000
outer loop
vertex 600.000000 -199.999924 400.000031
vertex 968.103760 -199.999924 400.000031
vertex 968.103760 -199.999847 800.000061
endloop
endfacet
facet normal 0.000000 -1.000000 0.000000
outer loop
vertex 600.000000 -199.999924 400.000031
vertex 968.103760 -199.999847 800.000061
vertex 600.000000 -199.999847 800.000061
endloop
endfacet
facet normal -1.000000 0.000000 0.000000
outer loop
vertex -905.269348 200.000046 399.999969
vertex -905.269348 -199.999954 400.000031
vertex -905.269348 -199.999878 800.000061
endloop
endfacet
facet normal -1.000000 -0.000000 0.000000
outer loop
vertex -905.269348 200.000046 399.999969
vertex -905.269348 -199.999878 800.000061
vertex -905.269348 200.000122 799.999939
endloop
endfacet
facet normal 0.000000 1.000000 -0.000000
outer loop
vertex 600.000000 600.000061 399.999908
vertex -600.000000 600.000061 399.999908
vertex -600.000000 600.000122 799.999878
endloop
endfacet
facet normal 0.000000 1.000000 0.000000
outer loop
vertex 600.000000 600.000061 399.999908
vertex -600.000000 600.000122 799.999878
vertex 600.000000 600.000122 799.999878
endloop
endfacet
facet normal 1.000000 0.000000 0.000000
outer loop
vertex 968.103760 -199.999924 400.000031
vertex 968.103760 200.000076 399.999969
vertex 968.103760 200.000153 799.999939
endloop
endfacet
facet normal 1.000000 0.000000 0.000000
outer loop
vertex 968.103760 -199.999924 400.000031
vertex 968.103760 200.000153 799.999939
vertex 968.103760 -199.999847 800.000061
endloop
endfacet
facet normal 0.000000 -1.000000 0.000000
outer loop
vertex -905.269348 -199.999954 400.000031
vertex -600.000000 -199.999954 400.000031
vertex -600.000000 -199.999878 800.000061
endloop
endfacet
facet normal 0.000000 -1.000000 0.000000
outer loop
vertex -905.269348 -199.999954 400.000031
vertex -600.000000 -199.999878 800.000061
vertex -905.269348 -199.999878 800.000061
endloop
endfacet
facet normal 1.000000 0.000000 0.000000
outer loop
vertex 600.000000 -599.999939 400.000092
vertex 600.000000 -199.999924 400.000031
vertex 600.000000 -199.999847 800.000061
endloop
endfacet
facet normal 1.000000 -0.000000 0.000000
outer loop
vertex 600.000000 -599.999939 400.000092
vertex 600.000000 -199.999847 800.000061
vertex 600.000000 -599.999878 800.000122
endloop
endfacet
facet normal -1.000000 0.000000 0.000000
outer loop
vertex -600.000000 600.000061 399.999908
vertex -600.000000 200.000046 399.999969
vertex -600.000000 200.000122 799.999939
endloop
endfacet
facet normal -1.000000 -0.000000 0.000000
outer loop
vertex -600.000000 600.000061 399.999908
vertex -600.000000 200.000122 799.999939
vertex -600.000000 600.000122 799.999878
endloop
endfacet
facet normal 0.000000 1.000000 -0.000000
outer loop
vertex 968.103760 200.000076 399.999969
vertex 600.000000 200.000076 399.999969
vertex 600.000000 200.000153 799.999939
endloop
endfacet
facet normal 0.000000 1.000000 -0.000000
outer loop
vertex 968.103760 200.000076 399.999969
vertex 600.000000 200.000153 799.999939
vertex 968.103760 200.000153 799.999939
endloop
endfacet
facet normal -1.000000 -0.000000 0.000000
outer loop
vertex -600.000000 -199.999954 400.000031
vertex -600.000000 -599.999939 400.000092
vertex -600.000000 -599.999878 800.000122
endloop
endfacet
facet normal -1.000000 0.000000 0.000000
outer loop
vertex -600.000000 -199.999954 400.000031
vertex -600.000000 -599.999878 800.000122
vertex -600.000000 -199.999878 800.000061
endloop
endfacet
facet normal 0.000000 1.000000 -0.000000
outer loop
vertex -600.000000 200.000046 399.999969
vertex -905.269348 200.000046 399.999969
vertex -905.269348 200.000122 799.999939
endloop
endfacet
facet normal 0.000000 1.000000 -0.000000
outer loop
vertex -600.000000 200.000046 399.999969
vertex -905.269348 200.000122 799.999939
vertex -600.000000 200.000122 799.999939
endloop
endfacet
facet normal 0.000000 1.000000 -0.000000
outer loop
vertex -600.000000 200.000122 799.999939
vertex -905.269348 200.000122 799.999939
vertex -905.269348 200.000183 1200.000000
endloop
endfacet
facet normal 0.000000 1.000000 -0.000000
outer loop
vertex -600.000000 200.000122 799.999939
vertex -905.269348 200.000183 1200.000000
vertex -600.000000 200.000183 1200.000000
endloop
endfacet
facet normal 1.000000 0.000000 0.000000
outer loop
vertex 600.000000 200.000153 799.999939
vertex 600.000000 600.000122 799.999878
vertex 600.000000 600.000183 1199.999878
endloop
endfacet
facet normal 1.000000 -0.000000 0.000000
outer loop
vertex 600.000000 200.000153 799.999939
vertex 600.000000 600.000183 1199.999878
vertex 600.000000 200.000214 1200.000000
endloop
endfacet
facet normal 0.000000 -1.000000 0.000000
outer loop
vertex 600.000000 -199.999847 800.000061
vertex 968.103760 -199.999847 800.000061
vertex 968.103760 -199.999786 1200.000000
endloop
endfacet
facet normal 0.000000 -1.000000 0.000000
outer loop
vertex 600.000000 -199.999847 800.000061
vertex 968.103760 -199.999786 1200.000000
vertex 600.000000 -199.999786 1200.000000
endloop
endfacet
facet normal -1.000000 0.000000 0.000000
outer loop
vertex -905.269348 200.000122 799.999939
vertex -905.269348 -199.999878 800.000061
vertex -905.269348 -199.999817 1200.000000
endloop
endfacet
facet normal -1.000000 0.000000 0.000000
outer loop
vertex -905.269348 200.000122 799.999939
vertex -905.269348 -199.999817 1200.000000
vertex -905.269348 200.000183 1200.000000
endloop
endfacet
facet normal 0.000000 1.000000 0.000000
outer loop
vertex 600.000000 600.000122 799.999878
vertex -600.000000 600.000122 799.999878
vertex -600.000000 600.000183 1199.999878
endloop
endfacet
facet normal 0.000000 1.000000 -0.000001
outer loop
vertex 600.000000 600.000122 799.999878
vertex -600.000000 600.000183 1199.999878
vertex 600.000000 600.000183 1199.999878
endloop
endfacet
facet normal 1.000000 0.000000 0.000000
outer loop
vertex 968.103760 -199.999847 800.000061
vertex 968.103760 200.000153 799.999939
vertex 968.103760 200.000214 1200.000000
endloop
endfacet
facet normal 1.000000 0.000000 0.000000
outer loop
vertex 968.103760 -199.999847 800.000061
vertex 968.103760 200.000214 1200.000000
vertex 968.103760 -199.999786 1200.000000
endloop
endfacet
facet normal 0.000000 -1.000000 0.000000
outer loop
vertex -905.269348 -199.999878 800.000061
vertex -600.000000 -199.999878 800.000061
vertex -600.000000 -199.999817 1200.000000
endloop
endfacet
facet normal 0.000000 -1.000000 0.000000
outer loop
vertex -905.269348 -199.999878 800.000061
vertex -600.000000 -199.999817 1200.000000
vertex -905.269348 -199.999817 1200.000000
endloop
endfacet
facet normal 0.000000 -1.000000 0.000000
outer loop
vertex -600.000000 -599.999878 800.000122
vertex 600.000000 -599.999878 800.000122
vertex 600.000000 -599.999817 1200.000122
endloop
endfacet
facet normal 0.000000 -1.000000 0.000001
outer loop
vertex -600.000000 -599.999878 800.000122
vertex 600.000000 -599.999817 1200.000122
vertex -600.000000 -599.999817 1200.000122
endloop
endfacet
facet normal -1.000000 -0.000000 0.000000
outer loop
vertex -600.000000 600.000122 799.999878
vertex -600.000000 200.000122 799.999939
vertex -600.000000 200.000183 1200.000000
endloop
endfacet
facet normal -1.000000 0.000000 0.000000
outer loop
vertex -600.000000 600.000122 799.999878
vertex -600.000000 200.000183 1200.000000
vertex -600.000000 600.000183 1199.999878
endloop
endfacet
facet normal 0.000000 1.000000 -0.000000
outer loop
vertex 968.103760 200.000153 799.999939
vertex 600.000000 200.000153 799.999939
vertex 600.000000 200.000214 1200.000000
endloop
endfacet
facet normal 0.000000 1.000000 -0.000000
outer loop
vertex 968.103760 200.000153 799.999939
vertex 600.000000 200.000214 1200.000000
vertex 968.103760 200.000214 1200.000000
endloop
endfacet
facet normal -1.000000 0.000000 0.000000
outer loop
vertex -600.000000 -199.999878 800.000061
vertex -600.000000 -599.999878 800.000122
vertex -600.000000 -599.999817 1200.000122
endloop
endfacet
facet normal -1.000000 -0.000000 0.000000
outer loop
vertex -600.000000 -199.999878 800.000061
vertex -600.000000 -599.999817 1200.000122
vertex -600.000000 -199.999817 1200.000000
endloop
endfacet
facet normal 1.000000 -0.000000 0.000000
outer loop
vertex 600.000000 -599.999878 800.000122
vertex 600.000000 -199.999847 800.000061
vertex 600.000000 -199.999786 1200.000000
endloop
endfacet
facet normal 1.000000 0.000000 0.000000
outer loop
vertex 600.000000 -599.999878 800.000122
vertex 600.000000 -199.999786 1200.000000
vertex 600.000000 -599.999817 1200.000122
endloop
endfacet
facet normal 1.000000 0.000000 0.000000
outer loop
vertex 600.000000 -599.999817 1200.000122
vertex 600.000000 -199.999786 1200.000000
vertex 600.000000 -199.999725 1600.000000
endloop
endfacet
facet normal 1.000000 0.000000 0.000000
outer loop
vertex 600.000000 -599.999817 1200.000122
vertex 600.000000 -199.999725 1600.000000
vertex 600.000000 -599.999756 1600.000122
endloop
endfacet
facet normal 0.000000 1.000000 -0.000000
outer loop
vertex -600.000000 200.000183 1200.000000
vertex -905.269348 200.000183 1200.000000
vertex -905.269348 200.000244 1600.000000
endloop
endfacet
facet normal 0.000000 1.000000 -0.000000
outer loop
vertex -600.000000 200.000183 1200.000000
vertex -905.269348 200.000244 1600.000000
vertex -600.000000 200.000244 1600.000000
endloop
endfacet
facet normal 1.000000 0.000000 0.000000
outer loop
vertex 600.000000 200.000214 1200.000000
vertex 600.000000 600.000183 1199.999878
vertex 600.000000 600.000244 1599.999878
endloop
endfacet
facet normal 1.000000 0.000000 0.000000
outer loop
vertex 600.000000 200.000214 1200.000000
vertex 600.000000 600.000244 1599.999878
vertex 600.000000 200.000275 1600.000000
endloop
endfacet
facet normal 0.000000 -1.000000 0.000000
outer loop
vertex 600.000000 -199.999786 1200.000000
vertex 968.103760 -199.999786 1200.000000
vertex 968.103760 -199.999725 1600.000000
endloop
endfacet
facet normal 0.000000 -1.000000 0.000000
outer loop
vertex 600.000000 -199.999786 1200.000000
vertex 968.103760 -199.999725 1600.000000
vertex 600.000000 -199.999725 1600.000000
endloop
endfacet
facet normal -1.000000 0.000000 0.000000
outer loop
vertex -905.269348 200.000183 1200.000000
vertex -905.269348 -199.999817 1200.000000
vertex -905.269348 -199.999756 1600.000000
endloop
endfacet
facet normal -1.000000 0.000000 0.000000
outer loop
vertex -905.269348 200.000183 1200.000000
vertex -905.269348 -199.999756 1600.000000
vertex -905.269348 200.000244 1600.000000
endloop
endfacet
facet normal 0.000000 1.000000 -0.000000
outer loop
vertex 600.000000 600.000183 1199.999878
vertex -600.000000 600.000183 1199.999878
vertex -600.000000 600.000244 1599.999878
endloop
endfacet
facet normal 0.000000 1.000000 0.000000
outer loop
vertex 600.000000 600.000183 1199.999878
vertex -600.000000 600.000244 1599.999878
vertex 600.000000 600.000244 1599.999878
endloop
endfacet
facet normal 1.000000 0.000000 0.000000
outer loop
vertex 968.103760 -199.999786 1200.000000
vertex 968.103760 200.000214 1200.000000
vertex 968.103760 200.000275 1600.000000
endloop
endfacet
facet normal 1.000000 0.000000 0.000000
outer loop
vertex 968.103760 -199.999786 1200.000000
vertex 968.103760 200.000275 1600.000000
vertex 968.103760 -199.999725 1600.000000
endloop
endfacet
facet normal 0.000000 -1.000000 0.000000
outer loop
vertex -905.269348 -199.999817 1200.000000
vertex -600.000000 -199.999817 1200.000000
vertex -600.000000 -199.999756 1600.000000
endloop
endfacet
facet normal 0.000000 -1.000000 0.000000
outer loop
vertex -905.269348 -199.999817 1200.000000
vertex -600.000000 -199.999756 1600.000000
vertex -905.269348 -199.999756 1600.000000
endloop
endfacet
facet normal 0.000000 -1.000000 0.000000
outer loop
vertex -600.000000 -599.999817 1200.000122
vertex 600.000000 -599.999817 1200.000122
vertex 600.000000 -599.999756 1600.000122
endloop
endfacet
facet normal 0.000000 -1.000000 0.000000
outer loop
vertex -600.000000 -599.999817 1200.000122
vertex 600.000000 -599.999756 1600.000122
vertex -600.000000 -599.999756 1600.000122
endloop
endfacet
facet normal -1.000000 0.000000 0.000000
outer loop
vertex -600.000000 600.000183 1199.999878
vertex -600.000000 200.000183 1200.000000
vertex -600.000000 200.000244 1600.000000
endloop
endfacet
facet normal -1.000000 0.000000 0.000000
outer loop
vertex -600.000000 600.000183 1199.999878
vertex -600.000000 200.000244 1600.000000
vertex -600.000000 600.000244 1599.999878
endloop
endfacet
facet normal 0.000000 1.000000 -0.000000
outer loop
vertex 968.103760 200.000214 1200.000000
vertex 600.000000 200.000214 1200.000000
vertex 600.000000 200.000275 1600.000000
endloop
endfacet
facet normal 0.000000 1.000000 -0.000000
outer loop
vertex 968.103760 200.000214 1200.000000
vertex 600.000000 200.000275 1600.000000
vertex 968.103760 200.000275 1600.000000
endloop
endfacet
facet normal -1.000000 0.000000 0.000000
outer loop
vertex -600.000000 -199.999817 1200.000000
vertex -600.000000 -599.999817 1200.000122
vertex -600.000000 -599.999756 1600.000122
endloop
endfacet
facet normal -1.000000 0.000000 0.000000
outer loop
vertex -600.000000 -199.999817 1200.000000
vertex -600.000000 -599.999756 1600.000122
vertex -600.000000 -199.999756 1600.000000
endloop
endfacet
facet normal -1.000000 0.000000 0.000000
outer loop
vertex -600.000000 -199.999756 1600.000000
vertex -600.000000 -599.999756 1600.000122
vertex -600.000000 -599.999695 2000.000122
endloop
endfacet
facet normal -1.000000 0.000000 0.000000
outer loop
vertex -600.000000 -199.999756 1600.000000
vertex -600.000000 -599.999695 2000.000122
vertex -600.000000 -199.999695 2000.000000
endloop
endfacet
facet normal 1.000000 0.000000 0.000000
outer loop
vertex 600.000000 -599.999756 1600.000122
vertex 600.000000 -199.999725 1600.000000
vertex 600.000000 -199.999664 2000.000000
endloop
endfacet
facet normal 1.000000 0.000000 0.000000
outer loop
vertex 600.000000 -599.999756 1600.000122
vertex 600.000000 -199.999664 2000.000000
vertex 600.000000 -599.999695 2000.000122
endloop
endfacet
facet normal 0.000000 1.000000 -0.000000
outer loop
vertex -600.000000 200.000244 1600.000000
vertex -905.269348 200.000244 1600.000000
vertex -905.269348 200.000305 2000.000000
endloop
endfacet
facet normal 0.000000 1.000000 -0.000000
outer loop
vertex -600.000000 200.000244 1600.000000
vertex -905.269348 200.000305 2000.000000
vertex -600.000000 200.000305 2000.000000
endloop
endfacet
facet normal 1.000000 0.000000 0.000000
outer loop
vertex 600.000000 200.000275 1600.000000
vertex 600.000000 600.000244 1599.999878
vertex 600.000000 600.000305 1999.999878
endloop
endfacet
facet normal 1.000000 0.000000 0.000000
outer loop
vertex 600.000000 200.000275 1600.000000
vertex 600.000000 600.000305 1999.999878
vertex 600.000000 200.000336 2000.000000
endloop
endfacet
facet normal 0.000000 -1.000000 0.000000
outer loop
vertex 600.000000 -199.999725 1600.000000
vertex 968.103760 -199.999725 1600.000000
vertex 968.103760 -199.999664 2000.000000
endloop
endfacet
facet normal 0.000000 -1.000000 0.000000
outer loop
vertex 600.000000 -199.999725 1600.000000
vertex 968.103760 -199.999664 2000.000000
vertex 600.000000 -199.999664 2000.000000
endloop
endfacet
facet normal -1.000000 0.000000 0.000000
outer loop
vertex -905.269348 200.000244 1600.000000
vertex -905.269348 -199.999756 1600.000000
vertex -905.269348 -199.999695 2000.000000
endloop
endfacet
facet normal -1.000000 0.000000 0.000000
outer loop
vertex -905.269348 200.000244 1600.000000
vertex -905.269348 -199.999695 2000.000000
vertex -905.269348 200.000305 2000.000000
endloop
endfacet
facet normal 0.000000 1.000000 0.000000
outer loop
vertex 600.000000 600.000244 1599.999878
vertex -600.000000 600.000244 1599.999878
vertex -600.000000 600.000305 1999.999878
endloop
endfacet
facet normal 0.000000 1.000000 -0.000000
outer loop
vertex 600.000000 600.000244 1599.999878
vertex -600.000000 600.000305 1999.999878
vertex 600.000000 600.000305 1999.999878
endloop
endfacet
facet normal 1.000000 0.000000 0.000000
outer loop
vertex 968.103760 -199.999725 1600.000000
vertex 968.103760 200.000275 1600.000000
vertex 968.103760 200.000336 2000.000000
endloop
endfacet
facet normal 1.000000 0.000000 0.000000
outer loop
vertex 968.103760 -199.999725 1600.000000
vertex 968.103760 200.000336 2000.000000
vertex 968.103760 -199.999664 2000.000000
endloop
endfacet
facet normal 0.000000 -1.000000 0.000000
outer loop
vertex -905.269348 -199.999756 1600.000000
vertex -600.000000 -199.999756 1600.000000
vertex -600.000000 -199.999695 2000.000000
endloop
endfacet
facet normal 0.000000 -1.000000 0.000000
outer loop
vertex -905.269348 -199.999756 1600.000000
vertex -600.000000 -199.999695 2000.000000
vertex -905.269348 -199.999695 2000.000000
endloop
endfacet
facet normal 0.000000 -1.000000 0.000000
outer loop
vertex -600.000000 -599.999756 1600.000122
vertex 600.000000 -599.999756 1600.000122
vertex 600.000000 -599.999695 2000.000122
endloop
endfacet
facet normal 0.000000 -1.000000 0.000000
outer loop
vertex -600.000000 -599.999756 1600.000122
vertex 600.000000 -599.999695 2000.000122
vertex -600.000000 -599.999695 2000.000122
endloop
endfacet
facet normal -1.000000 0.000000 0.000000
outer loop
vertex -600.000000 600.000244 1599.999878
vertex -600.000000 200.000244 1600.000000
vertex -600.000000 200.000305 2000.000000
endloop
endfacet
facet normal -1.000000 0.000000 0.000000
outer loop
vertex -600.000000 600.000244 1599.999878
vertex -600.000000 200.000305 2000.000000
vertex -600.000000 600.000305 1999.999878
endloop
endfacet
facet normal 0.000000 1.000000 -0.000000
outer loop
vertex 968.103760 200.000275 1600.000000
vertex 600.000000 200.000275 1600.000000
vertex 600.000000 200.000336 2000.000000
endloop
endfacet
facet normal 0.000000 1.000000 -0.000000
outer loop
vertex 968.103760 200.000275 1600.000000
vertex 600.000000 200.000336 2000.000000
vertex 968.103760 200.000336 2000.000000
endloop
endfacet
endsolid building_009.001
