solid building_034
facet normal -1.000000 0.000000 0.000000
outer loop
vertex -675.000000 625.000000 -0.000102
vertex -675.000000 -625.000000 0.000102
vertex -675.000000 -624.999939 250.000107
endloop
endfacet
facet normal -1.000000 -0.000000 0.000000
outer loop
vertex -675.000000 625.000000 -0.000102
vertex -675.000000 -624.999939 250.000107
vertex -675.000000 625.000061 249.999893
endloop
endfacet
facet normal 0.000000 1.000000 0.000000
outer loop
vertex 525.000000 750.000000 -0.000122
vertex -525.000000 750.000000 -0.000122
vertex -525.000000 750.000061 249.999878
endloop
endfacet
facet normal 0.000000 1.000000 -0.000000
outer loop
vertex 525.000000 750.000000 -0.000122
vertex -525.000000 750.000061 249.999878
vertex 525.000000 750.000061 249.999878
endloop
endfacet
facet normal 0.000000 -1.000000 0.000000
outer loop
vertex -525.000000 -750.000000 0.000122
vertex 525.000000 -750.000000 0.000122
vertex 525.000000 -749.999939 250.000122
endloop
endfacet
facet normal 0.000000 -1.000000 0.000000
outer loop
vertex -525.000000 -750.000000 0.000122
vertex 525.000000 -749.999939 250.000122
vertex -525.000000 -749.999939 250.000122
endloop
endfacet
facet normal 0.000000 0.000000 1.000000
outer loop
vertex -525.000000 -624.999878 750.000122
vertex -525.000000 -749.999878 750.000122
vertex 525.000000 -749.999878 750.000122
endloop
endfacet
facet normal 0.000000 0.000000 1.000000
outer loop
vertex 525.000000 -624.999878 750.000122
vertex 675.000000 -624.999878 750.000122
vertex 675.000000 625.000122 749.999878
endloop
endfacet
facet normal 0.000000 0.000000 1.000000
outer loop
vertex -525.000000 -624.999878 750.000122
vertex 525.000000 -749.999878 750.000122
vertex 525.000000 -624.999878 750.000122
endloop
endfacet
facet normal 0.000000 0.000000 1.000000
outer loop
vertex -675.000000 625.000122 749.999878
vertex -675.000000 -624.999878 750.000122
vertex -525.000000 -624.999878 750.000122
endloop
endfacet
facet normal 0.000000 0.000000 1.000000
outer loop
vertex 525.000000 750.000122 749.999878
vertex -525.000000 750.000122 749.999878
vertex -525.000000 625.000122 749.999878
endloop
endfacet
facet normal 0.000000 0.000000 1.000000
outer loop
vertex -525.000000 625.000122 749.999878
vertex -675.000000 625.000122 749.999878
vertex -525.000000 -624.999878 750.000122
endloop
endfacet
facet normal 0.000000 0.000000 1.000000
outer loop
vertex -525.000000 -624.999878 750.000122
vertex 525.000000 -624.999878 750.000122
vertex 675.000000 625.000122 749.999878
endloop
endfacet
facet normal 0.000000 0.000000 1.000000
outer loop
vertex 525.000000 625.000122 749.999878
vertex 525.000000 750.000122 749.999878
vertex -525.000000 625.000122 749.999878
endloop
endfacet
facet normal 0.000000 0.000000 1.000000
outer loop
vertex -525.000000 -624.999878 750.000122
vertex 675.000000 625.000122 749.999878
vertex 525.000000 625.000122 749.999878
endloop
endfacet
facet normal 0.000000 0.000000 1.000000
outer loop
vertex -525.000000 -624.999878 750.000122
vertex 525.000000 625.000122 749.999878
vertex -525.000000 625.000122 749.999878
endloop
endfacet
facet normal 0.000000 -1.000000 0.000000
outer loop
vertex 525.000000 -625.000000 0.000102
vertex 675.000000 -625.000000 0.000102
vertex 675.000000 -624.999939 250.000107
endloop
endfacet
facet normal 0.000000 -1.000000 0.000000
outer loop
vertex 525.000000 -625.000000 0.000102
vertex 675.000000 -624.999939 250.000107
vertex 525.000000 -624.999939 250.000107
endloop
endfacet
facet normal -1.000000 0.000000 0.000000
outer loop
vertex -525.000000 750.000000 -0.000122
vertex -525.000000 625.000000 -0.000102
vertex -525.000000 625.000061 249.999893
endloop
endfacet
facet normal -1.000000 0.000000 0.000000
outer loop
vertex -525.000000 750.000000 -0.000122
vertex -525.000000 625.000061 249.999893
vertex -525.000000 750.000061 249.999878
endloop
endfacet
facet normal 1.000000 0.000000 0.000000
outer loop
vertex 675.000000 -625.000000 0.000102
vertex 675.000000 625.000000 -0.000102
vertex 675.000000 625.000061 249.999893
endloop
endfacet
facet normal 1.000000 -0.000000 0.000000
outer loop
vertex 675.000000 -625.000000 0.000102
vertex 675.000000 625.000061 249.999893
vertex 675.000000 -624.999939 250.000107
endloop
endfacet
facet normal 0.000000 -1.000000 0.000000
outer loop
vertex -675.000000 -625.000000 0.000102
vertex -525.000000 -625.000000 0.000102
vertex -525.000000 -624.999939 250.000107
endloop
endfacet
facet normal 0.000000 -1.000000 0.000000
outer loop
vertex -675.000000 -625.000000 0.000102
vertex -525.000000 -624.999939 250.000107
vertex -675.000000 -624.999939 250.000107
endloop
endfacet
facet normal 1.000000 0.000000 0.000000
outer loop
vertex 525.000000 -750.000000 0.000122
vertex 525.000000 -625.000000 0.000102
vertex 525.000000 -624.999939 250.000107
endloop
endfacet
facet normal 1.000000 0.000000 0.000000
outer loop
vertex 525.000000 -750.000000 0.000122
vertex 525.000000 -624.999939 250.000107
vertex 525.000000 -749.999939 250.000122
endloop
endfacet
facet normal 1.000000 0.000000 0.000000
outer loop
vertex 525.000000 625.000000 -0.000102
vertex 525.000000 750.000000 -0.000122
vertex 525.000000 750.000061 249.999878
endloop
endfacet
facet normal 1.000000 0.000000 0.000000
outer loop
vertex 525.000000 625.000000 -0.000102
vertex 525.000000 750.000061 249.999878
vertex 525.000000 625.000061 249.999893
endloop
endfacet
facet normal 0.000000 1.000000 0.000000
outer loop
vertex 675.000000 625.000000 -0.000102
vertex 525.000000 625.000000 -0.000102
vertex 525.000000 625.000061 249.999893
endloop
endfacet
facet normal 0.000000 1.000000 -0.000000
outer loop
vertex 675.000000 625.000000 -0.000102
vertex 525.000000 625.000061 249.999893
vertex 675.000000 625.000061 249.999893
endloop
endfacet
facet normal 0.000000 1.000000 0.000000
outer loop
vertex -525.000000 625.000000 -0.000102
vertex -675.000000 625.000000 -0.000102
vertex -675.000000 625.000061 249.999893
endloop
endfacet
facet normal 0.000000 1.000000 -0.000000
outer loop
vertex -525.000000 625.000000 -0.000102
vertex -675.000000 625.000061 249.999893
vertex -525.000000 625.000061 249.999893
endloop
endfacet
facet normal -1.000000 0.000000 0.000000
outer loop
vertex -525.000000 -625.000000 0.000102
vertex -525.000000 -750.000000 0.000122
vertex -525.000000 -749.999939 250.000122
endloop
endfacet
facet normal -1.000000 0.000000 0.000000
outer loop
vertex -525.000000 -625.000000 0.000102
vertex -525.000000 -749.999939 250.000122
vertex -525.000000 -624.999939 250.000107
endloop
endfacet
facet normal 1.000000 -0.000000 0.000000
outer loop
vertex 675.000000 -624.999939 250.000107
vertex 675.000000 625.000061 249.999893
vertex 675.000000 625.000061 499.999908
endloop
endfacet
facet normal 1.000000 0.000000 0.000000
outer loop
vertex 675.000000 -624.999939 250.000107
vertex 675.000000 625.000061 499.999908
vertex 675.000000 -624.999939 500.000092
endloop
endfacet
facet normal 0.000000 -1.000000 0.000000
outer loop
vertex -675.000000 -624.999939 250.000107
vertex -525.000000 -624.999939 250.000107
vertex -525.000000 -624.999939 500.000092
endloop
endfacet
facet normal 0.000000 -1.000000 0.000000
outer loop
vertex -675.000000 -624.999939 250.000107
vertex -525.000000 -624.999939 500.000092
vertex -675.000000 -624.999939 500.000092
endloop
endfacet
facet normal 0.000000 -1.000000 0.000000
outer loop
vertex -525.000000 -749.999939 250.000122
vertex 525.000000 -749.999939 250.000122
vertex 525.000000 -749.999939 500.000122
endloop
endfacet
facet normal 0.000000 -1.000000 0.000000
outer loop
vertex -525.000000 -749.999939 250.000122
vertex 525.000000 -749.999939 500.000122
vertex -525.000000 -749.999939 500.000122
endloop
endfacet
facet normal -1.000000 0.000001 0.000000
outer loop
vertex -525.000000 750.000061 249.999878
vertex -525.000000 625.000061 249.999893
vertex -525.000000 625.000061 499.999908
endloop
endfacet
facet normal -1.000000 -0.000000 0.000000
outer loop
vertex -525.000000 750.000061 249.999878
vertex -525.000000 625.000061 499.999908
vertex -525.000000 750.000061 499.999878
endloop
endfacet
facet normal -1.000000 0.000000 0.000000
outer loop
vertex -525.000000 -624.999939 250.000107
vertex -525.000000 -749.999939 250.000122
vertex -525.000000 -749.999939 500.000122
endloop
endfacet
facet normal -1.000000 0.000001 0.000000
outer loop
vertex -525.000000 -624.999939 250.000107
vertex -525.000000 -749.999939 500.000122
vertex -525.000000 -624.999939 500.000092
endloop
endfacet
facet normal 0.000000 1.000000 0.000000
outer loop
vertex 675.000000 625.000061 249.999893
vertex 525.000000 625.000061 249.999893
vertex 525.000000 625.000061 499.999908
endloop
endfacet
facet normal 0.000000 1.000000 0.000000
outer loop
vertex 675.000000 625.000061 249.999893
vertex 525.000000 625.000061 499.999908
vertex 675.000000 625.000061 499.999908
endloop
endfacet
facet normal 0.000000 1.000000 0.000000
outer loop
vertex -525.000000 625.000061 249.999893
vertex -675.000000 625.000061 249.999893
vertex -675.000000 625.000061 499.999908
endloop
endfacet
facet normal 0.000000 1.000000 0.000000
outer loop
vertex -525.000000 625.000061 249.999893
vertex -675.000000 625.000061 499.999908
vertex -525.000000 625.000061 499.999908
endloop
endfacet
facet normal 0.000000 -1.000000 0.000000
outer loop
vertex 525.000000 -624.999939 250.000107
vertex 675.000000 -624.999939 250.000107
vertex 675.000000 -624.999939 500.000092
endloop
endfacet
facet normal 0.000000 -1.000000 0.000000
outer loop
vertex 525.000000 -624.999939 250.000107
vertex 675.000000 -624.999939 500.000092
vertex 525.000000 -624.999939 500.000092
endloop
endfacet
facet normal 1.000000 0.000000 0.000000
outer loop
vertex 525.000000 625.000061 249.999893
vertex 525.000000 750.000061 249.999878
vertex 525.000000 750.000061 499.999878
endloop
endfacet
facet normal 1.000000 0.000001 0.000000
outer loop
vertex 525.000000 625.000061 249.999893
vertex 525.000000 750.000061 499.999878
vertex 525.000000 625.000061 499.999908
endloop
endfacet
facet normal -1.000000 -0.000000 0.000000
outer loop
vertex -675.000000 625.000061 249.999893
vertex -675.000000 -624.999939 250.000107
vertex -675.000000 -624.999939 500.000092
endloop
endfacet
facet normal -1.000000 0.000000 0.000000
outer loop
vertex -675.000000 625.000061 249.999893
vertex -675.000000 -624.999939 500.000092
vertex -675.000000 625.000061 499.999908
endloop
endfacet
facet normal 0.000000 1.000000 0.000000
outer loop
vertex 525.000000 750.000061 249.999878
vertex -525.000000 750.000061 249.999878
vertex -525.000000 750.000061 499.999878
endloop
endfacet
facet normal 0.000000 1.000000 0.000000
outer loop
vertex 525.000000 750.000061 249.999878
vertex -525.000000 750.000061 499.999878
vertex 525.000000 750.000061 499.999878
endloop
endfacet
facet normal 1.000000 0.000001 0.000000
outer loop
vertex 525.000000 -749.999939 250.000122
vertex 525.000000 -624.999939 250.000107
vertex 525.000000 -624.999939 500.000092
endloop
endfacet
facet normal 1.000000 -0.000000 0.000000
outer loop
vertex 525.000000 -749.999939 250.000122
vertex 525.000000 -624.999939 500.000092
vertex 525.000000 -749.999939 500.000122
endloop
endfacet
facet normal 1.000000 0.000000 0.000000
outer loop
vertex 675.000000 -624.999939 500.000092
vertex 675.000000 625.000061 499.999908
vertex 675.000000 625.000122 749.999878
endloop
endfacet
facet normal 1.000000 -0.000000 0.000000
outer loop
vertex 675.000000 -624.999939 500.000092
vertex 675.000000 625.000122 749.999878
vertex 675.000000 -624.999878 750.000122
endloop
endfacet
facet normal 0.000000 -1.000000 0.000000
outer loop
vertex -675.000000 -624.999939 500.000092
vertex -525.000000 -624.999939 500.000092
vertex -525.000000 -624.999878 750.000122
endloop
endfacet
facet normal 0.000000 -1.000000 0.000000
outer loop
vertex -675.000000 -624.999939 500.000092
vertex -525.000000 -624.999878 750.000122
vertex -675.000000 -624.999878 750.000122
endloop
endfacet
facet normal 0.000000 -1.000000 0.000000
outer loop
vertex -525.000000 -749.999939 500.000122
vertex 525.000000 -749.999939 500.000122
vertex 525.000000 -749.999878 750.000122
endloop
endfacet
facet normal 0.000000 -1.000000 0.000000
outer loop
vertex -525.000000 -749.999939 500.000122
vertex 525.000000 -749.999878 750.000122
vertex -525.000000 -749.999878 750.000122
endloop
endfacet
facet normal -1.000000 0.000000 0.000000
outer loop
vertex -525.000000 750.000061 499.999878
vertex -525.000000 625.000061 499.999908
vertex -525.000000 625.000122 749.999878
endloop
endfacet
facet normal -1.000000 0.000000 0.000000
outer loop
vertex -525.000000 750.000061 499.999878
vertex -525.000000 625.000122 749.999878
vertex -525.000000 750.000122 749.999878
endloop
endfacet
facet normal 0.000000 1.000000 -0.000000
outer loop
vertex 675.000000 625.000061 499.999908
vertex 525.000000 625.000061 499.999908
vertex 525.000000 625.000122 749.999878
endloop
endfacet
facet normal 0.000000 1.000000 0.000000
outer loop
vertex 675.000000 625.000061 499.999908
vertex 525.000000 625.000122 749.999878
vertex 675.000000 625.000122 749.999878
endloop
endfacet
facet normal 1.000000 0.000000 0.000000
outer loop
vertex 525.000000 -749.999939 500.000122
vertex 525.000000 -624.999939 500.000092
vertex 525.000000 -624.999878 750.000122
endloop
endfacet
facet normal 1.000000 0.000000 0.000000
outer loop
vertex 525.000000 -749.999939 500.000122
vertex 525.000000 -624.999878 750.000122
vertex 525.000000 -749.999878 750.000122
endloop
endfacet
facet normal 0.000000 1.000000 -0.000000
outer loop
vertex -525.000000 625.000061 499.999908
vertex -675.000000 625.000061 499.999908
vertex -675.000000 625.000122 749.999878
endloop
endfacet
facet normal 0.000000 1.000000 0.000000
outer loop
vertex -525.000000 625.000061 499.999908
vertex -675.000000 625.000122 749.999878
vertex -525.000000 625.000122 749.999878
endloop
endfacet
facet normal 1.000000 0.000000 0.000000
outer loop
vertex 525.000000 625.000061 499.999908
vertex 525.000000 750.000061 499.999878
vertex 525.000000 750.000122 749.999878
endloop
endfacet
facet normal 1.000000 0.000000 0.000000
outer loop
vertex 525.000000 625.000061 499.999908
vertex 525.000000 750.000122 749.999878
vertex 525.000000 625.000122 749.999878
endloop
endfacet
facet normal 0.000000 -1.000000 0.000000
outer loop
vertex 525.000000 -624.999939 500.000092
vertex 675.000000 -624.999939 500.000092
vertex 675.000000 -624.999878 750.000122
endloop
endfacet
facet normal 0.000000 -1.000000 0.000000
outer loop
vertex 525.000000 -624.999939 500.000092
vertex 675.000000 -624.999878 750.000122
vertex 525.000000 -624.999878 750.000122
endloop
endfacet
facet normal -1.000000 0.000000 0.000000
outer loop
vertex -675.000000 625.000061 499.999908
vertex -675.000000 -624.999939 500.000092
vertex -675.000000 -624.999878 750.000122
endloop
endfacet
facet normal -1.000000 -0.000000 0.000000
outer loop
vertex -675.000000 625.000061 499.999908
vertex -675.000000 -624.999878 750.000122
vertex -675.000000 625.000122 749.999878
endloop
endfacet
facet normal -1.000000 0.000000 0.000000
outer loop
vertex -525.000000 -624.999939 500.000092
vertex -525.000000 -749.999939 500.000122
vertex -525.000000 -749.999878 750.000122
endloop
endfacet
facet normal -1.000000 0.000000 0.000000
outer loop
vertex -525.000000 -624.999939 500.000092
vertex -525.000000 -749.999878 750.000122
vertex -525.000000 -624.999878 750.000122
endloop
endfacet
facet normal 0.000000 1.000000 -0.000000
outer loop
vertex 525.000000 750.000061 499.999878
vertex -525.000000 750.000061 499.999878
vertex -525.000000 750.000122 749.999878
endloop
endfacet
facet normal 0.000000 1.000000 0.000000
outer loop
vertex 525.000000 750.000061 499.999878
vertex -525.000000 750.000122 749.999878
vertex 525.000000 750.000122 749.999878
endloop
endfacet
endsolid building_034
