solid building_016
facet normal 1.000000 0.000000 0.000000
outer loop
vertex 511.058868 -772.686829 0.000126
vertex 511.058868 -500.000000 0.000081
vertex 511.058868 -499.999969 200.000076
endloop
endfacet
facet normal 1.000000 0.000000 0.000000
outer loop
vertex 511.058868 -772.686829 0.000126
vertex 511.058868 -499.999969 200.000076
vertex 511.058868 -772.686768 200.000122
endloop
endfacet
facet normal 0.000000 0.000000 1.000000
outer loop
vertex -500.000000 500.000397 2400.000000
vertex -500.000000 -499.999603 2400.000000
vertex -472.274506 -499.999603 2400.000000
endloop
endfacet
facet normal 0.000000 0.000001 1.000000
outer loop
vertex -472.274506 -499.999603 2400.000000
vertex -472.274506 -772.686462 2400.000244
vertex 511.058868 -772.686462 2400.000244
endloop
endfacet
facet normal 0.000000 0.000001 1.000000
outer loop
vertex 511.058868 -772.686462 2400.000244
vertex 511.058868 -499.999603 2400.000000
vertex 500.000000 -499.999603 2400.000000
endloop
endfacet
facet normal 0.000000 0.000000 1.000000
outer loop
vertex 500.000000 -499.999603 2400.000000
vertex 500.000000 500.000397 2400.000000
vertex -500.000000 500.000397 2400.000000
endloop
endfacet
facet normal -0.000000 -0.000000 1.000000
outer loop
vertex -500.000000 500.000397 2400.000000
vertex -472.274506 -499.999603 2400.000000
vertex 511.058868 -772.686462 2400.000244
endloop
endfacet
facet normal 0.000000 0.000001 1.000000
outer loop
vertex 511.058868 -772.686462 2400.000244
vertex 500.000000 -499.999603 2400.000000
vertex -500.000000 500.000397 2400.000000
endloop
endfacet
facet normal 0.000000 1.000000 0.000000
outer loop
vertex 500.000000 500.000000 -0.000081
vertex -500.000000 500.000000 -0.000081
vertex -500.000000 500.000031 199.999924
endloop
endfacet
facet normal 0.000000 1.000000 -0.000000
outer loop
vertex 500.000000 500.000000 -0.000081
vertex -500.000000 500.000031 199.999924
vertex 500.000000 500.000031 199.999924
endloop
endfacet
facet normal 0.000000 1.000000 0.000000
outer loop
vertex 511.058868 -500.000000 0.000081
vertex 500.000000 -500.000000 0.000081
vertex 500.000000 -499.999969 200.000076
endloop
endfacet
facet normal 0.000000 1.000000 0.000000
outer loop
vertex 511.058868 -500.000000 0.000081
vertex 500.000000 -499.999969 200.000076
vertex 511.058868 -499.999969 200.000076
endloop
endfacet
facet normal -1.000000 0.000000 0.000000
outer loop
vertex -472.274506 -500.000000 0.000081
vertex -472.274506 -772.686829 0.000126
vertex -472.274506 -772.686768 200.000122
endloop
endfacet
facet normal -1.000000 0.000000 0.000000
outer loop
vertex -472.274506 -500.000000 0.000081
vertex -472.274506 -772.686768 200.000122
vertex -472.274506 -499.999969 200.000076
endloop
endfacet
facet normal 0.000000 -1.000000 0.000001
outer loop
vertex -472.274506 -772.686829 0.000126
vertex 511.058868 -772.686829 0.000126
vertex 511.058868 -772.686768 200.000122
endloop
endfacet
facet normal 0.000000 -1.000000 0.000000
outer loop
vertex -472.274506 -772.686829 0.000126
vertex 511.058868 -772.686768 200.000122
vertex -472.274506 -772.686768 200.000122
endloop
endfacet
facet normal 0.000000 -1.000000 0.000000
outer loop
vertex -500.000000 -500.000000 0.000081
vertex -472.274506 -500.000000 0.000081
vertex -472.274506 -499.999969 200.000076
endloop
endfacet
facet normal 0.000000 -1.000000 0.000000
outer loop
vertex -500.000000 -500.000000 0.000081
vertex -472.274506 -499.999969 200.000076
vertex -500.000000 -499.999969 200.000076
endloop
endfacet
facet normal 1.000000 0.000000 0.000000
outer loop
vertex 500.000000 -500.000000 0.000081
vertex 500.000000 500.000000 -0.000081
vertex 500.000000 500.000031 199.999924
endloop
endfacet
facet normal 1.000000 0.000000 0.000000
outer loop
vertex 500.000000 -500.000000 0.000081
vertex 500.000000 500.000031 199.999924
vertex 500.000000 -499.999969 200.000076
endloop
endfacet
facet normal -1.000000 0.000000 0.000000
outer loop
vertex -500.000000 500.000000 -0.000081
vertex -500.000000 -500.000000 0.000081
vertex -500.000000 -499.999969 200.000076
endloop
endfacet
facet normal -1.000000 0.000000 0.000000
outer loop
vertex -500.000000 500.000000 -0.000081
vertex -500.000000 -499.999969 200.000076
vertex -500.000000 500.000031 199.999924
endloop
endfacet
facet normal 0.000000 -1.000000 0.000000
outer loop
vertex -500.000000 -499.999969 200.000076
vertex -472.274506 -499.999969 200.000076
vertex -472.274506 -499.999939 400.000092
endloop
endfacet
facet normal 0.000000 -1.000000 0.000000
outer loop
vertex -500.000000 -499.999969 200.000076
vertex -472.274506 -499.999939 400.000092
vertex -500.000000 -499.999939 400.000092
endloop
endfacet
facet normal 0.000000 1.000000 -0.000000
outer loop
vertex 500.000000 500.000031 199.999924
vertex -500.000000 500.000031 199.999924
vertex -500.000000 500.000061 399.999908
endloop
endfacet
facet normal 0.000000 1.000000 0.000000
outer loop
vertex 500.000000 500.000031 199.999924
vertex -500.000000 500.000061 399.999908
vertex 500.000000 500.000061 399.999908
endloop
endfacet
facet normal 0.000000 1.000000 -0.000000
outer loop
vertex 511.058868 -499.999969 200.000076
vertex 500.000000 -499.999969 200.000076
vertex 500.000000 -499.999939 400.000092
endloop
endfacet
facet normal 0.000000 1.000000 0.000000
outer loop
vertex 511.058868 -499.999969 200.000076
vertex 500.000000 -499.999939 400.000092
vertex 511.058868 -499.999939 400.000092
endloop
endfacet
facet normal 0.000000 -1.000000 0.000000
outer loop
vertex -472.274506 -772.686768 200.000122
vertex 511.058868 -772.686768 200.000122
vertex 511.058868 -772.686768 400.000122
endloop
endfacet
facet normal 0.000000 -1.000000 0.000000
outer loop
vertex -472.274506 -772.686768 200.000122
vertex 511.058868 -772.686768 400.000122
vertex -472.274506 -772.686768 400.000122
endloop
endfacet
facet normal -1.000000 0.000000 0.000000
outer loop
vertex -500.000000 500.000031 199.999924
vertex -500.000000 -499.999969 200.000076
vertex -500.000000 -499.999939 400.000092
endloop
endfacet
facet normal -1.000000 0.000000 0.000000
outer loop
vertex -500.000000 500.000031 199.999924
vertex -500.000000 -499.999939 400.000092
vertex -500.000000 500.000061 399.999908
endloop
endfacet
facet normal 1.000000 0.000000 0.000000
outer loop
vertex 500.000000 -499.999969 200.000076
vertex 500.000000 500.000031 199.999924
vertex 500.000000 500.000061 399.999908
endloop
endfacet
facet normal 1.000000 0.000000 0.000000
outer loop
vertex 500.000000 -499.999969 200.000076
vertex 500.000000 500.000061 399.999908
vertex 500.000000 -499.999939 400.000092
endloop
endfacet
facet normal 1.000000 0.000000 0.000000
outer loop
vertex 511.058868 -772.686768 200.000122
vertex 511.058868 -499.999969 200.000076
vertex 511.058868 -499.999939 400.000092
endloop
endfacet
facet normal 1.000000 0.000000 0.000000
outer loop
vertex 511.058868 -772.686768 200.000122
vertex 511.058868 -499.999939 400.000092
vertex 511.058868 -772.686768 400.000122
endloop
endfacet
facet normal -1.000000 0.000000 0.000000
outer loop
vertex -472.274506 -499.999969 200.000076
vertex -472.274506 -772.686768 200.000122
vertex -472.274506 -772.686768 400.000122
endloop
endfacet
facet normal -1.000000 0.000000 0.000000
outer loop
vertex -472.274506 -499.999969 200.000076
vertex -472.274506 -772.686768 400.000122
vertex -472.274506 -499.999939 400.000092
endloop
endfacet
facet normal 1.000000 0.000000 0.000000
outer loop
vertex 500.000000 -499.999939 400.000092
vertex 500.000000 500.000061 399.999908
vertex 500.000000 500.000092 599.999939
endloop
endfacet
facet normal 1.000000 0.000000 0.000000
outer loop
vertex 500.000000 -499.999939 400.000092
vertex 500.000000 500.000092 599.999939
vertex 500.000000 -499.999908 600.000061
endloop
endfacet
facet normal 1.000000 0.000000 0.000000
outer loop
vertex 511.058868 -772.686768 400.000122
vertex 511.058868 -499.999939 400.000092
vertex 511.058868 -499.999908 600.000061
endloop
endfacet
facet normal 1.000000 0.000000 0.000000
outer loop
vertex 511.058868 -772.686768 400.000122
vertex 511.058868 -499.999908 600.000061
vertex 511.058868 -772.686707 600.000122
endloop
endfacet
facet normal -1.000000 0.000000 0.000000
outer loop
vertex -472.274506 -499.999939 400.000092
vertex -472.274506 -772.686768 400.000122
vertex -472.274506 -772.686707 600.000122
endloop
endfacet
facet normal -1.000000 0.000000 0.000000
outer loop
vertex -472.274506 -499.999939 400.000092
vertex -472.274506 -772.686707 600.000122
vertex -472.274506 -499.999908 600.000061
endloop
endfacet
facet normal 0.000000 1.000000 0.000000
outer loop
vertex 500.000000 500.000061 399.999908
vertex -500.000000 500.000061 399.999908
vertex -500.000000 500.000092 599.999939
endloop
endfacet
facet normal 0.000000 1.000000 -0.000000
outer loop
vertex 500.000000 500.000061 399.999908
vertex -500.000000 500.000092 599.999939
vertex 500.000000 500.000092 599.999939
endloop
endfacet
facet normal 0.000000 1.000000 0.000000
outer loop
vertex 511.058868 -499.999939 400.000092
vertex 500.000000 -499.999939 400.000092
vertex 500.000000 -499.999908 600.000061
endloop
endfacet
facet normal 0.000000 1.000000 -0.000000
outer loop
vertex 511.058868 -499.999939 400.000092
vertex 500.000000 -499.999908 600.000061
vertex 511.058868 -499.999908 600.000061
endloop
endfacet
facet normal 0.000000 -1.000000 0.000000
outer loop
vertex -472.274506 -772.686768 400.000122
vertex 511.058868 -772.686768 400.000122
vertex 511.058868 -772.686707 600.000122
endloop
endfacet
facet normal 0.000000 -1.000000 0.000001
outer loop
vertex -472.274506 -772.686768 400.000122
vertex 511.058868 -772.686707 600.000122
vertex -472.274506 -772.686707 600.000122
endloop
endfacet
facet normal 0.000000 -1.000000 0.000000
outer loop
vertex -500.000000 -499.999939 400.000092
vertex -472.274506 -499.999939 400.000092
vertex -472.274506 -499.999908 600.000061
endloop
endfacet
facet normal 0.000000 -1.000000 0.000000
outer loop
vertex -500.000000 -499.999939 400.000092
vertex -472.274506 -499.999908 600.000061
vertex -500.000000 -499.999908 600.000061
endloop
endfacet
facet normal -1.000000 0.000000 0.000000
outer loop
vertex -500.000000 500.000061 399.999908
vertex -500.000000 -499.999939 400.000092
vertex -500.000000 -499.999908 600.000061
endloop
endfacet
facet normal -1.000000 0.000000 0.000000
outer loop
vertex -500.000000 500.000061 399.999908
vertex -500.000000 -499.999908 600.000061
vertex -500.000000 500.000092 599.999939
endloop
endfacet
facet normal 0.000000 -1.000000 0.000000
outer loop
vertex -500.000000 -499.999908 600.000061
vertex -472.274506 -499.999908 600.000061
vertex -472.274506 -499.999878 800.000061
endloop
endfacet
facet normal 0.000000 -1.000000 0.000000
outer loop
vertex -500.000000 -499.999908 600.000061
vertex -472.274506 -499.999878 800.000061
vertex -500.000000 -499.999878 800.000061
endloop
endfacet
facet normal -1.000000 0.000000 0.000000
outer loop
vertex -500.000000 500.000092 599.999939
vertex -500.000000 -499.999908 600.000061
vertex -500.000000 -499.999878 800.000061
endloop
endfacet
facet normal -1.000000 0.000000 0.000000
outer loop
vertex -500.000000 500.000092 599.999939
vertex -500.000000 -499.999878 800.000061
vertex -500.000000 500.000122 799.999939
endloop
endfacet
facet normal 1.000000 0.000000 0.000000
outer loop
vertex 500.000000 -499.999908 600.000061
vertex 500.000000 500.000092 599.999939
vertex 500.000000 500.000122 799.999939
endloop
endfacet
facet normal 1.000000 0.000000 0.000000
outer loop
vertex 500.000000 -499.999908 600.000061
vertex 500.000000 500.000122 799.999939
vertex 500.000000 -499.999878 800.000061
endloop
endfacet
facet normal 1.000000 0.000000 0.000000
outer loop
vertex 511.058868 -772.686707 600.000122
vertex 511.058868 -499.999908 600.000061
vertex 511.058868 -499.999878 800.000061
endloop
endfacet
facet normal 1.000000 0.000000 0.000000
outer loop
vertex 511.058868 -772.686707 600.000122
vertex 511.058868 -499.999878 800.000061
vertex 511.058868 -772.686707 800.000122
endloop
endfacet
facet normal -1.000000 0.000000 0.000000
outer loop
vertex -472.274506 -499.999908 600.000061
vertex -472.274506 -772.686707 600.000122
vertex -472.274506 -772.686707 800.000122
endloop
endfacet
facet normal -1.000000 0.000000 0.000000
outer loop
vertex -472.274506 -499.999908 600.000061
vertex -472.274506 -772.686707 800.000122
vertex -472.274506 -499.999878 800.000061
endloop
endfacet
facet normal 0.000000 1.000000 -0.000000
outer loop
vertex 500.000000 500.000092 599.999939
vertex -500.000000 500.000092 599.999939
vertex -500.000000 500.000122 799.999939
endloop
endfacet
facet normal 0.000000 1.000000 0.000000
outer loop
vertex 500.000000 500.000092 599.999939
vertex -500.000000 500.000122 799.999939
vertex 500.000000 500.000122 799.999939
endloop
endfacet
facet normal 0.000000 1.000000 -0.000000
outer loop
vertex 511.058868 -499.999908 600.000061
vertex 500.000000 -499.999908 600.000061
vertex 500.000000 -499.999878 800.000061
endloop
endfacet
facet normal 0.000000 1.000000 0.000000
outer loop
vertex 511.058868 -499.999908 600.000061
vertex 500.000000 -499.999878 800.000061
vertex 511.058868 -499.999878 800.000061
endloop
endfacet
facet normal 0.000000 -1.000000 0.000000
outer loop
vertex -472.274506 -772.686707 600.000122
vertex 511.058868 -772.686707 600.000122
vertex 511.058868 -772.686707 800.000122
endloop
endfacet
facet normal 0.000000 -1.000000 0.000000
outer loop
vertex -472.274506 -772.686707 600.000122
vertex 511.058868 -772.686707 800.000122
vertex -472.274506 -772.686707 800.000122
endloop
endfacet
facet normal 0.000000 1.000000 0.000000
outer loop
vertex 500.000000 500.000122 799.999939
vertex -500.000000 500.000122 799.999939
vertex -500.000000 500.000153 999.999939
endloop
endfacet
facet normal 0.000000 1.000000 -0.000000
outer loop
vertex 500.000000 500.000122 799.999939
vertex -500.000000 500.000153 999.999939
vertex 500.000000 500.000153 999.999939
endloop
endfacet
facet normal 0.000000 1.000000 0.000000
outer loop
vertex 511.058868 -499.999878 800.000061
vertex 500.000000 -499.999878 800.000061
vertex 500.000000 -499.999847 1000.000061
endloop
endfacet
facet normal 0.000000 1.000000 0.000000
outer loop
vertex 511.058868 -499.999878 800.000061
vertex 500.000000 -499.999847 1000.000061
vertex 511.058868 -499.999847 1000.000061
endloop
endfacet
facet normal 0.000000 -1.000000 0.000001
outer loop
vertex -472.274506 -772.686707 800.000122
vertex 511.058868 -772.686707 800.000122
vertex 511.058868 -772.686646 1000.000122
endloop
endfacet
facet normal 0.000000 -1.000000 0.000000
outer loop
vertex -472.274506 -772.686707 800.000122
vertex 511.058868 -772.686646 1000.000122
vertex -472.274506 -772.686646 1000.000122
endloop
endfacet
facet normal 0.000000 -1.000000 0.000000
outer loop
vertex -500.000000 -499.999878 800.000061
vertex -472.274506 -499.999878 800.000061
vertex -472.274506 -499.999847 1000.000061
endloop
endfacet
facet normal 0.000000 -1.000000 0.000000
outer loop
vertex -500.000000 -499.999878 800.000061
vertex -472.274506 -499.999847 1000.000061
vertex -500.000000 -499.999847 1000.000061
endloop
endfacet
facet normal -1.000000 0.000000 0.000000
outer loop
vertex -500.000000 500.000122 799.999939
vertex -500.000000 -499.999878 800.000061
vertex -500.000000 -499.999847 1000.000061
endloop
endfacet
facet normal -1.000000 0.000000 0.000000
outer loop
vertex -500.000000 500.000122 799.999939
vertex -500.000000 -499.999847 1000.000061
vertex -500.000000 500.000153 999.999939
endloop
endfacet
facet normal 1.000000 0.000000 0.000000
outer loop
vertex 500.000000 -499.999878 800.000061
vertex 500.000000 500.000122 799.999939
vertex 500.000000 500.000153 999.999939
endloop
endfacet
facet normal 1.000000 0.000000 0.000000
outer loop
vertex 500.000000 -499.999878 800.000061
vertex 500.000000 500.000153 999.999939
vertex 500.000000 -499.999847 1000.000061
endloop
endfacet
facet normal 1.000000 0.000000 0.000000
outer loop
vertex 511.058868 -772.686707 800.000122
vertex 511.058868 -499.999878 800.000061
vertex 511.058868 -499.999847 1000.000061
endloop
endfacet
facet normal 1.000000 0.000000 0.000000
outer loop
vertex 511.058868 -772.686707 800.000122
vertex 511.058868 -499.999847 1000.000061
vertex 511.058868 -772.686646 1000.000122
endloop
endfacet
facet normal -1.000000 0.000000 0.000000
outer loop
vertex -472.274506 -499.999878 800.000061
vertex -472.274506 -772.686707 800.000122
vertex -472.274506 -772.686646 1000.000122
endloop
endfacet
facet normal -1.000000 0.000000 0.000000
outer loop
vertex -472.274506 -499.999878 800.000061
vertex -472.274506 -772.686646 1000.000122
vertex -472.274506 -499.999847 1000.000061
endloop
endfacet
facet normal -1.000000 0.000000 0.000000
outer loop
vertex -472.274506 -499.999847 1000.000061
vertex -472.274506 -772.686646 1000.000122
vertex -472.274506 -772.686646 1200.000122
endloop
endfacet
facet normal -1.000000 0.000000 0.000000
outer loop
vertex -472.274506 -499.999847 1000.000061
vertex -472.274506 -772.686646 1200.000122
vertex -472.274506 -499.999817 1200.000122
endloop
endfacet
facet normal 0.000000 1.000000 -0.000000
outer loop
vertex 500.000000 500.000153 999.999939
vertex -500.000000 500.000153 999.999939
vertex -500.000000 500.000183 1199.999878
endloop
endfacet
facet normal 0.000000 1.000000 0.000000
outer loop
vertex 500.000000 500.000153 999.999939
vertex -500.000000 500.000183 1199.999878
vertex 500.000000 500.000183 1199.999878
endloop
endfacet
facet normal 0.000000 1.000000 -0.000000
outer loop
vertex 511.058868 -499.999847 1000.000061
vertex 500.000000 -499.999847 1000.000061
vertex 500.000000 -499.999817 1200.000122
endloop
endfacet
facet normal 0.000000 1.000000 0.000000
outer loop
vertex 511.058868 -499.999847 1000.000061
vertex 500.000000 -499.999817 1200.000122
vertex 511.058868 -499.999817 1200.000122
endloop
endfacet
facet normal 0.000000 -1.000000 0.000000
outer loop
vertex -472.274506 -772.686646 1000.000122
vertex 511.058868 -772.686646 1000.000122
vertex 511.058868 -772.686646 1200.000122
endloop
endfacet
facet normal 0.000000 -1.000000 0.000000
outer loop
vertex -472.274506 -772.686646 1000.000122
vertex 511.058868 -772.686646 1200.000122
vertex -472.274506 -772.686646 1200.000122
endloop
endfacet
facet normal 0.000000 -1.000000 0.000000
outer loop
vertex -500.000000 -499.999847 1000.000061
vertex -472.274506 -499.999847 1000.000061
vertex -472.274506 -499.999817 1200.000122
endloop
endfacet
facet normal 0.000000 -1.000000 0.000000
outer loop
vertex -500.000000 -499.999847 1000.000061
vertex -472.274506 -499.999817 1200.000122
vertex -500.000000 -499.999817 1200.000122
endloop
endfacet
facet normal -1.000000 0.000000 0.000000
outer loop
vertex -500.000000 500.000153 999.999939
vertex -500.000000 -499.999847 1000.000061
vertex -500.000000 -499.999817 1200.000122
endloop
endfacet
facet normal -1.000000 0.000000 0.000000
outer loop
vertex -500.000000 500.000153 999.999939
vertex -500.000000 -499.999817 1200.000122
vertex -500.000000 500.000183 1199.999878
endloop
endfacet
facet normal 1.000000 0.000000 0.000000
outer loop
vertex 500.000000 -499.999847 1000.000061
vertex 500.000000 500.000153 999.999939
vertex 500.000000 500.000183 1199.999878
endloop
endfacet
facet normal 1.000000 0.000000 0.000000
outer loop
vertex 500.000000 -499.999847 1000.000061
vertex 500.000000 500.000183 1199.999878
vertex 500.000000 -499.999817 1200.000122
endloop
endfacet
facet normal 1.000000 0.000000 0.000000
outer loop
vertex 511.058868 -772.686646 1000.000122
vertex 511.058868 -499.999847 1000.000061
vertex 511.058868 -499.999817 1200.000122
endloop
endfacet
facet normal 1.000000 0.000000 0.000000
outer loop
vertex 511.058868 -772.686646 1000.000122
vertex 511.058868 -499.999817 1200.000122
vertex 511.058868 -772.686646 1200.000122
endloop
endfacet
facet normal -1.000000 0.000000 0.000000
outer loop
vertex -500.000000 500.000183 1199.999878
vertex -500.000000 -499.999817 1200.000122
vertex -500.000000 -499.999786 1400.000122
endloop
endfacet
facet normal -1.000000 0.000000 0.000000
outer loop
vertex -500.000000 500.000183 1199.999878
vertex -500.000000 -499.999786 1400.000122
vertex -500.000000 500.000214 1399.999878
endloop
endfacet
facet normal 1.000000 0.000000 0.000000
outer loop
vertex 500.000000 -499.999817 1200.000122
vertex 500.000000 500.000183 1199.999878
vertex 500.000000 500.000214 1399.999878
endloop
endfacet
facet normal 1.000000 0.000000 0.000000
outer loop
vertex 500.000000 -499.999817 1200.000122
vertex 500.000000 500.000214 1399.999878
vertex 500.000000 -499.999786 1400.000122
endloop
endfacet
facet normal 1.000000 0.000000 0.000000
outer loop
vertex 511.058868 -772.686646 1200.000122
vertex 511.058868 -499.999817 1200.000122
vertex 511.058868 -499.999786 1400.000122
endloop
endfacet
facet normal 1.000000 0.000000 0.000000
outer loop
vertex 511.058868 -772.686646 1200.000122
vertex 511.058868 -499.999786 1400.000122
vertex 511.058868 -772.686584 1400.000122
endloop
endfacet
facet normal -1.000000 0.000000 0.000000
outer loop
vertex -472.274506 -499.999817 1200.000122
vertex -472.274506 -772.686646 1200.000122
vertex -472.274506 -772.686584 1400.000122
endloop
endfacet
facet normal -1.000000 0.000000 0.000000
outer loop
vertex -472.274506 -499.999817 1200.000122
vertex -472.274506 -772.686584 1400.000122
vertex -472.274506 -499.999786 1400.000122
endloop
endfacet
facet normal 0.000000 1.000000 0.000000
outer loop
vertex 500.000000 500.000183 1199.999878
vertex -500.000000 500.000183 1199.999878
vertex -500.000000 500.000214 1399.999878
endloop
endfacet
facet normal 0.000000 1.000000 -0.000000
outer loop
vertex 500.000000 500.000183 1199.999878
vertex -500.000000 500.000214 1399.999878
vertex 500.000000 500.000214 1399.999878
endloop
endfacet
facet normal 0.000000 1.000000 0.000000
outer loop
vertex 511.058868 -499.999817 1200.000122
vertex 500.000000 -499.999817 1200.000122
vertex 500.000000 -499.999786 1400.000122
endloop
endfacet
facet normal 0.000000 1.000000 -0.000000
outer loop
vertex 511.058868 -499.999817 1200.000122
vertex 500.000000 -499.999786 1400.000122
vertex 511.058868 -499.999786 1400.000122
endloop
endfacet
facet normal 0.000000 -1.000000 0.000000
outer loop
vertex -472.274506 -772.686646 1200.000122
vertex 511.058868 -772.686646 1200.000122
vertex 511.058868 -772.686584 1400.000122
endloop
endfacet
facet normal 0.000000 -1.000000 0.000001
outer loop
vertex -472.274506 -772.686646 1200.000122
vertex 511.058868 -772.686584 1400.000122
vertex -472.274506 -772.686584 1400.000122
endloop
endfacet
facet normal 0.000000 -1.000000 0.000000
outer loop
vertex -500.000000 -499.999817 1200.000122
vertex -472.274506 -499.999817 1200.000122
vertex -472.274506 -499.999786 1400.000122
endloop
endfacet
facet normal 0.000000 -1.000000 0.000000
outer loop
vertex -500.000000 -499.999817 1200.000122
vertex -472.274506 -499.999786 1400.000122
vertex -500.000000 -499.999786 1400.000122
endloop
endfacet
facet normal 0.000000 -1.000000 0.000000
outer loop
vertex -472.274506 -772.686584 1400.000122
vertex 511.058868 -772.686584 1400.000122
vertex 511.058868 -772.686584 1600.000122
endloop
endfacet
facet normal 0.000000 -1.000000 0.000000
outer loop
vertex -472.274506 -772.686584 1400.000122
vertex 511.058868 -772.686584 1600.000122
vertex -472.274506 -772.686584 1600.000122
endloop
endfacet
facet normal 0.000000 -1.000000 0.000000
outer loop
vertex -500.000000 -499.999786 1400.000122
vertex -472.274506 -499.999786 1400.000122
vertex -472.274506 -499.999725 1600.000122
endloop
endfacet
facet normal 0.000000 -1.000000 0.000000
outer loop
vertex -500.000000 -499.999786 1400.000122
vertex -472.274506 -499.999725 1600.000122
vertex -500.000000 -499.999725 1600.000122
endloop
endfacet
facet normal -1.000000 0.000000 0.000000
outer loop
vertex -500.000000 500.000214 1399.999878
vertex -500.000000 -499.999786 1400.000122
vertex -500.000000 -499.999725 1600.000122
endloop
endfacet
facet normal -1.000000 0.000000 0.000000
outer loop
vertex -500.000000 500.000214 1399.999878
vertex -500.000000 -499.999725 1600.000122
vertex -500.000000 500.000275 1599.999878
endloop
endfacet
facet normal 1.000000 0.000000 0.000000
outer loop
vertex 500.000000 -499.999786 1400.000122
vertex 500.000000 500.000214 1399.999878
vertex 500.000000 500.000275 1599.999878
endloop
endfacet
facet normal 1.000000 0.000000 0.000000
outer loop
vertex 500.000000 -499.999786 1400.000122
vertex 500.000000 500.000275 1599.999878
vertex 500.000000 -499.999725 1600.000122
endloop
endfacet
facet normal 1.000000 0.000000 0.000000
outer loop
vertex 511.058868 -772.686584 1400.000122
vertex 511.058868 -499.999786 1400.000122
vertex 511.058868 -499.999725 1600.000122
endloop
endfacet
facet normal 1.000000 0.000000 0.000000
outer loop
vertex 511.058868 -772.686584 1400.000122
vertex 511.058868 -499.999725 1600.000122
vertex 511.058868 -772.686584 1600.000122
endloop
endfacet
facet normal -1.000000 0.000000 0.000000
outer loop
vertex -472.274506 -499.999786 1400.000122
vertex -472.274506 -772.686584 1400.000122
vertex -472.274506 -772.686584 1600.000122
endloop
endfacet
facet normal -1.000000 0.000000 0.000000
outer loop
vertex -472.274506 -499.999786 1400.000122
vertex -472.274506 -772.686584 1600.000122
vertex -472.274506 -499.999725 1600.000122
endloop
endfacet
facet normal 0.000000 1.000000 -0.000000
outer loop
vertex 500.000000 500.000214 1399.999878
vertex -500.000000 500.000214 1399.999878
vertex -500.000000 500.000275 1599.999878
endloop
endfacet
facet normal 0.000000 1.000000 -0.000000
outer loop
vertex 500.000000 500.000214 1399.999878
vertex -500.000000 500.000275 1599.999878
vertex 500.000000 500.000275 1599.999878
endloop
endfacet
facet normal 0.000000 1.000000 0.000000
outer loop
vertex 511.058868 -499.999786 1400.000122
vertex 500.000000 -499.999786 1400.000122
vertex 500.000000 -499.999725 1600.000122
endloop
endfacet
facet normal 0.000000 1.000000 -0.000000
outer loop
vertex 511.058868 -499.999786 1400.000122
vertex 500.000000 -499.999725 1600.000122
vertex 511.058868 -499.999725 1600.000122
endloop
endfacet
facet normal 0.000000 1.000000 -0.000000
outer loop
vertex 500.000000 500.000275 1599.999878
vertex -500.000000 500.000275 1599.999878
vertex -500.000000 500.000305 1799.999878
endloop
endfacet
facet normal 0.000000 1.000000 0.000000
outer loop
vertex 500.000000 500.000275 1599.999878
vertex -500.000000 500.000305 1799.999878
vertex 500.000000 500.000305 1799.999878
endloop
endfacet
facet normal 0.000000 1.000000 -0.000000
outer loop
vertex 511.058868 -499.999725 1600.000122
vertex 500.000000 -499.999725 1600.000122
vertex 500.000000 -499.999695 1800.000122
endloop
endfacet
facet normal 0.000000 1.000000 0.000000
outer loop
vertex 511.058868 -499.999725 1600.000122
vertex 500.000000 -499.999695 1800.000122
vertex 511.058868 -499.999695 1800.000122
endloop
endfacet
facet normal 0.000000 -1.000000 0.000001
outer loop
vertex -472.274506 -772.686584 1600.000122
vertex 511.058868 -772.686584 1600.000122
vertex 511.058868 -772.686523 1800.000122
endloop
endfacet
facet normal 0.000000 -1.000000 0.000000
outer loop
vertex -472.274506 -772.686584 1600.000122
vertex 511.058868 -772.686523 1800.000122
vertex -472.274506 -772.686523 1800.000122
endloop
endfacet
facet normal 0.000000 -1.000000 0.000000
outer loop
vertex -500.000000 -499.999725 1600.000122
vertex -472.274506 -499.999725 1600.000122
vertex -472.274506 -499.999695 1800.000122
endloop
endfacet
facet normal 0.000000 -1.000000 0.000000
outer loop
vertex -500.000000 -499.999725 1600.000122
vertex -472.274506 -499.999695 1800.000122
vertex -500.000000 -499.999695 1800.000122
endloop
endfacet
facet normal -1.000000 0.000000 0.000000
outer loop
vertex -500.000000 500.000275 1599.999878
vertex -500.000000 -499.999725 1600.000122
vertex -500.000000 -499.999695 1800.000122
endloop
endfacet
facet normal -1.000000 0.000000 0.000000
outer loop
vertex -500.000000 500.000275 1599.999878
vertex -500.000000 -499.999695 1800.000122
vertex -500.000000 500.000305 1799.999878
endloop
endfacet
facet normal 1.000000 0.000000 0.000000
outer loop
vertex 500.000000 -499.999725 1600.000122
vertex 500.000000 500.000275 1599.999878
vertex 500.000000 500.000305 1799.999878
endloop
endfacet
facet normal 1.000000 0.000000 0.000000
outer loop
vertex 500.000000 -499.999725 1600.000122
vertex 500.000000 500.000305 1799.999878
vertex 500.000000 -499.999695 1800.000122
endloop
endfacet
facet normal 1.000000 0.000000 0.000000
outer loop
vertex 511.058868 -772.686584 1600.000122
vertex 511.058868 -499.999725 1600.000122
vertex 511.058868 -499.999695 1800.000122
endloop
endfacet
facet normal 1.000000 0.000000 0.000000
outer loop
vertex 511.058868 -772.686584 1600.000122
vertex 511.058868 -499.999695 1800.000122
vertex 511.058868 -772.686523 1800.000122
endloop
endfacet
facet normal -1.000000 0.000000 0.000000
outer loop
vertex -472.274506 -499.999725 1600.000122
vertex -472.274506 -772.686584 1600.000122
vertex -472.274506 -772.686523 1800.000122
endloop
endfacet
facet normal -1.000000 0.000000 0.000000
outer loop
vertex -472.274506 -499.999725 1600.000122
vertex -472.274506 -772.686523 1800.000122
vertex -472.274506 -499.999695 1800.000122
endloop
endfacet
facet normal 1.000000 0.000000 0.000000
outer loop
vertex 511.058868 -772.686523 1800.000122
vertex 511.058868 -499.999695 1800.000122
vertex 511.058868 -499.999664 2000.000122
endloop
endfacet
facet normal 1.000000 0.000000 0.000000
outer loop
vertex 511.058868 -772.686523 1800.000122
vertex 511.058868 -499.999664 2000.000122
vertex 511.058868 -772.686523 2000.000122
endloop
endfacet
facet normal -1.000000 0.000000 0.000000
outer loop
vertex -472.274506 -499.999695 1800.000122
vertex -472.274506 -772.686523 1800.000122
vertex -472.274506 -772.686523 2000.000122
endloop
endfacet
facet normal -1.000000 0.000000 0.000000
outer loop
vertex -472.274506 -499.999695 1800.000122
vertex -472.274506 -772.686523 2000.000122
vertex -472.274506 -499.999664 2000.000122
endloop
endfacet
facet normal 0.000000 1.000000 0.000000
outer loop
vertex 500.000000 500.000305 1799.999878
vertex -500.000000 500.000305 1799.999878
vertex -500.000000 500.000336 1999.999878
endloop
endfacet
facet normal 0.000000 1.000000 -0.000000
outer loop
vertex 500.000000 500.000305 1799.999878
vertex -500.000000 500.000336 1999.999878
vertex 500.000000 500.000336 1999.999878
endloop
endfacet
facet normal 0.000000 1.000000 0.000000
outer loop
vertex 511.058868 -499.999695 1800.000122
vertex 500.000000 -499.999695 1800.000122
vertex 500.000000 -499.999664 2000.000122
endloop
endfacet
facet normal 0.000000 1.000000 0.000000
outer loop
vertex 511.058868 -499.999695 1800.000122
vertex 500.000000 -499.999664 2000.000122
vertex 511.058868 -499.999664 2000.000122
endloop
endfacet
facet normal 0.000000 -1.000000 0.000000
outer loop
vertex -472.274506 -772.686523 1800.000122
vertex 511.058868 -772.686523 1800.000122
vertex 511.058868 -772.686523 2000.000122
endloop
endfacet
facet normal 0.000000 -1.000000 0.000000
outer loop
vertex -472.274506 -772.686523 1800.000122
vertex 511.058868 -772.686523 2000.000122
vertex -472.274506 -772.686523 2000.000122
endloop
endfacet
facet normal 0.000000 -1.000000 0.000000
outer loop
vertex -500.000000 -499.999695 1800.000122
vertex -472.274506 -499.999695 1800.000122
vertex -472.274506 -499.999664 2000.000122
endloop
endfacet
facet normal 0.000000 -1.000000 0.000000
outer loop
vertex -500.000000 -499.999695 1800.000122
vertex -472.274506 -499.999664 2000.000122
vertex -500.000000 -499.999664 2000.000122
endloop
endfacet
facet normal -1.000000 0.000000 0.000000
outer loop
vertex -500.000000 500.000305 1799.999878
vertex -500.000000 -499.999695 1800.000122
vertex -500.000000 -499.999664 2000.000122
endloop
endfacet
facet normal -1.000000 0.000000 0.000000
outer loop
vertex -500.000000 500.000305 1799.999878
vertex -500.000000 -499.999664 2000.000122
vertex -500.000000 500.000336 1999.999878
endloop
endfacet
facet normal 1.000000 0.000000 0.000000
outer loop
vertex 500.000000 -499.999695 1800.000122
vertex 500.000000 500.000305 1799.999878
vertex 500.000000 500.000336 1999.999878
endloop
endfacet
facet normal 1.000000 0.000000 0.000000
outer loop
vertex 500.000000 -499.999695 1800.000122
vertex 500.000000 500.000336 1999.999878
vertex 500.000000 -499.999664 2000.000122
endloop
endfacet
facet normal -1.000000 0.000000 0.000000
outer loop
vertex -500.000000 500.000336 1999.999878
vertex -500.000000 -499.999664 2000.000122
vertex -500.000000 -499.999634 2200.000000
endloop
endfacet
facet normal -1.000000 0.000000 0.000000
outer loop
vertex -500.000000 500.000336 1999.999878
vertex -500.000000 -499.999634 2200.000000
vertex -500.000000 500.000366 2200.000000
endloop
endfacet
facet normal 1.000000 0.000000 0.000000
outer loop
vertex 500.000000 -499.999664 2000.000122
vertex 500.000000 500.000336 1999.999878
vertex 500.000000 500.000366 2200.000000
endloop
endfacet
facet normal 1.000000 0.000000 0.000000
outer loop
vertex 500.000000 -499.999664 2000.000122
vertex 500.000000 500.000366 2200.000000
vertex 500.000000 -499.999634 2200.000000
endloop
endfacet
facet normal 1.000000 0.000000 0.000000
outer loop
vertex 511.058868 -772.686523 2000.000122
vertex 511.058868 -499.999664 2000.000122
vertex 511.058868 -499.999634 2200.000000
endloop
endfacet
facet normal 1.000000 0.000000 0.000000
outer loop
vertex 511.058868 -772.686523 2000.000122
vertex 511.058868 -499.999634 2200.000000
vertex 511.058868 -772.686462 2200.000244
endloop
endfacet
facet normal -1.000000 0.000000 0.000000
outer loop
vertex -472.274506 -499.999664 2000.000122
vertex -472.274506 -772.686523 2000.000122
vertex -472.274506 -772.686462 2200.000244
endloop
endfacet
facet normal -1.000000 0.000000 0.000000
outer loop
vertex -472.274506 -499.999664 2000.000122
vertex -472.274506 -772.686462 2200.000244
vertex -472.274506 -499.999634 2200.000000
endloop
endfacet
facet normal 0.000000 1.000000 -0.000000
outer loop
vertex 500.000000 500.000336 1999.999878
vertex -500.000000 500.000336 1999.999878
vertex -500.000000 500.000366 2200.000000
endloop
endfacet
facet normal 0.000000 1.000000 0.000000
outer loop
vertex 500.000000 500.000336 1999.999878
vertex -500.000000 500.000366 2200.000000
vertex 500.000000 500.000366 2200.000000
endloop
endfacet
facet normal 0.000000 1.000000 -0.000000
outer loop
vertex 511.058868 -499.999664 2000.000122
vertex 500.000000 -499.999664 2000.000122
vertex 500.000000 -499.999634 2200.000000
endloop
endfacet
facet normal 0.000000 1.000000 0.000000
outer loop
vertex 511.058868 -499.999664 2000.000122
vertex 500.000000 -499.999634 2200.000000
vertex 511.058868 -499.999634 2200.000000
endloop
endfacet
facet normal 0.000000 -1.000000 0.000000
outer loop
vertex -472.274506 -772.686523 2000.000122
vertex 511.058868 -772.686523 2000.000122
vertex 511.058868 -772.686462 2200.000244
endloop
endfacet
facet normal 0.000000 -1.000000 0.000001
outer loop
vertex -472.274506 -772.686523 2000.000122
vertex 511.058868 -772.686462 2200.000244
vertex -472.274506 -772.686462 2200.000244
endloop
endfacet
facet normal 0.000000 -1.000000 0.000000
outer loop
vertex -500.000000 -499.999664 2000.000122
vertex -472.274506 -499.999664 2000.000122
vertex -472.274506 -499.999634 2200.000000
endloop
endfacet
facet normal 0.000000 -1.000000 0.000000
outer loop
vertex -500.000000 -499.999664 2000.000122
vertex -472.274506 -499.999634 2200.000000
vertex -500.000000 -499.999634 2200.000000
endloop
endfacet
facet normal 0.000000 1.000000 0.000000
outer loop
vertex 511.058868 -499.999634 2200.000000
vertex 500.000000 -499.999634 2200.000000
vertex 500.000000 -499.999603 2400.000000
endloop
endfacet
facet normal 0.000000 1.000000 -0.000000
outer loop
vertex 511.058868 -499.999634 2200.000000
vertex 500.000000 -499.999603 2400.000000
vertex 511.058868 -499.999603 2400.000000
endloop
endfacet
facet normal 0.000000 -1.000000 0.000000
outer loop
vertex -472.274506 -772.686462 2200.000244
vertex 511.058868 -772.686462 2200.000244
vertex 511.058868 -772.686462 2400.000244
endloop
endfacet
facet normal 0.000000 -1.000000 0.000000
outer loop
vertex -472.274506 -772.686462 2200.000244
vertex 511.058868 -772.686462 2400.000244
vertex -472.274506 -772.686462 2400.000244
endloop
endfacet
facet normal 0.000000 -1.000000 0.000000
outer loop
vertex -500.000000 -499.999634 2200.000000
vertex -472.274506 -499.999634 2200.000000
vertex -472.274506 -499.999603 2400.000000
endloop
endfacet
facet normal 0.000000 -1.000000 0.000000
outer loop
vertex -500.000000 -499.999634 2200.000000
vertex -472.274506 -499.999603 2400.000000
vertex -500.000000 -499.999603 2400.000000
endloop
endfacet
facet normal -1.000000 0.000000 0.000000
outer loop
vertex -500.000000 500.000366 2200.000000
vertex -500.000000 -499.999634 2200.000000
vertex -500.000000 -499.999603 2400.000000
endloop
endfacet
facet normal -1.000000 0.000000 0.000000
outer loop
vertex -500.000000 500.000366 2200.000000
vertex -500.000000 -499.999603 2400.000000
vertex -500.000000 500.000397 2400.000000
endloop
endfacet
facet normal 1.000000 0.000000 0.000000
outer loop
vertex 500.000000 -499.999634 2200.000000
vertex 500.000000 500.000366 2200.000000
vertex 500.000000 500.000397 2400.000000
endloop
endfacet
facet normal 1.000000 0.000000 0.000000
outer loop
vertex 500.000000 -499.999634 2200.000000
vertex 500.000000 500.000397 2400.000000
vertex 500.000000 -499.999603 2400.000000
endloop
endfacet
facet normal 1.000000 0.000000 0.000000
outer loop
vertex 511.058868 -772.686462 2200.000244
vertex 511.058868 -499.999634 2200.000000
vertex 511.058868 -499.999603 2400.000000
endloop
endfacet
facet normal 1.000000 0.000000 0.000000
outer loop
vertex 511.058868 -772.686462 2200.000244
vertex 511.058868 -499.999603 2400.000000
vertex 511.058868 -772.686462 2400.000244
endloop
endfacet
facet normal -1.000000 0.000000 0.000000
outer loop
vertex -472.274506 -499.999634 2200.000000
vertex -472.274506 -772.686462 2200.000244
vertex -472.274506 -772.686462 2400.000244
endloop
endfacet
facet normal -1.000000 0.000000 0.000000
outer loop
vertex -472.274506 -499.999634 2200.000000
vertex -472.274506 -772.686462 2400.000244
vertex -472.274506 -499.999603 2400.000000
endloop
endfacet
facet normal 0.000000 1.000000 0.000000
outer loop
vertex 500.000000 500.000366 2200.000000
vertex -500.000000 500.000366 2200.000000
vertex -500.000000 500.000397 2400.000000
endloop
endfacet
facet normal 0.000000 1.000000 -0.000000
outer loop
vertex 500.000000 500.000366 2200.000000
vertex -500.000000 500.000397 2400.000000
vertex 500.000000 500.000397 2400.000000
endloop
endfacet
endsolid building_016
