solid building_001
facet normal 0.000000 0.000000 1.000000
outer loop
vertex -750.000000 -749.999390 3600.000244
vertex 750.000000 -749.999390 3600.000244
vertex 750.000000 750.000610 3599.999756
endloop
endfacet
facet normal 0.000000 0.000000 1.000000
outer loop
vertex -750.000000 -749.999390 3600.000244
vertex 750.000000 750.000610 3599.999756
vertex -750.000000 750.000610 3599.999756
endloop
endfacet
facet normal 0.000000 1.000000 0.000000
outer loop
vertex 750.000000 750.000000 -0.000122
vertex -750.000000 750.000000 -0.000122
vertex -750.000000 750.000061 299.999878
endloop
endfacet
facet normal 0.000000 1.000000 -0.000001
outer loop
vertex 750.000000 750.000000 -0.000122
vertex -750.000000 750.000061 299.999878
vertex 750.000000 750.000061 299.999878
endloop
endfacet
facet normal 0.000000 -1.000000 0.000000
outer loop
vertex -750.000000 -750.000000 0.000122
vertex 750.000000 -750.000000 0.000122
vertex 750.000000 -749.999939 300.000122
endloop
endfacet
facet normal 0.000000 -1.000000 0.000001
outer loop
vertex -750.000000 -750.000000 0.000122
vertex 750.000000 -749.999939 300.000122
vertex -750.000000 -749.999939 300.000122
endloop
endfacet
facet normal 1.000000 0.000000 0.000000
outer loop
vertex 750.000000 -750.000000 0.000122
vertex 750.000000 750.000000 -0.000122
vertex 750.000000 750.000061 299.999878
endloop
endfacet
facet normal 1.000000 0.000000 0.000000
outer loop
vertex 750.000000 -750.000000 0.000122
vertex 750.000000 750.000061 299.999878
vertex 750.000000 -749.999939 300.000122
endloop
endfacet
facet normal -1.000000 0.000000 0.000000
outer loop
vertex -750.000000 750.000000 -0.000122
vertex -750.000000 -750.000000 0.000122
vertex -750.000000 -749.999939 300.000122
endloop
endfacet
facet normal -1.000000 0.000000 0.000000
outer loop
vertex -750.000000 750.000000 -0.000122
vertex -750.000000 -749.999939 300.000122
vertex -750.000000 750.000061 299.999878
endloop
endfacet
facet normal -1.000000 0.000000 0.000000
outer loop
vertex -750.000000 750.000061 299.999878
vertex -750.000000 -749.999939 300.000122
vertex -750.000000 -749.999878 600.000122
endloop
endfacet
facet normal -1.000000 0.000000 0.000000
outer loop
vertex -750.000000 750.000061 299.999878
vertex -750.000000 -749.999878 600.000122
vertex -750.000000 750.000122 599.999878
endloop
endfacet
facet normal 1.000000 0.000000 0.000000
outer loop
vertex 750.000000 -749.999939 300.000122
vertex 750.000000 750.000061 299.999878
vertex 750.000000 750.000122 599.999878
endloop
endfacet
facet normal 1.000000 0.000000 0.000000
outer loop
vertex 750.000000 -749.999939 300.000122
vertex 750.000000 750.000122 599.999878
vertex 750.000000 -749.999878 600.000122
endloop
endfacet
facet normal 0.000000 1.000000 0.000000
outer loop
vertex 750.000000 750.000061 299.999878
vertex -750.000000 750.000061 299.999878
vertex -750.000000 750.000122 599.999878
endloop
endfacet
facet normal 0.000000 1.000000 0.000000
outer loop
vertex 750.000000 750.000061 299.999878
vertex -750.000000 750.000122 599.999878
vertex 750.000000 750.000122 599.999878
endloop
endfacet
facet normal 0.000000 -1.000000 0.000000
outer loop
vertex -750.000000 -749.999939 300.000122
vertex 750.000000 -749.999939 300.000122
vertex 750.000000 -749.999878 600.000122
endloop
endfacet
facet normal 0.000000 -1.000000 0.000000
outer loop
vertex -750.000000 -749.999939 300.000122
vertex 750.000000 -749.999878 600.000122
vertex -750.000000 -749.999878 600.000122
endloop
endfacet
facet normal 0.000000 1.000000 0.000000
outer loop
vertex 750.000000 750.000122 599.999878
vertex -750.000000 750.000122 599.999878
vertex -750.000000 750.000122 899.999878
endloop
endfacet
facet normal 0.000000 1.000000 0.000000
outer loop
vertex 750.000000 750.000122 599.999878
vertex -750.000000 750.000122 899.999878
vertex 750.000000 750.000122 899.999878
endloop
endfacet
facet normal 0.000000 -1.000000 0.000000
outer loop
vertex -750.000000 -749.999878 600.000122
vertex 750.000000 -749.999878 600.000122
vertex 750.000000 -749.999878 900.000122
endloop
endfacet
facet normal 0.000000 -1.000000 0.000000
outer loop
vertex -750.000000 -749.999878 600.000122
vertex 750.000000 -749.999878 900.000122
vertex -750.000000 -749.999878 900.000122
endloop
endfacet
facet normal -1.000000 0.000000 0.000000
outer loop
vertex -750.000000 750.000122 599.999878
vertex -750.000000 -749.999878 600.000122
vertex -750.000000 -749.999878 900.000122
endloop
endfacet
facet normal -1.000000 0.000000 0.000000
outer loop
vertex -750.000000 750.000122 599.999878
vertex -750.000000 -749.999878 900.000122
vertex -750.000000 750.000122 899.999878
endloop
endfacet
facet normal 1.000000 0.000000 0.000000
outer loop
vertex 750.000000 -749.999878 600.000122
vertex 750.000000 750.000122 599.999878
vertex 750.000000 750.000122 899.999878
endloop
endfacet
facet normal 1.000000 0.000000 0.000000
outer loop
vertex 750.000000 -749.999878 600.000122
vertex 750.000000 750.000122 899.999878
vertex 750.000000 -749.999878 900.000122
endloop
endfacet
facet normal -1.000000 0.000000 0.000000
outer loop
vertex -750.000000 750.000122 899.999878
vertex -750.000000 -749.999878 900.000122
vertex -750.000000 -749.999817 1200.000122
endloop
endfacet
facet normal -1.000000 0.000000 0.000000
outer loop
vertex -750.000000 750.000122 899.999878
vertex -750.000000 -749.999817 1200.000122
vertex -750.000000 750.000183 1199.999878
endloop
endfacet
facet normal 1.000000 0.000000 0.000000
outer loop
vertex 750.000000 -749.999878 900.000122
vertex 750.000000 750.000122 899.999878
vertex 750.000000 750.000183 1199.999878
endloop
endfacet
facet normal 1.000000 0.000000 0.000000
outer loop
vertex 750.000000 -749.999878 900.000122
vertex 750.000000 750.000183 1199.999878
vertex 750.000000 -749.999817 1200.000122
endloop
endfacet
facet normal 0.000000 1.000000 0.000000
outer loop
vertex 750.000000 750.000122 899.999878
vertex -750.000000 750.000122 899.999878
vertex -750.000000 750.000183 1199.999878
endloop
endfacet
facet normal 0.000000 1.000000 -0.000001
outer loop
vertex 750.000000 750.000122 899.999878
vertex -750.000000 750.000183 1199.999878
vertex 750.000000 750.000183 1199.999878
endloop
endfacet
facet normal 0.000000 -1.000000 0.000000
outer loop
vertex -750.000000 -749.999878 900.000122
vertex 750.000000 -749.999878 900.000122
vertex 750.000000 -749.999817 1200.000122
endloop
endfacet
facet normal 0.000000 -1.000000 0.000001
outer loop
vertex -750.000000 -749.999878 900.000122
vertex 750.000000 -749.999817 1200.000122
vertex -750.000000 -749.999817 1200.000122
endloop
endfacet
facet normal 1.000000 0.000000 0.000000
outer loop
vertex 750.000000 -749.999817 1200.000122
vertex 750.000000 750.000183 1199.999878
vertex 750.000000 750.000244 1499.999878
endloop
endfacet
facet normal 1.000000 0.000000 0.000000
outer loop
vertex 750.000000 -749.999817 1200.000122
vertex 750.000000 750.000244 1499.999878
vertex 750.000000 -749.999756 1500.000122
endloop
endfacet
facet normal 0.000000 1.000000 -0.000001
outer loop
vertex 750.000000 750.000183 1199.999878
vertex -750.000000 750.000183 1199.999878
vertex -750.000000 750.000244 1499.999878
endloop
endfacet
facet normal 0.000000 1.000000 0.000000
outer loop
vertex 750.000000 750.000183 1199.999878
vertex -750.000000 750.000244 1499.999878
vertex 750.000000 750.000244 1499.999878
endloop
endfacet
facet normal 0.000000 -1.000000 0.000001
outer loop
vertex -750.000000 -749.999817 1200.000122
vertex 750.000000 -749.999817 1200.000122
vertex 750.000000 -749.999756 1500.000122
endloop
endfacet
facet normal 0.000000 -1.000000 0.000000
outer loop
vertex -750.000000 -749.999817 1200.000122
vertex 750.000000 -749.999756 1500.000122
vertex -750.000000 -749.999756 1500.000122
endloop
endfacet
facet normal -1.000000 0.000000 0.000000
outer loop
vertex -750.000000 750.000183 1199.999878
vertex -750.000000 -749.999817 1200.000122
vertex -750.000000 -749.999756 1500.000122
endloop
endfacet
facet normal -1.000000 0.000000 0.000000
outer loop
vertex -750.000000 750.000183 1199.999878
vertex -750.000000 -749.999756 1500.000122
vertex -750.000000 750.000244 1499.999878
endloop
endfacet
facet normal 0.000000 1.000000 0.000000
outer loop
vertex 750.000000 750.000244 1499.999878
vertex -750.000000 750.000244 1499.999878
vertex -750.000000 750.000305 1799.999878
endloop
endfacet
facet normal 0.000000 1.000000 -0.000001
outer loop
vertex 750.000000 750.000244 1499.999878
vertex -750.000000 750.000305 1799.999878
vertex 750.000000 750.000305 1799.999878
endloop
endfacet
facet normal 0.000000 -1.000000 0.000000
outer loop
vertex -750.000000 -749.999756 1500.000122
vertex 750.000000 -749.999756 1500.000122
vertex 750.000000 -749.999695 1800.000122
endloop
endfacet
facet normal 0.000000 -1.000000 0.000001
outer loop
vertex -750.000000 -749.999756 1500.000122
vertex 750.000000 -749.999695 1800.000122
vertex -750.000000 -749.999695 1800.000122
endloop
endfacet
facet normal -1.000000 0.000000 0.000000
outer loop
vertex -750.000000 750.000244 1499.999878
vertex -750.000000 -749.999756 1500.000122
vertex -750.000000 -749.999695 1800.000122
endloop
endfacet
facet normal -1.000000 0.000000 0.000000
outer loop
vertex -750.000000 750.000244 1499.999878
vertex -750.000000 -749.999695 1800.000122
vertex -750.000000 750.000305 1799.999878
endloop
endfacet
facet normal 1.000000 0.000000 0.000000
outer loop
vertex 750.000000 -749.999756 1500.000122
vertex 750.000000 750.000244 1499.999878
vertex 750.000000 750.000305 1799.999878
endloop
endfacet
facet normal 1.000000 0.000000 0.000000
outer loop
vertex 750.000000 -749.999756 1500.000122
vertex 750.000000 750.000305 1799.999878
vertex 750.000000 -749.999695 1800.000122
endloop
endfacet
facet normal -1.000000 0.000000 0.000000
outer loop
vertex -750.000000 750.000305 1799.999878
vertex -750.000000 -749.999695 1800.000122
vertex -750.000000 -749.999634 2100.000244
endloop
endfacet
facet normal -1.000000 0.000000 0.000000
outer loop
vertex -750.000000 750.000305 1799.999878
vertex -750.000000 -749.999634 2100.000244
vertex -750.000000 750.000366 2099.999756
endloop
endfacet
facet normal 1.000000 0.000000 0.000000
outer loop
vertex 750.000000 -749.999695 1800.000122
vertex 750.000000 750.000305 1799.999878
vertex 750.000000 750.000366 2099.999756
endloop
endfacet
facet normal 1.000000 0.000000 0.000000
outer loop
vertex 750.000000 -749.999695 1800.000122
vertex 750.000000 750.000366 2099.999756
vertex 750.000000 -749.999634 2100.000244
endloop
endfacet
facet normal 0.000000 1.000000 0.000000
outer loop
vertex 750.000000 750.000305 1799.999878
vertex -750.000000 750.000305 1799.999878
vertex -750.000000 750.000366 2099.999756
endloop
endfacet
facet normal 0.000000 1.000000 0.000000
outer loop
vertex 750.000000 750.000305 1799.999878
vertex -750.000000 750.000366 2099.999756
vertex 750.000000 750.000366 2099.999756
endloop
endfacet
facet normal 0.000000 -1.000000 0.000000
outer loop
vertex -750.000000 -749.999695 1800.000122
vertex 750.000000 -749.999695 1800.000122
vertex 750.000000 -749.999634 2100.000244
endloop
endfacet
facet normal 0.000000 -1.000000 0.000000
outer loop
vertex -750.000000 -749.999695 1800.000122
vertex 750.000000 -749.999634 2100.000244
vertex -750.000000 -749.999634 2100.000244
endloop
endfacet
facet normal 0.000000 1.000000 0.000000
outer loop
vertex 750.000000 750.000366 2099.999756
vertex -750.000000 750.000366 2099.999756
vertex -750.000000 750.000366 2399.999756
endloop
endfacet
facet normal 0.000000 1.000000 0.000000
outer loop
vertex 750.000000 750.000366 2099.999756
vertex -750.000000 750.000366 2399.999756
vertex 750.000000 750.000366 2399.999756
endloop
endfacet
facet normal 0.000000 -1.000000 0.000000
outer loop
vertex -750.000000 -749.999634 2100.000244
vertex 750.000000 -749.999634 2100.000244
vertex 750.000000 -749.999634 2400.000244
endloop
endfacet
facet normal 0.000000 -1.000000 0.000000
outer loop
vertex -750.000000 -749.999634 2100.000244
vertex 750.000000 -749.999634 2400.000244
vertex -750.000000 -749.999634 2400.000244
endloop
endfacet
facet normal -1.000000 0.000000 0.000000
outer loop
vertex -750.000000 750.000366 2099.999756
vertex -750.000000 -749.999634 2100.000244
vertex -750.000000 -749.999634 2400.000244
endloop
endfacet
facet normal -1.000000 -0.000000 0.000000
outer loop
vertex -750.000000 750.000366 2099.999756
vertex -750.000000 -749.999634 2400.000244
vertex -750.000000 750.000366 2399.999756
endloop
endfacet
facet normal 1.000000 0.000000 0.000000
outer loop
vertex 750.000000 -749.999634 2100.000244
vertex 750.000000 750.000366 2099.999756
vertex 750.000000 750.000366 2399.999756
endloop
endfacet
facet normal 1.000000 -0.000000 0.000000
outer loop
vertex 750.000000 -749.999634 2100.000244
vertex 750.000000 750.000366 2399.999756
vertex 750.000000 -749.999634 2400.000244
endloop
endfacet
facet normal 0.000000 1.000000 0.000000
outer loop
vertex 750.000000 750.000366 2399.999756
vertex -750.000000 750.000366 2399.999756
vertex -750.000000 750.000427 2699.999756
endloop
endfacet
facet normal 0.000000 1.000000 -0.000001
outer loop
vertex 750.000000 750.000366 2399.999756
vertex -750.000000 750.000427 2699.999756
vertex 750.000000 750.000427 2699.999756
endloop
endfacet
facet normal 0.000000 -1.000000 0.000000
outer loop
vertex -750.000000 -749.999634 2400.000244
vertex 750.000000 -749.999634 2400.000244
vertex 750.000000 -749.999573 2700.000244
endloop
endfacet
facet normal 0.000000 -1.000000 0.000001
outer loop
vertex -750.000000 -749.999634 2400.000244
vertex 750.000000 -749.999573 2700.000244
vertex -750.000000 -749.999573 2700.000244
endloop
endfacet
facet normal -1.000000 0.000000 0.000000
outer loop
vertex -750.000000 750.000366 2399.999756
vertex -750.000000 -749.999634 2400.000244
vertex -750.000000 -749.999573 2700.000244
endloop
endfacet
facet normal -1.000000 -0.000000 0.000000
outer loop
vertex -750.000000 750.000366 2399.999756
vertex -750.000000 -749.999573 2700.000244
vertex -750.000000 750.000427 2699.999756
endloop
endfacet
facet normal 1.000000 0.000000 0.000000
outer loop
vertex 750.000000 -749.999634 2400.000244
vertex 750.000000 750.000366 2399.999756
vertex 750.000000 750.000427 2699.999756
endloop
endfacet
facet normal 1.000000 -0.000000 0.000000
outer loop
vertex 750.000000 -749.999634 2400.000244
vertex 750.000000 750.000427 2699.999756
vertex 750.000000 -749.999573 2700.000244
endloop
endfacet
facet normal -1.000000 0.000000 0.000000
outer loop
vertex -750.000000 750.000427 2699.999756
vertex -750.000000 -749.999573 2700.000244
vertex -750.000000 -749.999512 3000.000244
endloop
endfacet
facet normal -1.000000 -0.000000 0.000000
outer loop
vertex -750.000000 750.000427 2699.999756
vertex -750.000000 -749.999512 3000.000244
vertex -750.000000 750.000488 2999.999756
endloop
endfacet
facet normal 1.000000 0.000000 0.000000
outer loop
vertex 750.000000 -749.999573 2700.000244
vertex 750.000000 750.000427 2699.999756
vertex 750.000000 750.000488 2999.999756
endloop
endfacet
facet normal 1.000000 -0.000000 0.000000
outer loop
vertex 750.000000 -749.999573 2700.000244
vertex 750.000000 750.000488 2999.999756
vertex 750.000000 -749.999512 3000.000244
endloop
endfacet
facet normal 0.000000 1.000000 -0.000001
outer loop
vertex 750.000000 750.000427 2699.999756
vertex -750.000000 750.000427 2699.999756
vertex -750.000000 750.000488 2999.999756
endloop
endfacet
facet normal 0.000000 1.000000 0.000000
outer loop
vertex 750.000000 750.000427 2699.999756
vertex -750.000000 750.000488 2999.999756
vertex 750.000000 750.000488 2999.999756
endloop
endfacet
facet normal 0.000000 -1.000000 0.000001
outer loop
vertex -750.000000 -749.999573 2700.000244
vertex 750.000000 -749.999573 2700.000244
vertex 750.000000 -749.999512 3000.000244
endloop
endfacet
facet normal 0.000000 -1.000000 0.000000
outer loop
vertex -750.000000 -749.999573 2700.000244
vertex 750.000000 -749.999512 3000.000244
vertex -750.000000 -749.999512 3000.000244
endloop
endfacet
facet normal 0.000000 1.000000 0.000000
outer loop
vertex 750.000000 750.000488 2999.999756
vertex -750.000000 750.000488 2999.999756
vertex -750.000000 750.000549 3299.999756
endloop
endfacet
facet normal 0.000000 1.000000 -0.000001
outer loop
vertex 750.000000 750.000488 2999.999756
vertex -750.000000 750.000549 3299.999756
vertex 750.000000 750.000549 3299.999756
endloop
endfacet
facet normal 0.000000 -1.000000 0.000000
outer loop
vertex -750.000000 -749.999512 3000.000244
vertex 750.000000 -749.999512 3000.000244
vertex 750.000000 -749.999451 3300.000244
endloop
endfacet
facet normal 0.000000 -1.000000 0.000001
outer loop
vertex -750.000000 -749.999512 3000.000244
vertex 750.000000 -749.999451 3300.000244
vertex -750.000000 -749.999451 3300.000244
endloop
endfacet
facet normal -1.000000 0.000000 0.000000
outer loop
vertex -750.000000 750.000488 2999.999756
vertex -750.000000 -749.999512 3000.000244
vertex -750.000000 -749.999451 3300.000244
endloop
endfacet
facet normal -1.000000 -0.000000 0.000000
outer loop
vertex -750.000000 750.000488 2999.999756
vertex -750.000000 -749.999451 3300.000244
vertex -750.000000 750.000549 3299.999756
endloop
endfacet
facet normal 1.000000 0.000000 0.000000
outer loop
vertex 750.000000 -749.999512 3000.000244
vertex 750.000000 750.000488 2999.999756
vertex 750.000000 750.000549 3299.999756
endloop
endfacet
facet normal 1.000000 -0.000000 0.000000
outer loop
vertex 750.000000 -749.999512 3000.000244
vertex 750.000000 750.000549 3299.999756
vertex 750.000000 -749.999451 3300.000244
endloop
endfacet
facet normal 0.000000 -1.000000 0.000000
outer loop
vertex -750.000000 -749.999451 3300.000244
vertex 750.000000 -749.999451 3300.000244
vertex 750.000000 -749.999390 3600.000244
endloop
endfacet
facet normal 0.000000 -1.000000 0.000000
outer loop
vertex -750.000000 -749.999451 3300.000244
vertex 750.000000 -749.999390 3600.000244
vertex -750.000000 -749.999390 3600.000244
endloop
endfacet
facet normal -1.000000 0.000000 0.000000
outer loop
vertex -750.000000 750.000549 3299.999756
vertex -750.000000 -749.999451 3300.000244
vertex -750.000000 -749.999390 3600.000244
endloop
endfacet
facet normal -1.000000 -0.000000 0.000000
outer loop
vertex -750.000000 750.000549 3299.999756
vertex -750.000000 -749.999390 3600.000244
vertex -750.000000 750.000610 3599.999756
endloop
endfacet
facet normal 1.000000 0.000000 0.000000
outer loop
vertex 750.000000 -749.999451 3300.000244
vertex 750.000000 750.000549 3299.999756
vertex 750.000000 750.000610 3599.999756
endloop
endfacet
facet normal 1.000000 -0.000000 0.000000
outer loop
vertex 750.000000 -749.999451 3300.000244
vertex 750.000000 750.000610 3599.999756
vertex 750.000000 -749.999390 3600.000244
endloop
endfacet
facet normal 0.000000 1.000000 0.000000
outer loop
vertex 750.000000 750.000549 3299.999756
vertex -750.000000 750.000549 3299.999756
vertex -750.000000 750.000610 3599.999756
endloop
endfacet
facet normal 0.000000 1.000000 0.000000
outer loop
vertex 750.000000 750.000549 3299.999756
vertex -750.000000 750.000610 3599.999756
vertex 750.000000 750.000610 3599.999756
endloop
endfacet
endsolid building_001
