solid building_004.001
facet normal 0.000000 -1.000000 -0.000000
outer loop
vertex -424.999969 -550.000000 -0.000069
vertex 425.000031 -550.000000 0.000069
vertex 424.999969 -550.000000 360.000031
endloop
endfacet
facet normal 0.000000 -1.000000 0.000000
outer loop
vertex -424.999969 -550.000000 -0.000069
vertex 424.999969 -550.000000 360.000031
vertex -425.000031 -550.000000 359.999908
endloop
endfacet
facet normal 0.000000 1.000000 -0.000000
outer loop
vertex 777.024048 419.949097 0.000127
vertex 424.999969 419.949097 0.000069
vertex 424.999908 419.949097 360.000031
endloop
endfacet
facet normal 0.000000 1.000000 0.000000
outer loop
vertex 777.024048 419.949097 0.000127
vertex 424.999908 419.949097 360.000031
vertex 777.023987 419.949097 360.000092
endloop
endfacet
facet normal 0.000000 0.000000 1.000000
outer loop
vertex -425.000671 -550.000000 4319.999512
vertex 424.999329 -550.000000 4319.999512
vertex 424.999329 -419.949036 4319.999512
endloop
endfacet
facet normal 0.000000 0.000000 1.000000
outer loop
vertex 424.999329 -419.949036 4319.999512
vertex 777.023315 -419.949036 4319.999512
vertex 777.023315 419.949097 4319.999512
endloop
endfacet
facet normal 0.000000 0.000000 1.000000
outer loop
vertex 424.999268 419.949097 4319.999512
vertex 424.999268 550.000000 4319.999512
vertex -425.000732 550.000000 4319.999512
endloop
endfacet
facet normal 0.000000 0.000000 1.000000
outer loop
vertex 424.999329 -419.949036 4319.999512
vertex 777.023315 419.949097 4319.999512
vertex 424.999268 419.949097 4319.999512
endloop
endfacet
facet normal 0.000000 0.000000 1.000000
outer loop
vertex -425.000671 -441.800232 4319.999512
vertex -425.000671 -550.000000 4319.999512
vertex 424.999329 -419.949036 4319.999512
endloop
endfacet
facet normal 0.000000 0.000000 1.000000
outer loop
vertex -917.267212 441.800140 4319.999512
vertex -917.267212 -441.800232 4319.999512
vertex -425.000671 -441.800232 4319.999512
endloop
endfacet
facet normal 0.000001 0.000000 1.000000
outer loop
vertex 424.999268 419.949097 4319.999512
vertex -425.000732 550.000000 4319.999512
vertex -425.000732 441.800140 4319.999512
endloop
endfacet
facet normal 0.000000 0.000000 1.000000
outer loop
vertex -425.000732 441.800140 4319.999512
vertex -917.267212 441.800140 4319.999512
vertex -425.000671 -441.800232 4319.999512
endloop
endfacet
facet normal 0.000000 0.000000 1.000000
outer loop
vertex -425.000671 -441.800232 4319.999512
vertex 424.999329 -419.949036 4319.999512
vertex 424.999268 419.949097 4319.999512
endloop
endfacet
facet normal -0.000001 0.000000 1.000000
outer loop
vertex 424.999268 419.949097 4319.999512
vertex -425.000732 441.800140 4319.999512
vertex -425.000671 -441.800232 4319.999512
endloop
endfacet
facet normal 1.000000 0.000000 0.000000
outer loop
vertex 425.000031 -550.000000 0.000069
vertex 425.000031 -419.949036 0.000069
vertex 424.999969 -419.949036 360.000031
endloop
endfacet
facet normal 1.000000 0.000000 0.000000
outer loop
vertex 425.000031 -550.000000 0.000069
vertex 424.999969 -419.949036 360.000031
vertex 424.999969 -550.000000 360.000031
endloop
endfacet
facet normal -1.000000 0.000000 -0.000000
outer loop
vertex -917.266479 441.800140 -0.000149
vertex -917.266479 -441.800232 -0.000149
vertex -917.266541 -441.800232 359.999817
endloop
endfacet
facet normal -1.000000 0.000000 -0.000000
outer loop
vertex -917.266479 441.800140 -0.000149
vertex -917.266541 -441.800232 359.999817
vertex -917.266541 441.800140 359.999817
endloop
endfacet
facet normal 1.000000 0.000000 0.000000
outer loop
vertex 424.999969 419.949097 0.000069
vertex 424.999969 550.000000 0.000069
vertex 424.999908 550.000000 360.000031
endloop
endfacet
facet normal 1.000000 0.000000 0.000000
outer loop
vertex 424.999969 419.949097 0.000069
vertex 424.999908 550.000000 360.000031
vertex 424.999908 419.949097 360.000031
endloop
endfacet
facet normal 0.000000 -1.000000 -0.000000
outer loop
vertex 425.000031 -419.949036 0.000069
vertex 777.024048 -419.949036 0.000127
vertex 777.023987 -419.949036 360.000092
endloop
endfacet
facet normal 0.000000 -1.000000 0.000000
outer loop
vertex 425.000031 -419.949036 0.000069
vertex 777.023987 -419.949036 360.000092
vertex 424.999969 -419.949036 360.000031
endloop
endfacet
facet normal 0.000000 -1.000000 -0.000000
outer loop
vertex -917.266479 -441.800232 -0.000149
vertex -424.999969 -441.800232 -0.000069
vertex -425.000031 -441.800232 359.999908
endloop
endfacet
facet normal 0.000000 -1.000000 0.000000
outer loop
vertex -917.266479 -441.800232 -0.000149
vertex -425.000031 -441.800232 359.999908
vertex -917.266541 -441.800232 359.999817
endloop
endfacet
facet normal 0.000000 1.000000 0.000000
outer loop
vertex 424.999969 550.000000 0.000069
vertex -425.000031 550.000000 -0.000069
vertex -425.000092 550.000000 359.999908
endloop
endfacet
facet normal 0.000000 1.000000 0.000000
outer loop
vertex 424.999969 550.000000 0.000069
vertex -425.000092 550.000000 359.999908
vertex 424.999908 550.000000 360.000031
endloop
endfacet
facet normal -1.000000 0.000000 -0.000000
outer loop
vertex -425.000031 550.000000 -0.000069
vertex -425.000031 441.800140 -0.000069
vertex -425.000092 441.800140 359.999908
endloop
endfacet
facet normal -1.000000 0.000000 -0.000000
outer loop
vertex -425.000031 550.000000 -0.000069
vertex -425.000092 441.800140 359.999908
vertex -425.000092 550.000000 359.999908
endloop
endfacet
facet normal 1.000000 0.000000 0.000000
outer loop
vertex 777.024048 -419.949036 0.000127
vertex 777.024048 419.949097 0.000127
vertex 777.023987 419.949097 360.000092
endloop
endfacet
facet normal 1.000000 0.000000 0.000000
outer loop
vertex 777.024048 -419.949036 0.000127
vertex 777.023987 419.949097 360.000092
vertex 777.023987 -419.949036 360.000092
endloop
endfacet
facet normal 0.000000 1.000000 0.000000
outer loop
vertex -425.000031 441.800140 -0.000069
vertex -917.266479 441.800140 -0.000149
vertex -917.266541 441.800140 359.999817
endloop
endfacet
facet normal 0.000000 1.000000 -0.000000
outer loop
vertex -425.000031 441.800140 -0.000069
vertex -917.266541 441.800140 359.999817
vertex -425.000092 441.800140 359.999908
endloop
endfacet
facet normal -1.000000 0.000000 -0.000000
outer loop
vertex -424.999969 -441.800232 -0.000069
vertex -424.999969 -550.000000 -0.000069
vertex -425.000031 -550.000000 359.999908
endloop
endfacet
facet normal -1.000000 0.000000 -0.000000
outer loop
vertex -424.999969 -441.800232 -0.000069
vertex -425.000031 -550.000000 359.999908
vertex -425.000031 -441.800232 359.999908
endloop
endfacet
facet normal 1.000000 0.000000 0.000000
outer loop
vertex 424.999969 -550.000000 360.000031
vertex 424.999969 -419.949036 360.000031
vertex 424.999908 -419.949036 720.000000
endloop
endfacet
facet normal 1.000000 0.000000 0.000000
outer loop
vertex 424.999969 -550.000000 360.000031
vertex 424.999908 -419.949036 720.000000
vertex 424.999908 -550.000000 720.000000
endloop
endfacet
facet normal 0.000000 1.000000 0.000000
outer loop
vertex 424.999908 550.000000 360.000031
vertex -425.000092 550.000000 359.999908
vertex -425.000153 550.000000 719.999878
endloop
endfacet
facet normal 0.000000 1.000000 0.000000
outer loop
vertex 424.999908 550.000000 360.000031
vertex -425.000153 550.000000 719.999878
vertex 424.999847 550.000000 720.000000
endloop
endfacet
facet normal 1.000000 0.000000 0.000000
outer loop
vertex 777.023987 -419.949036 360.000092
vertex 777.023987 419.949097 360.000092
vertex 777.023926 419.949097 720.000061
endloop
endfacet
facet normal 1.000000 0.000000 0.000000
outer loop
vertex 777.023987 -419.949036 360.000092
vertex 777.023926 419.949097 720.000061
vertex 777.023926 -419.949036 720.000061
endloop
endfacet
facet normal 0.000000 -1.000000 -0.000000
outer loop
vertex -917.266541 -441.800232 359.999817
vertex -425.000031 -441.800232 359.999908
vertex -425.000092 -441.800232 719.999878
endloop
endfacet
facet normal 0.000000 -1.000000 0.000000
outer loop
vertex -917.266541 -441.800232 359.999817
vertex -425.000092 -441.800232 719.999878
vertex -917.266602 -441.800232 719.999817
endloop
endfacet
facet normal -1.000000 0.000000 -0.000000
outer loop
vertex -425.000092 550.000000 359.999908
vertex -425.000092 441.800140 359.999908
vertex -425.000153 441.800140 719.999878
endloop
endfacet
facet normal -1.000000 0.000000 -0.000000
outer loop
vertex -425.000092 550.000000 359.999908
vertex -425.000153 441.800140 719.999878
vertex -425.000153 550.000000 719.999878
endloop
endfacet
facet normal 0.000000 1.000000 -0.000000
outer loop
vertex 777.023987 419.949097 360.000092
vertex 424.999908 419.949097 360.000031
vertex 424.999847 419.949097 720.000000
endloop
endfacet
facet normal 0.000000 1.000000 0.000000
outer loop
vertex 777.023987 419.949097 360.000092
vertex 424.999847 419.949097 720.000000
vertex 777.023926 419.949097 720.000061
endloop
endfacet
facet normal -1.000000 0.000000 -0.000000
outer loop
vertex -425.000031 -441.800232 359.999908
vertex -425.000031 -550.000000 359.999908
vertex -425.000092 -550.000000 719.999878
endloop
endfacet
facet normal -1.000000 0.000000 -0.000000
outer loop
vertex -425.000031 -441.800232 359.999908
vertex -425.000092 -550.000000 719.999878
vertex -425.000092 -441.800232 719.999878
endloop
endfacet
facet normal 0.000000 -1.000000 -0.000000
outer loop
vertex 424.999969 -419.949036 360.000031
vertex 777.023987 -419.949036 360.000092
vertex 777.023926 -419.949036 720.000061
endloop
endfacet
facet normal 0.000000 -1.000000 0.000000
outer loop
vertex 424.999969 -419.949036 360.000031
vertex 777.023926 -419.949036 720.000061
vertex 424.999908 -419.949036 720.000000
endloop
endfacet
facet normal 0.000000 1.000000 0.000000
outer loop
vertex -425.000092 441.800140 359.999908
vertex -917.266541 441.800140 359.999817
vertex -917.266602 441.800140 719.999817
endloop
endfacet
facet normal 0.000000 1.000000 -0.000000
outer loop
vertex -425.000092 441.800140 359.999908
vertex -917.266602 441.800140 719.999817
vertex -425.000153 441.800140 719.999878
endloop
endfacet
facet normal 1.000000 0.000000 0.000000
outer loop
vertex 424.999908 419.949097 360.000031
vertex 424.999908 550.000000 360.000031
vertex 424.999847 550.000000 720.000000
endloop
endfacet
facet normal 1.000000 0.000000 0.000000
outer loop
vertex 424.999908 419.949097 360.000031
vertex 424.999847 550.000000 720.000000
vertex 424.999847 419.949097 720.000000
endloop
endfacet
facet normal 0.000000 -1.000000 -0.000000
outer loop
vertex -425.000031 -550.000000 359.999908
vertex 424.999969 -550.000000 360.000031
vertex 424.999908 -550.000000 720.000000
endloop
endfacet
facet normal 0.000000 -1.000000 0.000000
outer loop
vertex -425.000031 -550.000000 359.999908
vertex 424.999908 -550.000000 720.000000
vertex -425.000092 -550.000000 719.999878
endloop
endfacet
facet normal -1.000000 0.000000 -0.000000
outer loop
vertex -917.266541 441.800140 359.999817
vertex -917.266541 -441.800232 359.999817
vertex -917.266602 -441.800232 719.999817
endloop
endfacet
facet normal -1.000000 0.000000 -0.000000
outer loop
vertex -917.266541 441.800140 359.999817
vertex -917.266602 -441.800232 719.999817
vertex -917.266602 441.800140 719.999817
endloop
endfacet
facet normal -1.000000 0.000000 -0.000000
outer loop
vertex -917.266602 441.800140 719.999817
vertex -917.266602 -441.800232 719.999817
vertex -917.266663 -441.800232 1079.999756
endloop
endfacet
facet normal -1.000000 0.000000 -0.000000
outer loop
vertex -917.266602 441.800140 719.999817
vertex -917.266663 -441.800232 1079.999756
vertex -917.266663 441.800140 1079.999756
endloop
endfacet
facet normal 0.000000 1.000000 0.000000
outer loop
vertex 424.999847 550.000000 720.000000
vertex -425.000153 550.000000 719.999878
vertex -425.000214 550.000000 1079.999756
endloop
endfacet
facet normal 0.000000 1.000000 0.000000
outer loop
vertex 424.999847 550.000000 720.000000
vertex -425.000214 550.000000 1079.999756
vertex 424.999786 550.000000 1080.000000
endloop
endfacet
facet normal 1.000000 0.000000 0.000000
outer loop
vertex 777.023926 -419.949036 720.000061
vertex 777.023926 419.949097 720.000061
vertex 777.023865 419.949097 1080.000000
endloop
endfacet
facet normal 1.000000 0.000000 0.000000
outer loop
vertex 777.023926 -419.949036 720.000061
vertex 777.023865 419.949097 1080.000000
vertex 777.023865 -419.949036 1080.000000
endloop
endfacet
facet normal 0.000000 -1.000000 -0.000000
outer loop
vertex -917.266602 -441.800232 719.999817
vertex -425.000092 -441.800232 719.999878
vertex -425.000153 -441.800232 1079.999756
endloop
endfacet
facet normal 0.000000 -1.000000 0.000000
outer loop
vertex -917.266602 -441.800232 719.999817
vertex -425.000153 -441.800232 1079.999756
vertex -917.266663 -441.800232 1079.999756
endloop
endfacet
facet normal -1.000000 0.000000 -0.000000
outer loop
vertex -425.000153 550.000000 719.999878
vertex -425.000153 441.800140 719.999878
vertex -425.000214 441.800140 1079.999756
endloop
endfacet
facet normal -1.000000 0.000000 -0.000000
outer loop
vertex -425.000153 550.000000 719.999878
vertex -425.000214 441.800140 1079.999756
vertex -425.000214 550.000000 1079.999756
endloop
endfacet
facet normal 0.000000 1.000000 -0.000000
outer loop
vertex 777.023926 419.949097 720.000061
vertex 424.999847 419.949097 720.000000
vertex 424.999786 419.949097 1080.000000
endloop
endfacet
facet normal 0.000000 1.000000 0.000000
outer loop
vertex 777.023926 419.949097 720.000061
vertex 424.999786 419.949097 1080.000000
vertex 777.023865 419.949097 1080.000000
endloop
endfacet
facet normal -1.000000 0.000000 -0.000000
outer loop
vertex -425.000092 -441.800232 719.999878
vertex -425.000092 -550.000000 719.999878
vertex -425.000153 -550.000000 1079.999756
endloop
endfacet
facet normal -1.000000 0.000000 -0.000000
outer loop
vertex -425.000092 -441.800232 719.999878
vertex -425.000153 -550.000000 1079.999756
vertex -425.000153 -441.800232 1079.999756
endloop
endfacet
facet normal 1.000000 0.000000 0.000000
outer loop
vertex 424.999908 -550.000000 720.000000
vertex 424.999908 -419.949036 720.000000
vertex 424.999847 -419.949036 1080.000000
endloop
endfacet
facet normal 1.000000 0.000000 0.000000
outer loop
vertex 424.999908 -550.000000 720.000000
vertex 424.999847 -419.949036 1080.000000
vertex 424.999847 -550.000000 1080.000000
endloop
endfacet
facet normal 0.000000 1.000000 0.000000
outer loop
vertex -425.000153 441.800140 719.999878
vertex -917.266602 441.800140 719.999817
vertex -917.266663 441.800140 1079.999756
endloop
endfacet
facet normal 0.000000 1.000000 -0.000000
outer loop
vertex -425.000153 441.800140 719.999878
vertex -917.266663 441.800140 1079.999756
vertex -425.000214 441.800140 1079.999756
endloop
endfacet
facet normal 1.000000 0.000000 0.000000
outer loop
vertex 424.999847 419.949097 720.000000
vertex 424.999847 550.000000 720.000000
vertex 424.999786 550.000000 1080.000000
endloop
endfacet
facet normal 1.000000 0.000000 0.000000
outer loop
vertex 424.999847 419.949097 720.000000
vertex 424.999786 550.000000 1080.000000
vertex 424.999786 419.949097 1080.000000
endloop
endfacet
facet normal 0.000000 -1.000000 -0.000000
outer loop
vertex -425.000092 -550.000000 719.999878
vertex 424.999908 -550.000000 720.000000
vertex 424.999847 -550.000000 1080.000000
endloop
endfacet
facet normal 0.000000 -1.000000 0.000000
outer loop
vertex -425.000092 -550.000000 719.999878
vertex 424.999847 -550.000000 1080.000000
vertex -425.000153 -550.000000 1079.999756
endloop
endfacet
facet normal 0.000000 -1.000000 -0.000000
outer loop
vertex 424.999908 -419.949036 720.000000
vertex 777.023926 -419.949036 720.000061
vertex 777.023865 -419.949036 1080.000000
endloop
endfacet
facet normal 0.000000 -1.000000 0.000000
outer loop
vertex 424.999908 -419.949036 720.000000
vertex 777.023865 -419.949036 1080.000000
vertex 424.999847 -419.949036 1080.000000
endloop
endfacet
facet normal 0.000000 -1.000000 -0.000000
outer loop
vertex 424.999847 -419.949036 1080.000000
vertex 777.023865 -419.949036 1080.000000
vertex 777.023804 -419.949036 1440.000000
endloop
endfacet
facet normal 0.000000 -1.000000 0.000000
outer loop
vertex 424.999847 -419.949036 1080.000000
vertex 777.023804 -419.949036 1440.000000
vertex 424.999786 -419.949036 1440.000000
endloop
endfacet
facet normal -1.000000 0.000000 -0.000000
outer loop
vertex -917.266663 441.800140 1079.999756
vertex -917.266663 -441.800232 1079.999756
vertex -917.266724 -441.800232 1439.999756
endloop
endfacet
facet normal -1.000000 0.000000 -0.000000
outer loop
vertex -917.266663 441.800140 1079.999756
vertex -917.266724 -441.800232 1439.999756
vertex -917.266724 441.800140 1439.999756
endloop
endfacet
facet normal 0.000000 1.000000 0.000000
outer loop
vertex 424.999786 550.000000 1080.000000
vertex -425.000214 550.000000 1079.999756
vertex -425.000275 550.000000 1439.999756
endloop
endfacet
facet normal 0.000000 1.000000 0.000000
outer loop
vertex 424.999786 550.000000 1080.000000
vertex -425.000275 550.000000 1439.999756
vertex 424.999725 550.000000 1440.000000
endloop
endfacet
facet normal 1.000000 0.000000 0.000000
outer loop
vertex 777.023865 -419.949036 1080.000000
vertex 777.023865 419.949097 1080.000000
vertex 777.023804 419.949097 1440.000000
endloop
endfacet
facet normal 1.000000 0.000000 0.000000
outer loop
vertex 777.023865 -419.949036 1080.000000
vertex 777.023804 419.949097 1440.000000
vertex 777.023804 -419.949036 1440.000000
endloop
endfacet
facet normal 0.000000 -1.000000 -0.000000
outer loop
vertex -917.266663 -441.800232 1079.999756
vertex -425.000153 -441.800232 1079.999756
vertex -425.000214 -441.800232 1439.999756
endloop
endfacet
facet normal 0.000000 -1.000000 0.000000
outer loop
vertex -917.266663 -441.800232 1079.999756
vertex -425.000214 -441.800232 1439.999756
vertex -917.266724 -441.800232 1439.999756
endloop
endfacet
facet normal -1.000000 0.000000 -0.000000
outer loop
vertex -425.000214 550.000000 1079.999756
vertex -425.000214 441.800140 1079.999756
vertex -425.000275 441.800140 1439.999756
endloop
endfacet
facet normal -1.000000 0.000000 -0.000000
outer loop
vertex -425.000214 550.000000 1079.999756
vertex -425.000275 441.800140 1439.999756
vertex -425.000275 550.000000 1439.999756
endloop
endfacet
facet normal 0.000000 1.000000 -0.000000
outer loop
vertex 777.023865 419.949097 1080.000000
vertex 424.999786 419.949097 1080.000000
vertex 424.999725 419.949097 1440.000000
endloop
endfacet
facet normal 0.000000 1.000000 0.000000
outer loop
vertex 777.023865 419.949097 1080.000000
vertex 424.999725 419.949097 1440.000000
vertex 777.023804 419.949097 1440.000000
endloop
endfacet
facet normal -1.000000 0.000000 -0.000000
outer loop
vertex -425.000153 -441.800232 1079.999756
vertex -425.000153 -550.000000 1079.999756
vertex -425.000214 -550.000000 1439.999756
endloop
endfacet
facet normal -1.000000 0.000000 -0.000000
outer loop
vertex -425.000153 -441.800232 1079.999756
vertex -425.000214 -550.000000 1439.999756
vertex -425.000214 -441.800232 1439.999756
endloop
endfacet
facet normal 1.000000 0.000000 0.000000
outer loop
vertex 424.999847 -550.000000 1080.000000
vertex 424.999847 -419.949036 1080.000000
vertex 424.999786 -419.949036 1440.000000
endloop
endfacet
facet normal 1.000000 0.000000 0.000000
outer loop
vertex 424.999847 -550.000000 1080.000000
vertex 424.999786 -419.949036 1440.000000
vertex 424.999786 -550.000000 1440.000000
endloop
endfacet
facet normal 0.000000 1.000000 0.000000
outer loop
vertex -425.000214 441.800140 1079.999756
vertex -917.266663 441.800140 1079.999756
vertex -917.266724 441.800140 1439.999756
endloop
endfacet
facet normal 0.000000 1.000000 -0.000000
outer loop
vertex -425.000214 441.800140 1079.999756
vertex -917.266724 441.800140 1439.999756
vertex -425.000275 441.800140 1439.999756
endloop
endfacet
facet normal 1.000000 0.000000 0.000000
outer loop
vertex 424.999786 419.949097 1080.000000
vertex 424.999786 550.000000 1080.000000
vertex 424.999725 550.000000 1440.000000
endloop
endfacet
facet normal 1.000000 0.000000 0.000000
outer loop
vertex 424.999786 419.949097 1080.000000
vertex 424.999725 550.000000 1440.000000
vertex 424.999725 419.949097 1440.000000
endloop
endfacet
facet normal 0.000000 -1.000000 -0.000000
outer loop
vertex -425.000153 -550.000000 1079.999756
vertex 424.999847 -550.000000 1080.000000
vertex 424.999786 -550.000000 1440.000000
endloop
endfacet
facet normal 0.000000 -1.000000 0.000000
outer loop
vertex -425.000153 -550.000000 1079.999756
vertex 424.999786 -550.000000 1440.000000
vertex -425.000214 -550.000000 1439.999756
endloop
endfacet
facet normal 0.000000 -1.000000 -0.000000
outer loop
vertex -425.000214 -550.000000 1439.999756
vertex 424.999786 -550.000000 1440.000000
vertex 424.999725 -550.000000 1800.000000
endloop
endfacet
facet normal 0.000000 -1.000000 0.000000
outer loop
vertex -425.000214 -550.000000 1439.999756
vertex 424.999725 -550.000000 1800.000000
vertex -425.000275 -550.000000 1799.999756
endloop
endfacet
facet normal 0.000000 -1.000000 -0.000000
outer loop
vertex 424.999786 -419.949036 1440.000000
vertex 777.023804 -419.949036 1440.000000
vertex 777.023743 -419.949036 1800.000000
endloop
endfacet
facet normal 0.000000 -1.000000 0.000000
outer loop
vertex 424.999786 -419.949036 1440.000000
vertex 777.023743 -419.949036 1800.000000
vertex 424.999725 -419.949036 1800.000000
endloop
endfacet
facet normal -1.000000 0.000000 -0.000000
outer loop
vertex -917.266724 441.800140 1439.999756
vertex -917.266724 -441.800232 1439.999756
vertex -917.266785 -441.800232 1799.999756
endloop
endfacet
facet normal -1.000000 0.000000 -0.000000
outer loop
vertex -917.266724 441.800140 1439.999756
vertex -917.266785 -441.800232 1799.999756
vertex -917.266785 441.800140 1799.999756
endloop
endfacet
facet normal 0.000000 1.000000 0.000000
outer loop
vertex 424.999725 550.000000 1440.000000
vertex -425.000275 550.000000 1439.999756
vertex -425.000336 550.000000 1799.999756
endloop
endfacet
facet normal 0.000000 1.000000 0.000000
outer loop
vertex 424.999725 550.000000 1440.000000
vertex -425.000336 550.000000 1799.999756
vertex 424.999664 550.000000 1800.000000
endloop
endfacet
facet normal 1.000000 0.000000 0.000000
outer loop
vertex 777.023804 -419.949036 1440.000000
vertex 777.023804 419.949097 1440.000000
vertex 777.023743 419.949097 1800.000000
endloop
endfacet
facet normal 1.000000 0.000000 0.000000
outer loop
vertex 777.023804 -419.949036 1440.000000
vertex 777.023743 419.949097 1800.000000
vertex 777.023743 -419.949036 1800.000000
endloop
endfacet
facet normal 0.000000 -1.000000 -0.000000
outer loop
vertex -917.266724 -441.800232 1439.999756
vertex -425.000214 -441.800232 1439.999756
vertex -425.000275 -441.800232 1799.999756
endloop
endfacet
facet normal 0.000000 -1.000000 0.000000
outer loop
vertex -917.266724 -441.800232 1439.999756
vertex -425.000275 -441.800232 1799.999756
vertex -917.266785 -441.800232 1799.999756
endloop
endfacet
facet normal -1.000000 0.000000 -0.000000
outer loop
vertex -425.000275 550.000000 1439.999756
vertex -425.000275 441.800140 1439.999756
vertex -425.000336 441.800140 1799.999756
endloop
endfacet
facet normal -1.000000 0.000000 -0.000000
outer loop
vertex -425.000275 550.000000 1439.999756
vertex -425.000336 441.800140 1799.999756
vertex -425.000336 550.000000 1799.999756
endloop
endfacet
facet normal 0.000000 1.000000 -0.000000
outer loop
vertex 777.023804 419.949097 1440.000000
vertex 424.999725 419.949097 1440.000000
vertex 424.999664 419.949097 1800.000000
endloop
endfacet
facet normal 0.000000 1.000000 0.000000
outer loop
vertex 777.023804 419.949097 1440.000000
vertex 424.999664 419.949097 1800.000000
vertex 777.023743 419.949097 1800.000000
endloop
endfacet
facet normal -1.000000 0.000000 -0.000000
outer loop
vertex -425.000214 -441.800232 1439.999756
vertex -425.000214 -550.000000 1439.999756
vertex -425.000275 -550.000000 1799.999756
endloop
endfacet
facet normal -1.000000 0.000000 -0.000000
outer loop
vertex -425.000214 -441.800232 1439.999756
vertex -425.000275 -550.000000 1799.999756
vertex -425.000275 -441.800232 1799.999756
endloop
endfacet
facet normal 1.000000 0.000000 0.000000
outer loop
vertex 424.999786 -550.000000 1440.000000
vertex 424.999786 -419.949036 1440.000000
vertex 424.999725 -419.949036 1800.000000
endloop
endfacet
facet normal 1.000000 0.000000 0.000000
outer loop
vertex 424.999786 -550.000000 1440.000000
vertex 424.999725 -419.949036 1800.000000
vertex 424.999725 -550.000000 1800.000000
endloop
endfacet
facet normal 0.000000 1.000000 0.000000
outer loop
vertex -425.000275 441.800140 1439.999756
vertex -917.266724 441.800140 1439.999756
vertex -917.266785 441.800140 1799.999756
endloop
endfacet
facet normal 0.000000 1.000000 -0.000000
outer loop
vertex -425.000275 441.800140 1439.999756
vertex -917.266785 441.800140 1799.999756
vertex -425.000336 441.800140 1799.999756
endloop
endfacet
facet normal 1.000000 0.000000 0.000000
outer loop
vertex 424.999725 419.949097 1440.000000
vertex 424.999725 550.000000 1440.000000
vertex 424.999664 550.000000 1800.000000
endloop
endfacet
facet normal 1.000000 0.000000 0.000000
outer loop
vertex 424.999725 419.949097 1440.000000
vertex 424.999664 550.000000 1800.000000
vertex 424.999664 419.949097 1800.000000
endloop
endfacet
facet normal 1.000000 0.000000 0.000000
outer loop
vertex 424.999664 419.949097 1800.000000
vertex 424.999664 550.000000 1800.000000
vertex 424.999603 550.000000 2159.999756
endloop
endfacet
facet normal 1.000000 0.000000 0.000000
outer loop
vertex 424.999664 419.949097 1800.000000
vertex 424.999603 550.000000 2159.999756
vertex 424.999603 419.949097 2159.999756
endloop
endfacet
facet normal 0.000000 -1.000000 -0.000000
outer loop
vertex -425.000275 -550.000000 1799.999756
vertex 424.999725 -550.000000 1800.000000
vertex 424.999664 -550.000000 2159.999756
endloop
endfacet
facet normal 0.000000 -1.000000 0.000000
outer loop
vertex -425.000275 -550.000000 1799.999756
vertex 424.999664 -550.000000 2159.999756
vertex -425.000336 -550.000000 2159.999756
endloop
endfacet
facet normal 0.000000 -1.000000 -0.000000
outer loop
vertex 424.999725 -419.949036 1800.000000
vertex 777.023743 -419.949036 1800.000000
vertex 777.023682 -419.949036 2160.000000
endloop
endfacet
facet normal 0.000000 -1.000000 0.000000
outer loop
vertex 424.999725 -419.949036 1800.000000
vertex 777.023682 -419.949036 2160.000000
vertex 424.999664 -419.949036 2159.999756
endloop
endfacet
facet normal -1.000000 0.000000 -0.000000
outer loop
vertex -917.266785 441.800140 1799.999756
vertex -917.266785 -441.800232 1799.999756
vertex -917.266846 -441.800232 2159.999512
endloop
endfacet
facet normal -1.000000 0.000000 -0.000000
outer loop
vertex -917.266785 441.800140 1799.999756
vertex -917.266846 -441.800232 2159.999512
vertex -917.266846 441.800140 2159.999512
endloop
endfacet
facet normal 0.000000 1.000000 0.000000
outer loop
vertex 424.999664 550.000000 1800.000000
vertex -425.000336 550.000000 1799.999756
vertex -425.000397 550.000000 2159.999756
endloop
endfacet
facet normal 0.000000 1.000000 0.000000
outer loop
vertex 424.999664 550.000000 1800.000000
vertex -425.000397 550.000000 2159.999756
vertex 424.999603 550.000000 2159.999756
endloop
endfacet
facet normal 1.000000 0.000000 0.000000
outer loop
vertex 777.023743 -419.949036 1800.000000
vertex 777.023743 419.949097 1800.000000
vertex 777.023682 419.949097 2160.000000
endloop
endfacet
facet normal 1.000000 0.000000 0.000000
outer loop
vertex 777.023743 -419.949036 1800.000000
vertex 777.023682 419.949097 2160.000000
vertex 777.023682 -419.949036 2160.000000
endloop
endfacet
facet normal 0.000000 -1.000000 -0.000000
outer loop
vertex -917.266785 -441.800232 1799.999756
vertex -425.000275 -441.800232 1799.999756
vertex -425.000336 -441.800232 2159.999756
endloop
endfacet
facet normal 0.000000 -1.000000 0.000000
outer loop
vertex -917.266785 -441.800232 1799.999756
vertex -425.000336 -441.800232 2159.999756
vertex -917.266846 -441.800232 2159.999512
endloop
endfacet
facet normal -1.000000 0.000000 -0.000000
outer loop
vertex -425.000336 550.000000 1799.999756
vertex -425.000336 441.800140 1799.999756
vertex -425.000397 441.800140 2159.999756
endloop
endfacet
facet normal -1.000000 0.000000 -0.000000
outer loop
vertex -425.000336 550.000000 1799.999756
vertex -425.000397 441.800140 2159.999756
vertex -425.000397 550.000000 2159.999756
endloop
endfacet
facet normal 0.000000 1.000000 -0.000000
outer loop
vertex 777.023743 419.949097 1800.000000
vertex 424.999664 419.949097 1800.000000
vertex 424.999603 419.949097 2159.999756
endloop
endfacet
facet normal 0.000000 1.000000 0.000000
outer loop
vertex 777.023743 419.949097 1800.000000
vertex 424.999603 419.949097 2159.999756
vertex 777.023682 419.949097 2160.000000
endloop
endfacet
facet normal -1.000000 0.000000 -0.000000
outer loop
vertex -425.000275 -441.800232 1799.999756
vertex -425.000275 -550.000000 1799.999756
vertex -425.000336 -550.000000 2159.999756
endloop
endfacet
facet normal -1.000000 0.000000 -0.000000
outer loop
vertex -425.000275 -441.800232 1799.999756
vertex -425.000336 -550.000000 2159.999756
vertex -425.000336 -441.800232 2159.999756
endloop
endfacet
facet normal 1.000000 0.000000 0.000000
outer loop
vertex 424.999725 -550.000000 1800.000000
vertex 424.999725 -419.949036 1800.000000
vertex 424.999664 -419.949036 2159.999756
endloop
endfacet
facet normal 1.000000 0.000000 0.000000
outer loop
vertex 424.999725 -550.000000 1800.000000
vertex 424.999664 -419.949036 2159.999756
vertex 424.999664 -550.000000 2159.999756
endloop
endfacet
facet normal 0.000000 1.000000 0.000000
outer loop
vertex -425.000336 441.800140 1799.999756
vertex -917.266785 441.800140 1799.999756
vertex -917.266846 441.800140 2159.999512
endloop
endfacet
facet normal 0.000000 1.000000 -0.000000
outer loop
vertex -425.000336 441.800140 1799.999756
vertex -917.266846 441.800140 2159.999512
vertex -425.000397 441.800140 2159.999756
endloop
endfacet
facet normal 1.000000 0.000000 0.000000
outer loop
vertex 424.999603 419.949097 2159.999756
vertex 424.999603 550.000000 2159.999756
vertex 424.999573 550.000000 2519.999756
endloop
endfacet
facet normal 1.000000 0.000000 0.000000
outer loop
vertex 424.999603 419.949097 2159.999756
vertex 424.999573 550.000000 2519.999756
vertex 424.999573 419.949097 2519.999756
endloop
endfacet
facet normal 0.000000 -1.000000 -0.000000
outer loop
vertex -425.000336 -550.000000 2159.999756
vertex 424.999664 -550.000000 2159.999756
vertex 424.999634 -550.000000 2519.999756
endloop
endfacet
facet normal 0.000000 -1.000000 0.000000
outer loop
vertex -425.000336 -550.000000 2159.999756
vertex 424.999634 -550.000000 2519.999756
vertex -425.000366 -550.000000 2519.999756
endloop
endfacet
facet normal 0.000000 -1.000000 -0.000000
outer loop
vertex 424.999664 -419.949036 2159.999756
vertex 777.023682 -419.949036 2160.000000
vertex 777.023621 -419.949036 2520.000000
endloop
endfacet
facet normal 0.000000 -1.000000 0.000000
outer loop
vertex 424.999664 -419.949036 2159.999756
vertex 777.023621 -419.949036 2520.000000
vertex 424.999634 -419.949036 2519.999756
endloop
endfacet
facet normal -1.000000 0.000000 -0.000000
outer loop
vertex -917.266846 441.800140 2159.999512
vertex -917.266846 -441.800232 2159.999512
vertex -917.266907 -441.800232 2519.999512
endloop
endfacet
facet normal -1.000000 0.000000 -0.000000
outer loop
vertex -917.266846 441.800140 2159.999512
vertex -917.266907 -441.800232 2519.999512
vertex -917.266907 441.800140 2519.999512
endloop
endfacet
facet normal 0.000000 1.000000 0.000000
outer loop
vertex 424.999603 550.000000 2159.999756
vertex -425.000397 550.000000 2159.999756
vertex -425.000427 550.000000 2519.999756
endloop
endfacet
facet normal 0.000000 1.000000 -0.000000
outer loop
vertex 424.999603 550.000000 2159.999756
vertex -425.000427 550.000000 2519.999756
vertex 424.999573 550.000000 2519.999756
endloop
endfacet
facet normal 1.000000 0.000000 0.000000
outer loop
vertex 777.023682 -419.949036 2160.000000
vertex 777.023682 419.949097 2160.000000
vertex 777.023621 419.949097 2520.000000
endloop
endfacet
facet normal 1.000000 0.000000 0.000000
outer loop
vertex 777.023682 -419.949036 2160.000000
vertex 777.023621 419.949097 2520.000000
vertex 777.023621 -419.949036 2520.000000
endloop
endfacet
facet normal 0.000000 -1.000000 0.000000
outer loop
vertex -917.266846 -441.800232 2159.999512
vertex -425.000336 -441.800232 2159.999756
vertex -425.000366 -441.800232 2519.999756
endloop
endfacet
facet normal 0.000000 -1.000000 0.000000
outer loop
vertex -917.266846 -441.800232 2159.999512
vertex -425.000366 -441.800232 2519.999756
vertex -917.266907 -441.800232 2519.999512
endloop
endfacet
facet normal -1.000000 0.000000 -0.000000
outer loop
vertex -425.000397 550.000000 2159.999756
vertex -425.000397 441.800140 2159.999756
vertex -425.000427 441.800140 2519.999756
endloop
endfacet
facet normal -1.000000 0.000000 -0.000000
outer loop
vertex -425.000397 550.000000 2159.999756
vertex -425.000427 441.800140 2519.999756
vertex -425.000427 550.000000 2519.999756
endloop
endfacet
facet normal 0.000000 1.000000 -0.000000
outer loop
vertex 777.023682 419.949097 2160.000000
vertex 424.999603 419.949097 2159.999756
vertex 424.999573 419.949097 2519.999756
endloop
endfacet
facet normal 0.000000 1.000000 -0.000000
outer loop
vertex 777.023682 419.949097 2160.000000
vertex 424.999573 419.949097 2519.999756
vertex 777.023621 419.949097 2520.000000
endloop
endfacet
facet normal -1.000000 0.000000 -0.000000
outer loop
vertex -425.000336 -441.800232 2159.999756
vertex -425.000336 -550.000000 2159.999756
vertex -425.000366 -550.000000 2519.999756
endloop
endfacet
facet normal -1.000000 0.000000 -0.000000
outer loop
vertex -425.000336 -441.800232 2159.999756
vertex -425.000366 -550.000000 2519.999756
vertex -425.000366 -441.800232 2519.999756
endloop
endfacet
facet normal 1.000000 0.000000 0.000000
outer loop
vertex 424.999664 -550.000000 2159.999756
vertex 424.999664 -419.949036 2159.999756
vertex 424.999634 -419.949036 2519.999756
endloop
endfacet
facet normal 1.000000 0.000000 0.000000
outer loop
vertex 424.999664 -550.000000 2159.999756
vertex 424.999634 -419.949036 2519.999756
vertex 424.999634 -550.000000 2519.999756
endloop
endfacet
facet normal 0.000000 1.000000 0.000000
outer loop
vertex -425.000397 441.800140 2159.999756
vertex -917.266846 441.800140 2159.999512
vertex -917.266907 441.800140 2519.999512
endloop
endfacet
facet normal 0.000000 1.000000 -0.000000
outer loop
vertex -425.000397 441.800140 2159.999756
vertex -917.266907 441.800140 2519.999512
vertex -425.000427 441.800140 2519.999756
endloop
endfacet
facet normal 0.000000 1.000000 0.000000
outer loop
vertex -425.000427 441.800140 2519.999756
vertex -917.266907 441.800140 2519.999512
vertex -917.266968 441.800140 2879.999512
endloop
endfacet
facet normal 0.000000 1.000000 -0.000000
outer loop
vertex -425.000427 441.800140 2519.999756
vertex -917.266968 441.800140 2879.999512
vertex -425.000488 441.800140 2879.999756
endloop
endfacet
facet normal 1.000000 0.000000 0.000000
outer loop
vertex 424.999573 419.949097 2519.999756
vertex 424.999573 550.000000 2519.999756
vertex 424.999512 550.000000 2879.999756
endloop
endfacet
facet normal 1.000000 0.000000 0.000000
outer loop
vertex 424.999573 419.949097 2519.999756
vertex 424.999512 550.000000 2879.999756
vertex 424.999512 419.949097 2879.999756
endloop
endfacet
facet normal 0.000000 -1.000000 -0.000000
outer loop
vertex -425.000366 -550.000000 2519.999756
vertex 424.999634 -550.000000 2519.999756
vertex 424.999573 -550.000000 2879.999756
endloop
endfacet
facet normal 0.000000 -1.000000 0.000000
outer loop
vertex -425.000366 -550.000000 2519.999756
vertex 424.999573 -550.000000 2879.999756
vertex -425.000427 -550.000000 2879.999756
endloop
endfacet
facet normal 0.000000 -1.000000 0.000000
outer loop
vertex 424.999634 -419.949036 2519.999756
vertex 777.023621 -419.949036 2520.000000
vertex 777.023560 -419.949036 2880.000000
endloop
endfacet
facet normal 0.000000 -1.000000 0.000000
outer loop
vertex 424.999634 -419.949036 2519.999756
vertex 777.023560 -419.949036 2880.000000
vertex 424.999573 -419.949036 2879.999756
endloop
endfacet
facet normal -1.000000 0.000000 -0.000000
outer loop
vertex -917.266907 441.800140 2519.999512
vertex -917.266907 -441.800232 2519.999512
vertex -917.266968 -441.800232 2879.999512
endloop
endfacet
facet normal -1.000000 0.000000 -0.000000
outer loop
vertex -917.266907 441.800140 2519.999512
vertex -917.266968 -441.800232 2879.999512
vertex -917.266968 441.800140 2879.999512
endloop
endfacet
facet normal 0.000000 1.000000 0.000000
outer loop
vertex 424.999573 550.000000 2519.999756
vertex -425.000427 550.000000 2519.999756
vertex -425.000488 550.000000 2879.999756
endloop
endfacet
facet normal 0.000000 1.000000 0.000000
outer loop
vertex 424.999573 550.000000 2519.999756
vertex -425.000488 550.000000 2879.999756
vertex 424.999512 550.000000 2879.999756
endloop
endfacet
facet normal 1.000000 0.000000 0.000000
outer loop
vertex 777.023621 -419.949036 2520.000000
vertex 777.023621 419.949097 2520.000000
vertex 777.023560 419.949097 2880.000000
endloop
endfacet
facet normal 1.000000 0.000000 0.000000
outer loop
vertex 777.023621 -419.949036 2520.000000
vertex 777.023560 419.949097 2880.000000
vertex 777.023560 -419.949036 2880.000000
endloop
endfacet
facet normal 0.000000 -1.000000 0.000000
outer loop
vertex -917.266907 -441.800232 2519.999512
vertex -425.000366 -441.800232 2519.999756
vertex -425.000427 -441.800232 2879.999756
endloop
endfacet
facet normal 0.000000 -1.000000 0.000000
outer loop
vertex -917.266907 -441.800232 2519.999512
vertex -425.000427 -441.800232 2879.999756
vertex -917.266968 -441.800232 2879.999512
endloop
endfacet
facet normal -1.000000 0.000000 -0.000000
outer loop
vertex -425.000427 550.000000 2519.999756
vertex -425.000427 441.800140 2519.999756
vertex -425.000488 441.800140 2879.999756
endloop
endfacet
facet normal -1.000000 0.000000 -0.000000
outer loop
vertex -425.000427 550.000000 2519.999756
vertex -425.000488 441.800140 2879.999756
vertex -425.000488 550.000000 2879.999756
endloop
endfacet
facet normal 0.000000 1.000000 0.000000
outer loop
vertex 777.023621 419.949097 2520.000000
vertex 424.999573 419.949097 2519.999756
vertex 424.999512 419.949097 2879.999756
endloop
endfacet
facet normal 0.000000 1.000000 -0.000000
outer loop
vertex 777.023621 419.949097 2520.000000
vertex 424.999512 419.949097 2879.999756
vertex 777.023560 419.949097 2880.000000
endloop
endfacet
facet normal -1.000000 0.000000 -0.000000
outer loop
vertex -425.000366 -441.800232 2519.999756
vertex -425.000366 -550.000000 2519.999756
vertex -425.000427 -550.000000 2879.999756
endloop
endfacet
facet normal -1.000000 0.000000 -0.000000
outer loop
vertex -425.000366 -441.800232 2519.999756
vertex -425.000427 -550.000000 2879.999756
vertex -425.000427 -441.800232 2879.999756
endloop
endfacet
facet normal 1.000000 0.000000 0.000000
outer loop
vertex 424.999634 -550.000000 2519.999756
vertex 424.999634 -419.949036 2519.999756
vertex 424.999573 -419.949036 2879.999756
endloop
endfacet
facet normal 1.000000 0.000000 0.000000
outer loop
vertex 424.999634 -550.000000 2519.999756
vertex 424.999573 -419.949036 2879.999756
vertex 424.999573 -550.000000 2879.999756
endloop
endfacet
facet normal 1.000000 0.000000 0.000000
outer loop
vertex 424.999573 -550.000000 2879.999756
vertex 424.999573 -419.949036 2879.999756
vertex 424.999512 -419.949036 3239.999756
endloop
endfacet
facet normal 1.000000 0.000000 0.000000
outer loop
vertex 424.999573 -550.000000 2879.999756
vertex 424.999512 -419.949036 3239.999756
vertex 424.999512 -550.000000 3239.999756
endloop
endfacet
facet normal 0.000000 1.000000 0.000000
outer loop
vertex -425.000488 441.800140 2879.999756
vertex -917.266968 441.800140 2879.999512
vertex -917.267029 441.800140 3239.999512
endloop
endfacet
facet normal 0.000000 1.000000 -0.000000
outer loop
vertex -425.000488 441.800140 2879.999756
vertex -917.267029 441.800140 3239.999512
vertex -425.000549 441.800140 3239.999756
endloop
endfacet
facet normal 1.000000 0.000000 0.000000
outer loop
vertex 424.999512 419.949097 2879.999756
vertex 424.999512 550.000000 2879.999756
vertex 424.999451 550.000000 3239.999756
endloop
endfacet
facet normal 1.000000 0.000000 0.000000
outer loop
vertex 424.999512 419.949097 2879.999756
vertex 424.999451 550.000000 3239.999756
vertex 424.999451 419.949097 3239.999756
endloop
endfacet
facet normal 0.000000 -1.000000 -0.000000
outer loop
vertex -425.000427 -550.000000 2879.999756
vertex 424.999573 -550.000000 2879.999756
vertex 424.999512 -550.000000 3239.999756
endloop
endfacet
facet normal 0.000000 -1.000000 0.000000
outer loop
vertex -425.000427 -550.000000 2879.999756
vertex 424.999512 -550.000000 3239.999756
vertex -425.000488 -550.000000 3239.999756
endloop
endfacet
facet normal 0.000000 -1.000000 0.000000
outer loop
vertex 424.999573 -419.949036 2879.999756
vertex 777.023560 -419.949036 2880.000000
vertex 777.023499 -419.949036 3240.000000
endloop
endfacet
facet normal 0.000000 -1.000000 0.000000
outer loop
vertex 424.999573 -419.949036 2879.999756
vertex 777.023499 -419.949036 3240.000000
vertex 424.999512 -419.949036 3239.999756
endloop
endfacet
facet normal -1.000000 0.000000 -0.000000
outer loop
vertex -917.266968 441.800140 2879.999512
vertex -917.266968 -441.800232 2879.999512
vertex -917.267029 -441.800232 3239.999512
endloop
endfacet
facet normal -1.000000 0.000000 -0.000000
outer loop
vertex -917.266968 441.800140 2879.999512
vertex -917.267029 -441.800232 3239.999512
vertex -917.267029 441.800140 3239.999512
endloop
endfacet
facet normal 0.000000 1.000000 0.000000
outer loop
vertex 424.999512 550.000000 2879.999756
vertex -425.000488 550.000000 2879.999756
vertex -425.000549 550.000000 3239.999756
endloop
endfacet
facet normal 0.000000 1.000000 0.000000
outer loop
vertex 424.999512 550.000000 2879.999756
vertex -425.000549 550.000000 3239.999756
vertex 424.999451 550.000000 3239.999756
endloop
endfacet
facet normal 1.000000 0.000000 0.000000
outer loop
vertex 777.023560 -419.949036 2880.000000
vertex 777.023560 419.949097 2880.000000
vertex 777.023499 419.949097 3240.000000
endloop
endfacet
facet normal 1.000000 0.000000 0.000000
outer loop
vertex 777.023560 -419.949036 2880.000000
vertex 777.023499 419.949097 3240.000000
vertex 777.023499 -419.949036 3240.000000
endloop
endfacet
facet normal 0.000000 -1.000000 0.000000
outer loop
vertex -917.266968 -441.800232 2879.999512
vertex -425.000427 -441.800232 2879.999756
vertex -425.000488 -441.800232 3239.999756
endloop
endfacet
facet normal 0.000000 -1.000000 0.000000
outer loop
vertex -917.266968 -441.800232 2879.999512
vertex -425.000488 -441.800232 3239.999756
vertex -917.267029 -441.800232 3239.999512
endloop
endfacet
facet normal -1.000000 0.000000 -0.000000
outer loop
vertex -425.000488 550.000000 2879.999756
vertex -425.000488 441.800140 2879.999756
vertex -425.000549 441.800140 3239.999756
endloop
endfacet
facet normal -1.000000 0.000000 -0.000000
outer loop
vertex -425.000488 550.000000 2879.999756
vertex -425.000549 441.800140 3239.999756
vertex -425.000549 550.000000 3239.999756
endloop
endfacet
facet normal 0.000000 1.000000 0.000000
outer loop
vertex 777.023560 419.949097 2880.000000
vertex 424.999512 419.949097 2879.999756
vertex 424.999451 419.949097 3239.999756
endloop
endfacet
facet normal 0.000000 1.000000 -0.000000
outer loop
vertex 777.023560 419.949097 2880.000000
vertex 424.999451 419.949097 3239.999756
vertex 777.023499 419.949097 3240.000000
endloop
endfacet
facet normal -1.000000 0.000000 -0.000000
outer loop
vertex -425.000427 -441.800232 2879.999756
vertex -425.000427 -550.000000 2879.999756
vertex -425.000488 -550.000000 3239.999756
endloop
endfacet
facet normal -1.000000 0.000000 -0.000000
outer loop
vertex -425.000427 -441.800232 2879.999756
vertex -425.000488 -550.000000 3239.999756
vertex -425.000488 -441.800232 3239.999756
endloop
endfacet
facet normal -1.000000 0.000000 -0.000000
outer loop
vertex -425.000488 -441.800232 3239.999756
vertex -425.000488 -550.000000 3239.999756
vertex -425.000549 -550.000000 3599.999756
endloop
endfacet
facet normal -1.000000 0.000000 -0.000000
outer loop
vertex -425.000488 -441.800232 3239.999756
vertex -425.000549 -550.000000 3599.999756
vertex -425.000549 -441.800232 3599.999756
endloop
endfacet
facet normal 1.000000 0.000000 0.000000
outer loop
vertex 424.999512 -550.000000 3239.999756
vertex 424.999512 -419.949036 3239.999756
vertex 424.999451 -419.949036 3599.999756
endloop
endfacet
facet normal 1.000000 0.000000 0.000000
outer loop
vertex 424.999512 -550.000000 3239.999756
vertex 424.999451 -419.949036 3599.999756
vertex 424.999451 -550.000000 3599.999756
endloop
endfacet
facet normal 0.000000 1.000000 0.000000
outer loop
vertex -425.000549 441.800140 3239.999756
vertex -917.267029 441.800140 3239.999512
vertex -917.267090 441.800140 3599.999512
endloop
endfacet
facet normal 0.000000 1.000000 -0.000000
outer loop
vertex -425.000549 441.800140 3239.999756
vertex -917.267090 441.800140 3599.999512
vertex -425.000610 441.800140 3599.999756
endloop
endfacet
facet normal 1.000000 0.000000 0.000000
outer loop
vertex 424.999451 419.949097 3239.999756
vertex 424.999451 550.000000 3239.999756
vertex 424.999390 550.000000 3599.999756
endloop
endfacet
facet normal 1.000000 0.000000 0.000000
outer loop
vertex 424.999451 419.949097 3239.999756
vertex 424.999390 550.000000 3599.999756
vertex 424.999390 419.949097 3599.999756
endloop
endfacet
facet normal 0.000000 -1.000000 -0.000000
outer loop
vertex -425.000488 -550.000000 3239.999756
vertex 424.999512 -550.000000 3239.999756
vertex 424.999451 -550.000000 3599.999756
endloop
endfacet
facet normal 0.000000 -1.000000 0.000000
outer loop
vertex -425.000488 -550.000000 3239.999756
vertex 424.999451 -550.000000 3599.999756
vertex -425.000549 -550.000000 3599.999756
endloop
endfacet
facet normal 0.000000 -1.000000 0.000000
outer loop
vertex 424.999512 -419.949036 3239.999756
vertex 777.023499 -419.949036 3240.000000
vertex 777.023438 -419.949036 3600.000000
endloop
endfacet
facet normal 0.000000 -1.000000 0.000000
outer loop
vertex 424.999512 -419.949036 3239.999756
vertex 777.023438 -419.949036 3600.000000
vertex 424.999451 -419.949036 3599.999756
endloop
endfacet
facet normal -1.000000 0.000000 -0.000000
outer loop
vertex -917.267029 441.800140 3239.999512
vertex -917.267029 -441.800232 3239.999512
vertex -917.267090 -441.800232 3599.999512
endloop
endfacet
facet normal -1.000000 0.000000 -0.000000
outer loop
vertex -917.267029 441.800140 3239.999512
vertex -917.267090 -441.800232 3599.999512
vertex -917.267090 441.800140 3599.999512
endloop
endfacet
facet normal 0.000000 1.000000 0.000000
outer loop
vertex 424.999451 550.000000 3239.999756
vertex -425.000549 550.000000 3239.999756
vertex -425.000610 550.000000 3599.999756
endloop
endfacet
facet normal 0.000000 1.000000 0.000000
outer loop
vertex 424.999451 550.000000 3239.999756
vertex -425.000610 550.000000 3599.999756
vertex 424.999390 550.000000 3599.999756
endloop
endfacet
facet normal 1.000000 0.000000 0.000000
outer loop
vertex 777.023499 -419.949036 3240.000000
vertex 777.023499 419.949097 3240.000000
vertex 777.023438 419.949097 3600.000000
endloop
endfacet
facet normal 1.000000 0.000000 0.000000
outer loop
vertex 777.023499 -419.949036 3240.000000
vertex 777.023438 419.949097 3600.000000
vertex 777.023438 -419.949036 3600.000000
endloop
endfacet
facet normal 0.000000 -1.000000 0.000000
outer loop
vertex -917.267029 -441.800232 3239.999512
vertex -425.000488 -441.800232 3239.999756
vertex -425.000549 -441.800232 3599.999756
endloop
endfacet
facet normal 0.000000 -1.000000 0.000000
outer loop
vertex -917.267029 -441.800232 3239.999512
vertex -425.000549 -441.800232 3599.999756
vertex -917.267090 -441.800232 3599.999512
endloop
endfacet
facet normal -1.000000 0.000000 -0.000000
outer loop
vertex -425.000549 550.000000 3239.999756
vertex -425.000549 441.800140 3239.999756
vertex -425.000610 441.800140 3599.999756
endloop
endfacet
facet normal -1.000000 0.000000 -0.000000
outer loop
vertex -425.000549 550.000000 3239.999756
vertex -425.000610 441.800140 3599.999756
vertex -425.000610 550.000000 3599.999756
endloop
endfacet
facet normal 0.000000 1.000000 0.000000
outer loop
vertex 777.023499 419.949097 3240.000000
vertex 424.999451 419.949097 3239.999756
vertex 424.999390 419.949097 3599.999756
endloop
endfacet
facet normal 0.000000 1.000000 -0.000000
outer loop
vertex 777.023499 419.949097 3240.000000
vertex 424.999390 419.949097 3599.999756
vertex 777.023438 419.949097 3600.000000
endloop
endfacet
facet normal 0.000000 1.000000 0.000000
outer loop
vertex 777.023438 419.949097 3600.000000
vertex 424.999390 419.949097 3599.999756
vertex 424.999329 419.949097 3959.999756
endloop
endfacet
facet normal 0.000000 1.000000 -0.000000
outer loop
vertex 777.023438 419.949097 3600.000000
vertex 424.999329 419.949097 3959.999756
vertex 777.023376 419.949097 3960.000000
endloop
endfacet
facet normal -1.000000 0.000000 -0.000000
outer loop
vertex -425.000549 -441.800232 3599.999756
vertex -425.000549 -550.000000 3599.999756
vertex -425.000610 -550.000000 3959.999756
endloop
endfacet
facet normal -1.000000 0.000000 -0.000000
outer loop
vertex -425.000549 -441.800232 3599.999756
vertex -425.000610 -550.000000 3959.999756
vertex -425.000610 -441.800232 3959.999756
endloop
endfacet
facet normal 1.000000 0.000000 0.000000
outer loop
vertex 424.999451 -550.000000 3599.999756
vertex 424.999451 -419.949036 3599.999756
vertex 424.999390 -419.949036 3959.999756
endloop
endfacet
facet normal 1.000000 0.000000 0.000000
outer loop
vertex 424.999451 -550.000000 3599.999756
vertex 424.999390 -419.949036 3959.999756
vertex 424.999390 -550.000000 3959.999756
endloop
endfacet
facet normal 0.000000 1.000000 0.000000
outer loop
vertex -425.000610 441.800140 3599.999756
vertex -917.267090 441.800140 3599.999512
vertex -917.267151 441.800140 3959.999512
endloop
endfacet
facet normal 0.000000 1.000000 -0.000000
outer loop
vertex -425.000610 441.800140 3599.999756
vertex -917.267151 441.800140 3959.999512
vertex -425.000671 441.800140 3959.999756
endloop
endfacet
facet normal 1.000000 0.000000 0.000000
outer loop
vertex 424.999390 419.949097 3599.999756
vertex 424.999390 550.000000 3599.999756
vertex 424.999329 550.000000 3959.999756
endloop
endfacet
facet normal 1.000000 0.000000 0.000000
outer loop
vertex 424.999390 419.949097 3599.999756
vertex 424.999329 550.000000 3959.999756
vertex 424.999329 419.949097 3959.999756
endloop
endfacet
facet normal 0.000000 -1.000000 -0.000000
outer loop
vertex -425.000549 -550.000000 3599.999756
vertex 424.999451 -550.000000 3599.999756
vertex 424.999390 -550.000000 3959.999756
endloop
endfacet
facet normal 0.000000 -1.000000 0.000000
outer loop
vertex -425.000549 -550.000000 3599.999756
vertex 424.999390 -550.000000 3959.999756
vertex -425.000610 -550.000000 3959.999756
endloop
endfacet
facet normal 0.000000 -1.000000 0.000000
outer loop
vertex 424.999451 -419.949036 3599.999756
vertex 777.023438 -419.949036 3600.000000
vertex 777.023376 -419.949036 3960.000000
endloop
endfacet
facet normal 0.000000 -1.000000 0.000000
outer loop
vertex 424.999451 -419.949036 3599.999756
vertex 777.023376 -419.949036 3960.000000
vertex 424.999390 -419.949036 3959.999756
endloop
endfacet
facet normal -1.000000 0.000000 -0.000000
outer loop
vertex -917.267090 441.800140 3599.999512
vertex -917.267090 -441.800232 3599.999512
vertex -917.267151 -441.800232 3959.999512
endloop
endfacet
facet normal -1.000000 0.000000 -0.000000
outer loop
vertex -917.267090 441.800140 3599.999512
vertex -917.267151 -441.800232 3959.999512
vertex -917.267151 441.800140 3959.999512
endloop
endfacet
facet normal 0.000000 1.000000 0.000000
outer loop
vertex 424.999390 550.000000 3599.999756
vertex -425.000610 550.000000 3599.999756
vertex -425.000671 550.000000 3959.999756
endloop
endfacet
facet normal 0.000000 1.000000 0.000000
outer loop
vertex 424.999390 550.000000 3599.999756
vertex -425.000671 550.000000 3959.999756
vertex 424.999329 550.000000 3959.999756
endloop
endfacet
facet normal 1.000000 0.000000 0.000000
outer loop
vertex 777.023438 -419.949036 3600.000000
vertex 777.023438 419.949097 3600.000000
vertex 777.023376 419.949097 3960.000000
endloop
endfacet
facet normal 1.000000 0.000000 0.000000
outer loop
vertex 777.023438 -419.949036 3600.000000
vertex 777.023376 419.949097 3960.000000
vertex 777.023376 -419.949036 3960.000000
endloop
endfacet
facet normal 0.000000 -1.000000 0.000000
outer loop
vertex -917.267090 -441.800232 3599.999512
vertex -425.000549 -441.800232 3599.999756
vertex -425.000610 -441.800232 3959.999756
endloop
endfacet
facet normal 0.000000 -1.000000 0.000000
outer loop
vertex -917.267090 -441.800232 3599.999512
vertex -425.000610 -441.800232 3959.999756
vertex -917.267151 -441.800232 3959.999512
endloop
endfacet
facet normal -1.000000 0.000000 -0.000000
outer loop
vertex -425.000610 550.000000 3599.999756
vertex -425.000610 441.800140 3599.999756
vertex -425.000671 441.800140 3959.999756
endloop
endfacet
facet normal -1.000000 0.000000 -0.000000
outer loop
vertex -425.000610 550.000000 3599.999756
vertex -425.000671 441.800140 3959.999756
vertex -425.000671 550.000000 3959.999756
endloop
endfacet
facet normal 0.000000 1.000000 0.000000
outer loop
vertex 777.023376 419.949097 3960.000000
vertex 424.999329 419.949097 3959.999756
vertex 424.999268 419.949097 4319.999512
endloop
endfacet
facet normal 0.000000 1.000000 -0.000000
outer loop
vertex 777.023376 419.949097 3960.000000
vertex 424.999268 419.949097 4319.999512
vertex 777.023315 419.949097 4319.999512
endloop
endfacet
facet normal -1.000000 0.000000 -0.000000
outer loop
vertex -425.000610 -441.800232 3959.999756
vertex -425.000610 -550.000000 3959.999756
vertex -425.000671 -550.000000 4319.999512
endloop
endfacet
facet normal -1.000000 0.000000 -0.000000
outer loop
vertex -425.000610 -441.800232 3959.999756
vertex -425.000671 -550.000000 4319.999512
vertex -425.000671 -441.800232 4319.999512
endloop
endfacet
facet normal 1.000000 0.000000 0.000000
outer loop
vertex 424.999390 -550.000000 3959.999756
vertex 424.999390 -419.949036 3959.999756
vertex 424.999329 -419.949036 4319.999512
endloop
endfacet
facet normal 1.000000 0.000000 0.000000
outer loop
vertex 424.999390 -550.000000 3959.999756
vertex 424.999329 -419.949036 4319.999512
vertex 424.999329 -550.000000 4319.999512
endloop
endfacet
facet normal 0.000000 1.000000 0.000000
outer loop
vertex -425.000671 441.800140 3959.999756
vertex -917.267151 441.800140 3959.999512
vertex -917.267212 441.800140 4319.999512
endloop
endfacet
facet normal 0.000000 1.000000 -0.000000
outer loop
vertex -425.000671 441.800140 3959.999756
vertex -917.267212 441.800140 4319.999512
vertex -425.000732 441.800140 4319.999512
endloop
endfacet
facet normal 1.000000 0.000000 0.000000
outer loop
vertex 424.999329 419.949097 3959.999756
vertex 424.999329 550.000000 3959.999756
vertex 424.999268 550.000000 4319.999512
endloop
endfacet
facet normal 1.000000 0.000000 0.000000
outer loop
vertex 424.999329 419.949097 3959.999756
vertex 424.999268 550.000000 4319.999512
vertex 424.999268 419.949097 4319.999512
endloop
endfacet
facet normal 0.000000 -1.000000 -0.000000
outer loop
vertex -425.000610 -550.000000 3959.999756
vertex 424.999390 -550.000000 3959.999756
vertex 424.999329 -550.000000 4319.999512
endloop
endfacet
facet normal 0.000000 -1.000000 0.000000
outer loop
vertex -425.000610 -550.000000 3959.999756
vertex 424.999329 -550.000000 4319.999512
vertex -425.000671 -550.000000 4319.999512
endloop
endfacet
facet normal 0.000000 -1.000000 0.000000
outer loop
vertex 424.999390 -419.949036 3959.999756
vertex 777.023376 -419.949036 3960.000000
vertex 777.023315 -419.949036 4319.999512
endloop
endfacet
facet normal 0.000000 -1.000000 0.000000
outer loop
vertex 424.999390 -419.949036 3959.999756
vertex 777.023315 -419.949036 4319.999512
vertex 424.999329 -419.949036 4319.999512
endloop
endfacet
facet normal -1.000000 0.000000 -0.000000
outer loop
vertex -917.267151 441.800140 3959.999512
vertex -917.267151 -441.800232 3959.999512
vertex -917.267212 -441.800232 4319.999512
endloop
endfacet
facet normal -1.000000 0.000000 -0.000000
outer loop
vertex -917.267151 441.800140 3959.999512
vertex -917.267212 -441.800232 4319.999512
vertex -917.267212 441.800140 4319.999512
endloop
endfacet
facet normal 0.000000 1.000000 0.000000
outer loop
vertex 424.999329 550.000000 3959.999756
vertex -425.000671 550.000000 3959.999756
vertex -425.000732 550.000000 4319.999512
endloop
endfacet
facet normal 0.000000 1.000000 0.000000
outer loop
vertex 424.999329 550.000000 3959.999756
vertex -425.000732 550.000000 4319.999512
vertex 424.999268 550.000000 4319.999512
endloop
endfacet
facet normal 1.000000 0.000000 0.000000
outer loop
vertex 777.023376 -419.949036 3960.000000
vertex 777.023376 419.949097 3960.000000
vertex 777.023315 419.949097 4319.999512
endloop
endfacet
facet normal 1.000000 0.000000 0.000000
outer loop
vertex 777.023376 -419.949036 3960.000000
vertex 777.023315 419.949097 4319.999512
vertex 777.023315 -419.949036 4319.999512
endloop
endfacet
facet normal 0.000000 -1.000000 0.000000
outer loop
vertex -917.267151 -441.800232 3959.999512
vertex -425.000610 -441.800232 3959.999756
vertex -425.000671 -441.800232 4319.999512
endloop
endfacet
facet normal 0.000000 -1.000000 0.000000
outer loop
vertex -917.267151 -441.800232 3959.999512
vertex -425.000671 -441.800232 4319.999512
vertex -917.267212 -441.800232 4319.999512
endloop
endfacet
facet normal -1.000000 0.000000 -0.000000
outer loop
vertex -425.000671 550.000000 3959.999756
vertex -425.000671 441.800140 3959.999756
vertex -425.000732 441.800140 4319.999512
endloop
endfacet
facet normal -1.000000 0.000000 -0.000000
outer loop
vertex -425.000671 550.000000 3959.999756
vertex -425.000732 441.800140 4319.999512
vertex -425.000732 550.000000 4319.999512
endloop
endfacet
endsolid building_004.001
