solid building_033
facet normal -1.000000 0.000000 0.000000
outer loop
vertex -675.000000 650.000000 -0.000106
vertex -675.000000 -650.000000 0.000106
vertex -675.000000 -649.999939 300.000092
endloop
endfacet
facet normal -1.000000 0.000000 0.000000
outer loop
vertex -675.000000 650.000000 -0.000106
vertex -675.000000 -649.999939 300.000092
vertex -675.000000 650.000061 299.999908
endloop
endfacet
facet normal 0.000000 1.000000 0.000000
outer loop
vertex 525.000000 780.000000 -0.000127
vertex -525.000000 780.000000 -0.000127
vertex -525.000000 780.000061 299.999878
endloop
endfacet
facet normal 0.000000 1.000000 -0.000000
outer loop
vertex 525.000000 780.000000 -0.000127
vertex -525.000000 780.000061 299.999878
vertex 525.000000 780.000061 299.999878
endloop
endfacet
facet normal 0.000000 -1.000000 0.000000
outer loop
vertex -525.000000 -780.000000 0.000127
vertex 525.000000 -780.000000 0.000127
vertex 525.000000 -779.999939 300.000122
endloop
endfacet
facet normal 0.000000 -1.000000 0.000000
outer loop
vertex -525.000000 -780.000000 0.000127
vertex 525.000000 -779.999939 300.000122
vertex -525.000000 -779.999939 300.000122
endloop
endfacet
facet normal 0.000000 -1.000000 0.000000
outer loop
vertex 525.000000 -650.000000 0.000106
vertex 675.000000 -650.000000 0.000106
vertex 675.000000 -649.999939 300.000092
endloop
endfacet
facet normal 0.000000 -1.000000 0.000000
outer loop
vertex 525.000000 -650.000000 0.000106
vertex 675.000000 -649.999939 300.000092
vertex 525.000000 -649.999939 300.000092
endloop
endfacet
facet normal 0.000000 0.000000 1.000000
outer loop
vertex -525.000000 -649.999695 1800.000122
vertex -525.000000 -779.999695 1800.000122
vertex 525.000000 -779.999695 1800.000122
endloop
endfacet
facet normal 0.000000 0.000000 1.000000
outer loop
vertex 525.000000 -649.999695 1800.000122
vertex 675.000000 -649.999695 1800.000122
vertex 675.000000 650.000305 1799.999878
endloop
endfacet
facet normal 0.000000 0.000000 1.000000
outer loop
vertex -525.000000 -649.999695 1800.000122
vertex 525.000000 -779.999695 1800.000122
vertex 525.000000 -649.999695 1800.000122
endloop
endfacet
facet normal 0.000000 0.000000 1.000000
outer loop
vertex -675.000000 650.000305 1799.999878
vertex -675.000000 -649.999695 1800.000122
vertex -525.000000 -649.999695 1800.000122
endloop
endfacet
facet normal 0.000000 0.000000 1.000000
outer loop
vertex 525.000000 780.000305 1799.999878
vertex -525.000000 780.000305 1799.999878
vertex -525.000000 650.000305 1799.999878
endloop
endfacet
facet normal 0.000000 0.000000 1.000000
outer loop
vertex -525.000000 650.000305 1799.999878
vertex -675.000000 650.000305 1799.999878
vertex -525.000000 -649.999695 1800.000122
endloop
endfacet
facet normal 0.000000 0.000000 1.000000
outer loop
vertex -525.000000 -649.999695 1800.000122
vertex 525.000000 -649.999695 1800.000122
vertex 675.000000 650.000305 1799.999878
endloop
endfacet
facet normal 0.000000 0.000000 1.000000
outer loop
vertex 525.000000 650.000305 1799.999878
vertex 525.000000 780.000305 1799.999878
vertex -525.000000 650.000305 1799.999878
endloop
endfacet
facet normal 0.000000 0.000000 1.000000
outer loop
vertex -525.000000 -649.999695 1800.000122
vertex 675.000000 650.000305 1799.999878
vertex 525.000000 650.000305 1799.999878
endloop
endfacet
facet normal 0.000000 0.000000 1.000000
outer loop
vertex -525.000000 -649.999695 1800.000122
vertex 525.000000 650.000305 1799.999878
vertex -525.000000 650.000305 1799.999878
endloop
endfacet
facet normal -1.000000 0.000000 0.000000
outer loop
vertex -525.000000 780.000000 -0.000127
vertex -525.000000 650.000000 -0.000106
vertex -525.000000 650.000061 299.999908
endloop
endfacet
facet normal -1.000000 -0.000000 0.000000
outer loop
vertex -525.000000 780.000000 -0.000127
vertex -525.000000 650.000061 299.999908
vertex -525.000000 780.000061 299.999878
endloop
endfacet
facet normal 1.000000 0.000000 0.000000
outer loop
vertex 675.000000 -650.000000 0.000106
vertex 675.000000 650.000000 -0.000106
vertex 675.000000 650.000061 299.999908
endloop
endfacet
facet normal 1.000000 0.000000 0.000000
outer loop
vertex 675.000000 -650.000000 0.000106
vertex 675.000000 650.000061 299.999908
vertex 675.000000 -649.999939 300.000092
endloop
endfacet
facet normal 0.000000 -1.000000 0.000000
outer loop
vertex -675.000000 -650.000000 0.000106
vertex -525.000000 -650.000000 0.000106
vertex -525.000000 -649.999939 300.000092
endloop
endfacet
facet normal 0.000000 -1.000000 0.000000
outer loop
vertex -675.000000 -650.000000 0.000106
vertex -525.000000 -649.999939 300.000092
vertex -675.000000 -649.999939 300.000092
endloop
endfacet
facet normal 1.000000 0.000000 0.000000
outer loop
vertex 525.000000 -780.000000 0.000127
vertex 525.000000 -650.000000 0.000106
vertex 525.000000 -649.999939 300.000092
endloop
endfacet
facet normal 1.000000 -0.000000 0.000000
outer loop
vertex 525.000000 -780.000000 0.000127
vertex 525.000000 -649.999939 300.000092
vertex 525.000000 -779.999939 300.000122
endloop
endfacet
facet normal 1.000000 0.000000 0.000000
outer loop
vertex 525.000000 650.000000 -0.000106
vertex 525.000000 780.000000 -0.000127
vertex 525.000000 780.000061 299.999878
endloop
endfacet
facet normal 1.000000 -0.000000 0.000000
outer loop
vertex 525.000000 650.000000 -0.000106
vertex 525.000000 780.000061 299.999878
vertex 525.000000 650.000061 299.999908
endloop
endfacet
facet normal 0.000000 1.000000 0.000000
outer loop
vertex 675.000000 650.000000 -0.000106
vertex 525.000000 650.000000 -0.000106
vertex 525.000000 650.000061 299.999908
endloop
endfacet
facet normal 0.000000 1.000000 -0.000000
outer loop
vertex 675.000000 650.000000 -0.000106
vertex 525.000000 650.000061 299.999908
vertex 675.000000 650.000061 299.999908
endloop
endfacet
facet normal 0.000000 1.000000 0.000000
outer loop
vertex -525.000000 650.000000 -0.000106
vertex -675.000000 650.000000 -0.000106
vertex -675.000000 650.000061 299.999908
endloop
endfacet
facet normal 0.000000 1.000000 -0.000000
outer loop
vertex -525.000000 650.000000 -0.000106
vertex -675.000000 650.000061 299.999908
vertex -525.000000 650.000061 299.999908
endloop
endfacet
facet normal -1.000000 0.000000 0.000000
outer loop
vertex -525.000000 -650.000000 0.000106
vertex -525.000000 -780.000000 0.000127
vertex -525.000000 -779.999939 300.000122
endloop
endfacet
facet normal -1.000000 -0.000000 0.000000
outer loop
vertex -525.000000 -650.000000 0.000106
vertex -525.000000 -779.999939 300.000122
vertex -525.000000 -649.999939 300.000092
endloop
endfacet
facet normal 1.000000 0.000000 0.000000
outer loop
vertex 675.000000 -649.999939 300.000092
vertex 675.000000 650.000061 299.999908
vertex 675.000000 650.000122 599.999878
endloop
endfacet
facet normal 1.000000 -0.000000 0.000000
outer loop
vertex 675.000000 -649.999939 300.000092
vertex 675.000000 650.000122 599.999878
vertex 675.000000 -649.999878 600.000122
endloop
endfacet
facet normal 0.000000 -1.000000 0.000000
outer loop
vertex -675.000000 -649.999939 300.000092
vertex -525.000000 -649.999939 300.000092
vertex -525.000000 -649.999878 600.000122
endloop
endfacet
facet normal 0.000000 -1.000000 0.000000
outer loop
vertex -675.000000 -649.999939 300.000092
vertex -525.000000 -649.999878 600.000122
vertex -675.000000 -649.999878 600.000122
endloop
endfacet
facet normal 0.000000 -1.000000 0.000000
outer loop
vertex -525.000000 -779.999939 300.000122
vertex 525.000000 -779.999939 300.000122
vertex 525.000000 -779.999878 600.000122
endloop
endfacet
facet normal 0.000000 -1.000000 0.000000
outer loop
vertex -525.000000 -779.999939 300.000122
vertex 525.000000 -779.999878 600.000122
vertex -525.000000 -779.999878 600.000122
endloop
endfacet
facet normal -1.000000 0.000000 0.000000
outer loop
vertex -525.000000 780.000061 299.999878
vertex -525.000000 650.000061 299.999908
vertex -525.000000 650.000122 599.999878
endloop
endfacet
facet normal -1.000000 0.000000 0.000000
outer loop
vertex -525.000000 780.000061 299.999878
vertex -525.000000 650.000122 599.999878
vertex -525.000000 780.000122 599.999878
endloop
endfacet
facet normal -1.000000 0.000000 0.000000
outer loop
vertex -525.000000 -649.999939 300.000092
vertex -525.000000 -779.999939 300.000122
vertex -525.000000 -779.999878 600.000122
endloop
endfacet
facet normal -1.000000 0.000000 0.000000
outer loop
vertex -525.000000 -649.999939 300.000092
vertex -525.000000 -779.999878 600.000122
vertex -525.000000 -649.999878 600.000122
endloop
endfacet
facet normal 0.000000 1.000000 -0.000000
outer loop
vertex 675.000000 650.000061 299.999908
vertex 525.000000 650.000061 299.999908
vertex 525.000000 650.000122 599.999878
endloop
endfacet
facet normal 0.000000 1.000000 0.000000
outer loop
vertex 675.000000 650.000061 299.999908
vertex 525.000000 650.000122 599.999878
vertex 675.000000 650.000122 599.999878
endloop
endfacet
facet normal 0.000000 1.000000 -0.000000
outer loop
vertex -525.000000 650.000061 299.999908
vertex -675.000000 650.000061 299.999908
vertex -675.000000 650.000122 599.999878
endloop
endfacet
facet normal 0.000000 1.000000 0.000000
outer loop
vertex -525.000000 650.000061 299.999908
vertex -675.000000 650.000122 599.999878
vertex -525.000000 650.000122 599.999878
endloop
endfacet
facet normal 0.000000 -1.000000 0.000000
outer loop
vertex 525.000000 -649.999939 300.000092
vertex 675.000000 -649.999939 300.000092
vertex 675.000000 -649.999878 600.000122
endloop
endfacet
facet normal 0.000000 -1.000000 0.000000
outer loop
vertex 525.000000 -649.999939 300.000092
vertex 675.000000 -649.999878 600.000122
vertex 525.000000 -649.999878 600.000122
endloop
endfacet
facet normal 1.000000 0.000000 0.000000
outer loop
vertex 525.000000 650.000061 299.999908
vertex 525.000000 780.000061 299.999878
vertex 525.000000 780.000122 599.999878
endloop
endfacet
facet normal 1.000000 0.000000 0.000000
outer loop
vertex 525.000000 650.000061 299.999908
vertex 525.000000 780.000122 599.999878
vertex 525.000000 650.000122 599.999878
endloop
endfacet
facet normal -1.000000 0.000000 0.000000
outer loop
vertex -675.000000 650.000061 299.999908
vertex -675.000000 -649.999939 300.000092
vertex -675.000000 -649.999878 600.000122
endloop
endfacet
facet normal -1.000000 -0.000000 0.000000
outer loop
vertex -675.000000 650.000061 299.999908
vertex -675.000000 -649.999878 600.000122
vertex -675.000000 650.000122 599.999878
endloop
endfacet
facet normal 0.000000 1.000000 -0.000000
outer loop
vertex 525.000000 780.000061 299.999878
vertex -525.000000 780.000061 299.999878
vertex -525.000000 780.000122 599.999878
endloop
endfacet
facet normal 0.000000 1.000000 0.000000
outer loop
vertex 525.000000 780.000061 299.999878
vertex -525.000000 780.000122 599.999878
vertex 525.000000 780.000122 599.999878
endloop
endfacet
facet normal 1.000000 0.000000 0.000000
outer loop
vertex 525.000000 -779.999939 300.000122
vertex 525.000000 -649.999939 300.000092
vertex 525.000000 -649.999878 600.000122
endloop
endfacet
facet normal 1.000000 0.000000 0.000000
outer loop
vertex 525.000000 -779.999939 300.000122
vertex 525.000000 -649.999878 600.000122
vertex 525.000000 -779.999878 600.000122
endloop
endfacet
facet normal 1.000000 0.000000 0.000000
outer loop
vertex 675.000000 -649.999878 600.000122
vertex 675.000000 650.000122 599.999878
vertex 675.000000 650.000122 899.999878
endloop
endfacet
facet normal 1.000000 0.000000 0.000000
outer loop
vertex 675.000000 -649.999878 600.000122
vertex 675.000000 650.000122 899.999878
vertex 675.000000 -649.999878 900.000122
endloop
endfacet
facet normal 0.000000 -1.000000 0.000000
outer loop
vertex -675.000000 -649.999878 600.000122
vertex -525.000000 -649.999878 600.000122
vertex -525.000000 -649.999878 900.000122
endloop
endfacet
facet normal 0.000000 -1.000000 0.000000
outer loop
vertex -675.000000 -649.999878 600.000122
vertex -525.000000 -649.999878 900.000122
vertex -675.000000 -649.999878 900.000122
endloop
endfacet
facet normal 0.000000 -1.000000 0.000000
outer loop
vertex -525.000000 -779.999878 600.000122
vertex 525.000000 -779.999878 600.000122
vertex 525.000000 -779.999878 900.000122
endloop
endfacet
facet normal 0.000000 -1.000000 0.000000
outer loop
vertex -525.000000 -779.999878 600.000122
vertex 525.000000 -779.999878 900.000122
vertex -525.000000 -779.999878 900.000122
endloop
endfacet
facet normal -1.000000 0.000000 0.000000
outer loop
vertex -525.000000 780.000122 599.999878
vertex -525.000000 650.000122 599.999878
vertex -525.000000 650.000122 899.999878
endloop
endfacet
facet normal -1.000000 0.000000 0.000000
outer loop
vertex -525.000000 780.000122 599.999878
vertex -525.000000 650.000122 899.999878
vertex -525.000000 780.000122 899.999878
endloop
endfacet
facet normal 0.000000 1.000000 0.000000
outer loop
vertex 675.000000 650.000122 599.999878
vertex 525.000000 650.000122 599.999878
vertex 525.000000 650.000122 899.999878
endloop
endfacet
facet normal 0.000000 1.000000 0.000000
outer loop
vertex 675.000000 650.000122 599.999878
vertex 525.000000 650.000122 899.999878
vertex 675.000000 650.000122 899.999878
endloop
endfacet
facet normal 1.000000 0.000000 0.000000
outer loop
vertex 525.000000 -779.999878 600.000122
vertex 525.000000 -649.999878 600.000122
vertex 525.000000 -649.999878 900.000122
endloop
endfacet
facet normal 1.000000 0.000000 0.000000
outer loop
vertex 525.000000 -779.999878 600.000122
vertex 525.000000 -649.999878 900.000122
vertex 525.000000 -779.999878 900.000122
endloop
endfacet
facet normal 0.000000 1.000000 0.000000
outer loop
vertex -525.000000 650.000122 599.999878
vertex -675.000000 650.000122 599.999878
vertex -675.000000 650.000122 899.999878
endloop
endfacet
facet normal 0.000000 1.000000 0.000000
outer loop
vertex -525.000000 650.000122 599.999878
vertex -675.000000 650.000122 899.999878
vertex -525.000000 650.000122 899.999878
endloop
endfacet
facet normal 1.000000 0.000000 0.000000
outer loop
vertex 525.000000 650.000122 599.999878
vertex 525.000000 780.000122 599.999878
vertex 525.000000 780.000122 899.999878
endloop
endfacet
facet normal 1.000000 0.000000 0.000000
outer loop
vertex 525.000000 650.000122 599.999878
vertex 525.000000 780.000122 899.999878
vertex 525.000000 650.000122 899.999878
endloop
endfacet
facet normal 0.000000 -1.000000 0.000000
outer loop
vertex 525.000000 -649.999878 600.000122
vertex 675.000000 -649.999878 600.000122
vertex 675.000000 -649.999878 900.000122
endloop
endfacet
facet normal 0.000000 -1.000000 0.000000
outer loop
vertex 525.000000 -649.999878 600.000122
vertex 675.000000 -649.999878 900.000122
vertex 525.000000 -649.999878 900.000122
endloop
endfacet
facet normal -1.000000 0.000000 0.000000
outer loop
vertex -675.000000 650.000122 599.999878
vertex -675.000000 -649.999878 600.000122
vertex -675.000000 -649.999878 900.000122
endloop
endfacet
facet normal -1.000000 0.000000 0.000000
outer loop
vertex -675.000000 650.000122 599.999878
vertex -675.000000 -649.999878 900.000122
vertex -675.000000 650.000122 899.999878
endloop
endfacet
facet normal -1.000000 0.000000 0.000000
outer loop
vertex -525.000000 -649.999878 600.000122
vertex -525.000000 -779.999878 600.000122
vertex -525.000000 -779.999878 900.000122
endloop
endfacet
facet normal -1.000000 0.000000 0.000000
outer loop
vertex -525.000000 -649.999878 600.000122
vertex -525.000000 -779.999878 900.000122
vertex -525.000000 -649.999878 900.000122
endloop
endfacet
facet normal 0.000000 1.000000 0.000000
outer loop
vertex 525.000000 780.000122 599.999878
vertex -525.000000 780.000122 599.999878
vertex -525.000000 780.000122 899.999878
endloop
endfacet
facet normal 0.000000 1.000000 0.000000
outer loop
vertex 525.000000 780.000122 599.999878
vertex -525.000000 780.000122 899.999878
vertex 525.000000 780.000122 899.999878
endloop
endfacet
facet normal 0.000000 1.000000 0.000000
outer loop
vertex 525.000000 780.000122 899.999878
vertex -525.000000 780.000122 899.999878
vertex -525.000000 780.000183 1199.999878
endloop
endfacet
facet normal 0.000000 1.000000 -0.000000
outer loop
vertex 525.000000 780.000122 899.999878
vertex -525.000000 780.000183 1199.999878
vertex 525.000000 780.000183 1199.999878
endloop
endfacet
facet normal 1.000000 0.000000 0.000000
outer loop
vertex 675.000000 -649.999878 900.000122
vertex 675.000000 650.000122 899.999878
vertex 675.000000 650.000183 1199.999878
endloop
endfacet
facet normal 1.000000 0.000000 0.000000
outer loop
vertex 675.000000 -649.999878 900.000122
vertex 675.000000 650.000183 1199.999878
vertex 675.000000 -649.999817 1200.000122
endloop
endfacet
facet normal 0.000000 -1.000000 0.000000
outer loop
vertex -675.000000 -649.999878 900.000122
vertex -525.000000 -649.999878 900.000122
vertex -525.000000 -649.999817 1200.000122
endloop
endfacet
facet normal 0.000000 -1.000000 0.000001
outer loop
vertex -675.000000 -649.999878 900.000122
vertex -525.000000 -649.999817 1200.000122
vertex -675.000000 -649.999817 1200.000122
endloop
endfacet
facet normal 0.000000 -1.000000 0.000000
outer loop
vertex -525.000000 -779.999878 900.000122
vertex 525.000000 -779.999878 900.000122
vertex 525.000000 -779.999817 1200.000122
endloop
endfacet
facet normal 0.000000 -1.000000 0.000000
outer loop
vertex -525.000000 -779.999878 900.000122
vertex 525.000000 -779.999817 1200.000122
vertex -525.000000 -779.999817 1200.000122
endloop
endfacet
facet normal -1.000000 0.000000 0.000000
outer loop
vertex -525.000000 780.000122 899.999878
vertex -525.000000 650.000122 899.999878
vertex -525.000000 650.000183 1199.999878
endloop
endfacet
facet normal -1.000000 0.000000 0.000000
outer loop
vertex -525.000000 780.000122 899.999878
vertex -525.000000 650.000183 1199.999878
vertex -525.000000 780.000183 1199.999878
endloop
endfacet
facet normal 0.000000 1.000000 0.000000
outer loop
vertex 675.000000 650.000122 899.999878
vertex 525.000000 650.000122 899.999878
vertex 525.000000 650.000183 1199.999878
endloop
endfacet
facet normal 0.000000 1.000000 -0.000001
outer loop
vertex 675.000000 650.000122 899.999878
vertex 525.000000 650.000183 1199.999878
vertex 675.000000 650.000183 1199.999878
endloop
endfacet
facet normal 1.000000 0.000000 0.000000
outer loop
vertex 525.000000 -779.999878 900.000122
vertex 525.000000 -649.999878 900.000122
vertex 525.000000 -649.999817 1200.000122
endloop
endfacet
facet normal 1.000000 0.000000 0.000000
outer loop
vertex 525.000000 -779.999878 900.000122
vertex 525.000000 -649.999817 1200.000122
vertex 525.000000 -779.999817 1200.000122
endloop
endfacet
facet normal 0.000000 1.000000 0.000000
outer loop
vertex -525.000000 650.000122 899.999878
vertex -675.000000 650.000122 899.999878
vertex -675.000000 650.000183 1199.999878
endloop
endfacet
facet normal 0.000000 1.000000 -0.000001
outer loop
vertex -525.000000 650.000122 899.999878
vertex -675.000000 650.000183 1199.999878
vertex -525.000000 650.000183 1199.999878
endloop
endfacet
facet normal 1.000000 0.000000 0.000000
outer loop
vertex 525.000000 650.000122 899.999878
vertex 525.000000 780.000122 899.999878
vertex 525.000000 780.000183 1199.999878
endloop
endfacet
facet normal 1.000000 0.000000 0.000000
outer loop
vertex 525.000000 650.000122 899.999878
vertex 525.000000 780.000183 1199.999878
vertex 525.000000 650.000183 1199.999878
endloop
endfacet
facet normal 0.000000 -1.000000 0.000000
outer loop
vertex 525.000000 -649.999878 900.000122
vertex 675.000000 -649.999878 900.000122
vertex 675.000000 -649.999817 1200.000122
endloop
endfacet
facet normal 0.000000 -1.000000 0.000001
outer loop
vertex 525.000000 -649.999878 900.000122
vertex 675.000000 -649.999817 1200.000122
vertex 525.000000 -649.999817 1200.000122
endloop
endfacet
facet normal -1.000000 0.000000 0.000000
outer loop
vertex -675.000000 650.000122 899.999878
vertex -675.000000 -649.999878 900.000122
vertex -675.000000 -649.999817 1200.000122
endloop
endfacet
facet normal -1.000000 0.000000 0.000000
outer loop
vertex -675.000000 650.000122 899.999878
vertex -675.000000 -649.999817 1200.000122
vertex -675.000000 650.000183 1199.999878
endloop
endfacet
facet normal -1.000000 0.000000 0.000000
outer loop
vertex -525.000000 -649.999878 900.000122
vertex -525.000000 -779.999878 900.000122
vertex -525.000000 -779.999817 1200.000122
endloop
endfacet
facet normal -1.000000 0.000000 0.000000
outer loop
vertex -525.000000 -649.999878 900.000122
vertex -525.000000 -779.999817 1200.000122
vertex -525.000000 -649.999817 1200.000122
endloop
endfacet
facet normal -1.000000 0.000000 0.000000
outer loop
vertex -525.000000 -649.999817 1200.000122
vertex -525.000000 -779.999817 1200.000122
vertex -525.000000 -779.999756 1500.000122
endloop
endfacet
facet normal -1.000000 0.000000 0.000000
outer loop
vertex -525.000000 -649.999817 1200.000122
vertex -525.000000 -779.999756 1500.000122
vertex -525.000000 -649.999756 1500.000122
endloop
endfacet
facet normal 0.000000 1.000000 -0.000000
outer loop
vertex 525.000000 780.000183 1199.999878
vertex -525.000000 780.000183 1199.999878
vertex -525.000000 780.000244 1499.999878
endloop
endfacet
facet normal 0.000000 1.000000 0.000000
outer loop
vertex 525.000000 780.000183 1199.999878
vertex -525.000000 780.000244 1499.999878
vertex 525.000000 780.000244 1499.999878
endloop
endfacet
facet normal 1.000000 0.000000 0.000000
outer loop
vertex 675.000000 -649.999817 1200.000122
vertex 675.000000 650.000183 1199.999878
vertex 675.000000 650.000244 1499.999878
endloop
endfacet
facet normal 1.000000 0.000000 0.000000
outer loop
vertex 675.000000 -649.999817 1200.000122
vertex 675.000000 650.000244 1499.999878
vertex 675.000000 -649.999756 1500.000122
endloop
endfacet
facet normal 0.000000 -1.000000 0.000000
outer loop
vertex -675.000000 -649.999817 1200.000122
vertex -525.000000 -649.999817 1200.000122
vertex -525.000000 -649.999756 1500.000122
endloop
endfacet
facet normal 0.000000 -1.000000 0.000000
outer loop
vertex -675.000000 -649.999817 1200.000122
vertex -525.000000 -649.999756 1500.000122
vertex -675.000000 -649.999756 1500.000122
endloop
endfacet
facet normal 0.000000 -1.000000 0.000000
outer loop
vertex -525.000000 -779.999817 1200.000122
vertex 525.000000 -779.999817 1200.000122
vertex 525.000000 -779.999756 1500.000122
endloop
endfacet
facet normal 0.000000 -1.000000 0.000000
outer loop
vertex -525.000000 -779.999817 1200.000122
vertex 525.000000 -779.999756 1500.000122
vertex -525.000000 -779.999756 1500.000122
endloop
endfacet
facet normal -1.000000 0.000000 0.000000
outer loop
vertex -525.000000 780.000183 1199.999878
vertex -525.000000 650.000183 1199.999878
vertex -525.000000 650.000244 1499.999878
endloop
endfacet
facet normal -1.000000 0.000000 0.000000
outer loop
vertex -525.000000 780.000183 1199.999878
vertex -525.000000 650.000244 1499.999878
vertex -525.000000 780.000244 1499.999878
endloop
endfacet
facet normal 0.000000 1.000000 -0.000000
outer loop
vertex 675.000000 650.000183 1199.999878
vertex 525.000000 650.000183 1199.999878
vertex 525.000000 650.000244 1499.999878
endloop
endfacet
facet normal 0.000000 1.000000 0.000000
outer loop
vertex 675.000000 650.000183 1199.999878
vertex 525.000000 650.000244 1499.999878
vertex 675.000000 650.000244 1499.999878
endloop
endfacet
facet normal 1.000000 0.000000 0.000000
outer loop
vertex 525.000000 -779.999817 1200.000122
vertex 525.000000 -649.999817 1200.000122
vertex 525.000000 -649.999756 1500.000122
endloop
endfacet
facet normal 1.000000 0.000000 0.000000
outer loop
vertex 525.000000 -779.999817 1200.000122
vertex 525.000000 -649.999756 1500.000122
vertex 525.000000 -779.999756 1500.000122
endloop
endfacet
facet normal 0.000000 1.000000 -0.000000
outer loop
vertex -525.000000 650.000183 1199.999878
vertex -675.000000 650.000183 1199.999878
vertex -675.000000 650.000244 1499.999878
endloop
endfacet
facet normal 0.000000 1.000000 0.000000
outer loop
vertex -525.000000 650.000183 1199.999878
vertex -675.000000 650.000244 1499.999878
vertex -525.000000 650.000244 1499.999878
endloop
endfacet
facet normal 1.000000 0.000000 0.000000
outer loop
vertex 525.000000 650.000183 1199.999878
vertex 525.000000 780.000183 1199.999878
vertex 525.000000 780.000244 1499.999878
endloop
endfacet
facet normal 1.000000 0.000000 0.000000
outer loop
vertex 525.000000 650.000183 1199.999878
vertex 525.000000 780.000244 1499.999878
vertex 525.000000 650.000244 1499.999878
endloop
endfacet
facet normal 0.000000 -1.000000 0.000000
outer loop
vertex 525.000000 -649.999817 1200.000122
vertex 675.000000 -649.999817 1200.000122
vertex 675.000000 -649.999756 1500.000122
endloop
endfacet
facet normal 0.000000 -1.000000 0.000000
outer loop
vertex 525.000000 -649.999817 1200.000122
vertex 675.000000 -649.999756 1500.000122
vertex 525.000000 -649.999756 1500.000122
endloop
endfacet
facet normal -1.000000 0.000000 0.000000
outer loop
vertex -675.000000 650.000183 1199.999878
vertex -675.000000 -649.999817 1200.000122
vertex -675.000000 -649.999756 1500.000122
endloop
endfacet
facet normal -1.000000 0.000000 0.000000
outer loop
vertex -675.000000 650.000183 1199.999878
vertex -675.000000 -649.999756 1500.000122
vertex -675.000000 650.000244 1499.999878
endloop
endfacet
facet normal -1.000000 0.000000 0.000000
outer loop
vertex -675.000000 650.000244 1499.999878
vertex -675.000000 -649.999756 1500.000122
vertex -675.000000 -649.999695 1800.000122
endloop
endfacet
facet normal -1.000000 0.000000 0.000000
outer loop
vertex -675.000000 650.000244 1499.999878
vertex -675.000000 -649.999695 1800.000122
vertex -675.000000 650.000305 1799.999878
endloop
endfacet
facet normal -1.000000 0.000000 0.000000
outer loop
vertex -525.000000 -649.999756 1500.000122
vertex -525.000000 -779.999756 1500.000122
vertex -525.000000 -779.999695 1800.000122
endloop
endfacet
facet normal -1.000000 0.000000 0.000000
outer loop
vertex -525.000000 -649.999756 1500.000122
vertex -525.000000 -779.999695 1800.000122
vertex -525.000000 -649.999695 1800.000122
endloop
endfacet
facet normal 0.000000 1.000000 0.000000
outer loop
vertex 525.000000 780.000244 1499.999878
vertex -525.000000 780.000244 1499.999878
vertex -525.000000 780.000305 1799.999878
endloop
endfacet
facet normal 0.000000 1.000000 -0.000000
outer loop
vertex 525.000000 780.000244 1499.999878
vertex -525.000000 780.000305 1799.999878
vertex 525.000000 780.000305 1799.999878
endloop
endfacet
facet normal 1.000000 0.000000 0.000000
outer loop
vertex 675.000000 -649.999756 1500.000122
vertex 675.000000 650.000244 1499.999878
vertex 675.000000 650.000305 1799.999878
endloop
endfacet
facet normal 1.000000 0.000000 0.000000
outer loop
vertex 675.000000 -649.999756 1500.000122
vertex 675.000000 650.000305 1799.999878
vertex 675.000000 -649.999695 1800.000122
endloop
endfacet
facet normal 0.000000 -1.000000 0.000000
outer loop
vertex -675.000000 -649.999756 1500.000122
vertex -525.000000 -649.999756 1500.000122
vertex -525.000000 -649.999695 1800.000122
endloop
endfacet
facet normal 0.000000 -1.000000 0.000000
outer loop
vertex -675.000000 -649.999756 1500.000122
vertex -525.000000 -649.999695 1800.000122
vertex -675.000000 -649.999695 1800.000122
endloop
endfacet
facet normal 0.000000 -1.000000 0.000000
outer loop
vertex -525.000000 -779.999756 1500.000122
vertex 525.000000 -779.999756 1500.000122
vertex 525.000000 -779.999695 1800.000122
endloop
endfacet
facet normal 0.000000 -1.000000 0.000000
outer loop
vertex -525.000000 -779.999756 1500.000122
vertex 525.000000 -779.999695 1800.000122
vertex -525.000000 -779.999695 1800.000122
endloop
endfacet
facet normal -1.000000 0.000000 0.000000
outer loop
vertex -525.000000 780.000244 1499.999878
vertex -525.000000 650.000244 1499.999878
vertex -525.000000 650.000305 1799.999878
endloop
endfacet
facet normal -1.000000 0.000000 0.000000
outer loop
vertex -525.000000 780.000244 1499.999878
vertex -525.000000 650.000305 1799.999878
vertex -525.000000 780.000305 1799.999878
endloop
endfacet
facet normal 0.000000 1.000000 0.000000
outer loop
vertex 675.000000 650.000244 1499.999878
vertex 525.000000 650.000244 1499.999878
vertex 525.000000 650.000305 1799.999878
endloop
endfacet
facet normal 0.000000 1.000000 -0.000000
outer loop
vertex 675.000000 650.000244 1499.999878
vertex 525.000000 650.000305 1799.999878
vertex 675.000000 650.000305 1799.999878
endloop
endfacet
facet normal 1.000000 0.000000 0.000000
outer loop
vertex 525.000000 -779.999756 1500.000122
vertex 525.000000 -649.999756 1500.000122
vertex 525.000000 -649.999695 1800.000122
endloop
endfacet
facet normal 1.000000 0.000000 0.000000
outer loop
vertex 525.000000 -779.999756 1500.000122
vertex 525.000000 -649.999695 1800.000122
vertex 525.000000 -779.999695 1800.000122
endloop
endfacet
facet normal 0.000000 1.000000 0.000000
outer loop
vertex -525.000000 650.000244 1499.999878
vertex -675.000000 650.000244 1499.999878
vertex -675.000000 650.000305 1799.999878
endloop
endfacet
facet normal 0.000000 1.000000 -0.000000
outer loop
vertex -525.000000 650.000244 1499.999878
vertex -675.000000 650.000305 1799.999878
vertex -525.000000 650.000305 1799.999878
endloop
endfacet
facet normal 1.000000 0.000000 0.000000
outer loop
vertex 525.000000 650.000244 1499.999878
vertex 525.000000 780.000244 1499.999878
vertex 525.000000 780.000305 1799.999878
endloop
endfacet
facet normal 1.000000 0.000000 0.000000
outer loop
vertex 525.000000 650.000244 1499.999878
vertex 525.000000 780.000305 1799.999878
vertex 525.000000 650.000305 1799.999878
endloop
endfacet
facet normal 0.000000 -1.000000 0.000000
outer loop
vertex 525.000000 -649.999756 1500.000122
vertex 675.000000 -649.999756 1500.000122
vertex 675.000000 -649.999695 1800.000122
endloop
endfacet
facet normal 0.000000 -1.000000 0.000000
outer loop
vertex 525.000000 -649.999756 1500.000122
vertex 675.000000 -649.999695 1800.000122
vertex 525.000000 -649.999695 1800.000122
endloop
endfacet
endsolid building_033
