solid building_003.002
facet normal 1.000000 -0.000000 0.000000
outer loop
vertex 500.000000 -500.000000 0.000081
vertex 500.000000 -62.542938 0.000010
vertex 500.000000 -62.542866 450.000000
endloop
endfacet
facet normal 1.000000 0.000000 0.000000
outer loop
vertex 500.000000 -500.000000 0.000081
vertex 500.000000 -62.542866 450.000000
vertex 500.000000 -499.999939 450.000092
endloop
endfacet
facet normal 0.000000 0.000000 1.000000
outer loop
vertex -500.000000 500.000427 2700.000000
vertex -500.000000 -499.999573 2700.000000
vertex 500.000000 -499.999573 2700.000000
endloop
endfacet
facet normal 0.000000 0.000000 1.000000
outer loop
vertex 500.000000 -62.542500 2700.000000
vertex 849.369141 -62.542500 2700.000000
vertex 849.369141 524.947693 2700.000000
endloop
endfacet
facet normal 0.000000 0.000000 1.000000
outer loop
vertex -500.000000 500.000427 2700.000000
vertex 500.000000 -499.999573 2700.000000
vertex 500.000000 -62.542500 2700.000000
endloop
endfacet
facet normal 0.000000 0.000000 1.000000
outer loop
vertex 849.369141 524.947693 2700.000000
vertex 500.000000 524.947693 2700.000000
vertex 500.000000 500.000427 2700.000000
endloop
endfacet
facet normal 0.000000 0.000000 1.000000
outer loop
vertex 500.000000 500.000427 2700.000000
vertex -500.000000 500.000427 2700.000000
vertex 500.000000 -62.542500 2700.000000
endloop
endfacet
facet normal -0.000000 0.000000 1.000000
outer loop
vertex 500.000000 -62.542500 2700.000000
vertex 849.369141 524.947693 2700.000000
vertex 500.000000 500.000427 2700.000000
endloop
endfacet
facet normal -1.000000 0.000000 0.000000
outer loop
vertex 500.000000 524.947266 -0.000086
vertex 500.000000 500.000000 -0.000081
vertex 500.000000 500.000061 449.999908
endloop
endfacet
facet normal -1.000000 0.000000 0.000000
outer loop
vertex 500.000000 524.947266 -0.000086
vertex 500.000000 500.000061 449.999908
vertex 500.000000 524.947327 449.999908
endloop
endfacet
facet normal -1.000000 -0.000000 0.000000
outer loop
vertex -500.000000 500.000000 -0.000081
vertex -500.000000 -500.000000 0.000081
vertex -500.000000 -499.999939 450.000092
endloop
endfacet
facet normal -1.000000 0.000000 0.000000
outer loop
vertex -500.000000 500.000000 -0.000081
vertex -500.000000 -499.999939 450.000092
vertex -500.000000 500.000061 449.999908
endloop
endfacet
facet normal 0.000000 1.000000 0.000000
outer loop
vertex 849.369141 524.947266 -0.000086
vertex 500.000000 524.947266 -0.000086
vertex 500.000000 524.947327 449.999908
endloop
endfacet
facet normal 0.000000 1.000000 -0.000000
outer loop
vertex 849.369141 524.947266 -0.000086
vertex 500.000000 524.947327 449.999908
vertex 849.369141 524.947327 449.999908
endloop
endfacet
facet normal 0.000000 1.000000 -0.000000
outer loop
vertex 500.000000 500.000000 -0.000081
vertex -500.000000 500.000000 -0.000081
vertex -500.000000 500.000061 449.999908
endloop
endfacet
facet normal 0.000000 1.000000 -0.000000
outer loop
vertex 500.000000 500.000000 -0.000081
vertex -500.000000 500.000061 449.999908
vertex 500.000000 500.000061 449.999908
endloop
endfacet
facet normal 0.000000 -1.000000 0.000000
outer loop
vertex -500.000000 -500.000000 0.000081
vertex 500.000000 -500.000000 0.000081
vertex 500.000000 -499.999939 450.000092
endloop
endfacet
facet normal 0.000000 -1.000000 0.000000
outer loop
vertex -500.000000 -500.000000 0.000081
vertex 500.000000 -499.999939 450.000092
vertex -500.000000 -499.999939 450.000092
endloop
endfacet
facet normal 0.000000 -1.000000 0.000000
outer loop
vertex 500.000000 -62.542938 0.000010
vertex 849.369141 -62.542938 0.000010
vertex 849.369141 -62.542866 450.000000
endloop
endfacet
facet normal 0.000000 -1.000000 0.000000
outer loop
vertex 500.000000 -62.542938 0.000010
vertex 849.369141 -62.542866 450.000000
vertex 500.000000 -62.542866 450.000000
endloop
endfacet
facet normal 1.000000 0.000000 0.000000
outer loop
vertex 849.369141 -62.542938 0.000010
vertex 849.369141 524.947266 -0.000086
vertex 849.369141 524.947327 449.999908
endloop
endfacet
facet normal 1.000000 0.000000 0.000000
outer loop
vertex 849.369141 -62.542938 0.000010
vertex 849.369141 524.947327 449.999908
vertex 849.369141 -62.542866 450.000000
endloop
endfacet
facet normal -1.000000 0.000000 0.000000
outer loop
vertex -500.000000 500.000061 449.999908
vertex -500.000000 -499.999939 450.000092
vertex -500.000000 -499.999847 900.000061
endloop
endfacet
facet normal -1.000000 0.000000 0.000000
outer loop
vertex -500.000000 500.000061 449.999908
vertex -500.000000 -499.999847 900.000061
vertex -500.000000 500.000153 899.999939
endloop
endfacet
facet normal -1.000000 0.000000 0.000000
outer loop
vertex 500.000000 524.947327 449.999908
vertex 500.000000 500.000061 449.999908
vertex 500.000000 500.000153 899.999939
endloop
endfacet
facet normal -1.000000 0.000000 0.000000
outer loop
vertex 500.000000 524.947327 449.999908
vertex 500.000000 500.000153 899.999939
vertex 500.000000 524.947388 899.999939
endloop
endfacet
facet normal 1.000000 0.000000 0.000000
outer loop
vertex 849.369141 -62.542866 450.000000
vertex 849.369141 524.947327 449.999908
vertex 849.369141 524.947388 899.999939
endloop
endfacet
facet normal 1.000000 0.000000 0.000000
outer loop
vertex 849.369141 -62.542866 450.000000
vertex 849.369141 524.947388 899.999939
vertex 849.369141 -62.542793 900.000000
endloop
endfacet
facet normal 1.000000 0.000000 0.000000
outer loop
vertex 500.000000 -499.999939 450.000092
vertex 500.000000 -62.542866 450.000000
vertex 500.000000 -62.542793 900.000000
endloop
endfacet
facet normal 1.000000 0.000000 0.000000
outer loop
vertex 500.000000 -499.999939 450.000092
vertex 500.000000 -62.542793 900.000000
vertex 500.000000 -499.999847 900.000061
endloop
endfacet
facet normal 0.000000 -1.000000 0.000000
outer loop
vertex -500.000000 -499.999939 450.000092
vertex 500.000000 -499.999939 450.000092
vertex 500.000000 -499.999847 900.000061
endloop
endfacet
facet normal 0.000000 -1.000000 0.000000
outer loop
vertex -500.000000 -499.999939 450.000092
vertex 500.000000 -499.999847 900.000061
vertex -500.000000 -499.999847 900.000061
endloop
endfacet
facet normal 0.000000 1.000000 -0.000000
outer loop
vertex 500.000000 500.000061 449.999908
vertex -500.000000 500.000061 449.999908
vertex -500.000000 500.000153 899.999939
endloop
endfacet
facet normal 0.000000 1.000000 -0.000000
outer loop
vertex 500.000000 500.000061 449.999908
vertex -500.000000 500.000153 899.999939
vertex 500.000000 500.000153 899.999939
endloop
endfacet
facet normal 0.000000 1.000000 -0.000000
outer loop
vertex 849.369141 524.947327 449.999908
vertex 500.000000 524.947327 449.999908
vertex 500.000000 524.947388 899.999939
endloop
endfacet
facet normal 0.000000 1.000000 0.000000
outer loop
vertex 849.369141 524.947327 449.999908
vertex 500.000000 524.947388 899.999939
vertex 849.369141 524.947388 899.999939
endloop
endfacet
facet normal 0.000000 -1.000000 0.000000
outer loop
vertex 500.000000 -62.542866 450.000000
vertex 849.369141 -62.542866 450.000000
vertex 849.369141 -62.542793 900.000000
endloop
endfacet
facet normal 0.000000 -1.000000 0.000000
outer loop
vertex 500.000000 -62.542866 450.000000
vertex 849.369141 -62.542793 900.000000
vertex 500.000000 -62.542793 900.000000
endloop
endfacet
facet normal 0.000000 -1.000000 0.000000
outer loop
vertex 500.000000 -62.542793 900.000000
vertex 849.369141 -62.542793 900.000000
vertex 849.369141 -62.542717 1350.000000
endloop
endfacet
facet normal 0.000000 -1.000000 0.000000
outer loop
vertex 500.000000 -62.542793 900.000000
vertex 849.369141 -62.542717 1350.000000
vertex 500.000000 -62.542717 1350.000000
endloop
endfacet
facet normal 0.000000 -1.000000 0.000000
outer loop
vertex -500.000000 -499.999847 900.000061
vertex 500.000000 -499.999847 900.000061
vertex 500.000000 -499.999786 1350.000122
endloop
endfacet
facet normal 0.000000 -1.000000 0.000000
outer loop
vertex -500.000000 -499.999847 900.000061
vertex 500.000000 -499.999786 1350.000122
vertex -500.000000 -499.999786 1350.000122
endloop
endfacet
facet normal -1.000000 0.000000 0.000000
outer loop
vertex -500.000000 500.000153 899.999939
vertex -500.000000 -499.999847 900.000061
vertex -500.000000 -499.999786 1350.000122
endloop
endfacet
facet normal -1.000000 0.000000 0.000000
outer loop
vertex -500.000000 500.000153 899.999939
vertex -500.000000 -499.999786 1350.000122
vertex -500.000000 500.000214 1349.999878
endloop
endfacet
facet normal -1.000000 0.000000 0.000000
outer loop
vertex 500.000000 524.947388 899.999939
vertex 500.000000 500.000153 899.999939
vertex 500.000000 500.000214 1349.999878
endloop
endfacet
facet normal -1.000000 0.000000 0.000000
outer loop
vertex 500.000000 524.947388 899.999939
vertex 500.000000 500.000214 1349.999878
vertex 500.000000 524.947510 1349.999878
endloop
endfacet
facet normal 1.000000 0.000000 0.000000
outer loop
vertex 849.369141 -62.542793 900.000000
vertex 849.369141 524.947388 899.999939
vertex 849.369141 524.947510 1349.999878
endloop
endfacet
facet normal 1.000000 0.000000 0.000000
outer loop
vertex 849.369141 -62.542793 900.000000
vertex 849.369141 524.947510 1349.999878
vertex 849.369141 -62.542717 1350.000000
endloop
endfacet
facet normal 1.000000 0.000000 0.000000
outer loop
vertex 500.000000 -499.999847 900.000061
vertex 500.000000 -62.542793 900.000000
vertex 500.000000 -62.542717 1350.000000
endloop
endfacet
facet normal 1.000000 0.000000 0.000000
outer loop
vertex 500.000000 -499.999847 900.000061
vertex 500.000000 -62.542717 1350.000000
vertex 500.000000 -499.999786 1350.000122
endloop
endfacet
facet normal 0.000000 1.000000 -0.000000
outer loop
vertex 500.000000 500.000153 899.999939
vertex -500.000000 500.000153 899.999939
vertex -500.000000 500.000214 1349.999878
endloop
endfacet
facet normal 0.000000 1.000000 -0.000000
outer loop
vertex 500.000000 500.000153 899.999939
vertex -500.000000 500.000214 1349.999878
vertex 500.000000 500.000214 1349.999878
endloop
endfacet
facet normal 0.000000 1.000000 -0.000000
outer loop
vertex 849.369141 524.947388 899.999939
vertex 500.000000 524.947388 899.999939
vertex 500.000000 524.947510 1349.999878
endloop
endfacet
facet normal 0.000000 1.000000 -0.000000
outer loop
vertex 849.369141 524.947388 899.999939
vertex 500.000000 524.947510 1349.999878
vertex 849.369141 524.947510 1349.999878
endloop
endfacet
facet normal 0.000000 1.000000 -0.000000
outer loop
vertex 500.000000 500.000214 1349.999878
vertex -500.000000 500.000214 1349.999878
vertex -500.000000 500.000305 1799.999878
endloop
endfacet
facet normal 0.000000 1.000000 -0.000000
outer loop
vertex 500.000000 500.000214 1349.999878
vertex -500.000000 500.000305 1799.999878
vertex 500.000000 500.000305 1799.999878
endloop
endfacet
facet normal 0.000000 1.000000 0.000000
outer loop
vertex 849.369141 524.947510 1349.999878
vertex 500.000000 524.947510 1349.999878
vertex 500.000000 524.947571 1799.999878
endloop
endfacet
facet normal 0.000000 1.000000 -0.000000
outer loop
vertex 849.369141 524.947510 1349.999878
vertex 500.000000 524.947571 1799.999878
vertex 849.369141 524.947571 1799.999878
endloop
endfacet
facet normal 0.000000 -1.000000 0.000000
outer loop
vertex 500.000000 -62.542717 1350.000000
vertex 849.369141 -62.542717 1350.000000
vertex 849.369141 -62.542645 1800.000000
endloop
endfacet
facet normal 0.000000 -1.000000 0.000000
outer loop
vertex 500.000000 -62.542717 1350.000000
vertex 849.369141 -62.542645 1800.000000
vertex 500.000000 -62.542645 1800.000000
endloop
endfacet
facet normal 0.000000 -1.000000 0.000000
outer loop
vertex -500.000000 -499.999786 1350.000122
vertex 500.000000 -499.999786 1350.000122
vertex 500.000000 -499.999695 1800.000122
endloop
endfacet
facet normal 0.000000 -1.000000 0.000000
outer loop
vertex -500.000000 -499.999786 1350.000122
vertex 500.000000 -499.999695 1800.000122
vertex -500.000000 -499.999695 1800.000122
endloop
endfacet
facet normal -1.000000 0.000000 0.000000
outer loop
vertex -500.000000 500.000214 1349.999878
vertex -500.000000 -499.999786 1350.000122
vertex -500.000000 -499.999695 1800.000122
endloop
endfacet
facet normal -1.000000 0.000000 0.000000
outer loop
vertex -500.000000 500.000214 1349.999878
vertex -500.000000 -499.999695 1800.000122
vertex -500.000000 500.000305 1799.999878
endloop
endfacet
facet normal -1.000000 0.000000 0.000000
outer loop
vertex 500.000000 524.947510 1349.999878
vertex 500.000000 500.000214 1349.999878
vertex 500.000000 500.000305 1799.999878
endloop
endfacet
facet normal -1.000000 0.000000 0.000000
outer loop
vertex 500.000000 524.947510 1349.999878
vertex 500.000000 500.000305 1799.999878
vertex 500.000000 524.947571 1799.999878
endloop
endfacet
facet normal 1.000000 -0.000000 0.000000
outer loop
vertex 849.369141 -62.542717 1350.000000
vertex 849.369141 524.947510 1349.999878
vertex 849.369141 524.947571 1799.999878
endloop
endfacet
facet normal 1.000000 0.000000 0.000000
outer loop
vertex 849.369141 -62.542717 1350.000000
vertex 849.369141 524.947571 1799.999878
vertex 849.369141 -62.542645 1800.000000
endloop
endfacet
facet normal 1.000000 0.000000 0.000000
outer loop
vertex 500.000000 -499.999786 1350.000122
vertex 500.000000 -62.542717 1350.000000
vertex 500.000000 -62.542645 1800.000000
endloop
endfacet
facet normal 1.000000 0.000000 0.000000
outer loop
vertex 500.000000 -499.999786 1350.000122
vertex 500.000000 -62.542645 1800.000000
vertex 500.000000 -499.999695 1800.000122
endloop
endfacet
facet normal 1.000000 0.000000 0.000000
outer loop
vertex 849.369141 -62.542645 1800.000000
vertex 849.369141 524.947571 1799.999878
vertex 849.369141 524.947632 2250.000000
endloop
endfacet
facet normal 1.000000 0.000000 0.000000
outer loop
vertex 849.369141 -62.542645 1800.000000
vertex 849.369141 524.947632 2250.000000
vertex 849.369141 -62.542572 2250.000000
endloop
endfacet
facet normal 1.000000 0.000000 0.000000
outer loop
vertex 500.000000 -499.999695 1800.000122
vertex 500.000000 -62.542645 1800.000000
vertex 500.000000 -62.542572 2250.000000
endloop
endfacet
facet normal 1.000000 0.000000 0.000000
outer loop
vertex 500.000000 -499.999695 1800.000122
vertex 500.000000 -62.542572 2250.000000
vertex 500.000000 -499.999634 2250.000000
endloop
endfacet
facet normal 0.000000 1.000000 -0.000000
outer loop
vertex 500.000000 500.000305 1799.999878
vertex -500.000000 500.000305 1799.999878
vertex -500.000000 500.000366 2250.000000
endloop
endfacet
facet normal 0.000000 1.000000 -0.000000
outer loop
vertex 500.000000 500.000305 1799.999878
vertex -500.000000 500.000366 2250.000000
vertex 500.000000 500.000366 2250.000000
endloop
endfacet
facet normal 0.000000 1.000000 -0.000000
outer loop
vertex 849.369141 524.947571 1799.999878
vertex 500.000000 524.947571 1799.999878
vertex 500.000000 524.947632 2250.000000
endloop
endfacet
facet normal 0.000000 1.000000 0.000000
outer loop
vertex 849.369141 524.947571 1799.999878
vertex 500.000000 524.947632 2250.000000
vertex 849.369141 524.947632 2250.000000
endloop
endfacet
facet normal 0.000000 -1.000000 0.000000
outer loop
vertex 500.000000 -62.542645 1800.000000
vertex 849.369141 -62.542645 1800.000000
vertex 849.369141 -62.542572 2250.000000
endloop
endfacet
facet normal 0.000000 -1.000000 0.000000
outer loop
vertex 500.000000 -62.542645 1800.000000
vertex 849.369141 -62.542572 2250.000000
vertex 500.000000 -62.542572 2250.000000
endloop
endfacet
facet normal 0.000000 -1.000000 0.000000
outer loop
vertex -500.000000 -499.999695 1800.000122
vertex 500.000000 -499.999695 1800.000122
vertex 500.000000 -499.999634 2250.000000
endloop
endfacet
facet normal 0.000000 -1.000000 0.000000
outer loop
vertex -500.000000 -499.999695 1800.000122
vertex 500.000000 -499.999634 2250.000000
vertex -500.000000 -499.999634 2250.000000
endloop
endfacet
facet normal -1.000000 0.000000 0.000000
outer loop
vertex -500.000000 500.000305 1799.999878
vertex -500.000000 -499.999695 1800.000122
vertex -500.000000 -499.999634 2250.000000
endloop
endfacet
facet normal -1.000000 0.000000 0.000000
outer loop
vertex -500.000000 500.000305 1799.999878
vertex -500.000000 -499.999634 2250.000000
vertex -500.000000 500.000366 2250.000000
endloop
endfacet
facet normal -1.000000 0.000000 0.000000
outer loop
vertex 500.000000 524.947571 1799.999878
vertex 500.000000 500.000305 1799.999878
vertex 500.000000 500.000366 2250.000000
endloop
endfacet
facet normal -1.000000 0.000000 0.000000
outer loop
vertex 500.000000 524.947571 1799.999878
vertex 500.000000 500.000366 2250.000000
vertex 500.000000 524.947632 2250.000000
endloop
endfacet
facet normal -1.000000 0.000000 0.000000
outer loop
vertex -500.000000 500.000366 2250.000000
vertex -500.000000 -499.999634 2250.000000
vertex -500.000000 -499.999573 2700.000000
endloop
endfacet
facet normal -1.000000 0.000000 0.000000
outer loop
vertex -500.000000 500.000366 2250.000000
vertex -500.000000 -499.999573 2700.000000
vertex -500.000000 500.000427 2700.000000
endloop
endfacet
facet normal -1.000000 0.000000 0.000000
outer loop
vertex 500.000000 524.947632 2250.000000
vertex 500.000000 500.000366 2250.000000
vertex 500.000000 500.000427 2700.000000
endloop
endfacet
facet normal -1.000000 0.000000 0.000000
outer loop
vertex 500.000000 524.947632 2250.000000
vertex 500.000000 500.000427 2700.000000
vertex 500.000000 524.947693 2700.000000
endloop
endfacet
facet normal 1.000000 0.000000 0.000000
outer loop
vertex 849.369141 -62.542572 2250.000000
vertex 849.369141 524.947632 2250.000000
vertex 849.369141 524.947693 2700.000000
endloop
endfacet
facet normal 1.000000 0.000000 0.000000
outer loop
vertex 849.369141 -62.542572 2250.000000
vertex 849.369141 524.947693 2700.000000
vertex 849.369141 -62.542500 2700.000000
endloop
endfacet
facet normal 1.000000 0.000000 0.000000
outer loop
vertex 500.000000 -499.999634 2250.000000
vertex 500.000000 -62.542572 2250.000000
vertex 500.000000 -62.542500 2700.000000
endloop
endfacet
facet normal 1.000000 0.000000 0.000000
outer loop
vertex 500.000000 -499.999634 2250.000000
vertex 500.000000 -62.542500 2700.000000
vertex 500.000000 -499.999573 2700.000000
endloop
endfacet
facet normal 0.000000 1.000000 -0.000000
outer loop
vertex 500.000000 500.000366 2250.000000
vertex -500.000000 500.000366 2250.000000
vertex -500.000000 500.000427 2700.000000
endloop
endfacet
facet normal 0.000000 1.000000 -0.000000
outer loop
vertex 500.000000 500.000366 2250.000000
vertex -500.000000 500.000427 2700.000000
vertex 500.000000 500.000427 2700.000000
endloop
endfacet
facet normal 0.000000 1.000000 0.000000
outer loop
vertex 849.369141 524.947632 2250.000000
vertex 500.000000 524.947632 2250.000000
vertex 500.000000 524.947693 2700.000000
endloop
endfacet
facet normal 0.000000 1.000000 -0.000000
outer loop
vertex 849.369141 524.947632 2250.000000
vertex 500.000000 524.947693 2700.000000
vertex 849.369141 524.947693 2700.000000
endloop
endfacet
facet normal 0.000000 -1.000000 0.000000
outer loop
vertex 500.000000 -62.542572 2250.000000
vertex 849.369141 -62.542572 2250.000000
vertex 849.369141 -62.542500 2700.000000
endloop
endfacet
facet normal 0.000000 -1.000000 0.000000
outer loop
vertex 500.000000 -62.542572 2250.000000
vertex 849.369141 -62.542500 2700.000000
vertex 500.000000 -62.542500 2700.000000
endloop
endfacet
facet normal 0.000000 -1.000000 0.000000
outer loop
vertex -500.000000 -499.999634 2250.000000
vertex 500.000000 -499.999634 2250.000000
vertex 500.000000 -499.999573 2700.000000
endloop
endfacet
facet normal 0.000000 -1.000000 0.000000
outer loop
vertex -500.000000 -499.999634 2250.000000
vertex 500.000000 -499.999573 2700.000000
vertex -500.000000 -499.999573 2700.000000
endloop
endfacet
endsolid building_003.002
