solid building_010
facet normal 0.000000 0.000000 1.000000
outer loop
vertex -375.000000 -599.999329 4050.000000
vertex 375.000000 -599.999329 4050.000000
vertex 375.000000 600.000671 4050.000000
endloop
endfacet
facet normal 0.000000 0.000000 1.000000
outer loop
vertex -375.000000 -599.999329 4050.000000
vertex 375.000000 600.000671 4050.000000
vertex -375.000000 600.000671 4050.000000
endloop
endfacet
facet normal 1.000000 0.000000 0.000000
outer loop
vertex 375.000000 -600.000000 0.000098
vertex 375.000000 600.000000 -0.000098
vertex 375.000000 600.000061 449.999908
endloop
endfacet
facet normal 1.000000 -0.000000 0.000000
outer loop
vertex 375.000000 -600.000000 0.000098
vertex 375.000000 600.000061 449.999908
vertex 375.000000 -599.999939 450.000092
endloop
endfacet
facet normal -1.000000 0.000000 0.000000
outer loop
vertex -375.000000 600.000000 -0.000098
vertex -375.000000 -600.000000 0.000098
vertex -375.000000 -599.999939 450.000092
endloop
endfacet
facet normal -1.000000 -0.000000 0.000000
outer loop
vertex -375.000000 600.000000 -0.000098
vertex -375.000000 -599.999939 450.000092
vertex -375.000000 600.000061 449.999908
endloop
endfacet
facet normal 0.000000 1.000000 0.000000
outer loop
vertex 375.000000 600.000000 -0.000098
vertex -375.000000 600.000000 -0.000098
vertex -375.000000 600.000061 449.999908
endloop
endfacet
facet normal 0.000000 1.000000 -0.000000
outer loop
vertex 375.000000 600.000000 -0.000098
vertex -375.000000 600.000061 449.999908
vertex 375.000000 600.000061 449.999908
endloop
endfacet
facet normal 0.000000 -1.000000 0.000000
outer loop
vertex -375.000000 -600.000000 0.000098
vertex 375.000000 -600.000000 0.000098
vertex 375.000000 -599.999939 450.000092
endloop
endfacet
facet normal 0.000000 -1.000000 0.000000
outer loop
vertex -375.000000 -600.000000 0.000098
vertex 375.000000 -599.999939 450.000092
vertex -375.000000 -599.999939 450.000092
endloop
endfacet
facet normal -1.000000 0.000000 0.000000
outer loop
vertex -375.000000 600.000061 449.999908
vertex -375.000000 -599.999939 450.000092
vertex -375.000000 -599.999878 900.000122
endloop
endfacet
facet normal -1.000000 0.000000 0.000000
outer loop
vertex -375.000000 600.000061 449.999908
vertex -375.000000 -599.999878 900.000122
vertex -375.000000 600.000122 899.999878
endloop
endfacet
facet normal 1.000000 0.000000 0.000000
outer loop
vertex 375.000000 -599.999939 450.000092
vertex 375.000000 600.000061 449.999908
vertex 375.000000 600.000122 899.999878
endloop
endfacet
facet normal 1.000000 0.000000 0.000000
outer loop
vertex 375.000000 -599.999939 450.000092
vertex 375.000000 600.000122 899.999878
vertex 375.000000 -599.999878 900.000122
endloop
endfacet
facet normal 0.000000 1.000000 -0.000000
outer loop
vertex 375.000000 600.000061 449.999908
vertex -375.000000 600.000061 449.999908
vertex -375.000000 600.000122 899.999878
endloop
endfacet
facet normal 0.000000 1.000000 0.000000
outer loop
vertex 375.000000 600.000061 449.999908
vertex -375.000000 600.000122 899.999878
vertex 375.000000 600.000122 899.999878
endloop
endfacet
facet normal 0.000000 -1.000000 0.000000
outer loop
vertex -375.000000 -599.999939 450.000092
vertex 375.000000 -599.999939 450.000092
vertex 375.000000 -599.999878 900.000122
endloop
endfacet
facet normal 0.000000 -1.000000 0.000000
outer loop
vertex -375.000000 -599.999939 450.000092
vertex 375.000000 -599.999878 900.000122
vertex -375.000000 -599.999878 900.000122
endloop
endfacet
facet normal 1.000000 0.000000 0.000000
outer loop
vertex 375.000000 -599.999878 900.000122
vertex 375.000000 600.000122 899.999878
vertex 375.000000 600.000244 1349.999878
endloop
endfacet
facet normal 1.000000 0.000000 0.000000
outer loop
vertex 375.000000 -599.999878 900.000122
vertex 375.000000 600.000244 1349.999878
vertex 375.000000 -599.999756 1350.000122
endloop
endfacet
facet normal 0.000000 1.000000 -0.000000
outer loop
vertex 375.000000 600.000122 899.999878
vertex -375.000000 600.000122 899.999878
vertex -375.000000 600.000244 1349.999878
endloop
endfacet
facet normal 0.000000 1.000000 -0.000000
outer loop
vertex 375.000000 600.000122 899.999878
vertex -375.000000 600.000244 1349.999878
vertex 375.000000 600.000244 1349.999878
endloop
endfacet
facet normal 0.000000 -1.000000 0.000000
outer loop
vertex -375.000000 -599.999878 900.000122
vertex 375.000000 -599.999878 900.000122
vertex 375.000000 -599.999756 1350.000122
endloop
endfacet
facet normal 0.000000 -1.000000 0.000000
outer loop
vertex -375.000000 -599.999878 900.000122
vertex 375.000000 -599.999756 1350.000122
vertex -375.000000 -599.999756 1350.000122
endloop
endfacet
facet normal -1.000000 0.000000 0.000000
outer loop
vertex -375.000000 600.000122 899.999878
vertex -375.000000 -599.999878 900.000122
vertex -375.000000 -599.999756 1350.000122
endloop
endfacet
facet normal -1.000000 0.000000 0.000000
outer loop
vertex -375.000000 600.000122 899.999878
vertex -375.000000 -599.999756 1350.000122
vertex -375.000000 600.000244 1349.999878
endloop
endfacet
facet normal 0.000000 1.000000 0.000000
outer loop
vertex 375.000000 600.000244 1349.999878
vertex -375.000000 600.000244 1349.999878
vertex -375.000000 600.000305 1799.999878
endloop
endfacet
facet normal 0.000000 1.000000 -0.000000
outer loop
vertex 375.000000 600.000244 1349.999878
vertex -375.000000 600.000305 1799.999878
vertex 375.000000 600.000305 1799.999878
endloop
endfacet
facet normal 0.000000 -1.000000 0.000000
outer loop
vertex -375.000000 -599.999756 1350.000122
vertex 375.000000 -599.999756 1350.000122
vertex 375.000000 -599.999695 1800.000122
endloop
endfacet
facet normal 0.000000 -1.000000 0.000000
outer loop
vertex -375.000000 -599.999756 1350.000122
vertex 375.000000 -599.999695 1800.000122
vertex -375.000000 -599.999695 1800.000122
endloop
endfacet
facet normal -1.000000 0.000000 0.000000
outer loop
vertex -375.000000 600.000244 1349.999878
vertex -375.000000 -599.999756 1350.000122
vertex -375.000000 -599.999695 1800.000122
endloop
endfacet
facet normal -1.000000 0.000000 0.000000
outer loop
vertex -375.000000 600.000244 1349.999878
vertex -375.000000 -599.999695 1800.000122
vertex -375.000000 600.000305 1799.999878
endloop
endfacet
facet normal 1.000000 0.000000 0.000000
outer loop
vertex 375.000000 -599.999756 1350.000122
vertex 375.000000 600.000244 1349.999878
vertex 375.000000 600.000305 1799.999878
endloop
endfacet
facet normal 1.000000 0.000000 0.000000
outer loop
vertex 375.000000 -599.999756 1350.000122
vertex 375.000000 600.000305 1799.999878
vertex 375.000000 -599.999695 1800.000122
endloop
endfacet
facet normal -1.000000 0.000000 0.000000
outer loop
vertex -375.000000 600.000305 1799.999878
vertex -375.000000 -599.999695 1800.000122
vertex -375.000000 -599.999634 2250.000000
endloop
endfacet
facet normal -1.000000 0.000000 0.000000
outer loop
vertex -375.000000 600.000305 1799.999878
vertex -375.000000 -599.999634 2250.000000
vertex -375.000000 600.000366 2250.000000
endloop
endfacet
facet normal 1.000000 0.000000 0.000000
outer loop
vertex 375.000000 -599.999695 1800.000122
vertex 375.000000 600.000305 1799.999878
vertex 375.000000 600.000366 2250.000000
endloop
endfacet
facet normal 1.000000 0.000000 0.000000
outer loop
vertex 375.000000 -599.999695 1800.000122
vertex 375.000000 600.000366 2250.000000
vertex 375.000000 -599.999634 2250.000000
endloop
endfacet
facet normal 0.000000 1.000000 -0.000000
outer loop
vertex 375.000000 600.000305 1799.999878
vertex -375.000000 600.000305 1799.999878
vertex -375.000000 600.000366 2250.000000
endloop
endfacet
facet normal 0.000000 1.000000 0.000000
outer loop
vertex 375.000000 600.000305 1799.999878
vertex -375.000000 600.000366 2250.000000
vertex 375.000000 600.000366 2250.000000
endloop
endfacet
facet normal 0.000000 -1.000000 0.000000
outer loop
vertex -375.000000 -599.999695 1800.000122
vertex 375.000000 -599.999695 1800.000122
vertex 375.000000 -599.999634 2250.000000
endloop
endfacet
facet normal 0.000000 -1.000000 0.000000
outer loop
vertex -375.000000 -599.999695 1800.000122
vertex 375.000000 -599.999634 2250.000000
vertex -375.000000 -599.999634 2250.000000
endloop
endfacet
facet normal 0.000000 1.000000 0.000000
outer loop
vertex 375.000000 600.000366 2250.000000
vertex -375.000000 600.000366 2250.000000
vertex -375.000000 600.000427 2700.000000
endloop
endfacet
facet normal 0.000000 1.000000 -0.000000
outer loop
vertex 375.000000 600.000366 2250.000000
vertex -375.000000 600.000427 2700.000000
vertex 375.000000 600.000427 2700.000000
endloop
endfacet
facet normal 0.000000 -1.000000 0.000000
outer loop
vertex -375.000000 -599.999634 2250.000000
vertex 375.000000 -599.999634 2250.000000
vertex 375.000000 -599.999573 2700.000000
endloop
endfacet
facet normal 0.000000 -1.000000 0.000000
outer loop
vertex -375.000000 -599.999634 2250.000000
vertex 375.000000 -599.999573 2700.000000
vertex -375.000000 -599.999573 2700.000000
endloop
endfacet
facet normal -1.000000 0.000000 0.000000
outer loop
vertex -375.000000 600.000366 2250.000000
vertex -375.000000 -599.999634 2250.000000
vertex -375.000000 -599.999573 2700.000000
endloop
endfacet
facet normal -1.000000 0.000000 0.000000
outer loop
vertex -375.000000 600.000366 2250.000000
vertex -375.000000 -599.999573 2700.000000
vertex -375.000000 600.000427 2700.000000
endloop
endfacet
facet normal 1.000000 0.000000 0.000000
outer loop
vertex 375.000000 -599.999634 2250.000000
vertex 375.000000 600.000366 2250.000000
vertex 375.000000 600.000427 2700.000000
endloop
endfacet
facet normal 1.000000 0.000000 0.000000
outer loop
vertex 375.000000 -599.999634 2250.000000
vertex 375.000000 600.000427 2700.000000
vertex 375.000000 -599.999573 2700.000000
endloop
endfacet
facet normal 0.000000 1.000000 -0.000000
outer loop
vertex 375.000000 600.000427 2700.000000
vertex -375.000000 600.000427 2700.000000
vertex -375.000000 600.000488 3150.000000
endloop
endfacet
facet normal 0.000000 1.000000 0.000000
outer loop
vertex 375.000000 600.000427 2700.000000
vertex -375.000000 600.000488 3150.000000
vertex 375.000000 600.000488 3150.000000
endloop
endfacet
facet normal 0.000000 -1.000000 0.000000
outer loop
vertex -375.000000 -599.999573 2700.000000
vertex 375.000000 -599.999573 2700.000000
vertex 375.000000 -599.999512 3150.000000
endloop
endfacet
facet normal 0.000000 -1.000000 0.000000
outer loop
vertex -375.000000 -599.999573 2700.000000
vertex 375.000000 -599.999512 3150.000000
vertex -375.000000 -599.999512 3150.000000
endloop
endfacet
facet normal -1.000000 0.000000 0.000000
outer loop
vertex -375.000000 600.000427 2700.000000
vertex -375.000000 -599.999573 2700.000000
vertex -375.000000 -599.999512 3150.000000
endloop
endfacet
facet normal -1.000000 0.000000 0.000000
outer loop
vertex -375.000000 600.000427 2700.000000
vertex -375.000000 -599.999512 3150.000000
vertex -375.000000 600.000488 3150.000000
endloop
endfacet
facet normal 1.000000 0.000000 0.000000
outer loop
vertex 375.000000 -599.999573 2700.000000
vertex 375.000000 600.000427 2700.000000
vertex 375.000000 600.000488 3150.000000
endloop
endfacet
facet normal 1.000000 0.000000 0.000000
outer loop
vertex 375.000000 -599.999573 2700.000000
vertex 375.000000 600.000488 3150.000000
vertex 375.000000 -599.999512 3150.000000
endloop
endfacet
facet normal -1.000000 0.000000 0.000000
outer loop
vertex -375.000000 600.000488 3150.000000
vertex -375.000000 -599.999512 3150.000000
vertex -375.000000 -599.999390 3600.000000
endloop
endfacet
facet normal -1.000000 0.000000 0.000000
outer loop
vertex -375.000000 600.000488 3150.000000
vertex -375.000000 -599.999390 3600.000000
vertex -375.000000 600.000610 3600.000000
endloop
endfacet
facet normal 1.000000 0.000000 0.000000
outer loop
vertex 375.000000 -599.999512 3150.000000
vertex 375.000000 600.000488 3150.000000
vertex 375.000000 600.000610 3600.000000
endloop
endfacet
facet normal 1.000000 0.000000 0.000000
outer loop
vertex 375.000000 -599.999512 3150.000000
vertex 375.000000 600.000610 3600.000000
vertex 375.000000 -599.999390 3600.000000
endloop
endfacet
facet normal 0.000000 1.000000 -0.000000
outer loop
vertex 375.000000 600.000488 3150.000000
vertex -375.000000 600.000488 3150.000000
vertex -375.000000 600.000610 3600.000000
endloop
endfacet
facet normal 0.000000 1.000000 -0.000000
outer loop
vertex 375.000000 600.000488 3150.000000
vertex -375.000000 600.000610 3600.000000
vertex 375.000000 600.000610 3600.000000
endloop
endfacet
facet normal 0.000000 -1.000000 0.000000
outer loop
vertex -375.000000 -599.999512 3150.000000
vertex 375.000000 -599.999512 3150.000000
vertex 375.000000 -599.999390 3600.000000
endloop
endfacet
facet normal 0.000000 -1.000000 0.000000
outer loop
vertex -375.000000 -599.999512 3150.000000
vertex 375.000000 -599.999390 3600.000000
vertex -375.000000 -599.999390 3600.000000
endloop
endfacet
facet normal 0.000000 1.000000 0.000000
outer loop
vertex 375.000000 600.000610 3600.000000
vertex -375.000000 600.000610 3600.000000
vertex -375.000000 600.000671 4050.000000
endloop
endfacet
facet normal 0.000000 1.000000 -0.000000
outer loop
vertex 375.000000 600.000610 3600.000000
vertex -375.000000 600.000671 4050.000000
vertex 375.000000 600.000671 4050.000000
endloop
endfacet
facet normal 0.000000 -1.000000 0.000000
outer loop
vertex -375.000000 -599.999390 3600.000000
vertex 375.000000 -599.999390 3600.000000
vertex 375.000000 -599.999329 4050.000000
endloop
endfacet
facet normal 0.000000 -1.000000 0.000000
outer loop
vertex -375.000000 -599.999390 3600.000000
vertex 375.000000 -599.999329 4050.000000
vertex -375.000000 -599.999329 4050.000000
endloop
endfacet
facet normal -1.000000 0.000000 0.000000
outer loop
vertex -375.000000 600.000610 3600.000000
vertex -375.000000 -599.999390 3600.000000
vertex -375.000000 -599.999329 4050.000000
endloop
endfacet
facet normal -1.000000 0.000000 0.000000
outer loop
vertex -375.000000 600.000610 3600.000000
vertex -375.000000 -599.999329 4050.000000
vertex -375.000000 600.000671 4050.000000
endloop
endfacet
facet normal 1.000000 0.000000 0.000000
outer loop
vertex 375.000000 -599.999390 3600.000000
vertex 375.000000 600.000610 3600.000000
vertex 375.000000 600.000671 4050.000000
endloop
endfacet
facet normal 1.000000 0.000000 0.000000
outer loop
vertex 375.000000 -599.999390 3600.000000
vertex 375.000000 600.000671 4050.000000
vertex 375.000000 -599.999329 4050.000000
endloop
endfacet
endsolid building_010
