solid building_037
facet normal 0.000000 0.000000 1.000000
outer loop
vertex -750.000000 -449.999146 5280.000000
vertex 750.000000 -449.999146 5280.000000
vertex 750.000000 450.000854 5280.000000
endloop
endfacet
facet normal 0.000000 0.000000 1.000000
outer loop
vertex -750.000000 -449.999146 5280.000000
vertex 750.000000 450.000854 5280.000000
vertex -750.000000 450.000854 5280.000000
endloop
endfacet
facet normal 0.000000 1.000000 0.000000
outer loop
vertex 750.000000 450.000000 -0.000073
vertex -750.000000 450.000000 -0.000073
vertex -750.000000 450.000031 239.999924
endloop
endfacet
facet normal 0.000000 1.000000 -0.000000
outer loop
vertex 750.000000 450.000000 -0.000073
vertex -750.000000 450.000031 239.999924
vertex 750.000000 450.000031 239.999924
endloop
endfacet
facet normal 0.000000 -1.000000 0.000000
outer loop
vertex -750.000000 -450.000000 0.000073
vertex 750.000000 -450.000000 0.000073
vertex 750.000000 -449.999969 240.000076
endloop
endfacet
facet normal 0.000000 -1.000000 0.000000
outer loop
vertex -750.000000 -450.000000 0.000073
vertex 750.000000 -449.999969 240.000076
vertex -750.000000 -449.999969 240.000076
endloop
endfacet
facet normal 1.000000 0.000000 0.000000
outer loop
vertex 750.000000 -450.000000 0.000073
vertex 750.000000 450.000000 -0.000073
vertex 750.000000 450.000031 239.999924
endloop
endfacet
facet normal 1.000000 -0.000000 0.000000
outer loop
vertex 750.000000 -450.000000 0.000073
vertex 750.000000 450.000031 239.999924
vertex 750.000000 -449.999969 240.000076
endloop
endfacet
facet normal -1.000000 0.000000 0.000000
outer loop
vertex -750.000000 450.000000 -0.000073
vertex -750.000000 -450.000000 0.000073
vertex -750.000000 -449.999969 240.000076
endloop
endfacet
facet normal -1.000000 -0.000000 0.000000
outer loop
vertex -750.000000 450.000000 -0.000073
vertex -750.000000 -449.999969 240.000076
vertex -750.000000 450.000031 239.999924
endloop
endfacet
facet normal -1.000000 -0.000000 0.000000
outer loop
vertex -750.000000 450.000031 239.999924
vertex -750.000000 -449.999969 240.000076
vertex -750.000000 -449.999908 480.000061
endloop
endfacet
facet normal -1.000000 0.000000 0.000000
outer loop
vertex -750.000000 450.000031 239.999924
vertex -750.000000 -449.999908 480.000061
vertex -750.000000 450.000092 479.999939
endloop
endfacet
facet normal 1.000000 -0.000000 0.000000
outer loop
vertex 750.000000 -449.999969 240.000076
vertex 750.000000 450.000031 239.999924
vertex 750.000000 450.000092 479.999939
endloop
endfacet
facet normal 1.000000 0.000000 0.000000
outer loop
vertex 750.000000 -449.999969 240.000076
vertex 750.000000 450.000092 479.999939
vertex 750.000000 -449.999908 480.000061
endloop
endfacet
facet normal 0.000000 1.000000 0.000000
outer loop
vertex 750.000000 450.000031 239.999924
vertex -750.000000 450.000031 239.999924
vertex -750.000000 450.000092 479.999939
endloop
endfacet
facet normal 0.000000 1.000000 -0.000000
outer loop
vertex 750.000000 450.000031 239.999924
vertex -750.000000 450.000092 479.999939
vertex 750.000000 450.000092 479.999939
endloop
endfacet
facet normal 0.000000 -1.000000 0.000000
outer loop
vertex -750.000000 -449.999969 240.000076
vertex 750.000000 -449.999969 240.000076
vertex 750.000000 -449.999908 480.000061
endloop
endfacet
facet normal 0.000000 -1.000000 0.000000
outer loop
vertex -750.000000 -449.999969 240.000076
vertex 750.000000 -449.999908 480.000061
vertex -750.000000 -449.999908 480.000061
endloop
endfacet
facet normal 0.000000 1.000000 -0.000000
outer loop
vertex 750.000000 450.000092 479.999939
vertex -750.000000 450.000092 479.999939
vertex -750.000000 450.000122 719.999939
endloop
endfacet
facet normal 0.000000 1.000000 0.000000
outer loop
vertex 750.000000 450.000092 479.999939
vertex -750.000000 450.000122 719.999939
vertex 750.000000 450.000122 719.999939
endloop
endfacet
facet normal 0.000000 -1.000000 0.000000
outer loop
vertex -750.000000 -449.999908 480.000061
vertex 750.000000 -449.999908 480.000061
vertex 750.000000 -449.999878 720.000061
endloop
endfacet
facet normal 0.000000 -1.000000 0.000000
outer loop
vertex -750.000000 -449.999908 480.000061
vertex 750.000000 -449.999878 720.000061
vertex -750.000000 -449.999878 720.000061
endloop
endfacet
facet normal -1.000000 0.000000 0.000000
outer loop
vertex -750.000000 450.000092 479.999939
vertex -750.000000 -449.999908 480.000061
vertex -750.000000 -449.999878 720.000061
endloop
endfacet
facet normal -1.000000 0.000000 0.000000
outer loop
vertex -750.000000 450.000092 479.999939
vertex -750.000000 -449.999878 720.000061
vertex -750.000000 450.000122 719.999939
endloop
endfacet
facet normal 1.000000 0.000000 0.000000
outer loop
vertex 750.000000 -449.999908 480.000061
vertex 750.000000 450.000092 479.999939
vertex 750.000000 450.000122 719.999939
endloop
endfacet
facet normal 1.000000 0.000000 0.000000
outer loop
vertex 750.000000 -449.999908 480.000061
vertex 750.000000 450.000122 719.999939
vertex 750.000000 -449.999878 720.000061
endloop
endfacet
facet normal -1.000000 0.000000 0.000000
outer loop
vertex -750.000000 450.000122 719.999939
vertex -750.000000 -449.999878 720.000061
vertex -750.000000 -449.999847 960.000061
endloop
endfacet
facet normal -1.000000 0.000000 0.000000
outer loop
vertex -750.000000 450.000122 719.999939
vertex -750.000000 -449.999847 960.000061
vertex -750.000000 450.000153 959.999939
endloop
endfacet
facet normal 1.000000 0.000000 0.000000
outer loop
vertex 750.000000 -449.999878 720.000061
vertex 750.000000 450.000122 719.999939
vertex 750.000000 450.000153 959.999939
endloop
endfacet
facet normal 1.000000 0.000000 0.000000
outer loop
vertex 750.000000 -449.999878 720.000061
vertex 750.000000 450.000153 959.999939
vertex 750.000000 -449.999847 960.000061
endloop
endfacet
facet normal 0.000000 1.000000 0.000000
outer loop
vertex 750.000000 450.000122 719.999939
vertex -750.000000 450.000122 719.999939
vertex -750.000000 450.000153 959.999939
endloop
endfacet
facet normal 0.000000 1.000000 -0.000000
outer loop
vertex 750.000000 450.000122 719.999939
vertex -750.000000 450.000153 959.999939
vertex 750.000000 450.000153 959.999939
endloop
endfacet
facet normal 0.000000 -1.000000 0.000000
outer loop
vertex -750.000000 -449.999878 720.000061
vertex 750.000000 -449.999878 720.000061
vertex 750.000000 -449.999847 960.000061
endloop
endfacet
facet normal 0.000000 -1.000000 0.000000
outer loop
vertex -750.000000 -449.999878 720.000061
vertex 750.000000 -449.999847 960.000061
vertex -750.000000 -449.999847 960.000061
endloop
endfacet
facet normal 1.000000 0.000000 0.000000
outer loop
vertex 750.000000 -449.999847 960.000061
vertex 750.000000 450.000153 959.999939
vertex 750.000000 450.000183 1199.999878
endloop
endfacet
facet normal 1.000000 0.000000 0.000000
outer loop
vertex 750.000000 -449.999847 960.000061
vertex 750.000000 450.000183 1199.999878
vertex 750.000000 -449.999817 1200.000122
endloop
endfacet
facet normal 0.000000 1.000000 0.000000
outer loop
vertex 750.000000 450.000153 959.999939
vertex -750.000000 450.000153 959.999939
vertex -750.000000 450.000183 1199.999878
endloop
endfacet
facet normal 0.000000 1.000000 0.000000
outer loop
vertex 750.000000 450.000153 959.999939
vertex -750.000000 450.000183 1199.999878
vertex 750.000000 450.000183 1199.999878
endloop
endfacet
facet normal 0.000000 -1.000000 0.000000
outer loop
vertex -750.000000 -449.999847 960.000061
vertex 750.000000 -449.999847 960.000061
vertex 750.000000 -449.999817 1200.000122
endloop
endfacet
facet normal 0.000000 -1.000000 0.000000
outer loop
vertex -750.000000 -449.999847 960.000061
vertex 750.000000 -449.999817 1200.000122
vertex -750.000000 -449.999817 1200.000122
endloop
endfacet
facet normal -1.000000 0.000000 0.000000
outer loop
vertex -750.000000 450.000153 959.999939
vertex -750.000000 -449.999847 960.000061
vertex -750.000000 -449.999817 1200.000122
endloop
endfacet
facet normal -1.000000 0.000000 0.000000
outer loop
vertex -750.000000 450.000153 959.999939
vertex -750.000000 -449.999817 1200.000122
vertex -750.000000 450.000183 1199.999878
endloop
endfacet
facet normal 0.000000 1.000000 -0.000000
outer loop
vertex 750.000000 450.000183 1199.999878
vertex -750.000000 450.000183 1199.999878
vertex -750.000000 450.000244 1439.999878
endloop
endfacet
facet normal 0.000000 1.000000 -0.000000
outer loop
vertex 750.000000 450.000183 1199.999878
vertex -750.000000 450.000244 1439.999878
vertex 750.000000 450.000244 1439.999878
endloop
endfacet
facet normal 0.000000 -1.000000 0.000000
outer loop
vertex -750.000000 -449.999817 1200.000122
vertex 750.000000 -449.999817 1200.000122
vertex 750.000000 -449.999756 1440.000122
endloop
endfacet
facet normal 0.000000 -1.000000 0.000000
outer loop
vertex -750.000000 -449.999817 1200.000122
vertex 750.000000 -449.999756 1440.000122
vertex -750.000000 -449.999756 1440.000122
endloop
endfacet
facet normal -1.000000 0.000000 0.000000
outer loop
vertex -750.000000 450.000183 1199.999878
vertex -750.000000 -449.999817 1200.000122
vertex -750.000000 -449.999756 1440.000122
endloop
endfacet
facet normal -1.000000 0.000000 0.000000
outer loop
vertex -750.000000 450.000183 1199.999878
vertex -750.000000 -449.999756 1440.000122
vertex -750.000000 450.000244 1439.999878
endloop
endfacet
facet normal 1.000000 0.000000 0.000000
outer loop
vertex 750.000000 -449.999817 1200.000122
vertex 750.000000 450.000183 1199.999878
vertex 750.000000 450.000244 1439.999878
endloop
endfacet
facet normal 1.000000 0.000000 0.000000
outer loop
vertex 750.000000 -449.999817 1200.000122
vertex 750.000000 450.000244 1439.999878
vertex 750.000000 -449.999756 1440.000122
endloop
endfacet
facet normal -1.000000 0.000000 0.000000
outer loop
vertex -750.000000 450.000244 1439.999878
vertex -750.000000 -449.999756 1440.000122
vertex -750.000000 -449.999725 1680.000122
endloop
endfacet
facet normal -1.000000 0.000000 0.000000
outer loop
vertex -750.000000 450.000244 1439.999878
vertex -750.000000 -449.999725 1680.000122
vertex -750.000000 450.000275 1679.999878
endloop
endfacet
facet normal 1.000000 0.000000 0.000000
outer loop
vertex 750.000000 -449.999756 1440.000122
vertex 750.000000 450.000244 1439.999878
vertex 750.000000 450.000275 1679.999878
endloop
endfacet
facet normal 1.000000 0.000000 0.000000
outer loop
vertex 750.000000 -449.999756 1440.000122
vertex 750.000000 450.000275 1679.999878
vertex 750.000000 -449.999725 1680.000122
endloop
endfacet
facet normal 0.000000 1.000000 0.000000
outer loop
vertex 750.000000 450.000244 1439.999878
vertex -750.000000 450.000244 1439.999878
vertex -750.000000 450.000275 1679.999878
endloop
endfacet
facet normal 0.000000 1.000000 -0.000000
outer loop
vertex 750.000000 450.000244 1439.999878
vertex -750.000000 450.000275 1679.999878
vertex 750.000000 450.000275 1679.999878
endloop
endfacet
facet normal 0.000000 -1.000000 0.000000
outer loop
vertex -750.000000 -449.999756 1440.000122
vertex 750.000000 -449.999756 1440.000122
vertex 750.000000 -449.999725 1680.000122
endloop
endfacet
facet normal 0.000000 -1.000000 0.000000
outer loop
vertex -750.000000 -449.999756 1440.000122
vertex 750.000000 -449.999725 1680.000122
vertex -750.000000 -449.999725 1680.000122
endloop
endfacet
facet normal 0.000000 1.000000 0.000000
outer loop
vertex 750.000000 450.000275 1679.999878
vertex -750.000000 450.000275 1679.999878
vertex -750.000000 450.000305 1919.999878
endloop
endfacet
facet normal 0.000000 1.000000 0.000000
outer loop
vertex 750.000000 450.000275 1679.999878
vertex -750.000000 450.000305 1919.999878
vertex 750.000000 450.000305 1919.999878
endloop
endfacet
facet normal 0.000000 -1.000000 0.000000
outer loop
vertex -750.000000 -449.999725 1680.000122
vertex 750.000000 -449.999725 1680.000122
vertex 750.000000 -449.999695 1920.000122
endloop
endfacet
facet normal 0.000000 -1.000000 0.000000
outer loop
vertex -750.000000 -449.999725 1680.000122
vertex 750.000000 -449.999695 1920.000122
vertex -750.000000 -449.999695 1920.000122
endloop
endfacet
facet normal -1.000000 0.000000 0.000000
outer loop
vertex -750.000000 450.000275 1679.999878
vertex -750.000000 -449.999725 1680.000122
vertex -750.000000 -449.999695 1920.000122
endloop
endfacet
facet normal -1.000000 0.000000 0.000000
outer loop
vertex -750.000000 450.000275 1679.999878
vertex -750.000000 -449.999695 1920.000122
vertex -750.000000 450.000305 1919.999878
endloop
endfacet
facet normal 1.000000 0.000000 0.000000
outer loop
vertex 750.000000 -449.999725 1680.000122
vertex 750.000000 450.000275 1679.999878
vertex 750.000000 450.000305 1919.999878
endloop
endfacet
facet normal 1.000000 0.000000 0.000000
outer loop
vertex 750.000000 -449.999725 1680.000122
vertex 750.000000 450.000305 1919.999878
vertex 750.000000 -449.999695 1920.000122
endloop
endfacet
facet normal 0.000000 1.000000 -0.000000
outer loop
vertex 750.000000 450.000305 1919.999878
vertex -750.000000 450.000305 1919.999878
vertex -750.000000 450.000366 2160.000000
endloop
endfacet
facet normal 0.000000 1.000000 -0.000000
outer loop
vertex 750.000000 450.000305 1919.999878
vertex -750.000000 450.000366 2160.000000
vertex 750.000000 450.000366 2160.000000
endloop
endfacet
facet normal 0.000000 -1.000000 0.000000
outer loop
vertex -750.000000 -449.999695 1920.000122
vertex 750.000000 -449.999695 1920.000122
vertex 750.000000 -449.999634 2160.000000
endloop
endfacet
facet normal 0.000000 -1.000000 0.000000
outer loop
vertex -750.000000 -449.999695 1920.000122
vertex 750.000000 -449.999634 2160.000000
vertex -750.000000 -449.999634 2160.000000
endloop
endfacet
facet normal -1.000000 0.000000 0.000000
outer loop
vertex -750.000000 450.000305 1919.999878
vertex -750.000000 -449.999695 1920.000122
vertex -750.000000 -449.999634 2160.000000
endloop
endfacet
facet normal -1.000000 0.000000 0.000000
outer loop
vertex -750.000000 450.000305 1919.999878
vertex -750.000000 -449.999634 2160.000000
vertex -750.000000 450.000366 2160.000000
endloop
endfacet
facet normal 1.000000 0.000000 0.000000
outer loop
vertex 750.000000 -449.999695 1920.000122
vertex 750.000000 450.000305 1919.999878
vertex 750.000000 450.000366 2160.000000
endloop
endfacet
facet normal 1.000000 0.000000 0.000000
outer loop
vertex 750.000000 -449.999695 1920.000122
vertex 750.000000 450.000366 2160.000000
vertex 750.000000 -449.999634 2160.000000
endloop
endfacet
facet normal -1.000000 0.000000 0.000000
outer loop
vertex -750.000000 450.000366 2160.000000
vertex -750.000000 -449.999634 2160.000000
vertex -750.000000 -449.999603 2400.000000
endloop
endfacet
facet normal -1.000000 0.000000 0.000000
outer loop
vertex -750.000000 450.000366 2160.000000
vertex -750.000000 -449.999603 2400.000000
vertex -750.000000 450.000397 2400.000000
endloop
endfacet
facet normal 1.000000 0.000000 0.000000
outer loop
vertex 750.000000 -449.999634 2160.000000
vertex 750.000000 450.000366 2160.000000
vertex 750.000000 450.000397 2400.000000
endloop
endfacet
facet normal 1.000000 0.000000 0.000000
outer loop
vertex 750.000000 -449.999634 2160.000000
vertex 750.000000 450.000397 2400.000000
vertex 750.000000 -449.999603 2400.000000
endloop
endfacet
facet normal 0.000000 1.000000 0.000000
outer loop
vertex 750.000000 450.000366 2160.000000
vertex -750.000000 450.000366 2160.000000
vertex -750.000000 450.000397 2400.000000
endloop
endfacet
facet normal 0.000000 1.000000 -0.000000
outer loop
vertex 750.000000 450.000366 2160.000000
vertex -750.000000 450.000397 2400.000000
vertex 750.000000 450.000397 2400.000000
endloop
endfacet
facet normal 0.000000 -1.000000 0.000000
outer loop
vertex -750.000000 -449.999634 2160.000000
vertex 750.000000 -449.999634 2160.000000
vertex 750.000000 -449.999603 2400.000000
endloop
endfacet
facet normal 0.000000 -1.000000 0.000000
outer loop
vertex -750.000000 -449.999634 2160.000000
vertex 750.000000 -449.999603 2400.000000
vertex -750.000000 -449.999603 2400.000000
endloop
endfacet
facet normal 0.000000 1.000000 0.000000
outer loop
vertex 750.000000 450.000397 2400.000000
vertex -750.000000 450.000397 2400.000000
vertex -750.000000 450.000427 2640.000000
endloop
endfacet
facet normal 0.000000 1.000000 0.000000
outer loop
vertex 750.000000 450.000397 2400.000000
vertex -750.000000 450.000427 2640.000000
vertex 750.000000 450.000427 2640.000000
endloop
endfacet
facet normal 0.000000 -1.000000 0.000000
outer loop
vertex -750.000000 -449.999603 2400.000000
vertex 750.000000 -449.999603 2400.000000
vertex 750.000000 -449.999573 2640.000000
endloop
endfacet
facet normal 0.000000 -1.000000 0.000000
outer loop
vertex -750.000000 -449.999603 2400.000000
vertex 750.000000 -449.999573 2640.000000
vertex -750.000000 -449.999573 2640.000000
endloop
endfacet
facet normal -1.000000 0.000000 0.000000
outer loop
vertex -750.000000 450.000397 2400.000000
vertex -750.000000 -449.999603 2400.000000
vertex -750.000000 -449.999573 2640.000000
endloop
endfacet
facet normal -1.000000 0.000000 0.000000
outer loop
vertex -750.000000 450.000397 2400.000000
vertex -750.000000 -449.999573 2640.000000
vertex -750.000000 450.000427 2640.000000
endloop
endfacet
facet normal 1.000000 0.000000 0.000000
outer loop
vertex 750.000000 -449.999603 2400.000000
vertex 750.000000 450.000397 2400.000000
vertex 750.000000 450.000427 2640.000000
endloop
endfacet
facet normal 1.000000 0.000000 0.000000
outer loop
vertex 750.000000 -449.999603 2400.000000
vertex 750.000000 450.000427 2640.000000
vertex 750.000000 -449.999573 2640.000000
endloop
endfacet
facet normal 0.000000 -1.000000 0.000000
outer loop
vertex -750.000000 -449.999573 2640.000000
vertex 750.000000 -449.999573 2640.000000
vertex 750.000000 -449.999542 2880.000000
endloop
endfacet
facet normal 0.000000 -1.000000 0.000000
outer loop
vertex -750.000000 -449.999573 2640.000000
vertex 750.000000 -449.999542 2880.000000
vertex -750.000000 -449.999542 2880.000000
endloop
endfacet
facet normal -1.000000 0.000000 0.000000
outer loop
vertex -750.000000 450.000427 2640.000000
vertex -750.000000 -449.999573 2640.000000
vertex -750.000000 -449.999542 2880.000000
endloop
endfacet
facet normal -1.000000 0.000000 0.000000
outer loop
vertex -750.000000 450.000427 2640.000000
vertex -750.000000 -449.999542 2880.000000
vertex -750.000000 450.000458 2880.000000
endloop
endfacet
facet normal 1.000000 0.000000 0.000000
outer loop
vertex 750.000000 -449.999573 2640.000000
vertex 750.000000 450.000427 2640.000000
vertex 750.000000 450.000458 2880.000000
endloop
endfacet
facet normal 1.000000 0.000000 0.000000
outer loop
vertex 750.000000 -449.999573 2640.000000
vertex 750.000000 450.000458 2880.000000
vertex 750.000000 -449.999542 2880.000000
endloop
endfacet
facet normal 0.000000 1.000000 0.000000
outer loop
vertex 750.000000 450.000427 2640.000000
vertex -750.000000 450.000427 2640.000000
vertex -750.000000 450.000458 2880.000000
endloop
endfacet
facet normal 0.000000 1.000000 -0.000000
outer loop
vertex 750.000000 450.000427 2640.000000
vertex -750.000000 450.000458 2880.000000
vertex 750.000000 450.000458 2880.000000
endloop
endfacet
facet normal -1.000000 0.000000 0.000000
outer loop
vertex -750.000000 450.000458 2880.000000
vertex -750.000000 -449.999542 2880.000000
vertex -750.000000 -449.999481 3120.000000
endloop
endfacet
facet normal -1.000000 0.000000 0.000000
outer loop
vertex -750.000000 450.000458 2880.000000
vertex -750.000000 -449.999481 3120.000000
vertex -750.000000 450.000519 3120.000000
endloop
endfacet
facet normal 1.000000 0.000000 0.000000
outer loop
vertex 750.000000 -449.999542 2880.000000
vertex 750.000000 450.000458 2880.000000
vertex 750.000000 450.000519 3120.000000
endloop
endfacet
facet normal 1.000000 0.000000 0.000000
outer loop
vertex 750.000000 -449.999542 2880.000000
vertex 750.000000 450.000519 3120.000000
vertex 750.000000 -449.999481 3120.000000
endloop
endfacet
facet normal 0.000000 1.000000 -0.000000
outer loop
vertex 750.000000 450.000458 2880.000000
vertex -750.000000 450.000458 2880.000000
vertex -750.000000 450.000519 3120.000000
endloop
endfacet
facet normal 0.000000 1.000000 0.000000
outer loop
vertex 750.000000 450.000458 2880.000000
vertex -750.000000 450.000519 3120.000000
vertex 750.000000 450.000519 3120.000000
endloop
endfacet
facet normal 0.000000 -1.000000 0.000000
outer loop
vertex -750.000000 -449.999542 2880.000000
vertex 750.000000 -449.999542 2880.000000
vertex 750.000000 -449.999481 3120.000000
endloop
endfacet
facet normal 0.000000 -1.000000 0.000000
outer loop
vertex -750.000000 -449.999542 2880.000000
vertex 750.000000 -449.999481 3120.000000
vertex -750.000000 -449.999481 3120.000000
endloop
endfacet
facet normal 0.000000 1.000000 -0.000000
outer loop
vertex 750.000000 450.000519 3120.000000
vertex -750.000000 450.000519 3120.000000
vertex -750.000000 450.000549 3360.000000
endloop
endfacet
facet normal 0.000000 1.000000 0.000000
outer loop
vertex 750.000000 450.000519 3120.000000
vertex -750.000000 450.000549 3360.000000
vertex 750.000000 450.000549 3360.000000
endloop
endfacet
facet normal 0.000000 -1.000000 0.000000
outer loop
vertex -750.000000 -449.999481 3120.000000
vertex 750.000000 -449.999481 3120.000000
vertex 750.000000 -449.999451 3360.000000
endloop
endfacet
facet normal 0.000000 -1.000000 0.000000
outer loop
vertex -750.000000 -449.999481 3120.000000
vertex 750.000000 -449.999451 3360.000000
vertex -750.000000 -449.999451 3360.000000
endloop
endfacet
facet normal -1.000000 0.000000 0.000000
outer loop
vertex -750.000000 450.000519 3120.000000
vertex -750.000000 -449.999481 3120.000000
vertex -750.000000 -449.999451 3360.000000
endloop
endfacet
facet normal -1.000000 0.000000 0.000000
outer loop
vertex -750.000000 450.000519 3120.000000
vertex -750.000000 -449.999451 3360.000000
vertex -750.000000 450.000549 3360.000000
endloop
endfacet
facet normal 1.000000 0.000000 0.000000
outer loop
vertex 750.000000 -449.999481 3120.000000
vertex 750.000000 450.000519 3120.000000
vertex 750.000000 450.000549 3360.000000
endloop
endfacet
facet normal 1.000000 0.000000 0.000000
outer loop
vertex 750.000000 -449.999481 3120.000000
vertex 750.000000 450.000549 3360.000000
vertex 750.000000 -449.999451 3360.000000
endloop
endfacet
facet normal -1.000000 0.000000 0.000000
outer loop
vertex -750.000000 450.000549 3360.000000
vertex -750.000000 -449.999451 3360.000000
vertex -750.000000 -449.999420 3600.000000
endloop
endfacet
facet normal -1.000000 0.000000 0.000000
outer loop
vertex -750.000000 450.000549 3360.000000
vertex -750.000000 -449.999420 3600.000000
vertex -750.000000 450.000580 3600.000000
endloop
endfacet
facet normal 1.000000 0.000000 0.000000
outer loop
vertex 750.000000 -449.999451 3360.000000
vertex 750.000000 450.000549 3360.000000
vertex 750.000000 450.000580 3600.000000
endloop
endfacet
facet normal 1.000000 0.000000 0.000000
outer loop
vertex 750.000000 -449.999451 3360.000000
vertex 750.000000 450.000580 3600.000000
vertex 750.000000 -449.999420 3600.000000
endloop
endfacet
facet normal 0.000000 1.000000 0.000000
outer loop
vertex 750.000000 450.000549 3360.000000
vertex -750.000000 450.000549 3360.000000
vertex -750.000000 450.000580 3600.000000
endloop
endfacet
facet normal 0.000000 1.000000 -0.000000
outer loop
vertex 750.000000 450.000549 3360.000000
vertex -750.000000 450.000580 3600.000000
vertex 750.000000 450.000580 3600.000000
endloop
endfacet
facet normal 0.000000 -1.000000 0.000000
outer loop
vertex -750.000000 -449.999451 3360.000000
vertex 750.000000 -449.999451 3360.000000
vertex 750.000000 -449.999420 3600.000000
endloop
endfacet
facet normal 0.000000 -1.000000 0.000000
outer loop
vertex -750.000000 -449.999451 3360.000000
vertex 750.000000 -449.999420 3600.000000
vertex -750.000000 -449.999420 3600.000000
endloop
endfacet
facet normal 1.000000 0.000000 0.000000
outer loop
vertex 750.000000 -449.999420 3600.000000
vertex 750.000000 450.000580 3600.000000
vertex 750.000000 450.000641 3840.000000
endloop
endfacet
facet normal 1.000000 0.000000 0.000000
outer loop
vertex 750.000000 -449.999420 3600.000000
vertex 750.000000 450.000641 3840.000000
vertex 750.000000 -449.999359 3840.000000
endloop
endfacet
facet normal 0.000000 1.000000 -0.000000
outer loop
vertex 750.000000 450.000580 3600.000000
vertex -750.000000 450.000580 3600.000000
vertex -750.000000 450.000641 3840.000000
endloop
endfacet
facet normal 0.000000 1.000000 0.000000
outer loop
vertex 750.000000 450.000580 3600.000000
vertex -750.000000 450.000641 3840.000000
vertex 750.000000 450.000641 3840.000000
endloop
endfacet
facet normal 0.000000 -1.000000 0.000000
outer loop
vertex -750.000000 -449.999420 3600.000000
vertex 750.000000 -449.999420 3600.000000
vertex 750.000000 -449.999359 3840.000000
endloop
endfacet
facet normal 0.000000 -1.000000 0.000000
outer loop
vertex -750.000000 -449.999420 3600.000000
vertex 750.000000 -449.999359 3840.000000
vertex -750.000000 -449.999359 3840.000000
endloop
endfacet
facet normal -1.000000 0.000000 0.000000
outer loop
vertex -750.000000 450.000580 3600.000000
vertex -750.000000 -449.999420 3600.000000
vertex -750.000000 -449.999359 3840.000000
endloop
endfacet
facet normal -1.000000 0.000000 0.000000
outer loop
vertex -750.000000 450.000580 3600.000000
vertex -750.000000 -449.999359 3840.000000
vertex -750.000000 450.000641 3840.000000
endloop
endfacet
facet normal 0.000000 1.000000 -0.000000
outer loop
vertex 750.000000 450.000641 3840.000000
vertex -750.000000 450.000641 3840.000000
vertex -750.000000 450.000671 4080.000000
endloop
endfacet
facet normal 0.000000 1.000000 0.000000
outer loop
vertex 750.000000 450.000641 3840.000000
vertex -750.000000 450.000671 4080.000000
vertex 750.000000 450.000671 4080.000000
endloop
endfacet
facet normal 0.000000 -1.000000 0.000000
outer loop
vertex -750.000000 -449.999359 3840.000000
vertex 750.000000 -449.999359 3840.000000
vertex 750.000000 -449.999329 4080.000000
endloop
endfacet
facet normal 0.000000 -1.000000 0.000000
outer loop
vertex -750.000000 -449.999359 3840.000000
vertex 750.000000 -449.999329 4080.000000
vertex -750.000000 -449.999329 4080.000000
endloop
endfacet
facet normal -1.000000 0.000000 0.000000
outer loop
vertex -750.000000 450.000641 3840.000000
vertex -750.000000 -449.999359 3840.000000
vertex -750.000000 -449.999329 4080.000000
endloop
endfacet
facet normal -1.000000 0.000000 0.000000
outer loop
vertex -750.000000 450.000641 3840.000000
vertex -750.000000 -449.999329 4080.000000
vertex -750.000000 450.000671 4080.000000
endloop
endfacet
facet normal 1.000000 0.000000 0.000000
outer loop
vertex 750.000000 -449.999359 3840.000000
vertex 750.000000 450.000641 3840.000000
vertex 750.000000 450.000671 4080.000000
endloop
endfacet
facet normal 1.000000 0.000000 0.000000
outer loop
vertex 750.000000 -449.999359 3840.000000
vertex 750.000000 450.000671 4080.000000
vertex 750.000000 -449.999329 4080.000000
endloop
endfacet
facet normal -1.000000 0.000000 0.000000
outer loop
vertex -750.000000 450.000671 4080.000000
vertex -750.000000 -449.999329 4080.000000
vertex -750.000000 -449.999298 4320.000000
endloop
endfacet
facet normal -1.000000 0.000000 0.000000
outer loop
vertex -750.000000 450.000671 4080.000000
vertex -750.000000 -449.999298 4320.000000
vertex -750.000000 450.000702 4320.000000
endloop
endfacet
facet normal 1.000000 0.000000 0.000000
outer loop
vertex 750.000000 -449.999329 4080.000000
vertex 750.000000 450.000671 4080.000000
vertex 750.000000 450.000702 4320.000000
endloop
endfacet
facet normal 1.000000 0.000000 0.000000
outer loop
vertex 750.000000 -449.999329 4080.000000
vertex 750.000000 450.000702 4320.000000
vertex 750.000000 -449.999298 4320.000000
endloop
endfacet
facet normal 0.000000 1.000000 0.000000
outer loop
vertex 750.000000 450.000671 4080.000000
vertex -750.000000 450.000671 4080.000000
vertex -750.000000 450.000702 4320.000000
endloop
endfacet
facet normal 0.000000 1.000000 -0.000000
outer loop
vertex 750.000000 450.000671 4080.000000
vertex -750.000000 450.000702 4320.000000
vertex 750.000000 450.000702 4320.000000
endloop
endfacet
facet normal 0.000000 -1.000000 0.000000
outer loop
vertex -750.000000 -449.999329 4080.000000
vertex 750.000000 -449.999329 4080.000000
vertex 750.000000 -449.999298 4320.000000
endloop
endfacet
facet normal 0.000000 -1.000000 0.000000
outer loop
vertex -750.000000 -449.999329 4080.000000
vertex 750.000000 -449.999298 4320.000000
vertex -750.000000 -449.999298 4320.000000
endloop
endfacet
facet normal 0.000000 1.000000 -0.000000
outer loop
vertex 750.000000 450.000702 4320.000000
vertex -750.000000 450.000702 4320.000000
vertex -750.000000 450.000732 4560.000000
endloop
endfacet
facet normal 0.000000 1.000000 0.000000
outer loop
vertex 750.000000 450.000702 4320.000000
vertex -750.000000 450.000732 4560.000000
vertex 750.000000 450.000732 4560.000000
endloop
endfacet
facet normal 0.000000 -1.000000 0.000000
outer loop
vertex -750.000000 -449.999298 4320.000000
vertex 750.000000 -449.999298 4320.000000
vertex 750.000000 -449.999268 4560.000000
endloop
endfacet
facet normal 0.000000 -1.000000 0.000000
outer loop
vertex -750.000000 -449.999298 4320.000000
vertex 750.000000 -449.999268 4560.000000
vertex -750.000000 -449.999268 4560.000000
endloop
endfacet
facet normal -1.000000 0.000000 0.000000
outer loop
vertex -750.000000 450.000702 4320.000000
vertex -750.000000 -449.999298 4320.000000
vertex -750.000000 -449.999268 4560.000000
endloop
endfacet
facet normal -1.000000 0.000000 0.000000
outer loop
vertex -750.000000 450.000702 4320.000000
vertex -750.000000 -449.999268 4560.000000
vertex -750.000000 450.000732 4560.000000
endloop
endfacet
facet normal 1.000000 0.000000 0.000000
outer loop
vertex 750.000000 -449.999298 4320.000000
vertex 750.000000 450.000702 4320.000000
vertex 750.000000 450.000732 4560.000000
endloop
endfacet
facet normal 1.000000 0.000000 0.000000
outer loop
vertex 750.000000 -449.999298 4320.000000
vertex 750.000000 450.000732 4560.000000
vertex 750.000000 -449.999268 4560.000000
endloop
endfacet
facet normal 0.000000 1.000000 0.000000
outer loop
vertex 750.000000 450.000732 4560.000000
vertex -750.000000 450.000732 4560.000000
vertex -750.000000 450.000793 4800.000000
endloop
endfacet
facet normal 0.000000 1.000000 -0.000000
outer loop
vertex 750.000000 450.000732 4560.000000
vertex -750.000000 450.000793 4800.000000
vertex 750.000000 450.000793 4800.000000
endloop
endfacet
facet normal 0.000000 -1.000000 0.000000
outer loop
vertex -750.000000 -449.999268 4560.000000
vertex 750.000000 -449.999268 4560.000000
vertex 750.000000 -449.999207 4800.000000
endloop
endfacet
facet normal 0.000000 -1.000000 0.000000
outer loop
vertex -750.000000 -449.999268 4560.000000
vertex 750.000000 -449.999207 4800.000000
vertex -750.000000 -449.999207 4800.000000
endloop
endfacet
facet normal -1.000000 0.000000 0.000000
outer loop
vertex -750.000000 450.000732 4560.000000
vertex -750.000000 -449.999268 4560.000000
vertex -750.000000 -449.999207 4800.000000
endloop
endfacet
facet normal -1.000000 0.000000 0.000000
outer loop
vertex -750.000000 450.000732 4560.000000
vertex -750.000000 -449.999207 4800.000000
vertex -750.000000 450.000793 4800.000000
endloop
endfacet
facet normal 1.000000 0.000000 0.000000
outer loop
vertex 750.000000 -449.999268 4560.000000
vertex 750.000000 450.000732 4560.000000
vertex 750.000000 450.000793 4800.000000
endloop
endfacet
facet normal 1.000000 0.000000 0.000000
outer loop
vertex 750.000000 -449.999268 4560.000000
vertex 750.000000 450.000793 4800.000000
vertex 750.000000 -449.999207 4800.000000
endloop
endfacet
facet normal -1.000000 0.000000 0.000000
outer loop
vertex -750.000000 450.000793 4800.000000
vertex -750.000000 -449.999207 4800.000000
vertex -750.000000 -449.999176 5040.000000
endloop
endfacet
facet normal -1.000000 0.000000 0.000000
outer loop
vertex -750.000000 450.000793 4800.000000
vertex -750.000000 -449.999176 5040.000000
vertex -750.000000 450.000824 5040.000000
endloop
endfacet
facet normal 1.000000 0.000000 0.000000
outer loop
vertex 750.000000 -449.999207 4800.000000
vertex 750.000000 450.000793 4800.000000
vertex 750.000000 450.000824 5040.000000
endloop
endfacet
facet normal 1.000000 0.000000 0.000000
outer loop
vertex 750.000000 -449.999207 4800.000000
vertex 750.000000 450.000824 5040.000000
vertex 750.000000 -449.999176 5040.000000
endloop
endfacet
facet normal 0.000000 1.000000 0.000000
outer loop
vertex 750.000000 450.000793 4800.000000
vertex -750.000000 450.000793 4800.000000
vertex -750.000000 450.000824 5040.000000
endloop
endfacet
facet normal 0.000000 1.000000 -0.000000
outer loop
vertex 750.000000 450.000793 4800.000000
vertex -750.000000 450.000824 5040.000000
vertex 750.000000 450.000824 5040.000000
endloop
endfacet
facet normal 0.000000 -1.000000 0.000000
outer loop
vertex -750.000000 -449.999207 4800.000000
vertex 750.000000 -449.999207 4800.000000
vertex 750.000000 -449.999176 5040.000000
endloop
endfacet
facet normal 0.000000 -1.000000 0.000000
outer loop
vertex -750.000000 -449.999207 4800.000000
vertex 750.000000 -449.999176 5040.000000
vertex -750.000000 -449.999176 5040.000000
endloop
endfacet
facet normal 0.000000 1.000000 -0.000000
outer loop
vertex 750.000000 450.000824 5040.000000
vertex -750.000000 450.000824 5040.000000
vertex -750.000000 450.000854 5280.000000
endloop
endfacet
facet normal 0.000000 1.000000 0.000000
outer loop
vertex 750.000000 450.000824 5040.000000
vertex -750.000000 450.000854 5280.000000
vertex 750.000000 450.000854 5280.000000
endloop
endfacet
facet normal 0.000000 -1.000000 0.000000
outer loop
vertex -750.000000 -449.999176 5040.000000
vertex 750.000000 -449.999176 5040.000000
vertex 750.000000 -449.999146 5280.000000
endloop
endfacet
facet normal 0.000000 -1.000000 0.000000
outer loop
vertex -750.000000 -449.999176 5040.000000
vertex 750.000000 -449.999146 5280.000000
vertex -750.000000 -449.999146 5280.000000
endloop
endfacet
facet normal -1.000000 0.000000 0.000000
outer loop
vertex -750.000000 450.000824 5040.000000
vertex -750.000000 -449.999176 5040.000000
vertex -750.000000 -449.999146 5280.000000
endloop
endfacet
facet normal -1.000000 0.000000 0.000000
outer loop
vertex -750.000000 450.000824 5040.000000
vertex -750.000000 -449.999146 5280.000000
vertex -750.000000 450.000854 5280.000000
endloop
endfacet
facet normal 1.000000 0.000000 0.000000
outer loop
vertex 750.000000 -449.999176 5040.000000
vertex 750.000000 450.000824 5040.000000
vertex 750.000000 450.000854 5280.000000
endloop
endfacet
facet normal 1.000000 0.000000 0.000000
outer loop
vertex 750.000000 -449.999176 5040.000000
vertex 750.000000 450.000854 5280.000000
vertex 750.000000 -449.999146 5280.000000
endloop
endfacet
endsolid building_037
