solid building_027
facet normal -0.000001 0.000000 1.000000
outer loop
vertex 749.999512 -374.999969 2880.000244
vertex 749.999512 375.000031 2880.000244
vertex -750.000488 374.999969 2879.999756
endloop
endfacet
facet normal -0.000000 0.000000 1.000000
outer loop
vertex 749.999512 -374.999969 2880.000244
vertex -750.000488 374.999969 2879.999756
vertex -750.000488 -375.000031 2879.999756
endloop
endfacet
facet normal -0.000000 1.000000 0.000000
outer loop
vertex 750.000000 375.000031 0.000122
vertex -750.000000 374.999969 -0.000122
vertex -750.000061 374.999969 239.999878
endloop
endfacet
facet normal -0.000000 1.000000 0.000000
outer loop
vertex 750.000000 375.000031 0.000122
vertex -750.000061 374.999969 239.999878
vertex 749.999939 375.000031 240.000122
endloop
endfacet
facet normal 0.000000 -1.000000 -0.000000
outer loop
vertex -750.000000 -375.000031 -0.000122
vertex 750.000000 -374.999969 0.000122
vertex 749.999939 -374.999969 240.000122
endloop
endfacet
facet normal 0.000000 -1.000000 0.000000
outer loop
vertex -750.000000 -375.000031 -0.000122
vertex 749.999939 -374.999969 240.000122
vertex -750.000061 -375.000031 239.999878
endloop
endfacet
facet normal -1.000000 0.000000 -0.000000
outer loop
vertex -750.000000 374.999969 -0.000122
vertex -750.000000 -375.000031 -0.000122
vertex -750.000061 -375.000031 239.999878
endloop
endfacet
facet normal -1.000000 0.000000 -0.000000
outer loop
vertex -750.000000 374.999969 -0.000122
vertex -750.000061 -375.000031 239.999878
vertex -750.000061 374.999969 239.999878
endloop
endfacet
facet normal 1.000000 0.000000 0.000000
outer loop
vertex 750.000000 -374.999969 0.000122
vertex 750.000000 375.000031 0.000122
vertex 749.999939 375.000031 240.000122
endloop
endfacet
facet normal 1.000000 0.000000 0.000000
outer loop
vertex 750.000000 -374.999969 0.000122
vertex 749.999939 375.000031 240.000122
vertex 749.999939 -374.999969 240.000122
endloop
endfacet
facet normal -1.000000 0.000000 0.000000
outer loop
vertex -750.000061 374.999969 239.999878
vertex -750.000061 -375.000031 239.999878
vertex -750.000061 -375.000031 479.999878
endloop
endfacet
facet normal -1.000000 0.000000 0.000000
outer loop
vertex -750.000061 374.999969 239.999878
vertex -750.000061 -375.000031 479.999878
vertex -750.000061 374.999969 479.999878
endloop
endfacet
facet normal 1.000000 0.000000 0.000000
outer loop
vertex 749.999939 -374.999969 240.000122
vertex 749.999939 375.000031 240.000122
vertex 749.999939 375.000031 480.000122
endloop
endfacet
facet normal 1.000000 0.000000 0.000000
outer loop
vertex 749.999939 -374.999969 240.000122
vertex 749.999939 375.000031 480.000122
vertex 749.999939 -374.999969 480.000122
endloop
endfacet
facet normal 0.000000 -1.000000 0.000000
outer loop
vertex -750.000061 -375.000031 239.999878
vertex 749.999939 -374.999969 240.000122
vertex 749.999939 -374.999969 480.000122
endloop
endfacet
facet normal 0.000000 -1.000000 0.000000
outer loop
vertex -750.000061 -375.000031 239.999878
vertex 749.999939 -374.999969 480.000122
vertex -750.000061 -375.000031 479.999878
endloop
endfacet
facet normal -0.000000 1.000000 0.000000
outer loop
vertex 749.999939 375.000031 240.000122
vertex -750.000061 374.999969 239.999878
vertex -750.000061 374.999969 479.999878
endloop
endfacet
facet normal -0.000000 1.000000 0.000000
outer loop
vertex 749.999939 375.000031 240.000122
vertex -750.000061 374.999969 479.999878
vertex 749.999939 375.000031 480.000122
endloop
endfacet
facet normal 0.000000 -1.000000 -0.000000
outer loop
vertex -750.000061 -375.000031 479.999878
vertex 749.999939 -374.999969 480.000122
vertex 749.999878 -374.999969 720.000122
endloop
endfacet
facet normal 0.000000 -1.000000 0.000000
outer loop
vertex -750.000061 -375.000031 479.999878
vertex 749.999878 -374.999969 720.000122
vertex -750.000122 -375.000031 719.999878
endloop
endfacet
facet normal -0.000000 1.000000 0.000000
outer loop
vertex 749.999939 375.000031 480.000122
vertex -750.000061 374.999969 479.999878
vertex -750.000122 374.999969 719.999878
endloop
endfacet
facet normal -0.000000 1.000000 0.000000
outer loop
vertex 749.999939 375.000031 480.000122
vertex -750.000122 374.999969 719.999878
vertex 749.999878 375.000031 720.000122
endloop
endfacet
facet normal -1.000000 0.000000 -0.000000
outer loop
vertex -750.000061 374.999969 479.999878
vertex -750.000061 -375.000031 479.999878
vertex -750.000122 -375.000031 719.999878
endloop
endfacet
facet normal -1.000000 0.000000 -0.000000
outer loop
vertex -750.000061 374.999969 479.999878
vertex -750.000122 -375.000031 719.999878
vertex -750.000122 374.999969 719.999878
endloop
endfacet
facet normal 1.000000 0.000000 0.000000
outer loop
vertex 749.999939 -374.999969 480.000122
vertex 749.999939 375.000031 480.000122
vertex 749.999878 375.000031 720.000122
endloop
endfacet
facet normal 1.000000 0.000000 0.000000
outer loop
vertex 749.999939 -374.999969 480.000122
vertex 749.999878 375.000031 720.000122
vertex 749.999878 -374.999969 720.000122
endloop
endfacet
facet normal -1.000000 0.000000 -0.000000
outer loop
vertex -750.000122 374.999969 719.999878
vertex -750.000122 -375.000031 719.999878
vertex -750.000183 -375.000031 959.999878
endloop
endfacet
facet normal -1.000000 0.000000 -0.000000
outer loop
vertex -750.000122 374.999969 719.999878
vertex -750.000183 -375.000031 959.999878
vertex -750.000183 374.999969 959.999878
endloop
endfacet
facet normal 1.000000 0.000000 0.000000
outer loop
vertex 749.999878 -374.999969 720.000122
vertex 749.999878 375.000031 720.000122
vertex 749.999817 375.000031 960.000122
endloop
endfacet
facet normal 1.000000 0.000000 0.000000
outer loop
vertex 749.999878 -374.999969 720.000122
vertex 749.999817 375.000031 960.000122
vertex 749.999817 -374.999969 960.000122
endloop
endfacet
facet normal 0.000000 -1.000000 -0.000000
outer loop
vertex -750.000122 -375.000031 719.999878
vertex 749.999878 -374.999969 720.000122
vertex 749.999817 -374.999969 960.000122
endloop
endfacet
facet normal 0.000000 -1.000000 0.000000
outer loop
vertex -750.000122 -375.000031 719.999878
vertex 749.999817 -374.999969 960.000122
vertex -750.000183 -375.000031 959.999878
endloop
endfacet
facet normal -0.000000 1.000000 0.000000
outer loop
vertex 749.999878 375.000031 720.000122
vertex -750.000122 374.999969 719.999878
vertex -750.000183 374.999969 959.999878
endloop
endfacet
facet normal -0.000000 1.000000 0.000000
outer loop
vertex 749.999878 375.000031 720.000122
vertex -750.000183 374.999969 959.999878
vertex 749.999817 375.000031 960.000122
endloop
endfacet
facet normal 1.000000 0.000000 0.000000
outer loop
vertex 749.999817 -374.999969 960.000122
vertex 749.999817 375.000031 960.000122
vertex 749.999817 375.000031 1200.000122
endloop
endfacet
facet normal 1.000000 0.000000 0.000000
outer loop
vertex 749.999817 -374.999969 960.000122
vertex 749.999817 375.000031 1200.000122
vertex 749.999817 -374.999969 1200.000122
endloop
endfacet
facet normal 0.000000 -1.000000 0.000000
outer loop
vertex -750.000183 -375.000031 959.999878
vertex 749.999817 -374.999969 960.000122
vertex 749.999817 -374.999969 1200.000122
endloop
endfacet
facet normal 0.000000 -1.000000 0.000000
outer loop
vertex -750.000183 -375.000031 959.999878
vertex 749.999817 -374.999969 1200.000122
vertex -750.000183 -375.000031 1199.999878
endloop
endfacet
facet normal -0.000000 1.000000 0.000000
outer loop
vertex 749.999817 375.000031 960.000122
vertex -750.000183 374.999969 959.999878
vertex -750.000183 374.999969 1199.999878
endloop
endfacet
facet normal -0.000000 1.000000 0.000000
outer loop
vertex 749.999817 375.000031 960.000122
vertex -750.000183 374.999969 1199.999878
vertex 749.999817 375.000031 1200.000122
endloop
endfacet
facet normal -1.000000 0.000000 0.000000
outer loop
vertex -750.000183 374.999969 959.999878
vertex -750.000183 -375.000031 959.999878
vertex -750.000183 -375.000031 1199.999878
endloop
endfacet
facet normal -1.000000 0.000000 0.000000
outer loop
vertex -750.000183 374.999969 959.999878
vertex -750.000183 -375.000031 1199.999878
vertex -750.000183 374.999969 1199.999878
endloop
endfacet
facet normal 0.000000 -1.000000 -0.000000
outer loop
vertex -750.000183 -375.000031 1199.999878
vertex 749.999817 -374.999969 1200.000122
vertex 749.999756 -374.999969 1440.000122
endloop
endfacet
facet normal 0.000000 -1.000000 0.000000
outer loop
vertex -750.000183 -375.000031 1199.999878
vertex 749.999756 -374.999969 1440.000122
vertex -750.000244 -375.000031 1439.999878
endloop
endfacet
facet normal -0.000000 1.000000 0.000000
outer loop
vertex 749.999817 375.000031 1200.000122
vertex -750.000183 374.999969 1199.999878
vertex -750.000244 374.999969 1439.999878
endloop
endfacet
facet normal -0.000000 1.000000 0.000000
outer loop
vertex 749.999817 375.000031 1200.000122
vertex -750.000244 374.999969 1439.999878
vertex 749.999756 375.000031 1440.000122
endloop
endfacet
facet normal -1.000000 0.000000 -0.000000
outer loop
vertex -750.000183 374.999969 1199.999878
vertex -750.000183 -375.000031 1199.999878
vertex -750.000244 -375.000031 1439.999878
endloop
endfacet
facet normal -1.000000 0.000000 -0.000000
outer loop
vertex -750.000183 374.999969 1199.999878
vertex -750.000244 -375.000031 1439.999878
vertex -750.000244 374.999969 1439.999878
endloop
endfacet
facet normal 1.000000 0.000000 0.000000
outer loop
vertex 749.999817 -374.999969 1200.000122
vertex 749.999817 375.000031 1200.000122
vertex 749.999756 375.000031 1440.000122
endloop
endfacet
facet normal 1.000000 0.000000 0.000000
outer loop
vertex 749.999817 -374.999969 1200.000122
vertex 749.999756 375.000031 1440.000122
vertex 749.999756 -374.999969 1440.000122
endloop
endfacet
facet normal -1.000000 0.000000 0.000000
outer loop
vertex -750.000244 374.999969 1439.999878
vertex -750.000244 -375.000031 1439.999878
vertex -750.000244 -375.000031 1679.999878
endloop
endfacet
facet normal -1.000000 0.000000 0.000000
outer loop
vertex -750.000244 374.999969 1439.999878
vertex -750.000244 -375.000031 1679.999878
vertex -750.000244 374.999969 1679.999878
endloop
endfacet
facet normal 1.000000 0.000000 0.000000
outer loop
vertex 749.999756 -374.999969 1440.000122
vertex 749.999756 375.000031 1440.000122
vertex 749.999756 375.000031 1680.000122
endloop
endfacet
facet normal 1.000000 0.000000 0.000000
outer loop
vertex 749.999756 -374.999969 1440.000122
vertex 749.999756 375.000031 1680.000122
vertex 749.999756 -374.999969 1680.000122
endloop
endfacet
facet normal 0.000000 -1.000000 0.000000
outer loop
vertex -750.000244 -375.000031 1439.999878
vertex 749.999756 -374.999969 1440.000122
vertex 749.999756 -374.999969 1680.000122
endloop
endfacet
facet normal 0.000000 -1.000000 0.000000
outer loop
vertex -750.000244 -375.000031 1439.999878
vertex 749.999756 -374.999969 1680.000122
vertex -750.000244 -375.000031 1679.999878
endloop
endfacet
facet normal -0.000000 1.000000 0.000000
outer loop
vertex 749.999756 375.000031 1440.000122
vertex -750.000244 374.999969 1439.999878
vertex -750.000244 374.999969 1679.999878
endloop
endfacet
facet normal -0.000000 1.000000 0.000000
outer loop
vertex 749.999756 375.000031 1440.000122
vertex -750.000244 374.999969 1679.999878
vertex 749.999756 375.000031 1680.000122
endloop
endfacet
facet normal 0.000000 -1.000000 -0.000000
outer loop
vertex -750.000244 -375.000031 1679.999878
vertex 749.999756 -374.999969 1680.000122
vertex 749.999695 -374.999969 1920.000122
endloop
endfacet
facet normal 0.000000 -1.000000 0.000000
outer loop
vertex -750.000244 -375.000031 1679.999878
vertex 749.999695 -374.999969 1920.000122
vertex -750.000305 -375.000031 1919.999878
endloop
endfacet
facet normal -0.000000 1.000000 0.000000
outer loop
vertex 749.999756 375.000031 1680.000122
vertex -750.000244 374.999969 1679.999878
vertex -750.000305 374.999969 1919.999878
endloop
endfacet
facet normal -0.000000 1.000000 0.000000
outer loop
vertex 749.999756 375.000031 1680.000122
vertex -750.000305 374.999969 1919.999878
vertex 749.999695 375.000031 1920.000122
endloop
endfacet
facet normal -1.000000 0.000000 -0.000000
outer loop
vertex -750.000244 374.999969 1679.999878
vertex -750.000244 -375.000031 1679.999878
vertex -750.000305 -375.000031 1919.999878
endloop
endfacet
facet normal -1.000000 0.000000 -0.000000
outer loop
vertex -750.000244 374.999969 1679.999878
vertex -750.000305 -375.000031 1919.999878
vertex -750.000305 374.999969 1919.999878
endloop
endfacet
facet normal 1.000000 0.000000 0.000000
outer loop
vertex 749.999756 -374.999969 1680.000122
vertex 749.999756 375.000031 1680.000122
vertex 749.999695 375.000031 1920.000122
endloop
endfacet
facet normal 1.000000 0.000000 0.000000
outer loop
vertex 749.999756 -374.999969 1680.000122
vertex 749.999695 375.000031 1920.000122
vertex 749.999695 -374.999969 1920.000122
endloop
endfacet
facet normal -0.000000 1.000000 0.000000
outer loop
vertex 749.999695 375.000031 1920.000122
vertex -750.000305 374.999969 1919.999878
vertex -750.000366 374.999969 2159.999756
endloop
endfacet
facet normal -0.000000 1.000000 0.000000
outer loop
vertex 749.999695 375.000031 1920.000122
vertex -750.000366 374.999969 2159.999756
vertex 749.999634 375.000031 2160.000244
endloop
endfacet
facet normal -1.000000 0.000000 -0.000000
outer loop
vertex -750.000305 374.999969 1919.999878
vertex -750.000305 -375.000031 1919.999878
vertex -750.000366 -375.000031 2159.999756
endloop
endfacet
facet normal -1.000000 0.000000 -0.000000
outer loop
vertex -750.000305 374.999969 1919.999878
vertex -750.000366 -375.000031 2159.999756
vertex -750.000366 374.999969 2159.999756
endloop
endfacet
facet normal 1.000000 0.000000 0.000000
outer loop
vertex 749.999695 -374.999969 1920.000122
vertex 749.999695 375.000031 1920.000122
vertex 749.999634 375.000031 2160.000244
endloop
endfacet
facet normal 1.000000 0.000000 0.000000
outer loop
vertex 749.999695 -374.999969 1920.000122
vertex 749.999634 375.000031 2160.000244
vertex 749.999634 -374.999969 2160.000244
endloop
endfacet
facet normal 0.000000 -1.000000 -0.000000
outer loop
vertex -750.000305 -375.000031 1919.999878
vertex 749.999695 -374.999969 1920.000122
vertex 749.999634 -374.999969 2160.000244
endloop
endfacet
facet normal 0.000000 -1.000000 0.000000
outer loop
vertex -750.000305 -375.000031 1919.999878
vertex 749.999634 -374.999969 2160.000244
vertex -750.000366 -375.000031 2159.999756
endloop
endfacet
facet normal -1.000000 0.000000 0.000000
outer loop
vertex -750.000366 374.999969 2159.999756
vertex -750.000366 -375.000031 2159.999756
vertex -750.000366 -375.000031 2399.999756
endloop
endfacet
facet normal -1.000000 0.000000 0.000000
outer loop
vertex -750.000366 374.999969 2159.999756
vertex -750.000366 -375.000031 2399.999756
vertex -750.000366 374.999969 2399.999756
endloop
endfacet
facet normal 1.000000 0.000000 0.000000
outer loop
vertex 749.999634 -374.999969 2160.000244
vertex 749.999634 375.000031 2160.000244
vertex 749.999634 375.000031 2400.000244
endloop
endfacet
facet normal 1.000000 0.000000 0.000000
outer loop
vertex 749.999634 -374.999969 2160.000244
vertex 749.999634 375.000031 2400.000244
vertex 749.999634 -374.999969 2400.000244
endloop
endfacet
facet normal 0.000000 -1.000000 0.000000
outer loop
vertex -750.000366 -375.000031 2159.999756
vertex 749.999634 -374.999969 2160.000244
vertex 749.999634 -374.999969 2400.000244
endloop
endfacet
facet normal 0.000000 -1.000000 0.000000
outer loop
vertex -750.000366 -375.000031 2159.999756
vertex 749.999634 -374.999969 2400.000244
vertex -750.000366 -375.000031 2399.999756
endloop
endfacet
facet normal -0.000000 1.000000 0.000000
outer loop
vertex 749.999634 375.000031 2160.000244
vertex -750.000366 374.999969 2159.999756
vertex -750.000366 374.999969 2399.999756
endloop
endfacet
facet normal -0.000000 1.000000 0.000000
outer loop
vertex 749.999634 375.000031 2160.000244
vertex -750.000366 374.999969 2399.999756
vertex 749.999634 375.000031 2400.000244
endloop
endfacet
facet normal 0.000000 -1.000000 -0.000000
outer loop
vertex -750.000366 -375.000031 2399.999756
vertex 749.999634 -374.999969 2400.000244
vertex 749.999573 -374.999969 2640.000244
endloop
endfacet
facet normal 0.000000 -1.000000 0.000000
outer loop
vertex -750.000366 -375.000031 2399.999756
vertex 749.999573 -374.999969 2640.000244
vertex -750.000427 -375.000031 2639.999756
endloop
endfacet
facet normal -0.000000 1.000000 0.000000
outer loop
vertex 749.999634 375.000031 2400.000244
vertex -750.000366 374.999969 2399.999756
vertex -750.000427 374.999969 2639.999756
endloop
endfacet
facet normal -0.000000 1.000000 0.000000
outer loop
vertex 749.999634 375.000031 2400.000244
vertex -750.000427 374.999969 2639.999756
vertex 749.999573 375.000031 2640.000244
endloop
endfacet
facet normal -1.000000 0.000000 -0.000000
outer loop
vertex -750.000366 374.999969 2399.999756
vertex -750.000366 -375.000031 2399.999756
vertex -750.000427 -375.000031 2639.999756
endloop
endfacet
facet normal -1.000000 0.000000 -0.000000
outer loop
vertex -750.000366 374.999969 2399.999756
vertex -750.000427 -375.000031 2639.999756
vertex -750.000427 374.999969 2639.999756
endloop
endfacet
facet normal 1.000000 0.000000 0.000000
outer loop
vertex 749.999634 -374.999969 2400.000244
vertex 749.999634 375.000031 2400.000244
vertex 749.999573 375.000031 2640.000244
endloop
endfacet
facet normal 1.000000 0.000000 0.000000
outer loop
vertex 749.999634 -374.999969 2400.000244
vertex 749.999573 375.000031 2640.000244
vertex 749.999573 -374.999969 2640.000244
endloop
endfacet
facet normal -1.000000 0.000000 -0.000000
outer loop
vertex -750.000427 374.999969 2639.999756
vertex -750.000427 -375.000031 2639.999756
vertex -750.000488 -375.000031 2879.999756
endloop
endfacet
facet normal -1.000000 0.000000 -0.000000
outer loop
vertex -750.000427 374.999969 2639.999756
vertex -750.000488 -375.000031 2879.999756
vertex -750.000488 374.999969 2879.999756
endloop
endfacet
facet normal 1.000000 0.000000 0.000000
outer loop
vertex 749.999573 -374.999969 2640.000244
vertex 749.999573 375.000031 2640.000244
vertex 749.999512 375.000031 2880.000244
endloop
endfacet
facet normal 1.000000 0.000000 0.000000
outer loop
vertex 749.999573 -374.999969 2640.000244
vertex 749.999512 375.000031 2880.000244
vertex 749.999512 -374.999969 2880.000244
endloop
endfacet
facet normal 0.000000 -1.000000 -0.000000
outer loop
vertex -750.000427 -375.000031 2639.999756
vertex 749.999573 -374.999969 2640.000244
vertex 749.999512 -374.999969 2880.000244
endloop
endfacet
facet normal 0.000000 -1.000000 0.000000
outer loop
vertex -750.000427 -375.000031 2639.999756
vertex 749.999512 -374.999969 2880.000244
vertex -750.000488 -375.000031 2879.999756
endloop
endfacet
facet normal -0.000000 1.000000 0.000000
outer loop
vertex 749.999573 375.000031 2640.000244
vertex -750.000427 374.999969 2639.999756
vertex -750.000488 374.999969 2879.999756
endloop
endfacet
facet normal -0.000000 1.000000 0.000000
outer loop
vertex 749.999573 375.000031 2640.000244
vertex -750.000488 374.999969 2879.999756
vertex 749.999512 375.000031 2880.000244
endloop
endfacet
endsolid building_027
