solid building_025
facet normal -1.000000 0.000000 0.000000
outer loop
vertex -750.000000 600.000000 -0.000098
vertex -750.000000 450.000000 -0.000073
vertex -750.000000 450.000061 449.999939
endloop
endfacet
facet normal -1.000000 0.000000 0.000000
outer loop
vertex -750.000000 600.000000 -0.000098
vertex -750.000000 450.000061 449.999939
vertex -750.000000 600.000061 449.999908
endloop
endfacet
facet normal 0.000000 -1.000000 0.000000
outer loop
vertex -750.000000 -600.000000 0.000098
vertex 750.000000 -600.000000 0.000098
vertex 750.000000 -599.999939 450.000092
endloop
endfacet
facet normal 0.000000 -1.000000 0.000000
outer loop
vertex -750.000000 -600.000000 0.000098
vertex 750.000000 -599.999939 450.000092
vertex -750.000000 -599.999939 450.000092
endloop
endfacet
facet normal 1.000000 0.000000 0.000000
outer loop
vertex 900.000000 -450.000000 0.000073
vertex 900.000000 450.000000 -0.000073
vertex 900.000000 450.000061 449.999939
endloop
endfacet
facet normal 1.000000 0.000000 0.000000
outer loop
vertex 900.000000 -450.000000 0.000073
vertex 900.000000 450.000061 449.999939
vertex 900.000000 -449.999939 450.000061
endloop
endfacet
facet normal 0.000000 0.000000 1.000000
outer loop
vertex -750.000000 -449.999329 4050.000000
vertex -750.000000 -599.999329 4050.000000
vertex 750.000000 -599.999329 4050.000000
endloop
endfacet
facet normal 0.000000 0.000000 1.000000
outer loop
vertex 750.000000 -449.999329 4050.000000
vertex 900.000000 -449.999329 4050.000000
vertex 900.000000 450.000671 4050.000000
endloop
endfacet
facet normal 0.000000 0.000000 1.000000
outer loop
vertex -750.000000 -449.999329 4050.000000
vertex 750.000000 -599.999329 4050.000000
vertex 750.000000 -449.999329 4050.000000
endloop
endfacet
facet normal 0.000000 0.000000 1.000000
outer loop
vertex -900.000000 450.000671 4050.000000
vertex -900.000000 -449.999329 4050.000000
vertex -750.000000 -449.999329 4050.000000
endloop
endfacet
facet normal 0.000000 0.000000 1.000000
outer loop
vertex 750.000000 600.000671 4050.000000
vertex -750.000000 600.000671 4050.000000
vertex -750.000000 450.000671 4050.000000
endloop
endfacet
facet normal 0.000000 0.000000 1.000000
outer loop
vertex -750.000000 450.000671 4050.000000
vertex -900.000000 450.000671 4050.000000
vertex -750.000000 -449.999329 4050.000000
endloop
endfacet
facet normal 0.000000 0.000000 1.000000
outer loop
vertex -750.000000 -449.999329 4050.000000
vertex 750.000000 -449.999329 4050.000000
vertex 900.000000 450.000671 4050.000000
endloop
endfacet
facet normal 0.000000 0.000000 1.000000
outer loop
vertex 750.000000 450.000671 4050.000000
vertex 750.000000 600.000671 4050.000000
vertex -750.000000 450.000671 4050.000000
endloop
endfacet
facet normal 0.000000 0.000000 1.000000
outer loop
vertex -750.000000 -449.999329 4050.000000
vertex 900.000000 450.000671 4050.000000
vertex 750.000000 450.000671 4050.000000
endloop
endfacet
facet normal 0.000000 0.000000 1.000000
outer loop
vertex -750.000000 -449.999329 4050.000000
vertex 750.000000 450.000671 4050.000000
vertex -750.000000 450.000671 4050.000000
endloop
endfacet
facet normal -1.000000 0.000000 0.000000
outer loop
vertex -900.000000 450.000000 -0.000073
vertex -900.000000 -450.000000 0.000073
vertex -900.000000 -449.999939 450.000061
endloop
endfacet
facet normal -1.000000 0.000000 0.000000
outer loop
vertex -900.000000 450.000000 -0.000073
vertex -900.000000 -449.999939 450.000061
vertex -900.000000 450.000061 449.999939
endloop
endfacet
facet normal 0.000000 -1.000000 0.000000
outer loop
vertex -900.000000 -450.000000 0.000073
vertex -750.000000 -450.000000 0.000073
vertex -750.000000 -449.999939 450.000061
endloop
endfacet
facet normal 0.000000 -1.000000 0.000000
outer loop
vertex -900.000000 -450.000000 0.000073
vertex -750.000000 -449.999939 450.000061
vertex -900.000000 -449.999939 450.000061
endloop
endfacet
facet normal 1.000000 0.000000 0.000000
outer loop
vertex 750.000000 -600.000000 0.000098
vertex 750.000000 -450.000000 0.000073
vertex 750.000000 -449.999939 450.000061
endloop
endfacet
facet normal 1.000000 0.000000 0.000000
outer loop
vertex 750.000000 -600.000000 0.000098
vertex 750.000000 -449.999939 450.000061
vertex 750.000000 -599.999939 450.000092
endloop
endfacet
facet normal 1.000000 0.000000 0.000000
outer loop
vertex 750.000000 450.000000 -0.000073
vertex 750.000000 600.000000 -0.000098
vertex 750.000000 600.000061 449.999908
endloop
endfacet
facet normal 1.000000 0.000000 0.000000
outer loop
vertex 750.000000 450.000000 -0.000073
vertex 750.000000 600.000061 449.999908
vertex 750.000000 450.000061 449.999939
endloop
endfacet
facet normal 0.000000 1.000000 -0.000000
outer loop
vertex 900.000000 450.000000 -0.000073
vertex 750.000000 450.000000 -0.000073
vertex 750.000000 450.000061 449.999939
endloop
endfacet
facet normal 0.000000 1.000000 0.000000
outer loop
vertex 900.000000 450.000000 -0.000073
vertex 750.000000 450.000061 449.999939
vertex 900.000000 450.000061 449.999939
endloop
endfacet
facet normal 0.000000 1.000000 -0.000000
outer loop
vertex -750.000000 450.000000 -0.000073
vertex -900.000000 450.000000 -0.000073
vertex -900.000000 450.000061 449.999939
endloop
endfacet
facet normal 0.000000 1.000000 0.000000
outer loop
vertex -750.000000 450.000000 -0.000073
vertex -900.000000 450.000061 449.999939
vertex -750.000000 450.000061 449.999939
endloop
endfacet
facet normal -1.000000 0.000000 0.000000
outer loop
vertex -750.000000 -450.000000 0.000073
vertex -750.000000 -600.000000 0.000098
vertex -750.000000 -599.999939 450.000092
endloop
endfacet
facet normal -1.000000 0.000000 0.000000
outer loop
vertex -750.000000 -450.000000 0.000073
vertex -750.000000 -599.999939 450.000092
vertex -750.000000 -449.999939 450.000061
endloop
endfacet
facet normal 0.000000 -1.000000 0.000000
outer loop
vertex 750.000000 -450.000000 0.000073
vertex 900.000000 -450.000000 0.000073
vertex 900.000000 -449.999939 450.000061
endloop
endfacet
facet normal 0.000000 -1.000000 0.000000
outer loop
vertex 750.000000 -450.000000 0.000073
vertex 900.000000 -449.999939 450.000061
vertex 750.000000 -449.999939 450.000061
endloop
endfacet
facet normal 0.000000 1.000000 0.000000
outer loop
vertex 750.000000 600.000000 -0.000098
vertex -750.000000 600.000000 -0.000098
vertex -750.000000 600.000061 449.999908
endloop
endfacet
facet normal 0.000000 1.000000 -0.000000
outer loop
vertex 750.000000 600.000000 -0.000098
vertex -750.000000 600.000061 449.999908
vertex 750.000000 600.000061 449.999908
endloop
endfacet
facet normal 0.000000 -1.000000 0.000000
outer loop
vertex -750.000000 -599.999939 450.000092
vertex 750.000000 -599.999939 450.000092
vertex 750.000000 -599.999878 900.000122
endloop
endfacet
facet normal 0.000000 -1.000000 0.000000
outer loop
vertex -750.000000 -599.999939 450.000092
vertex 750.000000 -599.999878 900.000122
vertex -750.000000 -599.999878 900.000122
endloop
endfacet
facet normal -1.000000 0.000000 0.000000
outer loop
vertex -750.000000 600.000061 449.999908
vertex -750.000000 450.000061 449.999939
vertex -750.000000 450.000153 899.999939
endloop
endfacet
facet normal -1.000000 0.000000 0.000000
outer loop
vertex -750.000000 600.000061 449.999908
vertex -750.000000 450.000153 899.999939
vertex -750.000000 600.000122 899.999878
endloop
endfacet
facet normal -1.000000 0.000001 0.000000
outer loop
vertex -750.000000 -449.999939 450.000061
vertex -750.000000 -599.999939 450.000092
vertex -750.000000 -599.999878 900.000122
endloop
endfacet
facet normal -1.000000 -0.000000 0.000000
outer loop
vertex -750.000000 -449.999939 450.000061
vertex -750.000000 -599.999878 900.000122
vertex -750.000000 -449.999847 900.000061
endloop
endfacet
facet normal 0.000000 1.000000 -0.000000
outer loop
vertex 900.000000 450.000061 449.999939
vertex 750.000000 450.000061 449.999939
vertex 750.000000 450.000153 899.999939
endloop
endfacet
facet normal 0.000000 1.000000 -0.000000
outer loop
vertex 900.000000 450.000061 449.999939
vertex 750.000000 450.000153 899.999939
vertex 900.000000 450.000153 899.999939
endloop
endfacet
facet normal 0.000000 1.000000 -0.000000
outer loop
vertex -750.000000 450.000061 449.999939
vertex -900.000000 450.000061 449.999939
vertex -900.000000 450.000153 899.999939
endloop
endfacet
facet normal 0.000000 1.000000 -0.000000
outer loop
vertex -750.000000 450.000061 449.999939
vertex -900.000000 450.000153 899.999939
vertex -750.000000 450.000153 899.999939
endloop
endfacet
facet normal 1.000000 0.000001 0.000000
outer loop
vertex 750.000000 450.000061 449.999939
vertex 750.000000 600.000061 449.999908
vertex 750.000000 600.000122 899.999878
endloop
endfacet
facet normal 1.000000 -0.000000 0.000000
outer loop
vertex 750.000000 450.000061 449.999939
vertex 750.000000 600.000122 899.999878
vertex 750.000000 450.000153 899.999939
endloop
endfacet
facet normal 0.000000 -1.000000 0.000000
outer loop
vertex 750.000000 -449.999939 450.000061
vertex 900.000000 -449.999939 450.000061
vertex 900.000000 -449.999847 900.000061
endloop
endfacet
facet normal 0.000000 -1.000000 0.000000
outer loop
vertex 750.000000 -449.999939 450.000061
vertex 900.000000 -449.999847 900.000061
vertex 750.000000 -449.999847 900.000061
endloop
endfacet
facet normal -1.000000 0.000000 0.000000
outer loop
vertex -900.000000 450.000061 449.999939
vertex -900.000000 -449.999939 450.000061
vertex -900.000000 -449.999847 900.000061
endloop
endfacet
facet normal -1.000000 0.000000 0.000000
outer loop
vertex -900.000000 450.000061 449.999939
vertex -900.000000 -449.999847 900.000061
vertex -900.000000 450.000153 899.999939
endloop
endfacet
facet normal 1.000000 0.000000 0.000000
outer loop
vertex 750.000000 -599.999939 450.000092
vertex 750.000000 -449.999939 450.000061
vertex 750.000000 -449.999847 900.000061
endloop
endfacet
facet normal 1.000000 0.000000 0.000000
outer loop
vertex 750.000000 -599.999939 450.000092
vertex 750.000000 -449.999847 900.000061
vertex 750.000000 -599.999878 900.000122
endloop
endfacet
facet normal 0.000000 1.000000 -0.000000
outer loop
vertex 750.000000 600.000061 449.999908
vertex -750.000000 600.000061 449.999908
vertex -750.000000 600.000122 899.999878
endloop
endfacet
facet normal 0.000000 1.000000 0.000000
outer loop
vertex 750.000000 600.000061 449.999908
vertex -750.000000 600.000122 899.999878
vertex 750.000000 600.000122 899.999878
endloop
endfacet
facet normal 1.000000 0.000000 0.000000
outer loop
vertex 900.000000 -449.999939 450.000061
vertex 900.000000 450.000061 449.999939
vertex 900.000000 450.000153 899.999939
endloop
endfacet
facet normal 1.000000 0.000000 0.000000
outer loop
vertex 900.000000 -449.999939 450.000061
vertex 900.000000 450.000153 899.999939
vertex 900.000000 -449.999847 900.000061
endloop
endfacet
facet normal 0.000000 -1.000000 0.000000
outer loop
vertex -900.000000 -449.999939 450.000061
vertex -750.000000 -449.999939 450.000061
vertex -750.000000 -449.999847 900.000061
endloop
endfacet
facet normal 0.000000 -1.000000 0.000000
outer loop
vertex -900.000000 -449.999939 450.000061
vertex -750.000000 -449.999847 900.000061
vertex -900.000000 -449.999847 900.000061
endloop
endfacet
facet normal 0.000000 -1.000000 0.000000
outer loop
vertex -750.000000 -599.999878 900.000122
vertex 750.000000 -599.999878 900.000122
vertex 750.000000 -599.999756 1350.000122
endloop
endfacet
facet normal 0.000000 -1.000000 0.000000
outer loop
vertex -750.000000 -599.999878 900.000122
vertex 750.000000 -599.999756 1350.000122
vertex -750.000000 -599.999756 1350.000122
endloop
endfacet
facet normal -1.000000 0.000000 0.000000
outer loop
vertex -750.000000 600.000122 899.999878
vertex -750.000000 450.000153 899.999939
vertex -750.000000 450.000214 1349.999878
endloop
endfacet
facet normal -1.000000 0.000000 0.000000
outer loop
vertex -750.000000 600.000122 899.999878
vertex -750.000000 450.000214 1349.999878
vertex -750.000000 600.000244 1349.999878
endloop
endfacet
facet normal 0.000000 1.000000 -0.000000
outer loop
vertex 900.000000 450.000153 899.999939
vertex 750.000000 450.000153 899.999939
vertex 750.000000 450.000214 1349.999878
endloop
endfacet
facet normal 0.000000 1.000000 0.000000
outer loop
vertex 900.000000 450.000153 899.999939
vertex 750.000000 450.000214 1349.999878
vertex 900.000000 450.000214 1349.999878
endloop
endfacet
facet normal 1.000000 0.000000 0.000000
outer loop
vertex 750.000000 -599.999878 900.000122
vertex 750.000000 -449.999847 900.000061
vertex 750.000000 -449.999786 1350.000122
endloop
endfacet
facet normal 1.000000 0.000000 0.000000
outer loop
vertex 750.000000 -599.999878 900.000122
vertex 750.000000 -449.999786 1350.000122
vertex 750.000000 -599.999756 1350.000122
endloop
endfacet
facet normal 0.000000 1.000000 -0.000000
outer loop
vertex -750.000000 450.000153 899.999939
vertex -900.000000 450.000153 899.999939
vertex -900.000000 450.000214 1349.999878
endloop
endfacet
facet normal 0.000000 1.000000 0.000000
outer loop
vertex -750.000000 450.000153 899.999939
vertex -900.000000 450.000214 1349.999878
vertex -750.000000 450.000214 1349.999878
endloop
endfacet
facet normal 1.000000 0.000000 0.000000
outer loop
vertex 750.000000 450.000153 899.999939
vertex 750.000000 600.000122 899.999878
vertex 750.000000 600.000244 1349.999878
endloop
endfacet
facet normal 1.000000 0.000000 0.000000
outer loop
vertex 750.000000 450.000153 899.999939
vertex 750.000000 600.000244 1349.999878
vertex 750.000000 450.000214 1349.999878
endloop
endfacet
facet normal 0.000000 -1.000000 0.000000
outer loop
vertex 750.000000 -449.999847 900.000061
vertex 900.000000 -449.999847 900.000061
vertex 900.000000 -449.999786 1350.000122
endloop
endfacet
facet normal 0.000000 -1.000000 0.000000
outer loop
vertex 750.000000 -449.999847 900.000061
vertex 900.000000 -449.999786 1350.000122
vertex 750.000000 -449.999786 1350.000122
endloop
endfacet
facet normal -1.000000 0.000000 0.000000
outer loop
vertex -900.000000 450.000153 899.999939
vertex -900.000000 -449.999847 900.000061
vertex -900.000000 -449.999786 1350.000122
endloop
endfacet
facet normal -1.000000 -0.000000 0.000000
outer loop
vertex -900.000000 450.000153 899.999939
vertex -900.000000 -449.999786 1350.000122
vertex -900.000000 450.000214 1349.999878
endloop
endfacet
facet normal -1.000000 0.000000 0.000000
outer loop
vertex -750.000000 -449.999847 900.000061
vertex -750.000000 -599.999878 900.000122
vertex -750.000000 -599.999756 1350.000122
endloop
endfacet
facet normal -1.000000 0.000000 0.000000
outer loop
vertex -750.000000 -449.999847 900.000061
vertex -750.000000 -599.999756 1350.000122
vertex -750.000000 -449.999786 1350.000122
endloop
endfacet
facet normal 0.000000 1.000000 -0.000000
outer loop
vertex 750.000000 600.000122 899.999878
vertex -750.000000 600.000122 899.999878
vertex -750.000000 600.000244 1349.999878
endloop
endfacet
facet normal 0.000000 1.000000 -0.000000
outer loop
vertex 750.000000 600.000122 899.999878
vertex -750.000000 600.000244 1349.999878
vertex 750.000000 600.000244 1349.999878
endloop
endfacet
facet normal 1.000000 0.000000 0.000000
outer loop
vertex 900.000000 -449.999847 900.000061
vertex 900.000000 450.000153 899.999939
vertex 900.000000 450.000214 1349.999878
endloop
endfacet
facet normal 1.000000 -0.000000 0.000000
outer loop
vertex 900.000000 -449.999847 900.000061
vertex 900.000000 450.000214 1349.999878
vertex 900.000000 -449.999786 1350.000122
endloop
endfacet
facet normal 0.000000 -1.000000 0.000000
outer loop
vertex -900.000000 -449.999847 900.000061
vertex -750.000000 -449.999847 900.000061
vertex -750.000000 -449.999786 1350.000122
endloop
endfacet
facet normal 0.000000 -1.000000 0.000000
outer loop
vertex -900.000000 -449.999847 900.000061
vertex -750.000000 -449.999786 1350.000122
vertex -900.000000 -449.999786 1350.000122
endloop
endfacet
facet normal 0.000000 -1.000000 0.000000
outer loop
vertex -900.000000 -449.999786 1350.000122
vertex -750.000000 -449.999786 1350.000122
vertex -750.000000 -449.999695 1800.000122
endloop
endfacet
facet normal 0.000000 -1.000000 0.000000
outer loop
vertex -900.000000 -449.999786 1350.000122
vertex -750.000000 -449.999695 1800.000122
vertex -900.000000 -449.999695 1800.000122
endloop
endfacet
facet normal 0.000000 -1.000000 0.000000
outer loop
vertex -750.000000 -599.999756 1350.000122
vertex 750.000000 -599.999756 1350.000122
vertex 750.000000 -599.999695 1800.000122
endloop
endfacet
facet normal 0.000000 -1.000000 0.000000
outer loop
vertex -750.000000 -599.999756 1350.000122
vertex 750.000000 -599.999695 1800.000122
vertex -750.000000 -599.999695 1800.000122
endloop
endfacet
facet normal -1.000000 0.000000 0.000000
outer loop
vertex -750.000000 600.000244 1349.999878
vertex -750.000000 450.000214 1349.999878
vertex -750.000000 450.000305 1799.999878
endloop
endfacet
facet normal -1.000000 0.000000 0.000000
outer loop
vertex -750.000000 600.000244 1349.999878
vertex -750.000000 450.000305 1799.999878
vertex -750.000000 600.000305 1799.999878
endloop
endfacet
facet normal 0.000000 1.000000 -0.000000
outer loop
vertex 900.000000 450.000214 1349.999878
vertex 750.000000 450.000214 1349.999878
vertex 750.000000 450.000305 1799.999878
endloop
endfacet
facet normal 0.000000 1.000000 -0.000000
outer loop
vertex 900.000000 450.000214 1349.999878
vertex 750.000000 450.000305 1799.999878
vertex 900.000000 450.000305 1799.999878
endloop
endfacet
facet normal 1.000000 0.000000 0.000000
outer loop
vertex 750.000000 -599.999756 1350.000122
vertex 750.000000 -449.999786 1350.000122
vertex 750.000000 -449.999695 1800.000122
endloop
endfacet
facet normal 1.000000 0.000000 0.000000
outer loop
vertex 750.000000 -599.999756 1350.000122
vertex 750.000000 -449.999695 1800.000122
vertex 750.000000 -599.999695 1800.000122
endloop
endfacet
facet normal 0.000000 1.000000 -0.000000
outer loop
vertex -750.000000 450.000214 1349.999878
vertex -900.000000 450.000214 1349.999878
vertex -900.000000 450.000305 1799.999878
endloop
endfacet
facet normal 0.000000 1.000000 -0.000000
outer loop
vertex -750.000000 450.000214 1349.999878
vertex -900.000000 450.000305 1799.999878
vertex -750.000000 450.000305 1799.999878
endloop
endfacet
facet normal 1.000000 0.000000 0.000000
outer loop
vertex 750.000000 450.000214 1349.999878
vertex 750.000000 600.000244 1349.999878
vertex 750.000000 600.000305 1799.999878
endloop
endfacet
facet normal 1.000000 0.000000 0.000000
outer loop
vertex 750.000000 450.000214 1349.999878
vertex 750.000000 600.000305 1799.999878
vertex 750.000000 450.000305 1799.999878
endloop
endfacet
facet normal 0.000000 -1.000000 0.000000
outer loop
vertex 750.000000 -449.999786 1350.000122
vertex 900.000000 -449.999786 1350.000122
vertex 900.000000 -449.999695 1800.000122
endloop
endfacet
facet normal 0.000000 -1.000000 0.000000
outer loop
vertex 750.000000 -449.999786 1350.000122
vertex 900.000000 -449.999695 1800.000122
vertex 750.000000 -449.999695 1800.000122
endloop
endfacet
facet normal -1.000000 0.000000 0.000000
outer loop
vertex -900.000000 450.000214 1349.999878
vertex -900.000000 -449.999786 1350.000122
vertex -900.000000 -449.999695 1800.000122
endloop
endfacet
facet normal -1.000000 -0.000000 0.000000
outer loop
vertex -900.000000 450.000214 1349.999878
vertex -900.000000 -449.999695 1800.000122
vertex -900.000000 450.000305 1799.999878
endloop
endfacet
facet normal -1.000000 0.000000 0.000000
outer loop
vertex -750.000000 -449.999786 1350.000122
vertex -750.000000 -599.999756 1350.000122
vertex -750.000000 -599.999695 1800.000122
endloop
endfacet
facet normal -1.000000 0.000000 0.000000
outer loop
vertex -750.000000 -449.999786 1350.000122
vertex -750.000000 -599.999695 1800.000122
vertex -750.000000 -449.999695 1800.000122
endloop
endfacet
facet normal 0.000000 1.000000 0.000000
outer loop
vertex 750.000000 600.000244 1349.999878
vertex -750.000000 600.000244 1349.999878
vertex -750.000000 600.000305 1799.999878
endloop
endfacet
facet normal 0.000000 1.000000 -0.000000
outer loop
vertex 750.000000 600.000244 1349.999878
vertex -750.000000 600.000305 1799.999878
vertex 750.000000 600.000305 1799.999878
endloop
endfacet
facet normal 1.000000 0.000000 0.000000
outer loop
vertex 900.000000 -449.999786 1350.000122
vertex 900.000000 450.000214 1349.999878
vertex 900.000000 450.000305 1799.999878
endloop
endfacet
facet normal 1.000000 -0.000000 0.000000
outer loop
vertex 900.000000 -449.999786 1350.000122
vertex 900.000000 450.000305 1799.999878
vertex 900.000000 -449.999695 1800.000122
endloop
endfacet
facet normal 1.000000 -0.000000 0.000000
outer loop
vertex 900.000000 -449.999695 1800.000122
vertex 900.000000 450.000305 1799.999878
vertex 900.000000 450.000366 2250.000000
endloop
endfacet
facet normal 1.000000 0.000000 0.000000
outer loop
vertex 900.000000 -449.999695 1800.000122
vertex 900.000000 450.000366 2250.000000
vertex 900.000000 -449.999634 2250.000000
endloop
endfacet
facet normal 0.000000 -1.000000 0.000000
outer loop
vertex -900.000000 -449.999695 1800.000122
vertex -750.000000 -449.999695 1800.000122
vertex -750.000000 -449.999634 2250.000000
endloop
endfacet
facet normal 0.000000 -1.000000 0.000000
outer loop
vertex -900.000000 -449.999695 1800.000122
vertex -750.000000 -449.999634 2250.000000
vertex -900.000000 -449.999634 2250.000000
endloop
endfacet
facet normal 0.000000 -1.000000 0.000000
outer loop
vertex -750.000000 -599.999695 1800.000122
vertex 750.000000 -599.999695 1800.000122
vertex 750.000000 -599.999634 2250.000000
endloop
endfacet
facet normal 0.000000 -1.000000 0.000000
outer loop
vertex -750.000000 -599.999695 1800.000122
vertex 750.000000 -599.999634 2250.000000
vertex -750.000000 -599.999634 2250.000000
endloop
endfacet
facet normal -1.000000 0.000000 0.000000
outer loop
vertex -750.000000 600.000305 1799.999878
vertex -750.000000 450.000305 1799.999878
vertex -750.000000 450.000366 2250.000000
endloop
endfacet
facet normal -1.000000 0.000000 0.000000
outer loop
vertex -750.000000 600.000305 1799.999878
vertex -750.000000 450.000366 2250.000000
vertex -750.000000 600.000366 2250.000000
endloop
endfacet
facet normal 0.000000 1.000000 0.000000
outer loop
vertex 900.000000 450.000305 1799.999878
vertex 750.000000 450.000305 1799.999878
vertex 750.000000 450.000366 2250.000000
endloop
endfacet
facet normal 0.000000 1.000000 -0.000000
outer loop
vertex 900.000000 450.000305 1799.999878
vertex 750.000000 450.000366 2250.000000
vertex 900.000000 450.000366 2250.000000
endloop
endfacet
facet normal 1.000000 0.000000 0.000000
outer loop
vertex 750.000000 -599.999695 1800.000122
vertex 750.000000 -449.999695 1800.000122
vertex 750.000000 -449.999634 2250.000000
endloop
endfacet
facet normal 1.000000 0.000000 0.000000
outer loop
vertex 750.000000 -599.999695 1800.000122
vertex 750.000000 -449.999634 2250.000000
vertex 750.000000 -599.999634 2250.000000
endloop
endfacet
facet normal 0.000000 1.000000 0.000000
outer loop
vertex -750.000000 450.000305 1799.999878
vertex -900.000000 450.000305 1799.999878
vertex -900.000000 450.000366 2250.000000
endloop
endfacet
facet normal 0.000000 1.000000 -0.000000
outer loop
vertex -750.000000 450.000305 1799.999878
vertex -900.000000 450.000366 2250.000000
vertex -750.000000 450.000366 2250.000000
endloop
endfacet
facet normal 1.000000 0.000000 0.000000
outer loop
vertex 750.000000 450.000305 1799.999878
vertex 750.000000 600.000305 1799.999878
vertex 750.000000 600.000366 2250.000000
endloop
endfacet
facet normal 1.000000 0.000000 0.000000
outer loop
vertex 750.000000 450.000305 1799.999878
vertex 750.000000 600.000366 2250.000000
vertex 750.000000 450.000366 2250.000000
endloop
endfacet
facet normal 0.000000 -1.000000 0.000000
outer loop
vertex 750.000000 -449.999695 1800.000122
vertex 900.000000 -449.999695 1800.000122
vertex 900.000000 -449.999634 2250.000000
endloop
endfacet
facet normal 0.000000 -1.000000 0.000000
outer loop
vertex 750.000000 -449.999695 1800.000122
vertex 900.000000 -449.999634 2250.000000
vertex 750.000000 -449.999634 2250.000000
endloop
endfacet
facet normal -1.000000 -0.000000 0.000000
outer loop
vertex -900.000000 450.000305 1799.999878
vertex -900.000000 -449.999695 1800.000122
vertex -900.000000 -449.999634 2250.000000
endloop
endfacet
facet normal -1.000000 0.000000 0.000000
outer loop
vertex -900.000000 450.000305 1799.999878
vertex -900.000000 -449.999634 2250.000000
vertex -900.000000 450.000366 2250.000000
endloop
endfacet
facet normal -1.000000 0.000000 0.000000
outer loop
vertex -750.000000 -449.999695 1800.000122
vertex -750.000000 -599.999695 1800.000122
vertex -750.000000 -599.999634 2250.000000
endloop
endfacet
facet normal -1.000000 0.000000 0.000000
outer loop
vertex -750.000000 -449.999695 1800.000122
vertex -750.000000 -599.999634 2250.000000
vertex -750.000000 -449.999634 2250.000000
endloop
endfacet
facet normal 0.000000 1.000000 -0.000000
outer loop
vertex 750.000000 600.000305 1799.999878
vertex -750.000000 600.000305 1799.999878
vertex -750.000000 600.000366 2250.000000
endloop
endfacet
facet normal 0.000000 1.000000 0.000000
outer loop
vertex 750.000000 600.000305 1799.999878
vertex -750.000000 600.000366 2250.000000
vertex 750.000000 600.000366 2250.000000
endloop
endfacet
facet normal 1.000000 0.000000 0.000000
outer loop
vertex 900.000000 -449.999634 2250.000000
vertex 900.000000 450.000366 2250.000000
vertex 900.000000 450.000427 2700.000000
endloop
endfacet
facet normal 1.000000 0.000000 0.000000
outer loop
vertex 900.000000 -449.999634 2250.000000
vertex 900.000000 450.000427 2700.000000
vertex 900.000000 -449.999573 2700.000000
endloop
endfacet
facet normal 0.000000 -1.000000 0.000000
outer loop
vertex -900.000000 -449.999634 2250.000000
vertex -750.000000 -449.999634 2250.000000
vertex -750.000000 -449.999573 2700.000000
endloop
endfacet
facet normal 0.000000 -1.000000 0.000000
outer loop
vertex -900.000000 -449.999634 2250.000000
vertex -750.000000 -449.999573 2700.000000
vertex -900.000000 -449.999573 2700.000000
endloop
endfacet
facet normal 0.000000 -1.000000 0.000000
outer loop
vertex -750.000000 -599.999634 2250.000000
vertex 750.000000 -599.999634 2250.000000
vertex 750.000000 -599.999573 2700.000000
endloop
endfacet
facet normal 0.000000 -1.000000 0.000000
outer loop
vertex -750.000000 -599.999634 2250.000000
vertex 750.000000 -599.999573 2700.000000
vertex -750.000000 -599.999573 2700.000000
endloop
endfacet
facet normal -1.000000 0.000000 0.000000
outer loop
vertex -750.000000 600.000366 2250.000000
vertex -750.000000 450.000366 2250.000000
vertex -750.000000 450.000427 2700.000000
endloop
endfacet
facet normal -1.000000 0.000000 0.000000
outer loop
vertex -750.000000 600.000366 2250.000000
vertex -750.000000 450.000427 2700.000000
vertex -750.000000 600.000427 2700.000000
endloop
endfacet
facet normal 0.000000 1.000000 -0.000000
outer loop
vertex 900.000000 450.000366 2250.000000
vertex 750.000000 450.000366 2250.000000
vertex 750.000000 450.000427 2700.000000
endloop
endfacet
facet normal 0.000000 1.000000 0.000000
outer loop
vertex 900.000000 450.000366 2250.000000
vertex 750.000000 450.000427 2700.000000
vertex 900.000000 450.000427 2700.000000
endloop
endfacet
facet normal 1.000000 0.000000 0.000000
outer loop
vertex 750.000000 -599.999634 2250.000000
vertex 750.000000 -449.999634 2250.000000
vertex 750.000000 -449.999573 2700.000000
endloop
endfacet
facet normal 1.000000 0.000000 0.000000
outer loop
vertex 750.000000 -599.999634 2250.000000
vertex 750.000000 -449.999573 2700.000000
vertex 750.000000 -599.999573 2700.000000
endloop
endfacet
facet normal 0.000000 1.000000 -0.000000
outer loop
vertex -750.000000 450.000366 2250.000000
vertex -900.000000 450.000366 2250.000000
vertex -900.000000 450.000427 2700.000000
endloop
endfacet
facet normal 0.000000 1.000000 0.000000
outer loop
vertex -750.000000 450.000366 2250.000000
vertex -900.000000 450.000427 2700.000000
vertex -750.000000 450.000427 2700.000000
endloop
endfacet
facet normal 1.000000 0.000000 0.000000
outer loop
vertex 750.000000 450.000366 2250.000000
vertex 750.000000 600.000366 2250.000000
vertex 750.000000 600.000427 2700.000000
endloop
endfacet
facet normal 1.000000 0.000000 0.000000
outer loop
vertex 750.000000 450.000366 2250.000000
vertex 750.000000 600.000427 2700.000000
vertex 750.000000 450.000427 2700.000000
endloop
endfacet
facet normal 0.000000 -1.000000 0.000000
outer loop
vertex 750.000000 -449.999634 2250.000000
vertex 900.000000 -449.999634 2250.000000
vertex 900.000000 -449.999573 2700.000000
endloop
endfacet
facet normal 0.000000 -1.000000 0.000000
outer loop
vertex 750.000000 -449.999634 2250.000000
vertex 900.000000 -449.999573 2700.000000
vertex 750.000000 -449.999573 2700.000000
endloop
endfacet
facet normal -1.000000 0.000000 0.000000
outer loop
vertex -900.000000 450.000366 2250.000000
vertex -900.000000 -449.999634 2250.000000
vertex -900.000000 -449.999573 2700.000000
endloop
endfacet
facet normal -1.000000 0.000000 0.000000
outer loop
vertex -900.000000 450.000366 2250.000000
vertex -900.000000 -449.999573 2700.000000
vertex -900.000000 450.000427 2700.000000
endloop
endfacet
facet normal -1.000000 0.000000 0.000000
outer loop
vertex -750.000000 -449.999634 2250.000000
vertex -750.000000 -599.999634 2250.000000
vertex -750.000000 -599.999573 2700.000000
endloop
endfacet
facet normal -1.000000 0.000000 0.000000
outer loop
vertex -750.000000 -449.999634 2250.000000
vertex -750.000000 -599.999573 2700.000000
vertex -750.000000 -449.999573 2700.000000
endloop
endfacet
facet normal 0.000000 1.000000 0.000000
outer loop
vertex 750.000000 600.000366 2250.000000
vertex -750.000000 600.000366 2250.000000
vertex -750.000000 600.000427 2700.000000
endloop
endfacet
facet normal 0.000000 1.000000 -0.000000
outer loop
vertex 750.000000 600.000366 2250.000000
vertex -750.000000 600.000427 2700.000000
vertex 750.000000 600.000427 2700.000000
endloop
endfacet
facet normal 0.000000 1.000000 -0.000000
outer loop
vertex 750.000000 600.000427 2700.000000
vertex -750.000000 600.000427 2700.000000
vertex -750.000000 600.000488 3150.000000
endloop
endfacet
facet normal 0.000000 1.000000 0.000000
outer loop
vertex 750.000000 600.000427 2700.000000
vertex -750.000000 600.000488 3150.000000
vertex 750.000000 600.000488 3150.000000
endloop
endfacet
facet normal 1.000000 0.000000 0.000000
outer loop
vertex 900.000000 -449.999573 2700.000000
vertex 900.000000 450.000427 2700.000000
vertex 900.000000 450.000519 3150.000000
endloop
endfacet
facet normal 1.000000 0.000000 0.000000
outer loop
vertex 900.000000 -449.999573 2700.000000
vertex 900.000000 450.000519 3150.000000
vertex 900.000000 -449.999481 3150.000000
endloop
endfacet
facet normal 0.000000 -1.000000 0.000000
outer loop
vertex -900.000000 -449.999573 2700.000000
vertex -750.000000 -449.999573 2700.000000
vertex -750.000000 -449.999481 3150.000000
endloop
endfacet
facet normal 0.000000 -1.000000 0.000000
outer loop
vertex -900.000000 -449.999573 2700.000000
vertex -750.000000 -449.999481 3150.000000
vertex -900.000000 -449.999481 3150.000000
endloop
endfacet
facet normal 0.000000 -1.000000 0.000000
outer loop
vertex -750.000000 -599.999573 2700.000000
vertex 750.000000 -599.999573 2700.000000
vertex 750.000000 -599.999512 3150.000000
endloop
endfacet
facet normal 0.000000 -1.000000 0.000000
outer loop
vertex -750.000000 -599.999573 2700.000000
vertex 750.000000 -599.999512 3150.000000
vertex -750.000000 -599.999512 3150.000000
endloop
endfacet
facet normal -1.000000 0.000000 0.000000
outer loop
vertex -750.000000 600.000427 2700.000000
vertex -750.000000 450.000427 2700.000000
vertex -750.000000 450.000519 3150.000000
endloop
endfacet
facet normal -1.000000 0.000000 0.000000
outer loop
vertex -750.000000 600.000427 2700.000000
vertex -750.000000 450.000519 3150.000000
vertex -750.000000 600.000488 3150.000000
endloop
endfacet
facet normal 0.000000 1.000000 -0.000000
outer loop
vertex 900.000000 450.000427 2700.000000
vertex 750.000000 450.000427 2700.000000
vertex 750.000000 450.000519 3150.000000
endloop
endfacet
facet normal 0.000000 1.000000 -0.000000
outer loop
vertex 900.000000 450.000427 2700.000000
vertex 750.000000 450.000519 3150.000000
vertex 900.000000 450.000519 3150.000000
endloop
endfacet
facet normal 1.000000 0.000000 0.000000
outer loop
vertex 750.000000 -599.999573 2700.000000
vertex 750.000000 -449.999573 2700.000000
vertex 750.000000 -449.999481 3150.000000
endloop
endfacet
facet normal 1.000000 0.000000 0.000000
outer loop
vertex 750.000000 -599.999573 2700.000000
vertex 750.000000 -449.999481 3150.000000
vertex 750.000000 -599.999512 3150.000000
endloop
endfacet
facet normal 0.000000 1.000000 -0.000000
outer loop
vertex -750.000000 450.000427 2700.000000
vertex -900.000000 450.000427 2700.000000
vertex -900.000000 450.000519 3150.000000
endloop
endfacet
facet normal 0.000000 1.000000 -0.000000
outer loop
vertex -750.000000 450.000427 2700.000000
vertex -900.000000 450.000519 3150.000000
vertex -750.000000 450.000519 3150.000000
endloop
endfacet
facet normal 1.000000 0.000000 0.000000
outer loop
vertex 750.000000 450.000427 2700.000000
vertex 750.000000 600.000427 2700.000000
vertex 750.000000 600.000488 3150.000000
endloop
endfacet
facet normal 1.000000 0.000000 0.000000
outer loop
vertex 750.000000 450.000427 2700.000000
vertex 750.000000 600.000488 3150.000000
vertex 750.000000 450.000519 3150.000000
endloop
endfacet
facet normal 0.000000 -1.000000 0.000000
outer loop
vertex 750.000000 -449.999573 2700.000000
vertex 900.000000 -449.999573 2700.000000
vertex 900.000000 -449.999481 3150.000000
endloop
endfacet
facet normal 0.000000 -1.000000 0.000000
outer loop
vertex 750.000000 -449.999573 2700.000000
vertex 900.000000 -449.999481 3150.000000
vertex 750.000000 -449.999481 3150.000000
endloop
endfacet
facet normal -1.000000 0.000000 0.000000
outer loop
vertex -900.000000 450.000427 2700.000000
vertex -900.000000 -449.999573 2700.000000
vertex -900.000000 -449.999481 3150.000000
endloop
endfacet
facet normal -1.000000 0.000000 0.000000
outer loop
vertex -900.000000 450.000427 2700.000000
vertex -900.000000 -449.999481 3150.000000
vertex -900.000000 450.000519 3150.000000
endloop
endfacet
facet normal -1.000000 0.000000 0.000000
outer loop
vertex -750.000000 -449.999573 2700.000000
vertex -750.000000 -599.999573 2700.000000
vertex -750.000000 -599.999512 3150.000000
endloop
endfacet
facet normal -1.000000 0.000000 0.000000
outer loop
vertex -750.000000 -449.999573 2700.000000
vertex -750.000000 -599.999512 3150.000000
vertex -750.000000 -449.999481 3150.000000
endloop
endfacet
facet normal -1.000000 0.000000 0.000000
outer loop
vertex -750.000000 -449.999481 3150.000000
vertex -750.000000 -599.999512 3150.000000
vertex -750.000000 -599.999390 3600.000000
endloop
endfacet
facet normal -1.000000 0.000000 0.000000
outer loop
vertex -750.000000 -449.999481 3150.000000
vertex -750.000000 -599.999390 3600.000000
vertex -750.000000 -449.999420 3600.000000
endloop
endfacet
facet normal 0.000000 1.000000 -0.000000
outer loop
vertex 750.000000 600.000488 3150.000000
vertex -750.000000 600.000488 3150.000000
vertex -750.000000 600.000610 3600.000000
endloop
endfacet
facet normal 0.000000 1.000000 -0.000000
outer loop
vertex 750.000000 600.000488 3150.000000
vertex -750.000000 600.000610 3600.000000
vertex 750.000000 600.000610 3600.000000
endloop
endfacet
facet normal 1.000000 0.000000 0.000000
outer loop
vertex 900.000000 -449.999481 3150.000000
vertex 900.000000 450.000519 3150.000000
vertex 900.000000 450.000580 3600.000000
endloop
endfacet
facet normal 1.000000 0.000000 0.000000
outer loop
vertex 900.000000 -449.999481 3150.000000
vertex 900.000000 450.000580 3600.000000
vertex 900.000000 -449.999420 3600.000000
endloop
endfacet
facet normal 0.000000 -1.000000 0.000000
outer loop
vertex -900.000000 -449.999481 3150.000000
vertex -750.000000 -449.999481 3150.000000
vertex -750.000000 -449.999420 3600.000000
endloop
endfacet
facet normal 0.000000 -1.000000 0.000000
outer loop
vertex -900.000000 -449.999481 3150.000000
vertex -750.000000 -449.999420 3600.000000
vertex -900.000000 -449.999420 3600.000000
endloop
endfacet
facet normal 0.000000 -1.000000 0.000000
outer loop
vertex -750.000000 -599.999512 3150.000000
vertex 750.000000 -599.999512 3150.000000
vertex 750.000000 -599.999390 3600.000000
endloop
endfacet
facet normal 0.000000 -1.000000 0.000000
outer loop
vertex -750.000000 -599.999512 3150.000000
vertex 750.000000 -599.999390 3600.000000
vertex -750.000000 -599.999390 3600.000000
endloop
endfacet
facet normal -1.000000 0.000000 0.000000
outer loop
vertex -750.000000 600.000488 3150.000000
vertex -750.000000 450.000519 3150.000000
vertex -750.000000 450.000580 3600.000000
endloop
endfacet
facet normal -1.000000 0.000000 0.000000
outer loop
vertex -750.000000 600.000488 3150.000000
vertex -750.000000 450.000580 3600.000000
vertex -750.000000 600.000610 3600.000000
endloop
endfacet
facet normal 0.000000 1.000000 -0.000000
outer loop
vertex 900.000000 450.000519 3150.000000
vertex 750.000000 450.000519 3150.000000
vertex 750.000000 450.000580 3600.000000
endloop
endfacet
facet normal 0.000000 1.000000 0.000000
outer loop
vertex 900.000000 450.000519 3150.000000
vertex 750.000000 450.000580 3600.000000
vertex 900.000000 450.000580 3600.000000
endloop
endfacet
facet normal 1.000000 0.000000 0.000000
outer loop
vertex 750.000000 -599.999512 3150.000000
vertex 750.000000 -449.999481 3150.000000
vertex 750.000000 -449.999420 3600.000000
endloop
endfacet
facet normal 1.000000 0.000000 0.000000
outer loop
vertex 750.000000 -599.999512 3150.000000
vertex 750.000000 -449.999420 3600.000000
vertex 750.000000 -599.999390 3600.000000
endloop
endfacet
facet normal 0.000000 1.000000 -0.000000
outer loop
vertex -750.000000 450.000519 3150.000000
vertex -900.000000 450.000519 3150.000000
vertex -900.000000 450.000580 3600.000000
endloop
endfacet
facet normal 0.000000 1.000000 0.000000
outer loop
vertex -750.000000 450.000519 3150.000000
vertex -900.000000 450.000580 3600.000000
vertex -750.000000 450.000580 3600.000000
endloop
endfacet
facet normal 1.000000 0.000000 0.000000
outer loop
vertex 750.000000 450.000519 3150.000000
vertex 750.000000 600.000488 3150.000000
vertex 750.000000 600.000610 3600.000000
endloop
endfacet
facet normal 1.000000 0.000000 0.000000
outer loop
vertex 750.000000 450.000519 3150.000000
vertex 750.000000 600.000610 3600.000000
vertex 750.000000 450.000580 3600.000000
endloop
endfacet
facet normal 0.000000 -1.000000 0.000000
outer loop
vertex 750.000000 -449.999481 3150.000000
vertex 900.000000 -449.999481 3150.000000
vertex 900.000000 -449.999420 3600.000000
endloop
endfacet
facet normal 0.000000 -1.000000 0.000000
outer loop
vertex 750.000000 -449.999481 3150.000000
vertex 900.000000 -449.999420 3600.000000
vertex 750.000000 -449.999420 3600.000000
endloop
endfacet
facet normal -1.000000 0.000000 0.000000
outer loop
vertex -900.000000 450.000519 3150.000000
vertex -900.000000 -449.999481 3150.000000
vertex -900.000000 -449.999420 3600.000000
endloop
endfacet
facet normal -1.000000 0.000000 0.000000
outer loop
vertex -900.000000 450.000519 3150.000000
vertex -900.000000 -449.999420 3600.000000
vertex -900.000000 450.000580 3600.000000
endloop
endfacet
facet normal -1.000000 0.000000 0.000000
outer loop
vertex -900.000000 450.000580 3600.000000
vertex -900.000000 -449.999420 3600.000000
vertex -900.000000 -449.999329 4050.000000
endloop
endfacet
facet normal -1.000000 0.000000 0.000000
outer loop
vertex -900.000000 450.000580 3600.000000
vertex -900.000000 -449.999329 4050.000000
vertex -900.000000 450.000671 4050.000000
endloop
endfacet
facet normal -1.000000 0.000000 0.000000
outer loop
vertex -750.000000 -449.999420 3600.000000
vertex -750.000000 -599.999390 3600.000000
vertex -750.000000 -599.999329 4050.000000
endloop
endfacet
facet normal -1.000000 0.000000 0.000000
outer loop
vertex -750.000000 -449.999420 3600.000000
vertex -750.000000 -599.999329 4050.000000
vertex -750.000000 -449.999329 4050.000000
endloop
endfacet
facet normal 0.000000 1.000000 0.000000
outer loop
vertex 750.000000 600.000610 3600.000000
vertex -750.000000 600.000610 3600.000000
vertex -750.000000 600.000671 4050.000000
endloop
endfacet
facet normal 0.000000 1.000000 -0.000000
outer loop
vertex 750.000000 600.000610 3600.000000
vertex -750.000000 600.000671 4050.000000
vertex 750.000000 600.000671 4050.000000
endloop
endfacet
facet normal 1.000000 0.000000 0.000000
outer loop
vertex 900.000000 -449.999420 3600.000000
vertex 900.000000 450.000580 3600.000000
vertex 900.000000 450.000671 4050.000000
endloop
endfacet
facet normal 1.000000 0.000000 0.000000
outer loop
vertex 900.000000 -449.999420 3600.000000
vertex 900.000000 450.000671 4050.000000
vertex 900.000000 -449.999329 4050.000000
endloop
endfacet
facet normal 0.000000 -1.000000 0.000000
outer loop
vertex -900.000000 -449.999420 3600.000000
vertex -750.000000 -449.999420 3600.000000
vertex -750.000000 -449.999329 4050.000000
endloop
endfacet
facet normal 0.000000 -1.000000 0.000000
outer loop
vertex -900.000000 -449.999420 3600.000000
vertex -750.000000 -449.999329 4050.000000
vertex -900.000000 -449.999329 4050.000000
endloop
endfacet
facet normal 0.000000 -1.000000 0.000000
outer loop
vertex -750.000000 -599.999390 3600.000000
vertex 750.000000 -599.999390 3600.000000
vertex 750.000000 -599.999329 4050.000000
endloop
endfacet
facet normal 0.000000 -1.000000 0.000000
outer loop
vertex -750.000000 -599.999390 3600.000000
vertex 750.000000 -599.999329 4050.000000
vertex -750.000000 -599.999329 4050.000000
endloop
endfacet
facet normal -1.000000 0.000000 0.000000
outer loop
vertex -750.000000 600.000610 3600.000000
vertex -750.000000 450.000580 3600.000000
vertex -750.000000 450.000671 4050.000000
endloop
endfacet
facet normal -1.000000 0.000000 0.000000
outer loop
vertex -750.000000 600.000610 3600.000000
vertex -750.000000 450.000671 4050.000000
vertex -750.000000 600.000671 4050.000000
endloop
endfacet
facet normal 0.000000 1.000000 -0.000000
outer loop
vertex 900.000000 450.000580 3600.000000
vertex 750.000000 450.000580 3600.000000
vertex 750.000000 450.000671 4050.000000
endloop
endfacet
facet normal 0.000000 1.000000 -0.000000
outer loop
vertex 900.000000 450.000580 3600.000000
vertex 750.000000 450.000671 4050.000000
vertex 900.000000 450.000671 4050.000000
endloop
endfacet
facet normal 1.000000 0.000000 0.000000
outer loop
vertex 750.000000 -599.999390 3600.000000
vertex 750.000000 -449.999420 3600.000000
vertex 750.000000 -449.999329 4050.000000
endloop
endfacet
facet normal 1.000000 0.000000 0.000000
outer loop
vertex 750.000000 -599.999390 3600.000000
vertex 750.000000 -449.999329 4050.000000
vertex 750.000000 -599.999329 4050.000000
endloop
endfacet
facet normal 0.000000 1.000000 -0.000000
outer loop
vertex -750.000000 450.000580 3600.000000
vertex -900.000000 450.000580 3600.000000
vertex -900.000000 450.000671 4050.000000
endloop
endfacet
facet normal 0.000000 1.000000 -0.000000
outer loop
vertex -750.000000 450.000580 3600.000000
vertex -900.000000 450.000671 4050.000000
vertex -750.000000 450.000671 4050.000000
endloop
endfacet
facet normal 1.000000 0.000000 0.000000
outer loop
vertex 750.000000 450.000580 3600.000000
vertex 750.000000 600.000610 3600.000000
vertex 750.000000 600.000671 4050.000000
endloop
endfacet
facet normal 1.000000 0.000000 0.000000
outer loop
vertex 750.000000 450.000580 3600.000000
vertex 750.000000 600.000671 4050.000000
vertex 750.000000 450.000671 4050.000000
endloop
endfacet
facet normal 0.000000 -1.000000 0.000000
outer loop
vertex 750.000000 -449.999420 3600.000000
vertex 900.000000 -449.999420 3600.000000
vertex 900.000000 -449.999329 4050.000000
endloop
endfacet
facet normal 0.000000 -1.000000 0.000000
outer loop
vertex 750.000000 -449.999420 3600.000000
vertex 900.000000 -449.999329 4050.000000
vertex 750.000000 -449.999329 4050.000000
endloop
endfacet
endsolid building_025
