solid building_008.001
facet normal 0.000000 0.000000 1.000000
outer loop
vertex -500.000488 -500.000031 3150.000000
vertex 499.999512 -499.999969 3150.000000
vertex 499.999451 500.000031 3150.000000
endloop
endfacet
facet normal -0.000001 0.000000 1.000000
outer loop
vertex 499.999451 500.000031 3150.000000
vertex -500.000549 499.999969 3150.000000
vertex -500.000549 445.339844 3150.000000
endloop
endfacet
facet normal -0.000001 0.000000 1.000000
outer loop
vertex -500.000549 445.339844 3150.000000
vertex -1207.127319 445.339813 3149.999756
vertex -1207.127319 -445.339966 3149.999756
endloop
endfacet
facet normal 0.000000 0.000000 1.000000
outer loop
vertex -500.000488 -445.339935 3150.000000
vertex -500.000488 -500.000031 3150.000000
vertex 499.999451 500.000031 3150.000000
endloop
endfacet
facet normal -0.000000 -0.000000 1.000000
outer loop
vertex -500.000549 445.339844 3150.000000
vertex -1207.127319 -445.339966 3149.999756
vertex -500.000488 -445.339935 3150.000000
endloop
endfacet
facet normal 0.000000 0.000000 1.000000
outer loop
vertex 499.999451 500.000031 3150.000000
vertex -500.000549 445.339844 3150.000000
vertex -500.000488 -445.339935 3150.000000
endloop
endfacet
facet normal 0.000000 -1.000000 -0.000000
outer loop
vertex -1207.126831 -445.339966 -0.000197
vertex -499.999969 -445.339935 -0.000081
vertex -500.000031 -445.339935 349.999908
endloop
endfacet
facet normal 0.000000 -1.000000 0.000000
outer loop
vertex -1207.126831 -445.339966 -0.000197
vertex -500.000031 -445.339935 349.999908
vertex -1207.126831 -445.339966 349.999817
endloop
endfacet
facet normal -1.000000 0.000000 -0.000000
outer loop
vertex -499.999969 -445.339935 -0.000081
vertex -499.999969 -500.000031 -0.000081
vertex -500.000031 -500.000031 349.999908
endloop
endfacet
facet normal -1.000000 0.000000 -0.000000
outer loop
vertex -499.999969 -445.339935 -0.000081
vertex -500.000031 -500.000031 349.999908
vertex -500.000031 -445.339935 349.999908
endloop
endfacet
facet normal 1.000000 0.000000 0.000000
outer loop
vertex 500.000031 -499.999969 0.000081
vertex 499.999969 500.000031 0.000081
vertex 499.999908 500.000031 350.000092
endloop
endfacet
facet normal 1.000000 0.000000 0.000000
outer loop
vertex 500.000031 -499.999969 0.000081
vertex 499.999908 500.000031 350.000092
vertex 499.999969 -499.999969 350.000092
endloop
endfacet
facet normal -0.000000 1.000000 0.000000
outer loop
vertex -500.000031 445.339844 -0.000081
vertex -1207.126831 445.339813 -0.000197
vertex -1207.126831 445.339813 349.999817
endloop
endfacet
facet normal -0.000000 1.000000 0.000000
outer loop
vertex -500.000031 445.339844 -0.000081
vertex -1207.126831 445.339813 349.999817
vertex -500.000092 445.339844 349.999908
endloop
endfacet
facet normal -1.000000 0.000000 0.000000
outer loop
vertex -1207.126831 445.339813 -0.000197
vertex -1207.126831 -445.339966 -0.000197
vertex -1207.126831 -445.339966 349.999817
endloop
endfacet
facet normal -1.000000 0.000000 0.000000
outer loop
vertex -1207.126831 445.339813 -0.000197
vertex -1207.126831 -445.339966 349.999817
vertex -1207.126831 445.339813 349.999817
endloop
endfacet
facet normal -1.000000 0.000000 -0.000000
outer loop
vertex -500.000031 499.999969 -0.000081
vertex -500.000031 445.339844 -0.000081
vertex -500.000092 445.339844 349.999908
endloop
endfacet
facet normal -1.000000 0.000000 -0.000000
outer loop
vertex -500.000031 499.999969 -0.000081
vertex -500.000092 445.339844 349.999908
vertex -500.000092 499.999969 349.999908
endloop
endfacet
facet normal -0.000000 1.000000 -0.000000
outer loop
vertex 499.999969 500.000031 0.000081
vertex -500.000031 499.999969 -0.000081
vertex -500.000092 499.999969 349.999908
endloop
endfacet
facet normal -0.000000 1.000000 0.000000
outer loop
vertex 499.999969 500.000031 0.000081
vertex -500.000092 499.999969 349.999908
vertex 499.999908 500.000031 350.000092
endloop
endfacet
facet normal 0.000000 -1.000000 0.000000
outer loop
vertex -499.999969 -500.000031 -0.000081
vertex 500.000031 -499.999969 0.000081
vertex 499.999969 -499.999969 350.000092
endloop
endfacet
facet normal 0.000000 -1.000000 0.000000
outer loop
vertex -499.999969 -500.000031 -0.000081
vertex 499.999969 -499.999969 350.000092
vertex -500.000031 -500.000031 349.999908
endloop
endfacet
facet normal 1.000000 0.000000 0.000000
outer loop
vertex 499.999969 -499.999969 350.000092
vertex 499.999908 500.000031 350.000092
vertex 499.999847 500.000031 700.000061
endloop
endfacet
facet normal 1.000000 0.000000 0.000000
outer loop
vertex 499.999969 -499.999969 350.000092
vertex 499.999847 500.000031 700.000061
vertex 499.999908 -499.999969 700.000061
endloop
endfacet
facet normal -1.000000 0.000000 -0.000000
outer loop
vertex -500.000031 -445.339935 349.999908
vertex -500.000031 -500.000031 349.999908
vertex -500.000092 -500.000031 699.999939
endloop
endfacet
facet normal -1.000000 0.000000 -0.000000
outer loop
vertex -500.000031 -445.339935 349.999908
vertex -500.000092 -500.000031 699.999939
vertex -500.000092 -445.339935 699.999939
endloop
endfacet
facet normal -1.000000 0.000000 -0.000000
outer loop
vertex -1207.126831 445.339813 349.999817
vertex -1207.126831 -445.339966 349.999817
vertex -1207.126953 -445.339966 699.999817
endloop
endfacet
facet normal -1.000000 0.000000 -0.000000
outer loop
vertex -1207.126831 445.339813 349.999817
vertex -1207.126953 -445.339966 699.999817
vertex -1207.126953 445.339813 699.999817
endloop
endfacet
facet normal -1.000000 0.000000 -0.000000
outer loop
vertex -500.000092 499.999969 349.999908
vertex -500.000092 445.339844 349.999908
vertex -500.000153 445.339844 699.999939
endloop
endfacet
facet normal -1.000000 0.000000 -0.000000
outer loop
vertex -500.000092 499.999969 349.999908
vertex -500.000153 445.339844 699.999939
vertex -500.000153 499.999969 699.999939
endloop
endfacet
facet normal 0.000000 -1.000000 0.000000
outer loop
vertex -500.000031 -500.000031 349.999908
vertex 499.999969 -499.999969 350.000092
vertex 499.999908 -499.999969 700.000061
endloop
endfacet
facet normal 0.000000 -1.000000 0.000000
outer loop
vertex -500.000031 -500.000031 349.999908
vertex 499.999908 -499.999969 700.000061
vertex -500.000092 -500.000031 699.999939
endloop
endfacet
facet normal 0.000000 -1.000000 0.000000
outer loop
vertex -1207.126831 -445.339966 349.999817
vertex -500.000031 -445.339935 349.999908
vertex -500.000092 -445.339935 699.999939
endloop
endfacet
facet normal 0.000000 -1.000000 0.000000
outer loop
vertex -1207.126831 -445.339966 349.999817
vertex -500.000092 -445.339935 699.999939
vertex -1207.126953 -445.339966 699.999817
endloop
endfacet
facet normal -0.000000 1.000000 -0.000000
outer loop
vertex -500.000092 445.339844 349.999908
vertex -1207.126831 445.339813 349.999817
vertex -1207.126953 445.339813 699.999817
endloop
endfacet
facet normal -0.000000 1.000000 -0.000000
outer loop
vertex -500.000092 445.339844 349.999908
vertex -1207.126953 445.339813 699.999817
vertex -500.000153 445.339844 699.999939
endloop
endfacet
facet normal -0.000000 1.000000 -0.000000
outer loop
vertex 499.999908 500.000031 350.000092
vertex -500.000092 499.999969 349.999908
vertex -500.000153 499.999969 699.999939
endloop
endfacet
facet normal -0.000000 1.000000 0.000000
outer loop
vertex 499.999908 500.000031 350.000092
vertex -500.000153 499.999969 699.999939
vertex 499.999847 500.000031 700.000061
endloop
endfacet
facet normal 0.000000 -1.000000 -0.000000
outer loop
vertex -1207.126953 -445.339966 699.999817
vertex -500.000092 -445.339935 699.999939
vertex -500.000153 -445.339935 1049.999878
endloop
endfacet
facet normal 0.000000 -1.000000 0.000000
outer loop
vertex -1207.126953 -445.339966 699.999817
vertex -500.000153 -445.339935 1049.999878
vertex -1207.126953 -445.339966 1049.999756
endloop
endfacet
facet normal -0.000000 1.000000 0.000000
outer loop
vertex -500.000153 445.339844 699.999939
vertex -1207.126953 445.339813 699.999817
vertex -1207.126953 445.339813 1049.999756
endloop
endfacet
facet normal -0.000000 1.000000 0.000000
outer loop
vertex -500.000153 445.339844 699.999939
vertex -1207.126953 445.339813 1049.999756
vertex -500.000214 445.339844 1049.999878
endloop
endfacet
facet normal -0.000000 1.000000 -0.000000
outer loop
vertex 499.999847 500.000031 700.000061
vertex -500.000153 499.999969 699.999939
vertex -500.000214 499.999969 1049.999878
endloop
endfacet
facet normal -0.000000 1.000000 0.000000
outer loop
vertex 499.999847 500.000031 700.000061
vertex -500.000214 499.999969 1049.999878
vertex 499.999786 500.000031 1050.000122
endloop
endfacet
facet normal -1.000000 0.000000 -0.000000
outer loop
vertex -500.000092 -445.339935 699.999939
vertex -500.000092 -500.000031 699.999939
vertex -500.000153 -500.000031 1049.999878
endloop
endfacet
facet normal -1.000000 0.000000 -0.000000
outer loop
vertex -500.000092 -445.339935 699.999939
vertex -500.000153 -500.000031 1049.999878
vertex -500.000153 -445.339935 1049.999878
endloop
endfacet
facet normal -1.000000 0.000000 0.000000
outer loop
vertex -1207.126953 445.339813 699.999817
vertex -1207.126953 -445.339966 699.999817
vertex -1207.126953 -445.339966 1049.999756
endloop
endfacet
facet normal -1.000000 0.000000 0.000000
outer loop
vertex -1207.126953 445.339813 699.999817
vertex -1207.126953 -445.339966 1049.999756
vertex -1207.126953 445.339813 1049.999756
endloop
endfacet
facet normal -1.000000 0.000000 -0.000000
outer loop
vertex -500.000153 499.999969 699.999939
vertex -500.000153 445.339844 699.999939
vertex -500.000214 445.339844 1049.999878
endloop
endfacet
facet normal -1.000000 0.000000 -0.000000
outer loop
vertex -500.000153 499.999969 699.999939
vertex -500.000214 445.339844 1049.999878
vertex -500.000214 499.999969 1049.999878
endloop
endfacet
facet normal 1.000000 0.000000 0.000000
outer loop
vertex 499.999908 -499.999969 700.000061
vertex 499.999847 500.000031 700.000061
vertex 499.999786 500.000031 1050.000122
endloop
endfacet
facet normal 1.000000 0.000000 0.000000
outer loop
vertex 499.999908 -499.999969 700.000061
vertex 499.999786 500.000031 1050.000122
vertex 499.999847 -499.999969 1050.000122
endloop
endfacet
facet normal 0.000000 -1.000000 0.000000
outer loop
vertex -500.000092 -500.000031 699.999939
vertex 499.999908 -499.999969 700.000061
vertex 499.999847 -499.999969 1050.000122
endloop
endfacet
facet normal 0.000000 -1.000000 0.000000
outer loop
vertex -500.000092 -500.000031 699.999939
vertex 499.999847 -499.999969 1050.000122
vertex -500.000153 -500.000031 1049.999878
endloop
endfacet
facet normal 1.000000 0.000000 0.000000
outer loop
vertex 499.999847 -499.999969 1050.000122
vertex 499.999786 500.000031 1050.000122
vertex 499.999756 500.000031 1400.000122
endloop
endfacet
facet normal 1.000000 0.000000 0.000000
outer loop
vertex 499.999847 -499.999969 1050.000122
vertex 499.999756 500.000031 1400.000122
vertex 499.999817 -499.999969 1400.000122
endloop
endfacet
facet normal 0.000000 -1.000000 -0.000000
outer loop
vertex -500.000153 -500.000031 1049.999878
vertex 499.999847 -499.999969 1050.000122
vertex 499.999817 -499.999969 1400.000122
endloop
endfacet
facet normal 0.000000 -1.000000 0.000000
outer loop
vertex -500.000153 -500.000031 1049.999878
vertex 499.999817 -499.999969 1400.000122
vertex -500.000183 -500.000031 1399.999878
endloop
endfacet
facet normal 0.000000 -1.000000 0.000000
outer loop
vertex -1207.126953 -445.339966 1049.999756
vertex -500.000153 -445.339935 1049.999878
vertex -500.000183 -445.339935 1399.999878
endloop
endfacet
facet normal 0.000000 -1.000000 0.000000
outer loop
vertex -1207.126953 -445.339966 1049.999756
vertex -500.000183 -445.339935 1399.999878
vertex -1207.127075 -445.339966 1399.999756
endloop
endfacet
facet normal -0.000000 1.000000 -0.000000
outer loop
vertex -500.000214 445.339844 1049.999878
vertex -1207.126953 445.339813 1049.999756
vertex -1207.127075 445.339813 1399.999756
endloop
endfacet
facet normal -0.000000 1.000000 0.000000
outer loop
vertex -500.000214 445.339844 1049.999878
vertex -1207.127075 445.339813 1399.999756
vertex -500.000244 445.339844 1399.999878
endloop
endfacet
facet normal -0.000000 1.000000 0.000000
outer loop
vertex 499.999786 500.000031 1050.000122
vertex -500.000214 499.999969 1049.999878
vertex -500.000244 499.999969 1399.999878
endloop
endfacet
facet normal -0.000000 1.000000 0.000000
outer loop
vertex 499.999786 500.000031 1050.000122
vertex -500.000244 499.999969 1399.999878
vertex 499.999756 500.000031 1400.000122
endloop
endfacet
facet normal -1.000000 0.000000 -0.000000
outer loop
vertex -500.000153 -445.339935 1049.999878
vertex -500.000153 -500.000031 1049.999878
vertex -500.000183 -500.000031 1399.999878
endloop
endfacet
facet normal -1.000000 0.000000 -0.000000
outer loop
vertex -500.000153 -445.339935 1049.999878
vertex -500.000183 -500.000031 1399.999878
vertex -500.000183 -445.339935 1399.999878
endloop
endfacet
facet normal -1.000000 0.000000 -0.000000
outer loop
vertex -1207.126953 445.339813 1049.999756
vertex -1207.126953 -445.339966 1049.999756
vertex -1207.127075 -445.339966 1399.999756
endloop
endfacet
facet normal -1.000000 0.000000 -0.000000
outer loop
vertex -1207.126953 445.339813 1049.999756
vertex -1207.127075 -445.339966 1399.999756
vertex -1207.127075 445.339813 1399.999756
endloop
endfacet
facet normal -1.000000 0.000000 -0.000000
outer loop
vertex -500.000214 499.999969 1049.999878
vertex -500.000214 445.339844 1049.999878
vertex -500.000244 445.339844 1399.999878
endloop
endfacet
facet normal -1.000000 0.000000 -0.000000
outer loop
vertex -500.000214 499.999969 1049.999878
vertex -500.000244 445.339844 1399.999878
vertex -500.000244 499.999969 1399.999878
endloop
endfacet
facet normal -1.000000 0.000000 -0.000000
outer loop
vertex -500.000183 -445.339935 1399.999878
vertex -500.000183 -500.000031 1399.999878
vertex -500.000244 -500.000031 1749.999878
endloop
endfacet
facet normal -1.000000 0.000000 -0.000000
outer loop
vertex -500.000183 -445.339935 1399.999878
vertex -500.000244 -500.000031 1749.999878
vertex -500.000244 -445.339935 1749.999878
endloop
endfacet
facet normal -1.000000 0.000000 0.000000
outer loop
vertex -1207.127075 445.339813 1399.999756
vertex -1207.127075 -445.339966 1399.999756
vertex -1207.127075 -445.339966 1749.999756
endloop
endfacet
facet normal -1.000000 0.000000 0.000000
outer loop
vertex -1207.127075 445.339813 1399.999756
vertex -1207.127075 -445.339966 1749.999756
vertex -1207.127075 445.339813 1749.999756
endloop
endfacet
facet normal -1.000000 0.000000 -0.000000
outer loop
vertex -500.000244 499.999969 1399.999878
vertex -500.000244 445.339844 1399.999878
vertex -500.000305 445.339844 1749.999878
endloop
endfacet
facet normal -1.000000 0.000000 -0.000000
outer loop
vertex -500.000244 499.999969 1399.999878
vertex -500.000305 445.339844 1749.999878
vertex -500.000305 499.999969 1749.999878
endloop
endfacet
facet normal 1.000000 0.000000 0.000000
outer loop
vertex 499.999817 -499.999969 1400.000122
vertex 499.999756 500.000031 1400.000122
vertex 499.999695 500.000031 1750.000122
endloop
endfacet
facet normal 1.000000 0.000000 0.000000
outer loop
vertex 499.999817 -499.999969 1400.000122
vertex 499.999695 500.000031 1750.000122
vertex 499.999756 -499.999969 1750.000122
endloop
endfacet
facet normal 0.000000 -1.000000 0.000000
outer loop
vertex -500.000183 -500.000031 1399.999878
vertex 499.999817 -499.999969 1400.000122
vertex 499.999756 -499.999969 1750.000122
endloop
endfacet
facet normal 0.000000 -1.000000 0.000000
outer loop
vertex -500.000183 -500.000031 1399.999878
vertex 499.999756 -499.999969 1750.000122
vertex -500.000244 -500.000031 1749.999878
endloop
endfacet
facet normal 0.000000 -1.000000 0.000000
outer loop
vertex -1207.127075 -445.339966 1399.999756
vertex -500.000183 -445.339935 1399.999878
vertex -500.000244 -445.339935 1749.999878
endloop
endfacet
facet normal 0.000000 -1.000000 0.000000
outer loop
vertex -1207.127075 -445.339966 1399.999756
vertex -500.000244 -445.339935 1749.999878
vertex -1207.127075 -445.339966 1749.999756
endloop
endfacet
facet normal -0.000000 1.000000 0.000000
outer loop
vertex -500.000244 445.339844 1399.999878
vertex -1207.127075 445.339813 1399.999756
vertex -1207.127075 445.339813 1749.999756
endloop
endfacet
facet normal -0.000000 1.000000 0.000000
outer loop
vertex -500.000244 445.339844 1399.999878
vertex -1207.127075 445.339813 1749.999756
vertex -500.000305 445.339844 1749.999878
endloop
endfacet
facet normal -0.000000 1.000000 -0.000000
outer loop
vertex 499.999756 500.000031 1400.000122
vertex -500.000244 499.999969 1399.999878
vertex -500.000305 499.999969 1749.999878
endloop
endfacet
facet normal -0.000000 1.000000 0.000000
outer loop
vertex 499.999756 500.000031 1400.000122
vertex -500.000305 499.999969 1749.999878
vertex 499.999695 500.000031 1750.000122
endloop
endfacet
facet normal -0.000000 1.000000 -0.000000
outer loop
vertex 499.999695 500.000031 1750.000122
vertex -500.000305 499.999969 1749.999878
vertex -500.000366 499.999969 2100.000000
endloop
endfacet
facet normal -0.000000 1.000000 0.000000
outer loop
vertex 499.999695 500.000031 1750.000122
vertex -500.000366 499.999969 2100.000000
vertex 499.999634 500.000031 2100.000000
endloop
endfacet
facet normal -1.000000 0.000000 -0.000000
outer loop
vertex -500.000244 -445.339935 1749.999878
vertex -500.000244 -500.000031 1749.999878
vertex -500.000305 -500.000031 2100.000000
endloop
endfacet
facet normal -1.000000 0.000000 -0.000000
outer loop
vertex -500.000244 -445.339935 1749.999878
vertex -500.000305 -500.000031 2100.000000
vertex -500.000305 -445.339935 2100.000000
endloop
endfacet
facet normal -1.000000 0.000000 -0.000000
outer loop
vertex -1207.127075 445.339813 1749.999756
vertex -1207.127075 -445.339966 1749.999756
vertex -1207.127197 -445.339966 2099.999756
endloop
endfacet
facet normal -1.000000 0.000000 -0.000000
outer loop
vertex -1207.127075 445.339813 1749.999756
vertex -1207.127197 -445.339966 2099.999756
vertex -1207.127197 445.339813 2099.999756
endloop
endfacet
facet normal -1.000000 0.000000 -0.000000
outer loop
vertex -500.000305 499.999969 1749.999878
vertex -500.000305 445.339844 1749.999878
vertex -500.000366 445.339844 2100.000000
endloop
endfacet
facet normal -1.000000 0.000000 -0.000000
outer loop
vertex -500.000305 499.999969 1749.999878
vertex -500.000366 445.339844 2100.000000
vertex -500.000366 499.999969 2100.000000
endloop
endfacet
facet normal 1.000000 0.000000 0.000000
outer loop
vertex 499.999756 -499.999969 1750.000122
vertex 499.999695 500.000031 1750.000122
vertex 499.999634 500.000031 2100.000000
endloop
endfacet
facet normal 1.000000 0.000000 0.000000
outer loop
vertex 499.999756 -499.999969 1750.000122
vertex 499.999634 500.000031 2100.000000
vertex 499.999695 -499.999969 2100.000000
endloop
endfacet
facet normal 0.000000 -1.000000 0.000000
outer loop
vertex -500.000244 -500.000031 1749.999878
vertex 499.999756 -499.999969 1750.000122
vertex 499.999695 -499.999969 2100.000000
endloop
endfacet
facet normal 0.000000 -1.000000 0.000000
outer loop
vertex -500.000244 -500.000031 1749.999878
vertex 499.999695 -499.999969 2100.000000
vertex -500.000305 -500.000031 2100.000000
endloop
endfacet
facet normal 0.000000 -1.000000 0.000000
outer loop
vertex -1207.127075 -445.339966 1749.999756
vertex -500.000244 -445.339935 1749.999878
vertex -500.000305 -445.339935 2100.000000
endloop
endfacet
facet normal 0.000000 -1.000000 0.000000
outer loop
vertex -1207.127075 -445.339966 1749.999756
vertex -500.000305 -445.339935 2100.000000
vertex -1207.127197 -445.339966 2099.999756
endloop
endfacet
facet normal -0.000000 1.000000 -0.000000
outer loop
vertex -500.000305 445.339844 1749.999878
vertex -1207.127075 445.339813 1749.999756
vertex -1207.127197 445.339813 2099.999756
endloop
endfacet
facet normal -0.000000 1.000000 0.000000
outer loop
vertex -500.000305 445.339844 1749.999878
vertex -1207.127197 445.339813 2099.999756
vertex -500.000366 445.339844 2100.000000
endloop
endfacet
facet normal 0.000000 -1.000000 0.000000
outer loop
vertex -500.000305 -500.000031 2100.000000
vertex 499.999695 -499.999969 2100.000000
vertex 499.999634 -499.999969 2450.000000
endloop
endfacet
facet normal 0.000000 -1.000000 0.000000
outer loop
vertex -500.000305 -500.000031 2100.000000
vertex 499.999634 -499.999969 2450.000000
vertex -500.000366 -500.000031 2450.000000
endloop
endfacet
facet normal 0.000000 -1.000000 0.000000
outer loop
vertex -1207.127197 -445.339966 2099.999756
vertex -500.000305 -445.339935 2100.000000
vertex -500.000366 -445.339935 2450.000000
endloop
endfacet
facet normal 0.000000 -1.000000 0.000000
outer loop
vertex -1207.127197 -445.339966 2099.999756
vertex -500.000366 -445.339935 2450.000000
vertex -1207.127197 -445.339966 2449.999756
endloop
endfacet
facet normal -0.000000 1.000000 0.000000
outer loop
vertex -500.000366 445.339844 2100.000000
vertex -1207.127197 445.339813 2099.999756
vertex -1207.127197 445.339813 2449.999756
endloop
endfacet
facet normal -0.000000 1.000000 0.000000
outer loop
vertex -500.000366 445.339844 2100.000000
vertex -1207.127197 445.339813 2449.999756
vertex -500.000427 445.339844 2450.000000
endloop
endfacet
facet normal -0.000000 1.000000 -0.000000
outer loop
vertex 499.999634 500.000031 2100.000000
vertex -500.000366 499.999969 2100.000000
vertex -500.000427 499.999969 2450.000000
endloop
endfacet
facet normal -0.000000 1.000000 0.000000
outer loop
vertex 499.999634 500.000031 2100.000000
vertex -500.000427 499.999969 2450.000000
vertex 499.999573 500.000031 2450.000000
endloop
endfacet
facet normal -1.000000 0.000000 -0.000000
outer loop
vertex -500.000305 -445.339935 2100.000000
vertex -500.000305 -500.000031 2100.000000
vertex -500.000366 -500.000031 2450.000000
endloop
endfacet
facet normal -1.000000 0.000000 -0.000000
outer loop
vertex -500.000305 -445.339935 2100.000000
vertex -500.000366 -500.000031 2450.000000
vertex -500.000366 -445.339935 2450.000000
endloop
endfacet
facet normal -1.000000 0.000000 0.000000
outer loop
vertex -1207.127197 445.339813 2099.999756
vertex -1207.127197 -445.339966 2099.999756
vertex -1207.127197 -445.339966 2449.999756
endloop
endfacet
facet normal -1.000000 0.000000 0.000000
outer loop
vertex -1207.127197 445.339813 2099.999756
vertex -1207.127197 -445.339966 2449.999756
vertex -1207.127197 445.339813 2449.999756
endloop
endfacet
facet normal -1.000000 0.000000 -0.000000
outer loop
vertex -500.000366 499.999969 2100.000000
vertex -500.000366 445.339844 2100.000000
vertex -500.000427 445.339844 2450.000000
endloop
endfacet
facet normal -1.000000 0.000000 -0.000000
outer loop
vertex -500.000366 499.999969 2100.000000
vertex -500.000427 445.339844 2450.000000
vertex -500.000427 499.999969 2450.000000
endloop
endfacet
facet normal 1.000000 0.000000 0.000000
outer loop
vertex 499.999695 -499.999969 2100.000000
vertex 499.999634 500.000031 2100.000000
vertex 499.999573 500.000031 2450.000000
endloop
endfacet
facet normal 1.000000 0.000000 0.000000
outer loop
vertex 499.999695 -499.999969 2100.000000
vertex 499.999573 500.000031 2450.000000
vertex 499.999634 -499.999969 2450.000000
endloop
endfacet
facet normal -1.000000 0.000000 -0.000000
outer loop
vertex -500.000427 499.999969 2450.000000
vertex -500.000427 445.339844 2450.000000
vertex -500.000488 445.339844 2800.000000
endloop
endfacet
facet normal -1.000000 0.000000 -0.000000
outer loop
vertex -500.000427 499.999969 2450.000000
vertex -500.000488 445.339844 2800.000000
vertex -500.000488 499.999969 2800.000000
endloop
endfacet
facet normal 1.000000 0.000000 0.000000
outer loop
vertex 499.999634 -499.999969 2450.000000
vertex 499.999573 500.000031 2450.000000
vertex 499.999512 500.000031 2800.000000
endloop
endfacet
facet normal 1.000000 0.000000 0.000000
outer loop
vertex 499.999634 -499.999969 2450.000000
vertex 499.999512 500.000031 2800.000000
vertex 499.999573 -499.999969 2800.000000
endloop
endfacet
facet normal 0.000000 -1.000000 0.000000
outer loop
vertex -500.000366 -500.000031 2450.000000
vertex 499.999634 -499.999969 2450.000000
vertex 499.999573 -499.999969 2800.000000
endloop
endfacet
facet normal 0.000000 -1.000000 0.000000
outer loop
vertex -500.000366 -500.000031 2450.000000
vertex 499.999573 -499.999969 2800.000000
vertex -500.000427 -500.000031 2800.000000
endloop
endfacet
facet normal 0.000000 -1.000000 0.000000
outer loop
vertex -1207.127197 -445.339966 2449.999756
vertex -500.000366 -445.339935 2450.000000
vertex -500.000427 -445.339935 2800.000000
endloop
endfacet
facet normal 0.000000 -1.000000 0.000000
outer loop
vertex -1207.127197 -445.339966 2449.999756
vertex -500.000427 -445.339935 2800.000000
vertex -1207.127319 -445.339966 2799.999756
endloop
endfacet
facet normal -0.000000 1.000000 -0.000000
outer loop
vertex -500.000427 445.339844 2450.000000
vertex -1207.127197 445.339813 2449.999756
vertex -1207.127319 445.339813 2799.999756
endloop
endfacet
facet normal -0.000000 1.000000 0.000000
outer loop
vertex -500.000427 445.339844 2450.000000
vertex -1207.127319 445.339813 2799.999756
vertex -500.000488 445.339844 2800.000000
endloop
endfacet
facet normal -0.000000 1.000000 -0.000000
outer loop
vertex 499.999573 500.000031 2450.000000
vertex -500.000427 499.999969 2450.000000
vertex -500.000488 499.999969 2800.000000
endloop
endfacet
facet normal -0.000000 1.000000 0.000000
outer loop
vertex 499.999573 500.000031 2450.000000
vertex -500.000488 499.999969 2800.000000
vertex 499.999512 500.000031 2800.000000
endloop
endfacet
facet normal -1.000000 0.000000 -0.000000
outer loop
vertex -500.000366 -445.339935 2450.000000
vertex -500.000366 -500.000031 2450.000000
vertex -500.000427 -500.000031 2800.000000
endloop
endfacet
facet normal -1.000000 0.000000 -0.000000
outer loop
vertex -500.000366 -445.339935 2450.000000
vertex -500.000427 -500.000031 2800.000000
vertex -500.000427 -445.339935 2800.000000
endloop
endfacet
facet normal -1.000000 0.000000 -0.000000
outer loop
vertex -1207.127197 445.339813 2449.999756
vertex -1207.127197 -445.339966 2449.999756
vertex -1207.127319 -445.339966 2799.999756
endloop
endfacet
facet normal -1.000000 0.000000 -0.000000
outer loop
vertex -1207.127197 445.339813 2449.999756
vertex -1207.127319 -445.339966 2799.999756
vertex -1207.127319 445.339813 2799.999756
endloop
endfacet
facet normal -1.000000 0.000000 -0.000000
outer loop
vertex -500.000427 -445.339935 2800.000000
vertex -500.000427 -500.000031 2800.000000
vertex -500.000488 -500.000031 3150.000000
endloop
endfacet
facet normal -1.000000 0.000000 -0.000000
outer loop
vertex -500.000427 -445.339935 2800.000000
vertex -500.000488 -500.000031 3150.000000
vertex -500.000488 -445.339935 3150.000000
endloop
endfacet
facet normal -1.000000 0.000000 0.000000
outer loop
vertex -1207.127319 445.339813 2799.999756
vertex -1207.127319 -445.339966 2799.999756
vertex -1207.127319 -445.339966 3149.999756
endloop
endfacet
facet normal -1.000000 0.000000 0.000000
outer loop
vertex -1207.127319 445.339813 2799.999756
vertex -1207.127319 -445.339966 3149.999756
vertex -1207.127319 445.339813 3149.999756
endloop
endfacet
facet normal -1.000000 0.000000 -0.000000
outer loop
vertex -500.000488 499.999969 2800.000000
vertex -500.000488 445.339844 2800.000000
vertex -500.000549 445.339844 3150.000000
endloop
endfacet
facet normal -1.000000 0.000000 -0.000000
outer loop
vertex -500.000488 499.999969 2800.000000
vertex -500.000549 445.339844 3150.000000
vertex -500.000549 499.999969 3150.000000
endloop
endfacet
facet normal 1.000000 0.000000 0.000000
outer loop
vertex 499.999573 -499.999969 2800.000000
vertex 499.999512 500.000031 2800.000000
vertex 499.999451 500.000031 3150.000000
endloop
endfacet
facet normal 1.000000 0.000000 0.000000
outer loop
vertex 499.999573 -499.999969 2800.000000
vertex 499.999451 500.000031 3150.000000
vertex 499.999512 -499.999969 3150.000000
endloop
endfacet
facet normal 0.000000 -1.000000 0.000000
outer loop
vertex -500.000427 -500.000031 2800.000000
vertex 499.999573 -499.999969 2800.000000
vertex 499.999512 -499.999969 3150.000000
endloop
endfacet
facet normal 0.000000 -1.000000 0.000000
outer loop
vertex -500.000427 -500.000031 2800.000000
vertex 499.999512 -499.999969 3150.000000
vertex -500.000488 -500.000031 3150.000000
endloop
endfacet
facet normal 0.000000 -1.000000 0.000000
outer loop
vertex -1207.127319 -445.339966 2799.999756
vertex -500.000427 -445.339935 2800.000000
vertex -500.000488 -445.339935 3150.000000
endloop
endfacet
facet normal 0.000000 -1.000000 0.000000
outer loop
vertex -1207.127319 -445.339966 2799.999756
vertex -500.000488 -445.339935 3150.000000
vertex -1207.127319 -445.339966 3149.999756
endloop
endfacet
facet normal -0.000000 1.000000 0.000000
outer loop
vertex -500.000488 445.339844 2800.000000
vertex -1207.127319 445.339813 2799.999756
vertex -1207.127319 445.339813 3149.999756
endloop
endfacet
facet normal -0.000000 1.000000 0.000000
outer loop
vertex -500.000488 445.339844 2800.000000
vertex -1207.127319 445.339813 3149.999756
vertex -500.000549 445.339844 3150.000000
endloop
endfacet
facet normal -0.000000 1.000000 -0.000000
outer loop
vertex 499.999512 500.000031 2800.000000
vertex -500.000488 499.999969 2800.000000
vertex -500.000549 499.999969 3150.000000
endloop
endfacet
facet normal -0.000000 1.000000 0.000000
outer loop
vertex 499.999512 500.000031 2800.000000
vertex -500.000549 499.999969 3150.000000
vertex 499.999451 500.000031 3150.000000
endloop
endfacet
endsolid building_008.001
