solid building_015
facet normal -1.000000 0.000000 0.000000
outer loop
vertex -415.784637 1169.298096 -0.000191
vertex -415.784637 550.000000 -0.000090
vertex -415.784637 550.000061 399.999908
endloop
endfacet
facet normal -1.000000 -0.000000 0.000000
outer loop
vertex -415.784637 1169.298096 -0.000191
vertex -415.784637 550.000061 399.999908
vertex -415.784637 1169.298218 399.999817
endloop
endfacet
facet normal 0.000000 0.000000 1.000000
outer loop
vertex -750.000000 550.000244 1599.999878
vertex -750.000000 -549.999756 1600.000122
vertex 750.000000 -549.999756 1600.000122
endloop
endfacet
facet normal 0.000000 0.000000 1.000000
outer loop
vertex 750.000000 -549.999756 1600.000122
vertex 750.000000 550.000244 1599.999878
vertex 415.784576 550.000244 1599.999878
endloop
endfacet
facet normal 0.000000 0.000000 1.000000
outer loop
vertex 415.784576 550.000244 1599.999878
vertex 415.784576 1169.298340 1599.999756
vertex -415.784637 1169.298340 1599.999756
endloop
endfacet
facet normal 0.000000 0.000000 1.000000
outer loop
vertex -415.784637 550.000244 1599.999878
vertex -750.000000 550.000244 1599.999878
vertex 750.000000 -549.999756 1600.000122
endloop
endfacet
facet normal 0.000000 0.000000 1.000000
outer loop
vertex 415.784576 550.000244 1599.999878
vertex -415.784637 1169.298340 1599.999756
vertex -415.784637 550.000244 1599.999878
endloop
endfacet
facet normal 0.000000 0.000000 1.000000
outer loop
vertex 750.000000 -549.999756 1600.000122
vertex 415.784576 550.000244 1599.999878
vertex -415.784637 550.000244 1599.999878
endloop
endfacet
facet normal 0.000000 1.000000 0.000000
outer loop
vertex -415.784637 550.000000 -0.000090
vertex -750.000000 550.000000 -0.000090
vertex -750.000000 550.000061 399.999908
endloop
endfacet
facet normal 0.000000 1.000000 -0.000000
outer loop
vertex -415.784637 550.000000 -0.000090
vertex -750.000000 550.000061 399.999908
vertex -415.784637 550.000061 399.999908
endloop
endfacet
facet normal 0.000000 -1.000000 0.000000
outer loop
vertex -750.000000 -550.000000 0.000090
vertex 750.000000 -550.000000 0.000090
vertex 750.000000 -549.999939 400.000092
endloop
endfacet
facet normal 0.000000 -1.000000 0.000000
outer loop
vertex -750.000000 -550.000000 0.000090
vertex 750.000000 -549.999939 400.000092
vertex -750.000000 -549.999939 400.000092
endloop
endfacet
facet normal 1.000000 0.000000 0.000000
outer loop
vertex 415.784576 550.000000 -0.000090
vertex 415.784576 1169.298096 -0.000191
vertex 415.784576 1169.298218 399.999817
endloop
endfacet
facet normal 1.000000 -0.000000 0.000000
outer loop
vertex 415.784576 550.000000 -0.000090
vertex 415.784576 1169.298218 399.999817
vertex 415.784576 550.000061 399.999908
endloop
endfacet
facet normal 0.000000 1.000000 0.000000
outer loop
vertex 415.784576 1169.298096 -0.000191
vertex -415.784637 1169.298096 -0.000191
vertex -415.784637 1169.298218 399.999817
endloop
endfacet
facet normal 0.000000 1.000000 -0.000000
outer loop
vertex 415.784576 1169.298096 -0.000191
vertex -415.784637 1169.298218 399.999817
vertex 415.784576 1169.298218 399.999817
endloop
endfacet
facet normal 0.000000 1.000000 0.000000
outer loop
vertex 750.000000 550.000000 -0.000090
vertex 415.784576 550.000000 -0.000090
vertex 415.784576 550.000061 399.999908
endloop
endfacet
facet normal 0.000000 1.000000 -0.000000
outer loop
vertex 750.000000 550.000000 -0.000090
vertex 415.784576 550.000061 399.999908
vertex 750.000000 550.000061 399.999908
endloop
endfacet
facet normal 1.000000 0.000000 0.000000
outer loop
vertex 750.000000 -550.000000 0.000090
vertex 750.000000 550.000000 -0.000090
vertex 750.000000 550.000061 399.999908
endloop
endfacet
facet normal 1.000000 -0.000000 0.000000
outer loop
vertex 750.000000 -550.000000 0.000090
vertex 750.000000 550.000061 399.999908
vertex 750.000000 -549.999939 400.000092
endloop
endfacet
facet normal -1.000000 0.000000 0.000000
outer loop
vertex -750.000000 550.000000 -0.000090
vertex -750.000000 -550.000000 0.000090
vertex -750.000000 -549.999939 400.000092
endloop
endfacet
facet normal -1.000000 -0.000000 0.000000
outer loop
vertex -750.000000 550.000000 -0.000090
vertex -750.000000 -549.999939 400.000092
vertex -750.000000 550.000061 399.999908
endloop
endfacet
facet normal 0.000000 -1.000000 0.000000
outer loop
vertex -750.000000 -549.999939 400.000092
vertex 750.000000 -549.999939 400.000092
vertex 750.000000 -549.999878 800.000061
endloop
endfacet
facet normal 0.000000 -1.000000 0.000000
outer loop
vertex -750.000000 -549.999939 400.000092
vertex 750.000000 -549.999878 800.000061
vertex -750.000000 -549.999878 800.000061
endloop
endfacet
facet normal 0.000000 1.000000 -0.000000
outer loop
vertex -415.784637 550.000061 399.999908
vertex -750.000000 550.000061 399.999908
vertex -750.000000 550.000122 799.999939
endloop
endfacet
facet normal 0.000000 1.000000 0.000000
outer loop
vertex -415.784637 550.000061 399.999908
vertex -750.000000 550.000122 799.999939
vertex -415.784637 550.000122 799.999939
endloop
endfacet
facet normal 0.000000 1.000000 0.000000
outer loop
vertex 415.784576 1169.298218 399.999817
vertex -415.784637 1169.298218 399.999817
vertex -415.784637 1169.298218 799.999817
endloop
endfacet
facet normal 0.000000 1.000000 0.000000
outer loop
vertex 415.784576 1169.298218 399.999817
vertex -415.784637 1169.298218 799.999817
vertex 415.784576 1169.298218 799.999817
endloop
endfacet
facet normal 0.000000 1.000000 -0.000000
outer loop
vertex 750.000000 550.000061 399.999908
vertex 415.784576 550.000061 399.999908
vertex 415.784576 550.000122 799.999939
endloop
endfacet
facet normal 0.000000 1.000000 0.000000
outer loop
vertex 750.000000 550.000061 399.999908
vertex 415.784576 550.000122 799.999939
vertex 750.000000 550.000122 799.999939
endloop
endfacet
facet normal -1.000000 -0.000000 0.000000
outer loop
vertex -750.000000 550.000061 399.999908
vertex -750.000000 -549.999939 400.000092
vertex -750.000000 -549.999878 800.000061
endloop
endfacet
facet normal -1.000000 0.000000 0.000000
outer loop
vertex -750.000000 550.000061 399.999908
vertex -750.000000 -549.999878 800.000061
vertex -750.000000 550.000122 799.999939
endloop
endfacet
facet normal -1.000000 0.000000 0.000000
outer loop
vertex -415.784637 1169.298218 399.999817
vertex -415.784637 550.000061 399.999908
vertex -415.784637 550.000122 799.999939
endloop
endfacet
facet normal -1.000000 -0.000000 0.000000
outer loop
vertex -415.784637 1169.298218 399.999817
vertex -415.784637 550.000122 799.999939
vertex -415.784637 1169.298218 799.999817
endloop
endfacet
facet normal 1.000000 0.000000 0.000000
outer loop
vertex 415.784576 550.000061 399.999908
vertex 415.784576 1169.298218 399.999817
vertex 415.784576 1169.298218 799.999817
endloop
endfacet
facet normal 1.000000 -0.000000 0.000000
outer loop
vertex 415.784576 550.000061 399.999908
vertex 415.784576 1169.298218 799.999817
vertex 415.784576 550.000122 799.999939
endloop
endfacet
facet normal 1.000000 -0.000000 0.000000
outer loop
vertex 750.000000 -549.999939 400.000092
vertex 750.000000 550.000061 399.999908
vertex 750.000000 550.000122 799.999939
endloop
endfacet
facet normal 1.000000 0.000000 0.000000
outer loop
vertex 750.000000 -549.999939 400.000092
vertex 750.000000 550.000122 799.999939
vertex 750.000000 -549.999878 800.000061
endloop
endfacet
facet normal -1.000000 0.000000 0.000000
outer loop
vertex -415.784637 1169.298218 799.999817
vertex -415.784637 550.000122 799.999939
vertex -415.784637 550.000183 1199.999878
endloop
endfacet
facet normal -1.000000 -0.000000 0.000000
outer loop
vertex -415.784637 1169.298218 799.999817
vertex -415.784637 550.000183 1199.999878
vertex -415.784637 1169.298340 1199.999756
endloop
endfacet
facet normal 1.000000 -0.000000 0.000000
outer loop
vertex 415.784576 550.000122 799.999939
vertex 415.784576 1169.298218 799.999817
vertex 415.784576 1169.298340 1199.999756
endloop
endfacet
facet normal 1.000000 0.000000 0.000000
outer loop
vertex 415.784576 550.000122 799.999939
vertex 415.784576 1169.298340 1199.999756
vertex 415.784576 550.000183 1199.999878
endloop
endfacet
facet normal 1.000000 0.000000 0.000000
outer loop
vertex 750.000000 -549.999878 800.000061
vertex 750.000000 550.000122 799.999939
vertex 750.000000 550.000183 1199.999878
endloop
endfacet
facet normal 1.000000 -0.000000 0.000000
outer loop
vertex 750.000000 -549.999878 800.000061
vertex 750.000000 550.000183 1199.999878
vertex 750.000000 -549.999817 1200.000122
endloop
endfacet
facet normal 0.000000 1.000000 0.000000
outer loop
vertex -415.784637 550.000122 799.999939
vertex -750.000000 550.000122 799.999939
vertex -750.000000 550.000183 1199.999878
endloop
endfacet
facet normal 0.000000 1.000000 -0.000000
outer loop
vertex -415.784637 550.000122 799.999939
vertex -750.000000 550.000183 1199.999878
vertex -415.784637 550.000183 1199.999878
endloop
endfacet
facet normal 0.000000 1.000000 -0.000001
outer loop
vertex 415.784576 1169.298218 799.999817
vertex -415.784637 1169.298218 799.999817
vertex -415.784637 1169.298340 1199.999756
endloop
endfacet
facet normal 0.000000 1.000000 0.000000
outer loop
vertex 415.784576 1169.298218 799.999817
vertex -415.784637 1169.298340 1199.999756
vertex 415.784576 1169.298340 1199.999756
endloop
endfacet
facet normal 0.000000 1.000000 0.000000
outer loop
vertex 750.000000 550.000122 799.999939
vertex 415.784576 550.000122 799.999939
vertex 415.784576 550.000183 1199.999878
endloop
endfacet
facet normal 0.000000 1.000000 -0.000000
outer loop
vertex 750.000000 550.000122 799.999939
vertex 415.784576 550.000183 1199.999878
vertex 750.000000 550.000183 1199.999878
endloop
endfacet
facet normal 0.000000 -1.000000 0.000000
outer loop
vertex -750.000000 -549.999878 800.000061
vertex 750.000000 -549.999878 800.000061
vertex 750.000000 -549.999817 1200.000122
endloop
endfacet
facet normal 0.000000 -1.000000 0.000000
outer loop
vertex -750.000000 -549.999878 800.000061
vertex 750.000000 -549.999817 1200.000122
vertex -750.000000 -549.999817 1200.000122
endloop
endfacet
facet normal -1.000000 0.000000 0.000000
outer loop
vertex -750.000000 550.000122 799.999939
vertex -750.000000 -549.999878 800.000061
vertex -750.000000 -549.999817 1200.000122
endloop
endfacet
facet normal -1.000000 -0.000000 0.000000
outer loop
vertex -750.000000 550.000122 799.999939
vertex -750.000000 -549.999817 1200.000122
vertex -750.000000 550.000183 1199.999878
endloop
endfacet
facet normal 0.000000 -1.000000 0.000000
outer loop
vertex -750.000000 -549.999817 1200.000122
vertex 750.000000 -549.999817 1200.000122
vertex 750.000000 -549.999756 1600.000122
endloop
endfacet
facet normal 0.000000 -1.000000 0.000000
outer loop
vertex -750.000000 -549.999817 1200.000122
vertex 750.000000 -549.999756 1600.000122
vertex -750.000000 -549.999756 1600.000122
endloop
endfacet
facet normal -1.000000 0.000000 0.000000
outer loop
vertex -750.000000 550.000183 1199.999878
vertex -750.000000 -549.999817 1200.000122
vertex -750.000000 -549.999756 1600.000122
endloop
endfacet
facet normal -1.000000 0.000000 0.000000
outer loop
vertex -750.000000 550.000183 1199.999878
vertex -750.000000 -549.999756 1600.000122
vertex -750.000000 550.000244 1599.999878
endloop
endfacet
facet normal -1.000000 0.000000 0.000000
outer loop
vertex -415.784637 1169.298340 1199.999756
vertex -415.784637 550.000183 1199.999878
vertex -415.784637 550.000244 1599.999878
endloop
endfacet
facet normal -1.000000 -0.000000 0.000000
outer loop
vertex -415.784637 1169.298340 1199.999756
vertex -415.784637 550.000244 1599.999878
vertex -415.784637 1169.298340 1599.999756
endloop
endfacet
facet normal 1.000000 0.000000 0.000000
outer loop
vertex 415.784576 550.000183 1199.999878
vertex 415.784576 1169.298340 1199.999756
vertex 415.784576 1169.298340 1599.999756
endloop
endfacet
facet normal 1.000000 -0.000000 0.000000
outer loop
vertex 415.784576 550.000183 1199.999878
vertex 415.784576 1169.298340 1599.999756
vertex 415.784576 550.000244 1599.999878
endloop
endfacet
facet normal 1.000000 0.000000 0.000000
outer loop
vertex 750.000000 -549.999817 1200.000122
vertex 750.000000 550.000183 1199.999878
vertex 750.000000 550.000244 1599.999878
endloop
endfacet
facet normal 1.000000 0.000000 0.000000
outer loop
vertex 750.000000 -549.999817 1200.000122
vertex 750.000000 550.000244 1599.999878
vertex 750.000000 -549.999756 1600.000122
endloop
endfacet
facet normal 0.000000 1.000000 -0.000000
outer loop
vertex -415.784637 550.000183 1199.999878
vertex -750.000000 550.000183 1199.999878
vertex -750.000000 550.000244 1599.999878
endloop
endfacet
facet normal 0.000000 1.000000 0.000000
outer loop
vertex -415.784637 550.000183 1199.999878
vertex -750.000000 550.000244 1599.999878
vertex -415.784637 550.000244 1599.999878
endloop
endfacet
facet normal 0.000000 1.000000 0.000000
outer loop
vertex 415.784576 1169.298340 1199.999756
vertex -415.784637 1169.298340 1199.999756
vertex -415.784637 1169.298340 1599.999756
endloop
endfacet
facet normal 0.000000 1.000000 0.000000
outer loop
vertex 415.784576 1169.298340 1199.999756
vertex -415.784637 1169.298340 1599.999756
vertex 415.784576 1169.298340 1599.999756
endloop
endfacet
facet normal 0.000000 1.000000 -0.000000
outer loop
vertex 750.000000 550.000183 1199.999878
vertex 415.784576 550.000183 1199.999878
vertex 415.784576 550.000244 1599.999878
endloop
endfacet
facet normal 0.000000 1.000000 0.000000
outer loop
vertex 750.000000 550.000183 1199.999878
vertex 415.784576 550.000244 1599.999878
vertex 750.000000 550.000244 1599.999878
endloop
endfacet
endsolid building_015
