solid building_035
facet normal 1.000000 0.000000 0.000000
outer loop
vertex 900.000000 525.000061 0.000147
vertex 900.000000 675.000061 0.000147
vertex 899.999939 675.000061 200.000153
endloop
endfacet
facet normal 1.000000 0.000000 0.000000
outer loop
vertex 900.000000 525.000061 0.000147
vertex 899.999939 675.000061 200.000153
vertex 899.999939 525.000061 200.000153
endloop
endfacet
facet normal 0.000000 -1.000000 0.000000
outer loop
vertex -900.000061 524.999939 199.999847
vertex -750.000061 524.999939 199.999878
vertex -750.000061 524.999939 399.999878
endloop
endfacet
facet normal 0.000000 -1.000000 0.000000
outer loop
vertex -900.000061 524.999939 199.999847
vertex -750.000061 524.999939 399.999878
vertex -900.000061 524.999939 399.999847
endloop
endfacet
facet normal -1.000000 0.000000 -0.000000
outer loop
vertex -750.000000 524.999939 -0.000122
vertex -750.000000 -525.000061 -0.000122
vertex -750.000061 -525.000061 199.999878
endloop
endfacet
facet normal -1.000000 0.000000 -0.000000
outer loop
vertex -750.000000 524.999939 -0.000122
vertex -750.000061 -525.000061 199.999878
vertex -750.000061 524.999939 199.999878
endloop
endfacet
facet normal -1.000000 0.000000 -0.000000
outer loop
vertex -900.000000 -525.000061 -0.000147
vertex -900.000000 -675.000061 -0.000147
vertex -900.000061 -675.000061 199.999847
endloop
endfacet
facet normal -1.000000 0.000000 -0.000000
outer loop
vertex -900.000000 -525.000061 -0.000147
vertex -900.000061 -675.000061 199.999847
vertex -900.000061 -525.000061 199.999847
endloop
endfacet
facet normal 0.000000 0.000000 1.000000
outer loop
vertex 749.999817 525.000061 1000.000122
vertex 899.999817 525.000061 1000.000122
vertex 899.999817 675.000061 1000.000122
endloop
endfacet
facet normal -0.000000 0.000000 1.000000
outer loop
vertex 899.999817 675.000061 1000.000122
vertex -900.000183 674.999939 999.999878
vertex -900.000183 524.999939 999.999878
endloop
endfacet
facet normal 0.000000 -0.000002 1.000000
outer loop
vertex 899.999817 675.000061 1000.000122
vertex -900.000183 524.999939 999.999878
vertex -750.000183 524.999939 999.999878
endloop
endfacet
facet normal -0.000000 0.000000 1.000000
outer loop
vertex 749.999817 525.000061 1000.000122
vertex 899.999817 675.000061 1000.000122
vertex -750.000183 524.999939 999.999878
endloop
endfacet
facet normal 0.000000 0.000000 1.000000
outer loop
vertex -750.000183 -525.000061 999.999878
vertex -900.000183 -525.000061 999.999878
vertex -900.000183 -675.000061 999.999878
endloop
endfacet
facet normal -0.000000 0.000000 1.000000
outer loop
vertex 749.999817 525.000061 1000.000122
vertex -750.000183 524.999939 999.999878
vertex -750.000183 -525.000061 999.999878
endloop
endfacet
facet normal 0.000000 0.000000 1.000000
outer loop
vertex 899.999817 -674.999939 1000.000122
vertex 899.999817 -524.999939 1000.000122
vertex 749.999817 -524.999939 1000.000122
endloop
endfacet
facet normal -0.000000 0.000000 1.000000
outer loop
vertex 749.999817 -524.999939 1000.000122
vertex 749.999817 525.000061 1000.000122
vertex -750.000183 -525.000061 999.999878
endloop
endfacet
facet normal -0.000000 0.000000 1.000000
outer loop
vertex -750.000183 -525.000061 999.999878
vertex -900.000183 -675.000061 999.999878
vertex 899.999817 -674.999939 1000.000122
endloop
endfacet
facet normal -0.000000 -0.000000 1.000000
outer loop
vertex 749.999817 -524.999939 1000.000122
vertex -750.000183 -525.000061 999.999878
vertex 899.999817 -674.999939 1000.000122
endloop
endfacet
facet normal 0.000000 -1.000000 -0.000000
outer loop
vertex -900.000000 -675.000061 -0.000147
vertex 900.000000 -674.999939 0.000147
vertex 899.999939 -674.999939 200.000153
endloop
endfacet
facet normal 0.000000 -1.000000 0.000000
outer loop
vertex -900.000000 -675.000061 -0.000147
vertex 899.999939 -674.999939 200.000153
vertex -900.000061 -675.000061 199.999847
endloop
endfacet
facet normal 1.000000 0.000000 0.000000
outer loop
vertex 750.000000 -524.999939 0.000122
vertex 750.000000 525.000061 0.000122
vertex 749.999939 525.000061 200.000122
endloop
endfacet
facet normal 1.000000 0.000000 0.000000
outer loop
vertex 750.000000 -524.999939 0.000122
vertex 749.999939 525.000061 200.000122
vertex 749.999939 -524.999939 200.000122
endloop
endfacet
facet normal 1.000000 0.000000 0.000000
outer loop
vertex 899.999939 -674.999939 200.000153
vertex 899.999939 -524.999939 200.000153
vertex 899.999939 -524.999939 400.000153
endloop
endfacet
facet normal 1.000000 0.000000 0.000000
outer loop
vertex 899.999939 -674.999939 200.000153
vertex 899.999939 -524.999939 400.000153
vertex 899.999939 -674.999939 400.000153
endloop
endfacet
facet normal 0.000000 1.000000 -0.000000
outer loop
vertex -750.000000 -525.000061 -0.000122
vertex -900.000000 -525.000061 -0.000147
vertex -900.000061 -525.000061 199.999847
endloop
endfacet
facet normal 0.000000 1.000000 0.000000
outer loop
vertex -750.000000 -525.000061 -0.000122
vertex -900.000061 -525.000061 199.999847
vertex -750.000061 -525.000061 199.999878
endloop
endfacet
facet normal -0.000000 1.000000 0.000000
outer loop
vertex -900.000000 674.999939 -0.000147
vertex -900.000061 674.999939 199.999847
vertex 899.999939 675.000061 200.000153
endloop
endfacet
facet normal -0.000000 1.000000 -0.000000
outer loop
vertex -900.000000 674.999939 -0.000147
vertex 899.999939 675.000061 200.000153
vertex 900.000000 675.000061 0.000147
endloop
endfacet
facet normal -1.000000 0.000000 0.000000
outer loop
vertex -750.000061 524.999939 199.999878
vertex -750.000061 -525.000061 199.999878
vertex -750.000061 -525.000061 399.999878
endloop
endfacet
facet normal -1.000000 0.000000 0.000000
outer loop
vertex -750.000061 524.999939 199.999878
vertex -750.000061 -525.000061 399.999878
vertex -750.000061 524.999939 399.999878
endloop
endfacet
facet normal -1.000000 0.000000 -0.000000
outer loop
vertex -900.000000 674.999939 -0.000147
vertex -900.000000 524.999939 -0.000147
vertex -900.000061 524.999939 199.999847
endloop
endfacet
facet normal -1.000000 0.000000 -0.000000
outer loop
vertex -900.000000 674.999939 -0.000147
vertex -900.000061 524.999939 199.999847
vertex -900.000061 674.999939 199.999847
endloop
endfacet
facet normal 0.000000 -1.000000 0.000000
outer loop
vertex 750.000000 525.000061 0.000122
vertex 900.000000 525.000061 0.000147
vertex 899.999939 525.000061 200.000153
endloop
endfacet
facet normal 0.000000 -1.000000 0.000000
outer loop
vertex 750.000000 525.000061 0.000122
vertex 899.999939 525.000061 200.000153
vertex 749.999939 525.000061 200.000122
endloop
endfacet
facet normal 0.000000 -1.000000 0.000000
outer loop
vertex -900.000000 524.999939 -0.000147
vertex -750.000000 524.999939 -0.000122
vertex -750.000061 524.999939 199.999878
endloop
endfacet
facet normal 0.000000 -1.000000 0.000000
outer loop
vertex -900.000000 524.999939 -0.000147
vertex -750.000061 524.999939 199.999878
vertex -900.000061 524.999939 199.999847
endloop
endfacet
facet normal 1.000000 0.000000 0.000000
outer loop
vertex 900.000000 -674.999939 0.000147
vertex 900.000000 -524.999939 0.000147
vertex 899.999939 -524.999939 200.000153
endloop
endfacet
facet normal 1.000000 0.000000 0.000000
outer loop
vertex 900.000000 -674.999939 0.000147
vertex 899.999939 -524.999939 200.000153
vertex 899.999939 -674.999939 200.000153
endloop
endfacet
facet normal 0.000000 1.000000 -0.000000
outer loop
vertex 900.000000 -524.999939 0.000147
vertex 750.000000 -524.999939 0.000122
vertex 749.999939 -524.999939 200.000122
endloop
endfacet
facet normal 0.000000 1.000000 0.000000
outer loop
vertex 900.000000 -524.999939 0.000147
vertex 749.999939 -524.999939 200.000122
vertex 899.999939 -524.999939 200.000153
endloop
endfacet
facet normal 0.000000 -1.000000 0.000000
outer loop
vertex 749.999939 525.000061 200.000122
vertex 899.999939 525.000061 200.000153
vertex 899.999939 525.000061 400.000153
endloop
endfacet
facet normal 0.000000 -1.000000 0.000000
outer loop
vertex 749.999939 525.000061 200.000122
vertex 899.999939 525.000061 400.000153
vertex 749.999939 525.000061 400.000122
endloop
endfacet
facet normal 0.000000 1.000000 0.000000
outer loop
vertex 899.999939 -524.999939 200.000153
vertex 749.999939 -524.999939 200.000122
vertex 749.999939 -524.999939 400.000122
endloop
endfacet
facet normal 0.000000 1.000000 0.000000
outer loop
vertex 899.999939 -524.999939 200.000153
vertex 749.999939 -524.999939 400.000122
vertex 899.999939 -524.999939 400.000153
endloop
endfacet
facet normal 1.000000 0.000000 0.000000
outer loop
vertex 899.999939 525.000061 200.000153
vertex 899.999939 675.000061 200.000153
vertex 899.999939 675.000061 400.000153
endloop
endfacet
facet normal 1.000000 0.000000 0.000000
outer loop
vertex 899.999939 525.000061 200.000153
vertex 899.999939 675.000061 400.000153
vertex 899.999939 525.000061 400.000153
endloop
endfacet
facet normal 0.000000 1.000000 0.000000
outer loop
vertex -750.000061 -525.000061 199.999878
vertex -900.000061 -525.000061 199.999847
vertex -900.000061 -525.000061 399.999847
endloop
endfacet
facet normal 0.000000 1.000000 0.000000
outer loop
vertex -750.000061 -525.000061 199.999878
vertex -900.000061 -525.000061 399.999847
vertex -750.000061 -525.000061 399.999878
endloop
endfacet
facet normal 1.000000 0.000000 0.000000
outer loop
vertex 749.999939 -524.999939 200.000122
vertex 749.999939 525.000061 200.000122
vertex 749.999939 525.000061 400.000122
endloop
endfacet
facet normal 1.000000 0.000000 0.000000
outer loop
vertex 749.999939 -524.999939 200.000122
vertex 749.999939 525.000061 400.000122
vertex 749.999939 -524.999939 400.000122
endloop
endfacet
facet normal -1.000000 0.000000 0.000000
outer loop
vertex -900.000061 674.999939 199.999847
vertex -900.000061 524.999939 199.999847
vertex -900.000061 524.999939 399.999847
endloop
endfacet
facet normal -1.000000 0.000000 0.000000
outer loop
vertex -900.000061 674.999939 199.999847
vertex -900.000061 524.999939 399.999847
vertex -900.000061 674.999939 399.999847
endloop
endfacet
facet normal 0.000000 -1.000000 0.000000
outer loop
vertex -900.000061 -675.000061 199.999847
vertex 899.999939 -674.999939 200.000153
vertex 899.999939 -674.999939 400.000153
endloop
endfacet
facet normal 0.000000 -1.000000 0.000000
outer loop
vertex -900.000061 -675.000061 199.999847
vertex 899.999939 -674.999939 400.000153
vertex -900.000061 -675.000061 399.999847
endloop
endfacet
facet normal -0.000000 1.000000 0.000000
outer loop
vertex 899.999939 675.000061 200.000153
vertex -900.000061 674.999939 199.999847
vertex -900.000061 674.999939 399.999847
endloop
endfacet
facet normal -0.000000 1.000000 0.000000
outer loop
vertex 899.999939 675.000061 200.000153
vertex -900.000061 674.999939 399.999847
vertex 899.999939 675.000061 400.000153
endloop
endfacet
facet normal -1.000000 0.000000 0.000000
outer loop
vertex -900.000061 -525.000061 199.999847
vertex -900.000061 -675.000061 199.999847
vertex -900.000061 -675.000061 399.999847
endloop
endfacet
facet normal -1.000000 0.000000 0.000000
outer loop
vertex -900.000061 -525.000061 199.999847
vertex -900.000061 -675.000061 399.999847
vertex -900.000061 -525.000061 399.999847
endloop
endfacet
facet normal 0.000000 1.000000 -0.000000
outer loop
vertex 899.999939 -524.999939 400.000153
vertex 749.999939 -524.999939 400.000122
vertex 749.999878 -524.999939 600.000122
endloop
endfacet
facet normal 0.000000 1.000000 0.000000
outer loop
vertex 899.999939 -524.999939 400.000153
vertex 749.999878 -524.999939 600.000122
vertex 899.999878 -524.999939 600.000122
endloop
endfacet
facet normal -1.000000 0.000000 -0.000000
outer loop
vertex -900.000061 -525.000061 399.999847
vertex -900.000061 -675.000061 399.999847
vertex -900.000122 -675.000061 599.999878
endloop
endfacet
facet normal -1.000000 0.000000 -0.000000
outer loop
vertex -900.000061 -525.000061 399.999847
vertex -900.000122 -675.000061 599.999878
vertex -900.000122 -525.000061 599.999878
endloop
endfacet
facet normal 0.000000 -1.000000 0.000000
outer loop
vertex 749.999939 525.000061 400.000122
vertex 899.999939 525.000061 400.000153
vertex 899.999878 525.000061 600.000122
endloop
endfacet
facet normal 0.000000 -1.000000 0.000000
outer loop
vertex 749.999939 525.000061 400.000122
vertex 899.999878 525.000061 600.000122
vertex 749.999878 525.000061 600.000122
endloop
endfacet
facet normal 1.000000 0.000000 0.000000
outer loop
vertex 899.999939 525.000061 400.000153
vertex 899.999939 675.000061 400.000153
vertex 899.999878 675.000061 600.000122
endloop
endfacet
facet normal 1.000000 0.000000 0.000000
outer loop
vertex 899.999939 525.000061 400.000153
vertex 899.999878 675.000061 600.000122
vertex 899.999878 525.000061 600.000122
endloop
endfacet
facet normal -1.000000 0.000000 -0.000000
outer loop
vertex -750.000061 524.999939 399.999878
vertex -750.000061 -525.000061 399.999878
vertex -750.000122 -525.000061 599.999878
endloop
endfacet
facet normal -1.000000 0.000000 -0.000000
outer loop
vertex -750.000061 524.999939 399.999878
vertex -750.000122 -525.000061 599.999878
vertex -750.000122 524.999939 599.999878
endloop
endfacet
facet normal 0.000000 -1.000000 0.000000
outer loop
vertex -900.000061 524.999939 399.999847
vertex -750.000061 524.999939 399.999878
vertex -750.000122 524.999939 599.999878
endloop
endfacet
facet normal 0.000000 -1.000000 0.000000
outer loop
vertex -900.000061 524.999939 399.999847
vertex -750.000122 524.999939 599.999878
vertex -900.000122 524.999939 599.999878
endloop
endfacet
facet normal 1.000000 0.000000 0.000000
outer loop
vertex 899.999939 -674.999939 400.000153
vertex 899.999939 -524.999939 400.000153
vertex 899.999878 -524.999939 600.000122
endloop
endfacet
facet normal 1.000000 0.000000 0.000000
outer loop
vertex 899.999939 -674.999939 400.000153
vertex 899.999878 -524.999939 600.000122
vertex 899.999878 -674.999939 600.000122
endloop
endfacet
facet normal -1.000000 0.000000 -0.000000
outer loop
vertex -900.000061 674.999939 399.999847
vertex -900.000061 524.999939 399.999847
vertex -900.000122 524.999939 599.999878
endloop
endfacet
facet normal -1.000000 0.000000 -0.000000
outer loop
vertex -900.000061 674.999939 399.999847
vertex -900.000122 524.999939 599.999878
vertex -900.000122 674.999939 599.999878
endloop
endfacet
facet normal 0.000000 1.000000 -0.000000
outer loop
vertex -750.000061 -525.000061 399.999878
vertex -900.000061 -525.000061 399.999847
vertex -900.000122 -525.000061 599.999878
endloop
endfacet
facet normal 0.000000 1.000000 0.000000
outer loop
vertex -750.000061 -525.000061 399.999878
vertex -900.000122 -525.000061 599.999878
vertex -750.000122 -525.000061 599.999878
endloop
endfacet
facet normal 1.000000 0.000000 0.000000
outer loop
vertex 749.999939 -524.999939 400.000122
vertex 749.999939 525.000061 400.000122
vertex 749.999878 525.000061 600.000122
endloop
endfacet
facet normal 1.000000 0.000000 0.000000
outer loop
vertex 749.999939 -524.999939 400.000122
vertex 749.999878 525.000061 600.000122
vertex 749.999878 -524.999939 600.000122
endloop
endfacet
facet normal 0.000000 -1.000000 -0.000000
outer loop
vertex -900.000061 -675.000061 399.999847
vertex 899.999939 -674.999939 400.000153
vertex 899.999878 -674.999939 600.000122
endloop
endfacet
facet normal 0.000000 -1.000000 0.000000
outer loop
vertex -900.000061 -675.000061 399.999847
vertex 899.999878 -674.999939 600.000122
vertex -900.000122 -675.000061 599.999878
endloop
endfacet
facet normal -0.000000 1.000000 0.000000
outer loop
vertex 899.999939 675.000061 400.000153
vertex -900.000061 674.999939 399.999847
vertex -900.000122 674.999939 599.999878
endloop
endfacet
facet normal -0.000000 1.000000 0.000000
outer loop
vertex 899.999939 675.000061 400.000153
vertex -900.000122 674.999939 599.999878
vertex 899.999878 675.000061 600.000122
endloop
endfacet
facet normal 0.000000 1.000000 0.000000
outer loop
vertex -750.000122 -525.000061 599.999878
vertex -900.000122 -525.000061 599.999878
vertex -900.000122 -525.000061 799.999878
endloop
endfacet
facet normal 0.000000 1.000000 0.000000
outer loop
vertex -750.000122 -525.000061 599.999878
vertex -900.000122 -525.000061 799.999878
vertex -750.000122 -525.000061 799.999878
endloop
endfacet
facet normal -1.000000 0.000000 0.000000
outer loop
vertex -900.000122 674.999939 599.999878
vertex -900.000122 524.999939 599.999878
vertex -900.000122 524.999939 799.999878
endloop
endfacet
facet normal -1.000000 0.000000 0.000000
outer loop
vertex -900.000122 674.999939 599.999878
vertex -900.000122 524.999939 799.999878
vertex -900.000122 674.999939 799.999878
endloop
endfacet
facet normal 0.000000 1.000000 0.000000
outer loop
vertex 899.999878 -524.999939 600.000122
vertex 749.999878 -524.999939 600.000122
vertex 749.999878 -524.999939 800.000122
endloop
endfacet
facet normal 0.000000 1.000000 0.000000
outer loop
vertex 899.999878 -524.999939 600.000122
vertex 749.999878 -524.999939 800.000122
vertex 899.999878 -524.999939 800.000122
endloop
endfacet
facet normal 0.000000 -1.000000 0.000000
outer loop
vertex 749.999878 525.000061 600.000122
vertex 899.999878 525.000061 600.000122
vertex 899.999878 525.000061 800.000122
endloop
endfacet
facet normal 0.000000 -1.000000 0.000000
outer loop
vertex 749.999878 525.000061 600.000122
vertex 899.999878 525.000061 800.000122
vertex 749.999878 525.000061 800.000122
endloop
endfacet
facet normal -1.000000 0.000000 0.000000
outer loop
vertex -900.000122 -525.000061 599.999878
vertex -900.000122 -675.000061 599.999878
vertex -900.000122 -675.000061 799.999878
endloop
endfacet
facet normal -1.000000 0.000000 0.000000
outer loop
vertex -900.000122 -525.000061 599.999878
vertex -900.000122 -675.000061 799.999878
vertex -900.000122 -525.000061 799.999878
endloop
endfacet
facet normal 0.000000 -1.000000 0.000000
outer loop
vertex -900.000122 524.999939 599.999878
vertex -750.000122 524.999939 599.999878
vertex -750.000122 524.999939 799.999878
endloop
endfacet
facet normal 0.000000 -1.000000 0.000000
outer loop
vertex -900.000122 524.999939 599.999878
vertex -750.000122 524.999939 799.999878
vertex -900.000122 524.999939 799.999878
endloop
endfacet
facet normal 1.000000 0.000000 0.000000
outer loop
vertex 899.999878 525.000061 600.000122
vertex 899.999878 675.000061 600.000122
vertex 899.999878 675.000061 800.000122
endloop
endfacet
facet normal 1.000000 0.000000 0.000000
outer loop
vertex 899.999878 525.000061 600.000122
vertex 899.999878 675.000061 800.000122
vertex 899.999878 525.000061 800.000122
endloop
endfacet
facet normal 0.000000 -1.000000 0.000000
outer loop
vertex -900.000122 -675.000061 599.999878
vertex 899.999878 -674.999939 600.000122
vertex 899.999878 -674.999939 800.000122
endloop
endfacet
facet normal 0.000000 -1.000000 0.000000
outer loop
vertex -900.000122 -675.000061 599.999878
vertex 899.999878 -674.999939 800.000122
vertex -900.000122 -675.000061 799.999878
endloop
endfacet
facet normal -1.000000 0.000000 0.000000
outer loop
vertex -750.000122 524.999939 599.999878
vertex -750.000122 -525.000061 599.999878
vertex -750.000122 -525.000061 799.999878
endloop
endfacet
facet normal -1.000000 0.000000 0.000000
outer loop
vertex -750.000122 524.999939 599.999878
vertex -750.000122 -525.000061 799.999878
vertex -750.000122 524.999939 799.999878
endloop
endfacet
facet normal -0.000000 1.000000 0.000000
outer loop
vertex 899.999878 675.000061 600.000122
vertex -900.000122 674.999939 599.999878
vertex -900.000122 674.999939 799.999878
endloop
endfacet
facet normal -0.000000 1.000000 0.000000
outer loop
vertex 899.999878 675.000061 600.000122
vertex -900.000122 674.999939 799.999878
vertex 899.999878 675.000061 800.000122
endloop
endfacet
facet normal 1.000000 0.000000 0.000000
outer loop
vertex 899.999878 -674.999939 600.000122
vertex 899.999878 -524.999939 600.000122
vertex 899.999878 -524.999939 800.000122
endloop
endfacet
facet normal 1.000000 0.000000 0.000000
outer loop
vertex 899.999878 -674.999939 600.000122
vertex 899.999878 -524.999939 800.000122
vertex 899.999878 -674.999939 800.000122
endloop
endfacet
facet normal 1.000000 0.000000 0.000000
outer loop
vertex 749.999878 -524.999939 600.000122
vertex 749.999878 525.000061 600.000122
vertex 749.999878 525.000061 800.000122
endloop
endfacet
facet normal 1.000000 0.000000 0.000000
outer loop
vertex 749.999878 -524.999939 600.000122
vertex 749.999878 525.000061 800.000122
vertex 749.999878 -524.999939 800.000122
endloop
endfacet
facet normal 1.000000 0.000000 0.000000
outer loop
vertex 749.999878 -524.999939 800.000122
vertex 749.999878 525.000061 800.000122
vertex 749.999817 525.000061 1000.000122
endloop
endfacet
facet normal 1.000000 0.000000 0.000000
outer loop
vertex 749.999878 -524.999939 800.000122
vertex 749.999817 525.000061 1000.000122
vertex 749.999817 -524.999939 1000.000122
endloop
endfacet
facet normal 0.000000 1.000000 -0.000000
outer loop
vertex -750.000122 -525.000061 799.999878
vertex -900.000122 -525.000061 799.999878
vertex -900.000183 -525.000061 999.999878
endloop
endfacet
facet normal 0.000000 1.000000 0.000000
outer loop
vertex -750.000122 -525.000061 799.999878
vertex -900.000183 -525.000061 999.999878
vertex -750.000183 -525.000061 999.999878
endloop
endfacet
facet normal -1.000000 0.000000 -0.000000
outer loop
vertex -900.000122 674.999939 799.999878
vertex -900.000122 524.999939 799.999878
vertex -900.000183 524.999939 999.999878
endloop
endfacet
facet normal -1.000000 0.000000 -0.000000
outer loop
vertex -900.000122 674.999939 799.999878
vertex -900.000183 524.999939 999.999878
vertex -900.000183 674.999939 999.999878
endloop
endfacet
facet normal 0.000000 1.000000 -0.000000
outer loop
vertex 899.999878 -524.999939 800.000122
vertex 749.999878 -524.999939 800.000122
vertex 749.999817 -524.999939 1000.000122
endloop
endfacet
facet normal 0.000000 1.000000 0.000000
outer loop
vertex 899.999878 -524.999939 800.000122
vertex 749.999817 -524.999939 1000.000122
vertex 899.999817 -524.999939 1000.000122
endloop
endfacet
facet normal 0.000000 -1.000000 0.000000
outer loop
vertex 749.999878 525.000061 800.000122
vertex 899.999878 525.000061 800.000122
vertex 899.999817 525.000061 1000.000122
endloop
endfacet
facet normal 0.000000 -1.000000 0.000000
outer loop
vertex 749.999878 525.000061 800.000122
vertex 899.999817 525.000061 1000.000122
vertex 749.999817 525.000061 1000.000122
endloop
endfacet
facet normal -1.000000 0.000000 -0.000000
outer loop
vertex -900.000122 -525.000061 799.999878
vertex -900.000122 -675.000061 799.999878
vertex -900.000183 -675.000061 999.999878
endloop
endfacet
facet normal -1.000000 0.000000 -0.000000
outer loop
vertex -900.000122 -525.000061 799.999878
vertex -900.000183 -675.000061 999.999878
vertex -900.000183 -525.000061 999.999878
endloop
endfacet
facet normal 0.000000 -1.000000 0.000000
outer loop
vertex -900.000122 524.999939 799.999878
vertex -750.000122 524.999939 799.999878
vertex -750.000183 524.999939 999.999878
endloop
endfacet
facet normal 0.000000 -1.000000 0.000000
outer loop
vertex -900.000122 524.999939 799.999878
vertex -750.000183 524.999939 999.999878
vertex -900.000183 524.999939 999.999878
endloop
endfacet
facet normal 1.000000 0.000000 0.000000
outer loop
vertex 899.999878 525.000061 800.000122
vertex 899.999878 675.000061 800.000122
vertex 899.999817 675.000061 1000.000122
endloop
endfacet
facet normal 1.000000 0.000000 0.000000
outer loop
vertex 899.999878 525.000061 800.000122
vertex 899.999817 675.000061 1000.000122
vertex 899.999817 525.000061 1000.000122
endloop
endfacet
facet normal 0.000000 -1.000000 -0.000000
outer loop
vertex -900.000122 -675.000061 799.999878
vertex 899.999878 -674.999939 800.000122
vertex 899.999817 -674.999939 1000.000122
endloop
endfacet
facet normal 0.000000 -1.000000 0.000000
outer loop
vertex -900.000122 -675.000061 799.999878
vertex 899.999817 -674.999939 1000.000122
vertex -900.000183 -675.000061 999.999878
endloop
endfacet
facet normal -1.000000 0.000000 -0.000000
outer loop
vertex -750.000122 524.999939 799.999878
vertex -750.000122 -525.000061 799.999878
vertex -750.000183 -525.000061 999.999878
endloop
endfacet
facet normal -1.000000 0.000000 -0.000000
outer loop
vertex -750.000122 524.999939 799.999878
vertex -750.000183 -525.000061 999.999878
vertex -750.000183 524.999939 999.999878
endloop
endfacet
facet normal -0.000000 1.000000 0.000000
outer loop
vertex 899.999878 675.000061 800.000122
vertex -900.000122 674.999939 799.999878
vertex -900.000183 674.999939 999.999878
endloop
endfacet
facet normal -0.000000 1.000000 0.000000
outer loop
vertex 899.999878 675.000061 800.000122
vertex -900.000183 674.999939 999.999878
vertex 899.999817 675.000061 1000.000122
endloop
endfacet
facet normal 1.000000 0.000000 0.000000
outer loop
vertex 899.999878 -674.999939 800.000122
vertex 899.999878 -524.999939 800.000122
vertex 899.999817 -524.999939 1000.000122
endloop
endfacet
facet normal 1.000000 0.000000 0.000000
outer loop
vertex 899.999878 -674.999939 800.000122
vertex 899.999817 -524.999939 1000.000122
vertex 899.999817 -674.999939 1000.000122
endloop
endfacet
endsolid building_035
