solid building_021
facet normal 0.000000 0.000000 1.000000
outer loop
vertex -756.750000 -449.999451 3450.000000
vertex 756.750000 -449.999451 3450.000000
vertex 756.750000 450.000549 3450.000000
endloop
endfacet
facet normal 0.000000 0.000000 1.000000
outer loop
vertex -756.750000 -449.999451 3450.000000
vertex 756.750000 450.000549 3450.000000
vertex -756.750000 450.000549 3450.000000
endloop
endfacet
facet normal 0.000000 -1.000000 0.000000
outer loop
vertex -756.750000 -450.000000 0.000073
vertex 756.750000 -450.000000 0.000073
vertex 756.750000 -449.999878 690.000061
endloop
endfacet
facet normal 0.000000 -1.000000 0.000000
outer loop
vertex -756.750000 -450.000000 0.000073
vertex 756.750000 -449.999878 690.000061
vertex -756.750000 -449.999878 690.000061
endloop
endfacet
facet normal 1.000000 0.000000 0.000000
outer loop
vertex 756.750000 -450.000000 0.000073
vertex 756.750000 450.000000 -0.000073
vertex 756.750000 450.000122 689.999939
endloop
endfacet
facet normal 1.000000 0.000000 0.000000
outer loop
vertex 756.750000 -450.000000 0.000073
vertex 756.750000 450.000122 689.999939
vertex 756.750000 -449.999878 690.000061
endloop
endfacet
facet normal -1.000000 0.000000 0.000000
outer loop
vertex -756.750000 450.000000 -0.000073
vertex -756.750000 -450.000000 0.000073
vertex -756.750000 -449.999878 690.000061
endloop
endfacet
facet normal -1.000000 0.000000 0.000000
outer loop
vertex -756.750000 450.000000 -0.000073
vertex -756.750000 -449.999878 690.000061
vertex -756.750000 450.000122 689.999939
endloop
endfacet
facet normal 0.000000 1.000000 -0.000000
outer loop
vertex 756.750000 450.000000 -0.000073
vertex -756.750000 450.000000 -0.000073
vertex -756.750000 450.000122 689.999939
endloop
endfacet
facet normal 0.000000 1.000000 -0.000000
outer loop
vertex 756.750000 450.000000 -0.000073
vertex -756.750000 450.000122 689.999939
vertex 756.750000 450.000122 689.999939
endloop
endfacet
facet normal 0.000000 1.000000 -0.000000
outer loop
vertex 756.750000 450.000122 689.999939
vertex -756.750000 450.000122 689.999939
vertex -756.750000 450.000214 1379.999878
endloop
endfacet
facet normal 0.000000 1.000000 -0.000000
outer loop
vertex 756.750000 450.000122 689.999939
vertex -756.750000 450.000214 1379.999878
vertex 756.750000 450.000214 1379.999878
endloop
endfacet
facet normal 0.000000 -1.000000 0.000000
outer loop
vertex -756.750000 -449.999878 690.000061
vertex 756.750000 -449.999878 690.000061
vertex 756.750000 -449.999786 1380.000122
endloop
endfacet
facet normal 0.000000 -1.000000 0.000000
outer loop
vertex -756.750000 -449.999878 690.000061
vertex 756.750000 -449.999786 1380.000122
vertex -756.750000 -449.999786 1380.000122
endloop
endfacet
facet normal -1.000000 0.000000 0.000000
outer loop
vertex -756.750000 450.000122 689.999939
vertex -756.750000 -449.999878 690.000061
vertex -756.750000 -449.999786 1380.000122
endloop
endfacet
facet normal -1.000000 -0.000000 0.000000
outer loop
vertex -756.750000 450.000122 689.999939
vertex -756.750000 -449.999786 1380.000122
vertex -756.750000 450.000214 1379.999878
endloop
endfacet
facet normal 1.000000 0.000000 0.000000
outer loop
vertex 756.750000 -449.999878 690.000061
vertex 756.750000 450.000122 689.999939
vertex 756.750000 450.000214 1379.999878
endloop
endfacet
facet normal 1.000000 -0.000000 0.000000
outer loop
vertex 756.750000 -449.999878 690.000061
vertex 756.750000 450.000214 1379.999878
vertex 756.750000 -449.999786 1380.000122
endloop
endfacet
facet normal 0.000000 -1.000000 0.000000
outer loop
vertex -756.750000 -449.999786 1380.000122
vertex 756.750000 -449.999786 1380.000122
vertex 756.750000 -449.999664 2070.000000
endloop
endfacet
facet normal 0.000000 -1.000000 0.000000
outer loop
vertex -756.750000 -449.999786 1380.000122
vertex 756.750000 -449.999664 2070.000000
vertex -756.750000 -449.999664 2070.000000
endloop
endfacet
facet normal -1.000000 0.000000 0.000000
outer loop
vertex -756.750000 450.000214 1379.999878
vertex -756.750000 -449.999786 1380.000122
vertex -756.750000 -449.999664 2070.000000
endloop
endfacet
facet normal -1.000000 0.000000 0.000000
outer loop
vertex -756.750000 450.000214 1379.999878
vertex -756.750000 -449.999664 2070.000000
vertex -756.750000 450.000336 2070.000000
endloop
endfacet
facet normal 1.000000 0.000000 0.000000
outer loop
vertex 756.750000 -449.999786 1380.000122
vertex 756.750000 450.000214 1379.999878
vertex 756.750000 450.000336 2070.000000
endloop
endfacet
facet normal 1.000000 0.000000 0.000000
outer loop
vertex 756.750000 -449.999786 1380.000122
vertex 756.750000 450.000336 2070.000000
vertex 756.750000 -449.999664 2070.000000
endloop
endfacet
facet normal 0.000000 1.000000 -0.000000
outer loop
vertex 756.750000 450.000214 1379.999878
vertex -756.750000 450.000214 1379.999878
vertex -756.750000 450.000336 2070.000000
endloop
endfacet
facet normal 0.000000 1.000000 -0.000000
outer loop
vertex 756.750000 450.000214 1379.999878
vertex -756.750000 450.000336 2070.000000
vertex 756.750000 450.000336 2070.000000
endloop
endfacet
facet normal -1.000000 0.000000 0.000000
outer loop
vertex -756.750000 450.000336 2070.000000
vertex -756.750000 -449.999664 2070.000000
vertex -756.750000 -449.999542 2760.000000
endloop
endfacet
facet normal -1.000000 0.000000 0.000000
outer loop
vertex -756.750000 450.000336 2070.000000
vertex -756.750000 -449.999542 2760.000000
vertex -756.750000 450.000458 2760.000000
endloop
endfacet
facet normal 1.000000 0.000000 0.000000
outer loop
vertex 756.750000 -449.999664 2070.000000
vertex 756.750000 450.000336 2070.000000
vertex 756.750000 450.000458 2760.000000
endloop
endfacet
facet normal 1.000000 0.000000 0.000000
outer loop
vertex 756.750000 -449.999664 2070.000000
vertex 756.750000 450.000458 2760.000000
vertex 756.750000 -449.999542 2760.000000
endloop
endfacet
facet normal 0.000000 1.000000 -0.000000
outer loop
vertex 756.750000 450.000336 2070.000000
vertex -756.750000 450.000336 2070.000000
vertex -756.750000 450.000458 2760.000000
endloop
endfacet
facet normal 0.000000 1.000000 -0.000000
outer loop
vertex 756.750000 450.000336 2070.000000
vertex -756.750000 450.000458 2760.000000
vertex 756.750000 450.000458 2760.000000
endloop
endfacet
facet normal 0.000000 -1.000000 0.000000
outer loop
vertex -756.750000 -449.999664 2070.000000
vertex 756.750000 -449.999664 2070.000000
vertex 756.750000 -449.999542 2760.000000
endloop
endfacet
facet normal 0.000000 -1.000000 0.000000
outer loop
vertex -756.750000 -449.999664 2070.000000
vertex 756.750000 -449.999542 2760.000000
vertex -756.750000 -449.999542 2760.000000
endloop
endfacet
facet normal 0.000000 1.000000 -0.000000
outer loop
vertex 756.750000 450.000458 2760.000000
vertex -756.750000 450.000458 2760.000000
vertex -756.750000 450.000549 3450.000000
endloop
endfacet
facet normal 0.000000 1.000000 -0.000000
outer loop
vertex 756.750000 450.000458 2760.000000
vertex -756.750000 450.000549 3450.000000
vertex 756.750000 450.000549 3450.000000
endloop
endfacet
facet normal 0.000000 -1.000000 0.000000
outer loop
vertex -756.750000 -449.999542 2760.000000
vertex 756.750000 -449.999542 2760.000000
vertex 756.750000 -449.999451 3450.000000
endloop
endfacet
facet normal 0.000000 -1.000000 0.000000
outer loop
vertex -756.750000 -449.999542 2760.000000
vertex 756.750000 -449.999451 3450.000000
vertex -756.750000 -449.999451 3450.000000
endloop
endfacet
facet normal -1.000000 0.000000 0.000000
outer loop
vertex -756.750000 450.000458 2760.000000
vertex -756.750000 -449.999542 2760.000000
vertex -756.750000 -449.999451 3450.000000
endloop
endfacet
facet normal -1.000000 0.000000 0.000000
outer loop
vertex -756.750000 450.000458 2760.000000
vertex -756.750000 -449.999451 3450.000000
vertex -756.750000 450.000549 3450.000000
endloop
endfacet
facet normal 1.000000 0.000000 0.000000
outer loop
vertex 756.750000 -449.999542 2760.000000
vertex 756.750000 450.000458 2760.000000
vertex 756.750000 450.000549 3450.000000
endloop
endfacet
facet normal 1.000000 0.000000 0.000000
outer loop
vertex 756.750000 -449.999542 2760.000000
vertex 756.750000 450.000549 3450.000000
vertex 756.750000 -449.999451 3450.000000
endloop
endfacet
endsolid building_021
