solid building_005
facet normal 0.000000 0.000000 1.000000
outer loop
vertex -562.500000 -301.499695 1800.000000
vertex 562.500000 -301.499695 1800.000000
vertex 562.500000 301.500305 1800.000000
endloop
endfacet
facet normal 0.000000 0.000000 1.000000
outer loop
vertex -562.500000 -301.499695 1800.000000
vertex 562.500000 301.500305 1800.000000
vertex -562.500000 301.500305 1800.000000
endloop
endfacet
facet normal 1.000000 0.000000 0.000000
outer loop
vertex 562.500000 -301.500000 0.000049
vertex 562.500000 301.500000 -0.000049
vertex 562.500000 301.500061 299.999939
endloop
endfacet
facet normal 1.000000 -0.000000 0.000000
outer loop
vertex 562.500000 -301.500000 0.000049
vertex 562.500000 301.500061 299.999939
vertex 562.500000 -301.499939 300.000061
endloop
endfacet
facet normal -1.000000 0.000000 0.000000
outer loop
vertex -562.500000 301.500000 -0.000049
vertex -562.500000 -301.500000 0.000049
vertex -562.500000 -301.499939 300.000061
endloop
endfacet
facet normal -1.000000 -0.000000 0.000000
outer loop
vertex -562.500000 301.500000 -0.000049
vertex -562.500000 -301.499939 300.000061
vertex -562.500000 301.500061 299.999939
endloop
endfacet
facet normal 0.000000 1.000000 -0.000000
outer loop
vertex 562.500000 301.500000 -0.000049
vertex -562.500000 301.500000 -0.000049
vertex -562.500000 301.500061 299.999939
endloop
endfacet
facet normal 0.000000 1.000000 -0.000000
outer loop
vertex 562.500000 301.500000 -0.000049
vertex -562.500000 301.500061 299.999939
vertex 562.500000 301.500061 299.999939
endloop
endfacet
facet normal 0.000000 -1.000000 0.000000
outer loop
vertex -562.500000 -301.500000 0.000049
vertex 562.500000 -301.500000 0.000049
vertex 562.500000 -301.499939 300.000061
endloop
endfacet
facet normal 0.000000 -1.000000 0.000000
outer loop
vertex -562.500000 -301.500000 0.000049
vertex 562.500000 -301.499939 300.000061
vertex -562.500000 -301.499939 300.000061
endloop
endfacet
facet normal -1.000000 0.000000 0.000000
outer loop
vertex -562.500000 301.500061 299.999939
vertex -562.500000 -301.499939 300.000061
vertex -562.500000 -301.499908 600.000061
endloop
endfacet
facet normal -1.000000 -0.000000 0.000000
outer loop
vertex -562.500000 301.500061 299.999939
vertex -562.500000 -301.499908 600.000061
vertex -562.500000 301.500092 599.999939
endloop
endfacet
facet normal 1.000000 0.000000 0.000000
outer loop
vertex 562.500000 -301.499939 300.000061
vertex 562.500000 301.500061 299.999939
vertex 562.500000 301.500092 599.999939
endloop
endfacet
facet normal 1.000000 -0.000000 0.000000
outer loop
vertex 562.500000 -301.499939 300.000061
vertex 562.500000 301.500092 599.999939
vertex 562.500000 -301.499908 600.000061
endloop
endfacet
facet normal 0.000000 1.000000 0.000000
outer loop
vertex 562.500000 301.500061 299.999939
vertex -562.500000 301.500061 299.999939
vertex -562.500000 301.500092 599.999939
endloop
endfacet
facet normal 0.000000 1.000000 -0.000000
outer loop
vertex 562.500000 301.500061 299.999939
vertex -562.500000 301.500092 599.999939
vertex 562.500000 301.500092 599.999939
endloop
endfacet
facet normal 0.000000 -1.000000 0.000000
outer loop
vertex -562.500000 -301.499939 300.000061
vertex 562.500000 -301.499939 300.000061
vertex 562.500000 -301.499908 600.000061
endloop
endfacet
facet normal 0.000000 -1.000000 0.000000
outer loop
vertex -562.500000 -301.499939 300.000061
vertex 562.500000 -301.499908 600.000061
vertex -562.500000 -301.499908 600.000061
endloop
endfacet
facet normal 1.000000 0.000000 0.000000
outer loop
vertex 562.500000 -301.499908 600.000061
vertex 562.500000 301.500092 599.999939
vertex 562.500000 301.500153 899.999939
endloop
endfacet
facet normal 1.000000 -0.000000 0.000000
outer loop
vertex 562.500000 -301.499908 600.000061
vertex 562.500000 301.500153 899.999939
vertex 562.500000 -301.499847 900.000061
endloop
endfacet
facet normal 0.000000 1.000000 -0.000000
outer loop
vertex 562.500000 301.500092 599.999939
vertex -562.500000 301.500092 599.999939
vertex -562.500000 301.500153 899.999939
endloop
endfacet
facet normal 0.000000 1.000000 -0.000000
outer loop
vertex 562.500000 301.500092 599.999939
vertex -562.500000 301.500153 899.999939
vertex 562.500000 301.500153 899.999939
endloop
endfacet
facet normal 0.000000 -1.000000 0.000000
outer loop
vertex -562.500000 -301.499908 600.000061
vertex 562.500000 -301.499908 600.000061
vertex 562.500000 -301.499847 900.000061
endloop
endfacet
facet normal 0.000000 -1.000000 0.000000
outer loop
vertex -562.500000 -301.499908 600.000061
vertex 562.500000 -301.499847 900.000061
vertex -562.500000 -301.499847 900.000061
endloop
endfacet
facet normal -1.000000 0.000000 0.000000
outer loop
vertex -562.500000 301.500092 599.999939
vertex -562.500000 -301.499908 600.000061
vertex -562.500000 -301.499847 900.000061
endloop
endfacet
facet normal -1.000000 -0.000000 0.000000
outer loop
vertex -562.500000 301.500092 599.999939
vertex -562.500000 -301.499847 900.000061
vertex -562.500000 301.500153 899.999939
endloop
endfacet
facet normal 0.000000 1.000000 -0.000000
outer loop
vertex 562.500000 301.500153 899.999939
vertex -562.500000 301.500153 899.999939
vertex -562.500000 301.500183 1200.000000
endloop
endfacet
facet normal 0.000000 1.000000 0.000000
outer loop
vertex 562.500000 301.500153 899.999939
vertex -562.500000 301.500183 1200.000000
vertex 562.500000 301.500183 1200.000000
endloop
endfacet
facet normal 0.000000 -1.000000 0.000000
outer loop
vertex -562.500000 -301.499847 900.000061
vertex 562.500000 -301.499847 900.000061
vertex 562.500000 -301.499817 1200.000000
endloop
endfacet
facet normal 0.000000 -1.000000 0.000000
outer loop
vertex -562.500000 -301.499847 900.000061
vertex 562.500000 -301.499817 1200.000000
vertex -562.500000 -301.499817 1200.000000
endloop
endfacet
facet normal -1.000000 0.000000 0.000000
outer loop
vertex -562.500000 301.500153 899.999939
vertex -562.500000 -301.499847 900.000061
vertex -562.500000 -301.499817 1200.000000
endloop
endfacet
facet normal -1.000000 0.000000 0.000000
outer loop
vertex -562.500000 301.500153 899.999939
vertex -562.500000 -301.499817 1200.000000
vertex -562.500000 301.500183 1200.000000
endloop
endfacet
facet normal 1.000000 0.000000 0.000000
outer loop
vertex 562.500000 -301.499847 900.000061
vertex 562.500000 301.500153 899.999939
vertex 562.500000 301.500183 1200.000000
endloop
endfacet
facet normal 1.000000 0.000000 0.000000
outer loop
vertex 562.500000 -301.499847 900.000061
vertex 562.500000 301.500183 1200.000000
vertex 562.500000 -301.499817 1200.000000
endloop
endfacet
facet normal -1.000000 0.000000 0.000000
outer loop
vertex -562.500000 301.500183 1200.000000
vertex -562.500000 -301.499817 1200.000000
vertex -562.500000 -301.499756 1500.000000
endloop
endfacet
facet normal -1.000000 0.000000 0.000000
outer loop
vertex -562.500000 301.500183 1200.000000
vertex -562.500000 -301.499756 1500.000000
vertex -562.500000 301.500244 1500.000000
endloop
endfacet
facet normal 1.000000 0.000000 0.000000
outer loop
vertex 562.500000 -301.499817 1200.000000
vertex 562.500000 301.500183 1200.000000
vertex 562.500000 301.500244 1500.000000
endloop
endfacet
facet normal 1.000000 0.000000 0.000000
outer loop
vertex 562.500000 -301.499817 1200.000000
vertex 562.500000 301.500244 1500.000000
vertex 562.500000 -301.499756 1500.000000
endloop
endfacet
facet normal 0.000000 1.000000 -0.000000
outer loop
vertex 562.500000 301.500183 1200.000000
vertex -562.500000 301.500183 1200.000000
vertex -562.500000 301.500244 1500.000000
endloop
endfacet
facet normal 0.000000 1.000000 -0.000000
outer loop
vertex 562.500000 301.500183 1200.000000
vertex -562.500000 301.500244 1500.000000
vertex 562.500000 301.500244 1500.000000
endloop
endfacet
facet normal 0.000000 -1.000000 0.000000
outer loop
vertex -562.500000 -301.499817 1200.000000
vertex 562.500000 -301.499817 1200.000000
vertex 562.500000 -301.499756 1500.000000
endloop
endfacet
facet normal 0.000000 -1.000000 0.000000
outer loop
vertex -562.500000 -301.499817 1200.000000
vertex 562.500000 -301.499756 1500.000000
vertex -562.500000 -301.499756 1500.000000
endloop
endfacet
facet normal 0.000000 1.000000 -0.000000
outer loop
vertex 562.500000 301.500244 1500.000000
vertex -562.500000 301.500244 1500.000000
vertex -562.500000 301.500305 1800.000000
endloop
endfacet
facet normal 0.000000 1.000000 -0.000000
outer loop
vertex 562.500000 301.500244 1500.000000
vertex -562.500000 301.500305 1800.000000
vertex 562.500000 301.500305 1800.000000
endloop
endfacet
facet normal 0.000000 -1.000000 0.000000
outer loop
vertex -562.500000 -301.499756 1500.000000
vertex 562.500000 -301.499756 1500.000000
vertex 562.500000 -301.499695 1800.000000
endloop
endfacet
facet normal 0.000000 -1.000000 0.000000
outer loop
vertex -562.500000 -301.499756 1500.000000
vertex 562.500000 -301.499695 1800.000000
vertex -562.500000 -301.499695 1800.000000
endloop
endfacet
facet normal -1.000000 0.000000 0.000000
outer loop
vertex -562.500000 301.500244 1500.000000
vertex -562.500000 -301.499756 1500.000000
vertex -562.500000 -301.499695 1800.000000
endloop
endfacet
facet normal -1.000000 0.000000 0.000000
outer loop
vertex -562.500000 301.500244 1500.000000
vertex -562.500000 -301.499695 1800.000000
vertex -562.500000 301.500305 1800.000000
endloop
endfacet
facet normal 1.000000 0.000000 0.000000
outer loop
vertex 562.500000 -301.499756 1500.000000
vertex 562.500000 301.500244 1500.000000
vertex 562.500000 301.500305 1800.000000
endloop
endfacet
facet normal 1.000000 0.000000 0.000000
outer loop
vertex 562.500000 -301.499756 1500.000000
vertex 562.500000 301.500305 1800.000000
vertex 562.500000 -301.499695 1800.000000
endloop
endfacet
endsolid building_005
