# vtk DataFile Version 2.0
sampleSurface
ASCII
DATASET POLYDATA
POINTS 324 float
0 0 0 -4 0 0 4 0 0 0 0
5 -4 0 5 4 0 5 -8 0 0
8 0 0 -8 -1.97215e-31 5 8 0 5 0
0 10 -4 0 10 4 0 10 -12 2.96059e-16
0 12 0 0 -8 -1.97215e-31 10 8 0 10
-12 0 5 12 0 5 0 0 15 -4
0 15 4 0 15 -12 0 10 12 0
10 -16 2.96059e-16 0 16 0 0 -16 0 5
16 0 5 -8 -1.97215e-31 15 8 0 15 -16
0 10 16 0 10 -12 0 15 12 0
15 -20 0 0 20 0 0 0 0 20
-4 0 20 4 0 20 -20 -1.97215e-31 5 20
-1.97215e-31 5 -8 0 20 8 0 20 -16 0
15 16 0 15 -20 0 10 20 0 10
-12 -1.97215e-31 20 12 0 20 -24 0 0 24
0 0 -24 -1.97215e-31 5 24 -1.97215e-31 5 -20 0
15 20 0 15 0 0 25 -4 0 25
4 0 25 -16 -1.97215e-31 20 16 0 20 -24
0 10 24 0 10 -8 0 25 8 0
25 -12 -1.97215e-31 25 12 0 25 -28 0 0
28 0 0 -20 0 20 20 0 20 -24
0 15 24 0 15 -28 0 5 28 0
5 -16 -1.97215e-31 25 16 0 25 -28 0 10
28 0 10 -24 0 20 24 0 20 -28
0 15 28 0 15 -32 0 0 32 0
0 -20 0 25 20 0 25 -32 0 5
32 0 5 -32 0 10 32 0 10 -28
0 20 28 0 20 -24 0 25 24 0
25 -32 0 15 32 0 15 -36 0 0
36 0 0 -36 0 5 36 0 5 -36
0 10 36 0 10 -28 0 25 28 0
25 -32 0 20 32 0 20 38 0 0
38 0 5 -36 0 15 36 0 15 38
0 10 -40 0 0 40 -2.96059e-16 0 -40 0
5 40 0 5 -32 0 25 32 0 25
38 0 15 -36 0 20 36 0 20 -40
0 10 40 0 10 -40 0 15 40 0
15 38 0 20 -36 0 25 36 0 25
-44 0 0 44 -2.96059e-16 0 -44 0 5 44
0 5 -40 0 20 40 0 20 -44 0
10 44 0 10 38 0 25 -44 0 15
44 0 15 -40 0 25 40 0 25 -48
0 0 48 0 0 -48 0 5 48 0
5 -44 0 20 44 0 20 -48 0 10
48 0 10 -48 0 15 48 0 15 -44
0 25 44 0 25 -52 0 0 -48 0
20 48 0 20 52 0 0 -52 0 5
52 0 5 -52 0 10 52 0 10 -52
0 15 -48 0 25 52 0 15 48 0
25 -52 0 20 52 0 20 -56 0 0
56 0 0 -56 0 5 56 0 5 -56
0 10 56 0 10 -52 0 25 52 0
25 -56 0 15 56 0 15 -56 0 20
56 0 20 -60 0 0 60 0 0 -60
0 5 60 0 5 -60 0 10 60 0
10 -56 0 25 56 0 25 -60 0 15
60 0 15 62 0 0 62 0 5 62
0 10 -60 0 20 60 0 20 62 0
15 -64 0 0 64 -2.96059e-16 0 -64 0 5
64 0 5 -64 0 10 64 0 10 -60
0 25 60 0 25 62 0 20 -64 0
15 64 0 15 62 0 25 -64 0 20
64 0 20 -68 0 0 68 -2.96059e-16 0 -68
0 5 68 0 5 -64 0 25 64 0
25 -68 0 10 68 0 10 -68 0 15
68 0 15 -68 0 20 68 0 20 -72
0 0 72 2.96059e-16 0 72 -4.93038e-32 5 -72 0
5 -68 0 25 68 0 25 72 -4.93038e-32 10
-72 0 10 72 -4.93038e-32 15 -72 0 15 72
-4.93038e-32 20 -72 0 20 -76 0 0 76 0
0 -76 0 5 76 0 5 72 -4.93038e-32 25
-72 0 25 -76 0 10 76 0 10 -76
0 15 76 0 15 -76 0 20 76 0
20 80 4.93038e-32 0 -80 0 0 -76 0 25
76 0 25 80 4.93038e-32 5 -80 0 5 80
4.93038e-32 10 -80 0 10 80 4.93038e-32 15 -80 0
15 80 4.93038e-32 20 -80 0 20 80 4.93038e-32 25
-80 0 25 -84 0 0 84 0 0 -84
0 5 84 0 5 -84 0 10 84 0
10 -84 0 15 84 0 15 85.6 4.93038e-32 0
85.6 -4.93038e-32 5 85.6 -4.93038e-32 10 -84 0 20 84
0 20 85.6 -4.93038e-32 15 -84 0 25 84 0
25 85.6 -4.93038e-32 20 -88 0 0 88 -1.25429e-28 0
-88 0 5 88 0 5 -88 0 10 88
0 10 85.6 4.93038e-32 25 -88 0 15 88 0
15 -88 0 20 88 0 20 -88 0 25
88 -1.25429e-28 25 -92 0 0 92 -2.96059e-16 0 -92
0 5 92 0 5 -92 0 10 92 0
10 -92 0 15 92 0 15 -92 0 20
92 0 20 -92 0 25 92 0 25 -96
0 0 96 2.96059e-16 0 96 -4.93038e-32 5 -96 0
5 96 -4.93038e-32 10 -96 0 10 96 -4.93038e-32 15
-96 0 15 96 -4.93038e-32 20 -96 0 20 96
-4.93038e-32 25 -96 0 25 -100 0 0 100 0
0 -100 0 5 100 0 5 -100 0 10
100 0 10 -100 0 15 100 0 15 -100
0 20 100 0 20 -100 0 25 100 0
25 
POLYGONS 280 1400
4 300 312 314 303 4 288 300 303 290 4
275 288 290 277 4 258 275 277 260 4
245 258 260 249 4 232 245 249 234 4
220 232 234 223 4 208 220 223 210 4
194 208 210 196 4 178 194 196 180 4
166 178 180 168 4 152 166 168 156 4
140 152 156 142 4 127 140 142 129 4
111 127 129 113 4 96 111 113 98 4
86 82 96 98 4 303 314 316 305 4
290 303 305 292 4 277 290 292 279 4
260 277 279 262 4 249 260 262 251 4
234 249 251 238 4 223 234 238 227 4
210 223 227 214 4 196 210 214 198 4
180 196 198 182 4 168 180 182 170 4
156 168 170 158 4 142 156 158 146 4
129 142 146 133 4 113 129 133 120 4
98 113 120 100 4 88 86 98 100 4
305 316 318 307 4 292 305 307 294 4
279 292 294 282 4 262 279 282 264 4
251 262 264 253 4 238 251 253 240 4
227 238 240 229 4 214 227 229 216 4
198 214 216 203 4 182 198 203 186 4
170 182 186 174 4 158 170 174 160 4
146 158 160 148 4 133 146 148 136 4
120 133 136 122 4 100 120 122 108 4
94 88 100 108 4 307 318 320 309 4
294 307 309 296 4 282 294 296 284 4
264 282 284 269 4 253 264 269 255 4
240 253 255 242 4 229 240 242 231 4
216 229 231 218 4 203 216 218 206 4
186 203 206 191 4 174 186 191 176 4
160 174 176 164 4 148 160 164 153 4
136 148 153 144 4 122 136 144 131 4
108 122 131 118 4 104 94 108 118 4
309 320 322 311 4 296 309 311 298 4
284 296 298 286 4 269 284 286 272 4
255 269 272 257 4 242 255 257 246 4
231 242 246 237 4 218 231 237 224 4
206 218 224 212 4 191 206 212 200 4
176 191 200 184 4 164 176 184 172 4
153 164 172 161 4 144 153 161 150 4
131 144 150 138 4 118 131 138 125 4
115 104 118 125 4 66 82 86 72 4
49 66 72 51 4 34 49 51 39 4
24 34 39 26 4 13 24 26 17 4
6 13 17 8 4 1 6 8 4 4
0 1 4 3 4 2 0 3 5 4
7 2 5 9 4 14 7 9 18 4
25 14 18 27 4 35 25 27 40 4
50 35 40 52 4 73 67 50 52 4
72 86 88 76 4 51 72 76 60 4
39 51 60 45 4 26 39 45 30 4
17 26 30 22 4 8 17 22 15 4
4 8 15 11 4 3 4 11 10 4
5 3 10 12 4 9 5 12 16 4
18 9 16 23 4 27 18 23 31 4
40 27 31 46 4 52 40 46 61 4
73 52 61 77 4 89 87 73 77 4
76 88 94 80 4 60 76 80 70 4
45 60 70 53 4 30 45 53 43 4
22 30 43 32 4 15 22 32 28 4
11 15 28 20 4 10 11 20 19 4
12 10 19 21 4 16 12 21 29 4
23 16 29 33 4 31 23 33 44 4
46 31 44 54 4 61 46 54 71 4
77 61 71 81 4 95 89 77 81 4
80 94 104 90 4 70 80 90 78 4
53 70 78 68 4 43 53 68 58 4
32 43 58 47 4 28 32 47 41 4
20 28 41 37 4 19 20 37 36 4
21 19 36 38 4 29 21 38 42 4
33 29 42 48 4 44 33 48 59 4
54 44 59 69 4 71 54 69 79 4
81 71 79 91 4 105 95 81 91 4
90 104 115 102 4 78 90 102 92 4
68 78 92 84 4 58 68 84 74 4
47 58 74 64 4 41 47 64 62 4
37 41 62 56 4 36 37 56 55 4
38 36 55 57 4 42 38 57 63 4
48 42 63 65 4 59 48 65 75 4
69 59 75 85 4 79 69 85 93 4
91 79 93 103 4 116 105 91 103 4
87 87 83 83 4 112 106 107 114 4
128 112 114 130 4 143 141 128 130 4
89 89 87 87 4 114 107 110 121 4
130 114 121 134 4 143 130 134 147 4
157 143 147 159 4 159 159 157 157 4
95 95 89 89 4 121 110 117 123 4
134 121 123 137 4 147 134 137 149 4
159 147 149 162 4 162 162 159 159 4
199 190 193 204 4 217 215 199 204 4
105 105 95 95 4 123 117 124 132 4
137 123 132 145 4 149 137 145 154 4
162 149 154 165 4 165 165 162 162 4
204 193 202 207 4 217 204 207 219 4
228 217 219 230 4 243 241 228 230 4
116 116 105 105 4 132 124 135 139 4
145 132 139 151 4 154 145 151 163 4
165 154 163 173 4 173 173 165 165 4
207 202 205 213 4 219 207 213 225 4
230 219 225 236 4 243 230 236 247 4
247 247 243 243 4 287 285 274 281 4
67 73 87 83 4 155 141 143 157 4
157 155 155 157 4 195 188 189 197 4
209 195 197 211 4 221 209 211 222 4
233 221 222 235 4 235 233 233 235 4
276 266 267 278 4 289 276 278 291 4
301 289 291 302 4 315 313 301 302 4
97 83 87 99 4 107 106 97 99 4
167 155 157 169 4 179 167 169 181 4
189 188 179 181 4 244 233 235 248 4
259 244 248 261 4 267 266 259 261 4
197 189 190 199 4 211 197 199 215 4
222 211 215 226 4 235 222 226 239 4
239 235 235 239 4 278 267 268 280 4
291 278 280 293 4 302 291 293 304 4
317 315 302 304 4 99 87 89 101 4
110 107 99 101 4 169 157 159 171 4
181 169 171 183 4 190 189 181 183 4
248 235 239 250 4 261 248 250 263 4
268 267 261 263 4 226 215 217 228 4
239 226 228 241 4 241 239 239 241 4
280 268 271 283 4 293 280 283 295 4
304 293 295 306 4 319 317 304 306 4
101 89 95 109 4 117 110 101 109 4
171 159 162 175 4 183 171 175 187 4
193 190 183 187 4 250 239 241 252 4
263 250 252 265 4 271 268 263 265 4
243 241 241 243 4 283 271 274 285 4
295 283 285 297 4 306 295 297 308 4
321 319 306 308 4 109 95 105 119 4
124 117 109 119 4 175 162 165 177 4
187 175 177 192 4 202 193 187 192 4
252 241 243 254 4 265 252 254 270 4
274 271 265 270 4 297 285 287 299 4
308 297 299 310 4 321 308 310 323 4
119 105 116 126 4 135 124 119 126 4
177 165 173 185 4 192 177 185 201 4
205 202 192 201 4 254 243 247 256 4
270 254 256 273 4 281 274 270 273 
POINT_DATA 324
FIELD attributes 2
p 1 324 float
2.35794e-05 2.40891e-05 2.28993e-05 2.37742e-05 2.42816e-05 2.31091e-05 2.4443e-05 2.2053e-05 2.46407e-05 2.22907e-05 2.42235e-05
2.47198e-05 2.35996e-05 2.46606e-05 2.10697e-05 2.50864e-05 2.28546e-05 2.48684e-05 2.13429e-05 2.46714e-05 2.51398e-05
2.4102e-05 2.53274e-05 2.20064e-05 2.47582e-05 2.00213e-05 2.4977e-05 2.03354e-05 2.54972e-05 2.34447e-05 2.54464e-05
2.11102e-05 2.5735e-05 2.27176e-05 2.47475e-05 1.90411e-05 2.49643e-05 2.53985e-05 2.44457e-05 2.4971e-05 1.9386e-05
2.57328e-05 2.38605e-05 2.58478e-05 2.19571e-05 2.54435e-05 2.02541e-05 2.59544e-05 2.32235e-05 2.46338e-05 1.81699e-05
2.48554e-05 1.85284e-05 2.58367e-05 2.12289e-05 2.50638e-05 2.54829e-05 2.45678e-05 2.6054e-05 2.25633e-05 2.53242e-05
1.9451e-05 2.58057e-05 2.40125e-05 2.60174e-05 2.34087e-05 2.44188e-05 1.74237e-05 2.60311e-05 2.19353e-05 2.57093e-05
2.05185e-05 2.4635e-05 1.77875e-05 2.61098e-05 2.27835e-05 2.50948e-05 1.87246e-05 2.58912e-05 2.13021e-05 2.54681e-05
1.98202e-05 2.4115e-05 1.68911e-05 2.60813e-05 2.21901e-05 2.43216e-05 1.7247e-05 2.47587e-05 1.81529e-05 2.56356e-05
2.06353e-05 2.59353e-05 2.15825e-05 2.51043e-05 1.92091e-05 2.37298e-05 1.66047e-05 2.39185e-05 1.69232e-05 2.43092e-05
1.7745e-05 2.56734e-05 2.09282e-05 2.52478e-05 2.00069e-05 1.65713e-05 1.68583e-05 2.46029e-05 1.87164e-05 1.76171e-05
2.32389e-05 1.65379e-05 2.34018e-05 1.67935e-05 2.52761e-05 2.02986e-05 1.85327e-05 2.47077e-05 1.94595e-05 2.37279e-05
1.74892e-05 2.39512e-05 1.83489e-05 1.9239e-05 2.47208e-05 1.97343e-05 2.261e-05 1.66922e-05 2.2742e-05 1.68653e-05
2.40094e-05 1.90185e-05 2.29956e-05 1.73941e-05 1.95013e-05 2.31453e-05 1.81134e-05 2.40075e-05 1.92684e-05 2.18198e-05
1.70506e-05 2.19176e-05 1.71323e-05 2.31553e-05 1.86989e-05 2.2098e-05 1.74653e-05 2.21833e-05 1.80139e-05 2.3137e-05
1.89211e-05 2.08459e-05 2.21529e-05 1.85012e-05 1.75136e-05 2.09131e-05 1.75375e-05 2.10287e-05 1.76936e-05 2.10626e-05
2.212e-05 1.80456e-05 1.86913e-05 2.10106e-05 1.84215e-05 1.96812e-05 1.80281e-05 1.97244e-05 1.80212e-05 1.97907e-05
1.80373e-05 2.09732e-05 1.85776e-05 1.97934e-05 1.81978e-05 1.97433e-05 1.84548e-05 1.83279e-05 1.85723e-05 1.83543e-05
1.85365e-05 1.83943e-05 1.84554e-05 1.97136e-05 1.85741e-05 1.83968e-05 1.84669e-05 1.88478e-05 1.88041e-05 1.86993e-05
1.83758e-05 1.85992e-05 1.86562e-05 1.67773e-05 1.91234e-05 1.67997e-05 1.90716e-05 1.68482e-05 1.89432e-05 1.83657e-05
1.86747e-05 1.8726e-05 1.68935e-05 1.88456e-05 1.8778e-05 1.69307e-05 1.88529e-05 1.50233e-05 1.96873e-05 1.50595e-05
1.96325e-05 1.69487e-05 1.88813e-05 1.51585e-05 1.94909e-05 1.52938e-05 1.93236e-05 1.54204e-05 1.92238e-05 1.30806e-05
2.0264e-05 2.02139e-05 1.31504e-05 1.54743e-05 1.92045e-05 2.00766e-05 1.33431e-05 1.98862e-05 1.36092e-05 1.9716e-05
1.38462e-05 1.10048e-05 2.08474e-05 1.11186e-05 2.08081e-05 1.96489e-05 1.39398e-05 1.14363e-05 2.06899e-05 1.18579e-05
2.05111e-05 1.22079e-05 2.03073e-05 2.14305e-05 8.87578e-06 1.23401e-05 2.02032e-05 2.14053e-05 9.0343e-06 2.13178e-05
9.47797e-06 2.1163e-05 1.00494e-05 2.09697e-05 1.05027e-05 2.08686e-05 1.06696e-05 6.75039e-06 2.19955e-05 6.95224e-06
2.19877e-05 7.5016e-06 2.19336e-05 8.18714e-06 2.1812e-05 2.22093e-05 2.22059e-05 2.2162e-05 8.71846e-06 2.16692e-05
2.20566e-05 8.91176e-06 2.16015e-05 2.19355e-05 4.71523e-06 2.253e-05 4.94288e-06 2.25331e-05 5.5433e-06 2.25048e-05
2.18795e-05 6.26979e-06 2.24236e-05 6.82611e-06 2.23351e-05 7.0287e-06 2.22965e-05 2.88882e-06 2.29398e-05 3.09757e-06
2.29401e-05 3.63563e-06 2.29187e-05 4.2796e-06 2.28645e-05 4.77589e-06 2.28079e-05 4.95754e-06 2.27838e-05 1.33026e-06
2.30838e-05 2.3079e-05 1.46213e-06 2.30534e-05 1.79697e-06 2.30029e-05 2.19993e-06 2.29516e-05 2.51695e-06 2.29303e-05
2.63399e-06 3.2941e-07 2.30768e-05 0 2.30714e-05 0 2.30435e-05 0 2.29887e-05 0
2.29354e-05 7.44407e-07 2.29144e-05 
U 3 324 float
-10 0 0 -10 0 0 -10 0 0 -10 -1.35881e-07
-2.80825e-08 -10 9.02002e-08 -3.99241e-08 -10 -4.09429e-07 -7.74535e-09 -10 0 0
-10 0 0 -10 2.73653e-07 -3.81062e-08 -10 -7.35463e-07 1.30401e-08 -10
-1.15966e-07 -3.73012e-08 -10 1.10002e-07 -4.96367e-08 -10 -3.91711e-07 -1.56153e-08 -10 0
0 -10 0 0 -10 2.92269e-07 -3.86576e-08 -10 -7.19147e-07 9.32852e-09
-10 4.19877e-07 -2.63487e-08 -10 -1.13838e-06 3.46181e-08 -10 -1.13422e-07 -8.1314e-09 -10
1.14223e-07 -1.05748e-08 -10 -3.89552e-07 -5.16635e-10 -10 4.35738e-07 -1.00384e-08 -10 -1.13082e-06
3.74591e-08 -10 0 0 -10 0 0 -10 5.33625e-07 -8.4276e-09
-10 -1.25454e-06 3.89813e-08 -10 2.97323e-07 -2.0728e-09 -10 -7.14935e-07 1.35528e-08 -10
5.45446e-07 1.41125e-08 -10 -1.22066e-06 4.28387e-08 -10 4.39122e-07 1.66166e-08 -10 -1.12383e-06
3.22991e-08 -10 0 0 -10 0 0 -10 9.97827e-08 3.41798e-08
-10 3.15797e-07 3.2686e-08 -10 -1.61782e-07 3.70106e-08 -10 6.22221e-07 8.04725e-09 -10
-1.43203e-06 3.06744e-08 -10 4.86747e-07 3.20343e-08 -10 -4.72254e-07 4.06182e-08 -10 5.47521e-07
3.09361e-08 -10 -1.20804e-06 3.6073e-08 -10 6.30501e-07 2.45862e-08 -10 -1.3769e-06 4.09702e-08
-10 6.18798e-07 3.50512e-08 -10 -8.70105e-07 4.07579e-08 -10 0 0 -10
0 0 -10 6.94821e-07 1.60276e-08 -10 -1.63625e-06 2.53002e-08 -10 6.30988e-07
3.64309e-08 -10 -1.35512e-06 4.30305e-08 -10 3.09445e-07 0 -10 5.12819e-07 0
-10 6.16399e-08 0 -10 7.18882e-07 3.95183e-08 -10 -9.62084e-07 3.86903e-08 -10
7.0556e-07 2.70719e-08 -10 -1.60877e-06 3.86154e-08 -10 6.72787e-07 0 -10 -2.35916e-07
0 -10 7.97151e-07 0 -10 -6.23192e-07 0 -10 0 0
-10 0 0 -10 7.94175e-07 4.19154e-08 -10 -1.13301e-06 4.52092e-08 -10
7.0521e-07 3.70032e-08 -10 -1.5923e-06 5.01232e-08 -10 7.43881e-07 1.79514e-08 -10 -1.55468e-06
1.94109e-08 -10 8.89127e-07 0 -10 -7.25163e-07 0 -10 7.5617e-07 2.68081e-08
-10 -1.53318e-06 2.04693e-08 -10 8.60074e-07 4.21726e-08 -10 -1.37519e-06 5.18952e-08 -10
7.53799e-07 3.79576e-08 -10 -1.5221e-06 3.19773e-08 -10 0 0 -10 0
0 -10 9.56269e-07 0 -10 -9.24968e-07 0 -10 7.62041e-07 1.90646e-08
-10 -1.56691e-06 8.40568e-09 -10 7.67184e-07 3.23227e-08 -10 -1.53505e-06 2.58774e-09 -10
9.00619e-07 4.27835e-08 -10 -1.30495e-06 4.60961e-08 -10 1.0142e-06 0 -10 -1.16947e-06
0 -10 7.61176e-07 4.6814e-08 -10 -1.52226e-06 1.10767e-08 -10 0 0
-10 0 0 -10 7.6119e-07 1.53135e-08 -10 -1.59209e-06 -6.07142e-09 -10
7.61716e-07 3.77574e-08 -10 -1.55377e-06 -5.78627e-09 -10 1.05035e-06 0 -10 -1.09566e-06
0 -10 9.01121e-07 4.55462e-08 -10 -1.31848e-06 3.50337e-08 -10 0 0
-10 -1.60682e-06 -1.251e-08 -10 7.54873e-07 5.30911e-08 -10 -1.55145e-06 2.46641e-09 -10
-1.57121e-06 -8.25497e-09 -10 0 0 -10 0 0 -10 7.53098e-07
8.97185e-09 -10 -1.62156e-06 -1.89485e-08 -10 1.04646e-06 0 -10 -1.12268e-06 0
-10 -1.57132e-06 5.34077e-10 -10 8.8746e-07 4.32198e-08 -10 -1.35923e-06 2.62847e-08 -10
7.50814e-07 2.78875e-08 -10 -1.58866e-06 -1.07237e-08 -10 7.44162e-07 4.03361e-08 -10 -1.59118e-06
-1.39826e-09 -10 -1.38401e-06 2.4111e-08 -10 1.02325e-06 0 -10 -1.16799e-06 0
-10 0 0 -10 0 0 -10 7.39782e-07 -1.90663e-09 -10
-1.65013e-06 -3.12712e-08 -10 8.71244e-07 3.37264e-08 -10 -1.4088e-06 2.19373e-08 -10 7.30112e-07
5.51812e-09 -10 -1.62498e-06 -2.74139e-08 -10 -1.19668e-06 0 -10 7.22529e-07 1.55934e-08
-10 -1.62571e-06 -1.12279e-08 -10 1.00073e-06 0 -10 -1.22537e-06 0 -10
0 0 -10 0 0 -10 7.30999e-07 -2.3593e-08 -10 -1.68966e-06
-3.93387e-08 -10 8.47702e-07 2.22885e-08 -10 -1.45523e-06 1.61753e-08 -10 7.1592e-07 -2.44185e-08
-10 -1.64484e-06 -5.107e-08 -10 7.03566e-07 -1.19724e-08 -10 -1.64803e-06 -2.41999e-08 -10
9.76282e-07 0 -10 -1.28699e-06 0 -10 0 0 -10 8.21974e-07
7.33492e-09 -10 -1.48932e-06 9.91259e-09 -10 0 0 -10 7.39954e-07 -4.23289e-08
-10 -1.71393e-06 -3.49152e-08 -10 7.21593e-07 -4.95018e-08 -10 -1.646e-06 -5.90813e-08 -10
7.07289e-07 -3.41567e-08 -10 9.46791e-07 0 -10 -1.64902e-06 -3.01196e-08 -10 -1.3338e-06
0 -10 8.14741e-07 -7.25911e-09 -10 -1.50595e-06 7.7417e-09 -10 0 0
-10 0 0 -10 7.75149e-07 -5.02931e-08 -10 -1.69622e-06 -2.80181e-08 -10
7.54413e-07 -6.07344e-08 -10 -1.62451e-06 -4.16748e-08 -10 9.2809e-07 0 -10 -1.36589e-06
0 -10 7.41825e-07 -4.52519e-08 -10 -1.6196e-06 -2.09298e-08 -10 8.42382e-07 -1.75156e-08
-10 -1.49567e-06 8.57104e-09 -10 0 0 -10 0 0 -10
8.24905e-07 -5.21065e-08 -10 -1.63387e-06 -2.20636e-08 -10 8.08571e-07 -6.49196e-08 -10 -1.5603e-06
-2.22626e-08 -10 9.4554e-07 0 -10 -1.37334e-06 0 -10 7.95261e-07 -5.0456e-08
-10 -1.55143e-06 -1.08528e-08 -10 0 0 -10 -1.57047e-06 -1.48291e-08 -10
-1.49284e-06 -1.5575e-08 -10 8.91415e-07 -2.25942e-08 -10 -1.44901e-06 1.01326e-08 -10 -1.48675e-06
-8.53656e-09 -10 0 0 -10 0 0 -10 8.30341e-07 -4.70904e-08
-10 -1.50707e-06 -7.59469e-09 -10 8.2098e-07 -6.25949e-08 -10 -1.42539e-06 -8.88739e-09 -10
9.89911e-07 0 -10 -1.34671e-06 0 -10 -1.3983e-06 1.06129e-08 -10 8.08031e-07
-5.28826e-08 -10 -1.42207e-06 -6.22027e-09 -10 -1.30841e-06 0 -10 8.99463e-07 -2.47854e-08
-10 -1.34758e-06 1.10931e-08 -10 0 0 -10 0 0 -10
7.99148e-07 -4.02983e-08 -10 -1.30135e-06 -1.86349e-09 -10 9.95433e-07 0 -10 -1.27011e-06
0 -10 7.93925e-07 -5.58933e-08 -10 -1.23159e-06 -4.03918e-10 -10 7.85544e-07 -5.00952e-08
-10 -1.2306e-06 -2.31552e-09 -10 8.72481e-07 -2.48281e-08 -10 -1.17811e-06 7.98621e-09 -10
0 0 -10 0 0 -10 -1.00316e-06 1.39913e-09 -10 7.85544e-07
-3.7511e-08 -10 9.66194e-07 0 -10 -1.12957e-06 0 -10 -9.59358e-07 5.61112e-09
-10 7.80298e-07 -5.45505e-08 -10 -9.53449e-07 1.38664e-09 -10 7.74626e-07 -4.77707e-08 -10
-9.23004e-07 3.17756e-09 -10 8.60157e-07 -2.40358e-08 -10 0 0 -10 0
0 -10 7.94713e-07 -3.90729e-08 -10 -5.93427e-07 5.88958e-09 -10 -9.00784e-07 0
-10 9.50705e-07 0 -10 7.86322e-07 -5.87107e-08 -10 -5.68389e-07 1.0169e-08 -10
7.80358e-07 -5.25255e-08 -10 -5.65684e-07 6.26477e-09 -10 8.63731e-07 -2.79489e-08 -10 -5.69962e-07
5.44595e-09 -10 0 0 -10 0 0 -10 9.48595e-07 0
-10 -5.68842e-07 0 -10 -4.89556e-08 2.68199e-09 -10 8.2887e-07 -4.585e-08 -10
-5.05671e-08 8.47026e-09 -10 8.20791e-07 -6.73504e-08 -10 -5.19579e-08 1.32399e-08 -10 8.11719e-07
-6.29684e-08 -10 -8.85473e-08 1.56982e-08 -10 8.88728e-07 -3.66025e-08 -10 -1.18542e-07 0
-10 9.67116e-07 0 -10 0 0 -10 0 0 -10
8.88781e-07 -5.80149e-08 -10 6.50305e-07 -3.2598e-09 -10 8.85307e-07 -8.18621e-08 -10 6.19679e-07
1.90072e-09 -10 8.66744e-07 -7.80346e-08 -10 6.2263e-07 1.32784e-08 -10 0 0
-10 1.00431e-06 -5.77567e-09 -10 9.62189e-07 -1.57106e-09 -10 9.31969e-07 -4.83628e-08 -10
5.70922e-07 1.61428e-08 -10 9.66742e-07 8.80977e-09 -10 1.00475e-06 0 -10 5.19018e-07
0 -10 9.01441e-07 1.16638e-08 -10 0 0 -10 0 0
-10 9.70879e-07 -5.98364e-08 -10 1.53532e-06 -9.54947e-09 -10 9.74077e-07 -8.7171e-08 -10
1.47595e-06 -6.77874e-09 -10 8.34597e-07 0 -10 9.43679e-07 -8.96369e-08 -10 1.48291e-06
2.10676e-09 -10 9.89116e-07 -6.02139e-08 -10 1.39722e-06 4.94536e-09 -10 1.05124e-06 0
-10 1.30796e-06 0 -10 0 0 -10 0 0 -10
1.07149e-06 -2.15335e-08 -10 2.83702e-06 -1.05979e-08 -10 1.06218e-06 -2.57293e-08 -10 2.82851e-06
-1.15167e-08 -10 1.02121e-06 -3.13339e-08 -10 2.83531e-06 -7.77101e-09 -10 1.05798e-06 -2.76776e-08
-10 2.71092e-06 -3.29387e-09 -10 1.11164e-06 0 -10 2.58271e-06 0 -10
0 0 -10 0 0 -10 1.69456e-06 -5.23935e-09 -10 1.18205e-06
-4.569e-10 -10 1.7255e-06 -7.07138e-09 -10 1.13651e-06 1.52737e-08 -10 1.72796e-06 -5.81331e-09
-10 1.08692e-06 1.69736e-08 -10 1.66437e-06 -4.20445e-09 -10 1.1087e-06 6.45099e-09 -10
1.59982e-06 0 -10 1.15088e-06 0 -10 5.99548e-07 -5.4445e-09 -10 0
0 -10 1.23866e-06 -1.24272e-08 -10 0 0 -10 1.1733e-06 -2.82025e-09
-10 0 0 -10 1.11942e-06 3.4227e-09 -10 0 0 -10
1.1233e-06 2.53893e-09 -10 0 0 -10 1.15525e-06 2.73884e-09 -10 -1.31039e-07
0 
